<?xml version="1.0" encoding="utf-8"?>
<!-- Generator: Adobe Illustrator 27.0.0, SVG Export Plug-In . SVG Version: 6.00 Build 0)  -->
<svg version="1.1" id="Layer_1" xmlns="http://www.w3.org/2000/svg" xmlns:xlink="http://www.w3.org/1999/xlink" x="0px" y="0px"
	 viewBox="0 0 256 250" style="enable-background:new 0 0 256 250;" xml:space="preserve">
<style type="text/css">
	.st0{fill:#00005B;}
	.st1{fill:#9999FF;}
</style>
<path class="st0" d="M45.4,0H211c25.1,0,45.4,20.3,45.4,45.4v159.2c0,25.1-20.3,45.4-45.4,45.4H45.4C20.3,250,0,229.7,0,204.6V45.4
	C0,20.3,20.3,0,45.4,0z"/>
<path class="st1" d="M104,150H64.4l-8.1,25.1c-0.2,1-1.1,1.6-2,1.5H33.9c-1.2,0-1.5-0.6-1.2-1.9l34.5-98.6c0.3-1.1,0.6-1.9,1.1-3.3
	c0.4-2.2,0.6-4.6,0.6-6.9c-0.1-0.5,0.3-1.1,0.9-1.2h0.3h27.5c0.9,0,1.3,0.3,1.4,0.9l38.9,109c0.3,1.2,0,1.7-1.1,1.7h-22.3
	c-0.7,0.1-1.5-0.4-1.7-1.2l-8.8-25.4L104,150z M70.6,128.7h27.1c-0.6-2.2-1.5-4.9-2.5-7.7c-1-2.9-1.9-6-2.9-9.2
	c-1.1-3.3-2-6.5-3.1-9.8s-2-6.4-2.9-9.5c-0.9-3-1.6-5.8-2.4-8.3h-0.2c-1,4.6-2.1,9.2-3.6,13.8c-1.6,5.1-3.2,10.5-4.9,15.8
	C73.8,119.2,72.2,124.2,70.6,128.7z"/>
<path class="st1" d="M150,175v-63.5c0-1.9,0-4.2-0.1-6.5c-0.1-2.5-0.1-4.7-0.2-6.8s-0.2-4.2-0.3-5.4c-0.1-0.3-0.1-0.7,0.2-1.1
	c0.3-0.2,0.6-0.3,1.1-0.3h17.2c0.6,0,1.2,0.1,1.7,0.3c0.4,0.2,0.7,0.6,0.9,1.2s0.5,1.5,0.7,2.4c0.3,1.2,0.5,2.4,0.6,3.5
	c3.3-2.9,7.2-5.1,11.3-6.6c4.2-1.4,8.5-2.1,12.9-2.1c3.4,0,6.8,0.5,10,1.6c7.6,2.5,13.6,8.3,16.2,15.8c1.7,4.4,2.4,10.1,2.4,17.1
	v50.5c0,1.1-0.4,1.5-1.4,1.5l-20.1,0.2c-0.9,0.1-1.6-0.4-1.7-1.3v-0.4v-47.9c-0.1-3.2-0.7-6.4-2-9.3c-1-2.1-2.5-4.1-4.4-5.3
	c-2.2-1.4-4.7-2-7.3-1.9c-2.8,0-5.6,0.4-8.1,1.5c-2.4,1-4.5,2.4-6.4,4.1v59c0,1.1-0.4,1.5-1.4,1.5h-20.3c-0.7,0.1-1.4-0.4-1.5-1.2
	C149.9,175.2,149.9,175.1,150,175L150,175z"/>
</svg>
