<?xml version="1.0" encoding="UTF-8"?>
<svg id="Layer_2" data-name="Layer 2" xmlns="http://www.w3.org/2000/svg" viewBox="0 0 312.94 305.11">
  <defs>
    <style>
      .cls-1 {
        fill: #99f;
      }

      .cls-2 {
        fill: #00005b;
      }
    </style>
  </defs>
  <g id="Layer_1-2" data-name="Layer 1">
    <g>
      <path id="path2277" class="cls-2" d="M55.41,0h202.12c30.63,0,55.41,24.77,55.41,55.41V249.71c0,30.63-24.78,55.41-55.41,55.41H55.41c-30.64,0-55.41-24.77-55.41-55.41V55.41C0,24.77,24.77,0,55.41,0Z"/>
      <path id="path2279" class="cls-1" d="M122.9,182.58h-48.46l-9.89,30.76c-.24,1.22-1.34,1.95-2.44,1.83h-24.53c-1.47,0-1.83-.73-1.47-2.32l41.98-120.58c.37-1.34,.73-2.68,1.34-4.27,.61-2.69,1.1-5.49,1.1-8.3-.12-.61,.37-1.34,1.1-1.46h33.81c.85,0,1.59,.37,1.71,1.1l47.36,133.76c.37,1.47,0,2.08-1.34,2.08h-27.22c-.85,.12-1.83-.49-2.07-1.47l-10.98-31.12Zm-40.89-26h33.08c-.73-2.68-1.83-5.98-3.05-9.4-1.22-3.54-2.32-7.32-3.54-11.23-1.34-4.03-2.44-7.93-3.78-11.96-1.34-4.03-2.44-7.81-3.54-11.6-1.1-3.66-1.95-7.08-2.93-10.13h-.24c-1.22,5.61-2.57,11.23-4.4,16.84-1.95,6.22-3.91,12.82-5.98,19.28-1.59,6.59-3.66,12.69-5.61,18.18Z"/>
      <path id="path2281" class="cls-1" d="M264.48,112.4v79.94c0,3.54,0,6.59,.12,9.4,.12,2.68,.24,5.13,.37,7.2,.24,2.08,.37,3.3,.49,4.64,.12,1.22-.37,1.71-1.47,1.71h-22.33c-1.1,.12-2.07-.49-2.44-1.47-.24-1.1-.49-2.2-.73-3.3-.25-.85-.25-1.83-.25-2.68-4.15,3.78-9.27,6.47-14.77,8.06-4.64,1.34-9.64,1.95-14.52,1.95s-9.64-.61-14.16-2.2c-4.15-1.47-8.05-3.91-11.11-7.2-3.42-3.66-5.86-7.93-7.32-12.69-1.83-5.98-2.69-12.21-2.56-18.56V112.53c-.12-.73,.37-1.59,1.34-1.71h25.26c.73-.12,1.59,.37,1.71,1.34v61.64c0,5.73,1.34,10.25,3.78,13.55,2.44,3.29,7.57,5,13.43,5,3.05,0,5.98-.48,8.91-1.58,3.05-1.1,5.74-2.44,8.18-4.27V112.4c0-.85,.61-1.46,1.83-1.46h24.9c.61-.12,1.46,.37,1.46,1.1-.12,.12-.12,.24-.12,.37h0Z"/>
    </g>
  </g>
</svg>