<?xml version="1.0" encoding="UTF-8"?>
<svg id="Layer_2" data-name="Layer 2" xmlns="http://www.w3.org/2000/svg" viewBox="0 0 1239.26 1206.68">
  <defs>
    <style>
      .cls-1 {
        fill: #99f;
      }

      .cls-2 {
        fill: #00005b;
      }
    </style>
  </defs>
  <g id="_Ñëîé_1" data-name="Ñëîé 1">
    <g>
      <rect class="cls-2" width="1239.26" height="1206.68" rx="222.2" ry="222.2"/>
      <g>
        <path class="cls-1" d="M407.31,322.2c20.16,0,40.32,0,60.48,0,9.4,0,9.43,0,12.49,8.56,61.04,170.83,122.07,341.67,183.1,512.51,.45,1.27,.95,2.55,1.21,3.86,1.06,5.29-.38,7.18-5.88,7.23-12.21,.1-24.43,.04-36.64,.04-21.71,0-43.42,0-65.13,0-9.27,0-10.05-.55-12.96-9.06-12.83-37.43-25.73-74.83-38.37-112.31-1.54-4.56-3.51-6.26-8.52-6.24-59.12,.19-118.25,.18-177.38,0-4.76-.01-6.65,1.49-8.06,5.91-11.74,36.96-23.75,73.84-35.67,110.75-3.08,9.53-4.49,10.58-14.45,10.58-28.88,0-57.77,0-86.65,0-11.95,0-13.2-1.71-9.32-12.8,38.3-109.49,76.63-218.96,114.9-328.46,17.06-48.83,34.38-97.57,50.67-146.65,3.7-11.13,3.9-23.49,5.15-35.34,.87-8.19,.74-8.56,8.8-8.56,20.74-.02,41.48,0,62.23,0Zm-63.02,303.69h128.13c-21.93-70.55-43.77-140.79-65-209.1-20.67,68.46-41.86,138.66-63.13,209.1Z"/>
        <path class="cls-1" d="M1034.1,666.21c4.87,.02,22.09,.07,22.09,.07,0,0-.12-42.41-.81-56.41-1.2-23.75-4.9-47.36-12.63-69.55-12.04-34.54-34.67-64.21-66.59-82.72-17.11-9.94-36.07-16.5-55.55-19.99-69.3-12.44-145.57,4.13-189.13,62.62-34.84,46.77-45.01,108.23-44.87,165.21,0,0,.4,174.63,185.83,188.44,0,0,81.26,6.11,147.65-22.77v-88.26s-206.36,62.73-219.83-77.4c31.69,.1,63.38,.22,95.06,.32,46.25,.15,92.52,.3,138.77,.45Zm-158.07-150.98c41.84,0,75.77,33.82,75.77,75.52h-151.53c0-41.71,33.93-75.52,75.77-75.52Z"/>
      </g>
    </g>
  </g>
</svg>