<?xml version="1.0" encoding="utf-8"?>
<!-- Generator: Adobe Illustrator 27.0.0, SVG Export Plug-In . SVG Version: 6.00 Build 0)  -->
<svg version="1.1" id="Layer_2_00000036933355663876628530000010556363878746824836_"
	 xmlns="http://www.w3.org/2000/svg" xmlns:xlink="http://www.w3.org/1999/xlink" x="0px" y="0px" viewBox="0 0 128 108.1"
	 style="enable-background:new 0 0 128 108.1;" xml:space="preserve">
<style type="text/css">
	.st0{clip-path:url(#SVGID_00000120529315024446813750000000351407926260960905_);}
	.st1{fill:#0000CC;}
	.st2{fill-rule:evenodd;clip-rule:evenodd;fill:#FFFFFF;}
	.st3{fill-rule:evenodd;clip-rule:evenodd;fill:#F3E517;}
	.st4{clip-path:url(#SVGID_00000098924224500347952340000006197216761765815475_);}
	.st5{fill-rule:evenodd;clip-rule:evenodd;fill:#FF7901;}
</style>
<g id="svg2">
	<g>
		<g>
			<defs>
				<path id="SVGID_1_" d="M64,0C50.7,0,38.6,4.1,29.7,11.1S15,28,15,39.1v4C6.1,47.5,0,59.3,0,73.1c0,17.7,10.1,32,23,32V39.1
					c0-8.3,4.3-15.9,11.7-21.7S52.4,8,64,8s22,3.7,29.3,9.4S105,30.8,105,39.1v66.1c12.9,0,23-14.3,23-32c0-13.8-6.1-25.6-15-30.1
					v-4c0-11.1-5.8-21-14.7-28C89.4,4.1,77.3,0,64,0z M26,42.1v63c2,0,4-1,5-3v-58C30,43.1,28,42.1,26,42.1z M102,42.1c-2,0-4,1-5,2
					v58c1,2,3,3,5,3V42.1z"/>
			</defs>
			<clipPath id="SVGID_00000060712865416382053230000016662836014943316133_">
				<use xlink:href="#SVGID_1_"  style="overflow:visible;"/>
			</clipPath>
			<g style="clip-path:url(#SVGID_00000060712865416382053230000016662836014943316133_);">
				<g id="g2792">
					<path id="path2127" d="M64,0C50.7,0,38.6,4.1,29.7,11.1S15,28,15,39.1v4C6.1,47.5,0,59.3,0,73.1c0,17.7,10.1,32,23,32V39.1
						c0-8.3,4.3-15.9,11.7-21.7S52.4,8,64,8s22,3.7,29.3,9.4S105,30.8,105,39.1v66.1c12.9,0,23-14.3,23-32c0-13.8-6.1-25.6-15-30.1
						v-4c0-11.1-5.8-21-14.7-28C89.4,4.1,77.3,0,64,0z M26,42.1v63c2,0,4-1,5-3v-58C30,43.1,28,42.1,26,42.1z M102,42.1
						c-2,0-4,1-5,2v58c1,2,3,3,5,3V42.1z"/>
					<path id="path2140" class="st1" d="M60-2C46.7-2,34.6,2.1,25.7,9.1S9,26,9,37.1v2C0.1,43.5-9,55.3-9,69.1c0,17.7,12.1,28,25,28
						v-48c18.2-76.7,3-2.5,3-4c0-12,7.6-26,14-31c7.4-5.7,15.4-9,27-9s22,2.5,29.3,8.3S101,26.8,101,35.1v68.1c1.1,0,1.9-2.8,3-3
						c11.2-2.3,19-14.9,19-31c0-13.8-4.1-21.5-13-26l-1-8.1c0-11.1-5.8-21-14.7-28S73.3-2,60-2z M25,38.1l-2,62c2,0,7-1,8-3v-57
						C30,39.1,27,38.1,25,38.1z M99,38.1c-2,0-4,1-5,2v58c1,2,3,4,5,4V38.1z"/>
				</g>
			</g>
		</g>
		<path id="path2802" class="st2" d="M16,49.1c-6.8,2.2-9.8,11.4-9.8,19.4C6.2,60.5,14.8,53.1,16,49.1z M37.8,9.8
			c-12.5,6.8-15,12.9-17.8,19.3C25,22.1,29.6,14.8,37.8,9.8z M27.8,42.8l0.3,2.6l-1.9-2l0.3-1.4L27.8,42.8L27.8,42.8z M109.1,43.7
			l4.1,6.4l-1.5,1.4C111.7,51.4,109.1,43.7,109.1,43.7z"/>
		<g id="path3178">
			<path class="st3" d="M61.2,35.4c-2.3,5.7-4.5,15.2-7.2,4.3c-2-7.8-6.3,4.9-9.4,7c-6.3,4.8-9.8,11.5-12.5,18.7
				c-7.4-6.3-4.6,3.8-5.1,8.7c0.4,7.4-0.8,15.4,0.6,22.4c5.9,5.1,10.1,13.2,18.8,13.1c6,2.1,5.2-6.9,10.6,0.5c5,6.8,8,2.8,11.3-0.5
				c4.7,7.3,6.2-8.7,10.2-1.5c6.2,2.4,11.7,3.6,12.7-4.6c1.3-6.4,12.3-6.6,9.8-14.3c-0.4-8,0.7-16.7-0.5-24.3
				C96.3,61.5,93,54,88.3,53.3c-5.9,2.9-3.6-9.8-6.1-13.5c-0.8-9.8-2.9-5.4-5.2,1.3c-1.3,9.7-6.6,5.1-9.3-1.3
				C65.3,37.8,62.6,27.1,61.2,35.4L61.2,35.4z"/>
		</g>
		<g>
			<defs>
				<polygon id="SVGID_00000068657621975708296960000009100404493524880015_" points="30,87.1 32,89.1 35,99.1 36,87.1 39,102.1 
					39,83.1 41,88.1 44,102.1 44,83.1 46,85.1 49,102.1 52,79.1 58.6,105 59,89.1 61,83.1 63,108.1 69,83.1 71,104.1 76,82.1 
					81,106.1 82,88.1 85,82.1 86,105.1 91,83.1 94,93.1 95,84.1 98,90.1 98,71.1 95,79.1 94,62.1 92,75.1 90,71.1 89,57.1 84,76.1 
					83,72.1 80,42.1 77,68.1 75,76.1 71,49.1 67,72.1 65,78.1 64,36.8 58,83.1 52,41.1 49,77.1 47,73.1 45,49.1 44,73.1 41,80.1 
					39,56.1 37,75.1 34,70.1 34,84.1 30,69.1 				"/>
			</defs>
			<clipPath id="SVGID_00000127034672041295848560000001645011759277206415_">
				<use xlink:href="#SVGID_00000068657621975708296960000009100404493524880015_"  style="overflow:visible;"/>
			</clipPath>
			<g style="clip-path:url(#SVGID_00000127034672041295848560000001645011759277206415_);">
				<path id="path3120" class="st5" d="M28,109.1v-73h72v73H28z"/>
			</g>
		</g>
	</g>
</g>
</svg>
