<?xml version="1.0" encoding="UTF-8"?>
<svg id="Layer_2" data-name="Layer 2" xmlns="http://www.w3.org/2000/svg" viewBox="0 0 85.94 71.03">
  <defs>
    <style>
      .cls-1 {
        fill: #fefdfd;
      }

      .cls-2 {
        fill: #b6212f;
      }

      .cls-3 {
        fill: #f48a20;
      }
    </style>
  </defs>
  <g id="Layer_1-2" data-name="Layer 1">
    <g>
      <path class="cls-3" d="M26.97,.29c6.24,0,11.73,3.8,13.56,9.8,4.37,14.27,8.66,28.57,12.81,42.9,2.13,7.36-2.34,15.1-9.68,17.32-7.45,2.25-15.48-1.68-17.78-9.11-4.42-14.25-8.73-28.55-12.81-42.9C10.47,9.12,17.49,.28,26.97,.29Zm.09,19.56c2.71,0,4.89-2.18,4.86-4.86-.03-2.61-2.16-4.73-4.78-4.77-2.71-.04-4.92,2.09-4.95,4.78-.04,2.67,2.16,4.85,4.87,4.85Z"/>
      <path class="cls-2" d="M85.93,56.02c0,7.51-5.01,13.27-12.31,14.5-6.53,1.1-13.51-3-15.52-9.52-4.4-14.26-8.69-28.56-12.83-42.9-2.2-7.63,2.28-15.29,9.86-17.51,7.5-2.2,15.33,1.97,17.65,9.6,4.26,13.98,8.41,28,12.59,42.01,.4,1.35,.63,2.74,.55,3.82ZM64.06,14.82c.04-2.66-2.18-4.9-4.85-4.9-2.59,0-4.77,2.12-4.84,4.71-.08,2.67,2.08,4.94,4.75,5,2.65,.06,4.91-2.13,4.94-4.81Z"/>
      <path class="cls-3" d="M10.95,18.76c2.4,8.03,4.76,15.93,7.13,23.83,1.81,6.07,3.62,12.13,5.46,18.19,.32,1.04,.56,2.2,1.19,3.04,1.25,1.66,.41,2.59-.81,3.63-4.86,4.16-11.59,4.75-17.01,1.45-5.43-3.31-8.14-9.73-6.35-15.98,3.21-11.24,6.64-22.41,9.98-33.61,.05-.16,.2-.28,.41-.55Z"/>
      <path class="cls-1" d="M27.06,19.84c-2.71,0-4.91-2.18-4.87-4.85,.04-2.69,2.24-4.82,4.95-4.78,2.62,.04,4.75,2.16,4.78,4.77,.03,2.68-2.15,4.86-4.86,4.86Z"/>
      <path class="cls-1" d="M64.06,14.82c-.04,2.68-2.29,4.87-4.94,4.81-2.67-.06-4.82-2.33-4.75-5,.07-2.59,2.25-4.71,4.84-4.71,2.67,0,4.88,2.24,4.85,4.9Z"/>
    </g>
  </g>
</svg>