<?xml version="1.0" encoding="UTF-8"?>
<svg id="Layer_2" data-name="Layer 2" xmlns="http://www.w3.org/2000/svg" viewBox="0 0 216.28 175">
  <defs>
    <style>
      .cls-1 {
        fill: #fff;
      }

      .cls-2 {
        fill: #213d61;
      }

      .cls-3 {
        fill: #113871;
      }
    </style>
  </defs>
  <g id="_Ñëîé_1" data-name="Ñëîé 1">
    <g>
      <g>
        <path class="cls-3" d="M50.72,103.23c.06,.67,.12,1.35,.18,2.02-1.47,1.26-1.36,2.58-.16,3.94,.13,.27,.18,.56,.17,.86-.3,8.41,.17,16.98,1.54,25.06,1.8,10.56,.77,21.61,5.08,31.79,1.04,2.45-.52,4.2-3.4,3.9-5.39-.57-10.8-1.07-16.15-1.91-10.05-1.58-18.33-6.36-24.87-14.23-2.73-3.29-3.34-7.47-5.13-11.15-2.57-5.26-4.57-10.96-4.5-16.98,.04-3.34,.82-6.57,4.68-7.92,5-1.75,8.8-5.27,11.96-9.28,2.34-2.97,5.71-5.82,4.33-10.45l.24-.11s-.26,.07-.26,.07c1.16,.19,1.97-.4,2.38-1.37,2.07-4.9,5.12-9.23,6.62-14.56,2.64-9.41,4.47-18.97,6.58-28.63,1.83,1.49,2.55,3.01,3.12,5.16,1.14,4.23,.72,8.51,1.35,12.74,1.22,8.07,3.54,15.99,3.5,24.27-.01,2.36-.34,5.41,2.73,6.77Z"/>
        <path class="cls-3" d="M174.36,3.03c.67,.18,1.33,.36,2,.54,3.82,4.08,10.95,3.16,13.65,9.02,.17,.36,1.29,.57,1.85,.42,2.27-.61,3.59,.89,4.52,2.33,4.55,7.04,9.26,13.94,11.03,22.46,.68,3.27-.27,7.47,3.57,9.69,.06,.67,.12,1.33,.18,2-1.66,1.9-.91,3.97-.45,6.04,1.36,6.14,.75,6.74-5.09,5.31-.55-.13-1.22,.24-1.84,.38,0,0-.39-.25-.39-.25,.98-1.79,.91-2.82-1.47-3.57-7.16-2.24-14.17-3.26-21.7-1.26-7.35,1.95-9.39,3.7-9.78,11.35,0,0,.02-.02,.02-.02-3.02,.92-3.37,3.71-4.08,6.11-1.15,3.87-2.06,7.82-3.26,12.45-2.49-9.1-3.29-17.52-3.52-25.82-.49-17.3-4.4-34.22-5.01-51.48-.14-3.89,1.09-4.99,5.2-4.52,4.89,.56,9.76-.3,14.58-1.19Z"/>
        <path class="cls-3" d="M202.88,79.34c.32,.12,.48,.35,.47,.7-.72,2.73,1.15,4.48,2.78,5.91,4.4,3.86,5.07,8.84,5.05,14.18-.02,8.05,.03,16.1,.05,24.15-.02,.63-.05,1.25-.07,1.88-3.79,10.01-5.02,21.07-12.97,29.35-2.02,2.1-3.38,4.75-6.18,6.18-2.62,1.34-5.45,2.68-5.7,6.27l-.36,.17s-.4-.02-.4-.02c-1.59-.08-2.93-1.08-4.78-.43-4.58,1.59-5.85,.09-5.92-5.07-.1-7.07,1.43-13.97,1.62-21.03,.29-10.57,1.19-21.14,2.51-31.68,.8-6.41,1.29-13.09-.5-19.57,.16-.68,.31-1.35,.47-2.03,1.25-.41,3.35-1.09,3-2.1-1.66-4.81,2.72-6.96,4.04-10.4,1.18-3.09,2.89-2.98,5.7-2.3,4.29,1.04,6.59,5.61,11.18,5.83Z"/>
        <path class="cls-3" d="M82.67,23.56c.08,.21,.19,.42,.25,.63,.03,.1-.04,.23-.06,.35-4.52,9.2-4.31,19.06-4,28.93-.07,.66-.15,1.33-.22,1.99-3.41,6.54-3.44,13.99-4.46,20.92-1.31,8.89-2.89,17.87-3.31,26.92-.05,1.13,.61,3.15-1.2,3.32-1.99,.18-2.04-2.01-2.26-3.3-1.3-7.78-2.54-15.57-3.57-23.39-.98-7.47-1.33-15.03-2.59-22.44-2.11-12.34-4.07-24.67-4.46-37.21-.13-4.23-.58-8.47-1.85-12.57-.67-2.17,2.13-5.8,4.48-5.63,6.35,.44,12.65-.78,19.09,.36,4.35,.77,5.56,1.73,4.88,6.2-.74,4.88-3.14,9.84-.71,14.92Z"/>
        <path class="cls-3" d="M133,16.78c-.11,.6-.23,1.19-.34,1.79-1.59,1.04-1.03,2.65-1.09,4.1,0,.32-.05,.63-.16,.93-1.44,1.53-.72,3.38-.76,5.11-.08,.95-.16,1.9-.25,2.85-2.43,4.42-3.61,9-1.78,13.96-.04,.65-.08,1.3-.12,1.94-1.09,.19-1.76,.75-1.89,1.93-1,8.83-1.83,17.68-3.09,26.48-1.21,8.46-1.47,17.08-3.9,25.36-.39,1.32-.59,2.81-2.37,2.5-1.33-.24-1.7-1.55-1.6-2.75,.58-7.34-1.66-14.43-1.93-21.64-.54-14.2-3.31-28.17-3.43-42.44-.07-9.12-2.55-18.2-3.27-27.35-.22-2.73-1.47-7.61,4-7.83,5.96-.24,11.93-.08,17.9-.03,2.72,.02,3.99,1.17,3.11,4.12-.61,2.03-1.25,4.21,.79,5.95-.02,.58-.04,1.16-.06,1.75-1.58,1.23-1.42,2.31,.27,3.27Z"/>
        <path class="cls-3" d="M151.35,135.1c.18,6.57,1.91,13.06,1.16,19.69-.03,3.98-.13,7.95-.07,11.93,.04,2.54-1.01,3.55-3.51,4.46-4.58,1.66-8.8-.59-13.24-.33-6.54,.39-8.48-2.1-6.76-8.44,3.33-12.26,4.53-25.01,5.91-37.41,1.51-13.62,4.55-27.14,4.71-40.93,.03-2.93,1.16-5.81,1.01-8.83-.06-1.19,.45-2.48,1.92-2.4,1.74,.09,2.07,1.57,1.85,2.93-.27,1.63-.32,3.14-.07,4.83,2.53,16.94,3.45,34.05,5.15,51.08,.15,1.47-.17,3.1,1.93,3.44Z"/>
        <path class="cls-3" d="M79.89,166.01c-.04-.35-.08-.7-.12-1.05,2.46-1.5,2.52-4.11,2.92-6.51,1.72-10.32,1.06-20.82,3.72-31.17,2.32-9,2.28-18.6,3.27-27.94,.85-8.02,1.61-16.06,2.64-24.06,.14-1.09-.46-3.59,1.93-3.23,1.52,.23,1.4,2.04,1.41,3.37,.07,5.27,.87,10.4,1.65,15.63,2.17,14.48,2.47,29.24,4.53,43.75,1.17,8.26-.97,16.75,2.36,24.85,.98,2.39,.33,5.46,.38,8.21,.02,1.49-.72,2.99-2.15,2.88-7.71-.6-16.43,3.44-22.55-4.72Z"/>
        <path class="cls-3" d="M20.05,67.55c0,.29-.05,.58-.13,.86-3.73,2.16-3.55,6.28-4.91,9.65-2.92,7.23-2.99,16.32-12.37,19.55-1.04-1.58-.54-3.28-.57-4.88-.24-14.83,0-29.65,1.94-44.39,.46-3.54-1.26-7.65,3.56-9.82,.97-.44,1.38-2.99,1.37-4.56-.1-11.76,7.57-18.65,15.6-25.34,1.12-.93,2.44-1.35,3.64-.48,1.09,.79,.73,2.08,.38,3.22-1.43,4.7-.05,9.72-2.28,14.53-.97,2.09-1.75,5.16-1.65,7.87,.2,5.64-.68,11.08-2,16.55-1.36,5.65-4.62,11.07-2.58,17.24Z"/>
        <path class="cls-2" d="M79.89,166.01c6.12,8.16,14.85,4.12,22.55,4.72,1.43,.11,2.17-1.4,2.15-2.88-.04-2.76,.61-5.83-.38-8.21-3.34-8.1-1.19-16.59-2.36-24.85-2.06-14.51-2.36-29.26-4.53-43.75-.78-5.22-1.58-10.36-1.65-15.63-.02-1.33,.11-3.14-1.41-3.37-2.39-.36-1.79,2.13-1.93,3.23-1.03,8-1.79,16.04-2.64,24.06-.99,9.34-.95,18.95-3.27,27.94-2.67,10.35-2.01,20.86-3.72,31.17-.4,2.4-.45,5.01-2.92,6.51,.11-10.59,2.2-20.97,3.46-31.44,1.86-15.6,4.09-31.15,6.01-46.75,1.29-10.45,2.3-20.93,3.47-31.39,.04-.36,.52-.67,1.13-1.41,2.72,6.6,3.14,13.22,3.68,19.77,1.25,15.16,3.37,30.22,4.39,45.43,1.1,16.37,3.57,32.66,5.84,48.93,.67,4.78-.94,5.53-5.13,5.3-6.12-.33-12.26-.09-18.39-.1-6.68-.02-7.28-1.04-4.34-7.29Z"/>
        <path class="cls-2" d="M82.67,23.56c-2.43-5.08-.03-10.04,.71-14.92,.68-4.48-.53-5.43-4.88-6.2-6.44-1.14-12.75,.09-19.09-.36-2.35-.16-5.15,3.47-4.48,5.63,1.27,4.1,1.72,8.34,1.85,12.57,.39,12.54,2.36,24.87,4.46,37.21,1.26,7.41,1.61,14.97,2.59,22.44,1.03,7.82,2.27,15.61,3.57,23.39,.22,1.29,.27,3.48,2.26,3.3,1.81-.16,1.15-2.18,1.2-3.32,.43-9.06,2-18.03,3.31-26.92,1.02-6.93,1.05-14.38,4.46-20.92,.95,6.82-1.45,13.35-2.19,19.99-1.17,10.39-2.02,20.85-3.66,31.2-1.3,8.21-2.18,16.48-3.42,26.06-3.63-7.59-2.6-14.58-3.49-21.19-4.26-31.46-8.16-62.97-12.19-94.45-.54-4.23-1.05-8.47-1.75-12.68-.4-2.44,.03-3.72,2.88-3.73,9.59-.03,19.17-.21,28.76-.35,1.69-.03,2.9,.1,2.45,2.42-1.33,6.91-1,14.09-3.35,20.85Z"/>
        <path class="cls-2" d="M132.8,11.77c-2.05-1.74-1.4-3.93-.79-5.95,.88-2.95-.39-4.09-3.11-4.12-5.97-.05-11.94-.21-17.9,.03-5.47,.22-4.22,5.1-4,7.83,.72,9.15,3.2,18.23,3.27,27.35,.12,14.27,2.89,28.25,3.43,42.44,.27,7.22,2.51,14.31,1.93,21.64-.09,1.2,.27,2.51,1.6,2.75,1.78,.32,1.99-1.18,2.37-2.5,2.43-8.28,2.69-16.9,3.9-25.36,1.26-8.79,2.09-17.65,3.09-26.48,.13-1.18,.8-1.74,1.89-1.93,.12,5.99-1.07,11.85-1.8,17.74-1.58,12.92-3.34,25.81-5.04,38.71-.92,6.98-1.83,13.96-2.8,20.93-.12,.86,.18,2.3-1.34,2.13-1.4-.16-.91-1.51-1-2.39-2.34-22.05-4.63-44.11-6.98-66.17-1.93-18.08-3.9-36.15-5.93-54.22-.32-2.84,.18-4.15,3.54-4.04,8.29,.25,16.6,.24,24.89-.02,3.36-.1,4.16,1.62,2.74,3.71-1.74,2.56-.01,5.64-1.98,7.9Z"/>
        <path class="cls-2" d="M151.35,135.1c-2.1-.33-1.78-1.96-1.93-3.44-1.7-17.03-2.62-34.14-5.15-51.08-.25-1.69-.2-3.2,.07-4.83,.22-1.35-.11-2.83-1.85-2.93-1.47-.08-1.98,1.21-1.92,2.4,.15,3.02-.98,5.89-1.01,8.83-.16,13.8-3.2,27.32-4.71,40.93-1.38,12.4-2.58,25.15-5.91,37.41-1.72,6.34,.22,8.83,6.76,8.44,4.43-.26,8.65,1.99,13.24,.33,2.5-.91,3.55-1.91,3.51-4.46-.06-3.98,.04-7.95,.07-11.93,2.37,5.53,1.41,11.58,2.62,17.31,.25,1.2-1.41,1.07-2.33,1.08-7.96,.07-15.93,.09-23.89,.15-1.49,.01-2.55-.25-2.45-2.16,.56-10.42,1.95-20.73,3.57-31.03,1-6.34,1.78-12.72,2.59-19.08,1.12-8.8,2.17-17.61,3.28-26.41,.84-6.67,1.35-13.41,2.73-19.96,1.53-7.22,1.14-14.75,3.73-22.09,2.06,2.05,1.59,4.55,1.81,6.68,1.9,18.48,3.64,36.98,5.4,55.48,.64,6.78,1.19,13.57,1.78,20.36Z"/>
        <path class="cls-2" d="M20.05,67.55c-2.05-6.17,1.22-11.6,2.58-17.24,1.32-5.47,2.21-10.91,2-16.55-.1-2.71,.68-5.78,1.65-7.87,2.24-4.81,.85-9.83,2.28-14.53,.35-1.13,.71-2.43-.38-3.22-1.21-.88-2.52-.45-3.64,.48-8.04,6.7-15.7,13.58-15.6,25.34,.01,1.57-.4,4.13-1.37,4.56-4.82,2.17-3.1,6.28-3.56,9.82-1.93,14.75-2.18,29.56-1.94,44.39,.03,1.6-.47,3.3,.57,4.88,9.38-3.23,9.45-12.32,12.37-19.55,1.36-3.38,1.18-7.49,4.91-9.65-.73,9.8-4.96,18.38-9.59,26.76-1.72,3.11-3.51,6.41-7.09,7.96-1.67,.72-3.1,1.29-3.05-1.66,.36-21.66-1.41-43.44,3.9-64.79,2.38-9.57,5.82-18.65,13.43-25.5,4.18-3.76,9.13-5.66,15.24-6.14-2.25,12.28-4.48,24.62-6.76,36.95-1.22,6.61-2.48,13.21-3.82,19.79-.41,2.01-.15,4.32-2.13,5.77Z"/>
        <path class="cls-2" d="M24.45,98.88c1.38,4.64-1.99,7.49-4.33,10.45-3.16,4.01-6.96,7.54-11.96,9.28-3.86,1.35-4.64,4.58-4.68,7.92-.07,6.02,1.93,11.73,4.5,16.98,1.8,3.68,2.41,7.86,5.13,11.15,6.54,7.88,14.81,12.65,24.87,14.23,5.35,.84,10.76,1.34,16.15,1.91,2.88,.3,4.44-1.45,3.4-3.9-4.32-10.18-3.29-21.23-5.08-31.79-1.37-8.08-1.84-16.65-1.54-25.06,2.41,7.14,2.69,14.65,3.75,22.02,1.77,12.29,3.17,24.63,4.86,36.94,.41,2.97,.33,4.54-3.52,4.29-9.77-.63-19.39-1.79-28.61-5.31-7.89-3.02-14.14-7.87-17.86-15.6-3.98-8.28-7.67-16.65-7.78-26.11,0-.74-.7-1.45-1-2.2-1.17-2.96-1.4-5.15,2.77-6.08,10.53-2.35,15.85-10.68,20.94-19.13Z"/>
        <path class="cls-2" d="M174.36,3.03c-4.82,.89-9.69,1.75-14.58,1.19-4.11-.47-5.34,.64-5.2,4.52,.61,17.26,4.52,34.18,5.01,51.48,.24,8.3,1.03,16.71,3.52,25.82,1.2-4.63,2.11-8.57,3.26-12.45,.71-2.4,1.06-5.19,4.08-6.11-4.42,11-6.22,22.59-7.26,35.49-4.35-26.54-6.09-52.04-8.53-77.46,.09-.09,.26-.22,.24-.28-.07-.21-.2-.41-.31-.61-1.55-6.4-1.06-13.04-2.25-19.47-.76-4.11,.83-5.29,4.62-4.49,.8,.17,1.62,.23,2.43,.35,.76,2.43,2.75,1.41,4.33,1.54,3.64-1.97,7.11-.26,10.63,.49Z"/>
        <path class="cls-2" d="M50.72,103.23c-3.07-1.37-2.74-4.42-2.73-6.77,.04-8.29-2.28-16.2-3.5-24.27-.64-4.23-.21-8.51-1.35-12.74-.58-2.14-1.29-3.67-3.12-5.16-2.11,9.65-3.94,19.22-6.58,28.63-1.5,5.33-4.54,9.66-6.62,14.56-.41,.96-1.21,1.56-2.38,1.37,9.05-19.43,12.65-40.38,16.9-61.28,4.41,21.82,6.87,43.75,9.39,65.67Z"/>
        <path class="cls-2" d="M178.49,90.33c1.78,6.48,1.3,13.16,.5,19.57-1.32,10.54-2.22,21.1-2.51,31.68-.19,7.06-1.72,13.96-1.62,21.03,.07,5.16,1.34,6.66,5.92,5.07,1.85-.64,3.19,.36,4.78,.43-.1,.14-.17,.35-.29,.39-13.23,4.61-13.12,4.62-12.16-8.99,1.17-16.5,2.04-33.02,3.22-49.52,.47-6.57,1.43-13.11,2.17-19.66Z"/>
        <path class="cls-2" d="M210.98,47.49c-3.84-2.22-2.9-6.42-3.57-9.69-1.76-8.52-6.48-15.42-11.03-22.46-.93-1.44-2.25-2.94-4.52-2.33-.56,.15-1.68-.06-1.85-.42-2.69-5.86-9.83-4.95-13.65-9.02,13.34,2.13,23.47,8.58,28.85,21.44,3.02,7.22,5.16,14.66,5.77,22.49Z"/>
        <path class="cls-2" d="M186.32,167.96c.25-3.58,3.07-4.93,5.7-6.27,2.8-1.43,4.16-4.08,6.18-6.18,7.95-8.29,9.19-19.35,12.97-29.35-.98,16.1-5.55,30.44-19.85,39.88-1.47,.97-3.04,2.05-5,1.91Z"/>
        <path class="cls-2" d="M211.24,124.28c-.02-8.05-.07-16.1-.05-24.15,.01-5.35-.65-10.33-5.05-14.18-1.63-1.43-3.5-3.18-2.78-5.91,2.63,2.7,5.25,5.4,7.89,8.08,1.1,1.12,1.62,2.44,1.62,4-.04,10.04,.39,20.09-.62,30.11-.08,.82-.08,1.65-1.01,2.05Z"/>
        <path class="cls-2" d="M202.88,79.34c-4.6-.22-6.89-4.79-11.18-5.83-2.81-.68-4.52-.8-5.7,2.3-1.32,3.44-5.7,5.59-4.04,10.4,.35,1-1.75,1.69-3,2.1,.18-4.71,1.6-9.09,3.55-13.32,1.93-4.18,5.12-5.24,9.42-3.8,4.58,1.52,8,4.49,10.95,8.16Z"/>
        <path class="cls-2" d="M170.44,67.5c.39-7.66,2.43-9.4,9.78-11.35,7.53-2,14.54-.98,21.7,1.26,2.38,.74,2.45,1.77,1.47,3.57-3.51-1.85-7.04-3.61-11-4.29-9.93-1.7-16.67,3.06-21.94,10.82Z"/>
        <path class="cls-2" d="M78.85,53.48c-.31-9.87-.52-19.73,4-28.93-1.21,9.66-1.57,19.44-4,28.93Z"/>
        <path class="cls-2" d="M203.78,61.22c.62-.14,1.29-.52,1.84-.38,5.84,1.44,6.45,.84,5.09-5.31-.46-2.07-1.21-4.14,.45-6.04,1.21,3.66,.99,7.49,1.24,11.26,.1,1.51,.9,3.34-1.15,4.37-1.74,.87-2.72-.69-3.93-1.26-1.3-.61-2.37-1.74-3.53-2.65Z"/>
        <path class="cls-2" d="M128.61,45.53c-1.83-4.96-.65-9.54,1.78-13.96,.51,4.8-.21,9.43-1.78,13.96Z"/>
        <path class="cls-3" d="M163.74,2.53c-1.58-.13-3.57,.89-4.33-1.54,1.61,.06,3.54-.81,4.33,1.54Z"/>
        <path class="cls-2" d="M130.64,28.72c.04-1.74-.68-3.59,.76-5.11,.58,1.83,1.2,3.67-.76,5.11Z"/>
        <path class="cls-2" d="M133,16.78c-1.69-.96-1.85-2.04-.27-3.27,1.52,.97,.6,2.15,.27,3.27Z"/>
        <path class="cls-2" d="M131.56,22.68c.06-1.45-.5-3.06,1.09-4.1-.08,1.44,.45,3.05-1.09,4.1Z"/>
        <path class="cls-2" d="M50.74,109.2c-1.2-1.37-1.3-2.69,.16-3.94-.05,1.32-.11,2.63-.16,3.94Z"/>
        <path class="cls-3" d="M154.61,24.61c.11,.2,.24,.39,.31,.61,.02,.06-.16,.18-.24,.28-.21-.28-.23-.58-.07-.89Z"/>
      </g>
      <path class="cls-1" d="M212.36,66.9c-.5-.16-.95-.39-1.34-.67-1.6,.64-2.55-.81-3.71-1.35-1.31-.61-2.37-1.74-3.53-2.65,0,0-.39-.25-.39-.25-3.5-1.85-7.04-3.61-11-4.29-9.93-1.7-16.67,3.06-21.94,10.82,0,0,.02-.02,.02-.02-4.42,11-6.22,22.59-7.26,35.49-4.35-26.54-6.09-52.04-8.53-77.46-.21-.28-.23-.58-.07-.89-1.55-6.4-1.06-13.04-2.25-19.47-.37-2.01-.18-3.31,.56-4.03-.4-.65-.67-1.38-.79-2.11h-16.86c-.18,.56-.45,1.09-.81,1.56,1.22,.62,1.29,1.88,.32,3.31-1.74,2.56-.01,5.64-1.98,7.9-.02,.58-.04,1.16-.06,1.75,1.52,.97,.6,2.15,.27,3.27-.11,.6-.23,1.19-.34,1.79-.08,1.44,.45,3.05-1.09,4.1,0,.32-.05,.63-.16,.93,.58,1.83,1.2,3.67-.76,5.11-.08,.95-.16,1.9-.25,2.85,.51,4.8-.21,9.43-1.78,13.96-.04,.65-.08,1.3-.12,1.94,.12,5.99-1.07,11.85-1.8,17.74-1.58,12.92-3.34,25.81-5.04,38.71-.92,6.98-1.83,13.96-2.8,20.93-.12,.86,.18,2.3-1.35,2.13-1.4-.16-.91-1.51-1-2.39-2.34-22.05-4.63-44.11-6.98-66.17-1.93-18.08-3.9-36.15-5.93-54.22-.07-.66-.1-1.23-.06-1.73-.9-.92-1.37-2.19-1.41-3.49h-15.88c0,.69-.1,1.37-.34,2.01,.2,.36,.25,.89,.1,1.7-1.33,6.91-1,14.09-3.35,20.85,.08,.21,.19,.42,.25,.63,.03,.1-.04,.23-.06,.35-1.21,9.66-1.57,19.44-4,28.93l-.22,1.99c.95,6.82-1.45,13.35-2.19,19.99-1.17,10.39-2.02,20.85-3.66,31.2-1.3,8.21-2.18,16.48-3.42,26.06-3.63-7.59-2.6-14.58-3.49-21.19-4.26-31.46-8.16-62.97-12.19-94.45-.54-4.23-1.05-8.47-1.75-12.68-.15-.92-.18-1.68,0-2.27-.49-.94-.67-2.05-.56-3.12h-18.38c.05,.28,.08,.56,.08,.85v3.83c0,.7-.15,1.36-.41,1.96-2.21,12.09-4.41,24.22-6.65,36.35-1.22,6.61-2.48,13.21-3.82,19.79-.41,2.01-.15,4.32-2.13,5.77,0,.29-.05,.58-.13,.86-.73,9.8-4.96,18.38-9.59,26.76-1.72,3.11-3.51,6.41-7.09,7.96-1.01,.44-1.92,.79-2.47,.36-.16,.1-.32,.18-.5,.26v16.16c.43-.84,1.41-1.49,3.23-1.89,10.53-2.35,15.85-10.68,20.94-19.13l.24-.11s-.26,.07-.26,.07c9.05-19.43,12.65-40.38,16.9-61.28,4.41,21.82,6.87,43.75,9.39,65.67,.06,.67,.12,1.35,.18,2.02-.05,1.31-.11,2.63-.16,3.94,.13,.27,.18,.56,.17,.86,2.41,7.14,2.69,14.65,3.75,22.02,1.77,12.29,3.17,24.63,4.86,36.94,.21,1.5,.27,2.63-.19,3.36,.45,.46,.79,1.02,1.03,1.62h18.64c-.09-.5-.12-1.02-.08-1.54-1.24-.92-.76-2.77,.97-6.46-.04-.35-.08-.7-.12-1.05,.11-10.59,2.2-20.97,3.46-31.44,1.87-15.6,4.09-31.15,6.01-46.75,1.29-10.45,2.3-20.93,3.47-31.39,.04-.36,.52-.67,1.13-1.41,2.72,6.6,3.14,13.22,3.68,19.77,1.25,15.16,3.37,30.22,4.39,45.43,1.1,16.37,3.57,32.66,5.84,48.93,.23,1.67,.18,2.84-.15,3.66,.44,.67,.72,1.44,.82,2.25h17.73c.05-.6,.2-1.19,.44-1.74-.1-.29-.15-.64-.13-1.09,.56-10.42,1.95-20.73,3.57-31.03,1-6.34,1.78-12.72,2.59-19.08,1.12-8.8,2.17-17.61,3.28-26.41,.84-6.67,1.35-13.41,2.73-19.96,1.53-7.22,1.14-14.75,3.73-22.09,2.06,2.05,1.59,4.55,1.81,6.68,1.9,18.48,3.64,36.98,5.4,55.48,.64,6.78,1.19,13.57,1.78,20.36,.18,6.57,1.91,13.06,1.16,19.69,2.37,5.53,1.41,11.58,2.62,17.31,.09,.41-.06,.66-.32,.82,.18,.34,.32,.7,.43,1.08h17.95v-2.57c0-.43,.06-.83,.14-1.2-.89-1.53-.64-4.86-.23-10.71,1.17-16.5,2.04-33.02,3.22-49.52,.47-6.57,1.43-13.11,2.17-19.66,.16-.68,.31-1.35,.47-2.03,.18-4.71,1.6-9.09,3.55-13.32,1.93-4.18,5.12-5.24,9.42-3.8,4.58,1.52,8,4.49,10.95,8.16,.32,.12,.48,.35,.47,.7,2.63,2.7,5.25,5.4,7.89,8.08,.72,.73,1.17,1.55,1.41,2.45,.14,.16,.27,.33,.39,.51,1.8,.86,2.69,2.76,2.64,4.66,.21,.07,.4,.16,.59,.26v-26.6c-2.16-.27-3.46-1.76-3.92-3.5Z"/>
    </g>
  </g>
</svg>