<?xml version="1.0" encoding="UTF-8"?>
<svg id="Layer_2" data-name="Layer 2" xmlns="http://www.w3.org/2000/svg" viewBox="0 0 173.95 153.26">
  <defs>
    <style>
      .cls-1 {
        fill: #333132;
        fill-rule: evenodd;
      }
    </style>
  </defs>
  <g id="Layer_1-2" data-name="Layer 1">
    <g>
      <path class="cls-1" d="M170.29,140.22c-34.7-70.19-104.38-42.53-75.83-66.9,3.96-4.58,8.09-8.78,11.43-11.31,37.36,23.13,64.13-53.37,12.09-18.03-35.05-17.22-61.95-17.82-88.35,10.63-28.67,27.65,4.89,16.72,11.73,9.41-.05-7.09,1.17-12.14,8.79-16.99,16.61-13.81,37.83,2.58,49,12.04-27.03,31.64-42.91,39.48-79.13,54.31-50.39,44.58,6.9,36.65,33.92,7.15,8.6-7.44,14.42-20.47,27.92-17.83,18.31,1.1,46.08,3.18,59.82,14.72,5.67,4.75,2.08,9.22,1.71,14.36,3.1,8.5,42.55,38.39,26.88,8.43ZM26.34,70.69c-.62,.44-7.29,2.51-6.6,1.1,1.88-.57,7.86-5.31,6.6-1.1Zm4.46-6.36c.84-1.14,5.91-14.6,8.61-14.72,.96,1.37-5.45,19.92-8.61,14.72Zm-3,5.13c-.75-1.18,3.37-1.91,3.91-2.38,5.4-1.71-4.57,3.84-3.91,2.38Zm10.88-4.21c-2.92,1.59-5.25,3.97-9.22,4.46,2.44-.55,14.4-11.14,9.22-4.46Zm23.04-24.68c-5.44,1.67-11.52,5.91-15.39,7.7,.37-2.05,12.3-8.99,15.39-7.7Zm69.1,19.98c-1.75,2.03-13.01,3.5-8.31,.67,1.33,.08,13.11-4.11,8.31-.67Zm-2.87-9.41c.61,.19,5.61-.39,5.62,.55-.35-.14-7.19,.86-5.62-.55Zm11.55,3.61c-.37,.73-2.26,2.2-5.62,4.4-1.18-2.58,7.48-5.68,5.62-4.4Zm-1.22-3.97c-8.53,1.66-2.23-.57,3.3-3.24,3.84-1.06-1.17,2.83-3.3,3.24Zm5.87-6.29c-2.04,3.16-15.89,4.15-18.57,1.95,.84-3.46,21.28-9.92,18.57-1.95Zm-9.78-8.62c2.67-.78,13.74,.35,11,3.18-2.02-2.77-9.45-1.58-11-3.18Zm-9.59,9.11c1.03-1.42,10.12-6.29,9.9-3.54-4.2,.61-11.04,6.13-9.9,3.54Zm-49.67-10.57c15.38-1.39,37.19,14.13,52.24,16.8-14.33,2.54-39.18-14.61-52.24-16.8Zm5.25,9.65c-16.93-12.79,39.08,10.85,36.9,17.17,.3,12.36-30.81-13.44-36.9-17.17Zm10.69,32.08c5.85-5.87,10.66-18.39,13.93-14.85-1.45,3.22-12.9,12.46-13.93,14.85Zm67.7,62.14c1.06,4.26-9.91-5.45-6.23-7.64,1.63-.96,5.21,6.8,6.23,7.64Zm-15.03-27.31c4.62,3.12,13.34,12.73,9.04,17.41-2.79-5.2-4.41-14.01-9.04-17.41Zm-10.63-7.64c1.26-.01,9.18,5.58,9.84,6.72,2.94,2.61-11.88-7.65-9.84-6.72Zm-38.49-14.54c9.91,.89,31.07,7.86,37.82,14.42-8.32-8.97-78.11-15.59-37.82-14.42Zm-12.1-4.28c3.82-1.22,5.32-3.69,.92,.98,0,0-8.56,1.16-8.56,1.16l7.64-2.14Zm-57.62,30.49c5.94-4.18,30.46-13.56,26.46-9.84-12.08,.66-56.56,30.93-26.46,9.84Zm-14.84,28.96c-8.66,2.61-12.79-1.89-6.9-9.41,5.2-4.05-6.22,8.3,6.9,9.41Zm.24-3.66c-1.95-.05-2.75-3.01-.73-1.72,2.14,.98,4.69,1.6,.73,1.72Zm23.71-5.75c-42.38,20.83,5.92-2.13,21.32-16.62-6.6,6.48-13.69,12.03-21.32,16.62Zm17.29-21.14c-9.46,8.05-30.66,29.68-42.46,23.41-6.06-16.07,64.39-44.41,42.46-23.41Zm105.58,29.51c-11.22-6.4-12.81-10.07-10.99-20.35-14.22-23.69-55.92-20.68-80.35-19.92-.82-.17-9.28,2.33-8.61,.24,21.05-11.99,51.2-4.7,72.4,3.66,13.79,4.81,18.19,14.49,18.69,26.52,1.16,3.34,30.68,23.21,8.86,9.83Zm12.46,7.52c-.77,.18-4.25-2.42-3.24-3.24,1.57,.24,5.8,3.77,3.24,3.24Z"/>
      <path class="cls-1" d="M118.52,26.97c30.48,.54-5.01-43.91-16.37-19.8-7.88,12.11,2.41,22.21,16.37,19.8Zm3.12-5.37c3.42-.07,4.83,1.74-.3,2.14-5.01,.25-4.61-1.85,.3-2.14Zm-8.74-16.44c2.01-.15,4.13,.64,4.7,2.69,.77,4.97-10.01,.64-4.7-2.69Zm-4.03-1.83c-7.14,12.61-1.25,24.92,18.64,19.92-14.69,9.58-39.82-4.93-18.64-19.92Z"/>
    </g>
  </g>
</svg>