<?xml version="1.0" encoding="utf-8"?>
<!-- Generator: Adobe Illustrator 27.0.0, SVG Export Plug-In . SVG Version: 6.00 Build 0)  -->
<svg version="1.1" id="Layer_1" xmlns="http://www.w3.org/2000/svg" xmlns:xlink="http://www.w3.org/1999/xlink" x="0px" y="0px"
	 viewBox="0 0 24 24" style="enable-background:new 0 0 24 24;" xml:space="preserve">
<style type="text/css">
	.st0{fill:none;stroke:#000000;stroke-miterlimit:10;}
</style>
<g>
	<path d="M17.4,15.1c-0.2,0.1-0.4,0.1-0.8,0.1c-0.4,0-0.8,0-1.2-0.2c-0.4-0.1-0.9-0.3-1.2-0.5c0,0-0.1,0-0.1,0c0,0,0,0.1,0,0.1v1.7
		c0,0.1,0,0.1,0.1,0.2c0.3,0.2,0.7,0.3,1,0.3c0.4,0.1,0.9,0.1,1.4,0.1c0.7,0,1.3-0.1,1.8-0.3c0.4-0.2,0.8-0.5,1.1-0.9
		c0.3-0.4,0.4-0.9,0.4-1.3c0-0.4-0.1-0.7-0.2-1c-0.2-0.3-0.5-0.6-0.8-0.8c-0.5-0.3-1-0.6-1.5-0.7c-0.2-0.1-0.5-0.2-0.7-0.3
		c-0.1-0.1-0.2-0.2-0.3-0.3c-0.1-0.1-0.1-0.2-0.1-0.3c0-0.1,0-0.2,0.1-0.3c0.1-0.1,0.2-0.2,0.3-0.2c0.2-0.1,0.4-0.1,0.6-0.1
		c0.4,0,0.8,0,1.1,0.1c0.3,0.1,0.7,0.2,1,0.3c0,0,0.1,0,0.2,0c0,0,0-0.1,0-0.1V9.3c0,0,0-0.1,0-0.1c0,0-0.1-0.1-0.1-0.1
		c-0.3-0.1-0.6-0.2-0.9-0.2c-0.4-0.1-0.8-0.1-1.2-0.1c-0.7,0-1.3,0.1-1.8,0.3c-0.4,0.2-0.8,0.5-1,0.9c-0.2,0.4-0.3,0.8-0.3,1.2
		c0,0.4,0.1,0.7,0.2,1c0.2,0.3,0.4,0.6,0.8,0.9c0.4,0.3,0.9,0.5,1.4,0.7c0.5,0.2,0.8,0.3,1,0.5c0.2,0.1,0.2,0.3,0.2,0.4
		C17.7,14.8,17.6,15,17.4,15.1z"/>
	<path d="M7.5,16.8c0.1,0,0.1-0.1,0.1-0.1v-3.2c0.2,0,0.3,0,0.4,0s0.3,0,0.5,0c0.8,0,1.6-0.1,2.2-0.3c0.7-0.2,1.2-0.7,1.6-1.2
		c0.4-0.6,0.6-1.3,0.6-2.1c0-0.5-0.1-0.9-0.2-1.3c-0.2-0.4-0.4-0.8-0.7-1.1c-0.4-0.4-0.8-0.7-1.3-0.8c-0.6-0.2-1.2-0.3-2.1-0.3
		c-0.3,0-0.6,0-0.9,0s-0.6,0-0.9,0c-0.3,0-0.5,0-0.8,0c-0.2,0-0.4,0-0.6,0c-0.1,0-0.1,0-0.1,0.1v10.3c0,0.1,0,0.1,0.1,0.1H7.5z
		 M7.6,8.2c0.1,0,0.2,0,0.4,0c0.2,0,0.4,0,0.7,0c0.4,0,0.8,0.1,1.2,0.2c0.3,0.1,0.5,0.3,0.7,0.6c0.2,0.3,0.2,0.6,0.2,0.9
		c0,0.4-0.1,0.8-0.3,1c-0.2,0.2-0.5,0.4-0.8,0.5c-0.4,0.1-0.8,0.2-1.2,0.2H8c-0.1,0-0.2,0-0.4,0V8.2z"/>
</g>
<path class="st0" d="M19.9,23.3H4.2c-1.9,0-3.4-1.5-3.4-3.4V4.1c0-1.9,1.5-3.4,3.4-3.4h15.7c1.9,0,3.4,1.5,3.4,3.4v15.7
	C23.3,21.8,21.8,23.3,19.9,23.3z"/>
</svg>
