<?xml version="1.0" encoding="utf-8"?>
<!-- Generator: Adobe Illustrator 27.0.0, SVG Export Plug-In . SVG Version: 6.00 Build 0)  -->
<svg version="1.1" id="Capa_1" xmlns="http://www.w3.org/2000/svg" xmlns:xlink="http://www.w3.org/1999/xlink" x="0px" y="0px"
	 viewBox="0 0 16.9 16.9" style="enable-background:new 0 0 16.9 16.9;" xml:space="preserve">
<style type="text/css">
	.st0{fill:none;stroke:#000000;stroke-width:0.75;stroke-miterlimit:10;}
</style>
<g>
	<path d="M12.2,3.9c-0.6,0-1,0.4-0.9,0.9c0,0.5,0.4,0.9,0.9,0.9c0.6,0,1-0.4,1-0.9S12.8,3.9,12.2,3.9z"/>
	<rect x="11.3" y="6.5" width="1.8" height="5.8"/>
	<path d="M3.1,12.2H5l0.6-2h2.3l0.6,2h1.9l-2.5-8H5.6L3.1,12.2z M6.3,7.2c0.1-0.5,0.2-1.1,0.4-1.5l0,0c0.1,0.4,0.3,1,0.4,1.5
		l0.5,1.7H5.8L6.3,7.2z"/>
</g>
<path class="st0" d="M14.5,16.3H2.3c-1,0-1.7-0.8-1.7-1.7V2.3c0-1,0.8-1.7,1.7-1.7h12.2c1,0,1.7,0.8,1.7,1.7v12.2
	C16.3,15.5,15.5,16.3,14.5,16.3z"/>
</svg>
