<?xml version="1.0" encoding="utf-8"?>
<!-- Generator: Adobe Illustrator 27.0.0, SVG Export Plug-In . SVG Version: 6.00 Build 0)  -->
<svg version="1.1" id="Layer_1" xmlns="http://www.w3.org/2000/svg" xmlns:xlink="http://www.w3.org/1999/xlink" x="0px" y="0px"
	 viewBox="0 0 15 15" style="enable-background:new 0 0 15 15;" xml:space="preserve">
<style type="text/css">
	.st0{fill-rule:evenodd;clip-rule:evenodd;fill:none;stroke:#000000;stroke-width:0.75;stroke-miterlimit:10;}
</style>
<path d="M7.5,4.6L9,8.1H6L7.5,4.6z"/>
<path class="st0" d="M7.4,0.6c0.1,0,0.2,0,0.3,0l6.5,1.9c0.2,0.1,0.4,0.3,0.3,0.5l-0.9,8.4c0,0.2-0.1,0.3-0.3,0.4l-5.6,2.8
	c-0.1,0.1-0.3,0.1-0.4,0l-5.6-2.8c-0.1-0.1-0.2-0.2-0.3-0.4L0.5,3c0-0.2,0.1-0.4,0.3-0.5L7.4,0.6z M7.5,2.2l3.7,8.4L10.3,11L9.4,9
	H5.6l-0.9,2l-0.9-0.4L7.5,2.2z"/>
</svg>
