<?xml version="1.0" encoding="utf-8"?>
<!-- Generator: Adobe Illustrator 27.0.0, SVG Export Plug-In . SVG Version: 6.00 Build 0)  -->
<svg version="1.1" id="Layer_1" xmlns="http://www.w3.org/2000/svg" xmlns:xlink="http://www.w3.org/1999/xlink" x="0px" y="0px"
	 viewBox="0 0 256 256" style="enable-background:new 0 0 256 256;" xml:space="preserve">
<g>
	<path d="M186.4,94.2v66.2c0,22.8-1.7,33.8-6.7,43.2c-4.6,9.1-10.8,14.8-23.4,21.1l-26.5-12.6c12.6-5.9,18.7-11.1,22.6-19.1
		c4.1-8.2,5.4-17.6,5.4-42.5V94.2H186.4z M140.9,50.1v132.2c-14.7,2.8-25.4,3.9-37.1,3.9c-34.9,0-53.1-15.8-53.1-46
		c0-29.1,19.3-48,49.2-48c4.6,0,8.2,0.4,12.4,1.5V50.1H140.9z M102.7,115.2c-14.5,0-22.8,8.9-22.8,24.5c0,15.2,8,23.6,22.6,23.6
		c3.2,0,5.8-0.2,9.8-0.7v-45.8C109,115.5,106.2,115.2,102.7,115.2z M186.4,50.2v29.3h-28.6V50.2H186.4z"/>
</g>
</svg>
