<?xml version="1.0" encoding="utf-8"?>
<!-- Generator: Adobe Illustrator 27.0.0, SVG Export Plug-In . SVG Version: 6.00 Build 0)  -->
<svg version="1.1" id="Layer_1" xmlns="http://www.w3.org/2000/svg" xmlns:xlink="http://www.w3.org/1999/xlink" x="0px" y="0px"
	 viewBox="0 0 15 15" style="enable-background:new 0 0 15 15;" xml:space="preserve">
<style type="text/css">
	.st0{fill-rule:evenodd;clip-rule:evenodd;fill:none;stroke:#000000;stroke-miterlimit:10;}
</style>
<path class="st0" d="M14,4.2L7.5,0.4L1,4.2v6.6l1,0.6l2.1-0.8C4.6,10.3,5,9.8,5,9.2V4h1v5.2c0,1-0.6,1.9-1.6,2.3L3.1,12l4.4,2.6
	l6.5-3.8V4.2z M7,6c0-1.1,0.9-2,2-2h1.2c1,0,1.8,0.8,1.8,1.8V6h-1V5.8C11,5.4,10.6,5,10.2,5H9C8.4,5,8,5.4,8,6s0.4,1,1,1h1
	c1.1,0,2,0.9,2,2c0,1.1-0.9,2-2,2H9c-1.1,0-2-0.9-2-2h1c0,0.6,0.4,1,1,1h1c0.6,0,1-0.4,1-1s-0.4-1-1-1H9C7.9,8,7,7.1,7,6z"/>
</svg>
