<?xml version="1.0" encoding="utf-8"?>
<!-- Generator: Adobe Illustrator 27.0.0, SVG Export Plug-In . SVG Version: 6.00 Build 0)  -->
<svg version="1.1" id="Layer_1" xmlns="http://www.w3.org/2000/svg" xmlns:xlink="http://www.w3.org/1999/xlink" x="0px" y="0px"
	 viewBox="0 0 303.2 303.2" style="enable-background:new 0 0 303.2 303.2;" xml:space="preserve">
<style type="text/css">
	.st0{fill:#FFFFFF;}
</style>
<g>
	<g>
		<path d="M151.6,4.5c-37.5,0-62.2,15.6-62.2,30.4v47.4h62.2v7.1H34.9c-14.9,0-30.4,24.7-30.4,62.2s15.6,62.2,30.4,62.2h47.3v-29.6
			c0-19.9,16.2-36.2,36.2-36.2h66.2c16,0,29.1-13.1,29.1-29.1V67.8l0,0V34.9C213.8,20.1,189.1,4.5,151.6,4.5z"/>
		<circle class="st0" cx="117.9" cy="46.5" r="9"/>
	</g>
	<g>
		<path d="M268.2,89.4h-47.4V119c0,19.9-16.2,36.2-36.2,36.2h-66.2c-16,0-29.1,13.1-29.1,29.1v32.6l0,0v51.4
			c0,14.8,24.7,30.4,62.2,30.4s62.2-15.6,62.2-30.4v-47.4h-62.2v-7.1h116.6c14.9,0,30.4-24.7,30.4-62.2S283.1,89.4,268.2,89.4z"/>
		<circle class="st0" cx="185.3" cy="256.7" r="9"/>
	</g>
</g>
</svg>
