<?xml version="1.0" encoding="utf-8"?>
<!-- Svg Vector Icons : http://www.onlinewebfonts.com/icon -->
<!DOCTYPE svg PUBLIC "-//W3C//DTD SVG 1.1//EN" "http://www.w3.org/Graphics/SVG/1.1/DTD/svg11.dtd">
<svg version="1.1" xmlns="http://www.w3.org/2000/svg" xmlns:xlink="http://www.w3.org/1999/xlink" x="0px" y="0px" viewBox="0 0 1000 1000" enable-background="new 0 0 1000 1000" xml:space="preserve">
<metadata> Svg Vector Icons : http://www.onlinewebfonts.com/icon </metadata>
<g><g transform="translate(0.000000,511.000000) scale(0.100000,-0.100000)"><path d="M4729.1,4994.9c-98.1-41.1-127.7-109.5-191.5-435.5l-63.9-326.1l-214.4-70.7c-118.6-41-287.3-111.7-376.3-159.6l-161.9-88.9l-275.9,187c-237.2,157.3-289.6,184.7-374,184.7c-88.9,0-107.2-11.4-273.6-177.9c-166.5-166.5-177.9-184.7-177.9-273.6c0-84.4,27.4-136.8,184.7-374l187-275.9l-88.9-161.9c-47.9-88.9-118.6-257.7-159.6-376.3l-70.7-214.3l-326.1-63.9c-444.7-88.9-444.7-86.7-444.7-453.8s0-364.9,442.4-451.5l326.1-63.9l75.2-218.9c38.8-118.6,111.7-287.3,159.6-376.3l86.6-159.6l-187-275.9c-159.6-237.2-184.7-289.6-184.7-374c0-91.2,11.4-107.2,180.1-273.6c248.5-244,271.4-244,645.3,6.9l275.9,184.7l173.3-91.2c95.8-50.2,260-118.6,367.1-155.1c107.2-34.2,198.4-63.8,202.9-68.4c4.6-4.5,38.8-155,73-332.9c91.2-442.4,88.9-440.1,453.8-440.1c367.1,0,364.8,0,453.8,444.7l63.8,326.1l216.6,73c120.8,41,289.6,111.7,376.3,159.6l159.6,86.7l275.9-187c376.3-250.8,399.1-250.8,645.3-4.6C7429-30.9,7429-8.1,7178.2,365.8l-184.7,275.9l95.8,184.7c50.2,102.6,120.8,273.6,157.3,378.5l63.8,191.5l326.1,63.9c444.7,88.9,444.7,86.7,444.7,453.8s0,364.9-444.7,453.8l-326.1,63.9l-73,216.6c-41.1,120.8-111.8,289.6-159.6,376.2l-86.7,159.6l187,275.9c250.8,374,250.8,396.8,6.9,645.3c-166.5,168.7-182.4,180.1-273.7,180.1c-84.4,0-136.8-25.1-374-184.7l-275.9-184.7l-175.6,93.5c-95.8,50.2-264.5,120.9-376.3,157.3l-200.7,66.1l-63.8,328.4c-86.6,435.5-91.2,440.1-426.4,446.9C4884.2,5013.1,4754.2,5006.3,4729.1,4994.9z M5205.7,4812.5c6.8-11.4,43.3-177.9,82.1-369.4c38.8-191.5,73-351.2,75.3-355.7c4.6-2.3,98.1-31.9,209.8-63.8c198.4-59.3,447-166.5,608.8-266.8l82.1-52.4l296.4,200.7c164.2,109.5,310.1,203,328.4,209.8c18.2,6.8,93.5-50.2,175.6-134.5l145.9-148.2L6998,3510.4l-214.4-323.8l63.9-104.9c107.2-182.4,193.8-383.1,253.1-590.6c31.9-109.5,61.6-200.7,63.8-202.9c2.3-4.6,161.9-36.5,353.5-75.2c191.6-36.5,358-75.3,369.4-82.1c27.4-16,29.6-415,4.6-431c-11.4-6.9-177.9-43.3-371.7-82.1c-191.6-38.8-351.2-73-355.7-77.5c-2.3-2.3-31.9-93.5-63.8-202.9c-59.3-207.5-146-408.2-253.1-590.6l-63.9-104.9L6998,317.9L7212.4-3.6l-152.8-150.5l-150.5-152.8L6587.6-92.5l-323.8,214.3L6158.9,58c-182.4-107.2-383.1-193.8-590.6-253.1c-109.5-31.9-200.7-61.6-202.9-63.8c-4.6-4.6-38.8-164.2-77.5-355.7c-38.8-193.8-75.2-360.3-82.1-371.7c-16-25.1-415-22.8-431,4.6c-6.8,11.4-45.6,177.9-82.1,369.4c-38.8,191.6-70.7,351.2-75.2,353.5c-2.3,2.3-93.5,31.9-202.9,63.8C4206.9-135.8,4006.2-49.2,3823.8,58l-104.9,63.8L3395.1-92.5l-321.5-214.3l-150.5,152.8L2770.3-3.6l214.4,321.5L3199,641.7l-63.8,104.9c-107.2,182.4-193.8,383.1-253.1,590.6c-31.9,109.5-59.3,200.7-63.8,202.9c-2.3,2.3-161.9,36.5-355.7,75.2c-191.5,41.1-360.3,77.5-369.4,84.4c-27.4,16-25.1,412.7,2.3,431c11.4,6.8,177.9,45.6,369.4,82.1c191.5,38.8,351.2,70.7,353.5,75.2c2.3,2.3,31.9,93.5,63.8,202.9c59.3,207.5,145.9,408.2,253.1,590.6l63.8,104.9l-214.4,323.8l-214.4,321.5l152.8,150.5l150.5,152.8l321.5-214.4l323.8-214.3l104.9,63.8c182.4,107.2,383.1,193.8,590.6,253.1c109.4,31.9,200.7,61.6,202.9,63.8c4.6,2.3,36.5,161.9,75.2,353.4c36.5,191.6,75.3,358,82.1,369.4C4793,4837.6,5189.7,4839.8,5205.7,4812.5z"/><path d="M4797.5,3542.3c-25.1-4.6-102.6-20.5-171-34.2c-583.8-116.3-1080.9-613.4-1233.7-1229.1c-41-161.9-41-567.8,0-729.7c152.8-615.7,618-1080.9,1233.7-1233.7c68.4-18.2,232.6-31.9,364.8-31.9s296.4,13.7,364.8,31.9c519.9,127.7,946.3,490.3,1147,973.7c88.9,214.4,118.6,367.1,118.6,624.8c0,132.3-13.7,296.4-31.9,364.9c-148.2,597.5-599.7,1062.6-1185.7,1220C5274.1,3533.2,4881.9,3562.8,4797.5,3542.3z M5431.5,3307.4c239.4-84.4,410.5-191.5,588.3-367.1c305.6-303.3,449.2-684.1,424.1-1115.1c-22.8-371.7-155.1-665.9-426.4-937.2c-271.3-271.4-565.5-403.6-937.2-426.4c-679.5-41-1265.6,369.4-1493.6,1042.1c-61.6,177.9-61.6,643.1,0,820.9c116.3,342.1,355.7,661.3,615.7,818.6c148.2,88.9,364.9,180.1,499.4,207.5C4863.7,3385,5280.9,3362.2,5431.5,3307.4z"/><path d="M4726.8,2596c-168.7-63.8-291.9-180.1-378.5-358c-63.8-130-75.2-175.6-75.2-323.8s11.4-193.8,75.2-323.8c127.7-260,360.3-405.9,643.1-405.9s515.4,145.9,643.1,403.6c63.8,130,75.2,175.6,75.2,323.8c0,150.5-9.1,193.8-75.2,326.1c-88.9,180.1-212.1,294.2-385.4,360.3C5091.7,2657.6,4881.9,2655.3,4726.8,2596z M5208,2418.1c50.2-22.8,127.7-75.3,168.8-118.6c344.3-344.3,100.3-932.7-385.4-932.7c-150.5,0-278.2,54.7-385.4,161.9c-344.3,344.3-100.3,932.7,385.4,932.7C5064.3,2461.4,5155.5,2443.2,5208,2418.1z"/><path d="M3896.8-518.9c0-116.3-11.4-141.4-130-319.2c-127.7-189.3-130-189.3-278.2-232.6c-561-164.2-1090-294.2-1710.2-424.2c-789-164.2-864.2-191.5-1053.5-380.8c-150.5-150.5-212.1-291.9-317-745.7c-98-431-104.9-494.9-59.3-556.4c41-54.7-43.3-22.8,2405.7-873.4C4498.8-4655.4,4904.7-4790,5002.8-4790s501.7,132.3,2225.6,729.7c1158.4,403.6,2175.4,757.1,2257.5,789c234.9,88.9,237.2,98.1,102.6,638.5c-59.3,241.7-130,483.4-157.3,535.9c-61.6,127.7-250.8,314.7-394.5,389.9c-86.7,45.6-294.2,98.1-855.1,214.4c-640.8,130-1026.2,225.7-1692,421.9l-155.1,45.6l-123.1,189.2c-114,173.3-125.4,200.7-125.4,317v127.7l-91.2-38.8l-91.2-38.8v-275.9v-275.9l-109.5-114c-61.6-63.8-168.8-152.8-237.1-200.7c-130-84.4-467.5-216.6-558.7-216.6c-27.4,0-132.3,25.1-232.6,57c-214.3,68.4-488,241.7-606.6,385.4l-79.8,98.1v271.4v271.3L3988-430l-91.2,38.8V-518.9z M4133.9-1330.7c88.9-86.7,207.5-166.5,335.2-232.6l198.4-98.1l-239.4-287.3C4295.9-2106,4179.6-2236,4172.7-2236c-9.1,0-102.6,244-212.1,540.4l-196.1,542.7l47.9,66.1l45.6,66.1l70.7-88.9C3965.2-1157.4,4058.7-1257.8,4133.9-1330.7z M6163.5-1077.6c20.5-27.3,36.5-66.1,36.5-86.6c0-50.2-371.7-1071.8-389.9-1071.8c-9.1,0-125.4,130-257.7,289.6l-241.7,289.6l155.1,73c218.9,102.6,424.2,262.2,535.9,419.6c52.5,73,102.6,134.5,111.8,134.5C6122.4-1027.5,6145.2-1050.3,6163.5-1077.6z M4209.2-2885.9c328.4-903,597.4-1655.5,599.7-1669.2c0-20.5-27.4-18.2-100.3,11.4c-91.2,34.2-202.9,157.4-969.1,1053.5l-864.2,1012.4l216.6,228l216.6,228l-344.3,116.3l-346.6,114l6.8,145.9l6.8,145.9l456.1,132.3c250.8,73,472,130,490.3,127.7C3600.4-1244.1,3803.3-1773.1,4209.2-2885.9z M6884-1364.9l467.5-134.6l6.8-145.9l6.8-145.9l-346.6-114l-344.3-116.3l216.6-228l216.6-228l-864.2-1012.4c-695.5-814.1-882.5-1023.9-957.7-1055.8c-50.2-22.8-100.4-38.8-109.5-34.2c-22.8,9.1,1190.3,3347.5,1217.7,3347.5C6407.4-1232.7,6626.3-1292,6884-1364.9z M2695.1-1998.9c141.4-45.6,264.5-88.9,275.9-95.8c9.1-4.6-61.6-91.2-157.3-187l-177.9-177.9l70.7-88.9c38.8-47.9,403.6-476.6,811.8-953.2c405.9-476.6,734.3-868.8,725.2-871.1c-9.1-4.6-852.9,285-1874.4,640.8c-1407,488-1860.7,654.5-1865.3,684.1c-4.6,20.5,34.2,216.6,86.7,435.6c102.6,428.7,157.3,545,314.7,668.1c143.7,111.7,180.2,125.4,859.7,266.8l661.3,139.1l6.8-187l6.8-189.2L2695.1-1998.9z M8389-1711.6c257.7-52.4,503.9-116.3,547.3-136.8c127.7-66.1,260-191.5,323.8-310.1c61.6-111.7,255.4-827.7,241.7-893.9c-4.6-20.5-70.7-57-155.1-86.7c-351.2-120.9-3441-1194.9-3529.9-1226.8c-54.7-20.5-95.8-27.3-91.2-13.7c4.6,11.4,351.2,421.9,770.7,914.4c419.6,492.6,784.5,921.3,807.2,950.9l43.3,54.7l-177.9,177.9c-95.8,95.8-166.5,182.4-157.3,187c11.4,6.8,136.8,50.1,278.2,95.8l255.4,86.7v189.3v189.3l189.3-41C7837.2-1597.5,8131.4-1659.1,8389-1711.6z M5242.2-1848.4c68.4-79.8,88.9-123.1,75.2-143.7c-209.8-269.1-312.4-392.2-326.1-392.2c-18.2,0-342,394.5-342,415c0,6.8,41,61.6,93.5,123.1l93.5,111.7h155.1h155L5242.2-1848.4z M4678.9-2293l132.3-171l-141.4-378.5c-91.2-244-148.2-367.1-159.6-346.6c-9.1,18.2-75.2,189.3-143.7,380.8c-104.9,289.6-123.1,358-100.3,387.7c84.4,109.5,253.1,298.7,264.5,298.7C4539.9-2124.3,4606-2199.5,4678.9-2293z M5577.4-2252c61.6-72.9,123.1-148.2,139.1-168.8c22.8-29.6,4.6-98-100.3-387.7c-68.4-191.5-134.6-362.6-143.7-380.8c-11.4-20.5-68.4,102.6-159.6,346.6l-141.4,378.5l132.3,171c73,93.5,139.1,168.7,148.2,171C5458.8-2122,5515.8-2181.3,5577.4-2252z M5180.6-2984c95.8-260,175.6-488,175.6-506.2c0-45.6-348.9-1003.3-364.8-1003.3c-16,0-364.8,957.7-364.8,1003.3c0,41,348.9,980.5,364.8,980.5C4998.2-2509.7,5082.6-2724,5180.6-2984z"/></g></g>
</svg>