<svg xmlns="http://www.w3.org/2000/svg" width="32.344" height="32.344" viewBox="0 0 32.344 32.344">
  <g id="sunny-sharp" transform="translate(-1.828 -1.828)">
    <path id="Path_15" data-name="Path 15" d="M16.453,1.828h3.094V8.3H16.453Z"/>
    <path id="Path_16" data-name="Path 16" d="M16.453,27.7h3.094v6.469H16.453Z"/>
    <path id="Path_17" data-name="Path 17" d="M23.767,10.045l4.574-4.574,2.188,2.188-4.574,4.574Z"/>
    <path id="Path_18" data-name="Path 18" d="M5.471,28.341l4.574-4.574,2.188,2.188L7.659,30.529Z"/>
    <path id="Path_19" data-name="Path 19" d="M27.7,16.453h6.469v3.094H27.7Z"/>
    <path id="Path_20" data-name="Path 20" d="M1.828,16.453H8.3v3.094H1.828Z"/>
    <path id="Path_21" data-name="Path 21" d="M23.768,25.955l2.188-2.188,4.574,4.574-2.188,2.188Z"/>
    <path id="Path_22" data-name="Path 22" d="M5.47,7.658,7.658,5.47l4.574,4.574-2.188,2.188Z"/>
    <path id="Path_23" data-name="Path 23" d="M18,25.172A7.172,7.172,0,1,1,25.172,18,7.172,7.172,0,0,1,18,25.172Z"/>
  </g>
</svg>
