<?xml version="1.0" encoding="utf-8"?>
<!-- Generator: Adobe Illustrator 27.0.0, SVG Export Plug-In . SVG Version: 6.00 Build 0)  -->
<svg version="1.1" id="Layer_1" xmlns="http://www.w3.org/2000/svg" xmlns:xlink="http://www.w3.org/1999/xlink" x="0px" y="0px"
	 viewBox="0 0 512 512" style="enable-background:new 0 0 512 512;" xml:space="preserve">
<style type="text/css">
	.st0{fill:#27FF69;}
</style>
<path class="st0" d="M256,503.6c136.2,0,246.6-110.4,246.6-246.6S392.2,10.3,256,10.3S9.4,120.7,9.4,256.9S119.8,503.6,256,503.6z
	 M364.9,211.6L241.5,335c-9.1,9.1-23.7,9.1-32.7,0l-61.7-61.7c-9.1-9.1-9.1-23.7,0-32.7s23.7-9.1,32.7,0l45.3,45.3l106.9-107
	c9.1-9.1,23.7-9.1,32.7,0S373.8,202.6,364.9,211.6L364.9,211.6z"/>
</svg>
