<svg version="1.1" id="Layer_1" xmlns="http://www.w3.org/2000/svg" x="0" y="0" viewBox="0 0 250.8 250.8" width="85" height="85" xml:space="preserve"><path style="fill:#16A1C0" d="M125.4 152.2c36 0 65.2-29.2 65.2-65.2s-29.2-65.2-65.2-65.2S60.2 51 60.2 87s29.1 65.2 65.2 65.2zm0-123c31.9 0 57.8 25.9 57.8 57.8s-25.9 57.8-57.8 57.8S67.5 119 67.5 87.1c0-32 25.9-57.9 57.9-57.9z"/><path style="fill:#16A1C0" d="M215.2 221.4l-34.3-69.6c5.5-1 9.5-5.9 9.5-11.5v-7c0-1.8 1.1-3.3 2.7-4l6.4-2.7c6-2.5 8.8-9.3 6.4-15.3l-2.6-6.4c-.7-1.6-.3-3.5 1-4.7l4.9-4.9c4.5-4.6 4.5-12 0-16.6l-4.9-4.9c-1.2-1.2-1.6-3.1-.9-4.7l2.5-6.4c2.4-6-.4-12.8-6.4-15.2l-6.4-2.7c-1.6-.7-2.6-2.3-2.6-4v-7c.1-6.5-5.1-11.8-11.6-11.9H171.7c-1.8 0-3.3-1.1-4-2.7l-2.7-6.4c-2.5-5.9-9.2-8.7-15.2-6.4L143.3 9c-1.6.7-3.5.3-4.7-.9l-5-4.8c-4.6-4.5-11.9-4.5-16.5 0L112 8.2c-1.2 1.2-3.1 1.6-4.7.9l-6.5-2.7c-6-2.5-12.8.4-15.3 6.4l-2.7 6.4c-.7 1.6-2.2 2.7-4 2.7h-7c-6.4.1-11.6 5.3-11.7 11.7v7c0 1.8-1.1 3.3-2.7 4l-6.3 2.6c-5.9 2.5-8.8 9.3-6.4 15.2l2.7 6.4c.7 1.6.3 3.5-.9 4.8l-5 4.9c-4.6 4.6-4.6 12 0 16.6l4.9 4.9c1.3 1.2 1.6 3.1 1 4.7l-2.6 6.4c-2.5 6 .4 12.8 6.4 15.3l6.4 2.7c1.6.7 2.7 2.3 2.7 4v7.1c.1 5.6 4 10.4 9.5 11.5l-34.2 69.6c-.9 1.8-.1 4 1.7 4.9.9.4 1.9.5 2.8.2L73 215.2l11.2 32.9c.5 1.4 1.8 2.4 3.3 2.5h.2c1.4 0 2.8-.8 3.4-2.1l34.4-69.8 34.4 69.8c.6 1.3 1.9 2.1 3.4 2.1h.2c1.5-.1 2.8-1.1 3.2-2.5l11.1-32.9 32.9 11.2c1.9.7 4-.4 4.7-2.3.3-.8.2-1.8-.2-2.7zm-147.4-81v-7c0-4.7-2.9-9-7.2-10.8l-6.4-2.6c-2.2-.9-3.3-3.4-2.4-5.7l2.7-6.4c1.8-4.4.8-9.5-2.5-12.9l-5.1-4.9c-1.7-1.7-1.7-4.4 0-6.1l4.9-4.9c3.4-3.3 4.4-8.4 2.6-12.8l-2.7-6.4c-.9-2.2.1-4.7 2.3-5.7l6.5-2.7c4.4-1.8 7.3-6.1 7.3-10.8v-6.9c0-2.4 1.9-4.3 4.3-4.4h7c4.8 0 9.1-2.8 10.9-7.2l2.7-6.4c.9-2.2 3.4-3.2 5.6-2.4l6.4 2.7c4.4 1.8 9.4.8 12.8-2.5l4.9-4.9c1.7-1.6 4.4-1.6 6.1 0l4.9 4.9c3.4 3.3 8.4 4.3 12.8 2.5l6.4-2.6c2.2-.9 4.7.1 5.7 2.2l2.7 6.4c1.8 4.4 6.1 7.2 10.8 7.2h7c2.3.1 4.2 2 4.2 4.3v7c0 4.7 2.9 9 7.2 10.8l6.4 2.7c2.2.9 3.3 3.4 2.4 5.7l-2.6 6.5c-1.8 4.4-.8 9.5 2.6 12.8l5.1 5c1.7 1.7 1.7 4.4 0 6.1l-4.9 4.9c-3.4 3.4-4.4 8.4-2.5 12.8l2.7 6.4c.9 2.2-.1 4.7-2.3 5.7l-6.4 2.7c-4.4 1.8-7.2 6.1-7.2 10.8v7c0 2.4-1.9 4.4-4.3 4.4h-7.1c-4.8 0-9 2.9-10.9 7.3l-2.6 6.4c-.9 2.2-3.4 3.3-5.7 2.4l-6.5-2.7c-4.4-1.8-9.4-.8-12.8 2.6l-4.9 4.9c-1.7 1.6-4.4 1.6-6.1 0l-4.9-4.9c-3.4-3.3-8.4-4.3-12.8-2.5l-6.4 2.7c-2.2.9-4.7-.1-5.7-2.3l-2.6-6.4c-1.8-4.4-6.1-7.3-10.9-7.3h-7c-2.7-.4-4.5-2.3-4.5-4.7zm20.6 97.1l-9.5-27.9c-.6-1.9-2.7-2.9-4.6-2.3l-27.9 9.5 31.8-64.5h1.1c1.7 0 3.3 1.1 4 2.7l2.7 6.5c2.5 6 9.4 8.8 15.3 6.3l6.4-2.7c1.6-.7 3.5-.3 4.8 1l4.8 4.9c.9.8 1.8 1.5 2.9 2l-31.8 64.5zm88.3-30.2c-1.9-.7-4 .4-4.7 2.3l-9.5 27.9-31.9-64.6c1.1-.5 2.1-1.2 3-2.1l4.9-5c1.3-1.3 3.2-1.6 4.8-.9l6.5 2.6c6 2.5 12.8-.4 15.3-6.4l2.6-6.4c.7-1.6 2.2-2.7 4-2.7h1.1l31.8 64.6-27.9-9.3z"/><path style="fill:#16A1C0" d="M136.2 105.9h-3.6V62.6c0-.4 0-.7-.1-1.1v-.2c-.1-.3-.2-.6-.3-.8-.3-.6-.7-1.2-1.2-1.7s-1.1-.9-1.7-1.2c-.3-.1-.6-.2-.9-.2h-.2c-.4-.1-.7-.1-1.1-.1H126l-.5.2c-.2 0-.4.1-.5.2-.2.1-.3.2-.5.3l-.5.2c-.2.2-.5.4-.7.6-.1 0-.1.1-.1.1l-12.6 12.8c-2.2 2.1-2.2 5.7-.1 7.8l.1.1c2.2 2.2 5.6 2.2 7.8 0l3.2-3.4V106h-3.5c-3.1 0-5.5 2.5-5.5 5.6s2.5 5.5 5.5 5.5h18c3.1 0 5.5-2.5 5.5-5.6.1-3.1-2.4-5.6-5.4-5.6z"/></svg>