<?xml version="1.0" encoding="utf-8"?>
<!-- Generator: Adobe Illustrator 27.0.0, SVG Export Plug-In . SVG Version: 6.00 Build 0)  -->
<svg version="1.1" id="Layer_2_00000152252096143753502440000001832197751124238467_"
	 xmlns="http://www.w3.org/2000/svg" xmlns:xlink="http://www.w3.org/1999/xlink" x="0px" y="0px" viewBox="0 0 74.4 84.8"
	 style="enable-background:new 0 0 74.4 84.8;" xml:space="preserve">
<style type="text/css">
	.st0{fill:none;stroke:#51C9E1;stroke-width:1.5;stroke-miterlimit:10;}
	.st1{fill:none;stroke:#51C9E1;stroke-width:1.5;stroke-linecap:round;stroke-miterlimit:10;}
	.st2{fill:#FFFFFF;}
</style>
<g id="articles">
	<g>
		<path class="st0" d="M0.8,7.8L0.8,7.8V84h49.8c3.1,0,5.6-2.5,5.6-5.6V7.2c0-3.6,2.9-6.5,6.5-6.5H7.8C3.9,0.8,0.8,3.9,0.8,7.8z"/>
		<g id="pencil">
			<path class="st1" d="M72.4,16l-8.3-3.4l1.1-2.8c0.3-0.8,1.2-1.1,1.9-0.8l5.6,2.3c0.8,0.3,1.1,1.2,0.8,1.9L72.4,16L72.4,16z"/>
			<polygon class="st2" points="68.3,14.3 68.3,14.3 64.1,12.6 46.1,58.2 54.4,61.5 72.4,16 			"/>
			<polygon class="st1" points="72.4,16 68.3,14.3 68.3,14.3 64.1,12.6 45.2,60 44.9,67.7 46.6,68.3 48.3,69 53.5,63.4 			"/>
			<polygon class="st1" points="68.3,14.3 68.3,14.3 64.1,12.6 46.1,58.2 54.4,61.5 72.4,16 			"/>
			<path class="st1" d="M46.2,71.3l3-3.2L45,66.4l-0.1,4.4C44.8,71.5,45.7,71.8,46.2,71.3"/>
			<line class="st0" x1="45.8" y1="58.3" x2="54.2" y2="61.6"/>
		</g>
		<g>
			<line class="st1" x1="9.2" y1="25.6" x2="48" y2="25.6"/>
			<line class="st1" x1="9.2" y1="36.6" x2="48" y2="36.6"/>
			<line class="st1" x1="9.2" y1="47.6" x2="37" y2="47.6"/>
			<line id="line-last" class="st1" x1="35.2" y1="71.6" x2="42.6" y2="71.6"/>
		</g>
	</g>
</g>
</svg>
