<?xml version="1.0" encoding="UTF-8"?>
<svg id="Layer_2" data-name="Layer 2" xmlns="http://www.w3.org/2000/svg" viewBox="0 0 63.43 84.63">
  <defs>
    <style>
      .cls-1, .cls-2, .cls-3, .cls-4 {
        stroke: #51c9e1;
        stroke-miterlimit: 10;
        stroke-width: 1.5px;
      }

      .cls-1, .cls-4 {
        fill: none;
      }

      .cls-2 {
        fill: #dae8ef;
      }

      .cls-3 {
        fill: #b5e1ac;
      }

      .cls-4 {
        stroke-linecap: round;
      }
    </style>
  </defs>
  <g id="blog_posts" data-name="blog posts">
    <g>
      <path class="cls-1" d="M.75,7.81H.75V83.88H50.48c3.1,0,5.61-2.51,5.61-5.61V7.22c0-3.57,2.9-6.47,6.47-6.47H7.81c-3.9,0-7.06,3.16-7.06,7.06Z"/>
      <line class="cls-4" x1="9.12" y1="25.6" x2="47.96" y2="25.6"/>
      <line class="cls-4" x1="9.12" y1="36.61" x2="47.96" y2="36.61"/>
      <line class="cls-4" x1="9.12" y1="47.61" x2="36.95" y2="47.61"/>
      <path class="cls-2" d="M48.86,70.72c7.63,0,13.81-6.22,13.81-13.89s-6.19-13.89-13.81-13.89-13.81,6.22-13.81,13.89c0,7.67,6.18,13.89,13.81,13.89Z"/>
      <path class="cls-3" d="M41.89,60.07c-1.44,0-2.62-1.18-2.62-2.63s1.18-2.63,2.62-2.63,2.62,1.18,2.62,2.63-1.18,2.63-2.62,2.63Zm9.99-6.24c-1.44,0-2.62-1.18-2.62-2.63s1.18-2.63,2.62-2.63,2.62,1.18,2.62,2.63c0,1.45-1.18,2.63-2.62,2.63Zm0,11.25c-1.44,0-2.62-1.18-2.62-2.62s1.18-2.63,2.62-2.63,2.62,1.18,2.62,2.63c0,1.44-1.18,2.62-2.62,2.62Z"/>
      <line class="cls-4" x1="44.28" y1="56.34" x2="49.3" y2="53.2"/>
      <line class="cls-4" x1="49.77" y1="60.49" x2="44.75" y2="58.06"/>
    </g>
  </g>
</svg>