<?xml version="1.0" encoding="UTF-8"?>
<svg id="Layer_2" data-name="Layer 2" xmlns="http://www.w3.org/2000/svg" viewBox="0 0 712.91 401.29">
  <defs>
    <style>
      .cls-1 {
        fill: #8dc9db;
      }

      .cls-2 {
        fill: #78c0d0;
      }

      .cls-3 {
        fill: #a9d5e0;
      }
    </style>
  </defs>
  <g id="Object">
    <g>
      <path class="cls-1" d="M583.51,142.5c-3,0-5.97,.11-8.91,.31-9.96-57.85-60.36-101.86-121.05-101.86-27.76,0-53.36,9.21-73.93,24.73C357.39,26.46,315.28,0,266.98,0c-71.46,0-129.4,57.93-129.4,129.4,0,4.53,.23,9,.69,13.41-2.93-.2-5.89-.31-8.88-.31C57.93,142.5,0,200.43,0,271.89s57.93,129.4,129.4,129.4h454.11c71.46,0,129.4-57.93,129.4-129.4s-57.93-129.4-129.4-129.4Z"/>
      <path class="cls-3" d="M319.49,28.68c-11.98-3.83-24.76-5.9-38.01-5.9-68.96,0-124.86,55.9-124.86,124.86,0,4.37,.23,8.69,.66,12.94-2.83-.19-5.69-.3-8.57-.3-68.96,0-124.86,55.9-124.86,124.86,0,22.65,6.04,43.88,16.58,62.19-4.76-56.34,3.76-163.9,138.79-161.26-1.38-36.78,5.14-152.09,140.26-157.4Z"/>
      <path class="cls-2" d="M191.96,401.29h391.55c71.46,0,129.4-57.93,129.4-129.4,0-15.26-2.66-29.9-7.51-43.49-85.08,167.57-372.84,152.73-513.43,172.89Z"/>
    </g>
  </g>
</svg>