<?xml version="1.0" encoding="utf-8"?>
<!-- Generator: Adobe Illustrator 27.0.0, SVG Export Plug-In . SVG Version: 6.00 Build 0)  -->
<svg version="1.1" id="Layer_2_00000152252096143753502440000001832197751124238467_"
	 xmlns="http://www.w3.org/2000/svg" xmlns:xlink="http://www.w3.org/1999/xlink" x="0px" y="0px" viewBox="0 0 74.4 84.8"
	 style="enable-background:new 0 0 74.4 84.8;" xml:space="preserve">
<style type="text/css">
	.st0{fill:none;stroke:#51C9E1;stroke-width:1.5;stroke-miterlimit:10;}
	.st1{fill:none;stroke:#51C9E1;stroke-width:1.5;stroke-linecap:round;stroke-miterlimit:10;}
</style>
<g id="articles">
	<g>
		<path class="st0" d="M23.5,42.8l-7.5,30.7l-10,0.6L2.3,11.4C2.1,8.2,4.5,5.5,7.7,5.2l45.2-2.7c-3,0.2-5.2,2.7-5,5.7l0.7,11.7
			l-13.3-3.2c-2.8-0.6-5.6,1.1-6.3,3.9l-1.1,4.3l-2.2,8.9L23.5,42.8z"/>
		<path class="st0" d="M47.8,19.7l25.3,6.1c-2.6-0.6-5.2-0.6-5.8,2L54.7,79.2c-0.5,2.2-2.8,3.6-5,3.1l-36-8.8"/>
		<path class="st0" d="M49.7,39.2"/>
		<path class="st0" d="M50.2,47.7"/>
		<g>
			<line class="st1" x1="10.1" y1="25.6" x2="27.9" y2="24.9"/>
			<line class="st1" x1="10.7" y1="34.6" x2="25.7" y2="33.7"/>
			<line class="st1" x1="11.2" y1="43.7" x2="23.5" y2="42.8"/>
			<line id="line-last" class="st1" x1="33.8" y1="61.5" x2="39.8" y2="62.4"/>
		</g>
	</g>
</g>
<g id="articles_00000106861288640146466380000012005253379952659367_">
	<g>
		<g>
			<line class="st1" x1="30.9" y1="33.8" x2="58.9" y2="40.7"/>
			<line class="st1" x1="29" y1="41.8" x2="57" y2="48.6"/>
			<line class="st1" x1="27" y1="49.7" x2="47.1" y2="54.6"/>
		</g>
	</g>
</g>
</svg>
