<?xml version="1.0" encoding="UTF-8"?>
<svg id="Layer_2" data-name="Layer 2" xmlns="http://www.w3.org/2000/svg" viewBox="0 0 270.14 424.41">
  <defs>
    <style>
      .cls-1 {
        fill: #fff;
      }

      .cls-2, .cls-3 {
        fill: #8bc543;
      }

      .cls-4 {
        fill: #f9ca35;
      }

      .cls-5 {
        fill: #e8af2e;
      }

      .cls-6 {
        fill: #d0d2d3;
      }

      .cls-7 {
        fill: #e6e6e7;
      }

      .cls-8 {
        fill: #bbbdbf;
      }

      .cls-3 {
        stroke: #006738;
        stroke-miterlimit: 10;
        stroke-width: 9.57px;
      }

      .cls-9 {
        fill: #221f1f;
        opacity: .3;
      }

      .cls-10 {
        fill: #006738;
      }

      .cls-11 {
        fill: #c38728;
      }

      .cls-12 {
        fill: #f7f7f7;
      }

      .cls-13 {
        fill: #e2a540;
      }

      .cls-14 {
        fill: #744c29;
      }
    </style>
  </defs>
  <g id="Capa_1" data-name="Capa 1">
    <g>
      <path class="cls-8" d="M95.82,184.43l-43.35-55.72s.99-10.1,28.98-9.13c27.99,.98,68.52-6.59,94.72-7.19,30.3-.69,60.36,5,60.36,5l-45.31,67.05H95.82Z"/>
      <g>
        <path class="cls-3" d="M235.76,47.05c-27.35,47.06-53.97,94.69-68.88,145.02-24.27-7.19-48.5-14.38-72.98-21.6,12.57-50.85,16.41-102.34,27.25-156.41,40.04,6.35,77.58,17.63,114.61,33Z"/>
        <path class="cls-10" d="M162.59,75.46c21.71,6.22,32.74,24.75,25.3,40.16-7.5,15.49-26.57,24.06-43.82,19.08-17.16-5.04-29.35-22.35-26.75-39,2.66-16.57,23.54-26.33,45.27-20.24Z"/>
        <path class="cls-10" d="M93.9,170.47c6.51,1.92,13,3.83,19.47,5.75,3.06-10.7-3.6-22.01-14.95-25.25-1.35,6.52-2.84,13.02-4.52,19.49Z"/>
        <g>
          <path class="cls-2" d="M145.37,96.33c-2.79-.55-4.71,1.19-5.76,5.18-1.06,4.02-.34,6.36,2.13,7.05,1.51,.41,2.79,.08,3.83-1.02,1.06-1.1,2.58-3.46,4.64-7.1,2.05-3.64,4.43-6.08,7.16-7.3,2.72-1.21,5.84-1.33,9.3-.31,4.02,1.18,6.59,3.56,7.63,7.07,1.06,3.5,.8,7.08-.64,10.75-3.5,8.85-9.27,12.73-17.41,11.74,.59-2.55,1.18-5.09,1.77-7.64,4.35,.66,7.36-1.36,9.11-6.09,1.64-4.44,.63-7.22-3.06-8.29-1.63-.47-3.03-.28-4.19,.58-1.15,.86-2.88,3.17-5.08,6.94-2.2,3.76-4.48,6.27-6.86,7.54-2.38,1.26-4.9,1.51-7.65,.75-2.92-.83-5.13-2.67-6.63-5.56-1.5-2.88-1.77-6.55-.71-11,2.06-8.83,6.88-12.57,14.23-11.04-.61,2.59-1.21,5.19-1.82,7.78Z"/>
          <path class="cls-2" d="M134.79,95.87c-.59,2.42-1.17,4.83-1.75,7.24-2.59-.69-5.2-1.38-7.82-2.05,.52-2.42,1.04-4.84,1.55-7.27,2.7,.69,5.38,1.39,8.02,2.08Z"/>
          <path class="cls-2" d="M181.28,109.19c-.97,2.31-1.94,4.62-2.9,6.93-2.54-.77-5.06-1.53-7.58-2.28,.89-2.34,1.79-4.68,2.7-7.01,2.58,.78,5.17,1.56,7.78,2.36Z"/>
        </g>
        <path class="cls-10" d="M165.73,191.73c1.97-6.42,4.09-12.81,6.34-19.16-10.97-3.26-22.52,2.75-25.68,13.42,6.44,1.91,12.89,3.83,19.35,5.74Z"/>
        <path class="cls-10" d="M233.99,46.33c-9.87-4.06-19.74-7.82-29.69-11.27-4.81,10.91,3.82,23.64,19.45,29.44,3.42-6.06,6.85-12.12,10.24-18.16Z"/>
        <path class="cls-10" d="M121.15,14.06c-1.32,6.92-2.57,13.79-3.75,20.62,16.52,3,31.76-3.03,35.18-14.54-10.34-2.37-20.81-4.4-31.42-6.08Z"/>
        <path class="cls-10" d="M140.33,147.45c3.85,1.13,6.02,4.98,4.91,8.62-1.12,3.63-5.03,5.69-8.76,4.59-3.73-1.1-5.94-4.95-4.94-8.61,1.01-3.66,4.95-5.72,8.79-4.6Z"/>
        <path class="cls-10" d="M171.77,48.73c5.33,1.52,8.4,5.86,6.96,9.58-1.46,3.72-6.68,5.5-11.73,4.08-5.03-1.42-8.22-5.59-7.07-9.42,1.19-3.81,6.5-5.77,11.83-4.25Z"/>
      </g>
      <g>
        <path class="cls-3" d="M218.27,21.08c-20.31,50.5-39.85,101.45-47.4,153.4-25.05-3.65-50.07-7.3-75.32-10.93,5.16-52.12,1.58-103.64,4.57-158.7,40.53,.54,79.3,6.34,118.15,16.24Z"/>
        <path class="cls-10" d="M149.92,59.68c22.39,3.04,35.95,19.8,30.79,36.12-5.19,16.41-22.86,27.62-40.63,25.16-17.71-2.53-32.25-17.92-32.07-34.76,.26-16.77,19.53-29.42,41.91-26.51Z"/>
        <path class="cls-10" d="M95.55,163.55c6.71,.97,13.4,1.93,20.09,2.9,1.5-11.02-6.72-21.26-18.41-22.84-.4,6.64-.94,13.29-1.68,19.94Z"/>
        <g>
          <path class="cls-2" d="M135.88,82.8c-2.83-.15-4.49,1.86-4.96,5.96-.47,4.13,.58,6.34,3.13,6.67,1.55,.19,2.76-.32,3.64-1.56,.9-1.23,2.05-3.79,3.56-7.69,1.51-3.89,3.53-6.65,6.05-8.25,2.52-1.59,5.6-2.15,9.15-1.64,4.15,.59,7.04,2.58,8.57,5.9,1.55,3.32,1.81,6.89,.91,10.73-2.19,9.27-7.36,13.92-15.55,14.11,.22-2.6,.43-5.2,.66-7.81,4.4,.03,7.1-2.4,8.14-7.34,.99-4.62-.41-7.23-4.21-7.77-1.69-.23-3.05,.15-4.06,1.18-1.02,1.02-2.4,3.56-4.03,7.59-1.64,4.04-3.54,6.85-5.71,8.44-2.17,1.59-4.63,2.2-7.46,1.84-3.01-.39-5.46-1.91-7.36-4.55-1.9-2.64-2.68-6.23-2.27-10.79,.77-9.03,5-13.42,12.5-12.97-.23,2.66-.47,5.31-.69,7.96Z"/>
          <path class="cls-2" d="M125.33,83.87c-.23,2.48-.46,4.95-.7,7.41-2.66-.31-5.33-.62-8.02-.91,.16-2.47,.33-4.94,.49-7.41,2.76,.3,5.5,.6,8.23,.91Z"/>
          <path class="cls-2" d="M173.25,90.38c-.64,2.43-1.26,4.85-1.87,7.28-2.62-.4-5.23-.79-7.83-1.17,.55-2.44,1.1-4.88,1.68-7.32,2.67,.4,5.34,.8,8.03,1.22Z"/>
        </g>
        <path class="cls-10" d="M169.68,174.3c1.04-6.64,2.21-13.26,3.53-19.87-11.33-1.66-21.9,5.94-23.5,16.96,6.65,.97,13.32,1.94,19.96,2.91Z"/>
        <path class="cls-10" d="M216.42,20.62c-10.35-2.6-20.66-4.91-31-6.9-3.2,11.5,7.17,22.85,23.47,26.34,2.51-6.49,5.04-12.97,7.53-19.44Z"/>
        <path class="cls-10" d="M100.12,4.85c-.32,7.04-.57,14.02-.77,20.94,16.78,.6,31-7.54,32.74-19.42-10.57-.87-21.23-1.38-31.97-1.52Z"/>
        <path class="cls-10" d="M138.21,134.12c3.97,.56,6.68,4.07,6.09,7.83-.59,3.75-4.15,6.36-8.01,5.8-3.85-.55-6.58-4.04-6.12-7.81,.48-3.76,4.08-6.37,8.04-5.82Z"/>
        <path class="cls-10" d="M155.17,31.91c5.5,.74,9.16,4.59,8.26,8.49-.9,3.89-5.83,6.4-11.02,5.72-5.18-.69-8.93-4.36-8.34-8.3,.63-3.94,5.61-6.64,11.1-5.9Z"/>
      </g>
      <path class="cls-9" d="M270.14,408.72c0,8.67-63.03,15.69-132.54,15.69s-119.16-7.02-119.16-15.69,49.66-15.69,119.16-15.69,132.54,7.03,132.54,15.69Z"/>
      <g>
        <path class="cls-7" d="M95.82,184.43l-43.35-55.72s.99-17.25,28.98-16.27c27.99,.98,57.83,13.02,84.01,14.24,37.51,1.75,71.08-9.29,71.08-9.29l-45.31,67.05H95.82Z"/>
        <path class="cls-7" d="M246.32,286.88c-13.93-34.25-35.35-70.04-55.1-102.45H95.82c-19.53,32.41-39.23,68.65-54.66,102.45-32.91,72.11-14.16,95.88,24.47,112.91,28.65,12.64,127.57,12.64,156.22,0,38.63-17.04,48.37-54.16,24.47-112.91Z"/>
        <g>
          <path class="cls-13" d="M160.94,279.24c-.58-6.86-6.9-10.32-19.02-10.35-12.15-.05-18.24,3.18-18.27,9.65,0,3.97,1.93,6.85,5.84,8.65,3.91,1.81,11.78,3.87,23.6,6.17,11.83,2.31,20.5,6.13,26.02,11.47,5.52,5.33,8.3,12.26,8.25,20.78-.03,9.94-4.5,17.6-13.41,22.98-8.89,5.38-19.08,8.05-30.56,8.01-27.7-.1-43.46-10.76-47.26-32.01l22.94-1.77c1.65,11.14,9.83,16.74,24.52,16.79,13.77,.05,20.67-4.59,20.7-13.93,0-4.13-1.64-7.22-4.99-9.25-3.33-2.04-11.17-4.28-23.49-6.73-12.32-2.46-21.22-6.16-26.68-11.13-5.45-4.98-8.17-11.14-8.15-18.51,.03-7.91,3.58-14.61,10.63-20.06,7.06-5.46,17.31-8.16,30.75-8.11,26.62,.09,40.55,8.96,41.77,26.59l-23.21,.75Z"/>
          <polygon class="cls-13" points="154.27 254.1 132.43 254.02 132.49 234.15 154.34 234.22 154.27 254.1"/>
          <polygon class="cls-13" points="153.88 372.71 132.02 372.62 132.08 352.75 153.93 352.83 153.88 372.71"/>
        </g>
        <path class="cls-14" d="M200.05,186.49c0,1.9-1.91,3.45-4.26,3.45H89.88c-2.36,0-4.26-1.54-4.26-3.45v-2.83c0-1.9,1.91-3.45,4.26-3.45h105.91c2.35,0,4.26,1.55,4.26,3.45v2.83Z"/>
        <path class="cls-6" d="M170.64,393.99c17.63,12.69,49.09,1.9,60.75-6.36,16.2-11.49,23.62-34.39,21.75-50.77-1.87-16.4-4.44-27.49-11.05-42.75-2.35-5.42,8.04,16.54-4.59,46.13-9.42,22.09-36.66,27.72-54.72,29.76-12.64,1.43-29.69,11.36-12.14,23.99Z"/>
        <path class="cls-6" d="M159.92,177.27s33.36-12.12,49.84-29.08c18.61-19.14-18.3,29.08-18.3,29.08h-31.54Z"/>
        <path class="cls-12" d="M65.25,132.76s.63,.49,1.65,1.4c1.03,.91,2.45,2.24,4.09,3.89,3.27,3.3,7.31,7.96,11.03,12.85,3.72,4.89,7.13,10.03,9.44,14.07,1.15,2.02,2.05,3.75,2.65,4.98,.6,1.23,.9,1.97,.9,1.97,0,0-.63-.49-1.66-1.4-1.03-.91-2.46-2.24-4.09-3.89-3.53-3.56-7.15-7.75-11.03-12.85-3.72-4.9-7.12-10.03-9.43-14.07-1.15-2.02-2.05-3.75-2.65-4.98-.6-1.23-.91-1.97-.91-1.97Z"/>
        <path class="cls-12" d="M98.59,196.92s-.53,1.62-1.57,4.41c-1.04,2.78-2.56,6.74-4.54,11.42-3.87,9.39-9.55,21.65-15.64,33.71-6.11,12.05-12.62,23.88-17.91,32.56-2.6,4.36-4.89,7.93-6.53,10.41-1.63,2.49-2.62,3.87-2.62,3.87,0,0,.53-1.62,1.57-4.41,1.04-2.79,2.56-6.75,4.53-11.42,3.87-9.39,9.55-21.65,15.65-33.7,6.11-12.04,12.63-23.88,17.92-32.55,2.6-4.36,4.89-7.93,6.52-10.42,1.63-2.49,2.62-3.88,2.62-3.88Z"/>
      </g>
      <g>
        <g>
          <path class="cls-5" d="M93.91,377.06c-7.17,24.22-32.62,38.04-56.84,30.87-24.22-7.17-38.04-32.62-30.87-56.84,7.17-24.22,32.62-38.04,56.84-30.87,24.22,7.17,38.04,32.62,30.87,56.84Z"/>
          <path class="cls-4" d="M85.99,374.71c-5.88,19.85-26.73,31.17-46.57,25.29-19.84-5.87-31.17-26.73-25.29-46.57,5.87-19.85,26.73-31.17,46.57-25.3,19.85,5.88,31.17,26.73,25.29,46.57Z"/>
          <g>
            <path class="cls-11" d="M60.79,356.52c.59-2.87-1.57-5.04-6.51-6.52-4.95-1.49-7.83-.9-8.62,1.73-.48,1.62-.04,3.03,1.34,4.23,1.38,1.21,4.34,3,8.88,5.37,4.55,2.37,7.63,4.97,9.23,7.82,1.61,2.84,1.9,6,.86,9.47-1.21,4.05-3.96,6.64-8.25,7.76-4.28,1.12-8.76,.98-13.44-.42-11.29-3.39-16.43-9.64-15.42-18.77l9.57,2.05c-.67,4.75,1.99,8.02,7.98,9.82,5.61,1.68,8.99,.62,10.13-3.18,.5-1.69,.2-3.15-.92-4.38-1.11-1.23-4.04-3.1-8.77-5.58-4.72-2.49-7.91-5.08-9.54-7.76-1.62-2.69-1.99-5.53-1.09-8.53,.97-3.23,3.23-5.53,6.76-6.9,3.54-1.37,8.05-1.24,13.53,.41,10.85,3.25,15.46,8.55,13.83,15.9l-9.56-2.5Z"/>
            <rect class="cls-11" x="53.64" y="335.43" width="8.46" height="9.3" transform="translate(-284.49 297.74) rotate(-73.29)"/>
            <rect class="cls-11" x="39.15" y="383.77" width="8.46" height="9.3" transform="translate(-341.1 318.26) rotate(-73.29)"/>
          </g>
        </g>
        <g>
          <path class="cls-1" d="M14.7,354.28c0-3.59,1.59-9.06,2.77-10.24,1.16-1.16,6.65-2.77,10.24-2.77-3.59,0-8.87-1.41-10.24-2.77-1.43-1.43-2.77-6.65-2.77-10.24,0,3.68-1.39,8.85-2.95,10.42-1.61,1.61-6.56,2.6-10.06,2.6,3.59,0,8.89,1.42,10.24,2.77,1.37,1.37,2.77,6.65,2.77,10.24Z"/>
          <path class="cls-1" d="M23.38,356.3c0-1.28,.56-3.22,.99-3.65,.41-.41,2.37-.99,3.64-.99-1.28,0-3.16-.5-3.64-.99-.51-.51-.99-2.36-.99-3.64,0,1.31-.5,3.15-1.05,3.71-.57,.57-2.34,.92-3.58,.92,1.28,0,3.17,.51,3.64,.99,.49,.49,.99,2.37,.99,3.65Z"/>
          <path class="cls-1" d="M6.43,366.1c0-1.77,.78-4.47,1.37-5.06,.57-.57,3.28-1.37,5.06-1.37-1.77,0-4.38-.69-5.06-1.37-.71-.71-1.37-3.29-1.37-5.06,0,1.82-.69,4.37-1.46,5.15-.8,.8-3.24,1.28-4.97,1.28,1.78,0,4.39,.7,5.06,1.37,.67,.67,1.37,3.29,1.37,5.06Z"/>
        </g>
      </g>
    </g>
  </g>
</svg>