<?xml version="1.0" encoding="utf-8"?>
<!-- Generator: Adobe Illustrator 27.0.0, SVG Export Plug-In . SVG Version: 6.00 Build 0)  -->
<svg version="1.1" id="Layer_2_00000181784480513072153760000009830636283913811347_"
	 xmlns="http://www.w3.org/2000/svg" xmlns:xlink="http://www.w3.org/1999/xlink" x="0px" y="0px" viewBox="0 0 184.2 178"
	 style="enable-background:new 0 0 184.2 178;" xml:space="preserve">
<style type="text/css">
	.st0{fill:#47D7E2;}
	.st1{fill:#FFFFFF;}
	.st2{font-family:'AmaticSC-Bold';}
	.st3{font-size:67.8411px;}
</style>
<g id="OBJECTS">
	<g>
		<path class="st0" d="M166.2,10.2c-0.1-0.1-0.2-0.1-0.3-0.2c-5.2-4.6-11.3-7.4-17.7-8.6c-4.9-1.6-10.5-1.8-15.6-1.2
			c-9.8,1.2-20.2,4.2-28.8,9.2C87.7,19,83.3,36.3,82,53.6C73.4,38,56.6,26.9,38.4,28C21.6,29,5.3,41,1.5,57.7
			c-2,7.2-1.9,14.7-0.3,22c0.5,4.6,1.3,9.2,2.3,13.3c3.3,14.9,10,29,19.7,40.8c9.4,11.5,21.6,20.4,35.3,26.1
			c2.8,1.2,5.8,2.2,8.9,3.2c7,3.9,14.5,7.2,22.1,9.7c9.4,3.1,20.5,6.1,30.5,4.2c3.6-0.7,6.9-2.3,9.8-4.4c0.4,0.3,0.9,0.6,1.3,0.9
			c9.1,5.9,19.7,4.6,30,3.6c2.9-0.3,4.1-3.1,2.8-5.2c0-0.1,0-0.2-0.1-0.3c-1.2-2.7-3.1-5-4.3-7.8s-2-5.7-2.6-8.6
			c-0.9-4.8-1.1-9.7-1.4-14.5c2.4-3.8,4.6-7.7,6.6-11.7c2.1-4.1,3.9-8.2,5.7-12.4c0.5-0.8,0.9-1.7,1.4-2.5
			c6.3-11.4,10.9-23.8,13.1-36.7C186.1,55.1,183.9,26.5,166.2,10.2L166.2,10.2z M39.8,30.6c16.8-0.6,32.3,9.6,40.9,23.6
			C72,44.4,61.8,36.1,48.6,33c-6.7-1.6-13.5-1.7-19.9-0.3C32.2,31.5,35.9,30.8,39.8,30.6z M26.6,133.7C17,122.8,10.1,109.6,6.3,95.6
			c-0.1-0.4-0.2-0.8-0.3-1.1c2.4,5.5,5.3,10.7,8.3,15.4c1.8,2.8,3.7,5.6,5.7,8.3c8.8,14,20.3,26.3,33.7,36.1
			C43.4,149.3,34.2,142.3,26.6,133.7z M109.1,11.8c-14.2,10.8-21.3,27-25.9,43.9c1.6-16.6,5.1-33.9,20.4-43.3
			c4.7-2.9,9.9-5,15.2-6.5C115.4,7.5,112.1,9.5,109.1,11.8L109.1,11.8z M157.1,165.8c-2.7-2.9-4.8-6.3-5.8-10.6
			c-0.6-2.4-0.7-4.8-0.6-7.2c1-1.4,1.9-2.9,2.9-4.3C153.5,150.9,154.1,159.4,157.1,165.8L157.1,165.8z M178.7,81.3
			c-0.7,2.9-1.4,5.8-2.3,8.7c1.8-7.3,3.1-14.8,4.1-22.3c0.5-4,0.8-8.1,0.9-12.3C181.6,64.3,180.5,73.2,178.7,81.3z"/>
		<text transform="matrix(0.9565 -0.2919 0.2919 0.9565 33.9465 127.9134)" class="st1 st2 st3">hello!</text>
	</g>
</g>
</svg>
