<?xml version="1.0" encoding="utf-8"?>
<!-- Generator: Adobe Illustrator 27.0.0, SVG Export Plug-In . SVG Version: 6.00 Build 0)  -->
<svg version="1.1" id="Layer_2_00000023960453028296047940000011886781746354079895_"
	 xmlns="http://www.w3.org/2000/svg" xmlns:xlink="http://www.w3.org/1999/xlink" x="0px" y="0px" viewBox="0 0 62.5 84.5"
	 style="enable-background:new 0 0 62.5 84.5;" xml:space="preserve">
<style type="text/css">
	.st0{fill:none;stroke:#51C9E1;stroke-width:1.5;stroke-linecap:round;stroke-miterlimit:10;}
	.st1{fill:none;stroke:#51C9E1;stroke-width:1.5;stroke-miterlimit:10;}
	.st2{fill:#DAE8EF;stroke:#51C9E1;stroke-width:1.5;stroke-linecap:round;stroke-linejoin:round;}
	.st3{fill:#109B8E;}
	.st4{fill:none;stroke:#ED2424;stroke-width:0.5;stroke-linecap:round;stroke-linejoin:round;}
</style>
<line class="st0" x1="9.6" y1="62.2" x2="37.4" y2="62.2"/>
<line class="st0" x1="9.6" y1="51.2" x2="48.4" y2="51.2"/>
<line class="st0" x1="23.5" y1="15.1" x2="28.1" y2="15.1"/>
<line class="st0" x1="23.5" y1="22.5" x2="35.9" y2="22.5"/>
<line class="st0" x1="23.5" y1="18.7" x2="38.3" y2="18.7"/>
<path class="st1" d="M0.8,7.8L0.8,7.8v76h49.7c3.1,0,5.6-2.5,5.6-5.6v-71c0-3.6,2.9-6.5,6.5-6.5H7.8C3.9,0.8,0.8,3.9,0.8,7.8z"/>
<rect x="8.4" y="11.3" class="st2" width="12.3" height="17.3"/>
<circle class="st3" cx="14.9" cy="16.6" r="2.2"/>
<path class="st3" d="M16.2,18.7c-0.4,0.3-0.8,0.5-1.3,0.5s-1-0.2-1.3-0.5c-1,0.5-1.7,1.5-1.7,2.7c0,1.7,1.4,3,3,3c1.7,0,3-1.4,3-3
	C17.9,20.2,17.2,19.2,16.2,18.7z"/>
<g>
	<circle class="st4" cx="14.6" cy="20" r="6.3"/>
	<path class="st4" d="M9.6,24l10-7.7L9.6,24z"/>
</g>
</svg>
