<?xml version="1.0" encoding="UTF-8"?>
<svg id="Layer_2" data-name="Layer 2" xmlns="http://www.w3.org/2000/svg" viewBox="0 0 90.45 93.97">
  <defs>
    <style>
      .cls-1 {
        fill: none;
      }

      .cls-1, .cls-2, .cls-3 {
        stroke: #51c9e1;
        stroke-miterlimit: 10;
        stroke-width: 1.5px;
      }

      .cls-2 {
        fill: #dae8ef;
      }

      .cls-3 {
        fill: #b5e1ac;
      }
    </style>
  </defs>
  <g id="press_releases" data-name="press releases">
    <g>
      <path class="cls-1" d="M40.92,89.29l-9.21-34.37-1.11-4.12-6.55,1.76h0s-12.41,3.32-12.41,3.32l1.11,4.12,.55,2.06c.3,1.14,1.48,1.81,2.61,1.51l2.79-.74,13.6,29.16c.44,.94,1.49,1.43,2.49,1.16l4.62-1.24c1.14-.3,1.82-1.47,1.51-2.61Z"/>
      <path id="circle" class="cls-3" d="M79.31,29.62c-.92-3.42-4.43-5.45-7.86-4.55l3.32,12.41c3.42-.93,5.44-4.44,4.53-7.86Z"/>
      <path class="cls-2" d="M3.91,43.17c2.28-.61,4.62,.74,5.23,3.02l1.12,4.17c.61,2.28-.74,4.62-3.02,5.23h0c-2.28,.61-4.62-.74-5.23-3.02l-1.12-4.17c-.61-2.27,.74-4.61,3.02-5.23Z"/>
      <path class="cls-1" d="M25.15,56.68l-6.27-23.42,10.58-2.84c15.98-4.28,28.58-14.88,35.82-28.4l15.68,58.51c-13.03-8.08-29.24-10.97-45.23-6.68l-10.58,2.83Z"/>
      <path class="cls-2" d="M35.73,53.84l-22.9,6.13c-2.28,.61-4.62-.74-5.23-3.02l-4.06-15.17c-.61-2.28,.74-4.62,3.02-5.23l22.89-6.14,6.28,23.42Z"/>
      <line class="cls-1" x1="82.08" y1="45.9" x2="89.27" y2="47.35"/>
      <line class="cls-1" x1="83.31" y1="28.27" x2="90.26" y2="26.4"/>
      <line class="cls-1" x1="78.9" y1="8.77" x2="73.41" y2="13.63"/>
    </g>
  </g>
</svg>