<?xml version="1.0" encoding="UTF-8"?>
<svg id="Layer_2" data-name="Layer 2" xmlns="http://www.w3.org/2000/svg" viewBox="0 0 1890.97 1890.97">
  <defs>
    <style>
      .cls-1 {
        fill: #cc346f;
      }

      .cls-2 {
        fill: #bccace;
      }
    </style>
  </defs>
  <g id="_Ñëîé_1" data-name="Ñëîé 1">
    <g>
      <path class="cls-2" d="M1723.26,1890.97H167.71c-92.48,0-167.71-75.23-167.71-167.71V167.71C0,75.24,75.24,0,167.71,0H1723.26c92.48,0,167.71,75.24,167.71,167.71V1723.26c0,92.48-75.24,167.71-167.71,167.71ZM167.71,74.85c-51.2,0-92.86,41.66-92.86,92.86V1723.26c0,51.2,41.66,92.86,92.86,92.86H1723.26c51.2,0,92.86-41.66,92.86-92.86V167.71c0-51.2-41.66-92.86-92.86-92.86H167.71Z"/>
      <path class="cls-1" d="M1716.55,1310.1c-56.59-74.9-113.88-149.29-170.97-223.81-53.46-69.77-105.9-141.05-167.33-204.15-17.22-17.69-35.26-34.59-54.04-50.61,66.23-76.57,132.42-153.19,197.41-230.81,25.57-30.54,50.53-61.3,73.75-93.69,8.17-11.4,10.22-32.86,6-45.89-4.06-12.56-10.86-22.83-21.34-30.94-23.56-18.2-56.61-16.08-78.2,4.66-44.94,43.16-86,90.61-126.91,137.6-41.03,47.14-82.06,94.28-123.09,141.41-18.51,21.26-36.98,42.55-55.45,63.84,.66-21.9,1.29-43.8,1.86-65.7,1.69-65.36,2.99-130.74,3.92-196.11,.47-33.37-25.85-61.44-58.07-65.77-14.28-1.92-30.23-.09-42.7,7.95-4.52,3.49-9.04,6.98-13.55,10.47-8.18,8.24-13.86,17.93-17.07,29.07-24.53,56.73-53.07,112.1-90.1,161.72-19.24,23.92-40.56,46.1-64.37,65.5-3.82,2.8-7.68,5.53-11.6,8.18-10.14-17.7-21.9-34.5-35.08-50.16-7.56-8.98-15.84-17.36-24.81-24.94-11.92-10.08-24.38-20.23-38.07-27.89-26.82-15.01-54.22-22.01-84.35-25.6-23.17-2.76-48.27-.77-70.47,6.4-12.7,4.1-25.86,9.29-37.05,16.79-17.31,11.6-28.59,23.13-40.79,39.78-19.28,26.3-25.12,61.22-20.86,92.88,4.59,34.18,21.47,64.61,45.55,89.16,44.48,45.36,106.98,65.47,169.44,65.55,15.66,.02,31.25-1.17,46.68-3.43,.01,15.45-.95,30.9-2.67,46.27-9.05,58.81-27.67,116.48-50.23,171.46-14.49,33.12-31.57,65.09-52.91,94.31-13.1,16.07-27.54,30.88-43.52,44.09-13.59,9.78-27.97,18.34-43.13,25.44-12.29,4.6-24.89,8.17-37.79,10.56-11.3,.96-22.6,.95-33.9,0-14.09-2.6-27.83-6.56-41.22-11.64-18.13-8.43-35.3-18.69-51.48-30.43-18.92-15.43-36.1-32.77-51.49-51.72-16.41-22.44-30.31-46.56-41.71-71.91-11.44-28.96-19.63-59.07-24.49-89.82-3.52-32.18-3.26-64.57,.36-96.74,5.94-37.96,16.42-75.02,30.71-110.68,17.97-40.58,40.67-78.93,67.25-114.46,22.15-27.78,46.62-53.76,74.21-76.19,16.79-12.33,34.54-23.26,53.42-32.06,14.59-5.55,29.61-9.82,45.03-12.45,15.21-2.6,31.53-17.21,39.02-30,8.19-13.99,11.66-34.62,6.58-50.31-5.11-15.8-14.9-31.04-30-39.02-5.2-2.19-10.4-4.39-15.6-6.58-11.57-3.11-23.14-3.11-34.71,0-59.03,8.21-111.29,39.01-157.13,75.53-43.25,34.46-79.28,77.99-110.75,123.2-64.11,92.06-103.31,203.99-105.23,316.51-.9,52.33,7.02,106.13,23.45,155.85,8.85,26.8,19.96,53.17,33.11,78.14,13.36,25.38,29.75,48.35,47.4,70.9,14.42,18.42,30.5,35.51,48.26,50.76,22.62,19.43,47.03,37.56,73.51,51.4,27.93,14.6,58.35,26.93,89.62,31.99,18,2.91,36.27,5.4,54.55,4.86,17.39-.51,34.95-2.93,51.97-6.44,28.71-5.92,56.91-17.74,82.39-32.06,25.76-14.49,49.9-33.14,71.09-53.68,40.91-39.66,72.34-89.45,95.74-141.13,25.07-55.35,46.41-113.35,60.05-172.64,7.54-32.78,12.69-66.49,14.53-100.08,1.24-22.52,.27-44.93-2.33-67.22,43.83-24.52,81.95-57.02,115.02-94.35-1,30.68-2.07,61.36-3.24,92.03-4.41,115.75-9.61,231.45-16.21,347.1-3.72,65.26-7.44,130.56-11.94,195.77-1.13,16.42,8.28,36.03,19.62,47.38,11.62,11.62,30.69,20.37,47.38,19.62,17.33-.78,35.3-6.47,47.38-19.62,12.49-13.61,18.35-28.86,19.62-47.38,7.98-115.58,15.22-231.16,20.83-346.88,2.64-54.47,4.99-108.95,7.06-163.44,1.02,.76,2.06,1.51,3.12,2.25,6.09,4.23,12.09,8.58,18.02,13.03,66.87,53.33,122.08,119.22,174.39,186.53,55.47,71.94,110.33,144.35,165.52,216.5,19.54,25.55,39.06,51.11,58.74,76.55,9.26,11.97,32.48,20.12,47,19.47,15.01-.67,28.33-5.04,40.28-14.27,10.98-8.49,20.65-20.61,23.82-34.53,3.7-16.24,3.83-37.28-6.7-51.22ZM746.06,778.69c-8.33-1.55-16.45-3.66-24.44-6.46-6.77-3.35-13.29-7.15-19.54-11.39-3.86-3.39-7.54-6.98-10.99-10.78-1.29-1.99-2.5-4.03-3.65-6.11-.15-.51-.3-1.03-.45-1.55,.63-.37,1.27-.73,1.91-1.09,2.88-.89,5.79-1.65,8.73-2.3,5.57-.3,11.13-.24,16.69,.13,6.44,1.3,12.78,3.01,18.99,5.15,5.65,2.88,11.04,6.13,16.26,9.72,8.99,7.67,17.28,16.05,24.9,25.09,.13,.18,.25,.37,.38,.55-9.6,.22-19.21-.09-28.79-.96Z"/>
    </g>
  </g>
</svg>