<?xml version="1.0" encoding="UTF-8"?>
<svg id="Layer_2" data-name="Layer 2" xmlns="http://www.w3.org/2000/svg" viewBox="0 0 600 457.43">
  <defs>
    <style>
      .cls-1 {
        fill: #4e4f51;
      }

      .cls-2 {
        fill: #404042;
      }

      .cls-3 {
        fill: #dddbd0;
      }

      .cls-4 {
        fill: #6da1a1;
      }

      .cls-5 {
        fill: #f0ede2;
      }

      .cls-6 {
        fill: #e6ba59;
      }

      .cls-7 {
        fill: #588281;
      }

      .cls-8 {
        fill: #c7a24f;
      }
    </style>
  </defs>
  <g id="Object">
    <g>
      <path class="cls-5" d="M568.49,0H30.69C13.74,0,0,13.74,0,30.69V423.45c0,16.95,13.74,30.69,30.69,30.69H568.49c16.95,0,30.69-13.74,30.69-30.69V30.69c0-16.95-13.74-30.69-30.69-30.69Z"/>
      <path class="cls-3" d="M546.78,435.99c15.53,0,28.12-12.59,28.12-28.12V48.02c0-15.53-12.59-28.12-28.12-28.12h-246.37V435.99h246.37Z"/>
      <path class="cls-4" d="M288.28,343.5l-61.35-72.63c-7.92-9.38-27.73-9.38-35.65,0L9.59,416.13c-7.92,9.38,1.98,21.11,17.83,21.11H301.2v-78.43l-12.93-15.31Z"/>
      <path class="cls-7" d="M592.03,407.9l-111.59-201.94c-11.01-13.04-38.55-13.04-49.57,0l-85.29,100.97-44.1,52.21-.03-.04-.25-.29v78.43h269.32c22.03,0,32.53-16.3,21.51-29.34Z"/>
      <g>
        <path class="cls-6" d="M118.42,172.13c0,23.49,19.05,42.54,42.54,42.54v-85.08c-23.49,0-42.54,19.05-42.54,42.54Z"/>
        <path class="cls-8" d="M160.97,129.59v85.08c23.49,0,42.54-19.05,42.54-42.54s-19.05-42.54-42.54-42.54Z"/>
      </g>
      <path class="cls-1" d="M54.04,435.99c-15.53,0-28.12-12.59-28.12-28.12V48.02c0-15.53,12.59-28.12,28.12-28.12h246.37V3.29H31.51C14.56,3.29,.82,17.03,.82,33.98V426.73c0,16.95,13.74,30.69,30.69,30.69H300.41v-21.43H54.04Z"/>
      <path class="cls-2" d="M569.31,3.29H300.41V19.9h246.37c15.53,0,28.12,12.59,28.12,28.12V407.87c0,15.53-12.59,28.12-28.12,28.12h-246.37v21.43h268.9c16.95,0,30.69-13.74,30.69-30.69V33.98c0-16.95-13.74-30.69-30.69-30.69Z"/>
    </g>
  </g>
</svg>