<?xml version="1.0" encoding="UTF-8"?>
<svg xmlns="http://www.w3.org/2000/svg" xmlns:xlink="http://www.w3.org/1999/xlink" viewBox="0 0 267.2 278.85">
  <defs>
    <style>
      .cls-1 {
        fill: #306484;
      }

      .cls-2 {
        fill: #092e49;
      }

      .cls-3 {
        isolation: isolate;
      }

      .cls-4 {
        opacity: .2;
      }

      .cls-5 {
        opacity: .35;
      }

      .cls-5, .cls-6, .cls-7 {
        fill: #0b3854;
      }

      .cls-5, .cls-7 {
        mix-blend-mode: multiply;
      }

      .cls-8 {
        stroke: #0b3854;
        stroke-linecap: round;
        stroke-linejoin: round;
        stroke-width: 9px;
      }

      .cls-8, .cls-9 {
        fill: none;
      }

      .cls-10 {
        fill: url(#New_Pattern_Swatch_1);
      }

      .cls-10, .cls-7 {
        opacity: .75;
      }

      .cls-11 {
        fill: #06213a;
      }

      .cls-12 {
        fill: #114a6d;
      }
    </style>
    <pattern id="New_Pattern_Swatch_1" data-name="New Pattern Swatch 1" x="0" y="0" width="34" height="34" patternTransform="translate(310.31 -104.27)" patternUnits="userSpaceOnUse" viewBox="0 0 34 34">
      <g>
        <rect class="cls-9" x="0" width="34" height="34"/>
        <circle class="cls-2" cx="25.5" cy="34" r="3.8"/>
        <circle class="cls-2" cx="8.5" cy="34" r="3.8"/>
        <circle class="cls-2" cx="34" cy="17" r="3.8"/>
        <circle class="cls-2" cx="17" cy="17" r="3.8"/>
        <circle class="cls-2" cx="0" cy="17" r="3.8"/>
        <circle class="cls-2" cx="25.5" cy="0" r="3.8"/>
        <circle class="cls-2" cx="8.5" cy="0" r="3.8"/>
      </g>
    </pattern>
  </defs>
  <g class="cls-3">
    <g id="Layer_2" data-name="Layer 2">
      <g id="OBJECTS">
        <g>
          <g class="cls-4">
            <path class="cls-1" d="M193.26,119.62c0,32.9-26.76,59.66-59.66,59.66s-59.66-26.76-59.66-59.66,26.76-59.67,59.66-59.67,59.66,26.77,59.66,59.67Z"/>
            <path class="cls-1" d="M133.6,31.4c-48.64,0-88.22,39.57-88.22,88.22s39.58,88.22,88.22,88.22,88.22-39.58,88.22-88.22S182.24,31.4,133.6,31.4Zm0,153.58c-36.04,0-65.36-29.32-65.36-65.36s29.32-65.36,65.36-65.36,65.36,29.32,65.36,65.36-29.32,65.36-65.36,65.36Z"/>
            <path class="cls-1" d="M133.6,0C67.53,0,13.98,53.55,13.98,119.62s53.55,119.62,119.62,119.62,119.62-53.56,119.62-119.62S199.67,0,133.6,0Zm0,213.54c-51.79,0-93.92-42.14-93.92-93.92S81.81,25.7,133.6,25.7s93.92,42.13,93.92,93.92-42.13,93.92-93.92,93.92Z"/>
          </g>
          <g>
            <g>
              <path class="cls-1" d="M171.81,64.77c0-21.1-17.11-38.21-38.21-38.21h0c-21.1,0-38.21,17.11-38.21,38.21v83.56c0,3.52,17.11,6.37,38.21,6.37s38.21-2.85,38.21-6.37V64.77Z"/>
              <path class="cls-10" d="M171.81,64.77c0-21.1-17.11-38.21-38.21-38.21h0c-21.1,0-38.21,17.11-38.21,38.21v83.56c0,3.52,17.11,6.37,38.21,6.37s38.21-2.85,38.21-6.37V64.77Z"/>
            </g>
            <g>
              <path class="cls-6" d="M95.15,259.73v12.71h0c0,3.54,17.22,6.41,38.45,6.41s38.45-2.87,38.45-6.41h0v-12.71H95.15Z"/>
              <path class="cls-12" d="M95.15,259.76c0-1.98,29.44-6.77,29.44-6.77h18s29.47,4.64,29.47,6.77c0,.08,2.17,6.41-38.45,6.41s-38.45-5.89-38.45-6.41Z"/>
            </g>
            <g>
              <path class="cls-6" d="M124.57,203.25v49.96h0c0,.83,4.04,1.51,9.03,1.51s9.03-.67,9.03-1.51h0v-49.96h-18.06Z"/>
              <path class="cls-11" d="M142.63,203.26c0,.83-4.04,1.51-9.03,1.51s-9.03-.67-9.03-1.51,4.04-1.51,9.03-1.51,9.03,.67,9.03,1.51Z"/>
            </g>
            <g>
              <path class="cls-6" d="M133.6,208.65h0c-21.1,0-38.21-17.11-38.21-38.21v-9.2h76.41v9.2c0,21.1-17.11,38.21-38.21,38.21Z"/>
              <path class="cls-11" d="M173.03,151.56v17.07c0,3.62-17.65,6.56-39.43,6.56-10.89,0-20.74-.74-27.88-1.92-7.13-1.19-11.55-2.83-11.55-4.65v-17.07c0,3.63,17.66,6.58,39.43,6.58s39.43-2.94,39.43-6.58Z"/>
              <path class="cls-12" d="M94.17,151.56c0,3.63,17.66,6.58,39.43,6.58s39.43-2.94,39.43-6.58l-1.23-3.23c0,3.32-18.31,6-38.2,6s-38.21-2.69-38.21-6l-1.22,3.23Z"/>
            </g>
            <path class="cls-6" d="M144.64,237.21v16.24c0,1.01-4.94,1.84-11.04,1.84-3.05,0-5.8-.21-7.8-.54-2-.33-3.23-.79-3.23-1.3v-16.24c0,1.02,4.94,1.84,11.04,1.84s11.04-.82,11.04-1.84Z"/>
            <path class="cls-12" d="M122.57,237.21c0,1.02,4.94,1.84,11.04,1.84s11.04-.82,11.04-1.84l-2-2.88c0,.93-3.46,1.68-9.03,1.68s-9.03-.75-9.03-1.68l-2,2.88Z"/>
            <g>
              <g>
                <rect class="cls-12" x="171.61" y="128.72" width="11.93" height="6.19"/>
                <rect class="cls-5" x="178.74" y="128.72" width="3.27" height="6.19"/>
                <rect class="cls-12" x="179.86" y="122.89" width="9.44" height="17.85" rx=".97" ry=".97"/>
                <g>
                  <rect class="cls-7" x="179.86" y="124.94" width="9.44" height=".86"/>
                  <rect class="cls-7" x="179.86" y="137.82" width="9.44" height=".86"/>
                  <rect class="cls-7" x="179.86" y="134.6" width="9.44" height=".86"/>
                  <rect class="cls-7" x="179.86" y="131.38" width="9.44" height=".86"/>
                  <rect class="cls-7" x="179.86" y="128.16" width="9.44" height=".86"/>
                </g>
              </g>
              <g>
                <rect class="cls-12" x="83.66" y="128.72" width="11.93" height="6.19" transform="translate(179.26 263.62) rotate(180)"/>
                <rect class="cls-5" x="85.19" y="128.72" width="3.27" height="6.19" transform="translate(173.65 263.62) rotate(180)"/>
                <rect class="cls-12" x="77.9" y="122.89" width="9.44" height="17.85" rx=".97" ry=".97" transform="translate(165.25 263.62) rotate(180)"/>
                <g>
                  <rect class="cls-7" x="77.9" y="124.94" width="9.44" height=".86" transform="translate(165.25 250.74) rotate(180)"/>
                  <rect class="cls-7" x="77.9" y="137.82" width="9.44" height=".86" transform="translate(165.25 276.5) rotate(180)"/>
                  <rect class="cls-7" x="77.9" y="134.6" width="9.44" height=".86" transform="translate(165.25 270.06) rotate(180)"/>
                  <rect class="cls-7" x="77.9" y="131.38" width="9.44" height=".86" transform="translate(165.25 263.62) rotate(180)"/>
                  <rect class="cls-7" x="77.9" y="128.16" width="9.44" height=".86" transform="translate(165.25 257.18) rotate(180)"/>
                </g>
              </g>
            </g>
            <path class="cls-2" d="M133.6,22.44c23.34,0,42.34,18.99,42.34,42.34v105.85c0,23.34-18.99,42.34-42.34,42.34s-42.34-18.99-42.34-42.34V64.77c0-23.34,18.99-42.34,42.34-42.34m0-2.07c-24.48,0-44.4,19.92-44.4,44.4v105.85c0,24.48,19.92,44.4,44.4,44.4s44.4-19.92,44.4-44.4V64.77c0-24.48-19.92-44.4-44.4-44.4h0Z"/>
          </g>
          <g>
            <g>
              <path class="cls-8" d="M240.65,49.98c13.75,18.73,22.06,43.06,22.06,69.64s-8.31,50.9-22.06,69.63"/>
              <path class="cls-8" d="M217.01,62.84c13.06,15.27,20.96,35.11,20.96,56.79s-7.89,41.51-20.96,56.78"/>
              <path class="cls-8" d="M194.82,75.79c10.08,11.79,16.18,27.1,16.18,43.84s-6.09,32.04-16.18,43.83"/>
            </g>
            <g>
              <path class="cls-8" d="M26.56,49.98C12.81,68.71,4.5,93.04,4.5,119.62s8.31,50.9,22.06,69.63"/>
              <path class="cls-8" d="M50.19,62.84c-13.06,15.27-20.96,35.11-20.96,56.79s7.89,41.51,20.96,56.78"/>
              <path class="cls-8" d="M72.39,75.79c-10.08,11.79-16.18,27.1-16.18,43.84s6.09,32.04,16.18,43.83"/>
            </g>
          </g>
        </g>
      </g>
    </g>
  </g>
</svg>