<?xml version="1.0" encoding="UTF-8"?>
<svg xmlns="http://www.w3.org/2000/svg" viewBox="0 0 200 200">
  <defs>
    <style>
      .cls-1, .cls-2 {
        fill: #9bc1f9;
      }

      .cls-3 {
        fill: #f48c7f;
      }

      .cls-4 {
        fill: #f7a491;
      }

      .cls-5 {
        fill: #fff;
      }

      .cls-6 {
        fill: #13375b;
      }

      .cls-7 {
        fill: #ff735d;
      }

      .cls-8 {
        fill: #e8ba70;
      }

      .cls-9 {
        fill: #b75742;
      }

      .cls-10 {
        fill: #f5f5f5;
      }

      .cls-11 {
        isolation: isolate;
      }

      .cls-12 {
        fill: #ffbf9d;
      }

      .cls-13 {
        fill: #6db1b5;
      }

      .cls-14 {
        fill: #50bfa5;
      }

      .cls-15 {
        fill: #96d9c9;
      }

      .cls-16 {
        fill: #e1e1e1;
      }

      .cls-17 {
        opacity: .5;
      }

      .cls-17, .cls-18, .cls-19 {
        mix-blend-mode: multiply;
      }

      .cls-17, .cls-20, .cls-21 {
        fill: #3cb4c5;
      }

      .cls-22 {
        fill: #355389;
      }

      .cls-18, .cls-23, .cls-24, .cls-19 {
        opacity: .3;
      }

      .cls-18, .cls-25 {
        fill: #3c8f7c;
      }

      .cls-26 {
        fill: #fae0b2;
      }

      .cls-27 {
        fill: #f7cc7f;
      }

      .cls-21 {
        opacity: .2;
      }

      .cls-24, .cls-19 {
        fill: #daeef7;
      }

      .cls-28 {
        fill: #256653;
      }

      .cls-29 {
        fill: #f47458;
      }

      .cls-30 {
        fill: #ff9c6a;
      }

      .cls-31 {
        fill: #375a64;
      }

      .cls-32 {
        fill: #f79c8d;
      }

      .cls-33 {
        fill: #e87b50;
      }

      .cls-2 {
        opacity: .1;
      }

      .cls-34 {
        fill: #dd513a;
      }

      .cls-35 {
        fill: #ececec;
      }

      .cls-36 {
        fill: #184655;
      }

      .cls-37 {
        fill: #1a2e35;
      }

      .cls-38 {
        fill: #f3fcff;
      }

      .cls-39 {
        fill: #0e2e35;
      }
    </style>
  </defs>
  <g class="cls-11">
    <g id="Layer_1" data-name="Layer 1">
      <g>
        <path class="cls-2" d="M72.71,16.82c28.49-1.65,58.36,6.96,53.97,19.44-4.39,12.48,23.47-4.43,34.59,.07,7.92,3.2,4.75,12.96,8.58,16.89,8.78,9.01,17.76-2.34,28.94,4.47,11.18,6.81-11.71,70.36-23.38,70.71l-133.17-.81-9.56-.86s-26.44-14.46-7.52-27.79c12.79-9.02,3.59-15.56,2.2-19.69-1.6-4.74-5.32-13.02,10.91-19.09,16.23-6.07,12.04-19.29,11.64-22.03-.4-2.74-5.69-19.66,22.8-21.31h0Z"/>
        <g>
          <path class="cls-25" d="M40.34,99.48c-3.06-4.57-3.8-10.19-3.89-14.1-.09-4.25,.56-7.45,.56-7.48l-.21-.07s-.66,3.26-.57,7.53c.08,3.95,.83,9.63,3.93,14.25l.17-.14Z"/>
          <path class="cls-25" d="M37.7,77.09c-.04,.96-.42,1.78-1,2.3-.53-.65-.85-1.56-.81-2.52,.04-.96,.42-1.78,1-2.3,.53,.65,.85,1.56,.81,2.52Z"/>
          <path class="cls-25" d="M35.83,79.38c.52,.81,.71,1.75,.58,2.58-.76-.16-1.51-.68-2.03-1.49-.52-.81-.71-1.75-.58-2.58,.76,.16,1.51,.68,2.03,1.49Z"/>
          <path class="cls-25" d="M34.81,82.03c.78,.49,1.33,1.26,1.56,2.08-.72,.24-1.57,.14-2.35-.34-.78-.49-1.33-1.26-1.56-2.08,.72-.24,1.57-.14,2.35,.34Z"/>
          <path class="cls-25" d="M35.28,85.65c.62,.39,1.02,1.07,1.15,1.83-.62,.3-1.33,.29-1.95-.09-.62-.39-1.02-1.07-1.15-1.83,.62-.3,1.33-.29,1.95,.09Z"/>
          <path class="cls-25" d="M37.62,81.26c.67-.4,1.43-.45,2.09-.2-.15,.73-.58,1.4-1.25,1.8-.67,.4-1.43,.45-2.09,.2,.15-.73,.58-1.4,1.25-1.8Z"/>
          <path class="cls-25" d="M37.64,83.77c.67-.4,1.43-.45,2.09-.2-.15,.73-.58,1.4-1.25,1.8-.67,.4-1.43,.45-2.09,.2,.15-.73,.58-1.4,1.25-1.8Z"/>
        </g>
        <g>
          <path class="cls-15" d="M37.19,121.9c-6.42-2.34-10.91-7.91-13.55-12.18-2.86-4.63-4.22-8.76-4.23-8.8l-.28,.11s1.38,4.2,4.26,8.87c2.66,4.31,7.2,9.94,13.7,12.31l.1-.3Z"/>
          <path class="cls-15" d="M19.66,99.42c.58,1.1,.69,2.35,.37,3.44-1.02-.25-1.97-.97-2.55-2.07-.58-1.1-.69-2.35-.37-3.44,1.02,.25,1.97,.97,2.55,2.07Z"/>
          <path class="cls-15" d="M19.03,103.63c1.12,.44,1.94,1.32,2.33,2.35-.96,.5-2.14,.59-3.25,.15-1.12-.44-1.94-1.32-2.33-2.35,.96-.5,2.14-.59,3.25-.15Z"/>
          <path class="cls-15" d="M19.6,107.47c1.2-.16,2.31,.21,3.11,.93-.65,.9-1.68,1.56-2.88,1.72-1.2,.16-2.31-.21-3.11-.93,.65-.9,1.68-1.56,2.88-1.72Z"/>
          <path class="cls-15" d="M21.87,111.16c1.2-.16,2.31,.21,3.11,.93-.65,.9-1.68,1.56-2.88,1.72-1.2,.16-2.31-.21-3.11-.93,.65-.9,1.68-1.56,2.88-1.72Z"/>
          <path class="cls-15" d="M21.69,105.42c.07-1.16,.55-2.21,1.26-2.93,.63,.69,1,1.73,.94,2.89-.07,1.16-.55,2.21-1.26,2.93-.63-.69-1-1.73-.94-2.89Z"/>
          <path class="cls-15" d="M24.05,109.23c.05-1.16,.52-2.22,1.22-2.95,.65,.68,1.03,1.71,.98,2.87-.05,1.16-.52,2.22-1.22,2.95-.65-.68-1.03-1.71-.98-2.87Z"/>
          <path class="cls-15" d="M25.73,114.97c.46-.24,.96-.25,1.38-.07-.13,.48-.45,.9-.9,1.14-.46,.24-.96,.25-1.38,.07,.13-.48,.45-.9,.9-1.14Z"/>
        </g>
        <path class="cls-25" d="M52.59,115.72s4.99-11.02,3.32-13.48c-2.31-3.4-5.17,7.03-5.31,6.11-1.32-8.66-1.04-19.58-7.22-21.23-3.51-.94,.23,8.15-.2,10.5-.44,2.34-6.28-6.02-9.88-10.45-3.6-4.43-5.8-1.98-3.72,3.39,2.02,5.19,9.32,11.28,7.69,11.8-1.64,.52-10.81-6.71-12.19-4.05-1.69,3.27,12.43,9.04,11.01,9.69-1.42,.65-8.15-2.41-8.15,.19s9.3,3.25,9.06,4.38c-.39,1.82-6.23-2.84-6.69-.31-.47,2.59,7.93,2.78,7.64,4.81-.17,1.16-2.28-.05-2.67,1.54-.87,3.65,12.36,8.75,12.36,8.75l4.94-11.64Z"/>
        <path class="cls-15" d="M61.61,118.15c2.01,.94,1.47,3.28,1.47,3.28,0,0,5.45-4.25,7.48-1.77,2.04,2.48,.97,7.35-1.42,8.14-2.39,.79-23.16,.24-23.16,.24,0,0,13.82-10.73,15.63-9.88Z"/>
        <g>
          <path class="cls-14" d="M47.38,124.14l.19-.16c-4.36-5.32-6.23-11.98-7.02-16.63-.86-5.05-.69-8.89-.69-8.93l-.26-.05s-.18,3.9,.69,8.99c.8,4.69,2.68,11.42,7.09,16.79Z"/>
          <path class="cls-14" d="M40.45,97.57c.13,1.15-.17,2.14-.74,2.78-.73-.75-1.26-1.82-1.39-2.96-.13-1.15,.17-2.14,.74-2.78,.73,.75,1.26,1.82,1.39,2.96Z"/>
          <path class="cls-14" d="M38.75,100.24c.75,.95,1.13,2.06,1.13,3.05-.91-.16-1.86-.74-2.61-1.69-.75-.95-1.13-2.06-1.13-3.05,.91,.16,1.86,.74,2.61,1.69Z"/>
          <path class="cls-14" d="M38.04,103.44c.99,.55,1.76,1.44,2.17,2.42-.79,.31-1.79,.23-2.78-.31-.99-.55-1.76-1.44-2.17-2.42,.79-.31,1.79-.23,2.78,.31Z"/>
          <path class="cls-14" d="M39.81,108.69c.43,.2,.77,.55,.98,.95-.32,.16-.74,.16-1.17-.04-.43-.2-.77-.55-.98-.95,.32-.16,.74-.16,1.17,.04Z"/>
          <path class="cls-14" d="M40.35,110.65c.43,.2,.77,.55,.97,.95-.32,.16-.74,.16-1.17-.04-.43-.2-.77-.55-.97-.95,.32-.16,.74-.16,1.17,.04Z"/>
          <path class="cls-14" d="M41.16,102.4c.7-.5,1.57-.59,2.38-.32-.04,.88-.42,1.69-1.12,2.19-.7,.5-1.57,.59-2.38,.32,.04-.88,.42-1.69,1.12-2.19Z"/>
          <path class="cls-14" d="M41.63,105.39c.7-.5,1.57-.59,2.38-.32-.04,.88-.42,1.69-1.12,2.19-.7,.5-1.57,.59-2.38,.32,.04-.88,.42-1.69,1.12-2.19Z"/>
          <path class="cls-14" d="M41.93,109.71c.45-.33,1.02-.38,1.55-.21-.03,.57-.27,1.1-.73,1.42-.45,.33-1.02,.38-1.55,.21,.03-.57,.27-1.1,.73-1.42Z"/>
        </g>
        <path class="cls-14" d="M50.67,128.13s-6.38-8.19-9.05-9.45c-2.84-1.34-.38,3.3-.38,3.3,0,0-6.08-5.97-7.5-4.48-1.43,1.49,.1,2.88,.1,2.88,0,0-5.09-.95-5.83,.96-1.14,2.93,7.23,4.39,7.23,4.39,0,0-4.01-.88-3.21,.93,1.21,2.73,18.64,1.46,18.64,1.46Z"/>
        <path class="cls-15" d="M28.01,121.35c.74-1.91,5.83-.96,5.83-.96,0,0-1.52-1.39-.1-2.88,1.43-1.49,6.18,2.03,6.18,2.03,0,0-.74-3.23,2.84-.69,2.55,1.82,7.48,8.6,7.48,8.6l-22.23-6.09Z"/>
        <path class="cls-14" d="M45.98,128.01s10.16,.72,12.14-1.1,.02-5.12,.02-5.12c0,0,3.49-2.76,3.43-4.56-.05-1.8-2.33-.89-2.33-.89,0,0,3.85-4.96,2.94-5.9-1.7-1.76-6.15,3.4-6.15,3.4,0,0,1.32-2.45-.07-2.84-2.1-.59-3.65,5.46-3.65,5.46,0,0,.39-2.39-1.06-2.07-2.6,.57-5.27,13.62-5.27,13.62Z"/>
        <polygon class="cls-39" points="54.42 128.12 53.57 128.12 56.74 111.64 57.45 111.78 54.42 128.12"/>
        <path class="cls-14" d="M149.54,99.98l.82-1.99c.64-1.46,2.27-2.16,3.64-1.56h0c3.46,1.52,4.96,5.73,3.36,9.42l-1.17,2.7c-.51,1.18-.33,2.48,.36,3.4,.63,.83,.73,1.99,.3,2.99l-.62,1.42c-.67,1.54-1.97,2.68-3.52,3.15-.9,.27-1.7,.96-2.12,1.93l-.88,2.01c-.97,2.23-3.45,3.29-5.53,2.37l-1.19-.52c-2.09-.91-3-3.46-2.03-5.68h0c1.57-2.66,1.44-4.65,.89-5.99-.82-1.98-.81-4.26,.08-6.29l.12-.28c.93-2.14,2.73-3.74,4.87-4.42,.95-.3,1.93-1.04,2.63-2.64Z"/>
        <path class="cls-15" d="M134.63,127.94c1.68-2.18,11.01-13.79,17.01-15.74,6.63-2.15,.38,6.4,.38,6.4,0,0,11.76-12.9,16.07-11.74,3.95,1.07,0,9.06,0,9.06,0,0,4.45-4.43,9.86-4.43s-3.65,16.1-4.13,16.94l-39.19-.5Z"/>
        <g>
          <path class="cls-25" d="M170.05,103.11c-4.8,7.53-8.3,16.26-10.31,25.15h-.48c2-8.7,5.62-17.51,10.41-25.03,1.11-1.75,2.32-3.82,4.4-4.5,.04-.01,.06,.05,.02,.06-1.91,.72-3.01,2.69-4.05,4.32Z"/>
          <path class="cls-25" d="M160.83,128.27c5.37-7.32,11.95-14.17,19.71-20.06,.08-.06,.18,.08,.1,.14-7.36,5.68-13.85,12.35-19.32,19.92h-.49Z"/>
          <path class="cls-25" d="M170.49,98.44c.12,.18,.6,.66,.74,1.28,.19,.59,.04,1.34,.02,1.31-.04,.01,.55-.48,.73-1.27,.24-.75,.07-1.8-.22-2.15-.51-.78-1.39-.86-1.56-.48-.18,.38,.05,.89,.3,1.31Z"/>
          <path class="cls-25" d="M171.64,105.16c-.18-.13-.64-.61-1.26-.76-.59-.2-1.33-.07-1.3-.05-.02,.04,.49-.54,1.28-.71,.76-.22,1.8-.04,2.14,.27,.77,.52,.83,1.41,.45,1.58-.38,.18-.89-.07-1.3-.32Z"/>
          <path class="cls-25" d="M169.9,108.1c-.18-.13-.64-.61-1.26-.76-.59-.2-1.33-.07-1.3-.05-.02,.04,.49-.54,1.28-.71,.76-.22,1.8-.04,2.14,.27,.77,.52,.83,1.41,.45,1.58-.38,.18-.89-.07-1.3-.32Z"/>
          <path class="cls-25" d="M176.09,114.93c-.18-.13-.64-.61-1.26-.76-.59-.2-1.33-.07-1.3-.05-.02,.04,.49-.54,1.28-.71,.76-.22,1.8-.04,2.14,.27,.77,.52,.83,1.41,.45,1.58-.38,.18-.89-.07-1.3-.32Z"/>
          <path class="cls-25" d="M179.25,112.14c-.18-.13-.64-.61-1.26-.76-.59-.2-1.33-.07-1.3-.05-.02,.04,.49-.54,1.28-.71,.76-.22,1.8-.04,2.14,.27,.77,.52,.83,1.41,.45,1.58-.38,.18-.89-.07-1.3-.32Z"/>
          <path class="cls-25" d="M168.06,101.77c.15,.16,.69,.56,.93,1.15,.28,.56,.25,1.31,.23,1.29-.03,.02,.47-.56,.52-1.37,.11-.78-.21-1.79-.56-2.09-.62-.69-1.51-.63-1.62-.23-.12,.4,.19,.87,.5,1.24Z"/>
          <path class="cls-25" d="M165.51,105.11c.21,.11,.96,.32,1.34,.88,.43,.5,.48,1.36,.45,1.34-.04,.04,.53-.83,.51-1.75,.05-.92-.49-1.91-.97-2.09-.89-.51-2.03-.05-2.13,.44-.11,.5,.35,.89,.8,1.17Z"/>
          <path class="cls-25" d="M162.83,110.17c.23,.08,1,.15,1.47,.65,.5,.42,.7,1.26,.67,1.24-.03,.04,.39-.9,.21-1.81-.1-.92-.81-1.8-1.31-1.89-.96-.35-2.01,.29-2.02,.79-.02,.51,.49,.82,.98,1.02Z"/>
          <path class="cls-25" d="M170.77,113.69c.17,.11,.77,.32,1.04,.8,.32,.43,.31,1.13,.29,1.12-.03,.03,.48-.64,.51-1.39,.1-.75-.29-1.58-.67-1.75-.7-.46-1.65-.16-1.75,.24-.12,.4,.23,.75,.58,1Z"/>
          <path class="cls-25" d="M174.9,99.62c-.1-.08-.35-.39-.71-.51-.34-.14-.78-.1-.77-.09-.01,.02,.31-.3,.79-.36,.46-.1,1.06,.06,1.25,.25,.43,.34,.43,.87,.2,.95-.23,.09-.52-.08-.75-.25Z"/>
          <path class="cls-25" d="M173.94,97.47c0,.13,.09,.52-.04,.88-.09,.36-.4,.68-.4,.66-.02,0,.43-.07,.77-.4,.36-.3,.6-.88,.57-1.15,0-.55-.43-.88-.63-.74-.21,.13-.26,.46-.26,.75Z"/>
          <path class="cls-25" d="M181.52,109.29c-.1-.08-.35-.39-.71-.51-.34-.14-.78-.1-.77-.09-.01,.02,.31-.3,.79-.36,.46-.1,1.06,.06,1.25,.25,.43,.34,.43,.87,.2,.95-.23,.09-.52-.08-.75-.25Z"/>
          <path class="cls-25" d="M180.36,107.13c.02,.13,.13,.51,.04,.88-.06,.36-.34,.71-.35,.7-.02,0,.42-.1,.73-.47,.33-.33,.53-.93,.47-1.19-.05-.55-.5-.84-.69-.69-.2,.15-.22,.48-.2,.77Z"/>
        </g>
        <path class="cls-25" d="M175.13,119.61c.03,.2,.24,.79,.11,1.37-.08,.57-.49,1.13-.5,1.11-.04,0,.65-.19,1.11-.77,.49-.54,.77-1.48,.66-1.89-.12-.86-.83-1.28-1.12-1.02-.3,.24-.31,.77-.26,1.21Z"/>
        <path class="cls-25" d="M170.81,121.16c.03,.2,.24,.79,.11,1.37-.08,.57-.49,1.14-.5,1.11-.04,0,.65-.19,1.11-.77,.49-.54,.77-1.48,.66-1.89-.12-.86-.83-1.28-1.12-1.02-.3,.24-.31,.77-.26,1.21Z"/>
        <path class="cls-25" d="M166.42,123.13c.03,.2,.24,.79,.11,1.37-.08,.57-.49,1.13-.5,1.11-.04,0,.65-.19,1.11-.77,.49-.54,.77-1.48,.66-1.89-.12-.86-.83-1.28-1.12-1.02-.3,.24-.31,.77-.26,1.21Z"/>
        <path class="cls-25" d="M176.42,123.66c-.09-.17-.26-.72-.68-1.07-.37-.38-.99-.56-.98-.54-.03,.02,.58-.23,1.25-.05,.66,.12,1.39,.66,1.54,1.02,.39,.7,.1,1.4-.26,1.38-.36-.01-.65-.39-.87-.75Z"/>
        <path class="cls-25" d="M171.93,125.26c-.09-.17-.26-.72-.68-1.07-.37-.38-.99-.56-.98-.54-.03,.02,.58-.23,1.25-.05,.66,.12,1.39,.66,1.54,1.02,.39,.7,.1,1.4-.26,1.38-.36-.01-.65-.39-.87-.75Z"/>
        <path class="cls-25" d="M179.85,122.02c-.08-.09-.26-.42-.57-.58-.28-.19-.7-.22-.69-.21-.01,.02,.33-.22,.78-.2,.43-.01,.96,.23,1.1,.44,.34,.39,.25,.87,.02,.9-.23,.04-.46-.16-.64-.35Z"/>
        <path class="cls-25" d="M179.33,119.9c-.02,.12,0,.49-.18,.79-.14,.31-.48,.55-.48,.54-.02,0,.4,.01,.77-.24,.38-.22,.7-.7,.71-.95,.09-.51-.24-.87-.45-.78-.21,.08-.31,.38-.36,.64Z"/>
        <path class="cls-27" d="M156.44,63.47c.26,.03,.49-.26,.42-.51-.11-.4-.21-.79-.31-1.19-.22-.88-.26-.91-.2-.98,.15-.18,.5,.03,.62,.12,.27,.2,.5,.46,.81,.6,.61,.27,1.21-.08,1.11-.77-.09-.64-.22-1.27-.35-1.91,.64,.34,1.26,.7,1.91,1.03,.23,.12,.46-.05,.43-.3-.07-.56-.27-2.22-.34-2.77-.02-.14-.18-.79-.03-.86,.13-.07,.56,.2,.66,.25,.56,.26,.77,.35,2.62,1.15,.22,.1,.51-.16,.43-.39-.79-2.28-.5-2.38-.9-2.79-.09-.09-.21-.05-.26,.06-.13,.27-.14,.34,.1,1.39,.06,.27,.13,.54,.21,.81-2.23-1.02-2.77-1.34-3.24-.91-.33,.3-.25,.43,.14,3.57-.65-.39-1.32-.74-1.99-1.11-.25-.14-.53,.06-.49,.34,.34,2.28,.44,2.33,.41,2.54,0,0,.11,.07-.06,0-.3-.12-.74-.74-1.35-.85-.54-.09-1.16,.18-1.21,.79-.03,.35,.06,.5,.35,1.79-.65-.06-1.3-.04-1.99,.05-.3,.04-.49,.11-.73,.3-.19,.16-.12,.53,.13,.59,.7,.17,1.16-.28,3.11-.04Z"/>
        <path class="cls-29" d="M167.04,72.66c.09-.61,.21-1.19,.41-1.8,.04-.12,.08-.34,.22-.38,.34-.09,.61,.52,1.63,1.08,.44,.24,1.33,.79,1.73,.21,.2-.29,.26-.72,.36-1.06,.08-.26,.16-.51,.24-.76,1.62,1.02,1.49,1.1,1.94,1.04,.12-.01,.22-.16,.19-.27-.12-.43-.11-.31-2.13-1.63-.19-.12-.48-.05-.54,.18-.1,.35-.48,1.94-.55,2.13-.01-.02-.1-.03-.12-.03-.73-.25-1.27-.7-1.86-1.17-.48-.39-1.22-.62-1.61,.04-.21,.35-.4,1.15-.53,1.77-.97-.66-1.94-1.34-2.92-1.99-.19-.13-.54-.06-.6,.2-.16,.72-.35,1.42-.54,2.13-.57-.4-1.08-.88-1.5-1.43-.31-.41-.99,0-.13,.97,.46,.56,1.02,1.03,1.65,1.42,.21,.13,.52,.06,.6-.2,.21-.69,.39-1.4,.55-2.11,.98,.65,1.96,1.29,2.94,1.94,.24,.16,.53,0,.57-.27Z"/>
        <path class="cls-20" d="M166.57,87.85c-.06,.22,.04,.39,.23,.49,.93,.47,1.89,.85,2.93,.98,.54,.07,.59-.76,.07-.85-.82-.15-1.65-.35-2.41-.69,.2-.59,.45-1.15,.76-1.68,.12-.2,.06-.54-.19-.61-.64-.17-3.1-.75-3.13-.73,0,0,.01-.02,.02-.06,.03-.27,.48-1.09,.58-1.49,.11-.45-.43-.79-.78-.93-.71-.29-1.68,0-2.3-.5-.6-.48,.49-1.32,.18-2.32-.23-.77-1.02-.8-2.24-.92-.3-.03-.59-.06-.82,.18-.06,.06-.09,.16-.05,.24,.25,.43,.71,.4,1.82,.54,.14,.02,.39,0,.48,.14,.3,.45-.55,1.18-.31,2.09,.19,.71,.89,1.03,1.54,1.14,.51,.09,1.19-.02,1.64,.31-.15,.42-.32,.83-.44,1.26-.13,.46,0,.86,.46,1.03,.5,.2,1.06,.28,1.58,.41,.35,.09,.7,.18,1.05,.26-.27,.55-.49,1.12-.66,1.71Z"/>
        <path class="cls-20" d="M146.17,52.44c-2.09-3.08-4.1-1.47-3.58-.29,.22,.5,.82,.72,1.26,.35,.2-.17,.1-.57-.19-.57-.23,0-.21-.26,.04-.28,.35-.04,.65,.3,.87,.52,.52,.51,1.2,1.17,1.08,1.97-.19,1.2-1.73,2.08-3.27,.88-2.22-1.72-.88-5.8,1.99-5.69,1.56,.06,2.94,1.14,3.47,2.6,.1,.28,.5,.1,.47-.16-.18-1.98-2.24-3.33-4.14-3.24-1.94,.09-3.37,1.69-3.64,3.56-.28,1.96,.86,4,2.88,4.39,2.22,.42,4.21-1.88,2.76-4.04Z"/>
        <path class="cls-25" d="M163.46,93.75c-.36-.45-1.23-.92-1.71-.4-.23,.24-.25,.62,.05,.83,.29,.2,.65,.12,.81,.49,.14,.32-.1,.65-.37,.82-.81,.52-2.01-.07-2.61-.67-.95-.96-.66-2.64,.79-3.05,.45-.13,.91-.05,1.38-.02,.26,.02,.48-.33,.27-.53-.82-.78-2.21-.51-3.03,.15-.86,.69-1.2,1.93-.91,2.98,.33,1.17,1.45,2.04,2.58,2.36,2.36,.68,3.91-1.51,2.75-2.96Z"/>
        <g>
          <path class="cls-39" d="M55.02,73.44c.06-1.52-.16-3.02-.83-4.43-.58-1.22-2.01-1.91-3.32-1.91-4.15,0-4.68,5.52-7.33,7.66-.81,.65-1.71,1.18-2.48,1.89-2.82,2.6-1.55,7.4,1.04,9.68,1.8,1.58,4.63,2.48,6.84,1.24,1.16-.64,2.04-1.72,2.66-2.89,.89-1.67,1.46-3.59,2.09-5.36,.67-1.89,1.24-3.86,1.32-5.87Z"/>
          <path class="cls-32" d="M46.12,74.07s-3.05-5.49-3.79-6.65c-.74-1.17-2.68-5.8-2.74-5.98-.07-.18,1.33-2.38,1.02-2.45-.31-.08-.66,1.16-.99,1.01-.33-.15-1.31-3.11-1.5-2.96-.36,.28,.53,1.84,.34,1.94-.19,.1-.76-1.72-1.14-1.67-.37,.05,.71,1.67,.6,1.81-.1,.14-1.23-1.38-1.43-1.05-.11,.18,1.03,1.33,.81,1.44-.22,.11-1.23-.64-1.34-.42-.11,.21,.94,.51,1.25,1.09,.31,.58,.85,.83,1.07,1.9,.22,1.07,.55,4.94,1.69,6.87,1.13,1.93,3.63,6.21,3.63,6.21l2.53-1.06Z"/>
          <path class="cls-3" d="M62.26,94.26l-4.74-3.63s-.48-3.39-1.12-6.39c-.8,.23-1.52,.86-2.32,1.08l1.21,6.73,6.22,3.22,1.76,2.26,.4-2.32-1.39-.94Z"/>
          <path class="cls-27" d="M55.7,80.79c-1.3-3.95-2.75-3.78-2.75-3.78l1.12,8.3c.8-.22,1.84-.71,2.64-.94-.27-1.25-.7-2.61-1.02-3.59Z"/>
          <path class="cls-4" d="M42.04,122.3s-.29,2.04-.8,2.7c-.17,.22-.48,.5-.68,.9-.32,.62-.14,1.55,.09,2.06,.12,.26,0,.26,.26,.35,.81,.25,1.66-.17,2-.95,.19-.43,.36-1.01,.39-1.74,.09-1.85,.66-2.8,.66-2.8l-1.94-.52Z"/>
          <path class="cls-4" d="M50.85,123.23s.18,2.3,.03,3.05c-.08,.4-.52,1.23-.32,1.6,.2,.38,.43,.47,.43,.47l5.2,.08c.28,0,.1-.18-.13-.35-.37-.28-.68-.46-1.87-1.04-.08-.04-.36-.22-.46-.28-.26-.16-.52-.41-.74-.66-.37-.42-.41-2.44-.41-2.44l-1.73-.43Z"/>
          <path class="cls-6" d="M54.91,92.64s.65,3.74,.22,6.19c-.43,2.45-2.49,25.16-2.49,25.16l-2.29,.13s-.48-9.49-.39-10.81c.09-1.32,.77-3.53,.77-3.53l-.23-7.66,2.89-10.06,1.52,.58Z"/>
          <path class="cls-22" d="M48.17,91.85s-1.81,2.73-2.24,4.99c-.43,2.26,.32,9.21-.51,12.18-.45,1.6-2.14,4.08-2.4,6.15-.26,2.07-1.27,7.5-1.27,7.5l2.29,.46,5.33-13.56,4.18-12.26,1.07-6.31-6.45,.85Z"/>
          <path class="cls-26" d="M49.63,76.3s-2.39-.15-3.34,.88c-.95,1.04,2.1,9.24,2.27,10.56,.17,1.32-.88,4.83-.88,4.83,0,0,5.62,1.14,7.22,.07,0,0,.17-9.49,0-10.43-.17-.94-1.6-4.77-1.95-5.15-.34-.38-3.33-.75-3.33-.75Z"/>
          <path class="cls-4" d="M50.43,73.09s-.01,.07-.03,.19c-.11,.58-.52,2.5-.79,3.02-.34,.64,1.15,2.67,2.57,2.42,.42-.07-.36-1.87-.32-2.06,.07-.36,.17-.86,.27-1.37,.06-.29,.11-.58,.17-.85,.15-.78,.28-1.41,.28-1.41l-2.14,.05Z"/>
          <path class="cls-29" d="M50.39,73.28c.02-.12,.03-.19,.03-.19l2.14-.05s-.12,.64-.28,1.41c-.05,.27-.11,.56-.17,.85-.33-.05-.67-.21-1.02-.51-.38-.33-.62-.73-.77-1.16,.03-.14,.05-.25,.06-.34Z"/>
          <path class="cls-4" d="M51.87,68.2s-1.01-.12-1.64,.7-1.31,3.36,.26,4.74c1.57,1.38,3.12-.18,3.35-1.84,.23-1.66,.32-3.67-1.97-3.61Z"/>
          <path class="cls-4" d="M54.3,71.79c-.19,.37-.5,.57-.7,.45-.2-.12-.21-.51-.02-.87,.19-.37,.5-.57,.7-.45,.2,.12,.21,.51,.02,.87Z"/>
          <path class="cls-39" d="M51.98,67.93s-1.35,2.42-2.31,2.53c-.96,.11-1.09,1.4-1.09,1.4,0,0,.34-2.96,1.3-3.53,.95-.57,2.1-.39,2.1-.39Z"/>
          <path class="cls-9" d="M43.08,126.95c-1.25,.23-2.08-.51-2.51-1.06-.32,.62-.47,1.55-.24,2.06,.21,.45,.81,.44,1.28,.46,.5,.02,.89-.26,1.14-.7,.12-.2,.24-.46,.34-.77Z"/>
          <path class="cls-9" d="M53.73,126.77c-1.37,.35-2.39,.11-2.96-.12-.15,.42-.34,.94-.24,1.24,.13,.37,.31,.45,.46,.46,1.26,.03,4.6,.08,5.56,.09,.13,0,.21-.16,.12-.26-.24-.29-2.84-1.35-2.95-1.42Z"/>
          <path class="cls-4" d="M49.92,71.07c.08,.43-.08,.82-.35,.88-.27,.06-.56-.25-.64-.67s.08-.82,.35-.88c.27-.06,.56,.25,.64,.67Z"/>
          <path class="cls-27" d="M45.27,72.29s3.37,3.65,3.88,5.12c.5,1.47-.49,3.57-1.86,3.67s-4.41-6.48-4.41-6.48l2.39-2.31Z"/>
        </g>
        <g>
          <rect class="cls-27" x="102.18" y="62.33" width="46.78" height="65.66" rx="20.22" ry="20.22"/>
          <rect class="cls-20" x="106.39" y="67.73" width="38.8" height="10.02"/>
          <polygon class="cls-17" points="107.42 69.17 145.19 69.17 145.19 67.73 106.39 67.73 106.39 77.75 107.42 77.75 107.42 69.17"/>
          <path class="cls-29" d="M107.95,80.6h8.01c.86,0,1.56,.7,1.56,1.56v.49c0,.86-.7,1.56-1.56,1.56h-8.01c-.86,0-1.56-.7-1.56-1.56v-.49c0-.86,.7-1.56,1.56-1.56Z"/>
          <rect class="cls-29" x="120.22" y="80.6" width="11.13" height="3.61" rx="1.56" ry="1.56"/>
          <rect class="cls-29" x="134.06" y="80.6" width="11.13" height="3.61" rx="1.56" ry="1.56"/>
          <rect class="cls-29" x="106.39" y="87.07" width="8.61" height="8.09" rx="3.5" ry="3.5"/>
          <rect class="cls-26" x="116.45" y="87.07" width="8.61" height="8.09" rx="3.5" ry="3.5"/>
          <rect class="cls-26" x="126.51" y="87.07" width="8.61" height="8.09" rx="3.5" ry="3.5"/>
          <rect class="cls-29" x="106.39" y="97.04" width="8.61" height="8.09" rx="3.5" ry="3.5"/>
          <path class="cls-26" d="M119.95,97.04h1.62c1.93,0,3.5,1.57,3.5,3.5v1.1c0,1.93-1.57,3.5-3.5,3.5h-1.62c-1.93,0-3.5-1.57-3.5-3.5v-1.1c0-1.93,1.57-3.5,3.5-3.5Z"/>
          <path class="cls-26" d="M130.01,97.04h1.62c1.93,0,3.5,1.57,3.5,3.5v1.1c0,1.93-1.57,3.5-3.5,3.5h-1.62c-1.93,0-3.5-1.57-3.5-3.5v-1.1c0-1.93,1.57-3.5,3.5-3.5Z"/>
          <path class="cls-26" d="M143.43,87.07h-5.1c-.97,0-1.76,.79-1.76,1.76v14.54c0,.97,.79,1.76,1.76,1.76h5.1c.97,0,1.76-.79,1.76-1.76v-14.54c0-.97-.79-1.76-1.76-1.76Z"/>
          <rect class="cls-29" x="106.39" y="107.02" width="8.61" height="8.09" rx="3.5" ry="3.5"/>
          <path class="cls-26" d="M119.95,107.02h1.62c1.93,0,3.5,1.57,3.5,3.5v1.1c0,1.93-1.57,3.5-3.5,3.5h-1.62c-1.93,0-3.5-1.57-3.5-3.5v-1.1c0-1.93,1.57-3.5,3.5-3.5Z"/>
          <path class="cls-26" d="M130.01,107.02h1.62c1.93,0,3.5,1.57,3.5,3.5v1.1c0,1.93-1.57,3.5-3.5,3.5h-1.62c-1.93,0-3.5-1.57-3.5-3.5v-1.1c0-1.93,1.57-3.5,3.5-3.5Z"/>
          <rect class="cls-26" x="136.57" y="107.02" width="8.61" height="8.09" rx="3.5" ry="3.5"/>
          <rect class="cls-29" x="106.39" y="116.99" width="8.61" height="8.09" rx="3.5" ry="3.5"/>
          <rect class="cls-26" x="116.45" y="116.99" width="8.61" height="8.09" rx="3.5" ry="3.5"/>
          <rect class="cls-26" x="126.51" y="116.99" width="8.61" height="8.09" rx="3.5" ry="3.5"/>
          <rect class="cls-33" x="136.57" y="116.99" width="8.61" height="8.09" rx="3.5" ry="3.5"/>
          <path class="cls-5" d="M112.17,108.94v.41l-1.99,4.17h-.64l1.98-4.05h0s-2.23-.01-2.23-.01v-.51h2.88Z"/>
          <path class="cls-5" d="M119.25,112.36c0-.58,.34-.99,.91-1.23v-.02c-.51-.24-.73-.63-.73-1.03,0-.73,.61-1.22,1.41-1.22,.89,0,1.33,.56,1.33,1.13,0,.39-.19,.8-.75,1.07v.02c.57,.23,.92,.63,.92,1.18,0,.8-.68,1.33-1.55,1.33-.96,0-1.53-.57-1.53-1.24Zm2.46-.03c0-.56-.39-.83-1-1-.53,.16-.82,.51-.82,.94-.02,.47,.33,.87,.91,.87s.91-.35,.91-.82Zm-1.7-2.29c0,.46,.34,.71,.87,.85,.39-.13,.7-.42,.7-.83,0-.37-.22-.75-.77-.75-.51,0-.79,.34-.79,.73Z"/>
          <path class="cls-5" d="M122.34,121.03c0,1.56-.58,2.42-1.59,2.42-.89,0-1.5-.84-1.51-2.36,0-1.54,.66-2.38,1.59-2.38s1.51,.86,1.51,2.32Zm-2.48,.07c0,1.19,.37,1.87,.93,1.87,.63,0,.93-.74,.93-1.91s-.29-1.87-.93-1.87c-.54,0-.93,.66-.93,1.91Z"/>
          <path class="cls-5" d="M129.87,113.08c.13,.01,.29,0,.5-.02,.36-.05,.7-.2,.96-.44,.3-.27,.52-.68,.6-1.22h-.02c-.25,.31-.62,.49-1.08,.49-.82,0-1.35-.62-1.35-1.4,0-.87,.63-1.63,1.56-1.63s1.51,.76,1.51,1.93c0,1.01-.34,1.71-.79,2.15-.35,.35-.84,.56-1.33,.61-.22,.04-.42,.04-.57,.04v-.51Zm.22-2.64c0,.57,.34,.97,.88,.97,.41,0,.74-.2,.9-.48,.04-.06,.06-.13,.06-.23,0-.78-.29-1.38-.93-1.38-.53,0-.9,.47-.9,1.11Z"/>
          <path class="cls-5" d="M111.12,103.35v-1.25h-2.12v-.41l2.04-2.93h.67v2.85h.64v.49h-.64v1.25h-.58Zm0-1.73v-1.53c0-.24,0-.48,.02-.72h-.02c-.14,.27-.25,.47-.38,.68l-1.12,1.56h0s1.5,.01,1.5,.01Z"/>
          <path class="cls-5" d="M122.03,99.29h-1.74l-.18,1.18c.11-.01,.2-.03,.37-.03,.35,0,.7,.08,.98,.25,.36,.2,.65,.6,.65,1.18,0,.9-.71,1.57-1.7,1.57-.5,0-.92-.14-1.14-.28l.15-.47c.19,.11,.56,.25,.98,.25,.58,0,1.08-.38,1.08-.99,0-.59-.4-1.02-1.31-1.02-.26,0-.46,.03-.63,.05l.3-2.2h2.19v.52Z"/>
          <path class="cls-5" d="M132.12,99.2c-.13,0-.29,0-.46,.03-.97,.16-1.48,.87-1.59,1.63h.02c.22-.29,.6-.53,1.1-.53,.81,0,1.38,.59,1.38,1.48,0,.84-.57,1.61-1.52,1.61s-1.62-.76-1.62-1.95c0-.9,.32-1.61,.77-2.07,.38-.37,.89-.61,1.46-.68,.18-.03,.34-.04,.45-.04v.51Zm-.18,2.64c0-.66-.37-1.05-.94-1.05-.37,0-.72,.23-.89,.56-.04,.07-.07,.16-.07,.28,.01,.75,.36,1.31,1.01,1.31,.53,0,.89-.44,.89-1.1Z"/>
          <path class="cls-5" d="M110.55,89.6h-.01l-.79,.43-.12-.47,1-.54h.53v4.58h-.6v-4.01Z"/>
          <path class="cls-5" d="M119.31,93.61v-.38l.48-.47c1.17-1.11,1.69-1.71,1.7-2.4,0-.47-.22-.9-.91-.9-.41,0-.76,.21-.97,.39l-.2-.44c.32-.27,.77-.47,1.29-.47,.98,0,1.4,.68,1.4,1.33,0,.85-.61,1.53-1.57,2.46l-.37,.34h0s2.05,.01,2.05,.01v.51h-2.92Z"/>
          <path class="cls-5" d="M129.66,92.89c.18,.11,.58,.29,1.01,.29,.79,0,1.04-.51,1.03-.89,0-.64-.58-.92-1.18-.92h-.34v-.47h.34c.45,0,1.02-.23,1.02-.78,0-.37-.23-.69-.8-.69-.37,0-.72,.16-.91,.3l-.16-.45c.24-.18,.7-.35,1.19-.35,.9,0,1.31,.54,1.31,1.09,0,.47-.28,.87-.84,1.08h0c.56,.13,1.02,.55,1.02,1.19,0,.73-.57,1.38-1.67,1.38-.51,0-.96-.16-1.19-.31l.17-.48Z"/>
          <circle class="cls-5" cx="110.7" cy="122.77" r=".55"/>
          <polygon class="cls-5" points="144.15 96.39 141.25 96.39 141.25 93.48 140.51 93.48 140.51 96.39 137.61 96.39 137.61 97.14 140.51 97.14 140.51 100.05 141.25 100.05 141.25 97.14 144.15 97.14 144.15 96.39"/>
          <polygon class="cls-5" points="132.75 122.76 131.21 121.22 132.75 119.68 132.35 119.28 130.82 120.82 129.28 119.28 128.89 119.68 130.42 121.22 128.89 122.76 129.28 123.15 130.82 121.61 132.35 123.15 132.75 122.76"/>
          <rect class="cls-5" x="138.27" y="110.9" width="4.86" height=".75"/>
          <rect class="cls-5" x="138.45" y="119.53" width="4.86" height=".75"/>
          <rect class="cls-5" x="138.45" y="121.41" width="4.86" height=".75"/>
        </g>
        <path class="cls-29" d="M112.75,26.07h0s0,0-.01,0c-.12-.04-.24-.08-.36-.12-.04-.01-.08-.02-.13-.04-.04-.01-.09-.02-.13-.03-.05-.01-.09-.02-.14-.03-.04,0-.09-.02-.13-.03-.05,0-.1-.02-.15-.03-.04,0-.08-.01-.13-.02-.05,0-.11-.01-.16-.02-.04,0-.08,0-.12-.01-.06,0-.12-.01-.18-.01-.03,0-.06,0-.1,0-.1,0-.19,0-.29,0h-44.07c-.1,0-.2,0-.31,0-.2,.01-.4,.03-.6,.06-.1,.02-.2,.03-.29,.05-2.51,.52-4.45,2.63-4.71,5.23-.02,.2-.03,.4-.03,.61V122.04c0,2.58,1.63,4.78,3.92,5.61h0s.02,0,.03,.01c.11,.04,.23,.08,.34,.11,.04,.01,.08,.02,.13,.04,.04,.01,.09,.02,.13,.03,.05,.01,.09,.02,.14,.03,.04,0,.09,.02,.13,.03,.05,0,.1,.02,.15,.03,.04,0,.08,.01,.13,.02,.05,0,.11,.01,.16,.02,.04,0,.08,0,.12,.01,.06,0,.12,.01,.18,.01,.03,0,.06,0,.1,0,.09,0,.19,0,.29,0h44.07c.21,0,.41-.01,.61-.03,2.8-.29,5.02-2.52,5.3-5.32,.02-.2,.03-.4,.03-.61V31.68c0-2.58-1.63-4.78-3.92-5.61Z"/>
        <rect class="cls-38" x="63.6" y="33.84" width="50.19" height="86.04"/>
        <rect class="cls-5" x="77.99" y="30.06" width="21.48" height="1.08" rx=".47" ry=".47"/>
        <ellipse class="cls-24" cx="88.66" cy="124.02" rx="2.46" ry="2.47"/>
        <rect class="cls-21" x="63.6" y="116.27" width="50.19" height="3.61"/>
        <rect class="cls-21" x="63.6" y="33.84" width="50.19" height="4.57"/>
        <g>
          <path class="cls-19" d="M73.72,35.94H30.13c-1.51,0-2.73,1.22-2.73,2.74v18.05c0,1.51,1.22,2.74,2.73,2.74h34.32c1.39,1.94,3.91,5.43,4.13,5.43,.21,0-.19-3.29-.47-5.43h5.62c1.51,0,2.73-1.22,2.73-2.74v-18.05c0-1.51-1.22-2.74-2.73-2.74Z"/>
          <path class="cls-1" d="M71.92,31.26H28.33c-1.51,0-2.73,1.22-2.73,2.74v18.05c0,1.51,1.22,2.74,2.73,2.74H62.65c1.39,1.94,3.91,5.43,4.13,5.43,.21,0-.19-3.29-.47-5.43h5.62c1.51,0,2.73-1.22,2.73-2.74v-18.05c0-1.51-1.22-2.74-2.73-2.74Z"/>
          <rect class="cls-5" x="30.11" y="37.12" width="21.49" height="1.19" rx=".52" ry=".52"/>
          <rect class="cls-5" x="30.11" y="40.26" width="9.26" height="1.19" rx=".52" ry=".52"/>
          <rect class="cls-5" x="40.41" y="40.26" width="28.81" height="1.19" rx=".51" ry=".51"/>
          <rect class="cls-5" x="53.8" y="37.12" width="15.51" height="1.19" rx=".52" ry=".52"/>
          <rect class="cls-5" x="30.11" y="46.42" width="39.2" height="1.19" rx=".51" ry=".51"/>
          <rect class="cls-5" x="30.11" y="43.4" width="20.25" height="1.19" rx=".52" ry=".52"/>
          <rect class="cls-5" x="51.54" y="43.4" width="17.77" height="1.19" rx=".52" ry=".52"/>
        </g>
        <rect class="cls-5" x="107.62" y="25.05" width="13.4" height="1.06" rx=".46" ry=".46" transform="translate(228.64 51.17) rotate(-180)"/>
        <path class="cls-19" d="M103.69,22.06h38.94c1.35,0,2.44,1.09,2.44,2.44v16.12c0,1.35-1.09,2.44-2.44,2.44h-30.66c-1.24,1.74-3.49,4.85-3.69,4.85-.19,0,.17-2.94,.42-4.85h-5.02c-1.35,0-2.44-1.09-2.44-2.44V24.5c0-1.35,1.09-2.44,2.44-2.44Z"/>
        <path class="cls-1" d="M105.29,17.87h38.94c1.35,0,2.44,1.09,2.44,2.44v16.12c0,1.35-1.09,2.44-2.44,2.44h-30.66c-1.24,1.74-3.49,4.85-3.69,4.85-.19,0,.17-2.94,.42-4.85h-5.02c-1.35,0-2.44-1.09-2.44-2.44V20.32c0-1.35,1.09-2.44,2.44-2.44Z"/>
        <rect class="cls-5" x="129.77" y="23.1" width="11.9" height="1.06" rx=".46" ry=".46" transform="translate(271.44 47.27) rotate(-180)"/>
        <rect class="cls-5" x="133.63" y="26.58" width="8.04" height="1.06" rx=".46" ry=".46" transform="translate(275.3 54.22) rotate(180)"/>
        <rect class="cls-5" x="122.76" y="26.58" width="9.9" height="1.06" rx=".46" ry=".46" transform="translate(255.42 54.22) rotate(180)"/>
        <rect class="cls-5" x="107.68" y="26.58" width="13.83" height="1.06" rx=".46" ry=".46" transform="translate(229.19 54.22) rotate(180)"/>
        <rect class="cls-5" x="107.62" y="23.1" width="19.97" height="1.06" rx=".46" ry=".46" transform="translate(235.21 47.27) rotate(180)"/>
        <rect class="cls-5" x="107.62" y="33.39" width="34.05" height="1.06" rx=".46" ry=".46" transform="translate(249.29 67.84) rotate(180)"/>
        <rect class="cls-5" x="124.08" y="30.02" width="17.59" height="1.06" rx=".46" ry=".46" transform="translate(265.75 61.11) rotate(180)"/>
        <rect class="cls-5" x="107.62" y="30.02" width="15.59" height="1.06" rx=".46" ry=".46" transform="translate(230.83 61.11) rotate(-180)"/>
        <g>
          <path class="cls-27" d="M76.15,66.46s-9.73,1.4-8.24,10.79c1.39,8.75,9.73,6.98,11.87,6.54,2.14-.44-3.63-17.33-3.63-17.33Z"/>
          <path class="cls-8" d="M79.78,83.79c1-.2,.28-3.98-.77-7.95-3.58,.7-7.57,1.49-10.96,2.15,1.73,7.91,9.65,6.22,11.73,5.79Z"/>
          <path class="cls-15" d="M81.75,85.41s2.14,7.63,1.57,13.56c-.52,5.53,.26,6.45,2.32,6.27,2.05-.18,7.04-1.4,7.13-3.38,.09-1.97-.83-12.11-4.28-17.55-3.45-5.44-6.73,1.1-6.73,1.1Z"/>
          <path class="cls-14" d="M85.07,82.23c-1.37,.92-3.32,3.18-3.32,3.18,0,0,2.14,7.63,1.57,13.56-.52,5.53,.26,6.45,2.32,6.27,.75-.06,1.9-.27,3.06-.6,.82-13.59-2.68-20.87-3.63-22.41Z"/>
          <path class="cls-15" d="M105.62,47.97s-16.13,11.75-21.35,15.3l-3.05,4.54,2.16,13.23,5.21,2.57,25.48,5.03-.59-2.86-4.62-12.83-2.36-14.61-.69-8.98-.2-1.38Z"/>
          <polygon class="cls-14" points="108.87 72.94 108.25 69.11 82.47 75.39 83.39 81.03 88.6 83.6 114.08 88.63 113.49 85.77 108.87 72.94"/>
          <path class="cls-25" d="M84.27,63.27s-2.13,11.22,4.33,20.33c0,0,.36,.84-.43,1.37l-4.81,1.23s-2.23,.79-4.11-2.41c-1.88-3.2-5.2-10.4-3.24-18.34,0,0,.48-2.15,3.1-2.54l3.5-.66s1.55-.24,1.65,1.02Z"/>
          <path class="cls-28" d="M105.62,47.97s4.2-3.09,6.62-3.03c2.43,.07,4.85,3.29,6.43,5.92,1.57,2.63,5.71,12.96,6.1,19.94s.33,16.91-3.08,18.1c-3.41,1.18-7.61-.26-7.61-.26,0,0-5.51-4.74-8.72-19.48-3.21-14.74,.26-21.19,.26-21.19Z"/>
          <path class="cls-25" d="M119.27,89.29s3.92-5.1,1.92-18.87c-3.15-21.68-11.08-24.96-11.08-24.96,0,0-5.87,4.48-.26,25.43,4.62,17.26,9.42,18.4,9.42,18.4Z"/>
          <path class="cls-27" d="M107.97,62.08c.38,2.55,.98,5.47,1.88,8.82,.45,1.67,.9,3.19,1.34,4.58,2.44-.85,6.39-2.97,4.7-8.36-1.56-4.99-5.63-5.3-7.92-5.03Z"/>
          <path class="cls-8" d="M109.85,70.89c.45,1.67,.9,3.19,1.34,4.58,2.41-.84,6.28-2.91,4.77-8.14l-6.63,1.53c.16,.66,.33,1.33,.52,2.03Z"/>
          <path class="cls-18" d="M88.6,83.6c-2.02-2.86-3.21-5.92-3.87-8.78l-8.52,1.61c.82,3.17,2.11,5.76,3.05,7.35,1.88,3.2,4.11,2.41,4.11,2.41l4.81-1.23c.79-.53,.43-1.37,.43-1.37Z"/>
        </g>
        <g>
          <g>
            <path class="cls-34" d="M170.82,38.54l-.04,4.23,2.68-2.52,8.44-5.73-6.89,1.5s-3.44,1.3-3.61,1.5c-.17,.2-.58,1.02-.58,1.02Z"/>
            <polygon class="cls-29" points="167.43 36.41 181.9 34.51 170.82 38.54 167.43 36.41"/>
            <polygon class="cls-29" points="175.99 42.15 171.82 39.56 181.9 34.51 175.99 42.15"/>
          </g>
          <g>
            <path class="cls-13" d="M152.47,55.98c0-.34,.03-.68,.07-1.02,.04-.31,.09-.63,.16-.94l.34,.07c-.07,.3-.12,.6-.15,.9-.04,.33-.06,.66-.06,.98,0,.1,0,.19,0,.29h-.34c0-.09,0-.19,0-.29Zm.94-4.09c.3-.66,.67-1.32,1.11-1.96l.28,.19c-.42,.62-.79,1.27-1.08,1.91l-.31-.14Zm10.73-2.02s-.04-.02-.06-.03l.15-.31s.04,.02,.05,.03c0,0,.01,0,.04,0,.19,.02,.68-.04,.93-.24,.21-.17,.37-.4,.47-.7l.32,.11c-.12,.36-.33,.65-.59,.86-.35,.27-.95,.33-1.18,.31-.06,0-.1-.02-.14-.04Zm-8.23-1.7c.5-.54,1.04-1.06,1.62-1.55l.22,.26c-.57,.48-1.1,.99-1.59,1.52l-.25-.23Zm6.54-.8c-.04-.33-.04-.67,0-1.02,.02-.19,.06-.38,.1-.57l.33,.08c-.04,.18-.08,.36-.1,.53-.04,.32-.04,.64,0,.94,.03,.21,.08,.43,.15,.63l-.33,.11c-.08-.23-.13-.46-.16-.7Zm1.42-1.95l-.05-.02,.11-.33,.05,.02c.75,.26,1.4,.75,1.79,1.36l-.29,.19c-.35-.55-.93-.99-1.61-1.22Zm-4.38,.07c.36-.16,1.03-.45,1.39-.51,.28-.05,.54-.08,.79-.11l.03,.34c-.24,.02-.49,.06-.76,.1-.24,.04-.71,.22-1.31,.48l-.14-.32Zm3.99-1.79c.42-.63,.93-1.2,1.51-1.69l.22,.27c-.56,.47-1.05,1.01-1.44,1.61l-.29-.19Z"/>
            <path class="cls-13" d="M167.07,41.16c.35-.14,.7-.26,1.05-.34l-.08-.34c-.37,.08-.74,.2-1.11,.35l.13,.32Z"/>
          </g>
        </g>
        <polygon class="cls-39" points="77.88 128.05 78.59 127.91 75.53 111.64 74.82 111.78 77.88 128.05"/>
        <polygon class="cls-39" points="70 128.12 69.15 128.12 72.32 111.64 73.02 111.78 70 128.12"/>
        <polygon class="cls-39" points="62.17 128.12 62.86 128.13 59.82 111.72 59.12 111.85 62.17 128.12"/>
        <path class="cls-26" d="M65.26,89.46c-2.8,.3-6.43,.62-10.06,6.81-3.98,6.77-1.88,16.89,1.26,19.7,3.14,2.81,13.39,6.28,22.01,1.09,0,0,5.2-3.15,2.53-8.38-4.11-8.04-3.53-9.72-5.37-12.87-1.84-3.15-4.42-6.99-10.37-6.35Z"/>
        <path class="cls-27" d="M55.19,96.27c2.48-4.23,4.96-5.72,7.17-6.34-.86,.89-1.72,2.03-2.59,3.51-3.98,6.77-1.88,16.89,1.26,19.7,2.78,2.49,11.16,5.5,19.03,2.53-.81,.9-1.6,1.38-1.6,1.38-8.62,5.2-18.87,1.73-22.01-1.09-3.14-2.81-5.23-12.93-1.26-19.7Z"/>
        <polygon class="cls-32" points="74.25 99.75 74.97 101.92 72.78 101.05 74.25 99.75"/>
        <path class="cls-34" d="M71.99,93.3c.15,0,.55,.14,1.13,1.25,.75,1.41,1.84,5.69,1.84,5.69l-3.27,1.22-.42-.89-.69-6.87s1.36-.39,1.4-.39Z"/>
        <path class="cls-29" d="M67.67,92.69c.93,0,3.24,.27,4.32,.62,0,0,.79,6.77-.71,11.92-.34,1.15,.28,4.77,.28,4.77l-9.68-.13s1.15-8.76,.71-10.17c-.43-1.41-.44-6.34-.44-6.34,0,0,.07-.01,2.17-.37,.98-.17,2.35-.29,3.35-.29Z"/>
        <path class="cls-4" d="M66.55,122.56s.21,2.47,.61,3.15c.39,.68-.02,1.85-.04,2.01-.02,.16-.83,.39-2.11,.25-1.28-.14-1.26-.43-1.16-.91,.1-.48,.79-1.09,.83-1.55,.04-.46-.39-2.1-.39-2.1l2.27-.85Z"/>
        <path class="cls-28" d="M70.47,107.95s6.68-.37,8.17,.53c1.49,.9-.27,2.76-.27,2.76,0,0-5.44,2.36-14.54,2.89-2.16,.12-2.34-5.62-1.94-6.1,.4-.48,8.58-.08,8.58-.08Z"/>
        <path class="cls-36" d="M64.84,128.16c-1.32-.14-1.16-.79-1.05-1.28,.07-.31,.45-.67,.67-1.02,.12,.09,.31,.26,.88,.43,.6,.18,1.41-.17,1.93-.39,.19,.69,.19,1.57,.18,1.71-.02,.16-1.29,.7-2.62,.56Z"/>
        <path class="cls-25" d="M65.57,112.73c.27,2.02,1.59,12.07,1.59,12.07l-3.07,.38s-3.77-13.12-3.58-15.13c.19-2.01,1.6-2.18,1.6-2.18,0,0,2.74-.49,3.45,4.85Z"/>
        <path class="cls-4" d="M62.05,94.1c.9-.34,1.35,7.81,1.47,11.17,1.6,.15,4.39,0,5.09-.05,.33-.02,1.08-.3,1.41-.34,.33-.04,.64-.07,.8-.04,.06,.01,1.73,.69,1.87,.84,.18,.19,.66,.65,.58,.86-.08,.2-.92-.56-.92-.56l-.41-.23c.51,.5,1.49,1.16,1.35,1.4-.14,.23-1.02-.43-1.64-.89,.54,.49,1.21,1.35,1.05,1.49-.14,.12-.9-.88-1.71-1.17-.3-.11-.6,.19-.84,.23-.17,.03-.44,.08-.61,.03l-.88-.25c-.3,.03-.31,.2-.61,.27-.35,.07-.93,.15-1.37,.26-2.57,.63-3.43,.92-4.22,.92-2.39,0-2.53-13.12-.39-13.93Z"/>
        <path class="cls-34" d="M60.33,101.75c-.17-3.44-.14-7.67,1.78-8.4,.76-.29,2.1,1.43,1.86,8.46-1.03,.08-2.54,.15-3.64-.07Z"/>
        <polygon class="cls-32" points="71.11 100.28 70.91 100.28 67.96 107.53 68.17 107.5 71.11 100.28"/>
        <path class="cls-4" d="M75.51,124.67s-.27,.86,.21,1.42c.48,.57,2.47,1.12,2.73,1.43,.26,.31,.24,.57,.24,.57l-5.59-.15,.06-1.69,.26-1.21,2.08-.37Z"/>
        <path class="cls-36" d="M76.07,126.38s-1.44,.58-2.13,.24c-.69-.34-.67-.44-.87-.31-.2,.13-.27,1.71-.27,1.71l6.28,.18c.44-.01,.66-.33,.3-.61-.24-.19-.52-.32-.68-.41-.49-.28-2.63-.81-2.63-.81Z"/>
        <path class="cls-25" d="M75.3,109.54c.43-.91,1.41-2.09,3.14-1.38,1.65,.68,2.09,2.35,1.57,4.06-.52,1.71-3.94,11.76-4.06,13.15l-2.73,.02s.5-7.96,.62-9.88c.12-1.85,.72-4.39,1.46-5.96Z"/>
        <path d="M79.74,100.28h-9.14c-.24,0-.46,.15-.55,.37l-2.81,6.88h-5.04c-.14,0-.25,.11-.25,.26h0c0,.14,.11,.26,.25,.26h14.33c.39,0,.75-.23,.91-.59l2.83-6.33c.18-.4-.11-.84-.54-.84Z"/>
        <path class="cls-5" d="M74.82,104.28c-.06,.31-.33,.52-.6,.46-.27-.05-.44-.35-.38-.66,.06-.31,.33-.52,.6-.46,.27,.05,.44,.35,.38,.66Z"/>
        <g>
          <path class="cls-39" d="M69.84,84.42c-.28-.09-.55-.2-.81-.32-.3-.14-.68-.31-.92-.35-.51-.08-1.39-.03-1.87,.5-.6,.65-1.67,.12-1.46,3.54,.24,3.88,2.4,3.45,2.45,3.38,.05-.07,1.92-2.48,1.92-2.48,0,0,.65,1.43,.65,1.38s3.34-4.54,.03-5.65Z"/>
          <path class="cls-4" d="M68.21,91.46l.19,1.38s.42,1.99-.12,2.38c-.54,.38-2.28-2.44-2.28-2.44l.18-3.51,2.03,2.18Z"/>
          <path class="cls-29" d="M66.12,90.41c.44,1.2,1.5,1.93,2.25,2.22l-.16-1.17-2.03-2.18-.06,1.14Z"/>
          <path class="cls-4" d="M68.1,85.46c1.14-.18,2.15,.73,2.13,1.87-.01,.49-.05,1.11-.16,1.78-.25,1.6-1.34,3.01-2.06,2.88-.72-.13-2.54-1.5-2.22-3.78,.2-1.4,1.11-2.55,2.3-2.74Z"/>
          <path class="cls-4" d="M66.3,88.47c-.06,.35-.34,.6-.63,.55-.29-.05-.47-.38-.41-.73,.06-.35,.34-.6,.63-.55,.29,.05,.47,.38,.41,.73Z"/>
          <path class="cls-39" d="M65.89,87.75s.87,.22,1.2-.34c.32-.56,1.48-1.77,2.95-1.27,1.47,.5-1.29-1.22-1.41-1.22s-1.53,0-1.53,0c0,0-1.09,.9-1.13,.99-.04,.1-.35,1.17-.35,1.17l.28,.68Z"/>
        </g>
        <path class="cls-5" d="M67.48,90.09l1.59,.3s-.15,.6-.85,.48c-.86-.14-.73-.79-.73-.79Z"/>
        <path class="cls-5" d="M51.09,72.41l1.59,.3s-.15,.6-.85,.48c-.86-.14-.73-.79-.73-.79Z"/>
        <path class="cls-25" d="M179.55,121.1c-1.38,.13-2.75,.38-4.1,.73-2.45,.64-4.81,1.6-7.13,2.61-1.14,.5-2.29,.99-3.41,1.53-.52,.25-1.05,.51-1.53,.84-.65,.44-1.66,1.32-1.79,1.46l.53,.02c.36-.3,1.7-1.43,3.56-2.32,4.4-2.12,8.97-4.29,13.87-4.83,.03,0,.02-.04,0-.04Z"/>
      </g>
      <g>
        <g>
          <path class="cls-31" d="M153,111.61h5.29c1.69,0,3.07,1.38,3.07,3.07v10.59c0,1.69-1.38,3.07-3.07,3.07h-5.29c-4.62,0-8.36-3.75-8.36-8.36h0c0-4.62,3.75-8.36,8.36-8.36Z"/>
          <g class="cls-23">
            <path d="M153,111.61h5.29c1.69,0,3.07,1.38,3.07,3.07v10.59c0,1.69-1.38,3.07-3.07,3.07h-5.29c-4.62,0-8.36-3.75-8.36-8.36h0c0-4.62,3.75-8.36,8.36-8.36Z"/>
          </g>
          <rect class="cls-31" x="141.64" y="111.61" width="15.85" height="16.73" rx="4.05" ry="4.05"/>
        </g>
        <g>
          <g>
            <path class="cls-12" d="M139.67,91.44s-1.77-1.54-2.24-1.8c-.47-.26-1.28-.11-2-.22-.71-.11-1.73-.59-1.99-.45-.31,.17,.01,.86,1.11,1.29l-.32-.03-.78,.06s-.29-.42-.53-.42c-.35,0-.34,.29-.34,.29,0,0-.53-.63-.71,.05,0,0-.63-.24-.67,.24,0,0-.14,.38,1.2,.48,0,0,1.14,1.07,1.42,1.18,.28,.11,1.25-.04,1.25-.04,0,0,.28,.41,.58,.42,.57,.03,2.02-.07,2.02-.07l.57,.68,1.43-1.67Z"/>
            <path class="cls-30" d="M135.1,92.09s-.05-.08-.14-.23c-.09-.14-.23-.35-.27-.65-.04-.29,.09-.64,.34-.95,.06-.08,.13-.15,.2-.23,.07-.08,.14-.16,.22-.22,.08-.06,.17-.07,.24,0,.07,.06,.1,.17,.09,.27-.01,.3-.17,.57-.39,.73l-.05,.04,.05,.04c.15,.13,.27,.27,.37,.41l.03,.04,.04-.02c.46-.31,.91-.45,1.23-.52,.32-.07,.51-.07,.51-.08,0,0-.05,0-.14,0-.09,0-.22,0-.39,.03-.33,.05-.8,.18-1.27,.49h.06c-.1-.14-.23-.29-.38-.42v.08c.24-.18,.41-.48,.43-.81,0-.12-.03-.26-.13-.35-.05-.04-.12-.07-.19-.07-.07,0-.13,.03-.18,.07-.1,.07-.16,.16-.23,.23-.07,.08-.14,.16-.2,.24-.25,.32-.39,.7-.34,1.01,.05,.31,.21,.52,.31,.66,.1,.14,.16,.21,.17,.2Z"/>
            <path class="cls-30" d="M133.35,90.2s.22,.34,.53,.71c.08,.09,.15,.18,.23,.26,.08,.08,.19,.12,.27,.13,.09,.01,.16-.01,.2-.02,.04-.01,.07-.03,.06-.03,0,0-.03,0-.07,0-.04,0-.11,0-.18,0-.07-.02-.15-.06-.22-.13-.07-.07-.14-.17-.22-.26-.32-.37-.59-.66-.61-.65Z"/>
            <path class="cls-30" d="M133.88,91.97s-.33-.4-.7-.91c-.37-.51-.61-.97-.64-.96-.02,.01,.18,.49,.56,1.01,.37,.52,.76,.88,.78,.86Z"/>
            <path class="cls-30" d="M132.77,91.28s-.2-.26-.45-.56c-.26-.31-.46-.56-.49-.54-.02,.02,.15,.29,.41,.6,.26,.31,.51,.52,.53,.5Z"/>
            <path class="cls-30" d="M134.87,90.31s-.16-.06-.36-.07c-.2-.01-.37,0-.37,.03,0,.03,.16,.06,.36,.07,.2,.01,.37,0,.37-.03Z"/>
          </g>
          <path class="cls-7" d="M149.8,86.72s-1.88-.14-2.97,2.05c-.72,1.45-2.92,5.36-2.92,5.36l-4.32-3.63-2.53,2.74s4.32,5.15,6,5.54,3.66-.75,4.28-1.63c.62-.88,2.68-3.02,2.68-3.02l-.22-7.41Z"/>
        </g>
        <g>
          <path class="cls-37" d="M150.32,91.36l.3-4.85c0-3.77-.38-8.13,.08-9.36,.85-2.28,3.91-2.76,3.91-2.76,4.12-.42,4.96,2.73,5.46,5.61,.09,.49,.32,1.35,.62,2.35,.68,2.08,1.51,4.21,3.08,5.59,.6,.53,1.01,1.28,1.17,2.06,.16,.78-.23,1.74-1.02,1.9,.41,.37,.64,.94,.6,1.49-.04,.55-.35,1.08-.81,1.39-.65,.44-1.49,.41-2.27,.35-.77-.07-1.59-.17-2.21-.64-.62-.47-.96-1.22-1.22-1.95-.31-.88-.55-1.79-.72-2.72l-6.98,1.53Z"/>
          <path class="cls-12" d="M154.46,75.45l.29-.2,2.59,1.54c.4,.08,.66,.46,.61,.86l-1.71,8.93c-.09,.61,0,1.19-.45,1.62l-3.04,2.85c-1.07,1.03-.59-1.53-1.09-2.92-.04-.1,.23-.4,.22-.47,0-.08-.02-.14-.01-.21,.03-.74,.12-1.37,.12-1.37,.07-.8,.11-1.13,.11-1.12,0,0-1.66-.46-1.78-2.7-.06-1.12,.21-2.6,.5-4.05,.4-2.01,1.99-3.02,3.62-2.76Z"/>
          <path class="cls-37" d="M153.82,80.11c-.02,.15,.09,.29,.24,.31,.15,.02,.3-.08,.32-.22,.02-.15-.09-.29-.24-.31-.16-.02-.3,.08-.32,.23Z"/>
          <path class="cls-37" d="M151.06,79.67c-.02,.15,.09,.29,.24,.31,.15,.02,.3-.08,.32-.22,.02-.15-.09-.29-.24-.31-.16-.02-.3,.08-.32,.23Z"/>
          <path class="cls-37" d="M151.03,78.94s.26-.1,.57-.06c.3,.03,.51,.21,.55,.17,.02-.01-.01-.09-.1-.17-.09-.08-.24-.17-.43-.18-.19-.02-.36,.03-.46,.1-.1,.06-.14,.13-.12,.14Z"/>
          <path class="cls-37" d="M153.97,79.34s.25-.12,.56-.12c.31,0,.53,.15,.56,.12,.02-.02-.02-.08-.12-.15-.1-.07-.26-.14-.45-.14-.19,0-.35,.07-.44,.14-.09,.07-.13,.14-.11,.16Z"/>
          <path class="cls-37" d="M152.71,81.38s-.18-.07-.49-.14c-.08-.02-.15-.04-.16-.09-.01-.06,.03-.14,.08-.23,.09-.18,.19-.37,.29-.57,.41-.81,.71-1.48,.68-1.5-.03-.02-.39,.63-.8,1.44-.1,.2-.19,.39-.28,.57-.04,.09-.1,.18-.07,.3,.01,.06,.07,.11,.12,.13,.05,.02,.09,.03,.13,.03,.31,.05,.5,.07,.5,.05Z"/>
          <path class="cls-30" d="M152.12,84.96s1.47,.25,3.04-.48c0,0-.9,1.45-3.09,1.02l.05-.53Z"/>
          <path class="cls-37" d="M154.01,78.1c.03,.08,.33,.05,.69,.11,.36,.05,.65,.16,.7,.09,.02-.04-.03-.11-.14-.2-.11-.08-.3-.17-.51-.2-.21-.03-.41,0-.55,.05-.13,.05-.2,.11-.19,.15Z"/>
          <path class="cls-37" d="M151.22,77.72c.05,.08,.1,.06,.39,.13,.29,.06,.74,.19,.81,.14,.03-.03,.01-.11-.08-.2-.09-.09-.26-.19-.46-.23-.2-.04-.39-.03-.51,.02-.12,.04-.17,.1-.15,.14Z"/>
          <path class="cls-37" d="M157.31,81.48s-1.36,.25-2.61-3.52c-.42-1.27-.44-2.8-.44-2.8l.51-.07s2.92,1.33,2.96,1.38c.05,.05,.53,1.7,.53,1.7l-.95,3.31Z"/>
          <path class="cls-12" d="M156.95,81.28c.02-.16,.25-.53,.41-.54,.44-.02,1.22,.09,1.11,1.19-.15,1.51-1.63,1.05-1.63,1.01,0-.03,.04-1.09,.1-1.66Z"/>
          <path class="cls-30" d="M157.36,82.41s.02,.02,.07,.05c.04,.02,.11,.04,.2,.02,.16-.04,.32-.28,.36-.55,.02-.14,0-.27-.04-.38-.04-.11-.1-.2-.18-.22-.08-.03-.14,.02-.16,.06-.02,.04-.02,.07-.03,.07,0,0-.03-.03-.01-.09,0-.03,.03-.06,.07-.09,.04-.03,.09-.04,.15-.02,.12,.02,.21,.14,.25,.26,.05,.12,.07,.28,.05,.43-.04,.3-.22,.57-.45,.61-.11,.02-.19-.02-.24-.06-.04-.04-.05-.08-.04-.08Z"/>
          <path class="cls-31" d="M157.63,83.1c0,.21-.17,.39-.38,.39-.21,0-.39-.17-.39-.38s.17-.39,.38-.39c.21,0,.39,.17,.39,.38Z"/>
          <path class="cls-37" d="M162.34,76.08c-.42-.52-1.14-.75-1.79-.61-.64,.14-1.19,.64-1.39,1.26l-.18,3.79c.25,.11,.57,.05,.76-.14,.19-.19,.26-.51,.15-.76,.18,.29,.55,.47,.89,.4,.34-.07,.61-.39,.61-.73,0-.28-.19-.55-.44-.65,.58,.1,1.22-.19,1.53-.7,.34-.57,.27-1.34-.14-1.86Z"/>
          <path class="cls-31" d="M159.62,79.67s-.02,.02-.07,.04c-.05,.02-.11,.07-.21,.1-.18,.08-.47,.17-.83,.2-.36,.04-.8,0-1.26-.12-.46-.13-.94-.37-1.37-.74-.42-.37-.73-.8-.95-1.23-.22-.43-.34-.84-.42-1.2-.07-.35-.1-.65-.1-.85,0-.1,0-.18,0-.23,0-.05,0-.08,0-.08,0,0,.01,.11,.03,.31,.01,.2,.05,.49,.13,.84,.08,.35,.21,.76,.43,1.17,.22,.42,.52,.84,.93,1.2,.41,.35,.88,.59,1.33,.73,.45,.13,.88,.17,1.23,.14,.72-.05,1.11-.31,1.11-.28Z"/>
          <path class="cls-31" d="M159.68,80.15s-.03,.1-.13,.22c-.1,.13-.27,.28-.49,.4-.22,.12-.44,.17-.6,.18-.16,.01-.26,0-.26-.02,0-.03,.4-.02,.82-.24,.42-.22,.64-.56,.66-.54Z"/>
          <path class="cls-31" d="M160.05,80.04s-.05-.2-.11-.51c-.06-.32-.15-.75-.27-1.23-.12-.48-.26-.9-.36-1.21-.1-.31-.17-.49-.16-.5,.01,0,.1,.18,.22,.48,.12,.3,.26,.73,.39,1.2,.12,.48,.21,.92,.25,1.24,.04,.32,.06,.52,.04,.52Z"/>
          <path class="cls-30" d="M153.54,82.36c0-.11-.05-.22-.12-.3-.14-.16-.37-.2-.55-.11-.18,.09-.31,.32-.31,.54h0c.08,.14,.21,.25,.37,.29,.02,0,.05,0,.07,.01,.12,.01,.25-.01,.36-.09,.1-.08,.18-.21,.18-.35Z"/>
          <path class="cls-37" d="M153.44,81.79s-.07,.31-.37,.52c-.29,.21-.63,.14-.64,.19,0,.02,.07,.07,.21,.08,.14,.02,.35-.01,.53-.14,.18-.13,.27-.31,.29-.44,.02-.13,0-.21-.03-.21Z"/>
        </g>
        <g>
          <g>
            <path class="cls-7" d="M149.58,86.72s-2.32,3.13-2.51,4.22c-.19,1.09,.35,8.11,.63,9.32l-1.8,4.04,3.07,.72,10.21-.17-.43-6.72,1.03-4.47,.11-5.88-3.63-1.21c-.95,1.92-4.09,1.29-4.26-.25l-2.42,.39Z"/>
            <path class="cls-7" d="M159.89,87.78s1.25,.45,1.97,1.89c.58,1.16,2.16,6.19,2.56,7.47,.43,1.4,.57,2.6-.22,3.56-.23,.28-.27,.61-1.94,1.31-1.65,.69-6.04,2.02-6.04,2.02l-.91-2.27,5.39-3.31-1.56-4.19,.75-6.48Z"/>
            <path class="cls-37" d="M160.29,92.09s-.3,1.35-.73,3.01c-.43,1.65-.8,2.99-.83,2.98s.3-1.35,.73-3.01c.43-1.65,.8-2.99,.83-2.98Z"/>
            <g>
              <path class="cls-12" d="M150.68,102.39l.44-.21-.16,.2s-.21,.23-.15,.47,.52,.3,.52,.3c0,0-.04,.26,.13,.49,.16,.21,.77,.06,.77,.06l-.08,.18c-.1,.19,.15,.43,.26,.46,.12,.03,.56-.1,.76-.23,.2-.13,.94-.07,.94-.07,0,0,.93,.3,1.32,.15,.39-.14,.51-.43,.51-.43,0,0-.07-1.73-.63-2.01-.29-.14-1.97-.79-2.48-1-.17-.07-.36-.08-.53-.01-.55,.21-1.53,.62-1.78,.81,0,0-.43,.27-.35,.53,.05,.15,.19,.36,.51,.3Z"/>
              <path class="cls-30" d="M151.95,101.6s-.19,.16-.44,.34c-.25,.18-.46,.32-.46,.31,0,0,.19-.16,.44-.34,.25-.18,.46-.32,.46-.31Z"/>
              <path class="cls-30" d="M152.4,102.56s-.25,.12-.54,.29c-.29,.17-.52,.32-.53,.31,0,0,.05-.05,.14-.11,.09-.06,.22-.15,.37-.23,.15-.08,.29-.15,.39-.19,.1-.04,.17-.06,.17-.06Z"/>
              <path class="cls-30" d="M153.02,103.25s-.18,.12-.42,.26c-.24,.13-.43,.23-.44,.22,0-.01,.18-.12,.42-.26,.24-.13,.43-.23,.44-.22Z"/>
            </g>
            <path class="cls-37" d="M147.53,89.13s0,.04,0,.1c0,.08-.02,.17-.03,.28-.03,.25-.07,.6-.11,1.04-.09,.88-.17,2.1-.16,3.45,.01,1.35,.12,2.57,.22,3.45,.05,.44,.1,.8,.13,1.04,.01,.11,.03,.21,.04,.28,0,.06,0,.1,0,.1,0,0-.01-.03-.03-.1-.02-.08-.03-.17-.06-.28-.05-.24-.11-.6-.17-1.04-.12-.88-.24-2.1-.25-3.46-.01-1.36,.08-2.58,.19-3.46,.05-.44,.1-.8,.15-1.04,.02-.11,.04-.2,.05-.28,.01-.06,.02-.1,.02-.1Z"/>
          </g>
          <g>
            <g>
              <g>
                <path class="cls-31" d="M142.65,125.8l2.26,3.45s-2.63,3.45-2.27,4.13l6.62-4.13-3.31-5.52-3.3,2.07Z"/>
                <path class="cls-16" d="M146.78,127.68c.15-.04,.33,.05,.38,.2,.05,.15-.04,.34-.19,.38-.15,.05-.37-.06-.4-.22-.03-.16,.08-.37,.24-.38"/>
                <path class="cls-37" d="M149.26,129.25l-.35-.54-6.22,4.17s-.21,.32-.05,.51l6.62-4.13Z"/>
                <path class="cls-5" d="M144.78,129.28s.19-.05,.42-.04c.22,0,.39,.1,.42,.06,.03-.03-.14-.19-.42-.2-.27,0-.44,.15-.42,.18Z"/>
                <path class="cls-5" d="M144.27,130.01s.19,0,.38,.08c.2,.07,.32,.2,.35,.18,.03-.01-.06-.22-.31-.31-.24-.09-.44,.02-.42,.05Z"/>
                <path class="cls-5" d="M144.39,131.12s-.02-.21-.22-.34c-.19-.13-.39-.11-.39-.07,0,.04,.16,.08,.31,.19,.16,.11,.25,.24,.29,.22Z"/>
                <path class="cls-5" d="M144.35,128.44s.15-.12,.34-.22c.19-.11,.37-.13,.37-.17,0-.04-.21-.07-.43,.05-.22,.12-.31,.32-.28,.34Z"/>
              </g>
              <path class="cls-37" d="M149.46,104.85s-10.88,3.63-12.67,5.07c-1.44,1.16-1.25,4.5-.41,5.83,.34,.54,7.85,13.15,7.85,13.15l3.73-2.04-5.02-12.31s12.27-2.38,14.54-3.41c2.81-1.27,1.91-4.18,1.91-4.18l-.49-2.11h-9.44Z"/>
              <g>
                <path class="cls-31" d="M145.42,122.38l2.26,3.45s-2.63,3.45-2.27,4.13l6.62-4.13-3.31-5.52-3.3,2.07Z"/>
                <path class="cls-16" d="M149.55,124.26c.15-.04,.33,.05,.38,.2,.05,.15-.04,.34-.19,.38-.15,.05-.37-.06-.4-.22-.03-.16,.08-.37,.24-.38"/>
                <path class="cls-37" d="M152.03,125.83l-.35-.54-6.22,4.17s-.21,.32-.05,.51l6.62-4.13Z"/>
                <path class="cls-5" d="M147.68,125.86s.19-.05,.42-.04c.22,0,.39,.1,.42,.06,.03-.03-.14-.19-.42-.2-.27,0-.44,.15-.42,.18Z"/>
                <path class="cls-5" d="M147.16,126.61s.19,0,.38,.08c.2,.07,.32,.2,.35,.18,.03-.01-.06-.22-.31-.31-.24-.09-.44,.02-.42,.05Z"/>
                <path class="cls-5" d="M147.28,127.73s-.02-.21-.22-.34c-.19-.13-.39-.11-.39-.07,0,.04,.16,.08,.31,.19,.16,.11,.25,.24,.29,.22Z"/>
                <path class="cls-5" d="M147.33,125.23s.15-.12,.34-.22c.19-.11,.37-.13,.37-.17,0-.04-.21-.07-.43,.05-.22,.12-.31,.32-.28,.34Z"/>
              </g>
              <g>
                <path class="cls-37" d="M137.74,105.16c-.62,.58-1.58,2.47-.56,4.68,.65,1.41,9.55,15.17,9.55,15.17l3.61-2.38s-3.09-6.49-4.13-9.53c-.79-2.31-2.53-5.87-2.64-6.11h0l5.61-2.06s-6-1.9-8.18-1.44c-2.18,.47-3.26,1.65-3.26,1.65Z"/>
                <path class="cls-31" d="M137.74,105.16s.05-.06,.15-.15c.1-.1,.27-.24,.49-.4,.45-.32,1.17-.74,2.19-1.02,.13-.03,.26-.06,.39-.1,.14-.03,.28-.04,.42-.06,.29-.02,.6-.03,.91,0,.64,.04,1.32,.13,2.05,.26,1.45,.27,3.08,.68,4.84,1.22l.11,.03-.11,.04c-1.69,.62-3.59,1.32-5.61,2.07l.03-.06c.43,.89,.87,1.81,1.3,2.77,.43,.96,.85,1.95,1.23,2.98,.36,1.04,.77,2.08,1.21,3.14,.44,1.05,.91,2.11,1.4,3.19,.55,1.21,1.1,2.4,1.64,3.55l.02,.04-.04,.02c-1.24,.82-2.45,1.61-3.61,2.38l-.04,.03-.03-.04c-1.79-2.78-3.46-5.38-4.95-7.72-1.48-2.34-2.79-4.41-3.84-6.16-.26-.44-.51-.85-.72-1.26-.19-.42-.32-.83-.39-1.23-.07-.4-.08-.77-.06-1.11,.03-.34,.09-.65,.17-.92,.16-.54,.39-.91,.55-1.15,.17-.24,.29-.33,.29-.33,0,0-.02,.03-.08,.08-.05,.05-.12,.14-.2,.26-.16,.24-.38,.61-.54,1.15-.08,.27-.13,.57-.16,.91-.02,.34,0,.71,.06,1.1,.07,.39,.21,.8,.4,1.21,.21,.4,.46,.82,.72,1.25,1.06,1.74,2.37,3.81,3.86,6.15,1.49,2.33,3.16,4.93,4.96,7.71h-.07c1.16-.78,2.37-1.58,3.61-2.39l-.02,.06c-.55-1.15-1.1-2.34-1.64-3.55-.48-1.07-.95-2.14-1.4-3.19-.44-1.05-.86-2.1-1.21-3.14-.37-1.03-.8-2.02-1.22-2.98-.43-.96-.86-1.88-1.29-2.77l-.02-.05,.05-.02c2.02-.74,3.92-1.43,5.61-2.05v.08c-1.76-.54-3.38-.96-4.83-1.23-.72-.14-1.41-.23-2.04-.27-.32-.02-.62-.02-.91,0-.14,.02-.28,.03-.42,.06-.13,.03-.26,.06-.39,.09-1.01,.27-1.73,.68-2.18,1-.23,.16-.39,.29-.5,.39-.09,.08-.13,.12-.16,.15Z"/>
              </g>
            </g>
            <path class="cls-31" d="M142.25,105.67s.39,.21,.77,.61c.38,.39,.59,.78,.57,.79-.03,.02-.28-.34-.64-.72-.37-.39-.71-.65-.69-.68Z"/>
            <path class="cls-37" d="M145.42,122.38s.02-.01,.05-.04c.04-.03,.1-.06,.16-.11,.15-.1,.37-.24,.65-.42,.57-.37,1.4-.89,2.42-1.54l.03-.02,.02,.03c.88,1.47,2.03,3.37,3.32,5.51l.03,.04-.04,.03c-.86,.54-1.77,1.11-2.71,1.69-1.38,.86-2.7,1.68-3.92,2.44l-.05,.03-.02-.05c-.06-.13-.04-.25-.02-.36,.02-.11,.06-.22,.1-.33,.08-.21,.18-.41,.28-.6,.2-.38,.42-.73,.64-1.07,.44-.67,.87-1.28,1.28-1.82v.04c-.69-1.07-1.25-1.94-1.65-2.54-.19-.29-.34-.52-.44-.69-.05-.07-.08-.13-.11-.18-.02-.04-.04-.06-.03-.06,0,0,.02,.02,.05,.06,.03,.04,.07,.1,.12,.18,.11,.16,.26,.39,.46,.68,.4,.6,.96,1.45,1.67,2.5v.02s0,.02,0,.02c-.4,.54-.83,1.15-1.27,1.82-.22,.34-.43,.69-.63,1.07-.1,.19-.19,.38-.27,.59-.04,.1-.07,.21-.09,.31-.02,.1-.03,.22,0,.3l-.07-.02c1.22-.76,2.54-1.59,3.91-2.45,.94-.58,1.85-1.15,2.71-1.69l-.02,.07c-1.28-2.14-2.42-4.05-3.3-5.52h.05c-1.02,.64-1.85,1.15-2.42,1.51-.28,.17-.51,.31-.66,.41-.07,.04-.13,.08-.17,.1-.04,.02-.06,.04-.06,.04Z"/>
          </g>
          <g class="cls-23">
            <polygon points="138.09 104.85 146.35 105.23 159.19 106.09 158.9 104.85 159.18 104.85 159.15 104.43 138.68 104.43 138.09 104.85"/>
          </g>
          <path class="cls-37" d="M159.74,95.91s.03,.06,.08,.18c.05,.14,.12,.31,.21,.52,.18,.47,.42,1.1,.7,1.83v.04s-.02,.02-.02,.02c-.43,.27-.9,.56-1.4,.86-1.03,.63-1.96,1.19-2.64,1.6-.33,.19-.6,.35-.81,.47-.19,.11-.3,.17-.3,.16,0,0,.1-.08,.28-.2,.2-.13,.47-.3,.79-.5,.67-.42,1.59-1,2.62-1.63,.5-.3,.97-.59,1.4-.86l-.02,.06c-.27-.74-.49-1.37-.66-1.84-.07-.22-.13-.39-.18-.53-.04-.12-.06-.19-.05-.19Z"/>
        </g>
        <g>
          <path class="cls-16" d="M136.58,94.79l10.96,.54c.36,.01,.69,.2,.73,.55l.87,8.04,5.65,.23c.18,0,.32,.16,.32,.34,0,.18-.16,.32-.34,.32l-5.55-.23-1.05-.04-11.43-.47-.88-8.48c-.05-.44,.31-.82,.75-.8Z"/>
          <path class="cls-37" d="M136.58,94.79s-.06-.01-.17,0c-.11,.02-.29,.08-.43,.26-.07,.09-.13,.21-.15,.34-.02,.14,.01,.29,.02,.45,.03,.32,.07,.7,.11,1.12,.17,1.68,.42,4.11,.72,7.1v.03s.03,0,.03,0c4.67,.2,10.8,.45,17.49,.74,.16,0,.31,.01,.47,.02,.07,0,.17,0,.25-.04,.08-.04,.14-.11,.18-.19,.07-.16,0-.37-.15-.46-.07-.05-.17-.06-.25-.06h-.23c-.62-.04-1.23-.06-1.83-.09-1.21-.05-2.38-.1-3.51-.14l.04,.04c-.31-2.88-.6-5.56-.87-7.97,0-.15-.07-.32-.19-.43-.11-.11-.26-.17-.41-.2-.15-.03-.3-.02-.44-.03-.14,0-.29-.01-.43-.02-.57-.03-1.12-.05-1.65-.08-1.06-.05-2.04-.1-2.93-.14-1.78-.08-3.2-.15-4.17-.19-.49-.02-.86-.04-1.12-.05-.13,0-.22,0-.29-.01-.06,0-.1,0-.1,0,0,0,.03,0,.1,0,.07,0,.16,.01,.29,.02,.26,.01,.63,.04,1.12,.06,.98,.05,2.39,.13,4.17,.22,.89,.05,1.87,.1,2.93,.15,.53,.03,1.08,.06,1.65,.08,.14,0,.29,.01,.43,.02,.14,.01,.29,0,.43,.03,.14,.03,.27,.09,.38,.18,.1,.1,.16,.23,.16,.38,.26,2.41,.55,5.1,.85,7.97v.04s.04,0,.04,0c1.13,.05,2.31,.1,3.51,.15,.6,.03,1.21,.05,1.83,.08h.23c.08,.01,.14,.02,.2,.05,.12,.07,.17,.23,.12,.35-.03,.06-.07,.12-.13,.15-.06,.03-.12,.03-.21,.03-.16,0-.31-.01-.47-.02-6.7-.27-12.83-.52-17.49-.72l.03,.03c-.32-2.98-.57-5.41-.75-7.1-.05-.42-.09-.79-.12-1.12-.01-.16-.05-.31-.03-.45,.02-.13,.07-.25,.14-.34,.14-.18,.31-.24,.42-.26,.11-.02,.17-.01,.17-.02Z"/>
          <path class="cls-5" d="M142.54,99.58c-.02,.38-.34,.67-.71,.66-.38-.02-.67-.34-.66-.71,.02-.38,.34-.67,.71-.66,.38,.02,.67,.34,.66,.71Z"/>
          <path class="cls-37" d="M148.66,104.49s-.28-2.05-.59-4.58c-.31-2.53-.55-4.58-.53-4.58,.02,0,.28,2.05,.59,4.58,.31,2.53,.55,4.58,.53,4.58Z"/>
        </g>
      </g>
      <g>
        <g>
          <rect class="cls-7" x="7.41" y="168.31" width="4.32" height="15.67"/>
          <rect class="cls-7" x="22.78" y="155.63" width="4.32" height="28.35"/>
          <rect class="cls-31" x="14.59" y="137.04" width="5.33" height="46.94"/>
          <rect class="cls-7" x="38.16" y="173.25" width="4.32" height="10.72"/>
          <rect class="cls-31" x="30.47" y="173.25" width="4.32" height="10.72"/>
          <rect class="cls-7" x="53.53" y="166.41" width="4.32" height="17.56"/>
          <rect class="cls-31" x="45.85" y="151.17" width="4.32" height="32.81"/>
          <rect class="cls-31" x="76.6" y="151.17" width="4.32" height="32.81"/>
          <rect class="cls-31" x="61.22" y="134.56" width="4.32" height="49.42"/>
          <rect class="cls-7" x="68.91" y="171.74" width="4.32" height="12.24"/>
          <rect class="cls-31" x="107.35" y="174.99" width="4.32" height="8.99"/>
          <rect class="cls-31" x="91.98" y="135.49" width="4.31" height="48.48"/>
          <rect class="cls-7" x="99.66" y="145.41" width="4.31" height="38.57"/>
          <rect class="cls-7" x="84.29" y="144.01" width="4.31" height="39.97"/>
          <rect class="cls-7" x="115.04" y="151.17" width="4.32" height="32.81"/>
          <rect class="cls-16" x="7.52" y="188.62" width="10.14" height="1.78" rx=".61" ry=".61"/>
          <rect class="cls-16" x="36.91" y="188.62" width="10.14" height="1.78" rx=".61" ry=".61"/>
          <rect class="cls-16" x="62.85" y="188.62" width="10.14" height="1.78" rx=".61" ry=".61"/>
          <rect class="cls-16" x="89.57" y="188.62" width="10.14" height="1.78" rx=".61" ry=".61"/>
          <rect class="cls-16" x="112.21" y="188.62" width="10.14" height="1.78" rx=".61" ry=".61"/>
        </g>
        <path class="cls-37" d="M124.88,183.98c0,.14-27.77,.26-62.03,.26s-62.03-.12-62.03-.26,27.77-.26,62.03-.26,62.03,.12,62.03,.26Z"/>
      </g>
      <path class="cls-35" d="M170.39,25.31c1.73,1.11,3.79,1.76,6.01,1.76,7.28,0,11.39-6.15,11.14-11.66,.77-.55,1.43-1.24,1.96-2.03-.7,.31-1.46,.52-2.25,.62,.81-.48,1.43-1.25,1.72-2.17-.76,.45-1.6,.78-2.49,.95-.72-.76-1.73-1.24-2.86-1.24-2.53,0-4.39,2.36-3.82,4.81-3.26-.16-6.14-1.72-8.08-4.09-1.03,1.76-.53,4.07,1.21,5.23-.64-.02-1.25-.2-1.78-.49-.04,1.82,1.26,3.51,3.14,3.89-.55,.15-1.16,.18-1.77,.07,.5,1.56,1.95,2.69,3.66,2.72-1.65,1.29-3.72,1.87-5.8,1.62Z"/>
      <g>
        <path class="cls-35" d="M198.4,162.21c.28,17.51-13.67,31.98-31.1,32.27-17.43,.28-31.84-13.74-32.12-31.24-.28-17.51,13.67-31.98,31.1-32.27,17.43-.28,31.84,13.74,32.12,31.25Zm-46.72,.75c.13,8.37,7.02,15.07,15.36,14.94,8.33-.13,15-7.06,14.87-15.43-.13-8.37-7.02-15.07-15.36-14.94-8.33,.13-15,7.06-14.87,15.43Z"/>
        <path class="cls-16" d="M198.4,162.21c.28,17.51-13.67,31.98-31.1,32.27l-.27-16.57c8.33-.13,15-7.06,14.87-15.43-.13-8.37-7.02-15.07-15.36-14.94l-.26-16.57c17.43-.28,31.84,13.73,32.12,31.24Z"/>
        <path class="cls-10" d="M170.13,197.02c-20.39,.33-36.66-15.5-36.98-35.98l19.3-.31c.16,9.79,7.61,15.96,17.36,15.8l.33,20.49Z"/>
      </g>
      <g>
        <path class="cls-10" d="M17.66,70.88l14.7-2.25c1.23,8.06-4.39,15.71-12.45,16.94-8.06,1.23-15.71-4.39-16.94-12.45-1.23-8.06,4.39-15.71,12.45-16.94,1.28-.2,2.59-.22,3.88-.08l-1.63,14.78Z"/>
        <path class="cls-16" d="M22.43,56.15l-1.78,11.39,11.18-2.1s-1.64-6.38-9.4-9.29Z"/>
      </g>
      <path class="cls-35" d="M17.67,34.73h5.22v-13.08h3.64l.39-4.38h-4.03v-2.49c0-1.03,.21-1.44,1.21-1.44h2.83v-4.55h-3.62c-3.89,0-5.64,1.71-5.64,4.99v3.49h-2.72v4.43h2.72v13.03Z"/>
    </g>
  </g>
</svg>