<svg id="eQ4ajCyt08x1" xmlns="http://www.w3.org/2000/svg" xmlns:xlink="http://www.w3.org/1999/xlink" viewBox="0 0 200 200" shape-rendering="geometricPrecision" text-rendering="geometricPrecision">
<style><![CDATA[
#eQ4ajCyt08x137_tr {animation: eQ4ajCyt08x137_tr__tr 3000ms linear infinite normal forwards}@keyframes eQ4ajCyt08x137_tr__tr { 0% {transform: translate(107.73px,80.18px) rotate(0deg)} 30% {transform: translate(107.73px,80.18px) rotate(-34.395262deg)} 100% {transform: translate(107.73px,80.18px) rotate(0deg)}} #eQ4ajCyt08x195_tr {animation: eQ4ajCyt08x195_tr__tr 3000ms linear infinite normal forwards}@keyframes eQ4ajCyt08x195_tr__tr { 0% {transform: translate(102.8px,69.29px) rotate(0deg)} 63.333333% {transform: translate(102.8px,69.29px) rotate(34.760268deg)} 100% {transform: translate(102.8px,69.29px) rotate(0deg)}} #eQ4ajCyt08x316_to {animation: eQ4ajCyt08x316_to__to 3000ms linear infinite normal forwards}@keyframes eQ4ajCyt08x316_to__to { 0% {transform: translate(131.93px,111.628828px)} 50% {transform: translate(187.42907px,111.505273px)} 100% {transform: translate(131.93px,111.628828px)}} #eQ4ajCyt08x347_tr {animation: eQ4ajCyt08x347_tr__tr 3000ms linear infinite normal forwards}@keyframes eQ4ajCyt08x347_tr__tr { 0% {transform: translate(28.881434px,170.845658px) rotate(0deg)} 50% {transform: translate(28.881434px,170.845658px) rotate(-30.272424deg)} 100% {transform: translate(28.881434px,170.845658px) rotate(0deg)}} #eQ4ajCyt08x404_tr {animation: eQ4ajCyt08x404_tr__tr 3000ms linear infinite normal forwards}@keyframes eQ4ajCyt08x404_tr__tr { 0% {transform: translate(167.88031px,160.741692px) rotate(43.040456deg)} 50% {transform: translate(167.88031px,160.741692px) rotate(-15.969503deg)} 100% {transform: translate(167.88031px,160.741692px) rotate(43.040456deg)}}
]]></style>
<g><g><g><rect width="35.77" height="24.91" rx="0" ry="0" transform="translate(20.84 53.39)" fill="#fafafa"/><rect width="35.77" height="3.11" rx="0" ry="0" transform="translate(20.84 53.39)" fill="#e1e1e1"/><path d="M22.78,55.04c0,.22-.17.39-.37.39s-.37-.17-.37-.39.17-.39.37-.39.37.17.37.39Z" fill="#fff"/><path d="M24.29,55.04c0,.22-.17.39-.37.39s-.37-.17-.37-.39.17-.39.37-.39.37.17.37.39Z" fill="#fff"/><path d="M25.8,55.04c0,.22-.17.39-.37.39s-.37-.17-.37-.39.17-.39.37-.39.37.17.37.39Z" fill="#fff"/></g><rect width="5.1" height="12.23" rx="0" ry="0" transform="translate(24.24 59.55)" fill="#e1e1e1"/><rect width="5.1" height="12.23" rx="0" ry="0" transform="translate(32.1 59.55)" fill="#f5f5f5"/><rect width="5.1" height="12.23" rx="0" ry="0" transform="translate(39.96 59.55)" fill="#fff"/><rect width="5.1" height="12.23" rx="0" ry="0" transform="translate(47.82 59.65)" fill="#ececec"/><rect width="30.89" height="2.79" rx="0" ry="0" transform="translate(23.65 73.13)" fill="#ececec"/></g><g><rect width="41.32" height="28.78" rx="0" ry="0" transform="translate(17.67 107.05)" fill="#ececec"/><rect width="41.32" height="3.6" rx="0" ry="0" transform="translate(17.67 107.05)" fill="#e1e1e1"/><path d="M19.91,108.96c0,.25-.19.45-.43.45s-.43-.2-.43-.45.19-.45.43-.45.43.2.43.45Z" fill="#fafafa"/><path d="M21.66,108.96c0,.25-.19.45-.43.45s-.43-.2-.43-.45.19-.45.43-.45.43.2.43.45Z" fill="#fafafa"/><path d="M23.41,108.96c0,.25-.19.45-.43.45s-.43-.2-.43-.45.19-.45.43-.45.43.2.43.45Z" fill="#fafafa"/></g><g><rect width="27.02" height="19.63" rx="0" ry="0" transform="translate(159.64 76.1)" fill="#f5f5f5"/><rect width="27.02" height="1.99" rx="0" ry="0" transform="translate(159.64 76.1)" fill="#e1e1e1"/><rect width="4.32" height="4.32" rx="0" ry="0" transform="translate(162.99 80.99)" fill="#e1e1e1"/><rect width="4.32" height="4.32" rx="0" ry="0" transform="translate(162.99 87.46)" fill="#e1e1e1"/><rect width="9.45" height="1.17" rx="0" ry="0" transform="translate(169.86 82.56)" fill="#e1e1e1"/><rect width="9.45" height="1.17" rx="0" ry="0" transform="translate(169.86 88.93)" fill="#e1e1e1"/></g><g><rect width="19.93" height="12.49" rx="0" ry="0" transform="translate(166.73 51.94)" fill="#e1e1e1"/><rect width="19.93" height="2.4" rx="0" ry="0" transform="translate(166.73 51.94)" fill="#ececec"/><g><g><rect width="2.83" height="2.83" rx="0" ry="0" transform="matrix(.999865-.016405 0.016405 0.999865 171.632486 57.656323)" fill="#f5f5f5"/><rect width="2.83" height="2.83" rx="0" ry="0" transform="matrix(.999865-.016405 0.016405 0.999865 170.97373 58.327059)" fill="#e1e1e1"/><rect width="2.83" height="2.83" rx="0" ry="0" transform="matrix(.999865-.016405 0.016405 0.999865 170.292844 58.878141)" fill="#f5f5f5"/></g><rect width="6.84" height="1.08" rx="0" ry="0" transform="translate(177.18 58.85)" fill="#f5f5f5"/></g></g><g><path d="M38.81,42.58c.54-.33,1.24-.38,1.85-.21.62.17,1.17.53,1.64.95.93.82,1.54,2.1,1.91,3.28-1.33.33-2.76-.38-3.46-.78-1.11-.64-2.72-2.47-1.95-3.24" fill="#ff4f5b"/><path d="M46.57,46.78c-.66-.26-1.12-.94-1.21-1.64-.08-.71.18-1.43.63-1.99.21-.26.49-.49.82-.49.31,0,.59.22.73.49s.17.59.15.9c-.05,1.06-.3,2.07-1.13,2.72" fill="#ff4f5b"/><path d="M48.9,50.02c0,0-.07-.06-.19-.17-.13-.13-.29-.29-.49-.49-.4-.42-.99-1.01-1.38-1.83-.4-.81-.52-1.65-.46-2.23.03-.29.08-.53.13-.68.02-.08.05-.14.07-.18s.03-.06.03-.06c.02,0-.14.34-.17.92-.04.58.09,1.39.48,2.19s.96,1.39,1.35,1.82c.2.22.36.39.47.51s.16.19.16.2Z" fill="#1a2e35"/><path d="M40.17,43.86c0,0,.04.02.1.05.07.04.16.1.27.17.23.15.57.36.98.63.82.54,1.95,1.3,3.18,2.16c1.23.87,2.32,1.68,3.1,2.27.39.3.71.54.92.71.1.08.18.15.25.2.06.05.08.07.08.07s-.03-.02-.09-.06c-.07-.05-.15-.11-.26-.19-.23-.17-.55-.4-.94-.69-.79-.58-1.89-1.39-3.12-2.25-1.23-.87-2.35-1.63-3.16-2.18-.4-.27-.73-.49-.97-.65-.11-.07-.19-.13-.26-.18-.06-.04-.09-.07-.09-.07Z" fill="#1a2e35"/><path d="M46.16,48.67c-1.35-.66-3.03-.61-4.34.13-.33.19-.68.5-.63.88s.46.59.84.68c1.55.38,3.3-.29,4.2-1.61" fill="#ff4f5b"/><path d="M42.87,49.33c0,0,.07-.05.2-.12.07-.04.15-.08.25-.13.1-.04.21-.1.34-.15s.27-.1.43-.14c.16-.05.33-.08.51-.11.36-.06.77-.09,1.19-.06s.82.12,1.17.23c.17.06.34.12.48.19.15.06.28.14.4.21.12.06.22.14.31.2s.17.12.23.17c.12.1.18.15.18.16-.01.02-.27-.21-.75-.47-.12-.06-.25-.13-.4-.19-.15-.07-.31-.12-.48-.18-.34-.1-.73-.19-1.15-.22-.41-.03-.81,0-1.17.05-.18.03-.35.06-.5.1-.16.03-.3.09-.43.13-.52.18-.81.36-.82.34Z" fill="#1a2e35"/></g><g><path d="M156.67,139.44c0-.47-.02-41.9-.06-105.1l.06.06c-33.02,0-72.34,0-114.42,0h-.01l.06-.06c0,38.3,0,74.3,0,105.1l-.06-.06c68.43.03,113.95.06,114.43.06-.49,0-46.01.02-114.43.06h-.06c0,0,0-.06,0-.06c0-30.8,0-66.8,0-105.1v-.06h.08c42.08,0,81.4,0,114.42,0h.06v.06c-.03,63.2-.05,104.63-.06,105.1Z" fill="#1a2e35"/><rect width="114.43" height="4.99" rx="0" ry="0" transform="translate(42.23 34.34)" fill="#1a2e35"/><path d="M45.88,36.51c0,.36-.31.65-.69.65s-.69-.29-.69-.65.31-.65.69-.65.69.29.69.65Z" fill="#fff"/><path d="M48.63,36.51c0,.36-.31.65-.69.65s-.69-.29-.69-.65.31-.65.69-.65.69.29.69.65Z" fill="#fff"/><path d="M51.39,36.51c0,.36-.31.65-.69.65s-.69-.29-.69-.65.31-.65.69-.65.69.29.69.65Z" fill="#fff"/></g><g><path d="M91.69,74.56c-.79.77-1.79,1.38-2.89,1.51-.75.09-1.51-.05-2.26.07-1.17.19-2.2,1.06-2.59,2.18s-.11,2.44.7,3.31c.24.26.57.49.91.41.19-.04.35-.17.49-.3c1.33-1.14,2.65-2.28,3.98-3.41l3.76-6.26c-.6.93-1.31,1.72-2.1,2.5Z" fill="#375a64"/><g opacity="0.3"><path d="M86.94,81c-.34-.54-.69-.91-1.2-1.38-.28-.26-.53-.57-.92-.52-.41.06-.72.43-.8.83s.05.82.26,1.18c.17.29.4.56.71.69.36.15.76,0,1.11-.16s.53-.38.83-.63"/></g></g><g transform="translate(.362529-.424727)"><g><path d="M101.9,116.38l-1.19,4.75c0,0,5.1,1.9,5.15,2.84L96,123.95l1.46-7.81l4.44.23Z" fill="#375a64"/><g opacity="0.6"><path d="M97.66,120.69c-.19.05-.32.27-.28.46s.26.33.45.28.36-.3.29-.49-.33-.33-.5-.24" fill="#fff"/></g><g opacity="0.6"><path d="M96,123.95l.15-.79l9.32.31c0,0,.44.19.39.5L96,123.95Z" fill="#fff"/></g><path d="M100.72,121.18c0,0-.24.07-.48.22s-.36.36-.41.34c-.04,0,.03-.3.32-.48s.58-.13.57-.08Z" fill="#1a2e35"/><path d="M101.82,121.63c0,0-.2.13-.36.33-.17.2-.21.42-.26.42s-.08-.27.13-.52.49-.27.49-.22Z" fill="#1a2e35"/><path d="M102.41,122.87c0,0-.11-.23.01-.49s.35-.37.37-.33c.03.04-.12.18-.22.4s-.12.42-.17.42Z" fill="#1a2e35"/><path d="M100.98,120.12c0,0-.24-.04-.51-.05s-.49.06-.51.02.2-.2.52-.18c.32.01.53.18.5.22Z" fill="#1a2e35"/></g><g><path d="M70.24,110.09l-4.92,1.5c0,0,.71,5.39-.09,5.88l-4.61-8.71l7.58-2.37l2.04,3.71Z" fill="#375a64"/><g opacity="0.6"><path d="M64.28,108.69c-.14-.14-.39-.16-.54-.03s-.17.38-.04.53.43.18.57.03c.13-.15.14-.45-.02-.56" fill="#fff"/></g><g opacity="0.6"><path d="M60.62,108.76l.77-.24l4.1,8.38c0,0,.04.48-.26.58l-4.61-8.71Z" fill="#fff"/></g><path d="M65.28,111.63c0,0-.18-.18-.42-.32s-.49-.15-.49-.2c-.01-.04.28-.11.57.06.3.17.38.45.34.46Z" fill="#1a2e35"/><path d="M65.4,112.81c0,0-.21-.11-.46-.16-.25-.06-.47,0-.49-.03-.03-.04.21-.2.52-.13.32.06.47.31.43.33Z" fill="#1a2e35"/><path d="M64.58,113.91c0,0,.15-.21.44-.22.29-.02.49.14.46.17-.02.04-.22-.02-.45,0-.24,0-.42.09-.45.05Z" fill="#1a2e35"/><path d="M66.34,111.36c0,0-.07-.23-.19-.48s-.28-.41-.25-.45c.02-.04.27.08.4.37.14.29.09.56.04.55Z" fill="#1a2e35"/></g><g><g><g><path d="M72.93,92.44l-2.47-4.51c0,0-5.13,1.8-5.78,1.11l7.59-6.29l3.87,6.93-3.21,2.76Z" fill="#ececec"/><path d="M73.08,86.31c.11-.16.08-.41-.08-.53s-.41-.09-.53.07-.08.46.09.56.47.05.54-.14" fill="#e1e1e1"/><path d="M72.27,82.75l.39.71-7.36,5.72c0,0-.46.13-.62-.14l7.59-6.29Z" fill="#e1e1e1"/><path d="M70.41,87.89c0,0,.14-.21.23-.48s.05-.51.1-.52c.04-.02.17.25.06.57-.1.33-.36.47-.38.43Z" fill="#e1e1e1"/><path d="M69.28,88.25c0,0,.07-.22.07-.49c0-.26-.11-.46-.07-.49.03-.03.24.16.23.49c0,.32-.2.52-.23.49Z" fill="#e1e1e1"/><path d="M68.03,87.68c0,0,.23.11.31.39s-.03.51-.07.49c-.05-.01-.02-.22-.09-.45-.06-.23-.18-.4-.14-.43Z" fill="#e1e1e1"/><path d="M70.89,88.87c0,0,.21-.12.43-.29.22-.16.34-.36.38-.34.04.01-.03.28-.28.47-.25.2-.53.2-.53.15Z" fill="#e1e1e1"/></g><g><path d="M86.06,100.02c0,0-1.61-1.56-2.54-1.63C82.59,98.31,75.6,87,75.6,87l-4.59,2.39c0,0,6.82,14.08,7.97,14.85l1.67,1.04l5.41-5.26Z" fill="#e1e1e1"/><path d="M81.17,102.11c0,0,.19-.15.53-.33s.83-.4,1.39-.58c.88-.29,1.66-.37,1.95-.38v.04c-.09,0-.13,0-.13-.01c0,0,.04-.02.13-.03v.04c-.28.06-1.05.18-1.91.46-.55.18-1.04.38-1.39.54s-.56.27-.57.25Z" fill="#e1e1e1"/><path d="M81.3,101.87c0,0,.41-.57,1.07-1.12.66-.56,1.27-.9,1.28-.87.02.03-.55.42-1.2.97s-1.13,1.05-1.15,1.02Z" fill="#e1e1e1"/><path d="M84.39,100.63c0,0-.16-.21-.39-.41-.22-.21-.45-.32-.44-.36c0-.03.28.03.53.26s.33.5.3.51Z" fill="#e1e1e1"/><g><path d="M75.37,87.93c2.19,4.19,4.8,8.15,7.77,11.83" fill="#ececec"/><path d="M83.14,99.75c0,0-.04-.03-.1-.1-.07-.08-.16-.19-.27-.31-.23-.27-.56-.68-.95-1.19-.79-1.01-1.84-2.44-2.92-4.08s-1.97-3.17-2.59-4.3c-.31-.56-.55-1.02-.71-1.34-.07-.15-.13-.27-.18-.37-.04-.09-.06-.13-.06-.13s.03.04.08.12c.05.09.12.21.2.36.18.33.44.78.75,1.32.64,1.11,1.54,2.63,2.62,4.27c1.07,1.63,2.11,3.07,2.88,4.09.38.5.69.91.92,1.21.1.13.18.24.25.33.06.08.08.12.08.12Z" fill="#e1e1e1"/></g></g></g><g><g><path d="M69.14,100.39l-4.31-2.8c0,0-3.66,4.02-4.56,3.72l3.7-9.14l6.7,4.27-1.52,3.95Z" fill="#f5f5f5"/><path d="M66.37,94.93c.02-.2-.13-.4-.32-.43-.2-.03-.4.12-.43.31-.03.2.15.44.34.45s.43-.18.41-.38" fill="#e1e1e1"/><path d="M63.96,92.18l.68.43-3.77,8.53c0,0-.34.34-.61.17l3.7-9.14Z" fill="#e1e1e1"/><path d="M64.77,97.58c0,0,.03-.25-.03-.53-.05-.28-.19-.47-.16-.5.03-.04.27.14.33.47.06.34-.1.58-.14.56Z" fill="#e1e1e1"/><path d="M63.94,98.44c0,0-.05-.23-.17-.46s-.31-.35-.29-.4c0-.04.28.03.44.32.16.28.07.55.03.54Z" fill="#e1e1e1"/><path d="M62.57,98.52c0,0,.25-.02.45.2.2.21.21.46.17.47-.05.01-.12-.18-.29-.35-.16-.18-.34-.27-.33-.31Z" fill="#e1e1e1"/><path d="M65.65,98.22c0,0,.13-.2.24-.45s.13-.48.18-.48c.04,0,.11.26-.02.55s-.37.42-.39.39Z" fill="#e1e1e1"/></g><g><path d="M84.3,100.85c0,0-2.15-.61-3.01-.24-.85.37-12.37-6.27-12.37-6.27l-2.91,4.28c0,0,11.92,8.01,13.3,8.14l3.72-1.28l1.27-4.62Z" fill="#ececec"/><path d="M80.99,105.01c0,0,.09-.22.31-.54.21-.32.54-.75.95-1.17.64-.67,1.29-1.12,1.54-1.26l.02.04c-.08.04-.12.06-.13.05c0,0,.03-.04.1-.09l.02.04c-.22.19-.84.66-1.47,1.32-.4.42-.74.83-.97,1.13s-.37.5-.38.49Z" fill="#e1e1e1"/><path d="M80.98,104.73c0,0,.09-.7.41-1.5.31-.8.69-1.39.72-1.38.03.02-.29.63-.6,1.42s-.49,1.46-.53,1.45Z" fill="#e1e1e1"/><path d="M83.12,102.18c0,0-.24-.11-.54-.18-.3-.08-.55-.07-.56-.11c0-.03.26-.11.59-.02.33.08.53.28.5.31Z" fill="#e1e1e1"/><path d="M81.6,102c0,0-.05-.01-.14-.04-.1-.04-.23-.09-.38-.15-.33-.13-.81-.33-1.4-.59-1.17-.52-2.78-1.28-4.5-2.21s-3.24-1.86-4.31-2.56c-.54-.35-.97-.64-1.26-.85-.14-.1-.25-.18-.34-.24-.08-.06-.11-.09-.11-.09s.05.02.13.07c.09.06.21.13.35.22.32.2.75.48,1.28.81c1.09.68,2.61,1.59,4.33,2.52s3.31,1.7,4.48,2.24c.57.26,1.04.47,1.38.63.15.07.28.13.38.17.09.04.13.06.13.07Z" fill="#e1e1e1"/></g></g></g><g><path d="M86.2,80.18c0,0-1.93,2.41-2.33,3-.39.59-4.11,14.73-4.11,14.73s-1.76,1.39-1.95,2.3-12.32,6.37-12.32,6.37l1.77,4.86c0,0,14.85-4.93,15.76-5.97s8.73-12.71,8.73-12.71l8.02,10.84c0,0-1.79,5.22-2.16,7.08-.37,1.9-1.79,8.21-1.79,8.21l5.5-.21c0,0,3.84-11.35,4.89-13.57c1.04-2.22.72-3.55.14-4.72-.59-1.17-6.71-13.43-6.71-13.43l.23-.89L86.2,80.19Z" fill="#1a2e35"/><path d="M81.21,103.03c0,0-.12-.21-.26-.57s-.29-.87-.39-1.45c-.17-.91-.15-1.7-.13-1.98h.04c-.01.09-.02.14-.03.14c0,0-.01-.05-.01-.14h.04c.02.29.04,1.07.21,1.96.1.57.24,1.08.35,1.45s.19.59.17.6Z" fill="#375a64"/><path d="M80.98,102.88c0,0-.51-.48-.97-1.21-.47-.72-.73-1.37-.7-1.39s.34.6.81,1.32c.46.71.89,1.25.86,1.28Z" fill="#375a64"/><path d="M103.34,103.05c0,0-.62-.15-1.38-.03-.76.11-1.28.49-1.3.45c0-.01.11-.12.33-.25s.56-.26.95-.33c.39-.06.75-.03,1,.02s.4.12.39.14Z" fill="#375a64"/><path d="M102.52,103.61c0,0-.49-.11-1.09-.11s-1.08.15-1.09.11c-.01-.03.46-.24,1.09-.24s1.1.21,1.09.24Z" fill="#375a64"/><path d="M94.1,89.28c0,0-.11.25-.33.64-.22.38-.54.9-.92,1.46s-.73,1.06-1,1.41-.45.56-.46.55.14-.24.39-.6c.27-.4.6-.89.97-1.42.36-.54.68-1.04.95-1.44.24-.37.39-.6.41-.59Z" fill="#375a64"/><path d="M80.67,99.24c0,0,.02-.07.06-.19s.11-.3.18-.53c.16-.46.36-1.13.58-1.97s.45-1.85.68-2.97c.24-1.12.48-2.37.78-3.66.31-1.29.66-2.51,1.06-3.59s.85-2.02,1.3-2.77c.44-.75.87-1.32,1.18-1.69.15-.19.29-.32.37-.42.09-.09.14-.14.14-.14s-.04.06-.12.16-.21.24-.35.43c-.3.38-.71.95-1.14,1.7s-.87,1.69-1.27,2.77-.74,2.29-1.05,3.58c-.3,1.29-.55,2.53-.79,3.65s-.48,2.13-.71,2.97-.45,1.51-.62,1.97c-.08.23-.16.4-.2.52-.05.12-.08.18-.08.18Z" fill="#375a64"/><path d="M80.15,99.65c0,0-.23.13-.46.33-.24.19-.38.41-.41.39-.03-.01.07-.28.33-.49.26-.22.54-.26.54-.23Z" fill="#375a64"/><path d="M79.12,100.77c0,0-.04.03-.12.09-.09.06-.21.13-.35.22-.3.19-.75.46-1.3.79-1.11.65-2.66,1.51-4.42,2.36s-3.4,1.54-4.6,2.01c-.6.23-1.09.41-1.42.53-.16.05-.29.1-.39.13-.09.03-.14.04-.14.04s.04-.03.13-.06c.1-.04.23-.09.38-.16.35-.14.83-.33,1.41-.57c1.19-.49,2.81-1.19,4.57-2.04s3.32-1.69,4.43-2.32c.55-.31.99-.57,1.32-.75.15-.08.26-.15.36-.2.08-.05.13-.07.13-.06Z" fill="#375a64"/><path d="M89.26,83.72c0,0-.1.18-.35.4-.25.21-.65.45-1.15.56-.49.11-.96.08-1.28,0s-.5-.19-.49-.2c0-.02.19.06.51.11.31.06.76.08,1.23-.03s.86-.32,1.12-.51.39-.34.41-.32Z" fill="#375a64"/><path d="M101.04,103.17c0,0-.04-.03-.1-.11-.07-.09-.15-.19-.26-.33-.22-.28-.54-.7-.92-1.22-.77-1.04-1.81-2.49-2.92-4.12s-2.07-3.13-2.75-4.23c-.34-.55-.61-1-.79-1.31-.08-.15-.15-.27-.21-.36-.05-.08-.07-.13-.07-.13s.03.04.09.12c.06.09.14.21.23.35.2.32.49.75.83,1.29.7,1.09,1.67,2.58,2.78,4.21s2.13,3.09,2.88,4.14c.37.51.67.94.89,1.24.1.14.18.25.24.34.05.08.08.12.08.12Z" fill="#375a64"/><path d="M97.18,118.79c0,0,0-.06.01-.16.02-.12.04-.27.07-.45.06-.39.16-.96.29-1.66.26-1.4.67-3.32,1.22-5.42s1.14-3.98,1.6-5.33c.23-.67.42-1.22.57-1.59.07-.18.12-.32.16-.43.04-.1.06-.15.07-.15c0,0-.01.05-.04.15-.04.11-.08.26-.14.44-.13.39-.31.94-.53,1.6-.44,1.35-1.01,3.23-1.56,5.33s-.97,4.02-1.25,5.41c-.14.69-.25,1.25-.33,1.65-.04.18-.07.33-.09.45-.02.1-.04.16-.04.16Z" fill="#375a64"/></g><g><path d="M113.22,81.11v3.11c0,0,4.67-6.82,4.67-6.82l2.39.77c0,0-2.91,7.6-4.57,9.03s-3.71,1.22-3.71,1.22l-.73-2.23l1.26-5.2.7.12Z" fill="#e1e1e1"/><g><path d="M120.09,78.93l.77-.93.71-.72c.09-.09.16-.17.2-.23.31-.38.1-.88.1-.88l.11-.48c.11-.48-.27-.7-.27-.7s.67-.83,1.24-1.31c.6-.51.64-.68.31-.84-.34-.16-2.37,1.53-2.37,1.53s.34-.9.63-1.71c.3-.83-.12-.89-.29-.8-.22.11-.86,1.37-1.27,2.21-.21.43-.36.74-.36.74s-.57.38-.91.67c-.12.1-.21.18-.25.24-.15.24-.49,1.76-.49,1.76l-.27.68" fill="#e1e1e1"/><path d="M119.25,77.58c0,0,.05,0,.12-.04.08-.04.19-.1.3-.22s.22-.29.27-.51.03-.49-.1-.73l-.06.05c.16.17.35.36.61.47.25.11.59.14.85-.06.02-.01.03-.03.05-.04l.03-.03-.02-.03c-.27-.37-.53-.73-.77-1.05-.06-.08-.12-.16-.2-.23-.07-.07-.17-.11-.26-.13-.19-.03-.36.05-.49.12-.14.08-.24.16-.34.23s-.18.12-.26.15c-.15.07-.25.06-.25.07c0,0,.02,0,.07,0c.04,0,.11-.01.19-.04s.17-.08.28-.14c.1-.06.21-.15.34-.22s.29-.13.45-.1c.17.02.29.17.41.33.24.32.49.68.77,1.05v-.06c0,0-.02.03-.04.04-.22.17-.53.15-.76.05-.24-.11-.43-.28-.59-.45l-.19-.19.13.24c.12.23.14.48.1.68-.04.21-.14.37-.24.49-.21.23-.39.28-.38.29Z" fill="#ececec"/><path d="M120.4,76.6c0,0-.03.01-.08.05-.04.04-.11.09-.17.19-.06.09-.09.25,0,.38.04.07.13.11.22.11.08,0,.17-.02.24-.04.59-.22,1.06-.41,1.06-.44c0-.02-.5.13-1.08.35-.14.05-.29.06-.36-.03s-.05-.22,0-.31c.04-.09.1-.15.14-.19s.06-.07.05-.07Z" fill="#ececec"/><path d="M121.01,76.14c0,0,.16-.05.35-.07.19-.03.35,0,.36-.02c0-.02-.15-.1-.37-.07s-.36.14-.34.16Z" fill="#ececec"/><path d="M120.56,75.42c0,0,.2-.11.46-.21.13-.05.25-.08.33-.1.09-.02.12.02.13.02c0,0,0-.02-.02-.04s-.07-.04-.12-.04c-.1,0-.23.03-.36.08-.27.1-.44.28-.43.29Z" fill="#ececec"/></g></g><g><path d="M108.72,76.6c-.02.85-1.61,8.09-1.48,9.83.14,1.73,11.22,5.24,11.22,5.24l.66-2.52-6.96-4.42l1.26-6.19-4.69-1.93Z" fill="#ececec"/><g><path d="M118.14,91.48l1.06.59.84.56c.11.07.2.12.26.16.43.23.89-.06.89-.06l.5.02c.5.02.64-.39.64-.39s.94.51,1.51.99c.61.5.78.51.88.15s-1.93-2.06-1.93-2.06.94.17,1.8.32c.87.14.85-.28.74-.43-.14-.19-1.5-.6-2.4-.85-.46-.13-.8-.22-.8-.22s-.48-.49-.83-.78c-.12-.1-.22-.17-.28-.2-.26-.11-1.82-.16-1.82-.16l-.72-.14" fill="#ececec"/><path d="M119.32,90.41c0,0,.02.04.07.11s.13.16.27.25c.13.09.32.17.55.17.22,0,.48-.06.71-.23l-.06-.05c-.14.19-.29.41-.36.69-.07.27-.03.61.21.83.02.02.04.03.05.04l.03.02.03-.03c.32-.34.62-.66.89-.95.07-.07.14-.15.19-.23.05-.09.08-.19.08-.28c0-.19-.11-.35-.21-.46-.1-.12-.2-.21-.29-.29s-.15-.16-.2-.23c-.09-.14-.1-.23-.11-.23c0,0,0,.02,0,.07c0,.04.03.11.08.18.04.07.11.16.19.24.08.09.18.18.27.3.09.11.18.26.18.43s-.11.32-.25.46c-.28.29-.58.61-.9.94h.06c0,0-.03-.03-.04-.04-.2-.19-.25-.49-.19-.74s.2-.47.34-.66l.16-.22-.21.17c-.2.16-.45.23-.66.22-.21,0-.39-.07-.52-.15-.26-.16-.35-.34-.36-.33Z" fill="#e1e1e1"/><path d="M120.5,91.36c0,0-.02-.03-.06-.07s-.11-.09-.22-.13c-.1-.04-.26-.05-.38.07-.06.06-.09.15-.07.23.01.08.05.16.09.23.32.54.6.97.62.96s-.22-.46-.54-1c-.08-.13-.12-.28-.03-.36.08-.08.21-.09.3-.06s.16.07.21.1.08.04.08.04Z" fill="#e1e1e1"/><path d="M121.06,91.88c0,0,.08.15.13.33.06.18.06.35.08.35s.07-.17,0-.38c-.06-.21-.2-.32-.22-.31Z" fill="#e1e1e1"/><path d="M121.69,91.31c0,0,.15.18.29.41.07.12.13.23.16.31s0,.12,0,.13c0,0,.02,0,.04-.03s.03-.07.02-.12c-.02-.1-.07-.22-.14-.34-.15-.25-.35-.39-.36-.37Z" fill="#e1e1e1"/></g></g><g id="eQ4ajCyt08x137_tr" transform="translate(107.73,80.18) rotate(0)"><g transform="translate(-107.73,-80.18)"><path d="M107.55,78.94c.11.84-.96,7.64-.56,9.33s4.57,8,4.57,8l2.14-.98-2.45-9.12l1.22-6.22-4.92-1.01Z" fill="#ffbf9d"/><g><path d="M111.33,96.03l.34,1.31.25.98c.04.12.07.22.09.29.17.46.71.54.71.54l.36.35c.36.35.73.13.73.13s.36,1.01.48,1.74c.13.78.25.9.56.7s-.08-2.82-.08-2.82.59.75,1.14,1.43.82.36.84.17c.02-.24-.73-1.45-1.24-2.23-.26-.4-.45-.69-.45-.69s-.03-.68-.1-1.13c-.02-.15-.05-.27-.08-.34-.12-.26-1.25-1.33-1.25-1.33l-.45-.59" fill="#ffbf9d"/><path d="M112.86,96.17c0,0-.02.04-.03.13c0,.08,0,.21.03.37.04.15.13.34.29.49s.4.28.68.3v-.08c-.24.05-.5.12-.73.28s-.42.44-.39.76c0,.02,0,.05.01.07v.04c0,0,.05,0,.05,0c.46-.04.9-.08,1.3-.12.1,0,.2-.02.3-.05s.18-.09.24-.16c.12-.15.15-.33.15-.48s-.02-.29-.02-.41s0-.22,0-.3c.02-.17.08-.24.07-.25c0,0-.02.02-.04.06s-.05.1-.06.19c-.02.08-.02.19-.02.31s.02.26,0,.4c0,.14-.04.31-.15.44-.1.13-.29.16-.49.18-.4.03-.84.07-1.3.11l.05.04c0,0,0-.04,0-.06-.03-.27.14-.53.35-.68s.46-.22.69-.27l.27-.06-.27-.02c-.26-.02-.48-.13-.64-.27s-.25-.31-.29-.46c-.09-.3-.04-.48-.05-.48Z" fill="#ff9a6c"/><path d="M113.11,97.66c0,0,0-.03,0-.09s-.02-.14-.07-.24c-.05-.09-.16-.2-.33-.2-.08,0-.16.05-.21.12s-.07.15-.09.23c-.12.62-.2,1.12-.17,1.13.02,0,.14-.49.26-1.11.03-.15.1-.28.22-.29.12,0,.22.07.27.15s.08.16.1.22c.02.05.03.08.04.08Z" fill="#ff9a6c"/><path d="M113.19,98.43c0,0-.04.16-.12.34s-.19.3-.17.32c.01.02.17-.08.25-.28.09-.2.06-.38.04-.37Z" fill="#ff9a6c"/><path d="M114.04,98.41c0,0,0,.23-.06.5-.02.13-.06.26-.09.34s-.08.09-.08.1c0,0,.02.01.05,0c.03,0,.07-.04.09-.08.05-.09.09-.21.12-.35.05-.29,0-.52-.03-.52Z" fill="#ff9a6c"/></g></g></g><g><g><path d="M114.69,59.54c-.23-.13-.52-.11-.77-.02s-.48.23-.72.34c-.25.1-.53.15-.78.05-.07-.03-.13-.07-.21-.08-.07-.01-.16,0-.2.07-.03.05-.01.12,0,.18.08.23.23.42.43.56-.28-.03-.56-.06-.84-.09-.08,0-.17-.01-.22.04-.06.06-.04.16-.02.24.13.43.46.8.86.98-.22.16-.46.32-.6.56s-.16.56.02.77c.17.19.46.22.7.15.55-.14.95-.63,1.23-1.12.29-.49.52-1.03.94-1.42" fill="#1a2e35"/><g><path d="M120.01,55.62v0c-2.28-.82-4.79.41-5.54,2.72l-1.86,5.51-1.89,2l3.56,5.49c.31-.78,3.26-3.51,3.26-3.51s2.28.58,3.22-1.55c.45-1.03,1.21-3.21,1.87-5.2.74-2.23-.42-4.64-2.62-5.46Z" fill="#ffbf9d"/><g><path d="M117.54,67.82c0,0-1.4-.46-2.45-1.98c0,0-.25,1.72,1.97,2.44l.48-.46Z" fill="#ff9a6c"/><g><g><g><path d="M121.35,62.31c-.06.16-.25.25-.43.18-.17-.06-.26-.25-.2-.41s.25-.25.43-.18c.17.06.26.25.2.41Z" fill="#1a2e35"/><path d="M121.71,61.94c-.05.02-.21-.25-.54-.38-.33-.14-.64-.08-.66-.13c0-.03.06-.08.2-.11s.34-.03.55.06c.2.09.34.24.41.36s.07.21.05.22Z" fill="#1a2e35"/></g><g><path d="M118.18,61.13c-.06.16-.25.25-.43.18-.17-.06-.26-.25-.2-.41s.25-.25.43-.18c.17.06.26.25.2.41Z" fill="#1a2e35"/><path d="M118.45,60.63c-.05.02-.21-.25-.54-.38-.33-.14-.64-.08-.66-.13c0-.03.06-.08.2-.11s.34-.03.55.06c.2.09.34.24.41.36s.07.21.05.22Z" fill="#1a2e35"/></g><path d="M118.6,63.57c0,0,.23.03.58.13.09.03.17.04.21,0c.05-.05.05-.16.05-.27c0-.24.02-.48.02-.74.04-1.06.11-1.91.15-1.91s.04.86,0,1.92c-.01.26-.02.51-.04.74c0,.11,0,.24-.1.35-.05.05-.13.07-.19.06-.06,0-.11-.03-.15-.04-.34-.12-.55-.21-.54-.23Z" fill="#1a2e35"/><path d="M117.54,63.39c.05.02-.1.38.1.76s.59.51.58.56c0,.02-.11.03-.28-.03-.16-.06-.37-.21-.49-.44s-.11-.48-.06-.63c.05-.16.13-.23.15-.21Z" fill="#1a2e35"/></g><path d="M119.08,59.37c-.07.08-.38-.11-.79-.22-.4-.13-.76-.14-.78-.25c0-.05.08-.11.25-.14.16-.03.4-.03.64.04s.44.2.56.32.16.22.13.25Z" fill="#1a2e35"/><path d="M121.99,60.93c-.09.05-.28-.12-.55-.24-.27-.13-.52-.16-.54-.26c0-.05.06-.11.19-.14s.32-.02.5.07.32.22.38.34.06.21.02.23Z" fill="#1a2e35"/></g></g></g><path d="M119.25,60.53c-.06-.1-.16-.16-.26-.2-.66-.26-1.3-.44-1.91-.58l-.26.04c-.05.29-.15.71-.14,1.01c0,.29.08.59.26.83.2.25.5.41.82.47.26.06.53.06.77-.06.38-.19.55-.62.7-1.02.06-.16.11-.35.03-.49Z" fill="#1a2e35"/><path d="M118.98,60.7c-.04-.08-.12-.13-.21-.16-.52-.22-1.03-.37-1.52-.49l-.21.03c-.05.23-.13.57-.13.8s.06.48.2.66c.15.21.4.33.65.39.2.05.43.05.62-.03.31-.14.45-.49.57-.8.05-.13.1-.28.03-.4Z" fill="#375a64"/><path d="M122.46,61.7c-.06-.1-.16-.16-.26-.2-.62-.24-1.22-.41-1.8-.55-.07-.02-.15-.02-.22,0l-.15.02c-.05.29-.15.71-.14,1.01c0,.29.08.59.26.83.2.25.5.41.82.47.26.06.53.06.77-.06.38-.19.55-.62.7-1.02.06-.16.11-.35.03-.49Z" fill="#1a2e35"/><path d="M122.21,61.81c-.04-.08-.12-.13-.21-.16-.52-.22-1.03-.37-1.52-.49l-.21.03c-.05.23-.13.57-.13.8c0,.24.06.48.2.66.15.21.4.33.65.39.2.05.43.05.62-.03.31-.14.45-.49.57-.8.05-.13.1-.28.03-.4Z" fill="#375a64"/><path d="M114.41,59.72c.89.01,1.78.02,2.66.03l-.09.37-2.7-.03.13-.38Z" fill="#1a2e35"/><polygon points="120.01,61.23 119.2,60.89 119.25,60.53 120.3,61 120.01,61.23" fill="#1a2e35"/><path d="M113.99,59.84c0,0-.58-4.5,3.2-5.43s4.2-.4,4.72.57s1.11,2.49,1.11,2.49s3.35-.36,3.44.14-2.41,1.27-2.41,1.27-.77-.32-1.98-.48c-.79-.1-2.66-.17-3.86-.21-.7-.02-1.26.03-1.92.23-.03,0-.06.02-.09.04l-2.21,1.38Z" fill="#ff4f5b"/><g><path d="M115.02,59.39c0,0-1.28-1.07-1.86.41-.59,1.48,1.02,1.76,1.04,1.72s.82-2.13.82-2.13Z" fill="#ffbf9d"/><path d="M113.97,60.78c0,0-.03,0-.08.01-.05,0-.13-.01-.19-.07-.13-.12-.17-.42-.07-.69.05-.14.13-.25.22-.34s.19-.14.27-.12c.09.01.12.08.12.13s-.02.07-.01.08c0,0,.04-.01.05-.08c0-.03,0-.07-.02-.12-.02-.04-.07-.08-.13-.09-.12-.04-.26.03-.36.12-.11.09-.2.22-.25.38-.11.3-.07.64.12.79.09.07.19.07.25.05s.08-.05.08-.05Z" fill="#ff9a6c"/></g><path d="M116.27,58.4c-.74.48-1.2.77-1.9.61-.11-.03-.24.01-.32.09-.11.11-.06.29.06.39.16.12.35.2.54.22.04,0,.1,0,.12.04.04.06-.02.14-.07.19-.24.21-.48.42-.72.63-.08.07-.16.14-.21.23s-.07.21-.02.3c.1.17.35.15.54.09.57-.21,1.02-.66,1.35-1.16.33-.51.57-1.12.79-1.69l-.16.07Z" fill="#1a2e35"/><path d="M116.27,58.4c0,0,.09-.05.25-.13.17-.08.42-.17.73-.27.63-.2,1.52-.37,2.52-.47.99-.11,1.9-.13,2.55-.14.33,0,.59,0,.77.01.18,0,.28.02.28.02s-.1.02-.28.03c-.21,0-.47.02-.77.03-.65.03-1.55.07-2.54.18s-1.88.26-2.5.43c-.63.16-1,.33-1.01.31Z" fill="#1a2e35"/><g opacity="0.3"><path d="M125.68,57.76c-.07-.12-.23-.14-.37-.15-2.65-.17-5.1.02-7.71.53c1.09.04,2,.08,3.04.12c1.3.09,2.46.19,3.4.56.56-.04.91-.23,1.39-.54.09-.06.18-.13.24-.22s.08-.22.02-.31Z"/></g><path d="M124.31,58.97c.32-.05.6-.27.72-.57-.36.04-.73.03-1.09-.03.26-.01.51-.15.66-.37-.82.25-1.7.14-2.55,0-.3-.05-.6-.11-.89-.08-.3.03-.63.1-.79.36.17.03.37.07.59.15s.43.15.61.3c.48.37.33,1.18.74,1.62.21.23.55.32.85.24.3-.09.53-.35.58-.66.26.18.62.2.89.05.15-.08.28-.25.24-.41-.06-.27-.48-.32-.57-.58Z" fill="#1a2e35"/><path d="M115.76,57.72c0,0,0-.23.05-.59s.14-.87.36-1.39c.23-.52.58-.92.89-1.13.31-.22.54-.26.54-.25c0,.02-.21.1-.49.32s-.61.61-.83,1.11-.32,1-.39,1.36-.12.58-.14.58Z" fill="#1a2e35"/><path d="M120.18,56.78c0,0-.06-.18-.14-.47-.07-.29-.18-.69-.38-1.09s-.48-.71-.72-.88c-.23-.18-.41-.24-.41-.26c0-.01.2.02.46.18s.57.48.78.9.3.83.35,1.13.06.48.05.49Z" fill="#1a2e35"/></g><path d="M118.36,61.01c0,0-.21.11-.49.16s-.51.07-.51.03.21-.11.49-.16.51-.07.51-.03Z" fill="#1a2e35"/><path d="M118.63,60.77c0,0-.21.11-.49.16s-.51.07-.51.03.21-.11.49-.16.51-.07.51-.03Z" fill="#1a2e35"/><path d="M121.59,62.26c0,0-.17.09-.39.12s-.4.02-.4-.01c0-.04.17-.09.39-.12s.4-.02.4.01Z" fill="#1a2e35"/><path d="M121.9,61.94c0,0-.28.13-.64.18-.37.05-.67.02-.67-.01c0-.04.29-.07.65-.11s.65-.09.66-.05Z" fill="#1a2e35"/><path d="M121.01,63.03c0,0-.13,0-.31-.09s-.41-.28-.53-.57-.1-.59-.03-.78c.06-.19.15-.29.15-.29.01,0-.05.11-.1.3s-.06.46.05.74c.11.27.32.46.48.56.17.1.29.13.28.14Z" fill="#fff"/><path d="M117.15,61.48c0,0-.2-.24-.22-.61-.03-.37.12-.64.14-.63.02,0-.08.28-.06.63s.16.6.14.61Z" fill="#fff"/></g><g><g><polygon points="107.76,78.01 107.2,80.05 113.46,81.15 114.55,75.78 107.76,78.01" fill="#375a64"/><path d="M114.55,75.78l-9.43,5.06-4.96,5.67c0,0-8.3-.91-9.82-1.92s-4.15-4.55-4.15-4.55s5.21-4.86,6.7-6.88s3.21-3.14,3.72-3.85s7.49-5.87,12.04-5.87c0,0,2.52-.3,3.63.73c0,0,2.29,6.34,2.43,6.63.14.28-.17,4.99-.17,4.99" fill="#375a64"/><g opacity="0.3"><path d="M97.24,78.16c1.35-1.56.96-4.08,2.23-5.7.63-.8,1.58-1.28,2.56-1.58.97-.3,1.99-.45,2.96-.75c1.12-.35,2.17-.88,3.12-1.56-1.39.34-2.77.68-4.16,1.03-.2.05-.4.1-.6.05-.26-.06-.46-.27-.68-.42-.79-.54-1.86-.32-2.79-.08-.77.2-1.62.45-2.04,1.13-.33.53-.31,1.2-.3,1.83.04,1.89-.05,3.78-.29,5.65"/></g><path d="M102.31,63.84c0,0,5.4-1.22,6.96-1.14c2.03.1,3.25,2.02,3.25,2.02v3.56l-9.36,1.93-.85-6.37Z" fill="#375a64"/><path d="M111.37,67.51c0,0,.05-.24.1-.63s.07-.93-.03-1.52c-.11-.59-.31-1.09-.5-1.43-.18-.35-.33-.54-.31-.55.01,0,.18.17.39.51s.43.85.54,1.46c.11.6.07,1.16,0,1.55-.08.39-.18.62-.19.61Z" fill="#1a2e35"/><g id="eQ4ajCyt08x195_tr" transform="translate(102.8,69.29) rotate(0)"><g transform="translate(-102.8,-69.289999)"><path d="M102.35,64.14c0,0-7.23,1.52-7.73,2.54-.56,1.15-.82,13.92-.82,13.92l2.98.13c0,0,1.92-10.11,1.91-10.25l4.39-.95-.72-5.39Z" fill="#ffbf9d"/><path d="M93.79,80.26c0,0-.45,2.65-.34,2.95.1.3-.39,3.03-.02,3.12.38.09.21-.08.34-.51.13-.42.21-1.48.4-1.45s-.06,3.32.05,3.45.18.44.38.07c0,0,.12.55.44.51.31-.03.6-.21.64-.5s.51-2.66.51-2.66-.49,2.62-.22,2.67c.26.05.21.13.47-.14s.67-1.98.67-1.98l.07-2.07c0,0,.35,1.55.58,1.78s.71.45.95.22.02-.4-.15-.65c-.16-.25-.59-2.16-.75-2.52-.15-.36-1.25-2.23-1.25-2.23l-2.77-.06Z" fill="#ffbf9d"/></g></g><path d="M87.13,81.47c0,0-.18-.19-.44-.53s-.61-.81-.99-1.34c-.09-.13-.19-.25-.31-.32-.12-.08-.25-.1-.38-.08-.26.03-.47.19-.59.35-.13.16-.21.31-.26.42s-.08.16-.09.16c0,0,0-.07.05-.18.04-.11.11-.28.24-.46s.35-.37.65-.41c.15-.02.32,0,.47.09.14.09.25.22.35.35.38.53.72,1.01.96,1.36s.38.58.37.59Z" fill="#1a2e35"/></g><path d="M107.73,69.29c0,0-1.01.27-2.28.53-1.26.26-2.29.44-2.3.41c0-.03,1.01-.27,2.28-.53c1.26-.26,2.29-.44,2.3-.41Z" fill="#1a2e35"/><path d="M114.04,76.22c0,0-1.8.96-4.05,2.08s-4.09,2-4.11,1.96c-.02-.03,1.8-.96,4.05-2.08s4.09-2,4.1-1.96Z" fill="#1a2e35"/></g><g><g><path d="M65.28,122.7c-.37.22,2.74,2.13,5.91,2.58c2.14.31,41.08-.07,41.08-.07s2.22,0,1.92-.52-1.85-.69-2.96-.67c-.73,0-37.01.16-38.78,0-2.51-.22-6.81-1.55-7.18-1.32Z" fill="#ff4f5b"/><path d="M114.07,124.56c0,0-.04,0-.13,0s-.21,0-.37,0c-.33,0-.81,0-1.43.01-1.25,0-3.04.01-5.26.02-4.44,0-10.57,0-17.34,0-6.98-.01-13.28-.02-17.72-.03v0c-2.12-.19-3.76-.74-4.84-1.18-1.09-.45-1.64-.79-1.64-.79s.04.01.11.05c.08.04.18.09.31.15.28.13.69.33,1.23.54c1.09.43,2.72.95,4.83,1.13v0c4.43,0,10.73,0,17.72,0c6.77.01,12.9.02,17.34.03c2.21,0,4.01.02,5.26.02.62,0,1.1,0,1.43.01.16,0,.28,0,.37,0c.08,0,.13,0,.13,0Z" fill="#1a2e35"/></g><g><circle r="1.92" transform="translate(102.8 127.33)" fill="#375a64"/><path d="M104.52,127.33c0,0,0-.15-.08-.42-.07-.26-.24-.63-.63-.92-.19-.14-.43-.26-.71-.31-.27-.05-.58-.04-.88.08-.29.11-.57.31-.77.58s-.32.62-.32.98.12.71.32.98c.2.28.48.48.77.58.29.11.6.12.88.08.28-.05.52-.17.71-.31.39-.29.56-.66.63-.92s.06-.42.08-.42c0,0,0,.04,0,.11s0,.18-.04.32c-.06.27-.22.67-.62.98-.2.15-.45.29-.74.34s-.62.05-.94-.07c-.32-.11-.62-.32-.83-.62-.22-.29-.35-.67-.35-1.06s.13-.77.35-1.06c.22-.3.52-.51.83-.62.32-.12.65-.12.94-.07s.55.19.74.34c.4.31.57.71.62.98.03.14.04.24.04.32c0,.07,0,.11,0,.11Z" fill="#1a2e35"/></g><g><circle r="1.92" transform="translate(75.44 127.33)" fill="#375a64"/><path d="M77.17,127.33c0,0,0-.15-.08-.42-.07-.26-.24-.63-.63-.92-.19-.14-.43-.26-.71-.31-.27-.05-.58-.04-.88.08-.29.11-.57.31-.77.58s-.32.62-.32.98.12.71.32.98c.2.28.48.48.77.58.29.11.6.12.88.08.28-.05.52-.17.71-.31.39-.29.56-.66.63-.92s.06-.42.08-.42c0,0,0,.04,0,.11s0,.18-.04.32c-.06.27-.22.67-.62.98-.2.15-.45.29-.74.34s-.62.05-.94-.07c-.32-.11-.62-.32-.83-.62-.22-.29-.35-.67-.35-1.06s.13-.77.35-1.06c.22-.3.52-.51.83-.62.32-.12.65-.12.94-.07s.55.19.74.34c.4.31.57.71.62.98.03.14.04.24.04.32c0,.07,0,.11,0,.11Z" fill="#1a2e35"/></g></g><g><path d="M126.19,129.24c0-.51-.02-33.41-.06-82.36l.06.06c-19.62,0-42.11,0-65.92,0v0l.06-.06c0,30.49,0,58.83-.01,82.36l-.05-.05c39.76.03,65.47.05,65.92.05-.45,0-26.17.02-65.92.05h-.05c0,0,0-.05,0-.05c0-23.53,0-51.87-.01-82.36v-.06c0,0,.06,0,.06,0v0c23.8,0,46.3,0,65.92,0h.06v.06c-.03,48.95-.06,81.85-.06,82.36Z" fill="#ff4f5b"/><g><g><rect width="1.76" height="1.76" rx="0" ry="0" transform="translate(125 128.05)" fill="#fff"/><path d="M126.76,129.81c0,0-.02-.19-.03-.5s-.02-.74-.03-1.26l.06.06c-.52,0-1.12,0-1.76,0-.01.01.12-.12.06-.06v0c0,0,0,.03,0,.03v.09c0,0,0,.12,0,.12c0,.08,0,.16,0,.24c0,.16,0,.31,0,.46c0,.29,0,.57,0,.83l-.06-.06c.52,0,.95.02,1.26.03s.49.02.5.03-.16.02-.47.03-.75.02-1.3.03h-.06c0,0,0-.06,0-.06c0-.26,0-.54,0-.83c0-.15,0-.3,0-.46c0-.08,0-.16,0-.24v-.12c0,0,0-.06,0-.06v-.05v0c-.06.04.08-.09.06-.08.64,0,1.24,0,1.76,0h.06c0,0,0,.06,0,.06c0,.54-.02.99-.03,1.3s-.02.48-.03.47Z" fill="#ff4f5b"/></g><g><rect width="1.76" height="1.76" rx="0" ry="0" transform="translate(92.36 128.05)" fill="#fff"/><path d="M94.12,129.81c0,0-.02-.19-.03-.5s-.02-.74-.03-1.26l.06.06c-.52,0-1.12,0-1.76,0-.01.01.12-.12.06-.06v0v.12c0,0,0,.12,0,.12c0,.08,0,.16,0,.24c0,.16,0,.31,0,.46c0,.29,0,.57,0,.83l-.06-.06c.52,0,.95.02,1.26.03s.49.02.5.03c0,0-.16.02-.47.03s-.75.02-1.3.03h-.06c0,0,0-.06,0-.06c0-.26,0-.54,0-.83c0-.15,0-.3,0-.46c0-.08,0-.16,0-.24v-.12c0,0,0-.06,0-.06v-.05v0c-.06.04.08-.09.06-.08.64,0,1.24,0,1.76,0h.06c0,0,0,.06,0,.06c0,.54-.02.99-.03,1.3s-.02.48-.03.47Z" fill="#ff4f5b"/></g><g><rect width="1.76" height="1.76" rx="0" ry="0" transform="translate(59.73 128.05)" fill="#fff"/><path d="M61.49,129.81c0,0-.02-.19-.03-.5s-.02-.74-.03-1.26l.06.06c-.52,0-1.12,0-1.76,0-.01.01.12-.12.06-.06v0v.12c0,0,0,.12,0,.12c0,.08,0,.16,0,.24c0,.16,0,.31,0,.46c0,.29,0,.57,0,.83l-.06-.06c.52,0,.95.02,1.26.03s.49.02.5.03c0,0-.16.02-.47.03s-.75.02-1.3.03h-.06c0,0,0-.06,0-.06c0-.26,0-.54,0-.83c0-.15,0-.3,0-.46c0-.08,0-.16,0-.24v-.12c0,0,0-.06,0-.06v-.05c0,0,0,0,0,0v0c-.06.05.08-.09.06-.07.64,0,1.24,0,1.76,0h.06c0,0,0,.06,0,.06c0,.54-.02.99-.03,1.3s-.02.48-.03.47Z" fill="#ff4f5b"/></g></g><g><g><rect width="1.76" height="1.76" rx="0" ry="0" transform="translate(124.98 46.1)" fill="#fff"/><path d="M126.74,47.86c0,0-.02-.19-.03-.5s-.02-.74-.03-1.26l.06.06c-.52,0-1.12,0-1.76,0-.01.01.12-.12.06-.06v0v.12c0,0,0,.12,0,.12c0,.08,0,.16,0,.24c0,.16,0,.31,0,.46c0,.29,0,.57,0,.83l-.06-.06c.52,0,.95.02,1.26.03s.49.02.5.03c0,0-.16.02-.47.03s-.75.02-1.3.03h-.06c0,0,0-.06,0-.06c0-.26,0-.54,0-.83c0-.15,0-.3,0-.46c0-.08,0-.16,0-.24v-.12c0,0,0-.06,0-.06v-.03c0,0,0-.02,0-.02v0c-.06.04.08-.09.06-.08.64,0,1.24,0,1.76,0h.06c0,0,0,.06,0,.06c0,.54-.02.99-.03,1.3s-.02.48-.03.47Z" fill="#ff4f5b"/></g><g><rect width="1.76" height="1.76" rx="0" ry="0" transform="translate(92.35 46.1)" fill="#fff"/><path d="M94.11,47.86c0,0-.02-.19-.03-.5s-.02-.74-.03-1.26l.06.06c-.52,0-1.12,0-1.76,0-.01.01.12-.12.06-.06v0v.12c0,0,0,.12,0,.12c0,.08,0,.16,0,.24c0,.16,0,.31,0,.46c0,.29,0,.57,0,.83l-.06-.06c.52,0,.95.02,1.26.03s.49.02.5.03c0,0-.16.02-.47.03s-.75.02-1.3.03h-.06c0,0,0-.06,0-.06c0-.26,0-.54,0-.83c0-.15,0-.3,0-.46c0-.08,0-.16,0-.24v-.12c0,0,0-.06,0-.06v-.03c0,0,0-.02,0-.02v0c-.06.04.08-.09.06-.08.64,0,1.24,0,1.76,0h.06c0,0,0,.06,0,.06c0,.54-.02.99-.03,1.3s-.02.48-.03.47Z" fill="#ff4f5b"/></g><g><rect width="1.76" height="1.76" rx="0" ry="0" transform="translate(59.72 46.1)" fill="#fff"/><path d="M61.48,47.86c0,0-.02-.19-.03-.5s-.02-.74-.03-1.26l.06.06c-.52,0-1.12,0-1.76,0-.01.01.12-.12.06-.06v0v.06c0,0,0,.06,0,.06v.12c0,.08,0,.16,0,.24c0,.16,0,.31,0,.46c0,.29,0,.57,0,.83l-.06-.06c.52,0,.95.02,1.26.03s.49.02.5.03c0,0-.16.02-.47.03s-.75.02-1.3.03h-.06c0,0,0-.06,0-.06c0-.26,0-.54,0-.83c0-.15,0-.3,0-.46c0-.08,0-.16,0-.24v-.12c0,0,0-.06,0-.06v-.05v0c-.06.04.08-.09.06-.08.64,0,1.24,0,1.76,0h.06c0,0,0,.06,0,.06c0,.54-.02.99-.03,1.3s-.02.48-.03.47Z" fill="#ff4f5b"/></g></g><g><rect width="1.76" height="1.76" rx="0" ry="0" transform="translate(59.72 85.58)" fill="#fff"/><path d="M61.48,87.35c0,0-.02-.19-.03-.5s-.02-.74-.03-1.26l.06.06c-.52,0-1.12,0-1.76,0-.01.01.12-.12.06-.06v0v.06c0,0,0,.06,0,.06v.12c0,.08,0,.16,0,.24c0,.16,0,.31,0,.46c0,.29,0,.57,0,.83l-.06-.06c.52,0,.95.02,1.26.03s.49.02.5.03c0,0-.16.02-.47.03s-.75.02-1.3.03h-.06c0,0,0-.06,0-.06c0-.26,0-.54,0-.83c0-.15,0-.3,0-.46c0-.08,0-.16,0-.24v-.12c0,0,0-.06,0-.06v-.05v0c-.06.04.08-.09.06-.08.64,0,1.24,0,1.76,0h.06c0,0,0,.06,0,.06c0,.54-.02.99-.03,1.3s-.02.48-.03.47Z" fill="#ff4f5b"/></g><g><rect width="1.76" height="1.76" rx="0" ry="0" transform="translate(125.41 82.57)" fill="#fff"/><path d="M127.17,84.34c0,0-.02-.19-.03-.5s-.02-.74-.03-1.26l.06.06c-.52,0-1.12,0-1.76,0-.01.01.12-.12.06-.06v0v.12c0,0,0,.12,0,.12c0,.08,0,.16,0,.24c0,.16,0,.31,0,.46c0,.29,0,.57,0,.83l-.06-.06c.52,0,.95.02,1.26.03s.49.02.5.03c0,0-.16.02-.47.03s-.75.02-1.3.03h-.06c0,0,0-.06,0-.06c0-.26,0-.54,0-.83c0-.15,0-.3,0-.46c0-.08,0-.16,0-.24v-.12c0,0,0-.06,0-.06v-.03c0,0,0-.02,0-.02v0c-.06.04.08-.09.06-.08.64,0,1.24,0,1.76,0h.06c0,0,0,.06,0,.06c0,.54-.02.99-.03,1.3s-.02.48-.03.47Z" fill="#ff4f5b"/></g></g><g><circle r="0.24" transform="translate(96.67 68.57)" fill="#ff4f5b"/><circle r="0.24" transform="translate(113.46 75.19)" fill="#ff4f5b"/><circle r="0.24" transform="translate(109 85.7)" fill="#ff4f5b"/><circle r="0.24" transform="translate(112.52 95.93)" fill="#ff4f5b"/><path d="M110.3,65.17c.01.13-.08.25-.21.26s-.25-.08-.26-.21.08-.25.21-.26.25.08.26.21Z" fill="#ff4f5b"/><circle r="0.24" transform="translate(95.62 81.81)" fill="#ff4f5b"/><path d="M111.99,69.93c0,.23-.19.42-.42.42s-.42-.19-.42-.42.19-.42.42-.42.42.19.42.42Z" fill="#ff4f5b"/><circle r="0.42" transform="translate(101.82 75.8)" fill="#ff4f5b"/><circle r="0.42" transform="translate(97.75 87.61)" fill="#ff4f5b"/><circle r="0.42" transform="translate(105.08 102.05)" fill="#ff4f5b"/><path d="M82.98,103.86c0,.23-.19.42-.42.42s-.42-.19-.42-.42.19-.42.42-.42.42.19.42.42Z" fill="#ff4f5b"/><circle r="0.42" transform="translate(65.41 109.69)" fill="#ff4f5b"/><path d="M99.59,119.71c0,.23-.19.42-.42.42s-.42-.19-.42-.42.19-.42.42-.42.42.19.42.42Z" fill="#ff4f5b"/><circle r="0.42" transform="translate(87.94 83.17)" fill="#ff4f5b"/><path d="M112.52,96.17c0,0-.03-.06-.07-.18-.04-.13-.11-.31-.19-.54-.17-.48-.41-1.19-.72-2.09-.62-1.82-1.5-4.43-2.59-7.64v-.02c0,0,0-.02,0-.02c1.26-2.99,2.78-6.58,4.44-10.52v.05c-.81-2.27-1.68-4.7-2.57-7.21-.33-.94-.66-1.86-.99-2.77l.08.04c-4.87,1.23-9.38,2.38-13.24,3.36l.04-.05c-.32,4.06-.59,7.43-.78,9.79-.1,1.17-.17,2.09-.23,2.73-.03.31-.05.55-.06.72-.02.16-.03.25-.03.25s0-.08.01-.25.03-.41.05-.72c.05-.63.11-1.56.2-2.73.18-2.36.43-5.73.74-9.79v-.04c0,0,.04,0,.04,0c3.86-.98,8.37-2.13,13.23-3.38h.06c0,0,.02.04.02.04.32.91.65,1.83.99,2.77.89,2.51,1.76,4.94,2.56,7.21v.02c0,0,0,.02,0,.02-1.67,3.93-3.2,7.52-4.47,10.51v-.04c1.07,3.21,1.94,5.83,2.55,7.65.3.91.53,1.61.69,2.1.08.24.14.42.18.55.04.12.06.19.06.19Z" fill="#ff4f5b"/><path d="M99.17,119.71c0,0,0-.03.02-.09s.05-.14.08-.25c.07-.23.18-.55.32-.97.28-.85.69-2.09,1.2-3.65c1.04-3.13,2.51-7.55,4.23-12.72v.05c-1.48-2.91-3.1-6.11-4.8-9.46-.87-1.7-1.71-3.37-2.53-4.98v-.02c0,0,0-.03,0-.03c1.53-4.43,2.92-8.46,4.08-11.81v-.02c0,0,.02,0,.02,0c2.99-1.66,5.43-3.01,7.12-3.96.85-.47,1.51-.83,1.96-1.08.22-.12.39-.21.51-.28.12-.06.18-.09.18-.09s-.06.04-.17.1c-.12.07-.29.17-.51.29-.45.26-1.11.63-1.95,1.1-1.69.95-4.13,2.32-7.1,3.99l.02-.03c-1.15,3.35-2.53,7.38-4.05,11.82v-.05c.81,1.61,1.66,3.27,2.52,4.98c1.7,3.35,3.32,6.55,4.8,9.46v.02c0,0,0,.02,0,.02-1.74,5.17-3.23,9.58-4.28,12.71-.53,1.56-.95,2.79-1.24,3.64-.14.42-.26.74-.33.97-.04.11-.07.19-.09.25s-.03.08-.03.08Z" fill="#ff4f5b"/><path d="M65.49,109.69c0,0,.03-.01.08-.04.06-.02.15-.05.25-.09.23-.08.56-.2.98-.35.86-.3,2.09-.73,3.62-1.26c3.07-1.06,7.33-2.52,12.11-4.16l-.04.04c.13-.51.28-1.06.42-1.62c1.38-5.26,2.62-10.03,3.53-13.48.46-1.72.83-3.11,1.08-4.08.13-.48.23-.85.3-1.11.03-.12.06-.22.08-.29.02-.06.03-.1.03-.1s0,.03-.02.1-.04.17-.07.29c-.07.26-.16.64-.28,1.11-.25.97-.6,2.37-1.04,4.09-.89,3.46-2.13,8.22-3.49,13.49-.14.55-.29,1.1-.42,1.62v.03c0,0-.04.01-.04.01-4.78,1.63-9.05,3.08-12.13,4.12-1.53.52-2.77.93-3.63,1.22-.42.14-.75.25-.98.32-.11.03-.19.06-.26.08-.06.02-.09.03-.09.02Z" fill="#ff4f5b"/></g></g><g><rect width="36.68" height="14.26" rx="0" ry="0" transform="translate(13.53 84.47)" fill="#fff"/><rect width="36.68" height="3.06" rx="0" ry="0" transform="translate(13.53 84.47)" fill="#ff4f5b"/><g><g><rect width="3.62" height="3.62" rx="0" ry="0" transform="translate(15.6 91.34)" fill="#fff"/><path d="M19.22,94.97c0,0,0-.1-.02-.27c0-.19-.01-.44-.02-.74c0-.65-.02-1.55-.03-2.61l.07.07c-1.06,0-2.3,0-3.62.01-.02.02.15-.15.08-.08v0v.06c0,0,0,.06,0,.06v.12c0,0,0,.25,0,.25c0,.16,0,.32,0,.48c0,.32,0,.63,0,.94c0,.61,0,1.18,0,1.71l-.07-.07c1.06.01,1.95.03,2.61.03.3,0,.55.01.74.02.17,0,.27.01.27.02c0,0-.08,0-.25.02-.19,0-.43.01-.73.02-.63.01-1.55.03-2.65.03h-.07c0,0,0-.07,0-.07c0-.53,0-1.1,0-1.71c0-.3,0-.62,0-.94c0-.16,0-.32,0-.48v-.25c0,0,0-.12,0-.12v-.11v0c-.07.05.09-.11.08-.09c1.32,0,2.56,0,3.62.01h.07c0,0,0,.07,0,.07c0,1.1-.02,2.02-.03,2.65c0,.3-.01.54-.02.73c0,.17-.01.25-.02.25Z" fill="#1a2e35"/></g><g><line x1="19.22" y1="91.34" x2="15.6" y2="94.97" fill="#fafafa"/><path d="M15.6,94.97c0,0,.76-.87,1.76-1.87s1.84-1.79,1.87-1.76-.76.87-1.76,1.87-1.84,1.79-1.87,1.76Z" fill="#ff4f5b"/></g></g><rect width="3.62" height="3.62" rx="0" ry="0" transform="translate(20.31 91.34)" fill="#1a2e35"/><rect width="3.62" height="3.62" rx="0" ry="0" transform="translate(25.03 91.34)" fill="#375a64"/><rect width="3.62" height="3.62" rx="0" ry="0" transform="translate(29.74 91.34)" fill="#ff4f5b"/><rect width="3.62" height="3.62" rx="0" ry="0" transform="translate(34.46 91.34)" fill="#ff4f5b"/><g opacity="0.5"><rect width="3.62" height="3.62" rx="0" ry="0" transform="translate(34.46 91.34)" fill="#fff"/></g><rect width="3.62" height="3.62" rx="0" ry="0" transform="translate(39.18 91.34)" fill="#ff4f5b"/><g opacity="0.3"><rect width="3.62" height="3.62" rx="0" ry="0" transform="translate(39.18 91.34)"/></g><rect width="3.62" height="3.62" rx="0" ry="0" transform="translate(43.89 91.34)" fill="#ff4f5b"/><g opacity="0.7"><rect width="3.62" height="3.62" rx="0" ry="0" transform="translate(43.89 91.34)"/></g><path d="M50.21,98.73c0,0,0-.09,0-.25c0-.17,0-.42,0-.74c0-.65,0-1.6-.01-2.83c0-2.46-.02-6.02-.03-10.43l.05.05c-9.21,0-22.24.01-36.68.02v0l.08-.08c0,4.99,0,9.8,0,14.26l-.07-.07c10.61.01,19.77.03,26.28.03c3.26,0,5.85.02,7.64.02.89,0,1.58,0,2.05,0c.23,0,.41,0,.53,0s.18,0,.18,0-.06,0-.17,0c-.12,0-.29,0-.52,0-.47,0-1.15,0-2.03,0-1.78,0-4.37.01-7.62.02-6.52,0-15.7.02-26.33.03h-.07c0,0,0-.07,0-.07c0-4.46,0-9.27,0-14.26v-.08c0,0,.08,0,.08,0v0c14.44,0,27.47.02,36.68.02h.05c0,0,0,.05,0,.05-.01,4.43-.02,8-.03,10.47c0,1.22-.01,2.17-.01,2.82c0,.32,0,.56,0,.73c0,.16,0,.24,0,.24Z" fill="#1a2e35"/></g><g><g><rect width="58.69" height="22.85" rx="0" ry="0" transform="translate(130.52 99.66)" fill="#fff"/><path d="M189.2,122.51c0,0,0-.14,0-.4c0-.27,0-.66,0-1.18c0-1.04,0-2.56-.01-4.53c0-3.94-.01-9.64-.02-16.73l.04.04c-14.73,0-35.59.01-58.68.02v0l.06-.06c0,7.99,0,15.71,0,22.85l-.06-.06c16.99.01,31.65.02,42.07.03c5.21,0,9.36.01,12.21.02c1.42,0,2.52,0,3.27,0c.37,0,.65,0,.85,0c.19,0,.29,0,.29,0s-.09,0-.28,0-.47,0-.84,0c-.74,0-1.84,0-3.26,0-2.85,0-6.99,0-12.2.02-10.43,0-25.11.02-42.11.03h-.06c0,0,0-.06,0-.06c0-7.14,0-14.86,0-22.85v-.06h.07c23.1,0,43.95.01,58.68.02h.04c0,0,0,.04,0,.04-.01,7.1-.02,12.82-.02,16.76c0,1.97,0,3.49-.01,4.52c0,.51,0,.91,0,1.17s0,.4,0,.4Z" fill="#1a2e35"/></g><rect width="55.6" height="4.96" rx="0" ry="0" transform="translate(131.93 101)" fill="#375a64"/><rect width="35.95" height="1.42" rx="0" ry="0" transform="translate(131.93 107.17)" fill="#375a64"/><rect width="35.95" height="1.42" rx="0" ry="0" transform="translate(147.44 109.58)" fill="#1a2e35"/><rect width="17.3" height="1.42" rx="0" ry="0" transform="translate(131.93 111.93)" fill="#ff4f5b"/><rect width="26.8" height="1.42" rx="0" ry="0" transform="translate(131.93 118.84)" fill="#ff4f5b"/><rect width="7.49" height="1.42" rx="0" ry="0" transform="translate(162.05 111.93)" fill="#ff4f5b"/><rect width="7.91" height="1.42" rx="0" ry="0" transform="translate(179.62 111.93)" fill="#ff4f5b"/><g><path d="M141.24,107.88c0,.39-.32.71-.71.71s-.71-.32-.71-.71.32-.71.71-.71.71.32.71.71Z" fill="#e1e1e1"/><path d="M140.53,108.71c-.46,0-.83-.37-.83-.83s.37-.83.83-.83.83.37.83.83-.37.83-.83.83Zm0-1.42c-.32,0-.58.26-.58.58s.26.58.58.58.58-.26.58-.58-.26-.58-.58-.58Z" fill="#1a2e35"/></g><g><path d="M156.32,110.26c0,.39-.32.71-.71.71s-.71-.32-.71-.71.32-.71.71-.71.71.32.71.71Z" fill="#e1e1e1"/><path d="M155.61,111.09c-.46,0-.83-.37-.83-.83s.37-.83.83-.83.83.37.83.83-.37.83-.83.83Zm0-1.42c-.32,0-.58.26-.58.58s.26.58.58.58.58-.26.58-.58-.26-.58-.58-.58Z" fill="#1a2e35"/></g><g><path d="M165.79,107.81c0,.39-.32.71-.71.71s-.71-.32-.71-.71.32-.71.71-.71.71.32.71.71Z" fill="#e1e1e1"/><path d="M165.08,108.64c-.46,0-.83-.37-.83-.83s.37-.83.83-.83.83.37.83.83-.37.83-.83.83Zm0-1.42c-.32,0-.58.26-.58.58s.26.58.58.58.58-.26.58-.58-.26-.58-.58-.58Z" fill="#1a2e35"/></g><rect width="46.98" height="1.42" rx="0" ry="0" transform="translate(131.93 115.1)" fill="#375a64"/><g><path d="M141.24,115.8c0,.39-.32.71-.71.71s-.71-.32-.71-.71.32-.71.71-.71.71.32.71.71Z" fill="#e1e1e1"/><path d="M140.53,116.64c-.46,0-.83-.37-.83-.83s.37-.83.83-.83.83.37.83.83-.37.83-.83.83Zm0-1.42c-.32,0-.58.26-.58.58s.26.58.58.58.58-.26.58-.58-.26-.58-.58-.58Z" fill="#1a2e35"/></g><g><path d="M165.79,115.73c0,.39-.32.71-.71.71s-.71-.32-.71-.71.32-.71.71-.71.71.32.71.71Z" fill="#e1e1e1"/><path d="M165.08,116.56c-.46,0-.83-.37-.83-.83s.37-.83.83-.83.83.37.83.83-.37.83-.83.83Zm0-1.42c-.32,0-.58.26-.58.58s.26.58.58.58.58-.26.58-.58-.26-.58-.58-.58Z" fill="#1a2e35"/></g><g><path d="M178.11,110.29c0,.39-.32.71-.71.71s-.71-.32-.71-.71.32-.71.71-.71.71.32.71.71Z" fill="#e1e1e1"/><path d="M177.4,111.12c-.46,0-.83-.37-.83-.83s.37-.83.83-.83.83.37.83.83-.37.83-.83.83Zm0-1.42c-.32,0-.58.26-.58.58s.26.58.58.58.58-.26.58-.58-.26-.58-.58-.58Z" fill="#1a2e35"/></g><g><path d="M147.06,112.63c0,.39-.32.71-.71.71s-.71-.32-.71-.71.32-.71.71-.71.71.32.71.71Z" fill="#e1e1e1"/><path d="M146.35,113.47c-.46,0-.83-.37-.83-.83s.37-.83.83-.83.83.37.83.83-.37.83-.83.83Zm0-1.42c-.32,0-.58.26-.58.58s.26.58.58.58.58-.26.58-.58-.26-.58-.58-.58Z" fill="#1a2e35"/></g><g><path d="M156.8,119.63c0,.39-.32.71-.71.71s-.71-.32-.71-.71.32-.71.71-.71.71.32.71.71Z" fill="#e1e1e1"/><path d="M156.09,120.47c-.46,0-.83-.37-.83-.83s.37-.83.83-.83.83.37.83.83-.37.83-.83.83Zm0-1.42c-.32,0-.58.26-.58.58s.26.58.58.58.58-.26.58-.58-.26-.58-.58-.58Z" fill="#1a2e35"/></g><g id="eQ4ajCyt08x316_to" transform="translate(131.93,111.628828)"><g transform="translate(-137.005005,-111.360001)"><g><polygon points="136.27,102.53 136.27,103.9 137,104.61 137.74,103.9 137.74,102.53 136.27,102.53" fill="#ff4f5b"/><path d="M136.27,102.53c0,0,.13-.02.39-.03.25-.01.63-.02,1.09-.03h.05c0,0,0,.05,0,.05c0,.41,0,.87,0,1.37v.03c0,0-.02.02-.02.02-.07.06-.14.13-.21.2-.18.18-.36.35-.53.51l-.04.04-.04-.04c-.26-.26-.51-.5-.73-.72l-.02-.02v-.02c0-.43.02-.77.03-1.01s.02-.37.03-.36.02.15.03.39c0,.24.02.58.03.98l-.02-.04c.23.22.48.45.74.71h-.09c.17-.17.34-.34.53-.51.07-.07.14-.14.21-.2l-.02.05c0-.5,0-.96,0-1.37l.05.05c-.43,0-.79-.02-1.05-.03s-.41-.02-.42-.03Z" fill="#1a2e35"/></g><path d="M137,120.25c0,0-.06-3.5-.06-7.82s.03-7.82.06-7.82.06,3.5.06,7.82-.03,7.82-.06,7.82Z" fill="#1a2e35"/></g></g></g><g><g><g><rect width="22.35" height="28.9" rx="0" ry="0" transform="translate(139.59 43.74)" fill="#fff"/><path d="M161.94,72.63c0,0,0-.05,0-.14s0-.23,0-.41c0-.36,0-.89,0-1.57c0-1.37,0-3.38-.02-5.92c0-5.08-.02-12.3-.03-20.86l.06.06c-6.68,0-14.3,0-22.35,0v0l.06-.06c0,10.73,0,20.69-.01,28.9l-.05-.05c6.74.01,12.32.02,16.22.03c1.95,0,3.48.01,4.52.01.52,0,.92,0,1.19,0s.41,0,.41,0-.13,0-.4,0-.67,0-1.18,0c-1.04,0-2.57,0-4.51.01-3.91,0-9.5.02-16.26.03h-.05c0,0,0-.05,0-.05c0-8.21,0-18.17-.01-28.9v-.06c0,0,.06,0,.06,0v0c8.05,0,15.67,0,22.35,0h.06v.06c-.01,8.58-.02,15.81-.03,20.9c0,2.54-.01,4.54-.02,5.91c0,.68,0,1.2,0,1.56c0,.17,0,.31,0,.4s0,.13,0,.13Z" fill="#1a2e35"/></g><polygon points="139.54,46.46 155.94,46.46 155.94,45.48 161.94,45.48 161.94,43.74 139.59,43.74 139.54,46.46" fill="#ff4f5b"/><rect width="13.65" height="15.05" rx="0" ry="0" transform="translate(140.92 47.8)" fill="#e1e1e1"/><rect width="2.65" height="0.63" rx="0" ry="0" transform="translate(158.26 49.61)" fill="#1a2e35"/><rect width="2.65" height="0.63" rx="0" ry="0" transform="translate(158.26 52.25)" fill="#1a2e35"/><rect width="2.65" height="0.63" rx="0" ry="0" transform="translate(158.26 54.95)" fill="#1a2e35"/><rect width="18.52" height="1.68" rx="0" ry="0" transform="translate(141.11 64.13)" fill="#1a2e35"/><rect width="18.52" height="1.68" rx="0" ry="0" transform="translate(141.11 66.78)" fill="#e1e1e1"/><rect width="18.52" height="1.68" rx="0" ry="0" transform="translate(141.11 69.36)" fill="#ececec"/><rect width="1.7" height="1.7" rx="0" ry="0" transform="translate(155.56 49.07)" fill="#e1e1e1"/><rect width="1.7" height="1.7" rx="0" ry="0" transform="translate(155.56 51.67)" fill="#ececec"/><rect width="1.7" height="1.7" rx="0" ry="0" transform="translate(155.56 54.3)" fill="#f5f5f5"/></g><g><path d="M141.76,45.19c0,.23-.19.42-.42.42s-.42-.19-.42-.42.19-.42.42-.42.42.19.42.42Z" fill="#fff"/><path d="M141.34,45.62c-.24,0-.43-.19-.43-.43s.19-.43.43-.43.43.19.43.43-.19.43-.43.43Zm0-.84c-.23,0-.42.19-.42.42s.19.42.42.42.42-.19.42-.42-.19-.42-.42-.42Z" fill="#1a2e35"/></g><g><path d="M143.12,45.19c0,.23-.19.42-.42.42s-.42-.19-.42-.42.19-.42.42-.42.42.19.42.42Z" fill="#fff"/><path d="M142.7,45.62c-.24,0-.43-.19-.43-.43s.19-.43.43-.43.43.19.43.43-.19.43-.43.43Zm0-.84c-.23,0-.42.19-.42.42s.19.42.42.42.42-.19.42-.42-.19-.42-.42-.42Z" fill="#1a2e35"/></g><g><path d="M144.49,45.19c0,.23-.19.42-.42.42s-.42-.19-.42-.42.19-.42.42-.42.42.19.42.42Z" fill="#fff"/><path d="M144.07,45.62c-.24,0-.43-.19-.43-.43s.19-.43.43-.43.43.19.43.43-.19.43-.43.43Zm0-.84c-.23,0-.42.19-.42.42s.19.42.42.42.42-.19.42-.42-.19-.42-.42-.42Z" fill="#1a2e35"/></g></g><polygon points="138.11,83.08 139.51,90.51 140.66,88.44 143.13,92.14 144.36,91.31 141.89,87.6 144.16,87.26 138.11,83.08" fill="#1a2e35"/><g id="eQ4ajCyt08x347_tr" transform="translate(28.881434,170.845658) rotate(0)"><g transform="translate(-176.873802,-24.084009)"><path d="M189.15,25.54c.65.01,2.16-1.93,3.6-.63.88.8-.19,4.98-2.83,5.16-1.1.07-1.55-1.55-1.55-1.59" fill="#faa181" stroke="#a54a2f" stroke-width="8.14" stroke-linecap="round" stroke-linejoin="round"/><path d="M189.84,27.66c.29-1.63,1.84-2.12,2.51-2.22-1.01.95-1.78,3.65-1.7,4.16" fill="#f26e4e"/><g><path d="M180.82,40.93c-.06,0-.12,0-.18,0-2.05-.05-4.15-.52-6.22-1.39-1.98-.83-3.89-2.03-5.5-3.45-1.64-1.45-2.99-3.14-3.9-4.9-.98-1.9-1.46-3.83-1.42-5.76.05-2.46.49-4.69,1.3-6.61.75-1.77,1.81-3.29,3.15-4.52c2.41-2.2,5.7-3.41,9.27-3.41c4.82,0,9.27,2.18,11.34,5.57c2.66,3.8,2.58,8.83,2.53,11.25c0,.51-.02.91,0,1.16.34,4.15-1.35,6.92-2.82,8.52-2.01,2.19-4.91,3.54-7.55,3.54Z" fill="#faa181"/><path d="M177.31,11c4.6,0,9.11,2.04,11.23,5.51c3.2,4.56,2.4,10.89,2.52,12.36.63,7.62-5.66,11.93-10.25,11.93-.06,0-.12,0-.18,0-8.32-.21-17.09-7.5-16.92-15.37.22-10.23,7-14.42,13.6-14.42m0-.25v0c-3.61,0-6.93,1.22-9.36,3.44-1.36,1.24-2.43,2.78-3.18,4.57-.82,1.94-1.26,4.18-1.31,6.66-.04,1.94.44,3.9,1.43,5.82.92,1.77,2.28,3.48,3.93,4.94c1.62,1.43,3.54,2.63,5.54,3.47c2.09.88,4.2,1.35,6.27,1.4.06,0,.13,0,.19,0c1.27,0,2.64-.32,3.96-.92c1.39-.63,2.66-1.55,3.69-2.67c1-1.09,1.76-2.34,2.25-3.72.54-1.52.74-3.17.6-4.9-.02-.24-.01-.64,0-1.15.04-2.43.13-7.49-2.56-11.33-1.05-1.71-2.71-3.14-4.79-4.14-2.02-.97-4.32-1.48-6.66-1.48v0Z" fill="#a54a2f"/></g><path d="M166.59,29.24c-.91-.67-4.03-3.19-5.58-1.42-1.19,1.36,1.19,5.68,3.86,5.95c1.38.14,2.02-1.71,2.03-1.76" fill="#faa181" stroke="#a54a2f" stroke-width="8.14" stroke-linecap="round" stroke-linejoin="round"/><path d="M170.11,24.13c-1.54,5.74,1.38,15.62,12.19,15.65c4.6.01,9.72-5.78,8.36-12.04-.23-1.07.44-2.65-.79-6.13-.77-1.18-1.95-2.02-1.95-2.02.35,1.39-.43,2.48-1.12,2.55s-3.3-1.63-3.91-3.25c-.94,2.75-3.06,3.48-4.05,3.3-.98-.17-1.89-2.62-3.82-4.02-3.25.26-4.4,4.09-4.9,5.96Z" fill="#ffc599"/><path d="M182.16,29.44c-.52.35-.26,1.28.38.84.62-.42.4-1.36-.38-.84Z" fill="#ffe0b6"/><path d="M187.5,20.46c-.53,0-1.67,1.69-1.19,1.58c2.35-.56,3.14.28,3.25.02.22-.53-1.38-1.61-2.06-1.6Z" fill="#381a12"/><path d="M175.29,19.77c.66-.13,2.11.79,2.08,1.19-.02.39-2.1-.45-5.14,1.39.1-1.1,2.37-2.44,3.06-2.58Z" fill="#381a12"/><path d="M179.3,28.15c.52-.73-.24-4.14-3.53-3.91-2.8.19-3.17,3.03-2.99,3.64c1.32,1.85,5.51,1.69,6.52.26Z" fill="#fccaca"/><path d="M178.76,28.29c.7-.81.01-2.92-2.9-2.98-2.92-.06-2.85,1.99-2.59,2.68c1.17,1.64,4.47,1.46,5.49.29Z" fill="#fff"/><g><path d="M177.37,25.41c.58.94.57,2.79-1.82,3.12-2.2.31-2.89-1.44-2.49-2.44s3.5-1.99,4.31-.68Z" fill="#559ac4"/><path d="M174.67,24.53c2.69-.85,3.87,3.38.83,3.75-2.33.29-3.24-2.98-.83-3.75Z" fill="#001826"/><path d="M177.53,28.13c.23-.44-.76-1-1.05-.71-.28.29.7,1.37,1.05.71Z" fill="#fff"/></g><path d="M172.83,27.56c-.16-.62.21-2.67,3.37-2.67c1.57,0,3.04.83,3.23,1.97-.24-1.41-1.11-2.63-3.74-2.56-2.63.08-3.72,2.34-3.23,3.24.83,1.58,3.16,2.11,4.96,1.59-1.64.37-3.87-.2-4.59-1.58Z" fill="#381a12"/><path d="M185.18,28.01c-.46-.74.12-4.12,2.82-4.03c2.37.08,2.78,2.45,2.31,3.53-.92,2.13-4.23,1.95-5.14.5Z" fill="#fccaca"/><path d="M185.24,28.12c-.42-.67.3-2.9,2.04-3.02c2.45-.18,3.12,1.83,2.51,2.91-.84,1.49-3.72,1.43-4.55.11Z" fill="#fff"/><path d="M185.21,26.04c.14-1.11.82-2.57,2.66-2.57c2,0,2.83,2.11,2.73,3.69-.24-1.42-1.26-2.25-2.44-2.54s-2.7.29-2.95,1.42Z" fill="#fc8d70"/><path d="M187.91,24.27c-2.26-.12-2.16.38-.1.46c2.27.08,2.67,1.86,2.49,2.84-.3.74-1.16,1.3-1.92,1.49.91-.17,1.82-.6,2.22-1.54.28-.93-.12-3.1-2.69-3.24Z" fill="#381a12"/><path d="M163.23,21.34c-1.07,2.06-1.76,4.22-.46,5.69c0,0,2.73.79,4.01,3.85c0,0,.56.41,1.53.08-1.12-3.42-.76-9.72,2.42-11.96-1.37.19-3.78,2.31-4.17,4.23" fill="#160f13" stroke="#000" stroke-width="8.14" stroke-linecap="round" stroke-linejoin="round"/><path d="M181.31,15.39c1.77.75,1.65,4.16,1.08,5.35c1.28-1.21,1.9-3.86-.69-5.58" fill="#160f13"/><g><path d="M183.44,30.26c.51.15.54.41,1.09.61.73.27.2.75-.58.8-.78.06-1.61.11-2.39.02s-.52-.69.1-.85c.46-.12,1.18-.77,1.79-.58Z" fill="#ffad8d"/><path d="M183.84,31.07c.13-.16.99,0,.89.18-.17.3-1.16.15-.89-.18Z" fill="#ce6c4e"/><path d="M180.99,29.84c-.79.5-.89,1.73.42,1.82.41.07-.02-.36-.02-.36-.64-.22-.66-.61-.4-1.47Z" fill="#ffad8d"/><path d="M182.23,31.09c-.17-.18-1.1.07-.98.26.18.29,1.27.05.98-.26Z" fill="#ce6c4e"/></g><path d="M165.42,30.36c-1.66-1.71-3.52-2.05-4.2-1.2c1.14.21,3.15,1.31,3.23,1.89-.59.82.47,1.41.97,1.34-1.35-.99,0-2.03,0-2.03Z" fill="#f26e4e"/><path d="M165.21,29.3c-.85-1.53-2.45-2.78-3.89-1.77-.46.48-.32.92-.32.92.41-.56,2.46-.27,4.21.85Z" fill="#ffc599"/><path d="M185.26,9.31c-8.48-4.45-18.12-1.51-19.38,3.1-3.82-1.2-6.74,9.81-3.58,13.86c0,0,3.44-.32,6.02,4.69-3.28-7.88,1.31-13.03,4.01-14.75c0,0-.4-.54-1.61-1.14c2.84.64,7.72,5.84,9.34,5.8c1.24-.03,3.09-3.19,2.05-5.33c0,0,3.58,5.72,4.69,5.55c1.12-.17,1.53-2.96-.63-4.86c0,0,4.21,1.69,4.66,6.41c2.73-2.12,2.42-9.14-5.56-13.33Z" fill="#160f13" stroke="#000" stroke-width="8.14" stroke-linecap="round" stroke-linejoin="round"/><path d="M166.79,12.95c-1.05-1.26-.45-2.96-.04-3.39-.91-.34-1.64,1.3-1.26,2.07-1.67-1.23-2.71.11-3.01.92c1-.66,2.78-.19,3.1.41" fill="#160f13" stroke="#000" stroke-width="8.14" stroke-linecap="round" stroke-linejoin="round"/><path d="M168.19,13.2c6.12.84,10.88,5.39,12.76,6.21c0-2.33-2.84-5.89-5.04-6.38c3.7.34,6.26,4.44,6.13,5.17.33-4.39-4.2-7.39-7.73-7.11c6.7-.54,9.58,6.21,12.41,8.26.43-1.92-1.58-9.28-10.16-11.66-5.46-1.51-9.13,2.86-9.62,3.63c1.5-.97,4.85-.1,6.2.9-2.08-.39-4.48.58-4.95.98Z" fill="#2d2025"/><path d="M171.31,16.41c-3.26,1.11-6.09,7.97-4.97,12.04-1.4-2-2.49-6.3-1.78-8.57-1.27,1.24-2.61,3.31-2.07,5.16-.71-1.26-3.1-6.89,1.93-10.94c1.15-.35,2.61.51,2.61.51-1.94.72-2.95,2.5-3.72,4.91c1.53-2.29,3.59-3.9,4.88-3.99c1.29-.1,3.12.88,3.12.88Z" fill="#2d2025"/><path d="M181.62,8.86c3.03,1.45,5.42,3.86,8.01,8.31c2.35-2.15-1.66-6.87-8.01-8.31Z" fill="#2d2025"/><g><path d="M176.77,32.54c-.82.37-.06,1,.98,1.04-.36-.33-.05-1.46-.98-1.04Z" fill="#faa181"/><path d="M187.15,33.46c.6.67.02.9-1.01.71.42-.25.46-1.32,1.01-.71Z" fill="#faa181"/><path d="M182.93,34.83l-4.62-.96c0,0,2.59,1.99,4.45,1.99c1.5,0,2.36-.92,3.28-1.68-.63.22-2.48.58-3.11.65Z" fill="#f27f7c"/><path d="M183.33,34.16c-.61.22-.68-.14-1.7-.21-1.08-.07-2.97,0-4.03-.47c1.99.97,3.85,1.42,5.38,1.42c1.36,0,2.44-.39,3.19-.77-1.1.18-1.71-.38-2.83.03Z" fill="#e8524a"/><path d="M185.36,34.44c.51-.21,1.05-.39,1.22-.66.11-.17.23-.26.31-.12.2.33-.4.54-1.53.78" fill="#c13a36"/><path d="M177.1,32.85c-.62.23.28.85,2.78,1.49-1.25-.41-2.18-.75-2.44-1.11-.22-.29-.13-.46-.33-.38Z" fill="#c13a36"/></g><g><path d="M188.84,25.11c.55.94.85,3.04-1.44,3.38-1.34.2-2.12-.47-2.41-1.25-.06-.51.07-1.25.21-1.62.39-1,2.87-1.82,3.64-.51Z" fill="#559ac4"/><path d="M186.34,24.4c2.52-.86,3.62,3.37.77,3.75-2.18.29-3.03-2.98-.77-3.75Z" fill="#001826"/><path d="M189.27,27.79c.17-.46-.85-.87-1.09-.54s.83,1.25,1.09.54Z" fill="#fff"/></g><g><path d="M179.36,26.62c.13-2.4-1.82-3.74-3.95-3.48-1.93.24-2.91,1.7-3.08,2.86c1.97-2.01,5-1.3,6.34-.46.27.17.61.86.69,1.07Z" fill="#f98169"/><path d="M174.19,24.84c2.94-.34,4.54.7,4.63.48.19-.45-.57-1.83-2.16-2.04s-2.64.85-2.47,1.57Z" fill="#faa181"/><path d="M179.41,26.86c-.02-.68-.33-1.22-.85-1.54-1.89-1.17-4.75-1.33-6.75.35.12.28.8.71.8.71c1.08-1.75,3.82-1.86,5.98-.73.75.52.83,1.21.83,1.21Z" fill="#381a12"/></g><g><path d="M185.04,26.36c0-1.31.43-2.32,1.18-2.79c1.83-.97,4.1.13,4.26,2.16-1.76-.9-2.55-1.5-4.64-.74-.8.29-.8,1.37-.8,1.37Z" fill="#f98169"/><path d="M189.33,24.93c-.11.4-1.17-.95-3.79.27-.17-.45.19-1.57,1.43-1.75c1.55-.22,2.55.76,2.36,1.48Z" fill="#faa181"/><path d="M185.02,27.43c-.19-.74-.05-1.75.16-2.12.88-1.47,3.92-1.19,5.96.31-.05.28-.75.33-.75.33-1.25-1.08-3.67-1.71-4.99-.41-.43.5-.38,1.89-.38,1.89Z" fill="#381a12"/></g><path d="M174.53,26.29c-.49-.79-1.18-.2-.25.85c1.37-.35,1.1-1.23.25-.85Z" opacity="0.6" fill="#ff95b4"/><path d="M186.32,26.16c-.52-.78-1.2-.17-.23.87c1.37-.4,1.06-1.28.23-.87Z" opacity="0.6" fill="#ff95b4"/></g></g><g id="eQ4ajCyt08x404_tr" transform="translate(167.88031,160.741692) rotate(43.040456)"><g transform="translate(-167.88031,-160.741692)"><path d="M152.45,162.58c-.82.01-2.71-2.43-4.52-.8-1.11,1,.24,6.26,3.56,6.48c1.38.09,1.95-1.94,1.95-2" fill="#faa181" stroke="#a54a2f" stroke-width="8.14" stroke-linecap="round" stroke-linejoin="round"/><path d="M151.57,165.24c-.36-2.05-2.31-2.66-3.16-2.79c1.27,1.19,2.23,4.59,2.13,5.22" fill="#f26e4e"/><g><path d="M162.72,181.91c.08,0,.16,0,.23,0c5.33-.14,10.81-2.35,15.02-6.09c2.05-1.81,3.72-3.94,4.85-6.16c1.2-2.37,1.79-4.81,1.74-7.23-.07-3.09-.62-5.89-1.63-8.31-.94-2.23-2.27-4.14-3.96-5.68-3.02-2.76-7.16-4.28-11.65-4.28-6.05,0-11.64,2.74-14.25,6.99-3.35,4.77-3.24,11.1-3.18,14.14.01.64.02,1.15,0,1.46-.43,5.28,1.69,8.79,3.55,10.81c2.48,2.69,6.04,4.36,9.29,4.36Z" fill="#faa181"/><path d="M167.32,144.31c8.28,0,16.81,5.27,17.08,18.12.21,9.91-10.48,19.03-21.45,19.31-.08,0-.15,0-.23,0-5.76,0-13.47-5.42-12.68-14.99.15-1.84-.86-9.79,3.17-15.53c2.67-4.35,8.33-6.92,14.11-6.92m0-.32c-2.94,0-5.83.64-8.36,1.86-2.62,1.26-4.7,3.06-6.02,5.21-3.37,4.82-3.26,11.17-3.21,14.23.01.64.02,1.14,0,1.44-.18,2.2.07,4.3.75,6.23.62,1.75,1.57,3.33,2.83,4.7c2.5,2.72,6.11,4.41,9.41,4.41.08,0,.16,0,.24,0c5.37-.14,10.88-2.37,15.13-6.13c2.06-1.82,3.75-3.97,4.89-6.2c1.22-2.4,1.81-4.86,1.75-7.31-.07-3.11-.62-5.93-1.65-8.37-.95-2.25-2.29-4.18-4-5.74-3.05-2.79-7.23-4.33-11.76-4.33v0Z" fill="#a54a2f"/></g><path d="M180.79,167.22c1.15-.84,5.06-4.01,7.01-1.78c1.49,1.71-1.29,7.14-4.66,7.48-1.73.17-2.74-2.15-2.74-2.21" fill="#faa181" stroke="#a54a2f" stroke-width="8.14" stroke-linecap="round" stroke-linejoin="round"/><path d="M176.37,160.8c1.94,7.21-1.41,19.62-15.51,19.66-5.78.02-12.02-7.27-10.31-15.12.29-1.35-.55-3.32,1-7.7.97-1.48,2.45-2.54,2.45-2.54-.44,1.74.54,3.11,1.41,3.2s4.14-2.05,4.91-4.08c1.18,3.45,3.85,4.37,5.08,4.15s2.38-3.29,4.8-5.05c4.08.32,5.53,5.15,6.16,7.49Z" fill="#ffc599"/><path d="M161.19,165.72c.66.44.32,1.6-.48,1.05-.77-.53-.5-1.71.48-1.05Z" fill="#ffe0b6"/><path d="M169.31,155.02c-.85.07-2.33,1.5-2.31,1.99s2.65-.55,6.45,1.79c-.11-1.39-2.85-3.88-4.15-3.78Z" fill="#381a12"/><path d="M185.02,157.3c1.35,2.59,2.21,5.3.57,7.15c0,0-3.43,1-5.04,4.84c0,0-.7.51-1.92.1c1.4-4.3.95-12.21-3.04-15.02c1.72.24,4.75,2.91,5.24,5.32" fill="#160f13" stroke="#000" stroke-width="8.14" stroke-linecap="round" stroke-linejoin="round"/><path d="M162.3,149.82c-2.23.94-2.07,5.23-1.36,6.72-1.6-1.52-2.38-4.85.87-7.01" fill="#160f13"/><g><path d="M159.62,166.74c-.65.19-.68.51-1.37.76-.92.33-.25.94.73,1.01.99.07,2.02.14,3,.03s.65-.86-.12-1.07c-.57-.16-1.48-.96-2.25-.73Z" fill="#ffad8d"/><path d="M159.12,167.75c-.17-.2-1.24,0-1.12.22.21.38,1.46.19,1.12-.22Z" fill="#ce6c4e"/><path d="M162.69,166.22c.99.63,1.12,2.17-.53,2.29-.51.09.03-.45.03-.45.8-.28.83-.77.5-1.84Z" fill="#ffad8d"/><path d="M161.14,167.78c.21-.22,1.38.09,1.23.33-.23.37-1.6.06-1.23-.33Z" fill="#ce6c4e"/></g><path d="M182.26,168.63c2.09-2.15,4.42-2.57,5.27-1.5-1.43.27-3.95,1.64-4.06,2.38.74,1.02-.59,1.78-1.21,1.68c1.69-1.24,0-2.55,0-2.55Z" fill="#f26e4e"/><path d="M152.79,155.64c.71-.28,3.14,1.3,2.44,1.42-3.41.57-3.98,2.11-4.27,1.83-.58-.58.93-2.89,1.83-3.25Z" fill="#381a12"/><path d="M182.52,167.3c1.06-1.92,3.07-3.49,4.88-2.22.57.6.4,1.15.4,1.15-.51-.7-3.09-.34-5.29,1.07Z" fill="#ffc599"/><path d="M157.34,142.19c10.65-5.59,22.76-1.9,24.35,3.9c4.8-1.5,8.47,12.32,4.5,17.41c0,0-4.33-.4-7.56,5.89c4.12-9.9-1.65-16.38-5.04-18.53c0,0,.5-.68,2.03-1.44-3.57.8-9.7,7.34-11.73,7.29-1.56-.04-3.89-4.01-2.57-6.7c0,0-4.5,7.18-5.9,6.98-1.4-.21-1.92-3.72.79-6.11c0,0-5.29,2.13-5.86,8.05-3.44-2.67-3.04-11.48,6.99-16.75Z" fill="#160f13" stroke="#000" stroke-width="8.14" stroke-linecap="round" stroke-linejoin="round"/><path d="M180.54,146.76c1.32-1.58.56-3.71.05-4.26c1.15-.42,2.06,1.63,1.58,2.61c2.1-1.54,3.4.13,3.78,1.16-1.26-.82-3.49-.24-3.9.51" fill="#160f13" stroke="#000" stroke-width="8.14" stroke-linecap="round" stroke-linejoin="round"/><path d="M178.78,147.07c-7.69,1.06-13.66,6.78-16.03,7.8c0-2.92,3.57-7.4,6.33-8.02-4.65.42-7.87,5.58-7.7,6.5-.42-5.51,5.28-9.28,9.71-8.93-8.42-.68-12.04,7.81-15.6,10.37-.54-2.41,1.99-11.66,12.76-14.65c6.86-1.9,11.47,3.6,12.09,4.56-1.88-1.22-6.09-.12-7.8,1.13c2.61-.49,5.63.73,6.22,1.23Z" fill="#2d2025"/><path d="M174.86,151.1c4.09,1.4,7.65,10.01,6.24,15.13c1.76-2.51,3.13-7.91,2.23-10.77c1.6,1.55,3.28,4.16,2.6,6.49.9-1.59,3.9-8.65-2.42-13.74-1.45-.44-3.27.64-3.27.64c2.43.9,3.71,3.15,4.68,6.17-1.92-2.88-4.52-4.9-6.13-5.02-1.62-.12-3.92,1.11-3.92,1.11Z" fill="#2d2025"/><path d="M161.91,141.62c-3.81,1.82-6.81,4.85-10.06,10.44-2.96-2.71,2.08-8.63,10.06-10.44Z" fill="#2d2025"/><g><path d="M168.7,171.45c1.07.82-.22,1.51-1.76,1.21.63-.37.53-2.15,1.76-1.21Z" fill="#faa181"/><path d="M153.58,171.05c-.75,1.13.15,1.37,1.63.88-.67-.29-.95-1.91-1.63-.88Z" fill="#faa181"/><path d="M154.89,171.93c-.2.03.48.91,1.52,2.67.53.89,1.45,1.38,2.65,1.7c2.22.61,4.77-.02,5.93-1.25.83-.88,2.2-2.45,2.8-2.86.18-.12-2.99-.34-3.24-.42-2.8-.54-6.49-.5-9.67.16Z" fill="#a02727"/><path d="M158.13,172.72c-.43.97,3.05,3.68,5.29,2.8c2.24-.89,2.97-2.96,2.61-3.47-1.21.2-7.52-.19-7.9.67Z" fill="#631111"/><path d="M156.35,171.52c.13.65.99,1.14,3.75,1.21c3.31.09,4.6,0,5.77-.8-2.74-.68-6.77-.7-9.52-.41Z" fill="#e2d0d0"/><g><path d="M160.35,176.06c2.27.06,4.32-.69,5.77-2.19-1.04,1.29-2.85,3.43-5.54,3.34s-4.38-2.39-4.91-3.76c.46.53,2.41,2.54,4.68,2.6Z" fill="#f27f7c"/><path d="M159.34,170.57c.92.37.75-.08,2.22-.04c1.09.03,3.73,1.34,5.85,1.59-1.44.29-4.73-.42-7.36-.43-2.26,0-4,.25-5.16.24c1.68-.42,3.29-1.84,4.45-1.36Z" fill="#e8524a"/></g><path d="M168.28,171.72c.54.71-1.36.83-2.48.44.36-.04,1.21,0,1.81-.27.49-.23.52-.37.68-.17Z" fill="#c13a36"/><path d="M153.97,171.4c.14-.19.3-.15.52.07.34.34,1.06.4,1.86.4-1.74.41-2.74.02-2.38-.47Z" fill="#c13a36"/><path d="M157.11,172.02c.24.74,6.02.99,6.92.13-1.88-.13-5.78-.34-6.92-.13Z" fill="#f2e2e2"/></g><path d="M166.3,161.59c-1.46.71-1.81,2.77.09,1.45c1.91-1.32,4.31-.2,5.26.96s1.51.06.91-.79-3.78-2.83-6.26-1.62Z" fill="#44160a"/><path d="M155.95,161.76c1.26,1.02.91,2.26-.42,1.06-1.27-1.15-3.47-.61-4.49.69-.67.85-.88-.53-.16-1.27.79-.83,3.46-1.78,5.07-.48Z" fill="#44160a"/></g></g></g></svg>
