<?xml version="1.0" encoding="UTF-8"?>
<svg xmlns="http://www.w3.org/2000/svg" xmlns:xlink="http://www.w3.org/1999/xlink" viewBox="0 0 200 200">
  <defs>
    <style>
      .cls-1 {
        fill: #ead8cf;
      }

      .cls-2 {
        fill: #ffd770;
      }

      .cls-3 {
        fill: #9cc7ff;
      }

      .cls-4 {
        filter: url(#drop-shadow-7);
      }

      .cls-5 {
        fill: url(#Degradado_sin_nombre_152-2);
        filter: url(#drop-shadow-4);
      }

      .cls-6 {
        fill: #c5cddb;
      }

      .cls-7, .cls-8, .cls-9 {
        fill: #fff;
      }

      .cls-10 {
        fill: #eea886;
      }

      .cls-11 {
        fill: #78c2ff;
      }

      .cls-12 {
        fill: url(#Degradado_sin_nombre_152-5);
        filter: url(#drop-shadow-10);
      }

      .cls-13 {
        fill: #5c81fe;
      }

      .cls-14 {
        fill: #918682;
      }

      .cls-15 {
        fill: #efaa88;
      }

      .cls-16 {
        fill: #ff8761;
      }

      .cls-17 {
        fill: url(#linear-gradient-4);
      }

      .cls-17, .cls-18, .cls-19, .cls-20, .cls-21 {
        mix-blend-mode: multiply;
      }

      .cls-22 {
        fill: url(#Degradado_sin_nombre_157);
      }

      .cls-23 {
        fill: #ffd670;
      }

      .cls-24 {
        fill: url(#Degradado_sin_nombre_155);
      }

      .cls-25 {
        fill: url(#Degradado_sin_nombre_153);
        filter: url(#drop-shadow-1);
      }

      .cls-26 {
        fill: #ffc700;
      }

      .cls-27 {
        mask: url(#mask-2);
      }

      .cls-28 {
        fill: #323657;
      }

      .cls-29 {
        isolation: isolate;
      }

      .cls-30 {
        fill: #e55353;
      }

      .cls-31 {
        fill: #1e9aff;
      }

      .cls-32 {
        mask: url(#mask-3);
      }

      .cls-33 {
        fill: #e0e0e0;
      }

      .cls-34 {
        fill: #ebebf2;
      }

      .cls-18 {
        fill: url(#linear-gradient-6);
      }

      .cls-35 {
        fill: #da9b5b;
      }

      .cls-36 {
        fill: #4b4ba0;
      }

      .cls-37 {
        fill: #5478b3;
      }

      .cls-38 {
        fill: #3d3d89;
      }

      .cls-39 {
        fill: url(#Degradado_sin_nombre_152-3);
        filter: url(#drop-shadow-6);
      }

      .cls-40 {
        fill: url(#Degradado_sin_nombre_169);
      }

      .cls-41 {
        mask: url(#mask-5);
      }

      .cls-42 {
        fill: #303669;
      }

      .cls-43 {
        fill: #dce6fa;
      }

      .cls-44 {
        fill: #a88d4a;
      }

      .cls-8 {
        filter: url(#drop-shadow-5);
      }

      .cls-45 {
        fill: #444c94;
      }

      .cls-46 {
        fill: url(#Degradado_sin_nombre_154-2);
      }

      .cls-47 {
        fill: #1d3b54;
      }

      .cls-48 {
        fill: #e8734d;
      }

      .cls-49 {
        filter: url(#luminosity-noclip-4);
      }

      .cls-19 {
        fill: #a7c8ff;
      }

      .cls-50 {
        fill: #35527a;
      }

      .cls-51 {
        filter: url(#luminosity-noclip-6);
      }

      .cls-52 {
        filter: url(#drop-shadow-2);
      }

      .cls-53 {
        mask: url(#mask-4);
      }

      .cls-54 {
        fill: url(#Degradado_sin_nombre_152);
        filter: url(#drop-shadow-3);
      }

      .cls-55 {
        fill: url(#linear-gradient-5);
      }

      .cls-20 {
        fill: url(#Degradado_sin_nombre_156);
      }

      .cls-56 {
        fill: #1487e3;
      }

      .cls-57 {
        fill: #293f5e;
      }

      .cls-58 {
        fill: #754836;
      }

      .cls-59 {
        fill: #5b83c2;
      }

      .cls-21 {
        fill: url(#linear-gradient-2);
      }

      .cls-9 {
        opacity: .15;
      }

      .cls-60 {
        fill: #857b77;
      }

      .cls-61 {
        fill: #424773;
      }

      .cls-62 {
        fill: #609ae8;
      }

      .cls-63 {
        fill: url(#linear-gradient-7);
      }

      .cls-64 {
        fill: #a77860;
      }

      .cls-65 {
        filter: url(#drop-shadow-9);
      }

      .cls-66 {
        fill: #292c47;
      }

      .cls-67 {
        fill: #eea987;
      }

      .cls-68 {
        fill: #434343;
      }

      .cls-69 {
        fill: #d7d7e6;
      }

      .cls-70 {
        fill: url(#linear-gradient-9);
      }

      .cls-71 {
        fill: #3a3f47;
      }

      .cls-72 {
        filter: url(#luminosity-noclip-2);
      }

      .cls-73 {
        fill: #2a6993;
      }

      .cls-74 {
        mask: url(#mask-1);
      }

      .cls-75 {
        mask: url(#mask);
      }

      .cls-76 {
        fill: url(#linear-gradient-3);
      }

      .cls-77 {
        fill: #525252;
      }

      .cls-78 {
        fill: url(#Degradado_sin_nombre_152-4);
        filter: url(#drop-shadow-8);
      }

      .cls-79 {
        fill: url(#linear-gradient);
      }

      .cls-80 {
        fill: #e2d2ca;
      }

      .cls-81 {
        fill: #6e6e6e;
      }

      .cls-82 {
        fill: #518afa;
      }

      .cls-83 {
        fill: #49699c;
      }

      .cls-84 {
        fill: url(#linear-gradient-8);
      }

      .cls-85 {
        fill: url(#Degradado_sin_nombre_154);
      }
    </style>
    <linearGradient id="Degradado_sin_nombre_157" data-name="Degradado sin nombre 157" x1="79.07" y1="102.93" x2="87.62" y2="111.49" gradientUnits="userSpaceOnUse">
      <stop offset=".23" stop-color="#a7c8ff"/>
      <stop offset=".45" stop-color="#aacaff"/>
      <stop offset=".67" stop-color="#b6d2ff"/>
      <stop offset=".89" stop-color="#cae0ff"/>
      <stop offset="1" stop-color="#d8e9ff"/>
    </linearGradient>
    <linearGradient id="Degradado_sin_nombre_155" data-name="Degradado sin nombre 155" x1="69.55" y1="76.5" x2="97.14" y2="104.08" gradientUnits="userSpaceOnUse">
      <stop offset="0" stop-color="#d8e9ff"/>
      <stop offset="1" stop-color="#a7c8ff"/>
    </linearGradient>
    <linearGradient id="Degradado_sin_nombre_154" data-name="Degradado sin nombre 154" x1="69.02" y1="74.57" x2="97.74" y2="103.3" gradientUnits="userSpaceOnUse">
      <stop offset="0" stop-color="#562bff"/>
      <stop offset="1" stop-color="#7da5ff"/>
    </linearGradient>
    <linearGradient id="Degradado_sin_nombre_156" data-name="Degradado sin nombre 156" x1="82.49" y1="102.38" x2="84.2" y2="104.08" gradientUnits="userSpaceOnUse">
      <stop offset="0" stop-color="#a7c8ff"/>
      <stop offset="1" stop-color="#d8e9ff"/>
    </linearGradient>
    <linearGradient id="Degradado_sin_nombre_169" data-name="Degradado sin nombre 169" x1="78.31" y1="104.02" x2="88.38" y2="114.09" gradientUnits="userSpaceOnUse">
      <stop offset="0" stop-color="#a7c8ff"/>
      <stop offset="1" stop-color="#73abff"/>
    </linearGradient>
    <linearGradient id="Degradado_sin_nombre_154-2" data-name="Degradado sin nombre 154" x1="94.77" y1="95" x2="109.12" y2="109.35" xlink:href="#Degradado_sin_nombre_154"/>
    <linearGradient id="Degradado_sin_nombre_153" data-name="Degradado sin nombre 153" x1="98.98" y1="99.25" x2="104.9" y2="105.17" gradientUnits="userSpaceOnUse">
      <stop offset="0" stop-color="#35ffff" stop-opacity=".5"/>
      <stop offset="1" stop-color="#35e6bb"/>
    </linearGradient>
    <filter id="drop-shadow-1" filterUnits="userSpaceOnUse">
      <feOffset dx="0" dy="8.89"/>
      <feGaussianBlur result="blur" stdDeviation="5.33"/>
      <feFlood flood-color="#1172d5" flood-opacity=".4"/>
      <feComposite in2="blur" operator="in"/>
      <feComposite in="SourceGraphic"/>
    </filter>
    <filter id="drop-shadow-2" filterUnits="userSpaceOnUse">
      <feOffset dx="0" dy="3.75"/>
      <feGaussianBlur result="blur-2" stdDeviation="3.75"/>
      <feFlood flood-color="#1e85ff" flood-opacity=".4"/>
      <feComposite in2="blur-2" operator="in"/>
      <feComposite in="SourceGraphic"/>
    </filter>
    <linearGradient id="Degradado_sin_nombre_152" data-name="Degradado sin nombre 152" x1="73.93" y1="75.16" x2="90.04" y2="91.27" gradientUnits="userSpaceOnUse">
      <stop offset="0" stop-color="#35c9e2" stop-opacity=".5"/>
      <stop offset="1" stop-color="#35e6bb"/>
    </linearGradient>
    <filter id="drop-shadow-3" filterUnits="userSpaceOnUse">
      <feOffset dx="0" dy="8.89"/>
      <feGaussianBlur result="blur-3" stdDeviation="5.33"/>
      <feFlood flood-color="#1e85ff" flood-opacity=".4"/>
      <feComposite in2="blur-3" operator="in"/>
      <feComposite in="SourceGraphic"/>
    </filter>
    <linearGradient id="Degradado_sin_nombre_152-2" data-name="Degradado sin nombre 152" x1="57.93" y1="82.93" x2="64.96" y2="89.96" xlink:href="#Degradado_sin_nombre_152"/>
    <filter id="drop-shadow-4" filterUnits="userSpaceOnUse">
      <feOffset dx="0" dy="8.89"/>
      <feGaussianBlur result="blur-4" stdDeviation="5.33"/>
      <feFlood flood-color="#1e85ff" flood-opacity=".4"/>
      <feComposite in2="blur-4" operator="in"/>
      <feComposite in="SourceGraphic"/>
    </filter>
    <filter id="drop-shadow-5" filterUnits="userSpaceOnUse">
      <feOffset dx="0" dy="3.75"/>
      <feGaussianBlur result="blur-5" stdDeviation="3.75"/>
      <feFlood flood-color="#1e85ff" flood-opacity=".4"/>
      <feComposite in2="blur-5" operator="in"/>
      <feComposite in="SourceGraphic"/>
    </filter>
    <linearGradient id="Degradado_sin_nombre_152-3" data-name="Degradado sin nombre 152" x1="67.61" y1="93.98" x2="75.66" y2="102.03" xlink:href="#Degradado_sin_nombre_152"/>
    <filter id="drop-shadow-6" filterUnits="userSpaceOnUse">
      <feOffset dx="0" dy="8.89"/>
      <feGaussianBlur result="blur-6" stdDeviation="5.33"/>
      <feFlood flood-color="#1e85ff" flood-opacity=".4"/>
      <feComposite in2="blur-6" operator="in"/>
      <feComposite in="SourceGraphic"/>
    </filter>
    <filter id="drop-shadow-7" filterUnits="userSpaceOnUse">
      <feOffset dx="0" dy="3.75"/>
      <feGaussianBlur result="blur-7" stdDeviation="3.75"/>
      <feFlood flood-color="#1e85ff" flood-opacity=".4"/>
      <feComposite in2="blur-7" operator="in"/>
      <feComposite in="SourceGraphic"/>
    </filter>
    <linearGradient id="Degradado_sin_nombre_152-4" data-name="Degradado sin nombre 152" x1="99.6" y1="71.91" x2="109.36" y2="81.68" xlink:href="#Degradado_sin_nombre_152"/>
    <filter id="drop-shadow-8" filterUnits="userSpaceOnUse">
      <feOffset dx="0" dy="8.89"/>
      <feGaussianBlur result="blur-8" stdDeviation="5.33"/>
      <feFlood flood-color="#1e85ff" flood-opacity=".4"/>
      <feComposite in2="blur-8" operator="in"/>
      <feComposite in="SourceGraphic"/>
    </filter>
    <filter id="drop-shadow-9" filterUnits="userSpaceOnUse">
      <feOffset dx="0" dy="3.75"/>
      <feGaussianBlur result="blur-9" stdDeviation="3.75"/>
      <feFlood flood-color="#1e85ff" flood-opacity=".4"/>
      <feComposite in2="blur-9" operator="in"/>
      <feComposite in="SourceGraphic"/>
    </filter>
    <linearGradient id="Degradado_sin_nombre_152-5" data-name="Degradado sin nombre 152" x1="57.93" y1="70.72" x2="64.96" y2="77.75" xlink:href="#Degradado_sin_nombre_152"/>
    <filter id="drop-shadow-10" filterUnits="userSpaceOnUse">
      <feOffset dx="0" dy="8.89"/>
      <feGaussianBlur result="blur-10" stdDeviation="5.33"/>
      <feFlood flood-color="#1e85ff" flood-opacity=".4"/>
      <feComposite in2="blur-10" operator="in"/>
      <feComposite in="SourceGraphic"/>
    </filter>
    <linearGradient id="linear-gradient" x1="181" y1="50.3" x2="137.01" y2="79.63" gradientUnits="userSpaceOnUse">
      <stop offset="0" stop-color="#40d5e6"/>
      <stop offset="1" stop-color="#4b69e0"/>
    </linearGradient>
    <filter id="luminosity-noclip-2" data-name="luminosity-noclip" x="22.1" y="32.4" width="120.64" height="120.64" color-interpolation-filters="sRGB" filterUnits="userSpaceOnUse">
      <feFlood flood-color="#fff" result="bg"/>
      <feBlend in="SourceGraphic" in2="bg"/>
    </filter>
    <filter id="luminosity-noclip-3" x="8292" y="-8512" width="-32766" height="32766" color-interpolation-filters="sRGB" filterUnits="userSpaceOnUse">
      <feFlood flood-color="#fff" result="bg"/>
      <feBlend in="SourceGraphic" in2="bg"/>
    </filter>
    <mask id="mask-1" x="8292" y="-8512" width="-32766" height="32766" maskUnits="userSpaceOnUse"/>
    <linearGradient id="linear-gradient-2" x1="22.1" y1="92.72" x2="142.74" y2="92.72" gradientUnits="userSpaceOnUse">
      <stop offset="0" stop-color="#000"/>
      <stop offset="1" stop-color="#fff"/>
    </linearGradient>
    <mask id="mask" x="22.1" y="32.4" width="120.64" height="120.64" maskUnits="userSpaceOnUse">
      <g class="cls-72">
        <g class="cls-74">
          <path class="cls-21" d="M82.42,153.04c-8.14,0-16.04-1.6-23.48-4.74-7.18-3.04-13.63-7.39-19.17-12.92s-9.89-11.99-12.92-19.17c-3.15-7.44-4.74-15.34-4.74-23.48s1.6-16.04,4.74-23.48c3.04-7.18,7.39-13.63,12.92-19.17,5.54-5.54,11.99-9.89,19.17-12.92,7.44-3.15,15.34-4.74,23.48-4.74s16.04,1.6,23.48,4.74c7.18,3.04,13.63,7.39,19.17,12.92,5.54,5.54,9.89,11.99,12.92,19.17,3.15,7.44,4.74,15.34,4.74,23.48s-1.6,16.04-4.74,23.48c-3.04,7.18-7.39,13.63-12.92,19.17-5.54,5.54-11.99,9.89-19.17,12.92-7.44,3.15-15.34,4.74-23.48,4.74Zm0-107.82c-26.19,0-47.5,21.31-47.5,47.5s21.31,47.5,47.5,47.5,47.5-21.31,47.5-47.5-21.31-47.5-47.5-47.5Z"/>
        </g>
      </g>
    </mask>
    <linearGradient id="linear-gradient-3" x1="22.1" y1="92.72" x2="142.74" y2="92.72" gradientUnits="userSpaceOnUse">
      <stop offset="0" stop-color="#40d5e6"/>
      <stop offset="1" stop-color="#57f"/>
    </linearGradient>
    <filter id="luminosity-noclip-4" x="37.24" y="118.54" width="90.94" height="17.99" color-interpolation-filters="sRGB" filterUnits="userSpaceOnUse">
      <feFlood flood-color="#fff" result="bg"/>
      <feBlend in="SourceGraphic" in2="bg"/>
    </filter>
    <filter id="luminosity-noclip-5" x="8292" y="-8512" width="-32766" height="32766" color-interpolation-filters="sRGB" filterUnits="userSpaceOnUse">
      <feFlood flood-color="#fff" result="bg"/>
      <feBlend in="SourceGraphic" in2="bg"/>
    </filter>
    <mask id="mask-3" x="8292" y="-8512" width="-32766" height="32766" maskUnits="userSpaceOnUse"/>
    <linearGradient id="linear-gradient-4" x1="82.71" y1="121.48" x2="82.71" y2="147" xlink:href="#linear-gradient-2"/>
    <mask id="mask-2" x="37.24" y="118.54" width="90.94" height="17.99" maskUnits="userSpaceOnUse">
      <g class="cls-49">
        <g class="cls-32">
          <rect class="cls-17" x="37.24" y="118.54" width="90.94" height="17.99"/>
        </g>
      </g>
    </mask>
    <linearGradient id="linear-gradient-5" x1="82.71" y1="121.48" x2="82.71" y2="147" xlink:href="#linear-gradient-3"/>
    <filter id="luminosity-noclip-6" x="8.32" y="140.23" width="74.1" height="12.82" color-interpolation-filters="sRGB" filterUnits="userSpaceOnUse">
      <feFlood flood-color="#fff" result="bg"/>
      <feBlend in="SourceGraphic" in2="bg"/>
    </filter>
    <filter id="luminosity-noclip-7" x="8292" y="-8512" width="-32766" height="32766" color-interpolation-filters="sRGB" filterUnits="userSpaceOnUse">
      <feFlood flood-color="#fff" result="bg"/>
      <feBlend in="SourceGraphic" in2="bg"/>
    </filter>
    <mask id="mask-5" x="8292" y="-8512" width="-32766" height="32766" maskUnits="userSpaceOnUse"/>
    <linearGradient id="linear-gradient-6" x1="8.32" y1="146.64" x2="82.42" y2="146.64" xlink:href="#linear-gradient-2"/>
    <mask id="mask-4" x="8.32" y="140.23" width="74.1" height="12.82" maskUnits="userSpaceOnUse">
      <g class="cls-51">
        <g class="cls-41">
          <rect class="cls-18" x="8.32" y="140.23" width="74.1" height="12.82"/>
        </g>
      </g>
    </mask>
    <linearGradient id="linear-gradient-7" x1="8.32" y1="146.64" x2="82.42" y2="146.64" xlink:href="#linear-gradient-3"/>
    <linearGradient id="linear-gradient-8" x1="82.71" y1="121.26" x2="82.71" y2="150.97" xlink:href="#linear-gradient"/>
    <linearGradient id="linear-gradient-9" x1="102.74" y1="120.16" x2="102.74" y2="144.66" xlink:href="#linear-gradient"/>
  </defs>
  <g class="cls-29">
    <g id="Layer_1" data-name="Layer 1">
      <g id="software">
        <g>
          <g>
            <path class="cls-34" d="M103.59,72.59c0-.47-.05-.92-.14-1.36l2.27-1.31-2.13-3.69-2.27,1.31c-.69-.61-1.5-1.09-2.39-1.39v-2.61h-4.26v2.61c-.4,.13-.78,.3-1.14,.5-.04,.02-.09,.05-.13,.07-.04,.02-.09,.05-.13,.07-.35,.21-.69,.46-1,.74l-2.26-1.31-2.13,3.69,2.26,1.31c-.08,.41-.13,.82-.14,1.24,0,.05,0,.1,0,.15,0,.05,0,.1,0,.14,0,.41,.05,.83,.14,1.24l-2.26,1.31,2.13,3.69,2.26-1.31c.7,.63,1.52,1.09,2.4,1.38v2.62h4.26v-2.62c.42-.14,.84-.33,1.25-.56,.41-.24,.79-.51,1.13-.82l2.28,1.32,2.13-3.69-2.28-1.32c.09-.45,.14-.91,.14-1.39Zm-3.99,3s-.04,.03-.06,.05c-.07,.07-.15,.13-.23,.19-.04,.03-.07,.06-.11,.08-.06,.05-.13,.09-.19,.13-.05,.03-.11,.07-.16,.1-.05,.03-.11,.06-.16,.09-.07,.04-.14,.07-.21,.1-.04,.02-.08,.04-.13,.05-.09,.04-.18,.07-.28,.1-.02,0-.05,.02-.07,.02-.38,.11-.78,.18-1.19,.18-2.26,0-4.1-1.84-4.1-4.1,0-.55,.11-1.08,.31-1.57,0-.02,.02-.05,.03-.07,.04-.08,.08-.17,.12-.25,.03-.05,.05-.1,.08-.15,.03-.05,.06-.1,.09-.15,.05-.08,.1-.15,.16-.23,.01-.02,.03-.04,.04-.06,.32-.41,.72-.77,1.2-1.05,1.96-1.13,4.47-.46,5.6,1.5,.21,.36,.35,.74,.44,1.12,0,.02,.01,.05,.02,.07,.02,.1,.04,.19,.05,.29,0,.05,.01,.09,.02,.14,0,.08,.01,.16,.02,.24,0,.06,0,.12,0,.19,0,.06,0,.13,0,.19,0,.08,0,.16-.02,.23,0,.05-.01,.09-.02,.14-.01,.1-.03,.19-.05,.29,0,.02-.01,.05-.02,.07-.09,.38-.23,.76-.44,1.12-.21,.36-.46,.67-.75,.94Z"/>
            <path class="cls-34" d="M113.71,85.56c0-.26-.03-.52-.08-.77l1.28-.74-1.2-2.08-1.28,.74c-.39-.35-.84-.61-1.35-.78v-1.47h-2.4v1.47c-.22,.07-.44,.17-.64,.28-.02,.01-.05,.03-.07,.04-.02,.01-.05,.03-.07,.04-.2,.12-.39,.26-.56,.42l-1.28-.74-1.2,2.08,1.28,.74c-.05,.23-.07,.46-.08,.7,0,.03,0,.06,0,.08,0,.03,0,.05,0,.08,0,.23,.03,.47,.08,.7l-1.28,.74,1.2,2.08,1.28-.74c.4,.35,.86,.62,1.35,.78v1.48h2.4v-1.48c.24-.08,.47-.19,.7-.32,.23-.13,.45-.29,.64-.46l1.29,.74,1.2-2.08-1.29-.74c.05-.25,.08-.52,.08-.78Zm-2.25,1.69s-.02,.02-.03,.03c-.04,.04-.08,.07-.13,.11-.02,.02-.04,.03-.06,.05-.04,.03-.07,.05-.11,.07-.03,.02-.06,.04-.09,.05-.03,.02-.06,.03-.09,.05-.04,.02-.08,.04-.12,.06-.02,.01-.05,.02-.07,.03-.05,.02-.1,.04-.16,.06-.01,0-.03,0-.04,.01-.21,.06-.44,.1-.67,.1-1.28,0-2.31-1.04-2.31-2.31,0-.31,.06-.61,.18-.88,0-.01,.01-.03,.02-.04,.02-.05,.04-.09,.07-.14,.02-.03,.03-.06,.05-.09,.02-.03,.03-.06,.05-.08,.03-.04,.06-.09,.09-.13,0-.01,.02-.02,.02-.03,.18-.23,.41-.44,.68-.59,1.11-.64,2.52-.26,3.16,.85,.12,.2,.2,.41,.25,.63,0,.01,0,.03,0,.04,.01,.05,.02,.11,.03,.16,0,.03,0,.05,0,.08,0,.04,0,.09,0,.13,0,.03,0,.07,0,.11,0,.04,0,.07,0,.11,0,.04,0,.09,0,.13,0,.03,0,.05,0,.08,0,.05-.02,.11-.03,.16,0,.01,0,.03,0,.04-.05,.22-.13,.43-.25,.63-.12,.2-.26,.38-.42,.53Z"/>
            <path class="cls-34" d="M67.02,99.8c-.13-.34-.29-.66-.48-.96l1.29-1.6-2.6-2.09-1.29,1.6c-.68-.26-1.4-.37-2.14-.34l-.74-1.91-3.11,1.21,.74,1.91c-.25,.21-.49,.44-.69,.69-.02,.03-.05,.06-.07,.09-.02,.03-.05,.06-.07,.09-.2,.26-.37,.53-.52,.82l-2.02-.31-.51,3.3,2.02,.31c.05,.32,.14,.64,.25,.94,.01,.04,.03,.07,.04,.11,.01,.04,.03,.07,.04,.11,.12,.3,.27,.59,.45,.86l-1.28,1.6,2.6,2.09,1.28-1.6c.69,.26,1.42,.37,2.14,.33l.74,1.91,3.11-1.21-.74-1.92c.27-.22,.52-.48,.75-.76,.23-.29,.43-.6,.6-.92l2.04,.32,.51-3.3-2.04-.32c-.06-.35-.15-.71-.29-1.06Zm-2.07,3.32s-.02,.04-.03,.05c-.03,.07-.07,.14-.11,.2-.02,.03-.04,.06-.06,.09-.03,.05-.07,.1-.1,.15-.03,.04-.06,.08-.09,.12-.03,.04-.06,.08-.09,.11-.04,.05-.08,.09-.13,.13-.03,.03-.05,.05-.08,.08-.06,.05-.11,.1-.17,.15-.02,.01-.03,.02-.05,.04-.24,.19-.52,.35-.82,.47-1.66,.64-3.52-.18-4.16-1.84-.16-.41-.23-.82-.22-1.23,0-.02,0-.04,0-.06,0-.07,0-.14,.02-.22,0-.05,.01-.09,.02-.14,0-.05,.02-.09,.02-.14,.01-.07,.03-.14,.05-.21,0-.02,.01-.04,.02-.06,.12-.39,.31-.77,.58-1.11,1.11-1.38,3.14-1.6,4.52-.49,.25,.2,.47,.44,.64,.69,.01,.02,.02,.03,.03,.05,.04,.07,.08,.13,.12,.2,.02,.03,.03,.06,.05,.1,.03,.05,.05,.11,.08,.17,.02,.04,.04,.09,.06,.14,.02,.05,.03,.09,.05,.14,.02,.06,.04,.12,.05,.18,0,.03,.02,.07,.03,.11,.02,.07,.03,.15,.05,.23,0,.02,0,.04,0,.06,.04,.31,.04,.62,0,.94-.05,.32-.15,.62-.28,.9Z"/>
            <g>
              <path class="cls-34" d="M83.25,71.03h-29.03c-.21,0-.37-.17-.37-.37h0c0-.21,.17-.37,.37-.37h29.03c.21,0,.37,.17,.37,.37h0c0,.21-.17,.37-.37,.37Z"/>
              <path class="cls-34" d="M83.25,73.7h-29.03c-.21,0-.37-.17-.37-.37h0c0-.21,.17-.37,.37-.37h29.03c.21,0,.37,.17,.37,.37h0c0,.21-.17,.37-.37,.37Z"/>
              <path class="cls-34" d="M83.25,76.36h-29.03c-.21,0-.37-.17-.37-.37h0c0-.21,.17-.37,.37-.37h29.03c.21,0,.37,.17,.37,.37h0c0,.21-.17,.37-.37,.37Z"/>
              <rect class="cls-34" x="53.85" y="78.28" width="29.77" height=".74" rx=".37" ry=".37"/>
              <path class="cls-34" d="M83.25,81.68h-29.03c-.21,0-.37-.17-.37-.37h0c0-.21,.17-.37,.37-.37h29.03c.21,0,.37,.17,.37,.37h0c0,.21-.17,.37-.37,.37Z"/>
              <path class="cls-34" d="M83.25,84.35h-29.03c-.21,0-.37-.17-.37-.37h0c0-.21,.17-.37,.37-.37h29.03c.21,0,.37,.17,.37,.37h0c0,.21-.17,.37-.37,.37Z"/>
              <path class="cls-34" d="M83.25,87.01h-29.03c-.21,0-.37-.17-.37-.37h0c0-.21,.17-.37,.37-.37h29.03c.21,0,.37,.17,.37,.37h0c0,.21-.17,.37-.37,.37Z"/>
              <path class="cls-34" d="M83.25,89.67h-29.03c-.21,0-.37-.17-.37-.37h0c0-.21,.17-.37,.37-.37h29.03c.21,0,.37,.17,.37,.37h0c0,.21-.17,.37-.37,.37Z"/>
              <path class="cls-34" d="M83.25,92.33h-29.03c-.21,0-.37-.17-.37-.37h0c0-.21,.17-.37,.37-.37h29.03c.21,0,.37,.17,.37,.37h0c0,.21-.17,.37-.37,.37Z"/>
            </g>
          </g>
          <g>
            <ellipse class="cls-34" cx="83.35" cy="109.19" rx="22.29" ry="2.1"/>
            <g>
              <polygon class="cls-22" points="89.81 109.3 76.89 109.3 79.11 102.9 87.58 102.9 89.81 109.3"/>
              <g>
                <path class="cls-24" d="M62.64,83.41h41.4v7.42c0,8.45-6.86,15.3-15.3,15.3h-10.8c-8.45,0-15.3-6.86-15.3-15.3v-7.42h0Z"/>
                <path class="cls-38" d="M77.95,77.04h10.8c8.45,0,15.3,6.86,15.3,15.3v8.53H62.64v-8.53c0-8.45,6.86-15.3,15.3-15.3Z"/>
                <rect class="cls-85" x="64.31" y="79.28" width="38.15" height="19.3"/>
              </g>
              <circle class="cls-20" cx="83.35" cy="103.23" r="1.21"/>
              <path class="cls-40" d="M93.17,109.3h-19.65c0-.66,.53-1.19,1.19-1.19h17.26c.66,0,1.19,.53,1.19,1.19h0Z"/>
            </g>
          </g>
          <g>
            <ellipse class="cls-34" cx="101.94" cy="112.68" rx="9.03" ry="1.29"/>
            <g>
              <g>
                <rect class="cls-36" x="96.13" y="92.24" width="11.62" height="19.94" rx="5.81" ry="5.81"/>
                <rect class="cls-46" x="96.13" y="93.63" width="11.62" height="17.09"/>
                <rect class="cls-25" x="97.76" y="98.03" width="8.37" height="8.37" rx="4.18" ry="4.18"/>
                <g class="cls-52">
                  <path class="cls-7" d="M101.94,105.41c-1.77,0-3.2-1.44-3.2-3.2s1.44-3.2,3.2-3.2,3.2,1.44,3.2,3.2-1.44,3.2-3.2,3.2Zm0-5.81c-1.44,0-2.61,1.17-2.61,2.61s1.17,2.61,2.61,2.61,2.61-1.17,2.61-2.61-1.17-2.61-2.61-2.61Z"/>
                  <polygon class="cls-7" points="101.71 103.43 100.59 102.44 101.06 101.91 101.64 102.43 102.76 101.15 103.29 101.62 101.71 103.43"/>
                </g>
              </g>
              <path class="cls-36" d="M103.4,94.31h-2.91c-.45,0-.81-.36-.81-.81h4.54c0,.45-.36,.81-.81,.81Z"/>
              <path class="cls-9" d="M102.99,93.63h-2.1c-.07,0-.14-.06-.14-.14h0c0-.07,.06-.14,.14-.14h2.1c.07,0,.14,.06,.14,.14h0c0,.07-.06,.14-.14,.14Z"/>
            </g>
          </g>
          <g>
            <g>
              <path class="cls-54" d="M77.47,75.02h9.03c4.52,0,8.2,3.67,8.2,8.2h0c0,4.52-3.67,8.2-8.2,8.2h-9.03c-4.52,0-8.2-3.67-8.2-8.2h0c0-4.52,3.67-8.2,8.2-8.2Z"/>
              <rect class="cls-38" x="70.56" y="76.31" width="22.85" height="13.81"/>
              <g>
                <rect class="cls-26" x="73" y="78.15" width="2.38" height=".32"/>
                <rect class="cls-26" x="76.13" y="78.15" width="4.86" height=".32"/>
                <rect class="cls-7" x="74.01" y="79.46" width="2.38" height=".32"/>
                <rect class="cls-31" x="77.14" y="79.46" width="13.9" height=".32"/>
                <rect class="cls-7" x="74.01" y="80.66" width="2.38" height=".32"/>
                <rect class="cls-31" x="77.14" y="80.66" width="13.9" height=".32"/>
                <rect class="cls-7" x="74.01" y="81.87" width="2.38" height=".32"/>
                <rect class="cls-31" x="77.14" y="81.87" width="13.9" height=".32"/>
                <rect class="cls-7" x="74.01" y="83.08" width="2.38" height=".32"/>
                <rect class="cls-26" x="73" y="84.36" width="2.38" height=".32"/>
                <rect class="cls-26" x="76.13" y="84.36" width="4.86" height=".32"/>
                <rect class="cls-7" x="77.14" y="85.66" width="8.96" height=".32"/>
                <rect class="cls-7" x="77.14" y="86.86" width="8.96" height=".32"/>
                <rect class="cls-31" x="75.6" y="86.86" width=".79" height=".32"/>
                <rect class="cls-31" x="74.01" y="88.07" width="2.38" height=".32"/>
                <rect class="cls-7" x="77.14" y="88.07" width="8.96" height=".32"/>
                <rect class="cls-7" x="86.74" y="85.66" width="4.39" height=".32"/>
                <rect class="cls-7" x="86.74" y="86.86" width="4.39" height=".32"/>
                <rect class="cls-7" x="86.74" y="88.07" width="4.39" height=".32"/>
                <rect class="cls-31" x="77.14" y="83.08" width="13.9" height=".32"/>
              </g>
            </g>
            <g>
              <rect class="cls-5" x="56.47" y="81.47" width="9.94" height="9.94" rx="4.97" ry="4.97"/>
              <path class="cls-8" d="M63.74,86.44c0-.16-.02-.31-.05-.46l.77-.44-.72-1.25-.77,.44c-.23-.21-.51-.37-.81-.47v-.88h-1.44v.88c-.13,.04-.26,.1-.39,.17-.01,0-.03,.02-.04,.02-.01,0-.03,.02-.04,.02-.12,.07-.23,.16-.34,.25l-.76-.44-.72,1.25,.76,.44c-.03,.14-.04,.28-.05,.42,0,.02,0,.03,0,.05,0,.02,0,.03,0,.05,0,.14,.02,.28,.05,.42l-.76,.44,.72,1.25,.76-.44c.24,.21,.51,.37,.81,.47v.88h1.44v-.89c.14-.05,.28-.11,.42-.19,.14-.08,.27-.17,.38-.28l.77,.44,.72-1.25-.77-.44c.03-.15,.05-.31,.05-.47Zm-1.35,1.01s-.01,.01-.02,.02c-.02,.02-.05,.04-.08,.06-.01,0-.02,.02-.04,.03-.02,.02-.04,.03-.07,.04-.02,.01-.04,.02-.05,.03-.02,.01-.04,.02-.06,.03-.02,.01-.05,.02-.07,.03-.01,0-.03,.01-.04,.02-.03,.01-.06,.02-.09,.03,0,0-.02,0-.02,0-.13,.04-.26,.06-.4,.06-.77,0-1.39-.62-1.39-1.39,0-.19,.04-.37,.11-.53,0,0,0-.02,0-.02,.01-.03,.03-.06,.04-.08,0-.02,.02-.03,.03-.05,0-.02,.02-.03,.03-.05,.02-.03,.03-.05,.05-.08,0,0,0-.01,.01-.02,.11-.14,.24-.26,.41-.36,.66-.38,1.51-.16,1.89,.51,.07,.12,.12,.25,.15,.38,0,0,0,.02,0,.02,0,.03,.01,.07,.02,.1,0,.02,0,.03,0,.05,0,.03,0,.05,0,.08,0,.02,0,.04,0,.06,0,.02,0,.04,0,.06,0,.03,0,.05,0,.08,0,.02,0,.03,0,.05,0,.03-.01,.07-.02,.1,0,0,0,.02,0,.03-.03,.13-.08,.26-.15,.38-.07,.12-.16,.23-.25,.32Z"/>
            </g>
            <g>
              <rect class="cls-39" x="65.38" y="93.68" width="12.52" height="8.65" rx="4.33" ry="4.33"/>
              <g class="cls-4">
                <polygon class="cls-7" points="69.83 95.96 67.47 98 69.83 100.04 69.83 98.94 68.75 98 69.83 97.07 69.83 95.96"/>
                <polygon class="cls-7" points="73.45 100.04 75.81 98 73.45 95.96 73.45 97.07 74.53 98 73.45 98.94 73.45 100.04"/>
                <polygon class="cls-7" points="71.41 100.71 70.41 100.71 71.87 95.3 72.86 95.3 71.41 100.71"/>
              </g>
            </g>
            <g>
              <rect class="cls-78" x="97.57" y="69.89" width="13.81" height="13.81" rx="6.91" ry="6.91"/>
              <g class="cls-65">
                <path class="cls-7" d="M107.9,74.25c-.28,0-.55,.06-.8,.18-.33-1.18-1.41-2.05-2.7-2.05s-2.34,.84-2.69,1.99c-.21-.08-.43-.12-.66-.12-1.03,0-1.87,.84-1.87,1.87h10.59c0-1.03-.84-1.87-1.87-1.87Z"/>
                <polygon class="cls-7" points="102.53 79.27 104.48 81.21 106.43 79.27 105.12 79.27 105.12 76.97 103.85 76.97 103.85 79.27 102.53 79.27"/>
              </g>
            </g>
            <g>
              <rect class="cls-12" x="56.47" y="69.26" width="9.94" height="9.94" rx="4.97" ry="4.97"/>
              <rect class="cls-38" x="57.65" y="70.44" width="7.59" height="7.59"/>
              <g>
                <rect class="cls-7" x="58.93" y="71.92" width=".7" height=".32"/>
                <rect class="cls-31" x="60" y="71.92" width="3.57" height=".32"/>
                <rect class="cls-7" x="58.93" y="72.99" width="1.09" height=".32"/>
                <rect class="cls-31" x="60.38" y="72.99" width="3.57" height=".32"/>
                <rect class="cls-7" x="58.93" y="75.02" width=".7" height=".32"/>
                <rect class="cls-31" x="60" y="75.02" width="3.57" height=".32"/>
                <rect class="cls-7" x="58.93" y="76.1" width="1.09" height=".32"/>
                <rect class="cls-31" x="60.38" y="76.1" width="3.57" height=".32"/>
                <rect class="cls-7" x="58.29" y="74.07" width="1.09" height=".32"/>
                <rect class="cls-31" x="59.74" y="74.07" width="4.86" height=".32"/>
              </g>
            </g>
          </g>
          <g>
            <rect class="cls-19" x="83.62" y="93.41" width="2.91" height="2.91"/>
            <rect class="cls-19" x="87.85" y="93.41" width="2.91" height="2.91"/>
            <rect class="cls-19" x="92.08" y="93.41" width="2.91" height="2.91"/>
            <g>
              <rect class="cls-19" x="96.4" y="85.5" width="4.39" height=".32"/>
              <rect class="cls-19" x="96.4" y="86.7" width="4.39" height=".32"/>
              <rect class="cls-19" x="96.4" y="87.91" width="4.39" height=".32"/>
            </g>
          </g>
        </g>
        <g>
          <polygon class="cls-13" points="192 146.57 173.42 132.25 173.42 140.23 171.15 140.23 153.17 140.23 47.28 140.23 47.28 153.04 164.5 153.04 171.15 153.04 173.42 153.04 173.42 160.89 192 146.57"/>
          <path class="cls-79" d="M163.95,41.04l-12.76,2.75,5.91,11.64,2.1-4.41c9.44,4.5,13.47,15.84,8.97,25.29-4.5,9.44-15.84,13.47-25.29,8.97-9.44-4.5-13.47-15.84-8.97-25.29l-5.56-2.65c-5.96,12.51-.63,27.54,11.88,33.49,12.51,5.96,27.54,.63,33.49-11.88,5.96-12.51,.63-27.54-11.88-33.49l2.1-4.41Z"/>
          <g class="cls-75">
            <path class="cls-76" d="M82.42,153.04c-8.14,0-16.04-1.6-23.48-4.74-7.18-3.04-13.63-7.39-19.17-12.92s-9.89-11.99-12.92-19.17c-3.15-7.44-4.74-15.34-4.74-23.48s1.6-16.04,4.74-23.48c3.04-7.18,7.39-13.63,12.92-19.17,5.54-5.54,11.99-9.89,19.17-12.92,7.44-3.15,15.34-4.74,23.48-4.74s16.04,1.6,23.48,4.74c7.18,3.04,13.63,7.39,19.17,12.92,5.54,5.54,9.89,11.99,12.92,19.17,3.15,7.44,4.74,15.34,4.74,23.48s-1.6,16.04-4.74,23.48c-3.04,7.18-7.39,13.63-12.92,19.17-5.54,5.54-11.99,9.89-19.17,12.92-7.44,3.15-15.34,4.74-23.48,4.74Zm0-107.82c-26.19,0-47.5,21.31-47.5,47.5s21.31,47.5,47.5,47.5,47.5-21.31,47.5-47.5-21.31-47.5-47.5-47.5Z"/>
          </g>
          <g class="cls-27">
            <rect class="cls-55" x="37.24" y="118.54" width="90.94" height="17.99"/>
          </g>
          <g class="cls-53">
            <rect class="cls-63" x="8.32" y="140.23" width="74.1" height="12.82"/>
          </g>
          <rect class="cls-56" x="94.62" y="128.87" width="7.08" height="1.51"/>
          <rect class="cls-56" x="49.08" y="111.78" width="7.08" height="1.51"/>
          <rect class="cls-33" x="64.39" y="117.48" width="6.7" height="1.51"/>
          <rect class="cls-56" x="49.08" y="117.48" width="13.28" height="1.51"/>
          <rect class="cls-33" x="49.08" y="123.17" width="7.33" height="1.51"/>
          <rect class="cls-16" x="49.26" y="128.87" width="5.87" height="1.51"/>
          <rect class="cls-11" x="58.44" y="123.17" width="10.49" height="1.51"/>
          <rect class="cls-11" x="77.08" y="123.17" width="10.49" height="1.51"/>
          <rect class="cls-11" x="81.74" y="128.87" width="10.49" height="1.51"/>
          <rect class="cls-56" x="57.35" y="128.87" width="13.36" height="1.51"/>
          <rect class="cls-56" x="103.94" y="128.87" width="13.36" height="1.51"/>
          <rect class="cls-56" x="101.88" y="117.48" width="13.36" height="1.51"/>
          <rect class="cls-33" x="89.57" y="123.17" width="20.42" height="1.51"/>
          <rect class="cls-16" x="72.93" y="128.87" width="6.68" height="1.51"/>
          <rect class="cls-56" x="70.85" y="123.17" width="4.15" height="1.51"/>
          <path class="cls-28" d="M47.04,134.77s0,0,0,0c.03,.01,.03,.01,0,0Z"/>
          <rect class="cls-2" x="147.99" y="97.52" width="7.73" height=".54" transform="translate(303.72 195.59) rotate(180)"/>
          <rect class="cls-2" x="147.99" y="98.54" width="7.73" height="2.28" transform="translate(303.72 199.37) rotate(180)"/>
          <rect class="cls-2" x="144.36" y="101.59" width="4.56" height=".34" transform="translate(293.29 203.52) rotate(180)"/>
          <rect class="cls-2" x="144.36" y="102.08" width="4.56" height=".92" transform="translate(293.29 205.08) rotate(180)"/>
          <rect class="cls-2" x="146.67" y="94.04" width=".34" height="6.39" transform="translate(293.69 194.47) rotate(180)"/>
          <rect class="cls-7" x="47.8" y="50.53" width="6.09" height="1.1" transform="translate(101.69 102.17) rotate(180)"/>
          <rect class="cls-7" x="47.8" y="50.02" width="6.09" height=".21" transform="translate(101.69 100.25) rotate(180)"/>
          <polygon class="cls-16" points="108.2 72.28 116.11 64.37 148.61 64.37 148.61 63.96 115.94 63.96 107.91 71.99 108.2 72.28"/>
          <rect class="cls-84" x="37.24" y="136.25" width="90.94" height="17.99"/>
          <polygon class="cls-11" points="57.92 90.35 58.21 90.07 43.09 74.95 14.48 74.95 14.48 75.36 42.92 75.36 57.92 90.35"/>
          <polygon class="cls-56" points="88.04 72.17 88.33 71.89 75.57 59.13 57.63 59.13 57.63 59.53 75.4 59.53 88.04 72.17"/>
          <polygon class="cls-70" points="128.18 154.24 128.18 136.25 95.09 136.25 77.3 154.04 128.18 154.24"/>
          <g>
            <rect class="cls-62" x="130.97" y="53.53" width="2.87" height="8.71"/>
            <path class="cls-3" d="M127.7,40.25h9.42c4.24,0,7.68,3.44,7.68,7.68v2.12c0,4.24-3.44,7.68-7.68,7.68h-9.42c-4.24,0-7.68-3.44-7.68-7.68v-2.12c0-4.24,3.44-7.68,7.68-7.68Z"/>
            <rect class="cls-7" x="120.99" y="41.25" width="22.83" height="13.74"/>
            <rect class="cls-3" x="125.96" y="61.92" width="12.91" height=".66" transform="translate(264.82 124.49) rotate(180)"/>
            <rect class="cls-69" x="135.28" y="45.42" width="7.34" height="8.48" transform="translate(277.89 99.32) rotate(180)"/>
            <rect class="cls-69" x="126.58" y="45.42" width="7.56" height="1.06" transform="translate(260.72 91.9) rotate(180)"/>
            <rect class="cls-69" x="126.58" y="47.59" width="7.56" height="1.06" transform="translate(260.72 96.24) rotate(180)"/>
            <rect class="cls-69" x="126.58" y="49.54" width="7.56" height="4.36" transform="translate(260.72 103.44) rotate(180)"/>
            <rect class="cls-69" x="122.3" y="45.18" width="3.21" height="8.72" transform="translate(247.82 99.08) rotate(180)"/>
            <rect class="cls-69" x="122.38" y="42.31" width="20.31" height="2.18" transform="translate(265.07 86.79) rotate(180)"/>
          </g>
          <g>
            <path class="cls-3" d="M65.72,39.45h1.53c3.05,0,5.53,2.48,5.53,5.53v6.73c0,3.05-2.48,5.53-5.53,5.53h-1.53c-3.05,0-5.53-2.48-5.53-5.53v-6.73c0-3.05,2.48-5.53,5.53-5.53Z" transform="translate(132.97 96.68) rotate(-180)"/>
            <rect class="cls-7" x="60.89" y="40.27" width="11.19" height="14.59" transform="translate(132.97 95.14) rotate(180)"/>
            <rect class="cls-69" x="61.64" y="41.32" width="9.74" height="1.94" transform="translate(133.02 84.59) rotate(180)"/>
            <rect class="cls-69" x="67.37" y="44.02" width="4.01" height="9.52" transform="translate(138.75 97.56) rotate(180)"/>
            <rect class="cls-69" x="61.64" y="44.02" width="4.98" height="1.1" transform="translate(128.27 89.14) rotate(180)"/>
            <rect class="cls-69" x="61.64" y="45.92" width="4.98" height="1.1" transform="translate(128.27 92.95) rotate(180)"/>
            <rect class="cls-69" x="61.64" y="47.83" width="4.98" height="1.1" transform="translate(128.27 96.76) rotate(180)"/>
            <rect class="cls-69" x="61.64" y="49.74" width="4.98" height="3.8" transform="translate(128.27 103.28) rotate(180)"/>
          </g>
          <g>
            <path class="cls-62" d="M19.01,59.21h19.61v4.7c0,4.75-3.86,8.61-8.61,8.61h-2.38c-4.75,0-8.61-3.86-8.61-8.61v-4.7h0Z" transform="translate(57.64 131.73) rotate(180)"/>
            <rect class="cls-7" x="19.56" y="59.92" width="18.51" height="11.9" transform="translate(57.64 131.73) rotate(180)"/>
            <path class="cls-3" d="M18.93,72.52h19.78c.47,0,.86,.39,.86,.86v.12H18.07v-.12c0-.47,.39-.86,.86-.86Z" transform="translate(57.64 146.02) rotate(180)"/>
            <rect class="cls-69" x="20.34" y="60.78" width="16.95" height="1.65" transform="translate(57.62 123.21) rotate(180)"/>
            <rect class="cls-69" x="31.47" y="63.37" width="5.81" height="7.58" transform="translate(68.75 134.32) rotate(180)"/>
            <rect class="cls-69" x="24.92" y="63.37" width="5.81" height="7.58" transform="translate(55.64 134.32) rotate(180)"/>
            <rect class="cls-69" x="20.34" y="63.37" width="3.54" height="1.08" transform="translate(44.21 127.82) rotate(180)"/>
            <rect class="cls-69" x="20.34" y="65.04" width="3.54" height="1.08" transform="translate(44.21 131.17) rotate(180)"/>
            <rect class="cls-69" x="20.34" y="66.72" width="3.54" height="4.23" transform="translate(44.21 137.66) rotate(180)"/>
          </g>
          <g>
            <polygon class="cls-73" points="26.44 91.59 22.08 89.07 22.08 90.73 15.59 90.73 15.59 92.45 22.08 92.45 22.08 94.11 26.44 91.59"/>
            <polygon class="cls-73" points="15.59 86.07 19.95 88.59 19.95 86.92 26.44 86.92 26.44 85.21 19.95 85.21 19.95 83.55 15.59 86.07"/>
          </g>
          <g>
            <polygon class="cls-73" points="33.33 42.32 30.06 40.43 30.06 41.68 25.2 41.68 25.2 42.97 30.06 42.97 30.06 44.21 33.33 42.32"/>
            <polygon class="cls-73" points="25.2 38.18 28.47 40.07 28.47 38.82 33.33 38.82 33.33 37.54 28.47 37.54 28.47 36.29 25.2 38.18"/>
          </g>
          <g>
            <path class="cls-7" d="M134.38,85.66c-.43-.03-.84-.19-1.15-.46-.35-.3-.55-.71-.55-1.14-.06-.85-.32-1.72-.54-2.32-1.04-.83-1.59-2.1-1.49-3.43,.17-2.2,2.09-3.85,4.28-3.68,2.2,.17,3.85,2.09,3.68,4.28-.09,1.2-.7,2.27-1.68,2.96-.3,.81-.48,1.55-.53,2.21,0,.88-.85,1.59-1.87,1.58-.05,0-.1,0-.15,0Zm.53-10.7c-2.02-.15-3.78,1.36-3.93,3.38-.09,1.23,.43,2.41,1.41,3.17l.04,.03,.02,.04c.23,.62,.51,1.55,.58,2.46h0c0,.35,.15,.67,.43,.91,.29,.25,.68,.39,1.09,.39,.84,0,1.53-.56,1.54-1.26h0s0-.01,0-.01c.06-.7,.25-1.49,.57-2.35l.02-.05,.04-.03c.92-.63,1.5-1.63,1.59-2.75,.15-2.02-1.36-3.78-3.38-3.93Z"/>
            <polygon class="cls-7" points="133.64 84.3 133.11 79.95 134.02 80.7 134.59 80.07 135.07 80.66 135.92 79.94 135.4 84.3 135.08 84.26 135.5 80.72 135.03 81.12 134.58 80.57 134.06 81.15 133.54 80.72 133.96 84.26 133.64 84.3"/>
            <rect class="cls-7" x="133.11" y="85.27" width="2.83" height="1.14" transform="translate(.58 -.9) rotate(.38)"/>
            <rect class="cls-7" x="132.66" y="84.1" width="3.74" height="1.84" transform="translate(.57 -.9) rotate(.38)"/>
          </g>
          <g>
            <path class="cls-59" d="M143.42,151.43c-.08,.58-3.57,3.02-4.26,3.51-.55,.39-1.03,.57-1.86,.88h0c-1.89,.5-13.77,4.04-13.77,4.04-.03-.12-.05-.23-.12-.36-.44,.18-.9,.29-1.19,.38-.44,.14-3.95,.25-4.67,.39-.72,.14-2.16,.36-2.74-.19-.58-.55,.36-1.74,1.16-2.05,.8-.3,3.73-.39,4.26-.44,.53-.06,1.22-.25,1.55-.14,.1,.03,.57-.1,1.15-.3-.01-.22-.02-.35-.02-.35l3.12-.9-.58-5.52s1.36-5.11,6.78-1.21c0,0,1.21,.36,1.62,.47,.03,0,.08,0,.14,0,.83-.06,4.38-1.14,5.67-1.14,1.38,0,1.82-.08,2.32,.17,.5,.25,1.52,2.18,1.44,2.76Z"/>
            <path class="cls-59" d="M137.86,160.08c-.58,.55-2.02,.33-2.74,.19-.72-.14-4.23-.25-4.67-.39-.44-.14-1.27-.33-1.85-.72-.05-.03-.15-.08-.31-.14,0,0,0,0,0,0l-.88,.63-12.21-3.89c-.73-.2-1.31-.51-1.7-.84-.64-.55-4.17-2.93-4.26-3.51-.08-.58,.94-2.52,1.44-2.76,.5-.25,.94-.17,2.32-.17s5.39,1.24,5.8,1.13c.19-.05,.58-.25,.95-.45,.44-.24,.86-.49,.86-.49,5.94-2.65,6.6,1.69,6.6,1.69l-.35,5.35s.49,.25,1.14,.55l2.94,.83-.39,.28c.17,.05,.28,.08,.33,.06,.33-.11,1.02,.08,1.55,.14,.53,.06,3.46,.14,4.26,.44,.8,.3,1.74,1.49,1.16,2.05Z"/>
            <path class="cls-37" d="M119.77,149.18c.41,.03,3.18,1.63,3.83,2.01-1-.52-4.78-1.56-4.78-1.56,.19-.05,.58-.25,.95-.45Z"/>
            <path class="cls-37" d="M133.99,149.64s-4.77,1.16-5.64,1.64c.04-.03,2.51-1.91,3.81-2.16,0,0,1.27,.4,1.69,.51,.03,0,.08,0,.14,0h0Z"/>
            <path class="cls-10" d="M137.86,160.08c-.58,.55-2.02,.33-2.74,.19-.72-.14-4.23-.25-4.67-.39-.13-.04-.29-.08-.46-.14,0,0,0,0,0,0-.44-.13-.98-.31-1.39-.58-.05-.03-.15-.08-.31-.14l2.21-1.59,.06-.05c.17,.05,.28,.08,.33,.06,.33-.11,1.02,.08,1.55,.14,.53,.06,3.46,.14,4.26,.44,.8,.3,1.74,1.49,1.16,2.05Z"/>
            <path class="cls-6" d="M137.86,160.08c-.58,.55-2.02,.33-2.74,.19-.72-.14-4.23-.25-4.67-.39-.13-.04-.29-.08-.46-.14,0,0,0,0,0,0,0,0,0,0,0,0,0,0,.97-.96,.51-2.31l.06-.05c.17,.05,.28,.08,.33,.06,.33-.11,1.02,.08,1.55,.14,.53,.06,3.46,.14,4.26,.44,.8,.3,1.74,1.49,1.16,2.05Z"/>
            <path class="cls-30" d="M120.98,150.4s0,.03,0,.03c-.05,.04-.05,.02,0-.03Z"/>
            <path class="cls-43" d="M136.95,143.94c-.05-.09-2.56-4.05-3.25-5.86-.68-1.81-2.32-2.64-3.1-2.89-.28-.09-.77-.25-1.29-.42-.93-.3-1.96-.63-1.96-.63h-3.22s-1.12,.37-2.3,.79c0,0,0,0,0,0-1.09,.38-2.24,.8-2.63,1-.81,.41-2.17,3.3-2.45,3.63-.28,.33-2.4,4.27-2.71,5.79-.24,1.18,6.74,4.62,6.93,5.06,.22-.25,1.24-1.22,1.24-1.22,0,0-.33-.2-.78-.51,1.87,.09,6.44-.08,7.1-.04,.13,0,.28,0,.42,0,0,0,0,0,0,0,.2,.15,1.51,1.3,1.51,1.3,0,0,3.22-1.34,4.71-2.84,2.11-2.13,2.02-2.68,1.79-3.15Zm-18.34,2.62c-.69-.83-1.64-1.33-1.4-1.7,.24-.37,2.27-3.87,2.27-3.87,0,0,1.05,2.3,1.35,3.5,.29,1.2,.27,1.75,.15,2.12-.11,.33-.2,.56-.3,1.56-.83-.56-1.74-1.23-2.06-1.61Zm14.26-.4c-.27,.31-1.34,.99-2.31,1.55-.07-.67-.18-1.72-.2-2.1-.02-.57,.22-2.21,.52-2.84,.29-.63,.5-2.34,.5-2.34,0,0,2.44,3.32,2.83,3.67,.39,.35-.42,1.02-1.34,2.06Z"/>
            <path class="cls-10" d="M126.14,125.27s2.52,.4,2.14,4.34c-.38,3.95-2.61,3.62-2.76,3.62-.15,0-2.23,.07-2.4-4.75,0,0-.07-3.56,3.02-3.22Z"/>
            <path class="cls-10" d="M128.32,128.5s.28-.3,.38,0c.1,.3-.38,1.63-.39,1.69,0,0-.05,.12-.12,.05-.07-.06,.13-1.75,.13-1.75Z"/>
            <path class="cls-10" d="M123.19,128.45s-.27-.3-.38,0c-.11,.3,.34,1.64,.36,1.7,0,0,.05,.12,.12,.05,.07-.06-.1-1.75-.1-1.75Z"/>
            <path class="cls-68" d="M128.32,129.11l-.36,.48s.01-1.06-.05-1.22c-.06-.17-.15-.67-.19-.79-.05-.12-2.17-.71-4.04,.17,0,0,.08,.76-.1,.83-.18,.07-.09,1.24-.09,1.24l-.3-.33s-.45-3.04-.34-3.35c.11-.32,.47-2.22,4.31-1.09,0,0,1.2-.25,1.44,.57,.24,.83-.28,3.5-.28,3.5Z"/>
            <path class="cls-83" d="M122.43,154.34s-3.86-2.31-5.55-2.68c-1.59-.34-2.17-.94-2.17-.94,0,0,2.53,0,4.22,1.2,1.15,.81,3.5,2.42,3.5,2.42Z"/>
            <path class="cls-83" d="M125.86,155.95s6.71-3.53,9.46-4.29c1.57-.44,2.17-.94,2.17-.94,0,0-4.15,.41-6.68,1.93-1.2,.72-4.95,3.3-4.95,3.3Z"/>
            <path class="cls-10" d="M123.41,159.51c-.44,.18-.9,.29-1.19,.38-.44,.14-3.95,.25-4.67,.39-.72,.14-2.16,.36-2.74-.19-.58-.55,.36-1.74,1.16-2.05,.8-.3,3.73-.39,4.26-.44,.53-.06,1.22-.25,1.55-.14,.1,.03,.57-.1,1.15-.3,.02,.35,.48,2.35,.48,2.35Z"/>
            <path class="cls-59" d="M125.86,159.17l6.6-1.95-1.31-.4s-5.28,1.91-5.3,2.35Z"/>
            <polygon class="cls-83" points="125.86 159.17 128.95 158.23 126.81 159.48 125.86 159.17"/>
            <path class="cls-77" d="M123.74,151.28s-.06-.03-.14-.08c.06,.03,.1,.06,.14,.08Z"/>
            <path class="cls-6" d="M122.22,159.89c-.44,.14-3.95,.25-4.67,.39-.72,.14-2.16,.36-2.74-.19-.58-.55,.36-1.74,1.16-2.05,.8-.3,3.73-.39,4.26-.44,.53-.06,1.22-.25,1.55-.14,0,0-.89,1.35,.44,2.43Z"/>
            <path class="cls-43" d="M129.32,134.77s-1.06,4.65-3.58,4.65-3.91-4.49-3.91-4.49c0,0,0,0,0,0,1.19-.42,2.3-.79,2.3-.79h3.22s1.02,.33,1.96,.63Z"/>
            <path class="cls-77" d="M120.03,150.72l-1.02-5.79,13.15-.3-.85,5.69s-4.2,1.54-5.62,2.43c0,0-3.6-1.48-5.66-2.04Z"/>
            <path class="cls-81" d="M126.47,148.43c0,.48-.33,.87-.74,.87s-.74-.39-.74-.87,.33-.87,.74-.87,.74,.39,.74,.87Z"/>
            <path class="cls-10" d="M127.4,134.15s0,0,0-.01c-.16-.35-.08-2.06-.08-2.06,0,0-3.21-.82-3.12-.19,.09,.63-.28,2.33-.28,2.33l-1.65,.56s1.76,4.71,3.77,4.11c2.02-.61,2.78-4.28,2.78-4.28l-1.42-.46Z"/>
            <path class="cls-64" d="M124.19,132.52s.57,.73,1.47,.73c.59,0,1.06-.21,1.65-.78,0,0-.3,1.13-1.64,1.23,0,0-1.03,.06-1.47-1.18Z"/>
          </g>
          <polygon class="cls-11" points="115.85 98.12 102.65 98.12 102.65 107.69 102.65 109.7 104.66 107.69 115.85 107.69 115.85 98.12"/>
          <g>
            <path class="cls-50" d="M96.13,153.66s.14,1.12,.32,1.62c.18,.49,1.17,1.64,.75,2.73-.45,1.19-2.43,.04-3.24-.32-.81-.36-.62-1.02-.71-1.83-.09-.81-.48-.83-.33-1.4,.15-.57,1.03-1.65,1.03-1.65l2.18,.85Z"/>
            <path class="cls-10" d="M94.33,152.23s-.51,.71-.49,.73c.01,.02,2.17,1.33,2.32,.91,.12-.34,.17-.83,.17-.83l-2-.81Z"/>
            <path class="cls-50" d="M87.02,154.45s-.66,.58-1.25,1.46c-.59,.89-2.16,.93-2.23,2.14-.07,1.21,2.13,1.25,3.29,.85,1.15-.39,1.33-1.57,2.03-1.87,.7-.3,1.06-.53,1.01-1.11-.05-.58-.44-1.51-.44-1.51,0,0-.43,.14-.69,.17-.26,.03-1.11,.04-1.72-.13Z"/>
            <path class="cls-23" d="M94.93,121.69s-.44,2.63-.8,4.37h0c-.14,.7-.28,1.26-.36,1.44-.1,.22-.93,1.11-1.95,2.16-1.78,1.84-4.14,4.15-4.14,4.15l-.92-1.75s2.09-2.45,3.51-4.09c.66-.76,1.17-1.34,1.26-1.42,.3-.27,.64-2.88,1.12-5.03,.48-2.15,1.45-3.35,1.45-3.35l.81,3.53Z"/>
            <path class="cls-10" d="M91.83,129.65c-1.78,1.84-4.14,4.15-4.14,4.15l-.92-1.75s2.09-2.45,3.51-4.09c.43,.21,1.23,.72,1.55,1.69Z"/>
            <path class="cls-10" d="M87.12,153.65l-.1,.81s1.14,.4,2.41-.04l.03-.72-2.33-.05Z"/>
            <path class="cls-23" d="M103.37,133.45c.07,.23-12.12,0-12.12,0,0,0,3.37-2.45,3.59-3.11,.22-.66-.86-4.59-1-5.87-.11-1.02-.39-5.61,.28-6.31,.71-.73,3.25-1.5,3.25-1.5l3.71,.14s.61,.13,1.05,.33c.44,.2,2.94,1.09,3.34,2.34,.41,1.25-2.49,5.26-2.49,5.26,0,0,0,.18-.01,.48h0c-.01,.39-.03,.99-.04,1.64-.02,.84-.04,1.77-.04,2.45,0,1.59,.43,3.91,.5,4.14Z"/>
            <path class="cls-57" d="M103.37,133.45s1.66,2.44,1.68,4.1c.02,1.66-2.94,7.23-3.39,8.03-1.35,2.39-5.05,7.56-5.05,7.56,0,0-.64-.02-2.63-.79,0,0,2.46-6.82,2.77-7.53,1.32-3,2.06-5.14,1.62-5.65-.44-.52-1.66-1.03-2.01-1.34-.35-.3-6.47,1.16-7.11,1.32-1.66,.43-.9,3.32-.54,4.61,.61,2.17,1.15,9.99,1.15,9.99,0,0-1.18,.5-3.16,.08,0,0-3.89-14.13-4.01-15.53-.12-1.41-.19-3.72,9.4-5.48l11.28,.63Z"/>
            <path class="cls-10" d="M98.38,108.61s-3.22-.73-2.48,3.32c.73,4.05,1.51,4.37,3.45,3.53,1.94-.84,1.77-3.43,1.86-4.7,.1-1.27-1.81-2.1-2.83-2.15Z"/>
            <path class="cls-10" d="M97.53,117.7s1.42,1.51,3.68,.14c0,0-.5-3.27-.24-4.87,.27-1.59-2.94,2.47-2.94,2.47,.04,.02,.07,.17,.08,.39,0,.18,0,.41-.03,.65-.07,.53-.23,1.09-.54,1.22Z"/>
            <path class="cls-71" d="M101.06,112.83s-.08-1.28-.55-1.32c-.47-.04-.54,.47-.54,.47l-.47,.09s.15-1.12-.32-1.31c-.47-.2-3.01,.62-3.39,.29-.37-.33-.2-2.6,.48-2.91,.68-.31,2.54-1.01,3.91-.08,0,0,1.06-.12,1.22,.74,.16,.86-.06,3.39-.35,4.03Z"/>
            <path class="cls-64" d="M98.07,116.48c2.32-.72,2.5-2.11,2.5-2.14-.76,1.31-2.47,1.49-2.47,1.49,0,.18,0,.41-.03,.65Z"/>
            <path class="cls-10" d="M102.16,117.14s-1.7,3.39-4.45,3.17c-2.75-.22-.47-3.62-.34-3.65,.14-.03,2.82-.7,4.79,.49Z"/>
            <path class="cls-23" d="M89.85,133.27s8.42,1.04,13.52,.17l-9.75-1.22s-.06,.25-3.77,1.05Z"/>
            <path class="cls-10" d="M96.15,131.84l-.63,.32s.14,1,.49,1.3l.7-.18s-.15-1.09-.56-1.44Z"/>
            <path class="cls-23" d="M105.89,129.8c-.13,.15-1.78,.81-3.65,1.53h0c-2.55,.98-5.44,1.91-5.44,1.91l-.66-1.41s3.02-1.64,5.06-2.79c.96-.54,1.71-.98,1.81-1.08,.33-.31,.41-.81,.17-1.69-.24-.87-.8-4.89-.86-5.35-.06-.47,.16-1.72,1.33-1.78s1.77,.27,1.77,.27c0,0,.29,.12,.51,2.96,.22,2.84,.25,7.07-.05,7.42Z"/>
            <path class="cls-44" d="M102.95,125.21h0c-.01,.39-.03,.99-.04,1.64-1.14-2.8-.48-5.04-.47-5.07-.12,.76,.51,3.39,.51,3.43Z"/>
            <path class="cls-44" d="M94.13,126.06h0c-.14,.7-.28,1.26-.36,1.44-.39-1.89-.04-4.31-.04-4.31,.05,1.16,.4,2.87,.4,2.87Z"/>
            <path class="cls-10" d="M102.24,131.34h0c-2.55,.98-5.53,1.95-5.53,1.95l-.56-1.44s3.02-1.64,5.06-2.79c0,0,.74,.36,1.04,2.28Z"/>
            <polygon class="cls-45" points="95.97 133.36 84 133.19 90.04 136.26 95.97 133.36"/>
            <polygon class="cls-42" points="90.04 136.26 95.97 133.96 95.97 133.36 89.57 135.67 90.04 136.26"/>
            <path class="cls-10" d="M95.66,132.18s-.75-.12-1.26-.24c-.4-.09-1.39,.04-1.65,.29-.25,.26-1.06,2.04-1.21,2.15-.15,.11,.08,.36,.35,.23,0,0,.25,.78,.85,.49,.61-.29,1.02-.93,1.33-1.04,.32-.11,2.17-.68,2.17-.68,0,0-.1-1.4-.58-1.21Z"/>
            <path class="cls-10" d="M92.93,132.12s-.48,.23-.61,.34c-.13,.1-.63,.48-.76,.57-.12,.09,.19,.34,1.09-.05,.91-.39,.27-.86,.27-.86Z"/>
            <polygon class="cls-42" points="90.04 136.26 86.48 126.54 75.01 126.72 78.4 135.68 90.04 136.26"/>
            <path class="cls-82" d="M82.81,130.84c.35,.7,.24,1.46-.24,1.7-.48,.24-1.15-.13-1.5-.83-.35-.7-.24-1.46,.24-1.7,.48-.24,1.15,.13,1.5,.83Z"/>
            <path class="cls-10" d="M99.98,111.45c.04-.36,.75-.49,.81,.05,.06,.54-.32,1.48-.59,1.38-.27-.09-.27-.94-.22-1.43Z"/>
          </g>
          <g>
            <path class="cls-28" d="M48.99,114.13s-.42,5.86,.73,6.56c.72,.44,3.58,1.92,3.49,2.2-.08,.28-1.62,2.47-1.62,2.47,0,0-5.49-3.62-5.67-4.76-.17-1.11,.27-8.58,1.03-8.93,.57-.26,.86-.04,1.58,.48,1,.74,.46,1.96,.46,1.96Z"/>
            <path class="cls-1" d="M59,115.8l.48-.18s-.6-1.42-.87-1.38c-.3,.04-.68,.14-.68,.14l1.07,1.42Z"/>
            <path class="cls-35" d="M59.11,116.05c-.06-.05-1.03-1.9-1.03-1.9l-2.07,.28,1.12,2.2,1.98-.58Z"/>
            <path class="cls-61" d="M48.35,156.78s-.17,1.19-.19,1.36c-.02,.18-1.9-.1-1.9-.1l-.15-1.41s2.01-.01,2.25,.15Z"/>
            <path class="cls-66" d="M48.18,158s.6,.71,1.17,1.03c.58,.31,1.48,.43,1.82,.76,.25,.23,.9,1.23-1.5,1.21-2.39-.02-3.55,.14-3.8-.24-.26-.38,.37-2.84,.37-2.84,0,0,.57,.2,1.93,.08Z"/>
            <path class="cls-61" d="M57.75,156.78s-.17,1.19-.19,1.36c-.02,.18-1.9-.1-1.9-.1l-.15-1.41s2.01-.01,2.25,.15Z"/>
            <path class="cls-66" d="M57.58,158s.6,.71,1.17,1.03c.58,.31,2.7,.57,3.04,.89,.25,.23,.65,1.17-2.71,1.08-2.39-.06-3.55,.14-3.8-.24-.26-.38,.37-2.84,.37-2.84,0,0,.53,.22,1.93,.08Z"/>
            <path class="cls-66" d="M49.02,126.31s-1.77,2.81-1.63,5.34c.13,2.54-.16,5.25-.42,7.89-.3,2.95-1.1,9.1-1.15,10.68-.04,1.58,.06,7.52,.06,7.52l3.06-.02s1.09-12.01,1.61-13.26c.53-1.25,2.69-10.27,2.78-11.27,.09-1-4.31-6.89-4.31-6.89Z"/>
            <path class="cls-66" d="M58.32,126.69s.7,6.89,.87,8.45c.18,1.55,.06,8.28,.14,9.25,.09,.97-.59,11.23-.75,13.18l-3.37-.02s-.23-8.3-.23-12.33-1.03-8.73-2.22-11.39c-1.19-2.66-3.9-2.72-4.63-7.66,0,0,9.2-1.04,10.18,.52Z"/>
            <path class="cls-10" d="M50.89,102.65s2.1-1.41,3.58,.1c1.48,1.51,2.2,5.05,1.14,5.75-1.06,.71-2.86,.89-3.72-.07-.85-.96-1.77-2.42-1.99-3.49s.45-1.85,.98-2.3Z"/>
            <path class="cls-10" d="M54.9,108.74s-.03,1.48,.14,1.79c.16,.32-3.07,.32-3.07,.32,0,0-.26-1.71-.76-3.16-.5-1.45,3.7,1.05,3.7,1.05Z"/>
            <path class="cls-58" d="M51.28,107.68s.3,.31,1.16-.04c.85-.35,1.66-1.78,2-2,.34-.22,.29-.44,.29-.44l.31,.28,.4-.07s-.61-.97-.17-1.53c.44-.56-1.37-3.28-3.98-1.62,0,0-2.04,1.12-1.67,2.34,.37,1.22,1.02,2.56,1.66,3.07Z"/>
            <path class="cls-80" d="M55.22,110.5s-.01-.6-.28-.66c-.27-.06-3.01-.32-3.35-.19v.7s.65,.4,3.63,.15Z"/>
            <path class="cls-10" d="M54.56,104.76c-.1-.2-.77-.67-.82,.02-.05,.69,.66,1.42,.93,1.28,.27-.14,.15-.8-.1-1.3Z"/>
            <path class="cls-28" d="M66.1,117.62s0,0,0,0c.02,0,.02,0,0,0Z"/>
            <path class="cls-28" d="M59.23,111.34c-1.95-.34-4-.83-4-.83l-3.63-.15s-3.33,.73-4.65,1.33c-.12,.06-.13,2.97-.47,3.74l1.09,2.3s.63,4.55,.76,6.57c.06,.93-1.3,8.71-1.3,8.71,0,0,1.45,.43,3.93,.7,2.48,.27,8.67-.1,8.71-.39,.04-.29-1.2-10.9-1.25-11.45-.08-.84,.24-4.74,.24-4.74,.47,.63,2.69,3.35,3.93,4.7,.73,.79,3.41,2.17,4.04,2.45,1.35,.6,3.5,1.98,3.58,1.84,.06-.09,1.51-2.53,1.34-2.59-.15-.05-4.66-2.81-5.95-3.49-.47-.25-2.3-3.39-2.3-3.39,0,0-3-4.8-4.07-5.29Z"/>
            <path class="cls-58" d="M50.28,103.02s-3.01,.81,.88,4.54l-.88-4.54Z"/>
            <path class="cls-15" d="M73.26,126.64s-.26,0-.38-.05c0,0-.21-.11-.36-.19-.05-.02-.09-.04-.12-.05-.12-.04-.39-.09-.65-.26-.26-.17-1.12-.88-1.12-.88l.47-.84,.19-.81s1.9,.07,2.16,.2c.03,.01,.05,.03,.07,.04,.21,.13,.31,.32,.41,.41,.04,.03,.39,.36,.38,.51-.01,.2-.1,.33-.22,.4,0,0-.04,.39-.23,.58,0,0-.03,.36-.33,.53,0,0-.07,.36-.28,.42Z"/>
          </g>
          <g>
            <path class="cls-48" d="M28.97,106.86c.29,.97-.08,1.94-.84,2.17-.76,.23-1.61-.36-1.91-1.33-.29-.97,.08-1.94,.84-2.17,.76-.23,1.61,.36,1.91,1.33Z"/>
            <path class="cls-28" d="M32.69,112.05s1.07,.34,1.69,1.18c.61,.84,.71,2.02,.74,2.62,.03,.6,.19,2.93,.19,2.93l-1.82,.51-.79-7.25Z"/>
            <path class="cls-66" d="M40.42,158.85s1.37,1.84,1.18,2.13c-.19,.29-1.62,.33-2.5,0-.87-.33-.9-2.49-1.29-3.42-.17-.39,.19-1.53,.69-1.62,.5-.08,1.04,.16,1.04,.16,0,0-.52,1.3,.88,2.74Z"/>
            <path class="cls-10" d="M39.54,156.1s.29,.78,.39,1.53c.09,.62,.97,1.94,.93,2.1-.04,.17-1.17,.32-1.62-.11-.46-.43-.75-1.68-.85-2.43-.09-.7-.21-1.04-.21-1.04,0,0,.93-.52,1.37-.06Z"/>
            <path class="cls-66" d="M28.52,158.88s1.32,1.81,1.13,2.1c-.19,.29-1.62,.33-2.5,0-.87-.33-.9-2.49-1.29-3.42-.17-.39,.19-1.53,.69-1.62,.5-.08,1.08,.18,1.08,.18,0,0-.51,1.32,.89,2.75Z"/>
            <path class="cls-10" d="M27.63,156.13s.1,.85,.27,1.46c.17,.6,1.06,1.98,1.02,2.15-.04,.17-1.17,.32-1.62-.11-.46-.43-.81-1.67-.85-2.43-.04-.75,.1-1.24,.1-1.24,0,0,.65-.28,1.08,.18Z"/>
            <path class="cls-10" d="M34.21,126.18s1.17,5.46,1.44,6.83c.27,1.37,1.02,8.03,1.1,9.16,.08,1.13,1.22,5.39,1.17,5.8-.05,.4,1.69,8.52,1.69,8.52,0,0-.6,.48-1.23,.04-.32-.22-3.84-7.6-3.84-9.62,0-2.79-2.06-6.44-2.33-7.06-2.47-5.8-1.99-7.58-2.31-7.95-.32-.38-.35,.23-.54,1.07-.19,.83-.59,8.05-.83,8.97s-.05,4.01-.19,5.57c-.13,1.56-.73,8.63-.73,8.63,0,0-.46,.72-1.1,.02-.14-.15-1.11-7.87-1.14-9.73-.03-1.86-.06-4.42-.11-5.22-.5-7.7-1.73-8.8,.21-14.25,3.62-10.2,8.72-.77,8.72-.77Z"/>
            <path class="cls-28" d="M26.34,124.65s-3.34,4.68-1.9,14.62c0,0,7.92,1.08,12.17-1.25,0,0-1.76-10.26-2.39-11.85-.64-1.6-7.88-1.52-7.88-1.52Z"/>
            <polygon class="cls-66" points="37.77 157.4 37.77 159.33 38.02 159.33 38.02 157.84 37.77 157.4"/>
            <polygon class="cls-66" points="25.82 157.4 25.82 159.33 26.07 159.33 26.07 157.84 25.82 157.4"/>
            <path class="cls-28" d="M30.82,111.37s1.44,.6,1.87,.69c.43,.09,1.87,2.22,2.16,3.01,.29,.79,0,1.97-.6,3.35-.6,1.38-.03,1.85-.31,3.23-.27,1.38,.61,4.34,.66,5.11,.05,.77-8.04,.89-9.63-.51,0,0,1.6-2.39,1.8-2.74,.21-.34,.03-2.21-.15-2.68-.19-.48-1.44-4.55-1.44-4.55,0,0-1.02-3.13-.1-3.84,.8-.62,2.99-.85,3.39-.98,.39-.14,1.54-.2,2.34-.08Z"/>
            <path class="cls-10" d="M31.41,109.94s-.03,.31-.07,.74c-.02,.19-.04,.4-.05,.62-.05,.62-.09,1.29-.07,1.64,0,0-1.28,1.28-2.73-1.5,0,0,.61-1.15,.15-2.71-.46-1.56,2.78,1.21,2.78,1.21Z"/>
            <polygon class="cls-10" points="34.63 120.26 34.84 120.78 34.38 120.45 34.63 120.26"/>
            <path class="cls-67" d="M31.85,102.85s2.87,.9,1.31,5.85-5.47-.57-5.06-3.59c.41-3.02,3.75-2.26,3.75-2.26Z"/>
            <path class="cls-48" d="M33.45,105.74s-1.42,1.4-3.81,1.57c0,0-.92,1.07-.99,1.5,0,0-2.5-4.17,.49-5.8,3.16-1.73,5.27,1.84,4.31,2.73Z"/>
            <path class="cls-67" d="M29.62,107.28c-.02-.36-.24-1.18-.78-.95-.54,.23,.03,1.9,.39,1.8,0,0,.43,0,.39-.85Z"/>
            <path class="cls-64" d="M31.34,110.68c-.02,.19-.04,.4-.05,.62h0c-1.66-.82-1.91-2-1.92-2.04,1.27,1.42,1.97,1.42,1.97,1.42Z"/>
            <path class="cls-47" d="M35.01,115.82s.08,1.74-.31,2.74l-.36-.19s.66-1.74,.67-2.56Z"/>
            <path class="cls-10" d="M28.79,121.49s.66-.44,.77-.5,.46-.04,.84,.07c.36,.11,.77,.27,.88,.33,.06,.03,.12,.04,.09,.21-.03,.17-.14,.3-.14,.3,0,0,.07,.23-.09,.38,0,0,.05,.21-.15,.36,0,0,.05,.21-.11,.3,0,0-.34,.05-.47,.02-.18-.04-1.13-.26-1.79-.43,0,0-.27-.16,.17-1.04Z"/>
            <path class="cls-10" d="M31.07,121.34s1.72,.38,1.69,.51c-.03,.19-.46,.26-1.76-.09-1.27-.35,.06-.42,.06-.42Z"/>
            <path class="cls-28" d="M26.84,112.14c-.39-.24-1.69-.21-2.2,1.01-.51,1.22-.92,2.61-1.28,3.24-.36,.64-1.56,3.55-1.21,3.9,.36,.35,1.1,.76,2.21,1.03,1.15,.27,4.47,1.51,4.47,1.51l.42-1.8s-1.46-.7-2.31-1.04c-.75-.3-.66-.38-1.9-.82,0,0,.71-1.81,1.03-2.29s2.5-3.67,.75-4.73Z"/>
            <path class="cls-60" d="M31.37,124.56l4.45-.36c.2-.02,.38-.13,.49-.3l4.61-7.48c.26-.42-.04-.96-.53-.96l-4.77-.05c-.23,0-.45,.12-.56,.33l-4.29,7.89c-.24,.44,.11,.97,.6,.93Z"/>
            <path class="cls-10" d="M37.6,121.81s.28-.26,.53-.62c.25-.36,1.06-1.75,.99-1.84s-1.29-.12-1.51,.08c-.22,.2,.22,.28,.22,.28,0,0-.66,.07-.61,.26,.05,.19,.45,.14,.45,.14,0,0-.53,.1-.45,.27s.34,.16,.34,.16c0,0-.47,.06-.41,.24,.06,.18,.81,.35,.71,.5-.1,.15-.24,.55-.24,.55Z"/>
            <path class="cls-10" d="M28.27,111.49s1.61,2.62,2.88,2.58c1.27-.03,.4-2.42,.4-2.42,0,0-.98-.78-3.29-.17Z"/>
            <path class="cls-14" d="M36.64,120.27c-.43,.43-1.01,.55-1.3,.26-.29-.29-.17-.87,.26-1.3s1.01-.55,1.3-.26,.17,.87-.26,1.3Z"/>
            <path class="cls-48" d="M33.68,105.05s.18,.69-.12,1.89c0,0,.05-1.13-.19-1.44-.24-.31,.31-.45,.31-.45Z"/>
          </g>
        </g>
      </g>
    </g>
  </g>
</svg>