<?xml version="1.0" encoding="UTF-8"?>
<svg id="Layer_1" data-name="Layer 1" xmlns="http://www.w3.org/2000/svg" xmlns:xlink="http://www.w3.org/1999/xlink" viewBox="0 0 200 200">
  <defs>
    <style>
      .cls-1 {
        fill: #fff;
      }

      .cls-2 {
        fill: #ffa2e0;
      }

      .cls-3 {
        fill: #575757;
      }

      .cls-4 {
        opacity: .5;
      }

      .cls-5 {
        fill: #66bae0;
      }

      .cls-6 {
        fill: #f0c52c;
      }

      .cls-7 {
        clip-path: url(#clippath-2);
      }

      .cls-8 {
        opacity: .2;
      }

      .cls-9 {
        fill: #ffa4c6;
      }

      .cls-10 {
        clip-path: url(#clippath-7);
      }

      .cls-11 {
        opacity: .44;
      }

      .cls-12 {
        clip-path: url(#clippath-4);
      }

      .cls-12, .cls-13, .cls-14, .cls-15, .cls-16 {
        fill: #1a2e35;
      }

      .cls-13 {
        clip-path: url(#clippath-1);
      }

      .cls-17 {
        fill: #53c1b7;
      }

      .cls-18 {
        fill: gray;
      }

      .cls-19 {
        fill: #00d8a3;
      }

      .cls-20 {
        fill: #00ffd7;
      }

      .cls-14 {
        clip-path: url(#clippath-8);
      }

      .cls-21 {
        fill: #00d8b1;
      }

      .cls-22 {
        clip-path: url(#clippath-9);
      }

      .cls-23 {
        clip-path: url(#clippath);
      }

      .cls-24 {
        fill: #494949;
      }

      .cls-25 {
        fill: #2c2c2c;
      }

      .cls-26 {
        fill: #ffc969;
      }

      .cls-27 {
        clip-path: url(#clippath-3);
      }

      .cls-28 {
        fill: #00ffd8;
      }

      .cls-15 {
        clip-path: url(#clippath-6);
      }

      .cls-29 {
        clip-path: url(#clippath-5);
      }

      .cls-30 {
        fill: #ff715f;
      }

      .cls-31 {
        fill: #404040;
      }
    </style>
    <clipPath id="clippath">
      <rect class="cls-21" x="92.06" y="131.23" width="25.14" height="6.23" rx="3.12" ry="3.12"/>
    </clipPath>
    <clipPath id="clippath-1">
      <path class="cls-1" d="M83.92,106.15s-16.47,4.54-19.11,4.2c-2.64-.34-3.46-1.49-4.07-1.49s-2.3,.81-3.05,.75c-.75-.07-1.63-.27-1.63,.2s.68,1.22,1.08,1.22,2.03-.07,2.03-.07c0,0-3.18,.95-3.32,1.56-.14,.61,.27,1.15,.88,1.29,.61,.14,.88,.41,.88,.41,0,0,.27,1.02,.68,1.49,.41,.47,1.63,.68,2.98,.41,1.36-.27,3.73-1.49,4.27-1.83s17.01-1.83,18.23-2.1c1.22-.27,2.71-.27,3.18-1.08,.47-.81-3.05-4.95-3.05-4.95Z"/>
    </clipPath>
    <clipPath id="clippath-2">
      <path class="cls-13" d="M60.1,116.43c-.88,0-1.61-.21-1.94-.6-.38-.44-.64-1.28-.7-1.51-.08-.07-.33-.23-.75-.33-.74-.16-1.18-.82-1.03-1.52,.1-.43,1.19-.92,2.16-1.27-.29,0-.55,.02-.69,.02-.52,0-1.28-.83-1.28-1.41,0-.14,.05-.26,.15-.34,.25-.22,.74-.16,1.3-.1,.13,.02,.26,.03,.39,.04,.37,.03,1.08-.2,1.69-.4,.56-.18,1.04-.34,1.34-.34,.27,0,.53,.15,.89,.37,.61,.36,1.53,.91,3.2,1.12,2.58,.33,18.87-4.15,19.03-4.2,.07-.02,.15,0,.2,.06,.85,.99,3.57,4.3,3.07,5.17-.4,.69-1.37,.85-2.4,1.01-.3,.05-.62,.1-.91,.16-.52,.12-3.64,.44-7.26,.81-4.43,.46-10.51,1.08-10.92,1.27-.53,.33-2.94,1.57-4.33,1.85-.42,.08-.84,.13-1.23,.13Zm-.91-5.66c.09,0,.17,.07,.19,.16,.02,.1-.04,.19-.13,.22-1.67,.5-3.13,1.15-3.19,1.42-.11,.49,.21,.94,.74,1.06,.66,.15,.96,.45,.97,.46,.02,.02,.04,.05,.05,.09,0,0,.26,.98,.64,1.42,.32,.37,1.41,.62,2.8,.34,1.34-.27,3.68-1.47,4.2-1.8,.3-.19,3.51-.55,11.07-1.32,3.45-.36,6.72-.69,7.22-.8,.3-.07,.62-.12,.93-.17,.93-.15,1.82-.29,2.13-.83,.25-.42-1.33-2.71-2.95-4.63-1.6,.44-16.51,4.5-19.07,4.17-1.75-.22-2.71-.8-3.35-1.17-.31-.18-.53-.32-.69-.32-.24,0-.74,.16-1.22,.32-.69,.23-1.4,.46-1.85,.42-.13-.01-.26-.03-.4-.04-.37-.04-.88-.1-1,0,0,0-.02,.02-.02,.05,0,.38,.61,1.03,.89,1.03,.4,0,2.01-.07,2.03-.07,0,0,0,0,0,0Z"/>
    </clipPath>
    <clipPath id="clippath-3">
      <path class="cls-20" d="M97.82,89.55s-1.49,4.07-3.39,6.78c-1.9,2.71-2.71,5.56-1.49,8.61,1.22,3.05,3.86,3.73,3.86,3.73,0,0-.95,8.95-.68,11.32,.27,2.37,3.93,5.15,9.42,5.35,5.49,.2,10.23-1.76,10.23-3.66s-3.86-11.99-3.86-14.1,.34-8.67-1.49-14.57c-1.83-5.9-8.27-7.79-12.6-3.46Z"/>
    </clipPath>
    <clipPath id="clippath-4">
      <path class="cls-28" d="M97.41,90.57s-1.29,.75-2.85,2.37-9.08,13.01-9.08,13.01c0,0,2.24,4.68,2.91,4.81,.68,.14,12.47-9.96,13.55-11.18,1.08-1.22,1.76-3.46,1.42-4.4"/>
    </clipPath>
    <clipPath id="clippath-5">
      <path class="cls-12" d="M88.38,110.95s-.02,0-.02,0c-.72-.14-2.52-3.8-3.05-4.92-.03-.06-.02-.13,.01-.19,.31-.47,7.55-11.42,9.1-13.04,1.56-1.63,2.84-2.37,2.89-2.41,.09-.05,.21-.02,.26,.07,.05,.09,.02,.21-.07,.26-.01,0-1.29,.75-2.8,2.34-1.46,1.52-8.29,11.82-9,12.89,1.04,2.16,2.37,4.52,2.73,4.61,.77-.13,12.08-9.67,13.37-11.12,1.09-1.23,1.68-3.38,1.39-4.21-.04-.1,.02-.21,.12-.24,.1-.04,.21,.02,.24,.12,.37,1.04-.36,3.36-1.46,4.6-.67,.75-12.64,11.24-13.71,11.24Z"/>
    </clipPath>
    <clipPath id="clippath-6">
      <path class="cls-1" d="M86.3,76.74s-.14,1.97,.2,2.58c.34,.61,1.29,1.22,1.29,2.03s-.68,1.9-.47,2.51c.2,.61,1.29,.68,1.29,.68,0,0,2.03,2.51,2.64,3.39s.88,.54,1.83,.27,2.98-2.03,4.13-3.39c1.15-1.36-.75-5.49-3.25-8.27s-6.23-2.71-7.05-1.9c-.81,.81-.61,2.1-.61,2.1Z"/>
    </clipPath>
    <clipPath id="clippath-7">
      <path class="cls-15" d="M92,88.68c-.31,0-.58-.16-.92-.65-.55-.79-2.27-2.92-2.58-3.31-.28-.03-1.16-.18-1.37-.8-.13-.4,.03-.9,.21-1.44,.13-.39,.26-.8,.26-1.13,0-.45-.37-.86-.73-1.26-.21-.23-.41-.45-.54-.68-.35-.62-.25-2.38-.23-2.66-.03-.19-.15-1.42,.67-2.24,.37-.37,1.16-.57,2.12-.54,1.92,.05,3.87,.96,5.21,2.45,2.55,2.83,4.49,7.07,3.26,8.52-1.19,1.4-3.25,3.17-4.23,3.45-.17,.05-.32,.1-.45,.15-.26,.09-.47,.16-.67,.16Zm-3.26-14.34c-.77,0-1.43,.17-1.7,.43-.73,.73-.56,1.92-.56,1.94,0,.01,0,.03,0,.04-.04,.53-.08,2.01,.18,2.47,.11,.19,.29,.4,.49,.61,.39,.43,.82,.91,.82,1.51,0,.39-.14,.83-.28,1.25-.15,.45-.3,.92-.21,1.2,.13,.4,.85,.53,1.12,.55,.05,0,.1,.03,.14,.07,.08,.1,2.04,2.52,2.65,3.4,.41,.6,.57,.55,1.15,.35,.14-.05,.29-.1,.47-.15,.9-.26,2.91-2,4.04-3.33,.99-1.17-.59-5.06-3.25-8.02-1.27-1.41-3.12-2.28-4.93-2.32-.05,0-.09,0-.14,0Z"/>
    </clipPath>
    <clipPath id="clippath-8">
      <path class="cls-16" d="M84.19,73.76v.27s-.14,3.32-.14,3.32l3.66,.47,.81-1.42v1.56s1.56-.2,3.32,.47c1.76,.68,4,5.49,3.86,7.45-.14,1.97-1.83,2.37-1.63,5.35,.2,2.98,4.74,5.96,8.2,4.07s4-4.34,5.42-3.86c1.42,.47,3.59,3.39,4.95-.75s.75-6.78-2.44-10.16c-3.18-3.39-5.69-3.12-6.1-5.83-.41-2.71-1.29-6.37-4.2-8.4s-7.12-2.17-10.71-.61c-3.59,1.56-5.01,6.3-5.01,8.06Z"/>
    </clipPath>
    <clipPath id="clippath-9">
      <path class="cls-14" d="M99.92,96.09c-1,0-2.04-.27-3.01-.8-1.72-.94-2.91-2.53-3.01-4.03-.12-1.79,.43-2.7,.91-3.51,.34-.56,.66-1.09,.71-1.87,.13-1.95-2.08-6.62-3.74-7.26-1.69-.65-3.21-.46-3.23-.46-.05,0-.11,0-.15-.05-.04-.04-.07-.09-.07-.14v-.84l-.46,.8c-.04,.07-.11,.1-.19,.09l-3.66-.47c-.1-.01-.17-.1-.17-.2l.14-3.59c0-1.55,1.27-6.56,5.13-8.24,3.74-1.62,8.02-1.38,10.89,.63,3.01,2.1,3.88,5.87,4.28,8.53,.22,1.46,1.09,2,2.4,2.83,1.01,.63,2.27,1.42,3.65,2.9,3.22,3.42,3.87,6.13,2.48,10.36-.42,1.27-.94,2-1.61,2.23-.86,.3-1.75-.27-2.54-.79-.38-.25-.74-.48-1.04-.58-.59-.2-.98,.18-1.82,1.06-.74,.78-1.75,1.85-3.45,2.79-.75,.41-1.59,.61-2.46,.61Zm-10.79-18.35c.63,0,1.67,.08,2.8,.52,1.81,.7,4.13,5.54,3.98,7.65-.06,.87-.4,1.44-.77,2.04-.48,.79-.97,1.61-.86,3.28,.09,1.38,1.2,2.84,2.81,3.72,1.73,.95,3.6,1.02,5.11,.19,1.65-.91,2.64-1.95,3.36-2.71,.79-.84,1.37-1.45,2.22-1.16,.35,.12,.73,.36,1.13,.62,.75,.48,1.52,.99,2.2,.75,.54-.19,1-.86,1.37-1.99,1.33-4.06,.71-6.67-2.4-9.97-1.35-1.44-2.58-2.21-3.58-2.83-1.35-.85-2.33-1.46-2.57-3.1-.39-2.59-1.24-6.26-4.12-8.27-2.77-1.93-6.9-2.16-10.52-.59-3.49,1.51-4.9,6.19-4.9,7.89h0s-.13,3.42-.13,3.42l3.36,.44,.75-1.31c.04-.08,.13-.11,.22-.09,.08,.02,.14,.1,.14,.19v1.35c.1,0,.24-.01,.4-.01Zm-4.93-3.98h0Z"/>
    </clipPath>
  </defs>
  <g id="Graphics">
    <g>
      <g>
        <polygon class="cls-16" points="47.42 108.93 33.12 108.93 14.41 58.71 28.7 58.71 47.42 108.93"/>
        <g class="cls-8">
          <polygon class="cls-1" points="47.42 108.93 33.12 108.93 14.41 58.71 28.7 58.71 47.42 108.93"/>
        </g>
        <path class="cls-16" d="M24.89,70.98h-3.68c-.46,0-.97-.37-1.14-.83l-1.42-3.81c-.17-.46,.06-.83,.52-.83h3.68c.46,0,.97,.37,1.14,.83l1.42,3.81c.17,.46-.06,.83-.52,.83Z"/>
        <polygon class="cls-16" points="29.65 61.25 15.36 61.25 14.41 58.71 28.7 58.71 29.65 61.25"/>
        <g>
          <path class="cls-16" d="M20.65,62.96c-.08,0-.15-.05-.18-.12l-.41-1.1c-.04-.1,.01-.21,.11-.25,.1-.04,.21,.01,.25,.11l.41,1.1c.04,.1-.01,.21-.11,.25-.02,0-.04,.01-.07,.01Z"/>
          <path class="cls-16" d="M21.2,62.96c-.08,0-.15-.05-.18-.12l-.41-1.1c-.04-.1,.01-.21,.11-.25,.1-.04,.21,.01,.25,.11l.41,1.1c.04,.1-.01,.21-.11,.25-.02,0-.04,.01-.07,.01Z"/>
          <path class="cls-16" d="M21.75,62.96c-.08,0-.15-.05-.18-.12l-.41-1.1c-.04-.1,.01-.21,.11-.25,.1-.04,.21,.01,.25,.11l.41,1.1c.04,.1-.01,.21-.11,.25-.02,0-.04,.01-.07,.01Z"/>
          <path class="cls-16" d="M22.3,62.96c-.08,0-.15-.05-.18-.12l-.41-1.1c-.04-.1,.01-.21,.11-.25,.1-.04,.21,.01,.25,.11l.41,1.1c.04,.1-.01,.21-.11,.25-.02,0-.04,.01-.07,.01Z"/>
          <path class="cls-16" d="M22.85,62.96c-.08,0-.15-.05-.18-.12l-.41-1.1c-.04-.1,.01-.21,.11-.25,.1-.04,.21,.01,.25,.11l.41,1.1c.04,.1-.01,.21-.11,.25-.02,0-.04,.01-.07,.01Z"/>
          <path class="cls-16" d="M23.4,62.96c-.08,0-.15-.05-.18-.12l-.41-1.1c-.04-.1,.01-.21,.11-.25,.1-.04,.21,.01,.25,.11l.41,1.1c.04,.1-.01,.21-.11,.25-.02,0-.04,.01-.07,.01Z"/>
          <path class="cls-16" d="M23.96,62.96c-.08,0-.15-.05-.18-.12l-.41-1.1c-.04-.1,.01-.21,.11-.25,.1-.04,.21,.01,.25,.11l.41,1.1c.04,.1-.01,.21-.11,.25-.02,0-.04,.01-.07,.01Z"/>
          <path class="cls-16" d="M24.51,62.96c-.08,0-.15-.05-.18-.12l-.41-1.1c-.04-.1,.01-.21,.11-.25,.1-.04,.21,.01,.25,.11l.41,1.1c.04,.1-.01,.21-.11,.25-.02,0-.04,.01-.07,.01Z"/>
          <path class="cls-16" d="M25.06,62.96c-.08,0-.15-.05-.18-.12l-.41-1.1c-.04-.1,.01-.21,.11-.25,.1-.04,.21,.01,.25,.11l.41,1.1c.04,.1-.01,.21-.11,.25-.02,0-.04,.01-.07,.01Z"/>
          <path class="cls-16" d="M25.61,62.96c-.08,0-.15-.05-.18-.12l-.41-1.1c-.04-.1,.01-.21,.11-.25,.1-.04,.21,.01,.25,.11l.41,1.1c.04,.1-.01,.21-.11,.25-.02,0-.04,.01-.07,.01Z"/>
        </g>
        <g>
          <path class="cls-1" d="M23.7,68.59l-3.46-2.19c-.08-.05-.17-.06-.23-.02-.06,.04-.07,.11-.03,.2l1.59,3.42c.04,.08,.12,.15,.21,.18,.02,0,.04,0,.05,0,.06,0,.11-.03,.13-.09l.37-1.12,1.38-.02c.08,0,.14-.05,.14-.13,0-.08-.06-.17-.14-.22Z"/>
          <polygon class="cls-16" points="23.63 68.74 20.17 66.55 21.75 69.97 22.14 68.76 23.63 68.74"/>
        </g>
        <polygon class="cls-1" points="30.09 68.74 26.63 66.55 28.22 69.97 28.61 68.76 30.09 68.74"/>
        <polygon class="cls-1" points="31.87 70.69 31.56 69.98 31.15 70.58 31.87 70.69"/>
        <polygon class="cls-1" points="40.23 93.13 39.92 92.43 39.51 93.02 40.23 93.13"/>
        <polygon class="cls-1" points="42.8 100.02 42.48 99.32 42.08 99.91 42.8 100.02"/>
        <polygon class="cls-1" points="45.43 107.08 45.12 106.38 44.71 106.97 45.43 107.08"/>
        <polygon class="cls-1" points="30.69 85.18 30.38 84.47 29.97 85.07 30.69 85.18"/>
        <polygon class="cls-1" points="33.65 93.13 33.34 92.43 32.93 93.02 33.65 93.13"/>
        <polygon class="cls-1" points="36.22 100.02 35.91 99.32 35.5 99.91 36.22 100.02"/>
        <polygon class="cls-1" points="38.85 107.08 38.54 106.38 38.13 106.97 38.85 107.08"/>
        <g>
          <polygon class="cls-1" points="23.7 78.24 24.3 78.63 25.95 75.18 25.35 74.79 23.7 78.24"/>
          <path class="cls-1" d="M24.44,74.87c-.87-.68-.94-.82-.72-1.59-.45,.62-.58,.63-1.55,.13,.87,.68,.94,.82,.72,1.59,.45-.62,.58-.63,1.55-.13Z"/>
          <path class="cls-1" d="M27.32,75.24c-.54-.42-.58-.51-.45-.99-.28,.38-.36,.39-.96,.08,.54,.42,.58,.51,.45,.99,.28-.38,.36-.39,.96-.08Z"/>
          <path class="cls-1" d="M27.16,76.86c-.39-.3-.41-.36-.32-.7-.2,.27-.26,.28-.68,.06,.39,.3,.41,.36,.32,.7,.2-.27,.26-.28,.68-.06Z"/>
        </g>
        <polygon class="cls-1" points="35.84 92.16 36.21 92.43 37.86 88.97 37.49 88.71 35.84 92.16"/>
        <g>
          <polygon class="cls-1" points="34.45 77.35 31.4 75.42 32.8 78.44 33.14 77.37 34.45 77.35"/>
          <path class="cls-1" d="M32.15,77.53c-1.12,0-2.28-.66-2.58-1.47-.3-.81,.36-1.47,1.48-1.47s2.28,.66,2.58,1.47c.3,.81-.36,1.47-1.48,1.47Zm-1.03-2.77c-1.02,0-1.64,.58-1.37,1.29,.27,.71,1.31,1.29,2.34,1.29s1.64-.58,1.37-1.29c-.27-.71-1.31-1.29-2.34-1.29Z"/>
          <path class="cls-1" d="M30.81,77.24c-.28,0-.58-.22-.69-.5-.1-.28,.04-.5,.31-.5s.58,.22,.69,.5c.1,.28-.04,.5-.31,.5Zm-.31-.82c-.18,0-.27,.15-.2,.32,.07,.18,.27,.32,.44,.32s.27-.15,.2-.32c-.07-.18-.27-.32-.44-.32Z"/>
          <path class="cls-1" d="M30.86,77.76l-.12-.17c.22-.09,.34-.22,.36-.4,.02-.22-.13-.43-.13-.43l.14-.06s.2,.28,.18,.57c-.02,.22-.16,.38-.42,.49Z"/>
        </g>
        <g>
          <polygon class="cls-1" points="28.94 82.74 26.81 81.19 26.36 81.91 28.49 83.46 28.94 82.74"/>
          <path class="cls-1" d="M25.53,84.75l.35,.25,.78-1.24c-.09-.09-.12-.21-.07-.29,.06-.1,.21-.1,.35,0,.13,.1,.19,.25,.13,.35-.05,.08-.17,.09-.28,.04l-.78,1.24,.32,.24,1.93-.54,.12-1.14-2.1-1.53-.97,.52,.23,2.11Z"/>
        </g>
        <path class="cls-16" d="M35.82,80.07h-12.3c-.11,0-.19-.09-.19-.19s.09-.19,.19-.19h12.3c.11,0,.19,.09,.19,.19s-.09,.19-.19,.19Z"/>
        <g>
          <polygon class="cls-1" points="34.21 81.19 33.76 81.91 35.89 83.46 36.35 82.74 34.21 81.19"/>
          <path class="cls-1" d="M32.7,82.64l.23,2.11,.35,.25,.78-1.24c-.09-.09-.12-.21-.07-.29,.06-.1,.21-.1,.35,0,.13,.1,.19,.25,.13,.35-.05,.08-.17,.09-.28,.04l-.78,1.24,.32,.24,1.93-.54,.12-1.14-2.1-1.53-.97,.52Z"/>
          <path class="cls-1" d="M32.18,83.26c.02-.15,.04-.31,.06-.49,.03-.36-.07-.69-.3-.96-.36-.43-.91-.57-.94-.58-.06-.01-.1,.02-.1,.07,0,.05,.06,.11,.12,.12,0,0,.47,.12,.77,.47,.18,.22,.26,.48,.24,.79-.01,.18-.04,.34-.06,.48-.1,.76-.16,1.23,1.11,1.99,.02,.01,.05,.02,.07,.02,.03,0,.05-.01,.06-.04,.02-.04-.01-.11-.07-.14-1.1-.66-1.06-.98-.96-1.74Z"/>
        </g>
        <path class="cls-1" d="M26.73,88.38l.07,.2c.03,.07,.26,.69,.38,.9l.36-.09c-.06-.1-.17-.38-.27-.61h1.52l1.27,3.41h-.57l.15,.4h1.54l-.15-.4h-.57l-1.27-3.41h1.48c.08,.22,.21,.55,.27,.72h.4c-.1-.26-.34-.92-.34-.92l-.07-.2h-4.2Z"/>
        <g>
          <g class="cls-11">
            <path class="cls-1" d="M34.73,97.85c.33,.88-.39,1.59-1.61,1.59s-2.47-.71-2.79-1.59,.39-1.59,1.61-1.59,2.47,.71,2.79,1.59Z"/>
          </g>
          <path class="cls-1" d="M33.12,99.63c-1.31,0-2.61-.75-2.97-1.71-.15-.41-.11-.82,.12-1.15,.31-.45,.92-.7,1.67-.7,1.31,0,2.61,.75,2.97,1.71h0c.15,.41,.11,.82-.12,1.15-.31,.45-.92,.7-1.67,.7Zm-1.18-3.18c-.62,0-1.12,.2-1.36,.54-.16,.23-.18,.5-.07,.79,.3,.81,1.47,1.46,2.61,1.46,.62,0,1.12-.2,1.36-.54,.16-.23,.18-.5,.07-.79h0c-.3-.81-1.47-1.46-2.61-1.46Z"/>
        </g>
        <g>
          <path class="cls-1" d="M39.26,97.89l1.44-2.62c.06-.11,.21-.13,.37-.06h0c.18,.09,.3,.29,.26,.43l-.78,2.9-1.3-.65Z"/>
          <path class="cls-1" d="M39.02,98.11c.57-.08,1.68,.41,1.71,1.14,0,.18-.12,.31-.26,.4-.43,.26-1.03,.27-1.61,.28,.14-.1,.2-.28,.15-.48-.05-.21-.19-.41-.26-.62-.11-.29-.05-.69,.27-.71"/>
        </g>
        <g>
          <path class="cls-1" d="M36.01,103.87c-.17-.37-.38-.59-.52-.72l-.44,.69c.17,.14,.41,.4,.6,.81,.17,.37,.32,.63,.43,.8l.43-.68c-.14-.2-.32-.51-.5-.91Z"/>
          <path class="cls-1" d="M35.51,104.67c-.17-.37-.38-.59-.52-.72l-.44,.69c.17,.14,.41,.4,.6,.81,.17,.37,.32,.63,.43,.8l.43-.68c-.14-.2-.32-.51-.5-.91Z"/>
          <path class="cls-1" d="M36.16,103.86c.17,.37,.32,.63,.43,.8l.63-1-1.41-1.02-.26,.41c.17,.14,.41,.4,.6,.81Z"/>
          <path class="cls-1" d="M35.01,105.47c-.17-.37-.38-.59-.52-.72l-.36,.58,.06,1.32c0,.09,.12,.18,.2,.15l1.12-.44c-.14-.2-.32-.51-.5-.9Zm-.5,.88l-.03-.7,.64,.47-.61,.24Z"/>
        </g>
        <path class="cls-1" d="M40.52,104.49l-.48,.76,2.47,1.8,.48-.76,.15,.11,1.13-1.8-2.77-2.02-1.13,1.8,.15,.11Zm1.83,2.13l-1.87-1.37,.34-.55,1.87,1.37-.34,.55Z"/>
        <g>
          <polygon class="cls-1" points="17.17 59.38 17.26 59.63 16.92 60.05 17.58 60.47 17.67 60.71 16.63 60.05 17.17 59.38"/>
          <polygon class="cls-1" points="16.31 59.38 16.4 59.63 16.05 60.05 16.71 60.47 16.8 60.71 15.77 60.05 16.31 59.38"/>
        </g>
      </g>
      <g>
        <polygon class="cls-16" points="75.1 88.83 45.54 88.83 36.5 63.62 66.06 63.62 75.1 88.83"/>
        <polygon class="cls-21" points="73 87.45 46.65 87.45 38.6 64.99 64.95 64.99 73 87.45"/>
        <polygon class="cls-1" points="67.99 73.47 63.63 70.27 60.19 79.2 51.27 76.68 46.65 87.45 73 87.45 67.99 73.47"/>
        <path class="cls-1" d="M49.83,69.81c-.61-1.71-2.49-3.09-4.2-3.09s-2.6,1.39-1.98,3.09c.61,1.71,2.49,3.09,4.2,3.09s2.6-1.39,1.98-3.09Z"/>
      </g>
      <g>
        <polygon class="cls-16" points="78.16 84.49 48.6 84.49 39.56 59.28 69.13 59.28 78.16 84.49"/>
        <polygon class="cls-21" points="76.07 83.11 49.71 83.11 41.66 60.66 68.01 60.66 76.07 83.11"/>
        <polygon class="cls-1" points="71.05 69.13 66.7 65.93 63.25 74.86 54.33 72.34 49.71 83.11 76.07 83.11 71.05 69.13"/>
        <path class="cls-1" d="M52.9,65.47c-.61-1.71-2.49-3.09-4.2-3.09s-2.6,1.39-1.98,3.09c.61,1.71,2.49,3.09,4.2,3.09s2.6-1.39,1.98-3.09Z"/>
      </g>
      <g>
        <path d="M78.3,55.32l.71,1.72h-.21c-.15-.3-.28-.52-.4-.65-.19-.21-.39-.36-.62-.46-.22-.1-.49-.15-.79-.15h-1.04l2.05,5.62c.17,.45,.32,.73,.46,.85,.19,.15,.43,.23,.72,.23h.25l.07,.2h-3.12l-.07-.2h.26c.31,0,.5-.09,.56-.28,.04-.12-.02-.38-.17-.79l-2.05-5.62h-.88c-.34,0-.58,.03-.7,.08-.16,.07-.28,.2-.34,.4-.06,.2-.05,.46,.05,.79h-.21l-.54-1.72h6Z"/>
        <rect class="cls-16" x="82.77" y="58.69" width="2.25" height=".19"/>
        <path class="cls-16" d="M85.09,64.85h-11.52l-.02-.06-4.24-11.59h11.52l.02,.06,4.24,11.59Zm-11.39-.19h11.12l-4.12-11.27h-11.12l4.12,11.27Z"/>
        <g>
          <polygon class="cls-1" points="72.02 59.21 71.17 59.21 70.86 58.36 71.71 58.36 72.02 59.21"/>
          <path class="cls-16" d="M72.15,59.31h-1.05l-.38-1.04h1.05l.38,1.04Zm-.92-.19h.64l-.24-.66h-.64l.24,.66Z"/>
        </g>
        <g>
          <polygon class="cls-1" points="83.35 59.21 82.5 59.21 82.19 58.36 83.04 58.36 83.35 59.21"/>
          <path class="cls-16" d="M83.49,59.31h-1.05l-.38-1.04h1.05l.38,1.04Zm-.92-.19h.64l-.24-.66h-.64l.24,.66Z"/>
        </g>
        <g>
          <polygon class="cls-1" points="70.03 53.77 69.18 53.77 68.87 52.92 69.72 52.92 70.03 53.77"/>
          <path class="cls-16" d="M70.16,53.87h-1.05l-.38-1.04h1.05l.38,1.04Zm-.92-.19h.64l-.24-.66h-.64l.24,.66Z"/>
        </g>
        <g>
          <polygon class="cls-1" points="81.36 53.77 80.51 53.77 80.2 52.92 81.05 52.92 81.36 53.77"/>
          <path class="cls-16" d="M81.5,53.87h-1.05l-.38-1.04h1.05l.38,1.04Zm-.92-.19h.64l-.24-.66h-.64l.24,.66Z"/>
        </g>
        <g>
          <polygon class="cls-1" points="75.7 53.77 74.85 53.77 74.54 52.92 75.39 52.92 75.7 53.77"/>
          <path class="cls-16" d="M75.84,53.87h-1.05l-.38-1.04h1.05l.38,1.04Zm-.92-.19h.64l-.24-.66h-.64l.24,.66Z"/>
        </g>
        <g>
          <polygon class="cls-1" points="74.17 65.11 73.32 65.11 73.01 64.26 73.86 64.26 74.17 65.11"/>
          <path class="cls-16" d="M74.31,65.2h-1.05l-.38-1.04h1.05l.38,1.04Zm-.92-.19h.64l-.24-.66h-.64l.24,.66Z"/>
        </g>
        <g>
          <polygon class="cls-1" points="85.51 65.11 84.66 65.11 84.35 64.26 85.2 64.26 85.51 65.11"/>
          <path class="cls-16" d="M85.64,65.2h-1.05l-.38-1.04h1.05l.38,1.04Zm-.92-.19h.64l-.24-.66h-.64l.24,.66Z"/>
        </g>
        <rect class="cls-16" x="79.67" y="64.88" width=".19" height="2.4" transform="translate(-17.84 31.41) rotate(-20.09)"/>
        <g>
          <polygon class="cls-1" points="79.84 65.11 79 65.11 78.68 64.26 79.53 64.26 79.84 65.11"/>
          <path class="cls-16" d="M79.98,65.2h-1.05l-.38-1.04h1.05l.38,1.04Zm-.92-.19h.64l-.24-.66h-.64l.24,.66Z"/>
        </g>
        <polygon class="cls-16" points="80.77 67.63 79.92 67.63 79.61 66.78 80.45 66.78 80.77 67.63"/>
        <rect class="cls-16" x="72.95" y="62.5" width="9.51" height=".19"/>
        <path class="cls-16" d="M85.47,58.79c-.09-.25-.36-.45-.61-.45s-.37,.2-.28,.45c.09,.25,.36,.45,.61,.45s.37-.2,.28-.45Z"/>
      </g>
      <g>
        <g class="cls-8">
          <polygon points="32.99 119.58 43.25 128.37 33.48 176.2 34.14 176.2 45.01 129.25 54.97 137.61 40.91 176.15 41.79 176 56.59 138.49 97.76 176 122.82 176 93.51 118.56 32.99 119.58"/>
        </g>
        <g>
          <g>
            <polygon class="cls-16" points="34.14 176.2 33.48 176.2 32.48 118.76 35.13 118.76 34.14 176.2"/>
            <path class="cls-16" d="M34.14,176.39h-.66c-.1,0-.19-.08-.19-.19l-.99-57.44c0-.05,.02-.1,.05-.14s.09-.06,.14-.06h2.65c.05,0,.1,.02,.14,.06s.06,.09,.05,.14l-.99,57.44c0,.1-.09,.19-.19,.19Zm-.47-.38h.29l.99-57.06h-2.26l.99,57.06Z"/>
          </g>
          <g>
            <polygon class="cls-16" points="91.14 176.2 90.47 176.2 89.48 118.76 92.13 118.76 91.14 176.2"/>
            <path class="cls-16" d="M91.14,176.39h-.66c-.1,0-.19-.08-.19-.19l-.99-57.44c0-.05,.02-.1,.05-.14s.09-.06,.14-.06h2.65c.05,0,.1,.02,.14,.06s.06,.09,.05,.14l-.99,57.44c0,.1-.09,.19-.19,.19Zm-.47-.38h.29l.99-57.06h-2.26l.99,57.06Z"/>
          </g>
          <g>
            <rect class="cls-1" x="31.47" y="117.88" width="63.7" height="1.49"/>
            <path class="cls-16" d="M95.17,119.56H31.47c-.11,0-.19-.09-.19-.19v-1.49c0-.11,.09-.19,.19-.19h63.7c.11,0,.19,.09,.19,.19v1.49c0,.11-.09,.19-.19,.19Zm-63.51-.38h63.32v-1.11H31.66v1.11Z"/>
          </g>
        </g>
      </g>
      <g>
        <g>
          <g>
            <path class="cls-1" d="M17.09,148.71l-1.16,2.44s1.42,1.54,2.06,1.54,.9-.64,1.67-.9c.77-.26,2.06-2.7,2.06-2.7,0,0-.77-1.29-1.54-1.42s-1.93-.51-2.57-.64c-.64-.13-.51,1.67-.51,1.67Z"/>
            <path class="cls-16" d="M17.99,152.89c-.69,0-1.95-1.34-2.2-1.61-.05-.06-.07-.14-.03-.21l1.14-2.4c-.02-.32-.05-1.37,.34-1.72,.12-.1,.26-.14,.41-.11,.29,.06,.66,.16,1.07,.27,.53,.15,1.07,.3,1.5,.37,.85,.14,1.64,1.45,1.68,1.51,.03,.06,.04,.13,0,.19-.14,.26-1.35,2.52-2.17,2.79-.32,.11-.54,.29-.76,.46-.27,.22-.55,.45-.97,.45Zm-1.83-1.77c.54,.57,1.44,1.39,1.83,1.39,.28,0,.48-.16,.73-.36,.23-.19,.5-.4,.88-.53,.49-.16,1.4-1.59,1.9-2.51-.25-.38-.84-1.15-1.35-1.23-.45-.07-1-.23-1.54-.38-.39-.11-.77-.21-1.04-.27-.04,0-.06,0-.08,.02-.2,.18-.24,.95-.2,1.45,0,.03,0,.07-.02,.1l-1.1,2.33Z"/>
          </g>
          <path class="cls-16" d="M18.51,151.52c-.33,0-.68-.16-.73-.19-.06-.03-.11-.1-.11-.17v-1.1l-.74-1.24c-.05-.09-.03-.21,.07-.26,.09-.05,.21-.03,.26,.07l.77,1.29s.03,.06,.03,.1v1.03c.22,.09,.58,.17,.68,.02,.22-.34,1.08-1.3,1.35-1.6l-.46-1.04c-.04-.1,0-.21,.1-.25,.1-.04,.21,0,.25,.1l.51,1.16c.03,.07,.02,.15-.03,.21-.01,.01-1.15,1.28-1.4,1.65-.13,.2-.33,.26-.54,.26Z"/>
          <path class="cls-16" d="M17.86,151.35s-.02,0-.03,0l-1.42-.26c-.1-.02-.17-.12-.15-.22,.02-.1,.12-.17,.22-.15l1.42,.26c.1,.02,.17,.12,.15,.22-.02,.09-.1,.16-.19,.16Z"/>
        </g>
        <g>
          <g>
            <path class="cls-1" d="M39.26,171.86l-2.6,.74s-.22,2.08,.2,2.57c.42,.48,1.08,.25,1.78,.66,.7,.41,3.39-.24,3.39-.24,0,0,.46-1.43,.04-2.09s-.89-1.79-1.22-2.36c-.33-.57-1.6,.72-1.6,.72Z"/>
            <path class="cls-16" d="M39.44,176.16c-.37,0-.7-.04-.9-.16-.29-.17-.58-.22-.85-.27-.35-.06-.7-.12-.98-.43-.46-.52-.29-2.35-.25-2.71,0-.08,.06-.14,.14-.16l2.55-.73c.23-.22,1-.94,1.51-.88,.15,.02,.27,.1,.35,.24,.15,.25,.32,.61,.5,.98,.24,.49,.49,1,.71,1.37,.45,.73,0,2.19-.02,2.25-.02,.06-.07,.11-.14,.13-.21,.05-1.6,.38-2.63,.38Zm-2.61-3.4c-.07,.78-.09,2,.17,2.29,.19,.21,.44,.26,.76,.31,.29,.05,.63,.11,.98,.31,.45,.26,2.12,0,3.14-.23,.12-.44,.31-1.39,.03-1.83-.24-.39-.49-.9-.73-1.41-.18-.37-.35-.72-.49-.96-.02-.04-.04-.04-.07-.05-.28-.04-.88,.45-1.23,.8-.02,.02-.05,.04-.08,.05l-2.48,.71Zm2.42-.89h0Z"/>
          </g>
          <path class="cls-16" d="M38.56,175.03c-.55,0-.79-.82-.81-.92-.02-.07,0-.14,.06-.19l.83-.73,.44-1.38c.03-.1,.14-.16,.24-.12,.1,.03,.16,.14,.12,.24l-.46,1.43s-.03,.06-.06,.09l-.78,.68c.08,.23,.25,.54,.43,.52,.4-.05,1.68-.05,2.09-.04l.48-1.04c.04-.1,.16-.14,.25-.09,.1,.04,.14,.16,.09,.25l-.53,1.15c-.03,.07-.1,.11-.17,.11h0s-1.72-.02-2.16,.04c-.03,0-.05,0-.08,0Z"/>
          <path class="cls-16" d="M37.94,174.25c-.06,0-.13-.03-.16-.09l-.74-1.23c-.05-.09-.03-.21,.07-.26,.09-.05,.21-.03,.26,.07l.74,1.23c.05,.09,.03,.21-.07,.26-.03,.02-.07,.03-.1,.03Z"/>
        </g>
        <g>
          <g>
            <path class="cls-1" d="M12.97,148.2s-2.19,1.42-1.8,2.19,.64,1.29,1.03,1.54,1.54,.64,1.93,.39,1.29-.9,1.42-1.93,.51-1.16,.13-1.67c-.39-.51-2.7-.51-2.7-.51Z"/>
            <path class="cls-16" d="M13.75,152.59c-.59,0-1.39-.33-1.66-.5-.43-.29-.69-.82-1.09-1.62-.44-.88,1.48-2.18,1.87-2.43,.03-.02,.07-.03,.1-.03,.4,0,2.43,.03,2.86,.59,.3,.4,.22,.65,.1,.99-.07,.2-.15,.45-.19,.82-.1,.77-.6,1.47-1.5,2.07-.12,.08-.29,.12-.49,.12Zm-.72-4.2c-.84,.55-1.9,1.49-1.69,1.91,.37,.75,.62,1.24,.96,1.47,.4,.27,1.45,.56,1.72,.39,.8-.53,1.25-1.14,1.33-1.79,.05-.41,.14-.69,.21-.89,.11-.32,.13-.4-.05-.64-.22-.3-1.57-.43-2.49-.44Z"/>
          </g>
          <path class="cls-16" d="M12.71,151.61s-.07-.01-.11-.03l-1.54-1.03c-.09-.06-.11-.18-.05-.27,.06-.09,.18-.11,.27-.05l1.49,.99,1.1-.11,.46-1.27c0-.14-.08-.55-.58-.55s-.79,.16-.93,.26l.22,.65c.03,.1-.02,.21-.12,.24s-.21-.02-.24-.12l-.26-.77c-.02-.07,0-.14,.05-.2,.02-.02,.45-.44,1.29-.44,.76,0,.96,.63,.96,.96,0,.02,0,.04-.01,.07l-.51,1.42c-.03,.07-.09,.12-.16,.13l-1.29,.13s-.01,0-.02,0Z"/>
        </g>
        <g>
          <g>
            <path class="cls-1" d="M22.49,146.4s-1.93,1.8-1.67,3.09c.26,1.29,2.7,2.32,2.7,2.32l2.96-1.67-.9-2.32-1.93-1.03-1.16-.39Z"/>
            <path class="cls-16" d="M23.52,151.99s-.05,0-.07-.01c-.1-.04-2.54-1.08-2.82-2.46-.28-1.38,1.65-3.19,1.73-3.27,.05-.05,.12-.06,.19-.04l1.16,.39,1.96,1.04s.07,.06,.09,.1l.9,2.32c.03,.09,0,.19-.08,.24l-2.96,1.67s-.06,.02-.09,.02Zm-.98-5.38c-.35,.35-1.74,1.81-1.53,2.83,.21,1.04,2.08,1.95,2.5,2.14l2.73-1.54-.81-2.1-1.87-1-1.02-.34Z"/>
          </g>
          <path class="cls-16" d="M22.88,150.45s-.05,0-.07-.01l-2.06-.77c-.1-.04-.15-.15-.11-.25s.15-.15,.25-.11l2,.75,2.05-.68-.82-1.87c-.04-.1,0-.21,.1-.25,.1-.04,.21,0,.25,.1l.9,2.06s.02,.11,0,.15c-.02,.05-.06,.09-.11,.1l-2.32,.77s-.04,0-.06,0Z"/>
          <path class="cls-16" d="M23.91,149.81s-.04,0-.06,0l-1.54-.51c-.08-.03-.13-.1-.13-.19l.13-2.7c0-.11,.09-.19,.2-.18,.11,0,.19,.09,.18,.2l-.12,2.56,1.41,.47c.1,.03,.15,.14,.12,.24-.03,.08-.1,.13-.18,.13Z"/>
        </g>
        <g>
          <g>
            <path class="cls-1" d="M28.28,170.59s-1.93,1.8-1.67,3.09c.26,1.29,2.7,2.32,2.7,2.32l2.96-1.67-.9-2.32-1.93-1.03-1.16-.39Z"/>
            <path class="cls-16" d="M29.31,176.18s-.05,0-.07-.01c-.1-.04-2.54-1.08-2.82-2.46-.28-1.37,1.65-3.19,1.73-3.27,.05-.05,.12-.06,.19-.04l1.16,.39,1.96,1.04s.07,.06,.09,.1l.9,2.32c.03,.09,0,.19-.08,.24l-2.96,1.67s-.06,.02-.09,.02Zm-.98-5.38c-.35,.35-1.74,1.81-1.53,2.83,.21,1.04,2.08,1.95,2.5,2.14l2.73-1.54-.81-2.1-1.87-1-1.02-.34Z"/>
          </g>
          <path class="cls-16" d="M28.67,174.64s-.05,0-.07-.01l-2.06-.77c-.1-.04-.15-.15-.11-.25,.04-.1,.15-.15,.25-.11l1.99,.75,2.05-.68-.82-1.87c-.04-.1,0-.21,.1-.25,.1-.04,.21,0,.25,.1l.9,2.06s.02,.11,0,.15c-.02,.05-.06,.09-.11,.1l-2.32,.77s-.04,0-.06,0Z"/>
          <path class="cls-16" d="M29.7,174s-.04,0-.06,0l-1.54-.51c-.08-.03-.13-.11-.13-.19l.13-2.7c0-.11,.1-.19,.2-.18,.11,0,.19,.09,.18,.2l-.12,2.56,1.41,.47c.1,.03,.15,.14,.12,.24-.03,.08-.1,.13-.18,.13Z"/>
        </g>
        <g>
          <g>
            <path class="cls-1" d="M15.42,144.47s-1.93,1.8-1.67,3.09c.26,1.29,2.7,2.32,2.7,2.32l2.96-1.67-.9-2.32-1.93-1.03-1.16-.39Z"/>
            <path class="cls-16" d="M16.45,150.06s-.05,0-.07-.01c-.1-.04-2.54-1.08-2.82-2.46-.28-1.38,1.65-3.19,1.73-3.27,.05-.05,.12-.06,.19-.04l1.16,.39,1.96,1.04s.07,.06,.09,.1l.9,2.32c.03,.09,0,.19-.08,.24l-2.96,1.67s-.06,.02-.09,.02Zm-.98-5.38c-.35,.35-1.74,1.81-1.53,2.83,.21,1.04,2.08,1.95,2.5,2.14l2.73-1.54-.81-2.1-1.87-1-1.02-.34Z"/>
          </g>
          <path class="cls-16" d="M15.8,148.52s-.05,0-.07-.01l-2.06-.77c-.1-.04-.15-.15-.11-.25,.04-.1,.15-.15,.25-.11l1.99,.75,2.05-.68-.82-1.87c-.04-.1,0-.21,.1-.25,.1-.04,.21,0,.25,.1l.9,2.06s.02,.11,0,.15c-.02,.05-.06,.09-.11,.1l-2.32,.77s-.04,0-.06,0Z"/>
          <path class="cls-16" d="M16.83,147.88s-.04,0-.06,0l-1.54-.51c-.08-.03-.13-.1-.13-.19l.13-2.7c0-.11,.1-.18,.2-.18,.11,0,.19,.09,.18,.2l-.12,2.56,1.41,.47c.1,.03,.15,.14,.12,.24-.03,.08-.1,.13-.18,.13Z"/>
        </g>
        <g>
          <polygon class="cls-16" points="26.21 176.2 10.94 176.2 8.65 150.89 28.5 150.89 26.21 176.2"/>
          <path class="cls-16" d="M26.21,176.39H10.94c-.1,0-.18-.08-.19-.17l-2.29-25.31c0-.05,.01-.11,.05-.15,.04-.04,.09-.06,.14-.06H28.5c.05,0,.11,.02,.14,.06,.04,.04,.05,.09,.05,.15l-2.29,25.31c0,.1-.09,.17-.19,.17Zm-15.09-.38h14.92l2.26-24.93H8.86l2.26,24.93Z"/>
        </g>
        <g>
          <g>
            <path class="cls-1" d="M16.06,172s-2.19,1.42-1.8,2.19,.64,1.29,1.03,1.54c.39,.26,1.54,.64,1.93,.39,.39-.26,1.29-.9,1.42-1.93,.13-1.03,.51-1.16,.13-1.67-.39-.51-2.7-.51-2.7-.51Z"/>
            <path class="cls-16" d="M16.84,176.4c-.59,0-1.39-.33-1.66-.5-.43-.29-.69-.82-1.09-1.62-.44-.88,1.48-2.18,1.87-2.43,.03-.02,.07-.03,.1-.03,.4,0,2.43,.03,2.86,.59,.3,.4,.22,.65,.1,.99-.07,.2-.15,.45-.19,.82-.1,.77-.6,1.47-1.5,2.07-.12,.08-.29,.12-.49,.12Zm-.72-4.2c-.84,.55-1.9,1.49-1.69,1.91,.37,.75,.62,1.24,.96,1.47,.4,.27,1.45,.57,1.72,.39,.8-.53,1.25-1.14,1.33-1.79,.05-.41,.14-.69,.21-.89,.1-.32,.13-.4-.05-.64-.22-.3-1.57-.43-2.49-.44Z"/>
          </g>
          <path class="cls-16" d="M15.8,175.41s-.07-.01-.11-.03l-1.54-1.03c-.09-.06-.11-.18-.05-.27,.06-.09,.18-.11,.27-.05l1.49,.99,1.1-.11,.46-1.27c0-.14-.08-.55-.58-.55s-.79,.16-.93,.26l.22,.64c.03,.1-.02,.21-.12,.24s-.21-.02-.24-.12l-.26-.77c-.02-.07,0-.14,.05-.2,.02-.02,.45-.44,1.29-.44,.76,0,.96,.63,.96,.96,0,.02,0,.04-.01,.07l-.51,1.42c-.03,.07-.09,.12-.16,.12l-1.29,.13s-.01,0-.02,0Z"/>
        </g>
      </g>
      <g>
        <g>
          <path class="cls-18" d="M56.55,100.37c0,.4-.38,.72-.85,.72s-.85-.32-.85-.72,.38-.72,.85-.72,.85,.32,.85,.72Z"/>
          <path class="cls-16" d="M55.7,101.29c-.57,0-1.04-.41-1.04-.92s.47-.92,1.04-.92,1.04,.41,1.04,.92-.47,.92-1.04,.92Zm0-1.45c-.36,0-.66,.24-.66,.53s.29,.53,.66,.53,.66-.24,.66-.53-.29-.53-.66-.53Z"/>
        </g>
        <g>
          <path class="cls-18" d="M57.36,102.58c0,.4-.38,.72-.85,.72s-.85-.32-.85-.72,.38-.72,.85-.72,.85,.32,.85,.72Z"/>
          <path class="cls-16" d="M56.51,103.49c-.57,0-1.04-.41-1.04-.92s.47-.92,1.04-.92,1.04,.41,1.04,.92-.47,.92-1.04,.92Zm0-1.45c-.36,0-.66,.24-.66,.53s.29,.53,.66,.53,.66-.24,.66-.53-.29-.53-.66-.53Z"/>
        </g>
        <g>
          <path class="cls-18" d="M58.17,104.78c0,.4-.38,.72-.85,.72s-.85-.32-.85-.72,.38-.72,.85-.72,.85,.32,.85,.72Z"/>
          <path class="cls-16" d="M57.33,105.7c-.57,0-1.04-.41-1.04-.92s.47-.92,1.04-.92,1.04,.41,1.04,.92-.47,.92-1.04,.92Zm0-1.45c-.36,0-.66,.24-.66,.53s.29,.53,.66,.53,.66-.24,.66-.53-.29-.53-.66-.53Z"/>
        </g>
        <g>
          <path class="cls-18" d="M58.99,106.99c0,.4-.38,.72-.85,.72s-.85-.32-.85-.72,.38-.72,.85-.72,.85,.32,.85,.72Z"/>
          <path class="cls-16" d="M58.14,107.9c-.57,0-1.04-.41-1.04-.92s.47-.92,1.04-.92,1.04,.41,1.04,.92-.47,.92-1.04,.92Zm0-1.45c-.36,0-.66,.24-.66,.53s.29,.53,.66,.53,.66-.24,.66-.53-.29-.53-.66-.53Z"/>
        </g>
      </g>
      <g>
        <g>
          <polygon class="cls-16" points="47.52 117.74 41.72 117.74 40.85 108.12 48.39 108.12 47.52 117.74"/>
          <path class="cls-16" d="M47.52,117.93h-5.8c-.1,0-.18-.08-.19-.17l-.87-9.61c0-.05,.01-.11,.05-.15,.04-.04,.09-.06,.14-.06h7.54c.05,0,.11,.02,.14,.06,.04,.04,.05,.09,.05,.15l-.87,9.61c0,.1-.09,.17-.19,.17Zm-5.63-.38h5.45l.84-9.23h-7.12l.84,9.23Z"/>
        </g>
        <g>
          <polygon class="cls-28" points="48.1 111.28 41.44 114.67 41.72 117.74 44.82 117.74 47.83 114.28 48.1 111.28"/>
          <path class="cls-16" d="M44.82,117.93h-3.1c-.1,0-.18-.08-.19-.17l-.28-3.06c0-.08,.03-.15,.1-.19l6.66-3.39c.06-.03,.14-.03,.19,.01,.06,.04,.09,.11,.08,.18l-.27,2.99s-.02,.08-.05,.11l-3.01,3.46s-.09,.07-.14,.07Zm-2.93-.38h2.84l2.91-3.35,.23-2.59-6.24,3.18,.25,2.76Z"/>
        </g>
        <g>
          <rect class="cls-28" x="40.18" y="106.97" width="8.88" height="2.09"/>
          <path class="cls-16" d="M49.06,109.25h-8.88c-.11,0-.19-.09-.19-.19v-2.09c0-.11,.09-.19,.19-.19h8.88c.11,0,.19,.09,.19,.19v2.09c0,.11-.09,.19-.19,.19Zm-8.69-.38h8.5v-1.71h-8.5v1.71Z"/>
        </g>
      </g>
      <g>
        <g>
          <path class="cls-16" d="M64.68,117.84h-10.44c-.73,0-1.32-.59-1.32-1.32s.59-1.32,1.32-1.32h10.44c.73,0,1.32,.59,1.32,1.32s-.59,1.32-1.32,1.32Z"/>
          <path class="cls-16" d="M64.68,118.04h-10.44c-.83,0-1.51-.68-1.51-1.51s.68-1.51,1.51-1.51h10.44c.83,0,1.51,.68,1.51,1.51s-.68,1.51-1.51,1.51Zm-10.44-2.65c-.62,0-1.13,.51-1.13,1.13s.51,1.13,1.13,1.13h10.44c.62,0,1.13-.51,1.13-1.13s-.51-1.13-1.13-1.13h-10.44Z"/>
        </g>
        <g>
          <polygon class="cls-16" points="92.43 117.88 60.31 117.88 52.65 97.02 84.77 97.02 92.43 117.88"/>
          <path class="cls-16" d="M92.43,118.07H60.31c-.08,0-.15-.05-.18-.13l-7.66-20.85c-.02-.06-.01-.12,.02-.18,.04-.05,.09-.08,.16-.08h32.12c.08,0,.15,.05,.18,.13l7.66,20.85c.02,.06,.01,.12-.02,.18s-.09,.08-.16,.08Zm-31.99-.38h31.71l-7.52-20.47h-31.71l7.52,20.47Z"/>
        </g>
        <g>
          <polygon class="cls-18" points="90.39 115.71 62.96 115.71 56.42 97.9 83.85 97.9 90.39 115.71"/>
          <path class="cls-16" d="M90.39,115.9h-27.43c-.08,0-.15-.05-.18-.13l-6.54-17.81c-.02-.06-.01-.12,.02-.18s.09-.08,.16-.08h27.43c.08,0,.15,.05,.18,.13l6.54,17.81c.02,.06,.01,.12-.02,.18s-.09,.08-.16,.08Zm-27.29-.38h27.02l-6.4-17.42h-27.02l6.4,17.42Z"/>
        </g>
        <g>
          <g>
            <path class="cls-16" d="M95.78,125.32s-1.39,2.04-2.52,3.07c-1.14,1.03-4.62,4.25-7.5,9.14-2.88,4.88-4.89,9.87-6.79,14.19-1.91,4.32-5.34,12.29-7.09,14.72-1.75,2.43-2.89,3.73-2.89,3.73,0,0-2.85,.07-6.23-.23-3.38-.3-4.77-.91-4.82-.03-.04,.88,2.28,3.3,3.96,3.72s3.82,1.07,4.33,1.57c.52,.5,1.17,1.07,2,.71,.83-.37,3.38-3.91,6.21-6.35,2.83-2.44,6.21-4.86,9.26-10.54,3.06-5.69,3.21-8.94,5.35-11.07,2.14-2.14,4.4-5.49,7.14-7.25s10.9-5.04,13.5-8.44c2.61-3.4,1.25-7.54-1.26-9.02-2.51-1.48-10.69-2.01-12.65,2.1Z"/>
            <path class="cls-16" d="M67.71,176.2c-.7,0-1.25-.53-1.61-.88-.39-.38-2.02-.96-4.25-1.52-1.75-.44-4.15-2.91-4.1-3.91,0-.2,.08-.36,.21-.47,.33-.27,.96-.18,2.2,0,.69,.1,1.55,.22,2.62,.32,3.01,.27,5.63,.24,6.12,.23,.25-.29,1.32-1.55,2.83-3.65,1.58-2.19,4.55-8.96,6.52-13.44l.55-1.24c.33-.74,.66-1.5,.99-2.28,1.6-3.69,3.42-7.88,5.81-11.93,1.36-2.3,3.77-5.76,7.53-9.18,1.06-.96,2.37-2.85,2.49-3.02,.62-1.29,1.85-2.22,3.65-2.77,3.11-.95,7.46-.47,9.27,.6,1.33,.78,2.32,2.26,2.64,3.94,.36,1.86-.11,3.76-1.33,5.35-1.85,2.42-6.34,4.7-9.95,6.54-1.5,.76-2.79,1.42-3.6,1.94-1.8,1.16-3.37,3-4.89,4.77-.77,.89-1.49,1.74-2.21,2.46-1.15,1.15-1.71,2.63-2.5,4.69-.64,1.68-1.44,3.77-2.82,6.34-2.71,5.04-5.66,7.52-8.27,9.72-.35,.3-.7,.59-1.04,.88-1.51,1.3-2.92,2.9-4.06,4.19-1.03,1.16-1.77,2-2.19,2.19-.21,.09-.41,.13-.6,.13Zm-9.09-6.57c-.2,0-.34,.02-.42,.09-.03,.02-.07,.07-.07,.19-.04,.76,2.21,3.12,3.81,3.52,1.12,.28,3.78,1,4.42,1.61,.55,.53,1.1,.97,1.79,.67,.35-.15,1.14-1.05,2.06-2.09,1.15-1.3,2.58-2.91,4.1-4.23,.34-.29,.69-.59,1.04-.88,2.58-2.17,5.5-4.63,8.18-9.6,1.37-2.55,2.16-4.63,2.8-6.29,.8-2.1,1.38-3.62,2.59-4.82,.71-.71,1.43-1.55,2.19-2.43,1.54-1.8,3.14-3.65,4.98-4.84,.83-.53,2.13-1.2,3.63-1.96,3.39-1.72,8.02-4.08,9.82-6.43,1.15-1.5,1.6-3.3,1.26-5.05-.31-1.58-1.23-2.96-2.46-3.69-1.54-.91-5.69-1.56-8.96-.56-1.7,.52-2.85,1.39-3.42,2.58,0,0,0,.02-.01,.03-.06,.08-1.41,2.07-2.55,3.1-3.73,3.39-6.12,6.81-7.46,9.09-2.38,4.03-4.19,8.21-5.79,11.89-.34,.78-.67,1.54-.99,2.28l-.55,1.24c-1.98,4.49-4.96,11.28-6.56,13.51-1.73,2.41-2.89,3.73-2.91,3.74-.04,.04-.09,.06-.14,.06-.03,0-2.9,.06-6.25-.23-1.07-.09-1.94-.22-2.64-.32-.62-.09-1.14-.16-1.48-.16Zm37.17-44.31h0Z"/>
          </g>
          <g>
            <g>
              <path class="cls-1" d="M73.9,162.85c-.77,1.55-1.48,2.83-2.02,3.59-1.75,2.43-2.89,3.73-2.89,3.73,0,0-2.85,.07-6.23-.23-3.38-.3-4.77-.91-4.82-.03-.04,.88,2.28,3.3,3.96,3.72,1.68,.42,3.82,1.07,4.33,1.57,.52,.5,1.17,1.07,2,.71,.83-.37,3.38-3.91,6.21-6.35,1.32-1.14,2.75-2.27,4.22-3.73-2.31-.56-3.88-1.94-4.76-2.97Z"/>
              <path class="cls-16" d="M67.71,176.2c-.7,0-1.25-.53-1.61-.88-.39-.38-2.02-.96-4.25-1.52-1.75-.44-4.15-2.91-4.1-3.91,0-.2,.08-.36,.21-.47,.33-.27,.96-.18,2.2,0,.69,.1,1.55,.22,2.62,.32,3.01,.27,5.63,.24,6.12,.23,.25-.29,1.32-1.55,2.83-3.65,.49-.68,1.16-1.88,2-3.56,.03-.06,.08-.1,.15-.1,.07,0,.13,.02,.17,.06,.89,1.03,2.42,2.37,4.66,2.91,.07,.02,.12,.07,.14,.13s0,.14-.05,.19c-1.1,1.09-2.17,2-3.21,2.87-.35,.29-.69,.58-1.02,.87-1.51,1.3-2.92,2.9-4.06,4.19-1.03,1.16-1.77,2-2.19,2.19-.21,.09-.41,.13-.6,.13Zm-9.09-6.57c-.2,0-.34,.02-.42,.09-.03,.02-.07,.07-.07,.19-.04,.76,2.21,3.12,3.81,3.52,1.12,.28,3.78,1,4.42,1.61,.55,.53,1.1,.98,1.79,.67,.35-.15,1.14-1.05,2.06-2.09,1.15-1.3,2.58-2.91,4.1-4.23,.33-.29,.68-.58,1.02-.87,.95-.8,1.94-1.63,2.94-2.61-2.02-.57-3.45-1.75-4.35-2.73-.8,1.59-1.42,2.69-1.91,3.36-1.73,2.41-2.89,3.73-2.91,3.74-.04,.04-.09,.06-.14,.06-.03,0-2.9,.06-6.25-.23-1.07-.09-1.94-.22-2.64-.32-.62-.09-1.14-.16-1.48-.16Zm10.37,.53h0Z"/>
            </g>
            <g>
              <path class="cls-19" d="M68.23,175.89c.25-.11,.67-.52,1.21-1.11-2.29-.46-3.47-1.61-4.52-1.9-1.47-.41-2.72-1.22-2.72-1.22l1.14-1.69c-.19-.01-.39-.03-.58-.05-3.38-.3-4.77-.91-4.82-.03-.04,.88,2.28,3.3,3.96,3.72,1.68,.42,3.82,1.07,4.33,1.57,.52,.5,1.17,1.07,2,.71Z"/>
              <path class="cls-16" d="M67.71,176.2c-.7,0-1.25-.53-1.61-.88-.39-.38-2.02-.96-4.25-1.52-1.75-.44-4.15-2.91-4.1-3.91,0-.2,.08-.36,.21-.47,.33-.27,.96-.18,2.2,0,.69,.1,1.55,.22,2.62,.32,.19,.02,.39,.03,.58,.05,.07,0,.13,.05,.16,.11s.02,.13-.01,.19l-1.03,1.52c.38,.23,1.38,.78,2.5,1.09,.41,.12,.84,.35,1.33,.62,.79,.44,1.78,.99,3.18,1.27,.07,.01,.12,.06,.14,.13,.02,.07,0,.14-.04,.19-.65,.71-1.02,1.04-1.27,1.15h0c-.21,.09-.41,.13-.6,.13Zm-9.09-6.57c-.2,0-.34,.02-.42,.09-.03,.02-.07,.07-.07,.19-.04,.76,2.21,3.12,3.81,3.52,1.12,.28,3.78,1,4.42,1.61,.55,.53,1.1,.98,1.79,.67,0,0,0,0,0,0,.21-.09,.58-.46,.92-.82-1.29-.31-2.21-.82-2.96-1.24-.47-.26-.87-.49-1.24-.59-1.48-.41-2.72-1.21-2.78-1.24-.04-.03-.07-.07-.08-.12-.01-.05,0-.1,.03-.15l.96-1.42c-.09,0-.17-.01-.26-.02-1.07-.09-1.94-.22-2.64-.32-.62-.09-1.14-.16-1.48-.16Z"/>
            </g>
          </g>
        </g>
        <g>
          <g>
            <path class="cls-16" d="M72.2,136.11s.61,2.85,1.97,5.56c1.36,2.71,4.34,5.56,6.51,7.18,2.17,1.63,9.15,7.86,12.6,12.81,.43,.62-1.22,2.71-3.25,4.54-2.03,1.83-2.91,2.51-1.83,2.85,1.08,.34,3.66,.2,6.23-1.97,2.58-2.17,4.27-3.59,5.08-5.35,.41-.88-1.83-1.97-3.18-3.12-1.36-1.15-6.37-8.74-7.93-12.27-1.56-3.52-5.49-8.54-8.4-10.3"/>
            <path class="cls-16" d="M89.28,169.37c-.48,0-.87-.06-1.14-.15-.22-.07-.53-.2-.59-.49-.11-.49,.52-1.05,1.89-2.28l.46-.41c2.28-2.06,3.51-3.88,3.22-4.29-3.45-4.93-10.38-11.13-12.56-12.76-2.17-1.63-5.19-4.5-6.56-7.25-1.35-2.7-1.97-5.57-1.98-5.6-.02-.1,.04-.21,.15-.23,.11-.02,.2,.04,.23,.15,0,.03,.62,2.86,1.95,5.51,1.35,2.69,4.32,5.52,6.45,7.12s9.18,7.88,12.65,12.85c.62,.89-1.77,3.43-3.28,4.79l-.46,.41c-1.02,.92-1.83,1.64-1.78,1.91,.01,.07,.13,.14,.33,.2,1.1,.34,3.63,.12,6.05-1.93,2.56-2.16,4.24-3.57,5.03-5.29,.22-.48-.8-1.19-1.79-1.89-.46-.32-.94-.66-1.35-1-1.39-1.18-6.4-8.76-7.98-12.33-1.48-3.34-5.35-8.41-8.33-10.21-.09-.05-.12-.17-.06-.26,.05-.09,.17-.12,.26-.06,3.03,1.84,6.98,7,8.48,10.39,1.53,3.46,6.54,11.06,7.88,12.2,.39,.33,.86,.66,1.32,.98,1.22,.85,2.27,1.59,1.92,2.36-.83,1.79-2.53,3.23-5.11,5.4-2.03,1.71-3.99,2.17-5.3,2.17Z"/>
          </g>
          <g>
            <g>
              <path class="cls-1" d="M99.51,161.72c.41-.88-1.83-1.97-3.18-3.12-1.14-.97-4.87-6.49-6.95-10.32l-4.61,4.08c2.87,2.65,6.37,6.22,8.51,9.29,.43,.62-1.22,2.71-3.25,4.54-2.03,1.83-2.91,2.51-1.83,2.85,1.08,.34,3.66,.2,6.23-1.97,2.58-2.17,4.27-3.59,5.08-5.35Z"/>
              <path class="cls-16" d="M89.28,169.37c-.48,0-.87-.06-1.14-.15-.22-.07-.53-.2-.59-.49-.11-.49,.52-1.05,1.89-2.28l.46-.41c2.28-2.06,3.51-3.88,3.22-4.29-2.42-3.46-6.35-7.28-8.49-9.26-.04-.04-.06-.09-.06-.14,0-.05,.02-.11,.06-.14l4.61-4.08s.1-.05,.16-.05c.06,.01,.11,.05,.13,.1,2.04,3.74,5.78,9.31,6.91,10.26,.39,.33,.86,.66,1.32,.98,1.22,.85,2.27,1.59,1.92,2.36-.83,1.79-2.53,3.23-5.11,5.4-2.03,1.71-3.99,2.17-5.3,2.17Zm-4.23-17c2.18,2.02,6.01,5.77,8.38,9.17,.62,.89-1.77,3.43-3.28,4.79l-.46,.41c-1.02,.92-1.83,1.64-1.78,1.91,.01,.07,.13,.14,.33,.2,1.1,.34,3.63,.12,6.05-1.93,2.56-2.16,4.24-3.57,5.03-5.29h0c.22-.48-.8-1.19-1.79-1.89-.46-.32-.94-.66-1.35-1-1.15-.98-4.76-6.32-6.88-10.16l-4.27,3.78Z"/>
            </g>
            <g>
              <path class="cls-19" d="M98.12,159.92c-.36,.54-.84,1.28-1.39,2.2-1.29,2.17-4.81,4.95-5.29,4.47-.27-.27-.53-.72-.71-1.07-.23,.22-.47,.45-.71,.67-2.03,1.83-2.91,2.51-1.83,2.85,1.08,.34,3.66,.2,6.23-1.97,2.58-2.17,4.27-3.59,5.08-5.35,.25-.53-.48-1.14-1.39-1.8Z"/>
              <path class="cls-16" d="M89.28,169.37c-.48,0-.87-.06-1.14-.15-.22-.07-.53-.2-.59-.49-.11-.49,.52-1.05,1.89-2.28l.46-.41c.24-.22,.48-.44,.7-.66,.04-.04,.1-.06,.16-.05,.06,0,.11,.05,.14,.1,.25,.47,.48,.83,.68,1.02,.42,.17,3.65-2.18,4.99-4.43,.47-.79,.94-1.53,1.39-2.21,.03-.04,.07-.07,.13-.08,.05,0,.1,0,.15,.03,.91,.65,1.77,1.35,1.45,2.03-.83,1.79-2.53,3.23-5.11,5.4-2.03,1.71-3.99,2.17-5.3,2.17Zm1.41-3.53c-.17,.17-.35,.33-.53,.49l-.46,.41c-1.02,.92-1.83,1.64-1.78,1.91,.01,.07,.13,.14,.33,.2,1.1,.34,3.63,.12,6.05-1.93,2.56-2.16,4.24-3.57,5.03-5.29,.17-.37-.44-.91-1.17-1.45-.42,.63-.84,1.31-1.27,2.03-1.15,1.94-4.18,4.49-5.2,4.61-.16,.02-.29-.01-.38-.1-.19-.19-.4-.49-.63-.89Z"/>
            </g>
          </g>
        </g>
        <g>
          <rect class="cls-1" x="93.48" y="166.13" width="23.04" height="1.08"/>
          <path class="cls-16" d="M116.52,167.4h-23.04c-.11,0-.19-.09-.19-.19v-1.08c0-.11,.09-.19,.19-.19h23.04c.11,0,.19,.09,.19,.19v1.08c0,.11-.09,.19-.19,.19Zm-22.85-.38h22.66v-.7h-22.66v.7Z"/>
        </g>
        <g>
          <path class="cls-1" d="M95.58,137.05l-4.03,38.54c-.02,.18,.13,.34,.31,.34h0c.15,0,.28-.11,.31-.26l5.99-38.62h-2.58Z"/>
          <path class="cls-16" d="M91.86,176.13c-.14,0-.28-.06-.37-.16-.09-.1-.14-.25-.13-.39l4.03-38.55c.01-.1,.09-.17,.19-.17h2.58c.06,0,.11,.02,.15,.07s.05,.1,.04,.15l-5.99,38.62c-.04,.24-.25,.43-.5,.43Zm3.9-38.88l-4.01,38.37s.02,.08,.03,.09c.01,.01,.04,.04,.09,.04,.06,0,.11-.04,.12-.1l5.96-38.4h-2.18Z"/>
        </g>
        <g>
          <path class="cls-1" d="M114.01,137.05l4.03,38.54c.02,.18-.13,.34-.31,.34h0c-.15,0-.28-.11-.31-.26l-5.99-38.62h2.58Z"/>
          <path class="cls-16" d="M117.74,176.13c-.25,0-.46-.18-.5-.43l-5.99-38.62c0-.06,0-.11,.04-.15s.09-.07,.15-.07h2.58c.1,0,.18,.07,.19,.17l4.03,38.54c.01,.14-.03,.28-.13,.39-.09,.11-.23,.17-.37,.17Zm-6.08-38.88l5.96,38.4c0,.06,.06,.1,.12,.1,.05,0,.07-.02,.09-.04,.01-.01,.03-.05,.03-.09l-4.01-38.37h-2.18Z"/>
        </g>
        <g>
          <path class="cls-1" d="M106.69,137.05l.2,38.57c0,.17-.14,.31-.31,.31h0c-.16,0-.3-.13-.31-.29l-2.15-38.59h2.58Z"/>
          <path class="cls-16" d="M106.58,176.13c-.27,0-.49-.21-.5-.47l-2.15-38.59c0-.05,.02-.1,.05-.14,.04-.04,.09-.06,.14-.06h2.57c.11,0,.19,.09,.19,.19l.2,38.57c0,.13-.05,.26-.15,.36-.09,.1-.22,.15-.36,.15Zm-2.26-38.88l2.14,38.39c0,.1,.15,.14,.21,.08,.02-.02,.03-.05,.03-.08l-.2-38.38h-2.18Z"/>
        </g>
        <g>
          <rect class="cls-21" x="92.06" y="131.23" width="25.14" height="6.23" rx="3.12" ry="3.12"/>
          <g class="cls-23">
            <g class="cls-8">
              <path d="M115.29,131.23h-20.85l-.62,1.3s19.25,.33,19.25,1.45,.33,2.56-3.45,2.56c-3.06,0-13.34,.15-17.15,.2,.15,.19,.34,.35,.55,.47l1.12,.25h21.15c1.05,0,1.9-.85,1.9-1.9v-2.43c0-1.05-.85-1.9-1.9-1.9Z"/>
            </g>
          </g>
        </g>
        <g>
          <path class="cls-16" d="M72.74,138.55c-.47-1.56-2.44-4.68,6.98-11.18,4.99-3.45,15.79-6.1,15.79-6.1l1.02-1.15s2.91,3.05,8.61,2.85c5.69-.2,9.22-2.71,9.89-2.51,.68,.2,.75,1.97,.47,5.29-.27,3.32-.61,5.01-3.25,5.83-2.64,.81-8.47,1.08-12.67,1.02-4.2-.07-6.23-.34-6.23-.34,0,0-9.01,5.69-14.64,6.1"/>
          <path class="cls-16" d="M72.74,138.74c-.08,0-.16-.05-.18-.14-.03-.11-.07-.22-.12-.35-.6-1.72-1.71-4.92,7.17-11.05,4.77-3.3,14.93-5.89,15.79-6.11l.98-1.11s.09-.06,.14-.06c.06,0,.11,.02,.14,.06,.03,.03,2.92,2.99,8.46,2.79,3.83-.14,6.64-1.31,8.32-2.02,.87-.37,1.36-.57,1.64-.48,.76,.23,.92,1.66,.61,5.48-.26,3.15-.56,5.12-3.39,6-2.61,.8-8.44,1.09-12.73,1.02-3.74-.06-5.8-.28-6.19-.33-.85,.53-9.23,5.7-14.67,6.09-.1,0-.2-.07-.2-.18,0-.11,.07-.2,.18-.2,5.51-.4,14.46-6.01,14.55-6.07,.04-.02,.08-.03,.13-.03,.02,0,2.07,.27,6.21,.34,4.27,.07,10.04-.22,12.61-1.01,2.48-.76,2.84-2.23,3.12-5.66,.11-1.33,.4-4.87-.34-5.09-.16-.05-.75,.2-1.38,.47-1.7,.71-4.55,1.91-8.45,2.05-5.06,.18-7.93-2.14-8.6-2.76l-.88,1s-.06,.05-.1,.06c-.11,.03-10.82,2.68-15.73,6.07-8.64,5.97-7.59,8.99-7.03,10.61,.04,.13,.09,.25,.12,.36,.03,.1-.03,.21-.13,.24-.02,0-.04,0-.06,0Z"/>
        </g>
        <g>
          <g>
            <g>
              <path class="cls-1" d="M93.61,101.21c-.41,.13-12.81,2.58-13.89,2.37-1.08-.2-3.93-2.64-4.95-2.58-1.02,.07-3.05,.41-3.25,.95-.2,.54,.47,2.37,.47,2.37,0,0-.68,1.02-.34,1.49,.34,.47,2.3-.68,2.3-.68,0,0,2.24,1.63,3.25,1.29,1.02-.34,2.1-.75,2.1-.75,0,0,15.92,.95,16.13,1.02,.2,.07,2.17,.47,2.37-2.37,.2-2.85-1.83-3.86-4.2-3.12Z"/>
              <path class="cls-16" d="M95.89,106.95c-.23,0-.41-.04-.51-.07-.36-.06-11.66-.74-16.04-1-.2,.08-1.17,.43-2.07,.73-.99,.33-2.83-.9-3.32-1.24-.69,.39-2.07,1.09-2.45,.56-.35-.49,.11-1.34,.28-1.63-.16-.46-.64-1.88-.44-2.42,.32-.84,3.39-1.07,3.42-1.07,.62-.04,1.7,.66,2.84,1.39,.84,.54,1.7,1.1,2.16,1.19,.98,.18,13.13-2.16,13.8-2.37h0c1.34-.42,2.58-.29,3.4,.36,.54,.43,1.17,1.29,1.05,2.95-.08,1.12-.43,1.89-1.04,2.3-.36,.24-.76,.31-1.07,.31Zm-16.58-1.46s0,0,.01,0c4.8,.29,15.97,.96,16.18,1.03,0,0,.66,.19,1.25-.2,.51-.34,.8-1.02,.87-2.01,.08-1.18-.23-2.09-.9-2.63-.72-.57-1.83-.68-3.05-.29h0c-.1,.03-12.81,2.6-13.98,2.38-.53-.1-1.39-.65-2.29-1.24-.99-.64-2.12-1.37-2.61-1.33-1.29,.09-2.95,.47-3.09,.82-.13,.35,.22,1.56,.47,2.24,.02,.06,.01,.12-.02,.17-.2,.3-.54,1-.34,1.27,.12,.17,1.12-.18,2.05-.73,.07-.04,.15-.03,.21,.01,.6,.44,2.32,1.51,3.08,1.26,1-.33,2.08-.74,2.09-.74,.02,0,.04-.01,.07-.01Z"/>
            </g>
            <path class="cls-16" d="M72,104.52c-.05,0-.11-.02-.15-.07-.07-.08-.06-.2,.03-.27l2.78-2.3c.08-.07,.2-.06,.27,.03,.07,.08,.06,.2-.03,.27l-2.78,2.3s-.08,.04-.12,.04Z"/>
            <polygon class="cls-16" points="73.01 103.31 74.5 98.63 75.11 98.77 74.37 102.16 73.01 103.31"/>
          </g>
          <g>
            <path class="cls-1" d="M83.92,106.15s-16.47,4.54-19.11,4.2c-2.64-.34-3.46-1.49-4.07-1.49s-2.3,.81-3.05,.75c-.75-.07-1.63-.27-1.63,.2s.68,1.22,1.08,1.22,2.03-.07,2.03-.07c0,0-3.18,.95-3.32,1.56-.14,.61,.27,1.15,.88,1.29,.61,.14,.88,.41,.88,.41,0,0,.27,1.02,.68,1.49,.41,.47,1.63,.68,2.98,.41,1.36-.27,3.73-1.49,4.27-1.83s17.01-1.83,18.23-2.1c1.22-.27,2.71-.27,3.18-1.08,.47-.81-3.05-4.95-3.05-4.95Z"/>
            <path class="cls-16" d="M60.1,116.43c-.88,0-1.61-.21-1.94-.6-.38-.44-.64-1.28-.7-1.51-.08-.07-.33-.23-.75-.33-.74-.16-1.18-.82-1.03-1.52,.1-.43,1.19-.92,2.16-1.27-.29,0-.55,.02-.69,.02-.52,0-1.28-.83-1.28-1.41,0-.14,.05-.26,.15-.34,.25-.22,.74-.16,1.3-.1,.13,.02,.26,.03,.39,.04,.37,.03,1.08-.2,1.69-.4,.56-.18,1.04-.34,1.34-.34,.27,0,.53,.15,.89,.37,.61,.36,1.53,.91,3.2,1.12,2.58,.33,18.87-4.15,19.03-4.2,.07-.02,.15,0,.2,.06,.85,.99,3.57,4.3,3.07,5.17-.4,.69-1.37,.85-2.4,1.01-.3,.05-.62,.1-.91,.16-.52,.12-3.64,.44-7.26,.81-4.43,.46-10.51,1.08-10.92,1.27-.53,.33-2.94,1.57-4.33,1.85-.42,.08-.84,.13-1.23,.13Zm-.91-5.66c.09,0,.17,.07,.19,.16,.02,.1-.04,.19-.13,.22-1.67,.5-3.13,1.15-3.19,1.42-.11,.49,.21,.94,.74,1.06,.66,.15,.96,.45,.97,.46,.02,.02,.04,.05,.05,.09,0,0,.26,.98,.64,1.42,.32,.37,1.41,.62,2.8,.34,1.34-.27,3.68-1.47,4.2-1.8,.3-.19,3.51-.55,11.07-1.32,3.45-.36,6.72-.69,7.22-.8,.3-.07,.62-.12,.93-.17,.93-.15,1.82-.29,2.13-.83,.25-.42-1.33-2.71-2.95-4.63-1.6,.44-16.51,4.5-19.07,4.17-1.75-.22-2.71-.8-3.35-1.17-.31-.18-.53-.32-.69-.32-.24,0-.74,.16-1.22,.32-.69,.23-1.4,.46-1.85,.42-.13-.01-.26-.03-.4-.04-.37-.04-.88-.1-1,0,0,0-.02,.02-.02,.05,0,.38,.61,1.03,.89,1.03,.4,0,2.01-.07,2.03-.07,0,0,0,0,0,0Z"/>
            <g class="cls-7">
              <path class="cls-9" d="M64.01,113.63c-2.83,0-2.2-2.83-3.14-2.36-.82,.41-4.04,.82-4.95,1.86,.13,.33,.44,.59,.83,.67,.61,.14,.88,.41,.88,.41,0,0,.27,1.02,.68,1.49,.41,.47,1.63,.68,2.98,.41,1.36-.27,3.73-1.49,4.27-1.83,.54-.34,17.01-1.83,18.23-2.1,.99-.22,2.15-.26,2.81-.7,.23-.24,.38-.39,.38-.39l-1.75-1.71s-18.39,4.24-21.22,4.24Z"/>
              <g class="cls-4">
                <path class="cls-1" d="M64.01,113.63c-2.83,0-2.2-2.83-3.14-2.36-.82,.41-4.04,.82-4.95,1.86,.13,.33,.44,.59,.83,.67,.61,.14,.88,.41,.88,.41,0,0,.27,1.02,.68,1.49,.41,.47,1.63,.68,2.98,.41,1.36-.27,3.73-1.49,4.27-1.83,.54-.34,17.01-1.83,18.23-2.1,.99-.22,2.15-.26,2.81-.7,.23-.24,.38-.39,.38-.39l-1.75-1.71s-18.39,4.24-21.22,4.24Z"/>
              </g>
            </g>
          </g>
          <g>
            <g>
              <g>
                <path class="cls-20" d="M97.82,89.55s-1.49,4.07-3.39,6.78c-1.9,2.71-2.71,5.56-1.49,8.61,1.22,3.05,3.86,3.73,3.86,3.73,0,0-.95,8.95-.68,11.32,.27,2.37,3.93,5.15,9.42,5.35,5.49,.2,10.23-1.76,10.23-3.66s-3.86-11.99-3.86-14.1,.34-8.67-1.49-14.57c-1.83-5.9-8.27-7.79-12.6-3.46Z"/>
                <g class="cls-27">
                  <g class="cls-8">
                    <path d="M110.42,93.01c-.99-3.18-3.31-5.19-5.92-5.69-1.26,.28-4.7,1.09-5.56,1.29-.39,.28-.76,.59-1.12,.95,0,0-1.49,4.07-3.39,6.78-1.27,1.82-2.05,3.7-2.06,5.66,5,1.18,12.63,3.11,11.88,3.32-1.1,.31-5.81-2.2-4.4-.63,1.41,1.57,8.96,8.8,6.76,8.17-2.2-.63-7.07-5.81-5.81-3.3s4.71,6.6,3.61,6.6-6.91-5.81-4.87-2.36c2.04,3.46,11.32,8.96,8.33,9.74-1.72,.45-5.38,.33-7.5,.69,1.44,.61,3.19,1.03,5.19,1.1,5.49,.2,10.23-1.76,10.23-3.66s-3.86-11.99-3.86-14.1,.34-8.67-1.49-14.57Z"/>
                  </g>
                </g>
              </g>
              <path class="cls-16" d="M110.9,116.52s-.04,0-.06,0c-7.26-2.29-12.31-10.34-12.36-10.42-.06-.09-.03-.21,.06-.26,.09-.06,.21-.03,.26,.06,.05,.08,5.03,8.01,12.15,10.26,.1,.03,.16,.14,.12,.24-.03,.08-.1,.13-.18,.13Z"/>
              <path class="cls-16" d="M104.97,116.91s-.07,0-.1-.03c-4.98-3.07-6.96-9.42-6.98-9.49-.03-.1,.03-.21,.13-.24,.1-.03,.21,.03,.24,.13,.02,.06,1.95,6.29,6.81,9.27,.09,.06,.12,.17,.06,.26-.04,.06-.1,.09-.16,.09Z"/>
              <path class="cls-16" d="M99.1,102.46c-.07,0-.14-.04-.18-.11-.04-.1,0-.21,.1-.25,.04-.02,4.5-1.97,6.31-3.21,.09-.06,.21-.04,.27,.05,.06,.09,.04,.21-.05,.27-1.84,1.26-6.19,3.17-6.37,3.25-.03,.01-.05,.02-.08,.02Z"/>
              <path class="cls-16" d="M99.67,103.08c-1.68,0-2.41-.15-2.46-.16-.1-.02-.17-.12-.15-.23,.02-.1,.12-.17,.23-.15,.02,0,1.65,.33,5.71,0,.1-.01,.2,.07,.21,.17,0,.11-.07,.2-.17,.21-1.4,.12-2.51,.16-3.37,.16Z"/>
            </g>
            <g>
              <path class="cls-28" d="M97.41,90.57s-1.29,.75-2.85,2.37-9.08,13.01-9.08,13.01c0,0,2.24,4.68,2.91,4.81,.68,.14,12.47-9.96,13.55-11.18,1.08-1.22,1.76-3.46,1.42-4.4"/>
              <path class="cls-16" d="M88.38,110.95s-.02,0-.02,0c-.72-.14-2.52-3.8-3.05-4.92-.03-.06-.02-.13,.01-.19,.31-.47,7.55-11.42,9.1-13.04,1.56-1.63,2.84-2.37,2.89-2.41,.09-.05,.21-.02,.26,.07,.05,.09,.02,.21-.07,.26-.01,0-1.29,.75-2.8,2.34-1.46,1.52-8.29,11.82-9,12.89,1.04,2.16,2.37,4.52,2.73,4.61,.77-.13,12.08-9.67,13.37-11.12,1.09-1.23,1.68-3.38,1.39-4.21-.04-.1,.02-.21,.12-.24,.1-.04,.21,.02,.24,.12,.37,1.04-.36,3.36-1.46,4.6-.67,.75-12.64,11.24-13.71,11.24Z"/>
              <g class="cls-29">
                <g class="cls-8">
                  <path d="M101.95,99.58c1.08-1.22,1.76-3.46,1.42-4.4l-2.68-2.07-.85,.88s-.06,3.47-3.14,5.34-4.4,1.89-4.87,4.24c-.47,2.36,1.1,2.99-.79,3.3s-3.14,.47-3.14,1.73c0,.37,.04,1.08,.14,1.87,.14,.17,.26,.27,.36,.29,.68,.14,12.47-9.96,13.55-11.18Z"/>
                </g>
              </g>
            </g>
            <g>
              <path class="cls-1" d="M82.91,106.63s2.1,5.01,2.58,5.56c.47,.54,2.98,.2,3.79-.41,.81-.61,.68-1.83,.68-1.83,0,0-3.12-5.49-3.46-5.76-.34-.27-.47,.34-1.9,.81-1.42,.47-1.97,.68-1.69,1.63Z"/>
              <path class="cls-16" d="M86.57,112.65c-.55,0-1.02-.1-1.23-.34-.48-.55-2.39-5.09-2.61-5.61,0,0,0-.01,0-.02-.33-1.15,.43-1.4,1.82-1.86,.69-.23,1.06-.49,1.31-.67,.26-.18,.49-.34,.77-.12,.35,.28,2.98,4.89,3.5,5.82,.01,.02,.02,.05,.02,.07,0,.05,.14,1.34-.75,2-.52,.39-1.81,.72-2.82,.72Zm-3.48-6.08c.84,2,2.21,5.11,2.54,5.49,.38,.44,2.76,.15,3.54-.43,.64-.48,.62-1.42,.61-1.62-1.19-2.09-3.14-5.44-3.39-5.67-.04-.04-.05-.04-.31,.13-.27,.19-.67,.47-1.41,.71-1.52,.51-1.78,.66-1.57,1.38Z"/>
            </g>
          </g>
          <g>
            <g>
              <path class="cls-1" d="M86.3,76.74s-.14,1.97,.2,2.58c.34,.61,1.29,1.22,1.29,2.03s-.68,1.9-.47,2.51c.2,.61,1.29,.68,1.29,.68,0,0,2.03,2.51,2.64,3.39s.88,.54,1.83,.27,2.98-2.03,4.13-3.39c1.15-1.36-.75-5.49-3.25-8.27s-6.23-2.71-7.05-1.9c-.81,.81-.61,2.1-.61,2.1Z"/>
              <path class="cls-16" d="M92,88.68c-.31,0-.58-.16-.92-.65-.55-.79-2.27-2.92-2.58-3.31-.28-.03-1.16-.18-1.37-.8-.13-.4,.03-.9,.21-1.44,.13-.39,.26-.8,.26-1.13,0-.45-.37-.86-.73-1.26-.21-.23-.41-.45-.54-.68-.35-.62-.25-2.38-.23-2.66-.03-.19-.15-1.42,.67-2.24,.37-.37,1.16-.57,2.12-.54,1.92,.05,3.87,.96,5.21,2.45,2.55,2.83,4.49,7.07,3.26,8.52-1.19,1.4-3.25,3.17-4.23,3.45-.17,.05-.32,.1-.45,.15-.26,.09-.47,.16-.67,.16Zm-3.26-14.34c-.77,0-1.43,.17-1.7,.43-.73,.73-.56,1.92-.56,1.94,0,.01,0,.03,0,.04-.04,.53-.08,2.01,.18,2.47,.11,.19,.29,.4,.49,.61,.39,.43,.82,.91,.82,1.51,0,.39-.14,.83-.28,1.25-.15,.45-.3,.92-.21,1.2,.13,.4,.85,.53,1.12,.55,.05,0,.1,.03,.14,.07,.08,.1,2.04,2.52,2.65,3.4,.41,.6,.57,.55,1.15,.35,.14-.05,.29-.1,.47-.15,.9-.26,2.91-2,4.04-3.33,.99-1.17-.59-5.06-3.25-8.02-1.27-1.41-3.12-2.28-4.93-2.32-.05,0-.09,0-.14,0Z"/>
              <g class="cls-10">
                <path class="cls-2" d="M91.67,74.84c-.31,1.55-.63,4.16,.31,5.94,1.41,2.67,2.51,4.09,1.73,6.29-.14,.39-.28,.74-.43,1.04,1.01-.43,2.85-2.05,3.92-3.31,1.15-1.36-.75-5.49-3.25-8.27-.7-.77-1.49-1.32-2.28-1.7Z"/>
                <g class="cls-4">
                  <path class="cls-1" d="M91.67,74.84c-.31,1.55-.63,4.16,.31,5.94,1.41,2.67,2.51,4.09,1.73,6.29-.14,.39-.28,.74-.43,1.04,1.01-.43,2.85-2.05,3.92-3.31,1.15-1.36-.75-5.49-3.25-8.27-.7-.77-1.49-1.32-2.28-1.7Z"/>
                </g>
                <path class="cls-16" d="M87.79,79.85c-.11,0-.19-.09-.19-.19,0-.02,0-.47,.35-.67,.28-.16,.66-.11,1.16,.17,.09,.05,.13,.17,.07,.26-.05,.09-.17,.13-.26,.07-.35-.2-.63-.26-.78-.17-.15,.09-.16,.34-.16,.34,0,.11-.09,.19-.19,.19Z"/>
                <path class="cls-16" d="M89.04,81.76c-.11,0-.21-.02-.29-.04-.07-.02-.11-.08-.13-.15l-.16-.94c-.02-.1,.05-.2,.16-.22,.1-.02,.2,.05,.22,.16l.14,.81c.19,.02,.61-.03,.96-.64,.05-.09,.17-.12,.26-.07,.09,.05,.12,.17,.07,.26-.38,.66-.88,.84-1.23,.84Z"/>
              </g>
            </g>
            <g>
              <path class="cls-16" d="M84.19,73.76v.27s-.14,3.32-.14,3.32l3.66,.47,.81-1.42v1.56s1.56-.2,3.32,.47c1.76,.68,4,5.49,3.86,7.45-.14,1.97-1.83,2.37-1.63,5.35,.2,2.98,4.74,5.96,8.2,4.07s4-4.34,5.42-3.86c1.42,.47,3.59,3.39,4.95-.75s.75-6.78-2.44-10.16c-3.18-3.39-5.69-3.12-6.1-5.83-.41-2.71-1.29-6.37-4.2-8.4s-7.12-2.17-10.71-.61c-3.59,1.56-5.01,6.3-5.01,8.06Z"/>
              <path class="cls-16" d="M99.92,96.09c-1,0-2.04-.27-3.01-.8-1.72-.94-2.91-2.53-3.01-4.03-.12-1.79,.43-2.7,.91-3.51,.34-.56,.66-1.09,.71-1.87,.13-1.95-2.08-6.62-3.74-7.26-1.69-.65-3.21-.46-3.23-.46-.05,0-.11,0-.15-.05-.04-.04-.07-.09-.07-.14v-.84l-.46,.8c-.04,.07-.11,.1-.19,.09l-3.66-.47c-.1-.01-.17-.1-.17-.2l.14-3.59c0-1.55,1.27-6.56,5.13-8.24,3.74-1.62,8.02-1.38,10.89,.63,3.01,2.1,3.88,5.87,4.28,8.53,.22,1.46,1.09,2,2.4,2.83,1.01,.63,2.27,1.42,3.65,2.9,3.22,3.42,3.87,6.13,2.48,10.36-.42,1.27-.94,2-1.61,2.23-.86,.3-1.75-.27-2.54-.79-.38-.25-.74-.48-1.04-.58-.59-.2-.98,.18-1.82,1.06-.74,.78-1.75,1.85-3.45,2.79-.75,.41-1.59,.61-2.46,.61Zm-10.79-18.35c.63,0,1.67,.08,2.8,.52,1.81,.7,4.13,5.54,3.98,7.65-.06,.87-.4,1.44-.77,2.04-.48,.79-.97,1.61-.86,3.28,.09,1.38,1.2,2.84,2.81,3.72,1.73,.95,3.6,1.02,5.11,.19,1.65-.91,2.64-1.95,3.36-2.71,.79-.84,1.37-1.45,2.22-1.16,.35,.12,.73,.36,1.13,.62,.75,.48,1.52,.99,2.2,.75,.54-.19,1-.86,1.37-1.99,1.33-4.06,.71-6.67-2.4-9.97-1.35-1.44-2.58-2.21-3.58-2.83-1.35-.85-2.33-1.46-2.57-3.1-.39-2.59-1.24-6.26-4.12-8.27-2.77-1.93-6.9-2.16-10.52-.59-3.49,1.51-4.9,6.19-4.9,7.89h0s-.13,3.42-.13,3.42l3.36,.44,.75-1.31c.04-.08,.13-.11,.22-.09,.08,.02,.14,.1,.14,.19v1.35c.1,0,.24-.01,.4-.01Zm-4.93-3.98h0Z"/>
              <g class="cls-22">
                <g>
                  <path class="cls-3" d="M86.23,75.32s-.05,0-.07,0c-.39-.09-.45-.77-.48-2.41,0-.43-.02-.87-.05-1.22,0-.03,0-.06,0-.09-.32,.39-1.01,2.01-1.53,3.46l-.36-.13c1.39-3.86,1.84-3.8,1.98-3.78,.26,.04,.29,.38,.3,.51,.03,.36,.04,.81,.05,1.24,.01,.68,.04,1.8,.18,2.03,.06-.04,.19-.19,.43-.66,.4-.8,.75-1.17,1.12-1.15,.45,.02,.69,.62,.86,1.06,.05,.13,.1,.27,.14,.32,.17,.04,.77-.57,1.09-.89,.09-.1,.19-.19,.28-.28,.14-.14,.33-.3,.54-.27,.21,.03,.32,.23,.43,.44,.1,.19,.22,.41,.43,.58,.12,.1,.18,.08,.21,.08,.28-.07,.61-.81,1-1.67,.09-.2,.19-.41,.29-.63,.13-.27,.3-.59,.58-.57,.36,.03,.52,.59,.77,1.43,.2,.69,.43,1.47,.76,1.9,.08,.11,.21,.23,.32,.22,.3-.05,.63-.93,.83-1.46,.12-.32,.22-.6,.33-.78,.11-.18,.24-.21,.33-.21,.28,0,.48,.39,.74,.91,.2,.39,.47,.92,.7,1.01,.04,.02,.06,0,.07,0,.15-.07,.28-.57,.38-.96,.12-.46,.24-.94,.47-1.27,.13-.2,.31-.32,.52-.36,.5-.08,1.06,.35,1.43,.64-.02-.19-.06-.46-.1-.7-.19-1.27-.25-1.89,.07-2.07,.15-.08,.33-.03,.53,.14,.27,.23,.61,.62,.98,1.03,.7,.79,1.77,1.98,2.19,1.86,.12-.03,.18-.21,.21-.36l.37,.08c-.08,.37-.24,.59-.49,.65-.61,.16-1.46-.72-2.58-1.98-.36-.4-.7-.78-.95-1-.04-.04-.07-.06-.09-.07-.09,.24,.06,1.18,.13,1.65,.14,.9,.16,1.14-.01,1.25-.08,.05-.17,.05-.26,0-.07-.04-.15-.11-.24-.18-.3-.23-.81-.62-1.14-.57-.11,.02-.19,.08-.26,.19-.19,.28-.3,.72-.41,1.15-.15,.57-.28,1.06-.58,1.21-.08,.04-.22,.08-.39,0-.36-.14-.63-.68-.9-1.19-.12-.23-.29-.57-.4-.68,0,0,0,0,0,0-.09,.14-.19,.42-.3,.72-.28,.76-.6,1.63-1.13,1.71-.23,.04-.46-.09-.68-.36-.38-.49-.62-1.31-.83-2.03-.13-.45-.31-1.07-.44-1.16,0,.02-.08,.08-.2,.34-.1,.22-.2,.43-.29,.63-.48,1.07-.8,1.77-1.26,1.89-.18,.04-.36,0-.54-.15-.27-.22-.42-.5-.53-.7-.05-.09-.12-.22-.15-.24,0,0-.06,.02-.21,.17-.09,.09-.18,.19-.28,.28-.63,.65-1.04,1.04-1.39,1.01-.12-.01-.22-.07-.29-.18-.06-.09-.11-.22-.18-.39-.11-.28-.32-.81-.52-.82-.06-.01-.32,.06-.76,.93-.31,.62-.54,.89-.78,.89Z"/>
                  <path class="cls-3" d="M94.03,90.75l-.37-.1c.12-.43,.73-2.57,1.57-2.76,.16-.04,.41-.02,.66,.27,.9,1.06,1.21,1.01,1.25,1,.07-.02,.12-.16,.14-.37,.01-.13,.02-.28,.03-.42,.04-.67,.07-1.2,.42-1.3,.24-.07,.49,.11,.85,.59,.63,.86,1.91,1.71,2.61,1.52,.29-.08,.46-.36,.5-.82,.17-1.96,.37-3.6,1.04-3.81,.27-.08,.55,.06,.85,.43,1.22,1.5,1.65,1.83,1.8,1.83,0,0,0-.04,.02-.1,.06-.56,.44-1.05,.85-1.1,.14-.02,.51,0,.73,.54l.07,.18c.07,.18,.16,.42,.24,.56,.04-.13,.11-.4,.18-.95,.1-.79-.04-1.62-.15-2.28-.13-.76-.21-1.26,.07-1.49,.23-.18,.57-.05,.68,0,.71,.28,1.2,.88,1.53,1.28,.03,.04,.07,.08,.1,.12-.03-.32-.26-.69-.45-.99-.22-.34-.38-.59-.23-.79,.13-.18,.39-.15,.76-.06,.76,.19,1.17,.53,1.42,.73,.03,.02,.05,.04,.08,.07,.03-.12-.03-.35-.09-.56-.1-.35-.21-.75,0-1.02,.13-.17,.36-.26,.7-.26v.38c-.14,0-.32,.02-.39,.11-.09,.12-.01,.42,.06,.69,.08,.29,.16,.57,.08,.8-.02,.07-.08,.24-.24,.28-.16,.05-.29-.06-.45-.19-.22-.18-.59-.49-1.27-.66-.15-.04-.25-.05-.3-.06,.04,.09,.13,.22,.2,.33,.23,.36,.52,.81,.52,1.27,0,.14,0,.39-.19,.46-.2,.07-.34-.1-.59-.41-.3-.37-.76-.92-1.38-1.17-.25-.1-.3-.05-.3-.05-.11,.09,0,.69,.07,1.13,.12,.69,.26,1.55,.15,2.4-.15,1.13-.29,1.35-.51,1.37-.28,.03-.43-.33-.64-.89l-.07-.18c-.06-.15-.17-.32-.32-.3-.21,.03-.48,.36-.52,.77-.03,.29-.17,.39-.28,.42-.38,.11-.93-.39-2.21-1.96-.18-.22-.34-.33-.44-.3-.48,.15-.68,2.4-.77,3.48-.07,.79-.46,1.07-.77,1.15-.88,.25-2.3-.68-3.02-1.66-.32-.43-.44-.45-.44-.45-.08,.08-.11,.63-.13,.96,0,.15-.02,.29-.03,.43-.04,.39-.17,.63-.41,.7-.39,.12-.91-.23-1.65-1.11-.15-.18-.25-.15-.28-.15-.45,.1-1.02,1.52-1.28,2.49Z"/>
                </g>
              </g>
            </g>
          </g>
        </g>
      </g>
      <rect class="cls-16" x="5.12" y="176.01" width="140.12" height=".38"/>
    </g>
    <g>
      <circle class="cls-17" cx="179.97" cy="34.45" r="8.07"/>
      <circle class="cls-17" cx="149.09" cy="18.21" r="8.07"/>
      <circle class="cls-30" cx="118.42" cy="34.45" r="8.07"/>
      <circle class="cls-30" cx="179.98" cy="70.64" r="8.07"/>
      <circle class="cls-26" cx="118.24" cy="70.51" r="8.07"/>
      <circle class="cls-26" cx="149.04" cy="86.53" r="8.07"/>
      <g>
        <g>
          <g>
            <g>
              <rect class="cls-1" x="118.35" y="65.39" width=".43" height="2.56"/>
              <rect class="cls-1" x="117.28" y="66.46" width="2.56" height=".43"/>
            </g>
            <g>
              <rect class="cls-1" x="115.33" y="69.99" width=".43" height="1.03"/>
              <rect class="cls-1" x="115.03" y="70.3" width="1.03" height=".43"/>
            </g>
            <g>
              <rect class="cls-1" x="114.82" y="66.96" width=".43" height="1.7"/>
              <rect class="cls-1" x="114.18" y="67.6" width="1.7" height=".43"/>
            </g>
            <path class="cls-1" d="M120.63,75.74l-4.01-6.58,1.4-.81,4.01,6.58-1.4,.81Zm-3.42-6.43l3.57,5.85,.66-.38-3.57-5.85-.66,.38Z"/>
          </g>
          <rect class="cls-1" x="117.64" y="70.13" width="1.19" height=".43" transform="translate(-19.34 69.63) rotate(-30.45)"/>
        </g>
        <path class="cls-26" d="M118.42,78.94c-4.57,0-8.28-3.72-8.28-8.28s3.72-8.28,8.28-8.28,8.28,3.72,8.28,8.28-3.72,8.28-8.28,8.28Zm0-16.14c-4.33,0-7.86,3.52-7.86,7.86s3.52,7.86,7.86,7.86,7.86-3.52,7.86-7.86-3.52-7.86-7.86-7.86Z"/>
      </g>
      <g>
        <g>
          <g>
            <path class="cls-1" d="M117.06,35.92h-1.44c-.06,0-.11-.02-.15-.07s-.06-.1-.06-.16l.14-4.15c-.19-.2-.29-.47-.29-.74,0-.6,.49-1.09,1.09-1.09s1.09,.49,1.09,1.09c0,.28-.11,.54-.29,.74l.14,4.15c0,.06-.02,.11-.06,.16s-.1,.07-.15,.07Zm-1.22-.43h1l-.14-4.03c0-.06,.02-.13,.07-.17,.14-.12,.22-.3,.22-.5,0-.36-.3-.66-.66-.66s-.66,.3-.66,.66c0,.19,.08,.37,.22,.5,.05,.04,.08,.1,.07,.17l-.14,4.03Z"/>
            <path class="cls-1" d="M116.34,39.71c-.71,0-1.29-.58-1.29-1.29,0-.43,.22-1.19,.58-1.66,.04-.05,.1-.08,.17-.08h1.07c.07,0,.13,.03,.17,.08,.36,.47,.58,1.23,.58,1.66,0,.71-.58,1.29-1.29,1.29Zm-.42-2.6c-.26,.39-.44,.99-.44,1.32,0,.47,.39,.86,.86,.86s.86-.39,.86-.86c0-.33-.18-.93-.43-1.32h-.85Z"/>
            <path class="cls-1" d="M117.81,37.11h-2.95c-.12,0-.21-.1-.21-.21v-1.19c0-.12,.1-.21,.21-.21h2.95c.12,0,.21,.1,.21,.21v1.19c0,.12-.1,.21-.21,.21Zm-2.73-.43h2.52v-.76h-2.52v.76Z"/>
          </g>
          <path class="cls-1" d="M120.7,37.81s0,0,0,0c-.08,0-.16-.05-.19-.13l-2.28-5.21c-.04-.09,0-.2,.08-.26,.08-.06,.2-.05,.27,.03l2.28,2.28,2.13-2.13c.07-.07,.19-.08,.27-.02,.08,.06,.11,.17,.07,.27l-2.43,5.05c-.04,.07-.11,.12-.19,.12Zm-1.63-4.48l1.64,3.75,1.69-3.51-1.39,1.39c-.08,.08-.22,.08-.3,0l-1.64-1.64Z"/>
        </g>
        <path class="cls-26" d="M118.42,42.73c-4.57,0-8.28-3.72-8.28-8.28s3.72-8.28,8.28-8.28,8.28,3.72,8.28,8.28-3.72,8.28-8.28,8.28Zm0-16.14c-4.33,0-7.86,3.52-7.86,7.86s3.52,7.86,7.86,7.86,7.86-3.52,7.86-7.86-3.52-7.86-7.86-7.86Z"/>
      </g>
      <g>
        <g>
          <g>
            <path class="cls-1" d="M150.42,13.39c1.26,0,2.28,1.02,2.28,2.28s-1.02,2.28-2.28,2.28-2.28-1.02-2.28-2.28,1.02-2.28,2.28-2.28m0-.43c-1.49,0-2.7,1.21-2.7,2.7s1.21,2.7,2.7,2.7,2.7-1.21,2.7-2.7-1.21-2.7-2.7-2.7h0Z"/>
            <path class="cls-1" d="M150.42,14.05c.89,0,1.62,.73,1.62,1.62s-.73,1.62-1.62,1.62-1.62-.73-1.62-1.62,.73-1.62,1.62-1.62m0-.43c-1.13,0-2.04,.92-2.04,2.04s.92,2.04,2.04,2.04,2.04-.92,2.04-2.04-.92-2.04-2.04-2.04h0Z"/>
            <path class="cls-1" d="M150.42,23.34c-.41,0-.75-.34-.75-.75v-4.59h1.5v4.59c0,.41-.34,.75-.75,.75Zm-.32-4.92v4.17c0,.18,.15,.32,.32,.32s.32-.15,.32-.32v-4.17h-.65Z"/>
          </g>
          <g>
            <path class="cls-1" d="M146.56,21.05h-1.34c-.12,0-.21-.1-.21-.21v-5.5c0-.12,.1-.21,.21-.21h1.34c.12,0,.21,.1,.21,.21v5.5c0,.12-.1,.21-.21,.21Zm-1.13-.43h.91v-5.07h-.91v5.07Z"/>
            <path class="cls-1" d="M146.56,22.65h-1.34c-.12,0-.21-.1-.21-.21v-1.1c0-.12,.1-.21,.21-.21h1.34c.12,0,.21,.1,.21,.21v1.1c0,.12-.1,.21-.21,.21Zm-1.13-.43h.91v-.68h-.91v.68Z"/>
            <path class="cls-1" d="M146.58,15.56h-1.37c-.07,0-.14-.04-.18-.11-.02-.03-.03-.07-.03-.11,0-.03,0-.07,.02-.1l.69-1.31c.04-.07,.11-.11,.19-.11h0c.08,0,.15,.04,.19,.11l.68,1.32s.02,.06,.02,.1c0,.04-.01,.08-.03,.11-.04,.06-.11,.1-.18,.1Zm-1.02-.43h.67s-.33-.64-.33-.64l-.34,.64Z"/>
          </g>
        </g>
        <path class="cls-17" d="M149.06,26.59c-4.57,0-8.28-3.72-8.28-8.28s3.72-8.28,8.28-8.28,8.28,3.72,8.28,8.28-3.72,8.28-8.28,8.28Zm0-16.14c-4.33,0-7.86,3.52-7.86,7.86s3.52,7.86,7.86,7.86,7.86-3.52,7.86-7.86-3.52-7.86-7.86-7.86Z"/>
      </g>
      <g>
        <path class="cls-1" d="M181.13,39.09h-2.32c-.12,0-.21-.1-.21-.21v-.84c0-.12,.1-.21,.21-.21h.52v-5.89h-2.16v.76c0,.12-.1,.21-.21,.21h-.84c-.12,0-.21-.1-.21-.21v-1.82c0-.12,.1-.21,.21-.21h7.71c.12,0,.21,.1,.21,.21v1.82c0,.12-.1,.21-.21,.21h-.84c-.12,0-.21-.1-.21-.21v-.76h-2.16v5.89h.52c.12,0,.21,.1,.21,.21v.84c0,.12-.1,.21-.21,.21Zm-2.11-.43h1.89v-.42h-.52c-.12,0-.21-.1-.21-.21v-6.31c0-.12,.1-.21,.21-.21h2.59c.12,0,.21,.1,.21,.21v.76h.42v-1.39h-7.28v1.39h.42v-.76c0-.12,.1-.21,.21-.21h2.59c.12,0,.21,.1,.21,.21v6.31c0,.12-.1,.21-.21,.21h-.52v.42Z"/>
        <path class="cls-26" d="M179.97,42.73c-4.57,0-8.28-3.72-8.28-8.28s3.72-8.28,8.28-8.28,8.28,3.72,8.28,8.28-3.72,8.28-8.28,8.28Zm0-16.14c-4.33,0-7.86,3.52-7.86,7.86s3.52,7.86,7.86,7.86,7.86-3.52,7.86-7.86-3.52-7.86-7.86-7.86Z"/>
      </g>
      <g>
        <circle class="cls-17" cx="114.52" cy="52.55" r="8.07"/>
        <g>
          <g>
            <rect class="cls-1" x="110.6" y="52.08" width="3.06" height=".43"/>
            <rect class="cls-1" x="115.52" y="52.08" width="2.8" height=".43"/>
            <path class="cls-1" d="M119.33,53.52c-.68,0-1.23-.55-1.23-1.23s.55-1.23,1.23-1.23,1.23,.55,1.23,1.23-.55,1.23-1.23,1.23Zm0-2.03c-.44,0-.8,.36-.8,.8s.36,.8,.8,.8,.8-.36,.8-.8-.36-.8-.8-.8Z"/>
            <path class="cls-1" d="M109.7,53.52c-.68,0-1.23-.55-1.23-1.23s.55-1.23,1.23-1.23,1.23,.55,1.23,1.23-.55,1.23-1.23,1.23Zm0-2.03c-.44,0-.8,.36-.8,.8s.36,.8,.8,.8,.8-.36,.8-.8-.36-.8-.8-.8Z"/>
            <g>
              <rect class="cls-1" x="113.57" y="51.27" width="2.03" height="2.03" transform="translate(166.88 -62.29) rotate(90)"/>
              <path class="cls-1" d="M115.82,53.52h-2.46v-2.46h2.46v2.46Zm-2.03-.43h1.61v-1.61h-1.61v1.61Z"/>
            </g>
          </g>
          <path class="cls-1" d="M109.85,54.9l-.3-.3c1.8-1.8,3.64-2.64,5.48-2.51,2.71,.2,4.39,2.43,4.46,2.53l-.34,.25s-1.65-2.18-4.16-2.36c-1.71-.13-3.44,.68-5.15,2.38Z"/>
        </g>
      </g>
      <g>
        <circle class="cls-30" cx="130.85" cy="83.65" r="8.07"/>
        <g>
          <g>
            <path class="cls-1" d="M131.63,87h-2.69l-1.24-3.68,.17-.08c.08-.04,2.08-1.05,2.2-3.83,0-.08,0-.16,0-.25h.43c0,.09,0,.17,0,.26,.12,2.78,2.11,3.78,2.2,3.82l.17,.08-1.23,3.68Zm-2.39-.43h2.08l1.02-3.05c-.43-.26-1.58-1.09-2.06-2.77-.48,1.69-1.63,2.51-2.06,2.77l1.02,3.05Z"/>
            <path class="cls-1" d="M132.25,88.55h-3.94v-1.97h3.94v1.97Zm-3.52-.43h3.09v-1.12h-3.09v1.12Z"/>
            <rect class="cls-1" x="130.07" y="79.16" width=".43" height="3.91"/>
            <path class="cls-1" d="M130.28,84.4c-.42,0-.75-.34-.75-.75s.34-.75,.75-.75,.75,.34,.75,.75-.34,.75-.75,.75Zm0-1.08c-.18,0-.33,.15-.33,.33s.15,.33,.33,.33,.33-.15,.33-.33-.15-.33-.33-.33Z"/>
          </g>
          <path class="cls-1" d="M131.25,79.88c-.64,0-1.09-.29-1.09-.29l.24-.35s1.02,.65,2.13-.29c.47-.4,.94-.57,1.38-.51,.58,.08,.9,.53,.91,.55l-.35,.24s-.23-.32-.63-.37c-.32-.04-.67,.1-1.05,.41-.56,.47-1.1,.61-1.55,.61Z"/>
        </g>
      </g>
      <g>
        <g>
          <circle class="cls-30" cx="167.27" cy="21.33" r="8.07"/>
          <g>
            <g>
              <path class="cls-1" d="M168.53,24.66h-3.01l-1.38-4.13,.17-.08c.1-.05,2.51-1.26,2.51-4.64h.43c0,3.38,2.4,4.59,2.51,4.64l.17,.08-1.38,4.13Zm-2.7-.43h2.39l1.17-3.49c-.48-.28-1.84-1.24-2.37-3.23-.53,1.99-1.89,2.95-2.37,3.23l1.17,3.49Z"/>
              <path class="cls-1" d="M169.23,26.4h-4.4v-2.17h4.4v2.17Zm-3.98-.43h3.55v-1.32h-3.55v1.32Z"/>
              <rect class="cls-1" x="166.81" y="15.81" width=".43" height="4.43"/>
              <path class="cls-1" d="M167.03,21.71c-.45,0-.82-.37-.82-.82s.37-.82,.82-.82,.82,.37,.82,.82-.37,.82-.82,.82Zm0-1.22c-.22,0-.4,.18-.4,.4s.18,.4,.4,.4,.4-.18,.4-.4-.18-.4-.4-.4Z"/>
            </g>
            <g>
              <rect class="cls-1" x="169.44" y="15.51" width=".43" height="1.96"/>
              <rect class="cls-1" x="168.67" y="16.27" width="1.96" height=".43"/>
            </g>
          </g>
        </g>
        <g>
          <circle class="cls-26" cx="130.85" cy="21.33" r="8.07"/>
          <g>
            <g>
              <g>
                <path class="cls-1" d="M134.6,25.56h-7.07v-9.19h5.64l1.44,1.23v7.95Zm-6.65-.43h6.22v-7.33l-1.17-1h-5.05v8.33Z"/>
                <path class="cls-1" d="M134.39,17.87h-1.3c-.12,0-.21-.1-.21-.21v-1.07c0-.08,.05-.16,.12-.19,.07-.04,.16-.02,.23,.03l1.3,1.07c.07,.06,.1,.15,.07,.24s-.11,.14-.2,.14Zm-1.09-.43h.49l-.49-.41v.41Z"/>
                <path class="cls-1" d="M134.39,22.77h-6.65c-.12,0-.21-.1-.21-.21s.1-.21,.21-.21h6.65c.12,0,.21,.1,.21,.21s-.1,.21-.21,.21Z"/>
                <path class="cls-1" d="M131.81,21.42s-.07,0-.11-.03c-.1-.06-.14-.19-.08-.29l.85-1.45h-3.18c-.12,0-.21-.1-.21-.21s.1-.21,.21-.21h3.55c.08,0,.15,.04,.18,.11,.04,.07,.04,.15,0,.21l-1.04,1.77c-.04,.07-.11,.11-.18,.11Z"/>
                <path class="cls-1" d="M129.3,19.88c-.24,0-.44-.2-.44-.44s.2-.44,.44-.44,.44,.2,.44,.44-.2,.44-.44,.44Zm0-.46s-.02,0-.02,.02c0,.02,.03,.02,.03,0,0,0,0-.02-.02-.02Z"/>
                <path class="cls-1" d="M132.86,19.88c-.24,0-.44-.2-.44-.44s.2-.44,.44-.44,.44,.2,.44,.44-.2,.44-.44,.44Zm0-.46s-.02,0-.02,.02c0,.02,.03,.02,.03,0,0,0,0-.02-.02-.02Z"/>
                <path class="cls-1" d="M131.82,21.65c-.24,0-.44-.2-.44-.44s.2-.44,.44-.44,.44,.2,.44,.44-.2,.44-.44,.44Zm0-.46s-.02,0-.02,.02c0,.02,.03,.02,.03,0,0,0,0-.02-.02-.02Z"/>
              </g>
              <path class="cls-1" d="M134.6,25.56h-7.07v-3.21h7.07v3.21Zm-6.65-.43h6.22v-2.36h-6.22v2.36Z"/>
            </g>
            <g>
              <path class="cls-1" d="M129.76,23.99h-.62v.58h.69v.17h-.9v-1.6h.86v.17h-.66v.51h.62v.17Z"/>
              <path class="cls-1" d="M130.1,23.16c.1-.02,.23-.03,.4-.03,.2,0,.35,.05,.45,.13,.09,.08,.14,.19,.14,.33s-.04,.26-.12,.34c-.11,.12-.29,.18-.49,.18-.06,0-.12,0-.17-.01v.64h-.21v-1.58Zm.21,.77s.1,.02,.17,.02c.25,0,.4-.12,.4-.34s-.15-.31-.38-.31c-.09,0-.16,0-.19,.02v.62Z"/>
              <path class="cls-1" d="M131.33,24.49c.09,.06,.23,.1,.37,.1,.21,0,.33-.11,.33-.27,0-.15-.09-.23-.3-.32-.26-.09-.42-.23-.42-.45,0-.25,.21-.43,.52-.43,.16,0,.28,.04,.35,.08l-.06,.17c-.05-.03-.16-.08-.3-.08-.22,0-.3,.13-.3,.24,0,.15,.1,.22,.32,.31,.27,.1,.41,.23,.41,.47,0,.25-.18,.46-.56,.46-.15,0-.32-.05-.41-.1l.05-.17Z"/>
            </g>
          </g>
        </g>
      </g>
      <g>
        <circle class="cls-26" cx="184.31" cy="52.55" r="8.07"/>
        <g>
          <path class="cls-1" d="M186.39,57.57h-4.71v-7.14h4.71v7.14Zm-4.28-.43h3.86v-6.29h-3.86v6.29Z"/>
          <path class="cls-1" d="M185.95,50.85h-3.84v-1.19h3.84v1.19Zm-3.41-.43h2.98v-.33h-2.98v.33Z"/>
          <path class="cls-1" d="M185.07,50.08h-2.07v-2.19h2.07v2.19Zm-1.65-.43h1.22v-1.34h-1.22v1.34Z"/>
          <g>
            <g>
              <path class="cls-1" d="M185.26,48.8c-.08,0-.15-.04-.19-.12-.05-.1-.01-.23,.09-.29l.33-.17c.1-.05,.23-.01,.29,.09,.05,.1,.01,.23-.09,.29l-.33,.17s-.06,.02-.1,.02Z"/>
              <path class="cls-1" d="M186.26,48.29c-.08,0-.15-.04-.19-.12-.05-.1-.01-.23,.09-.29l.44-.23c.1-.05,.23-.01,.29,.09,.05,.1,.01,.23-.09,.29l-.44,.23s-.06,.02-.1,.02Z"/>
              <path class="cls-1" d="M187.37,47.71c-.08,0-.15-.04-.19-.11-.05-.1-.01-.23,.09-.29l.33-.17c.1-.05,.23-.01,.29,.09,.05,.1,.01,.23-.09,.29l-.33,.17s-.06,.02-.1,.02Z"/>
            </g>
            <g>
              <path class="cls-1" d="M185.54,49.05c-.05,0-.1-.02-.14-.05l-.28-.25c-.09-.08-.1-.21-.02-.3s.21-.1,.3-.02l.28,.25c.09,.08,.1,.21,.02,.3-.04,.05-.1,.07-.16,.07Z"/>
              <path class="cls-1" d="M186.48,49.88c-.05,0-.1-.02-.14-.05l-.37-.33c-.09-.08-.1-.21-.02-.3s.21-.1,.3-.02l.37,.33c.09,.08,.1,.21,.02,.3-.04,.05-.1,.07-.16,.07Z"/>
              <path class="cls-1" d="M187.32,50.62c-.05,0-.1-.02-.14-.05l-.28-.25c-.09-.08-.1-.21-.02-.3,.08-.09,.21-.1,.3-.02l.28,.25c.09,.08,.1,.21,.02,.3-.04,.05-.1,.07-.16,.07Z"/>
            </g>
            <g>
              <path class="cls-1" d="M185.64,48.8h-.38c-.12,0-.21-.1-.21-.21s.1-.21,.21-.21h.38c.12,0,.21,.1,.21,.21s-.1,.21-.21,.21Z"/>
              <path class="cls-1" d="M186.88,48.8h-.5c-.12,0-.21-.1-.21-.21s.1-.21,.21-.21h.5c.12,0,.21,.1,.21,.21s-.1,.21-.21,.21Z"/>
              <path class="cls-1" d="M188.01,48.8h-.38c-.12,0-.21-.1-.21-.21s.1-.21,.21-.21h.38c.12,0,.21,.1,.21,.21s-.1,.21-.21,.21Z"/>
            </g>
          </g>
          <path class="cls-1" d="M186.38,54.65h-4.69v-1.94h4.69v1.94Zm-4.26-.43h3.84v-1.08h-3.84v1.08Z"/>
        </g>
      </g>
      <g>
        <path class="cls-17" d="M179.97,78.94c-4.57,0-8.28-3.72-8.28-8.28s3.72-8.28,8.28-8.28,8.28,3.72,8.28,8.28-3.72,8.28-8.28,8.28Zm0-16.14c-4.33,0-7.86,3.52-7.86,7.86s3.52,7.86,7.86,7.86,7.86-3.52,7.86-7.86-3.52-7.86-7.86-7.86Z"/>
        <g>
          <g>
            <path class="cls-1" d="M180.83,73.39h-3.14c-.12,0-.21-.1-.21-.21v-7c0-.09,.06-.18,.15-.2,.09-.03,.19,0,.24,.09l3.01,4.5s.03,.07,.04,.11l.13,2.5c0,.06-.02,.12-.06,.16-.04,.04-.1,.07-.15,.07Zm-2.93-.43h2.7l-.11-2.21-2.59-3.87v6.08Z"/>
            <path class="cls-1" d="M181.41,75.49h-4.46c-.12,0-.21-.1-.21-.21v-2.09c0-.12,.1-.21,.21-.21h4.46c.12,0,.21,.1,.21,.21v2.09c0,.12-.1,.21-.21,.21Zm-4.25-.43h4.04v-1.67h-4.04v1.67Z"/>
          </g>
          <path class="cls-1" d="M183,73.78c-.12,0-.21-.1-.21-.21v-.75c0-.12,.1-.21,.21-.21s.21,.1,.21,.21v.75c0,.12-.1,.21-.21,.21Zm0-1.88c-.12,0-.21-.1-.21-.21v-.75c0-.12,.1-.21,.21-.21s.21,.1,.21,.21v.75c0,.12-.1,.21-.21,.21Zm0-1.88c-.12,0-.21-.1-.21-.21v-.75c0-.12,.1-.21,.21-.21s.21,.1,.21,.21v.75c0,.12-.1,.21-.21,.21Zm0-1.88c-.12,0-.21-.1-.21-.21v-.75c0-.12,.1-.21,.21-.21s.21,.1,.21,.21v.75c0,.12-.1,.21-.21,.21Zm0-1.88s-.02,0-.02,0h-.72c-.12,0-.21-.1-.21-.21s.1-.21,.21-.21h.75c.12,0,.21,.1,.21,.21s-.1,.21-.21,.21Zm-1.88,0h-.75c-.12,0-.21-.1-.21-.21s.1-.21,.21-.21h.75c.12,0,.21,.1,.21,.21s-.1,.21-.21,.21Z"/>
        </g>
      </g>
      <g>
        <g>
          <g>
            <path class="cls-1" d="M153.43,90.98h-2.05c-.09,0-.16-.07-.16-.16v-8.06c0-.09,.07-.16,.16-.16h2.05c.09,0,.16,.07,.16,.16v8.06c0,.09-.07,.16-.16,.16Zm-1.89-.31h1.73v-7.75h-1.73v7.75Z"/>
            <g>
              <path class="cls-1" d="M153.43,84.39h-.8c-.09,0-.16-.07-.16-.16s.07-.16,.16-.16h.8c.09,0,.16,.07,.16,.16s-.07,.16-.16,.16Z"/>
              <path class="cls-1" d="M153.43,85.67h-.8c-.09,0-.16-.07-.16-.16s.07-.16,.16-.16h.8c.09,0,.16,.07,.16,.16s-.07,.16-.16,.16Z"/>
              <path class="cls-1" d="M153.43,86.95h-.8c-.09,0-.16-.07-.16-.16s.07-.16,.16-.16h.8c.09,0,.16,.07,.16,.16s-.07,.16-.16,.16Z"/>
              <path class="cls-1" d="M153.43,88.23h-.8c-.09,0-.16-.07-.16-.16s.07-.16,.16-.16h.8c.09,0,.16,.07,.16,.16s-.07,.16-.16,.16Z"/>
              <path class="cls-1" d="M153.43,89.51h-.8c-.09,0-.16-.07-.16-.16s.07-.16,.16-.16h.8c.09,0,.16,.07,.16,.16s-.07,.16-.16,.16Z"/>
            </g>
          </g>
          <path class="cls-1" d="M149.09,90.84h-4.4c-.09,0-.16-.07-.16-.16v-5.35c0-.09,.07-.16,.16-.16h4.4c.09,0,.16,.07,.16,.16v5.35c0,.09-.07,.16-.16,.16Zm-4.23-.33h4.07v-5.03h-4.07v5.03Z"/>
          <path class="cls-1" d="M149.09,90.84h-4.4c-.09,0-.16-.07-.16-.16v-5.35c0-.09,.07-.16,.16-.16h4.4c.09,0,.16,.07,.16,.16v5.35c0,.09-.07,.16-.16,.16Zm-4.23-.33h4.07v-5.03h-4.07v5.03Z"/>
          <path class="cls-1" d="M148.4,85.48h-3.01c-.09,0-.16-.07-.16-.16v-2.4c0-.09,.07-.16,.16-.16h3.01c.09,0,.16,.07,.16,.16v2.4c0,.09-.07,.16-.16,.16Zm-2.85-.33h2.68v-2.08h-2.68v2.08Z"/>
        </g>
        <path class="cls-17" d="M149.06,95.07c-4.57,0-8.28-3.72-8.28-8.28s3.72-8.28,8.28-8.28,8.28,3.72,8.28,8.28-3.72,8.28-8.28,8.28Zm0-16.14c-4.33,0-7.86,3.52-7.86,7.86s3.52,7.86,7.86,7.86,7.86-3.52,7.86-7.86-3.52-7.86-7.86-7.86Z"/>
      </g>
      <g>
        <circle class="cls-17" cx="167.27" cy="83.65" r="8.07"/>
        <g>
          <path class="cls-1" d="M170.76,88.92h-6.99v-10.55h6.99v10.55Zm-6.57-.43h6.14v-9.7h-6.14v9.7Z"/>
          <path class="cls-1" d="M169.87,88.01h-5.2v-6.83h5.2v6.83Zm-4.77-.43h4.35v-5.98h-4.35v5.98Z"/>
          <g>
            <rect class="cls-1" x="166.81" y="79.22" width=".43" height="1.3"/>
            <g>
              <path class="cls-1" d="M168.7,80.65c-.39,0-.72-.32-.72-.72s.32-.72,.72-.72,.72,.32,.72,.72-.32,.72-.72,.72Zm0-1.01c-.16,0-.29,.13-.29,.29s.13,.29,.29,.29,.29-.13,.29-.29-.13-.29-.29-.29Z"/>
              <rect class="cls-1" x="164.95" y="79.22" width=".43" height="1.3"/>
              <rect class="cls-1" x="165.57" y="79.22" width=".43" height="1.3"/>
              <rect class="cls-1" x="166.19" y="79.22" width=".43" height="1.3"/>
              <rect class="cls-1" x="167.43" y="79.22" width=".43" height="1.3"/>
            </g>
          </g>
        </g>
      </g>
    </g>
    <g>
      <g>
        <g>
          <rect class="cls-24" x="142.45" y="67.74" width="12.23" height="3.15"/>
          <path class="cls-24" d="M157.86,54.2s-7.22-11.73-7.92-12.67c-.69-.94-.99,0-.99,0v11.06c.64,.17,1.12,.75,1.12,1.45,0,.83-.67,1.5-1.5,1.5s-1.5-.67-1.5-1.5c0-.7,.47-1.28,1.12-1.45v-11.06s-.3-.94-.99,0-7.92,12.67-7.92,12.67c0,0-.37,.56,.38,2.44,.75,1.88,4.03,10.32,4.03,10.32h9.78s3.28-8.44,4.03-10.32c.75-1.88,.37-2.44,.37-2.44Z"/>
          <g>
            <g>
              <path class="cls-5" d="M141.28,33.07c-.98,0-1.78-.8-1.78-1.78s.8-1.78,1.78-1.78,1.78,.8,1.78,1.78-.8,1.78-1.78,1.78Zm0-3c-.67,0-1.22,.55-1.22,1.22s.55,1.22,1.22,1.22,1.22-.55,1.22-1.22-.55-1.22-1.22-1.22Z"/>
              <path class="cls-5" d="M155.84,33.07c-.98,0-1.78-.8-1.78-1.78s.8-1.78,1.78-1.78,1.78,.8,1.78,1.78-.8,1.78-1.78,1.78Zm0-3c-.67,0-1.22,.55-1.22,1.22s.55,1.22,1.22,1.22,1.22-.55,1.22-1.22-.55-1.22-1.22-1.22Z"/>
            </g>
            <g>
              <path class="cls-6" d="M157.29,40.36c-.98,0-1.78-.8-1.78-1.78s.8-1.78,1.78-1.78,1.78,.8,1.78,1.78-.8,1.78-1.78,1.78Zm0-3c-.67,0-1.22,.55-1.22,1.22s.55,1.22,1.22,1.22,1.22-.55,1.22-1.22-.55-1.22-1.22-1.22Z"/>
              <path class="cls-6" d="M139.83,40.36c-.98,0-1.78-.8-1.78-1.78s.8-1.78,1.78-1.78,1.78,.8,1.78,1.78-.8,1.78-1.78,1.78Zm0-3c-.67,0-1.22,.55-1.22,1.22s.55,1.22,1.22,1.22,1.22-.55,1.22-1.22-.55-1.22-1.22-1.22Z"/>
            </g>
            <g>
              <path class="cls-5" d="M147.04,38.69c-2.91-.67-5.02-3.11-5.26-6.09l.55-.04c.22,2.73,2.16,4.98,4.83,5.59l-.12,.54Z"/>
              <path class="cls-5" d="M150.09,38.69l-.12-.54c2.67-.61,4.61-2.86,4.83-5.59l.55,.04c-.23,2.98-2.35,5.42-5.26,6.09Z"/>
            </g>
            <g>
              <rect class="cls-6" x="141.19" y="38.3" width="6.02" height=".56"/>
              <rect class="cls-6" x="149.92" y="38.3" width="6.02" height=".56"/>
            </g>
          </g>
        </g>
        <g>
          <path class="cls-25" d="M157.86,54.2s-7.22-11.73-7.92-12.67c-.69-.94-.99,0-.99,0v11.06c.64,.17,1.12,.75,1.12,1.45,0,.83-.67,1.5-1.5,1.5v11.42h4.89s3.28-8.44,4.03-10.32c.75-1.88,.37-2.44,.37-2.44Z"/>
          <rect class="cls-25" x="148.56" y="67.74" width="6.11" height="3.15"/>
        </g>
      </g>
      <path class="cls-24" d="M148.56,40.36c-.98,0-1.78-.8-1.78-1.78s.8-1.78,1.78-1.78,1.78,.8,1.78,1.78-.8,1.78-1.78,1.78Zm0-3c-.67,0-1.22,.55-1.22,1.22s.55,1.22,1.22,1.22,1.22-.55,1.22-1.22-.55-1.22-1.22-1.22Z"/>
      <path class="cls-31" d="M155.61,71.54c0,.36-.29,.65-.65,.65h-12.8c-.36,0-.65-.29-.65-.65h0c0-.36,.29-.65,.65-.65h12.8c.36,0,.65,.29,.65,.65h0Z"/>
    </g>
  </g>
</svg>