<?xml version="1.0" encoding="utf-8"?>
<!-- Generator: Adobe Illustrator 27.0.0, SVG Export Plug-In . SVG Version: 6.00 Build 0)  -->
<svg version="1.1" id="Layer_1" xmlns="http://www.w3.org/2000/svg" xmlns:xlink="http://www.w3.org/1999/xlink" x="0px" y="0px"
	 viewBox="0 0 1920 1080" style="enable-background:new 0 0 1920 1080;" xml:space="preserve">
<style type="text/css">
	.st0{opacity:0.63;fill:#1B98B3;enable-background:new    ;}
	.st1{opacity:0.83;}
	.st2{fill:#7CAFBD;}
	.st3{fill:url(#XMLID_00000090259360189951390690000012780996512068359821_);}
	.st4{fill:url(#XMLID_00000047756282514342327070000008145160018982622347_);}
	.st5{fill:url(#XMLID_00000021111478227141726520000016670713751431399325_);}
	.st6{fill:url(#XMLID_00000013195057296617806980000006037040208003091590_);}
	.st7{fill:url(#XMLID_00000120516897345720406540000012569181643343991684_);}
	.st8{fill:url(#XMLID_00000080185476214967414790000000014694741941397126_);}
	.st9{fill:url(#XMLID_00000046307182197287030690000012260308558403417244_);}
	.st10{fill:url(#XMLID_00000035515422401956211780000007215371096637845682_);}
	.st11{fill:url(#XMLID_00000116948408128193943550000002552519003405414053_);}
	.st12{fill:url(#XMLID_00000110471933541058074380000017123385821130737570_);}
	.st13{fill:url(#XMLID_00000033330807646113765570000004518509594900809103_);}
	.st14{fill:url(#XMLID_00000179604887241648849580000013697016073314964126_);}
	.st15{fill:url(#XMLID_00000096037601402419601570000013874731680060138161_);}
	.st16{fill:url(#XMLID_00000012448731497857099110000004985916575952752013_);}
	.st17{fill:url(#XMLID_00000109030427220122245610000002684014690151626173_);}
	.st18{fill:url(#XMLID_00000088092198122874777690000000778047924626291629_);}
	.st19{fill:url(#XMLID_00000167397639149636440890000015414823324366489483_);}
	.st20{fill:url(#XMLID_00000106851219591834515110000016071246864286303912_);}
	.st21{fill:url(#XMLID_00000157309349157688970120000001755874837745846415_);}
	.st22{fill:url(#XMLID_00000176040271285096243980000001172524518423896746_);}
	.st23{fill:url(#XMLID_00000068635344369755178680000003683334021408305808_);}
	.st24{fill:url(#XMLID_00000178203590866983390090000013872939141559164061_);}
	.st25{fill:url(#XMLID_00000083786879522228659110000013366426821842832310_);}
	.st26{fill:url(#XMLID_00000013188617918474184500000006750766700043417789_);}
	.st27{fill:url(#XMLID_00000168075523186774139540000003714713487365945261_);}
	.st28{fill:url(#XMLID_00000112621625523090306010000012556432446622498470_);}
	.st29{fill:url(#XMLID_00000070087120383373554070000000205180563152305341_);}
	.st30{fill:url(#XMLID_00000140016218105214801490000017596329333413182116_);}
	.st31{fill:url(#XMLID_00000127755784109931805880000001867449189008636588_);}
	.st32{fill:url(#XMLID_00000049179755982271215170000006375663779823004813_);}
	.st33{fill:url(#XMLID_00000098921180539754896230000006215899221576386967_);}
	.st34{fill:url(#XMLID_00000147908640728965730380000000813949487301037704_);}
	.st35{fill:url(#XMLID_00000081641097036164709990000010183223020333193887_);}
	.st36{fill:url(#XMLID_00000088846822764609867140000008967863118847786659_);}
	.st37{fill:url(#XMLID_00000013885540829623653290000008726024024426207643_);}
	.st38{fill:url(#XMLID_00000170259538999419021370000003576993811827581067_);}
	.st39{fill:url(#XMLID_00000183944911734185072580000007835845022632160163_);}
	.st40{fill:url(#XMLID_00000143601413731049211690000012364755987497762217_);}
	.st41{fill:url(#XMLID_00000176039976876692785990000003963028316845641906_);}
	.st42{fill:url(#XMLID_00000008148215512362251020000011638328213840233607_);}
	.st43{fill:url(#XMLID_00000018951354578516719540000018361440183109598633_);}
	.st44{fill:url(#XMLID_00000024720113131224903580000014547165377656775310_);}
	.st45{fill:url(#XMLID_00000089548549217402793170000009613709295289738398_);}
	.st46{fill:url(#XMLID_00000056398431372182723130000011439195788031603343_);}
	.st47{fill:url(#XMLID_00000085230472479484171010000015992683950493968816_);}
	.st48{fill:url(#XMLID_00000010288970413690062340000016854923793300874880_);}
	.st49{fill:url(#XMLID_00000158002651867317807130000015427920535184309682_);}
	.st50{opacity:0.47;}
	.st51{fill:#5089DE;}
	.st52{fill:#69EBFF;}
	.st53{fill:#FFFFFF;}
	.st54{fill:#BAFAFF;}
</style>
<path id="XMLID_504_" class="st0" d="M1126.2,185.8l-0.1-0.2v-0.1h-0.1l-74-153.3l0.1-0.1h-0.1l-0.1-0.1l-0.1,0.1L490.1,15.4l0,0
	H490l-0.1-0.2l-0.1,0.2h-0.2v0.1h-0.8l0.3,0.1L215.6,38.1l-0.1-0.2l-0.1,0.2L41.5,15.4l0,0h-0.1l-0.1-0.2l-0.1,0.2h-0.1l0,0
	l-105.5,9.7l41.5,199.2H-23l0.1,0.1v0.1l0,0l-39.5,229.7l0,0v0.1v0.1l0,0l53.6,282.8l-0.1-0.1l0.1,0.3h-0.1l0.1,0.1l-0.1,0.2h0.1
	l-55.5,341.7l-0.2,0.2h0.1l-0.1,0.3l0.3-0.4l144.5-26.9v0.1l0.1-0.1h0.1l0,0l74.7-47.5l0,0l0.1-0.1l0.2,0.1v-0.1l110.9,72.7v0.1h0.1
	l0.2,0.1v-0.2l94.9-38.8v0.1l0.2-0.1l0.1,0.1v-0.1l148.6,38.8l-0.1,0.2l0.2-0.1v0.2l0.1-0.2h0.1v-0.1l128-79.2v0.2l0.1-0.2l0.1,0.3
	l0.1-0.4l237.1,79.3v0.1h0.1l0.1,0.2v-0.2h0.1l-0.1-0.1l189.3-55.8l0.1,0.1v-0.1h0.1l-0.1-0.1l58.3-306.7h0.1l-0.1-0.1l0.1-0.1h-0.1
	v-0.2l-0.1,0.1l-58.3-290.3l0,0v-0.2l0,0l60.2-238.8L1126.2,185.8z M1051.8,32.4l73.9,152.9l-10.7-3.7l-125.4-43.1h0.1l-0.2-0.1
	l0.1-0.1l-0.1,0.1l0.1-0.1l38.1-64.9L1051.8,32.4z M155.5,1004.8l-15-130.7l13.6,8.8l-13.6-8.8l0,0l13.6,8.8l90.7,59L155.5,1004.8z
	 M489.9,15.8l65.7,119.4l66,120l-0.2,0.1h0.1L347.8,392.6l49.9-132.4L489.9,15.8z M490.1,15.7l478,117.8l20.8,5.1L622,255l0,0h-0.1
	l-0.2-0.4v0.2L505.1,42.9L490.1,15.7z M989.3,138.5L989.3,138.5L989.3,138.5L989.3,138.5z M1064.6,572.6L965.8,668L862.4,351.2
	l36,39.5L1064.6,572.6z M245.1,941.7l23.4-75.6l0.1,0.2v-0.4l70.3,43.1l37.6,23.1L245.1,941.7z M244.8,941.7L244.8,941.7
	L244.8,941.7L244.8,941.7z M244.8,941.7l-0.1-0.1L244.8,941.7l-16.6-10.8L140.7,874l127.6-8.1l-9.4,30.5L244.8,941.7z M154.6,205.3
	l50.5,49.1l142.3,138.4l-0.2,0.1h0.1L183.8,494.7l-13.6-135.4L154.6,205.3z M819.8,768.4L819.8,768.4L819.8,768.4l-35.2-80.8
	l-48.5-111.5l0,0l229.5,92.1L819.8,768.4z M607.8,886.4L607.8,886.4l-7.5-208.1l6.7,9.2l66.5,90.9L607.8,886.4z M673.6,778
	l-73.3-100.1l0,0l0,0l135.3-101.7L673.6,778z M480.5,940l-84.6-122.8l151.8-103.4l52.2-35.6l-107,234.6L480.5,940z M376.7,932
	l-108-66.2l126.8-48.4l-1.1,6.6L376.7,932z M140.5,873.7l34.8-98.3l31-87.5l62,177.7l-13.4,0.8L140.5,873.7z M347.8,393.2L600,677.9
	L395.8,817l-11.4-100.4L347.8,393.2z M615.8,352.8l6.1-97l24.2,68.2l89.3,251.2L611.6,420.4L615.8,352.8z M611.6,420.7L611.6,420.7
	l124.1,155.1l-86.8,65.3l-48.6,36.5l8.6-195.4L611.6,420.7z M608.3,490.1l-8.2,187.4l0,0v0.1l-1.1-1.2L347.9,393l0,0l263.4,27.5
	L608.3,490.1z M288.7,857.9l-20.1,7.7l6.2-69.6L294,581.2l101.5,235.9L288.7,857.9z M293.8,581.1l-25.4,284.1l-62-177.5l47.3-57.7
	L293.8,581.1z M268.4,865.2l25.4-284.1l0,0L268.4,865.2L268.4,865.2z M293.9,580.4l-0.1-0.1v0.3L183.9,495l19.7-12.3l143.9-89.5
	L300,559.3l47.5-166.1l0,0L300,559.3L293.9,580.4z M183.8,495.2l109.9,85.6l-87.4,106.6l0,0l-0.5-4L183.8,495.2z M736,575.8
	L862.1,351L959,647.9l6.5,20L736,575.8z M862,350.8l-177.3-70.5L862,350.8l-31.2,55.7L736,575.6l0,0L622,255.4l62.6,24.9L622,255.4
	L862,350.8L862,350.8z M621.7,255.4l-10.3,164.9L621.7,255.4L621.7,255.4z M611.4,420.1L611.4,420.1v0.2L348,392.8l0,0l273.7-137.4
	L611.4,420.1z M347.6,393.5l47.9,422.9L294.1,580.7l0,0l0,0l13.3-46.6L347.6,393.5z M206.1,687.5L-8.3,737.4l191.9-242.3
	L206.1,687.5z M377,932.1l14.6-88.9l4.2-25.5l0.2,0.4v-0.3l84.4,122.5l-81.4-6.4L377,932.1z M480.7,940l-0.1,0.3L480.7,940
	l39.4-16.6L480.7,940l100.6-220.6l18.7-41l7.5,208.3l-87.4,36.7L480.7,940z M673.4,778.9L638.9,998l-31-111.2L673.4,778.9z
	 M673.8,778.2l4.9-16l57.1-185.9l10.5,24.2l73.2,168.1l-49,3.3L673.8,778.2z M819.9,768.6l145.7-100.2L906.4,901L819.9,768.6z
	 M1064.6,572.3L862.5,351l76.9,27.8l126.2,45.7L1064.6,572.3L1064.6,572.3z M862.2,350.5L862.2,350.5L862.2,350.5l-0.3-0.2l0.1,0.3
	l-239.8-95.3l366.9-116.4L862.2,350.5z M154.6,205l60.9-166.3l26.8,71.8l105,282L154.6,205z M154.3,205.1l24.1,239.6l5,49.8
	l-206-270l111.2-12.2L154.3,205.1z M183.4,693.1l22.7-5.3l-65.8,185.9l-148.6-136l0,0L183.4,693.1z M49.4,790.8l90.6,82.9h-0.1
	l0.1,0.1l-83.5,43.6v-0.1l0,0L-8.3,738L49.4,790.8z M56.7,917.6l53.8-28.1l29.7-15.5l0,0l0,0l3,26.5l12,104.2L56.7,917.6L56.7,917.6
	z M376.9,932.3l39.1,3.1l64.2,5l-32.3,26.9l-85.9,71.5L376.9,932.3z M480.7,940.3L607.4,887l-96.8,190.5L480.7,940.3L480.7,940.3
	L480.7,940.3z M673.8,778.4l142.2-9.5l3.5-0.2L709,909.2l-69.9,88.9L673.8,778.4z M639.2,998.4l180.5-229.5l9.4,218.2L639.2,998.4z
	 M819.9,769l60.2,92.1l26.2,40.2l0,0l0,0l-77,85.5L819.9,769z M851.3,962.8l54.9-61l-30,175.8l-46.9-90.3L851.3,962.8z M906.6,901
	l59.2-232.7h0.1l0,0l121.8,36.1l36,10.7L906.6,901z M989.3,138.9l76.2,285.4l-203.2-73.6l39.9-66.6l-40,66.7l127.2-212.1h-0.1h0.1
	L989.3,138.9L989.3,138.9l-87,145.2L989.3,138.9z M1051.6,32.3l-62.4,106.2h-0.1l0,0L861.8,107L491,15.7L1051.6,32.3z M489.7,15.6
	l-142,376.7v-0.1l-0.1,0.2l-12.1-32.6L215.7,38.4L489.7,15.6z M215.4,38.4l-60.9,166.4l0,0l0,0l0,0L117,141.9L41.6,15.7L215.4,38.4z
	 M154.3,204.9l-36.9,4.1l-139.9,15.3L41.4,15.8L154.3,204.9z M-64,25.3l105.2-9.7l-63.9,208.3l0,0L-64,25.3z M-22.6,224.7l206,270
	l-245.5-40.4L-22.6,224.7z M-62.1,454.5L183.4,495L60.3,650.5l-68.8,86.8L-62.1,454.5z M-8.6,738.1l64.9,179.4h-0.1l0,0l-87.8,117.9
	l-32.5,43.6L-8.6,738.1z M-63.9,1079.4L32.5,950l23.9-32.1l10.7,60.3l13.2,74.4L-63.9,1079.4z M80.6,1052.4l-5.9-33L56.6,917.9l0,0
	l43.5,38.4l55.1,48.7L80.6,1052.4z M155.6,1005l16.3-11.5l72.9-51.4l21.6,135.6l0,0L155.6,1005z M266.7,1077.7l-21.6-135.6
	l55.1,45.8l61.4,51L266.7,1077.7z M361.7,1038.8L245.2,942l131.5-9.7L361.7,1038.8z M362,1039l118.4-98.5l6.3,28.9l23.7,108.4
	L362,1039z M510.9,1077.6l96.7-190.4l31.1,111.3h-0.4l0.3,0.1L510.9,1077.6z M639.5,998.6l189-11.3h0.5v0.2l0.1-0.1l3,5.9l43.9,84.4
	L639.5,998.6z M876.4,1077.7l1.8-10.7l28.3-165.5l19.8,15l139.2,105.4L876.4,1077.7z M1065.6,1021.8l-159-120.4l217.3-185.9
	L1065.6,1021.8z M977.6,671.6l-11.6-3.5l32-30.9l66.7-64.4l0,0l59.2,142.1L977.6,671.6z M1123.7,713.9l-58.9-141.3l0,0l0,0l1-146.9
	L1123.7,713.9z M1065.7,424l-19-71.1l-57.2-214.1l136.3,46.9L1065.7,424z"/>
<g id="XMLID_3_" class="st1">
	<g id="XMLID_5_">
		<g id="XMLID_6_">
			<g id="XMLID_78_">
				<g id="XMLID_174_">
					<path id="XMLID_176_" class="st2" d="M1866.2,144.1l-0.8-0.8l-0.4-0.4l0,0l-63.5-46.5h0.3l-1.4-0.9v-0.1h-0.3l-0.8-0.6v0.1
						l-39-24.9l-1.8-0.9l-0.4-0.2l0,0l-7-3.3l-25.3-9.9l-0.3-0.1l0,0h-0.1l0,0l-9.9-3l0,0l-4.6-1.4l0,0h-0.1l0,0h-0.1l0,0l-5.4-1.4
						l0,0l-10.1-2.6l0,0l0,0l0,0l-3.7-0.9l0,0l-2.6-0.6l0,0l-1.6-0.3l0,0l-7.9-1.6l0,0h-0.1l0,0h-0.1l-2.3-0.4l0,0l-2.6-0.5l0,0
						l-2.9-0.5l0,0l-6-1l0,0l-2.9-0.4l0,0l-4.7-0.7l0,0l-2.1-0.3l0,0l-0.4-0.1l-8.3-1.2l0,0l-5.5-0.6l0,0h-0.3l0,0l-7.1-0.6l0,0
						l-4.7-0.3l-4.7-0.3l0,0h-0.1l0,0h-0.3l0,0l0,0l-5.9-0.3l0,0l-8.5-0.3l0,0l-2.2-0.1l0,0l-3.5-0.1l0,0h-3.8l0,0h-1.2l0,0
						l-8.5,0.2l0,0l-8.8,0.4l0,0l-8.6,0.6l0,0l-5.9,0.5l0,0l-5.7,0.6l0,0l-0.3,0.1l-0.6,0.1h-0.2l0,0l-6.9,0.8l0,0l-1.2,0.2l0,0
						l-8.9,1.3l0,0l-2.3,0.4l0,0l-5.4,0.9l0,0l-6.3,1.2l-4.3,0.8l0,0l-4.1,0.9l0,0l-0.6,0.1l0,0l-0.2,0.1l-1.4,0.3l-0.6,0.1h-0.8
						l-1.7,0.4l0,0l-3.1,0.8l0,0l-6.8,1.6l-10,2.7l-9.8,2.9l0,0l-0.8,0.3l0,0l-0.8,0.3l0,0l-4.3,1.4l0,0l-5.3,1.8l0,0l-4.4,1.6
						l0.1,0.1l-3.1,0.9l-0.3,0.1l-0.9,0.4l-0.3,0.1l0,0l-3.2,1.2l-4.3,1.7l0,0l-0.2,0.1h-0.1l0,0l-6.3,2.6l0,0l-1.7,0.8l0,0
						l-10.9,4.9l0,0l-2.4,1.1l-10,4.9l0,0h-0.1h-0.1l0,0l0,0l-0.3,0.1l-7.4,3.8l0,0l-4.6,2.5l0,0l-3.4,1.9v-0.1l-1.2,0.7l-0.1,0.1
						l0,0l-6.4,3.7l0,0l-0.1,0.1l0,0l0,0l0,0l-6.4,3.8l0,0l-0.8,0.5l-7.2,4.5l0,0l-6.3,4.2l0,0l-5.2,3.5l0,0l-0.1,0.1l-0.1,0.1l0,0
						h-0.1l0,0l0,0l-0.1,0.1l-1.8,1.3l-0.3,0.2l0,0l-3.7,2.7l-3.6,2.6l-0.1,0.1l0,0l-0.1,0.1l0,0l-6.9,6l0,0l0,0l-0.1,0.1l0,0
						l-0.7,0.7l0,0l-0.2,0.2l0,0l-0.8,0.8l-0.1,0.1l0,0l-1.9,2.1l0,0l-0.2,0.2l-0.6,0.7l0,0l-2.5,2.9l-0.3,0.1v0.2l-39.1,36.5
						l-0.4,0.4l-0.3,0.3l0,0l-13.9,15.3l-0.1-0.2l-0.3,0.6l-0.2,0.3l0.1,0.1l-50.9,83.1l-2,1.3l-0.2,0.4l0,0l-2.6,5.9l0,0l-0.1,0.4
						l0,0l-2.8,6.6l0,0l-0.3,0.8l0,0l-3.2,7.9l0,0l-0.1,0.3l0,0l-1.6,4.3l-0.1,0.2l-0.1,0.3l-1.8,5l0,0l-2,5.7v0.1l0,0l-2.3,7l0,0
						l-0.3,0.9l0,0l-2.4,8l0,0l0,0l0,0l-1.8,6.7l0,0l-0.3,1.3l0,0l-2,8.1l0,0l-0.3,1v-0.2l-0.8,3.3l-0.1,0.2l0,0l-1.3,5.8l0,0
						l-1.3,5.9l0,0l0,0l-1.3,7.1l0,0l-0.2,0.9l0,0l-1.3,8v0.1l0,0l-0.1,0.8l0,0l-0.8,5.7l0,0l-0.2,1.6l0,0l-1,8l0,0v0.1l0,0
						l-0.8,7.1l0,0l-0.1,0.9l-0.7,8l0,0v0.1l0,0l-0.3,5.2l-0.1,0.6v0.4l-0.2,4.1l0,0l-0.3,5.6l0,0l0,0l0,0l-0.1,1.2v0.3l0,0
						l-0.1,7.7l0,0v2.1l0,0v1.1v0.2l0,0v3.4v0.1v0.1l0,0l0.1,5v0.8v0.3l0.1,4.1l0,0l0.3,5.6l0,0l0,0l0.4,7.3l0,0l0.1,0.6l0.6,7.9
						l0,0l0,0l0,0l0.8,7.3l0,0l0.1,0.6l0.9,7.9l0,0l0.9,6.6l0,0l0.2,1.3l0,0l1.3,7.9l0,0l0.6,3.2l0,0l0.6,3l0,0l0.4,1.9l0,0l1.6,8.1
						l0,0l0.5,2.2l0,0l0.6,2.6l0,0l0.8,3.2l0,0l2,7.9l0,0l0,0l1.9,6.9l0,0l0.3,1l2.3,7.8l0,0l0.4,1.4l0,0l1.7,5.4l0,0l0.4,1l2.6,7.7
						l0,0l0,0l0,0l2.5,6.7l0,0l0.3,0.8l3,7.6l0,0v0.1l0,0l0,0l2.5,6l0.2,0.4v0.1l1.4,3.2l0,0l2.3,5.2l0,0l0,0l3,6.5l0,0l0.4,0.9
						l3.6,7.3l0,0l0.4,0.9l0.1,0.1l0,0l2.6,5l0,0l0.8,1.4l3.8,7l0,0l0,0l1.1,2.1l0,0l1.6,2.8l0,0l1.3,2.2l0,0l4.2,7l0,0l3.8,6l0,0
						l0.6,0.9l4.5,6.9l0,0l0.5,0.8l0,0l3.6,5.2l0,0l0.6,0.8l4.5,6.2l0,0l0,0l6.6,8.8l0,0l0,0l2.6,3.4l0,0l0,0l0.5,0.6l0,0l0.1,0.1
						l0,0l0,0l0,0l1.2,1.4l0.1,0.1l0.4,0.4l0,0l0,0l3,3.7l0.9,1.1l4,4.8l0,0l1.8,2.1l0,0l4.3,4.9l0.4,0.5l0,0l5.3,5.8l0.2,0.2l0,0
						l0,0l0,0l5.2,5.4l0,0l0.7,0.7l5.5,5.5l0,0l0.1,0.1l0,0l0,0l0,0l4.1,3.9l0,0l7.8,7.2l0,0l2.5,2.2l0,0l2.7,2.3l0,0l0.9,0.8l0,0
						l6.2,5.2l0,0l9.3,7.4l0,0l1.7,1.3l0,0l0,0l0.1,0.1l0,0l0,0l0,0l0,0l0.4,0.3l0.1,0.1l1.3,1l0,0l6.2,4.6l0,0l0.4,0.3l6.7,4.7l0,0
						h0.1l0,0l4.9,3.3l0.1,0.1l0.4,0.3l3.5,2.3l0,0l4.7,3l0,0l0,0l1.8,1.1l0,0l0.8,0.5l0.2,0.1l0,0l5.3,3.2l0,0l5.5,3.3l0,0l0.1,0.1
						l0,0l6.4,3.6l0,0l2.2,1.2l5.3,2.8l0,0l0,0l0,0h0.1l0,0l0,0l0,0l6.5,3.3l0,0l0.5,0.3l7.1,3.5l0,0l0.1,0.1h0.1l0,0l0,0l6.9,3.2
						l0,0l0.4,0.2l0,0l7.1,3.1l0,0l9.1,3.7h-0.1l0.9,0.4l0.1,0.1l0,0l2.6,1l0,0l1.3,0.5l0.8,0.3l0,0l1.4,0.6l0,0l5,1.8l0,0l1,0.4
						l0,0l7.6,2.6l0,0l0,0l6.7,2.1l0,0l0.9,0.3l0,0l7.7,2.3l0,0l3.2,0.9l0,0l3.5,0.9l0,0l1.2,0.3l0,0l7.9,2l0,0l2.3,0.6l0,0l5.1,1.1
						l0,0l0.5,0.1l0,0l7.9,1.6l0,0h0.1l0,0l7,1.3l0,0l1,0.2l0,0l8.1,1.3l0,0h0.1h0.1l0,0l0,0l7.6,1.1l0,0l0.4,0.1l0,0l8.2,1l0,0h0.2
						l0,0l5,0.5l0,0l5.9,0.6l0,0l5.4,0.4l0,0l0,0l0,0l7.4,0.4l0,0l1,0.1l0,0l8.4,0.3l0,0l8.5,0.1l0,0l6.4-0.1l0,0l2.9-0.1l0,0h0.3
						l0,0l7.9-0.3l0,0h0.4l0,0l4.9-0.3l0,0l8.7-0.5l0,0l4.2-0.4l0,0l1.3-0.1l0,0l3-0.3l0,0l1.1-0.1l0.4-0.1l0,0l2.8-0.3l0,0l1.4-0.2
						l0,0l3.3-0.4l0.9-0.1l0,0l4.2-0.6l0,0l1.1-0.2l3.2-0.5l0,0l1.4-0.3l0,0l2.8-0.5l0,0l1.5-0.3l0,0l3-0.6l0,0l1.1-0.3h0.1l0,0
						l5-1.1l0,0l1.1-0.3l0,0l4.7-1.1l0.6-0.1l0,0l5-1.3l0,0l1.2-0.3l0,0l5.1-1.4l0,0l4.2-1.3l0,0l1.4-0.4l2.8-0.9l0,0l1.6-0.5
						l2.5-0.8l0,0l1.7-0.6l0,0l2.5-0.9l0,0l1.7-0.6l0,0l2.5-0.9l0,0l1.6-0.6l0,0l2.5-0.9l0.6,0.1l-0.1-0.1l3.6-0.3l-2.5-0.3l2.8-1.1
						l1.1-0.4l0,0l4.1-1.7l0,0c43.5-19.3,92.6-43.2,122.9-63.5c0.6-0.4,1.1-0.8,1.7-1.1l0.2-0.1l0,0l5.5-4.7l0,0l4-3.4l0,0l2.8-2.5
						l0.1-0.1l0,0l8.2-7.6l0,0l0.2-0.2l0,0l7.8-7.6l8.7-9l0,0l0.1-0.1l0,0l2.8-3.1l0,0l0.3-0.3l0,0l2.5-2.8l0,0l4-4.6l0,0l1.4-1.6
						l2.4-2.8l0,0l0.8-0.9l0,0l1.1-1.3l0,0l6.9-8.6l0,0l5.8-7.6l0,0l0.4-0.6l0.4-0.5l2.3-3.1l0,0l0.1-0.1l0,0l4.7-6.7l0,0l3.3-4.8
						l0,0l4.7-7.1l0,0l0.4-0.6l0,0l4.9-7.9l0,0l1.2-2l0,0l3-5l0,0l3.1-5.5l1.7-3.1l0,0l0.6-1.2l0,0l3-5.7l0,0l0.4-0.9l0,0l3.9-7.9
						l0,0l0.6-1.2l0,0l2.4-5l0,0l0.7-1.6l0,0l3.5-7.9l0,0l2.9-6.9l0,0l1.1-2.9l2.3-5.9l0,0v-0.1l0,0l0.6-1.7l0,0l1.8-5l0,0l0.4-1.1
						l0,0l2.8-7.9l0,0l0,0l0.4-1.4l0,0l1.8-5.5l0,0l0.3-1.1l0,0l2.4-8l0,0l1.3-4.8l0,0l0.8-2.7v0.1l0.4-1.6l0,0l0.1-0.3l0.5-1.9l0,0
						l1.2-4.9l0,0l1.6-7.1l0,0l0.2-0.9l0,0l1.7-8.1l0,0l0.1-0.4l0,0l1.1-6l0,0l0.3-1.6l0,0l1-5.9l0.4-2.4l0.1-0.4l0,0l1.1-7.3l0,0
						l1-8.1l0,0v-0.1l0,0l0.8-7.1l0,0l0.3-3.3l0.4-5.6l0,0l0,0l0,0v-0.1l0,0l0.4-5.7l0,0l0.2-3.7l0,0l0.3-6.4l0,0l0.1-7.3l0,0v-0.7
						v-8l0,0l0,0l0,0l-0.1-7.3l0,0v-0.6l-0.3-7.9l0,0l0,0l-0.4-6.9l0,0l-0.1-1l-0.6-7.9l0,0l-0.4-4.1l0,0l-0.4-4.1l0,0l0,0l0,0l0,0
						l0,0l-1.6-9.6l0,0l-0.6-2.9l0,0l-1.5-7.1l0,0l0,0l0,0l0,0l0,0l-1-4.3l0,0l-0.4-1.5l-0.1-0.2l0,0l-1.3-5.4l-0.9-1.7l-16.8-59.5
						l-0.6-1.6l-0.1-0.3l0,0l-45.3-82.9L1866.2,144.1z M1811.8,275l0.3,10.1l-14.9-28.4l0,0l-0.3-0.4l-1.2-2.1l0,0l-21-34l0,0l0,0
						l-0.1-0.1L1655.6,95.6l1.3,0.4l105.5,45.1l33.9,20.5v0.1l0.1,0.1l15.4,111.4V275L1811.8,275z M1909.2,411l24.5,139.1
						l-33.3-21.1l-1.6-0.5l0,0l-0.1-0.1l0,0l-25.3-5.6v-0.2l0,0v-0.2l0,0l0,0v-1l-0.1,0.1l-16.9-116.1l50.8,3.1L1909.2,411z
						 M1581.6,809.5l11.6-27.9l1.9,1.1l118.4,16.6l-130.2,10.1l0,0L1581.6,809.5z M1439.7,696.9l-1.9-1.1l0,0l-3.2-1.8l0,0l-1.2-0.7
						l0,0l-4.1-2.4l-0.4-0.3l-67.9-48.6l-1.2-1l-4.3-13.5l-13.3-71l-0.1-0.9l49.3,34.4l1.3,2.7l0,0l0.1,0.3v0.1l103.2,131.3
						l-50.6-24.1l-0.9-0.5l-3-1.7l0,0L1439.7,696.9z M1233.7,479.7l1-34l44.4,102.8c-0.2,0.2-0.4,0.4-0.8,0.8
						c-2.3,2.4-8.2,8.4-14.2,14.2c-3,3-6,5.9-8.8,8.3c-2.6,2.5-5,4.4-6.4,5.4l0,0c-0.4,0.3-0.8,0.5-1.1,0.6c0,0,0,0-0.1,0
						l-14.1-95.6v-2.3l0,0V479.7z M1234.3,440.9l-1-5.5l0,0l-0.5-2.8l0,0l-0.3-1.4l-4.5-45.3l0,0l0,0l-0.1-4.9l0,0v-1.4l0,0v-3.7
						l0.7-20.4l0.1-1.1l0,0l0.3-3.4l0,0l0.3-3.3l0,0l0.1-1.4l15.8-66.4l0.1,13.2l8.3,21.5l1.6,2.5l-0.6,2l-1.2,4.3L1234.3,440.9
						L1234.3,440.9L1234.3,440.9z M1397.1,122.1l125.7-13l128.6-13.4l-58.9,44.2l-36.2,31.3l-26,22.5l-0.1-0.2l-0.4,0.4l-100.1-55.6
						l0,0L1397.1,122.1L1397.1,122.1L1397.1,122.1L1397.1,122.1z M1653.9,95.1l0.4,0.4v-0.1l19.9,20.8l-20.5-21.2H1653.9z
						 M1773.9,220.7l20.9,33.9l1.2,2.1l0.2,0.4l0,0l15.5,29.4l-99-68.6l-0.4-0.3l-1.8-0.9l0,0l-26-13.8l0.1-0.2h-0.3l-17.4-75.7
						l-7.1-16.8l-5.5-13L1773.9,220.7z M1854.8,661.2L1854.8,661.2l13.5-55.6l0,0l0.1-0.4l0,0l0.6-3.5l0,0l0.2-1.3l0,0l0.4-2.9l0,0
						l0.3-1.9l0,0l0.3-2.4l0,0l0.3-2.3l0,0l0.3-2l0,0l0.3-2.6l0.2-1.8l0,0l0.3-2.8l0.1-1.6l0,0l0.3-3l0.1-1.4l0,0l0.3-3l0.1-1.3l0,0
						l0.3-3.2l0.1-1.1l0,0l0.2-3.4l0,0l0.1-0.7l0,0l0.2-3.7l0,0l0,0l0,0l0.4-35.5l25.1,5.5h0.1l1.4,0.5l33.6,21.4L1854.8,661.2z
						 M1872.5,523.5l-0.4,35.8l0,0l-0.2,3.7l0,0l-0.1,0.7l0,0l-0.2,3.4l0,0l-0.1,1.1l-0.3,3.2l0,0l-0.1,1.3l-0.3,3l0,0l-0.1,1.4
						l-0.3,3l0,0l-0.1,1.6l-0.3,2.8l0,0l-0.2,1.8l-0.3,2.6l0,0l-0.3,2l0,0l-0.3,2.3l0,0l-0.3,2.4l0,0l-0.3,1.9l0,0l-0.4,2.9l0,0
						l-0.2,1.3l0,0l-0.6,3.5l0,0l-0.1,0.4l-13.7,56.5l-3.3-12.5l-13.7-20.4l-0.4-0.4l0,0l-0.3-0.3l0,0l-24.1-16.8l-18.7-8.4l1.1-1.3
						l8.1-9l26.2-27.6l0,0l25.9-25.1l1.3-1.2l0.5-0.4l0,0L1872.5,523.5z M1621.8,669.5l-83.4-74.7l53.3-84.8l0.1,0.7l0.4-1.3
						l45.6,14.6l3.1,1.6l-18.5,143.6L1621.8,669.5z M1280.9,549.1l60.3,6l0.1,0.5l0,0l0.1,1.1l13.4,71.1l3.7,11.6l-9.3-10.8
						L1280.9,549.1z M1280,548.1l-21.6-50l-23.4-54l0,0v-0.1l0,0l0,0l0,0l24.6,0.9l0,0l34.1-3.2l0.6-0.1l3.2-0.4l0.8-0.1l3.2-0.4
						h0.2l0,0l42.8-6.9l-1.6,12.7l-1.8,107.5L1280,548.1z M1255.9,318.3l38.6,67.8l0.4,0.6l0,0l2.6,3l0,0l0.8,0.8l0,0l2.5,2.8l0,0
						l0.8,0.8l0,0l2.6,2.8l0,0l0.6,0.6l0,0l3,3.1l0,0l0.3,0.3l0,0l19,18l0,0l0.2,0.1l0,0l3.5,3.1l0,0l1.8,1.5l1.2,1l0,0l10,8.3l0,0
						l-11.8,1.9l-30.6,4.9h-0.2l-3.2,0.4l-0.7,0.1l-3.2,0.4l-0.6,0.1l-34,3.2l-24.8-0.9l19.5-119.5l1.2-4.2L1255.9,318.3z
						 M1407.1,340l79.6-94l42.8-50.5l0,0l42.3,213.9l19.5,98.7l-245.5-75.1l49-74.3L1407.1,340z M1710.1,217.6l1.8,0.9l0.4,0.3
						l100,69.3l0.1,0.1l-95.5,84.1l-0.1,0.1l-5.1,4.9l0,0l-38.2,38.4l0,0l-2.8,3l-1.6,1.7l-70.6,79.9l0,0l-1.1,1.4l-4.2,5.1
						l91.2-302.9L1710.1,217.6z M1393.5,592.3L1393.5,592.3l-1-2.1l144.6,5.1l-32.9,107.2l-6.7,22.1l-103.9-132L1393.5,592.3z
						 M1392.1,589.3l-1.4-2.8l0,0l-0.2-0.4l-44.9-151.9l164.3,50.2l81.2,24.8l-53.7,85.3L1392.1,589.3z M1592,507L1530.3,195
						l153,8.6L1592,507z M1592.7,508.6l5.2-6.4l1.1-1.4l70.6-79.8l0,0l1.6-1.7l2.8-3l38.2-38.4l5.1-4.9l0.1-0.1l95.1-83.7
						l-9.6,144.6l-161.8,90.1l-0.1,0.8l-2.8-1.4L1592.7,508.6z M1642,524.5l160.9-89.5l-11.1,167.6l-149.9-77.4L1642,524.5z
						 M1791.8,602.5L1791.8,602.5l11.1-167.6L1791.8,602.5z M1666.1,127.3l17.3,75.4l-152.4-8.6l62-53.5l59.7-44.8L1666.1,127.3z
						 M1343.8,446.7l1.4-11l44.5,150.7l0.2,0.4l0,0l0.8,1.5l-48.6-33.9L1343.8,446.7z M1538,595.7l-39.6,129l0,0L1538,595.7z
						 M1538,595.7l82.9,74.2l-122.4,54.8L1538,595.7z M1623.5,668.8l18.3-142.7l149.1,77l-40.3,8.8L1623.5,668.8z M1855.5,537.8
						L1855.5,537.8l-0.5,0.4l-1.3,1.2l0,0l-25.9,25.1l-26.2,27.6l-8.8,9.8l1-15.3l10.1-152.3l51.6-28.7l17,116.6l0,0L1855.5,537.8z
						 M1803.9,433.3l9.5-143.2l41.9,114.6L1803.9,433.3z M1395.7,122.5l33.5,16.7l83.7,46.5l15.4,8.6l-2.5,0.3l-3.7,0.5l-165.7,33.5
						L1395.7,122.5z M1356.2,229.7l0.1,0.1v-0.3l166.1-33.6l3.6-0.5l2.6-0.4l-122.3,144.3l-60.9,92.5l-2.5-72l6.3-85.4l0.6-4.7
						l0.1-0.6l0,0l2.8-19.3l0,0l0.1-0.9l0.7-4.4l0,0L1356.2,229.7z M1352.7,244.6L1352.7,244.6l-0.7,4.4l-0.1,0.9l0,0l-2.8,19.3l0,0
						l-0.1,0.6l-0.6,4.7l-6.3,85.5l2.5,72.5l0,0l-2.5-72.5l2.5,72.5l-10-8.3l-1.2-1l-1.8-1.5l0,0l-3.5-3.1l0,0l-0.1-0.1l-19-17.9
						l-0.3-0.3l0,0l-3-3.1l0,0l-0.6-0.6l0,0l-2.6-2.8l0,0l-0.8-0.8l0,0l-2.5-2.8l0,0l-0.8-0.8l0,0l-2.6-3l0,0l-0.4-0.4l-38.9-68.4
						l66.5-61.7l32.3-25.3L1352.7,244.6z M1248.6,578.5c0.3-0.1,0.6-0.3,1-0.6c1.8-1.2,4.5-3.6,7.7-6.5c8.6-8,20.3-20,22.4-22.2
						l79.2,92.3l0,0l-7.7,80c-4.3-6.1-27.7-38.8-51-71.5c-13-18.1-26-36.2-35.7-49.8c-4.9-6.7-9-12.4-11.9-16.3
						c-1.4-2-2.6-3.5-3.4-4.5C1248.9,579,1248.7,578.8,1248.6,578.5L1248.6,578.5z M1498.8,725.6l0.1-0.1l-0.1-0.1l87.5-39.1
						l35.3-15.8l0.5,0.4l-29.5,109.1L1498.8,725.6z M1717,798.8l-121.6-17.1l-1.9-1.1l29.4-109l68.8,61.5l5.4,14L1717,798.8z
						 M1623.2,670.7l0.1-0.5l0.1-0.4l127.5-57l40.2-8.8l0,0L1692,732.3L1623.2,670.7z M1792.4,603.8l0.3,0.1v-0.1l18.7,8.3
						l23.9,16.7l0.3,0.3l0,0l0.4,0.4l13.6,20.2l3.7,13.7l-159.6,68.4L1792.4,603.8z M1854.1,664.1L1854.1,664.1v-0.3l0.1-0.2
						l77.6-108.1l-79.1,167.6L1854.1,664.1z M1856.1,404.4L1815,291.7l91.4,115.8L1856.1,404.4z M1796.5,160.7l-33.7-20.4
						l-105.6-45.1l-0.9-0.3l62.3-6.9l0,0l0,0h0.4l80.3,8.3l4.6,26.7L1796.5,160.7z M1654.6,40.5l0.4,0.1l0,0l2.1,0.3l0,0l4.7,0.7
						l0,0l2.8,0.4l0,0l6,1l0,0l2.9,0.5l2.6,0.5l0,0l2.3,0.4h0.1l0,0h0.1l0,0l7.9,1.6l0,0l1.6,0.3l0,0l2.6,0.6l0,0l3.7,0.9l0,0l0,0
						l10.1,2.6l0,0l5.4,1.4l0,0h0.1l0,0h0.1l0,0l4.6,1.4l0,0l9.9,3l0,0h0.1l0,0l0.3,0.1l0,0l25.3,9.9l7,3.3l0,0l0.4,0.2l1.7,0.9
						l38.2,24.4l0,0L1719,87h-0.5l0,0l0,0l0,0l-63.8,7.1l7.8-25V69l0.2-1l0.6-16.3l-0.1-0.4l0,0l-0.1-0.4v-0.1l-5.2-8.1l-0.3-0.3
						l0,0l-0.2-0.1h-0.1l-0.1-0.1l-4.2-2L1654.6,40.5z M1541.1,42L1541.1,42l2.3-0.4l0,0l8.9-1.3l0,0l1.2-0.2l0,0l6.9-0.8l0,0h0.2
						l0.6-0.1h0.3l5.8-0.6l0,0l5.9-0.5l0,0l8.6-0.6l8.7-0.4l0,0l8.5-0.2l0,0h1.2h3.8l0,0l3.5,0.1l2.2,0.1l0,0l8.5,0.3l5.9,0.3l0,0
						h0.3l0,0h0.1l0,0l4.7,0.3l4.7,0.3l7.1,0.6l0,0h0.3l0,0l5.5,0.6l0.3,0.1l5,1.1l5.2,2.5l0.2,0.1l0,0l0.2,0.1l5,7.9l0.1,0.3l0,0
						l0.1,0.3l-0.6,16.1l-0.2,0.9l0,0l-7.8,24.8l-5.8-6.9l0,0l-0.1-0.1l-0.5-0.5l0,0L1607,54.4l-0.4-0.2l0,0l-1.6-0.8l0,0l-0.6-0.3
						l0,0l-1.4-0.7l0,0l-0.6-0.3l0,0l-1.5-0.7l0,0l-0.3-0.1h-0.1h-0.3l-62.1-8.8L1541.1,42z M1484.8,55.3L1484.8,55.3l0.7-0.3l0,0
						l0.8-0.3l0,0l9.8-2.9l0,0l10-2.7l6.8-1.6l0,0l3.1-0.7l0,0l1.7-0.4l0.4-0.1l0.6-0.1l1.3-0.3l14.6-2.3l65.3,8.6l0.3,0.1l0,0
						l1.5,0.7l0,0l0.6,0.3l1.4,0.7l0,0l0.6,0.3l0,0l1.6,0.8l0,0l0.3,0.2l40.5,31.8l0.4,0.5l0.1,0.1l0,0l5.3,6.3l-0.2-0.1l0.2,0.2
						l-0.4-0.1l-0.8-0.8l0.3,0.7L1484.8,55.3L1484.8,55.3z M1484.2,56.1l130.7,30.1l-132.5-29.6L1484.2,56.1z M1437.1,73.9
						L1437.1,73.9l2.4-1.1l0,0l10.9-4.9l0,0l1.7-0.8l6.3-2.6l0,0h0.1l0.2-0.1l0,0l4.3-1.7l3.2-1.2l0,0l0.3-0.1l0.9-0.3l0.3-0.1l0,0
						l13-4l165.8,37l-218-16.1L1437.1,73.9z M1414.8,85.3L1414.8,85.3l4.6-2.5l0,0l7.4-3.8l0.2-0.1l169.9,12.5l50.9,3.8l-159.1,16.5
						l-92.5,9.6l10.4-24.6l3.8-8.9L1414.8,85.3z M1382.9,104.8l6.2-4.2l0,0l0,0l7.2-4.5l0.8-0.5l0,0l6.4-3.8l0.1-0.1l0,0l5.3-3.1
						l-4,9.4l-9.8,23.3l-4.2-2.9l-0.7-0.5l-0.1-0.1l0,0l-9.5-6.8l0,0l-0.1-0.1l0,0l-0.3-0.3l-0.1-0.1l0,0l-0.4-0.3l0,0l-1.8-1.9
						L1382.9,104.8z M1356.5,126.3L1356.5,126.3l0.6-0.7l0.2-0.2l0,0l1.9-2.1l0,0l0.1-0.1l0.8-0.8l0,0l0.2-0.2l0,0l0.7-0.7l0,0
						l0.1-0.1l0,0l6.8-6l0.1-0.1l0,0l0.1-0.1l3.6-2.6l3.7-2.7l0.3-0.2l1.6-1.1l2,2.1l0.1,0.1l0.4,0.3l0,0l0.1,0.1l0.3,0.3l0,0
						l0.1,0.1l0,0l9.5,6.8l0,0l0.1,0.1l0.7,0.5l3.7,2.5l-0.3,0.1l0.1,0.1l-39.3,6.7L1356.5,126.3z M1354,129.4l40.7-7l-24.3,65.9
						l-14.2,38.4L1354,129.4z M1313.9,166.7L1313.9,166.7l0.3-0.3l0.4-0.4l38.5-35.9l2.3,98.4l-27-8.2l-17.1-22.9l-11.3-15.2
						L1313.9,166.7z M1327.7,221.1l20.1,6.1l7,2.1l-32.6,25.5l-65.8,61l10.8-64l0.1-0.5l0,0l1.1-3.8l0,0l0.1-0.5l15.2-31.8
						l15.4-32.3L1327.7,221.1z M1267.8,246.8l-0.2,0.6l0,0l-1.1,3.8l0,0l-0.1,0.5l0,0l-10.8,64.3l-1.1-1.6l-8.2-21.2l-0.1-14.7
						l2.5-12.5l46.3-75.7L1267.8,246.8z M1222.8,336.6L1222.8,336.6l2-8.1l0,0l0.3-1.3l0,0l1.8-6.7l0,0l0,0l0,0l2.4-8l0,0l0.3-0.9
						l2.3-7l0,0v-0.1l2-5.7l0,0l1.8-5l0.1-0.3l0.1-0.2l1.6-4.3l0,0l0.1-0.3l0,0l3.2-7.9l0,0l0.3-0.8l0,0l2.8-6.6l0,0l0.1-0.4l0,0
						l2.6-5.9l0,0l0.1-0.1l0.9-0.6l-19,79.7l-0.1,1.4l0,0l-0.3,3.3l0,0l-0.3,3.5l0,0l-0.1,1.1l0,0l-0.7,20.5l0,0v3.7l0,0v1.4l0,0
						l0.1,4.9l0,0v0.1l0,0l4.5,45.4l0.3,1.4l0,0l0.5,2.8l0,0l0.8,4.3l-7.5-16.3l-0.4-0.9l0,0l-0.3-0.8l-3.3-81.2L1222.8,336.6z
						 M1211.7,428.9V426l0,0l0.1-7.7l0,0V418l0.1-1.2l0,0l0,0l0,0l0.3-5.5l0,0l0.2-4.1v-0.4l0.1-0.6l0.3-5.2l0,0V401l0,0l0.7-8
						l0.1-0.9l0,0l0.8-7l0,0V385l0,0l1-8l0,0l0.2-1.6l0,0l0.8-5.7l0,0l0.1-0.8l0,0v-0.1l1.3-8l0,0l0.2-0.9l0,0l1.3-7.1l0,0l1.3-5.9
						l0,0l0.5-2.3l3.2,77.8v0.1l0.3,0.8l0,0l0.4,0.9l0,0l8.7,19l-6-0.7h-0.1L1211.7,428.9z M1276.1,643.3l-2.6-3.9l-0.6-0.9l-3.8-6
						l0,0l-4.2-7l0,0l-1.3-2.2l-1.6-2.8l0,0l-1.1-2.1l0,0l0,0l-3.8-7l-0.8-1.4l0,0l-2.6-5l0,0l0,0l-0.1-0.1l-0.4-0.9l0,0l-3.6-7.3
						l-0.4-0.9l0,0l-3-6.5l0,0l-2.3-5.2l0,0l-1.4-3.2v-0.1l-0.2-0.4l-2.5-6l0,0v-0.1l0,0l-3-7.6l-0.3-0.8l0,0l-2.5-6.7l0,0v-0.1
						l-2.6-7.7l-0.3-1l0,0l-1.7-5.4l0,0l-0.4-1.4l0,0l-2.3-7.8l-0.3-1l0,0l-1.9-6.9l0,0l-2-7.9l0,0l-0.8-3.2l0,0l-0.6-2.6l0,0
						l-0.5-2.2l0,0l-1.6-8.1l0,0l-0.4-1.9l0,0l-0.6-3l0,0l-0.6-3.2l0,0l-1.3-7.9l0,0l-0.2-1.3l0,0l-0.9-6.6l0,0l-0.9-7.9l-0.1-0.6
						l0,0l-0.8-7.2l0,0l0,0l-0.6-7.9l-0.1-0.6l-0.4-7.4l0,0l-0.3-5.6l0,0l-0.1-4.1v-0.3v-0.8l-0.1-5.1l0,0v-0.1v-2.6l15.4,13h0.2
						l0,0h0.2l0,0l6.4,0.7v0.1h0.1l-1.1,35.7l0,0v0.1l0,0v2.4l14.2,95.8v0.1l0,0l0,0l0,0l0,0l0,0l0,0l0,0l0.1,0.3l0.8,2.6l25,56.9
						L1276.1,643.3z M1354.3,730.5L1354.3,730.5l-6.2-5.2l0,0l-0.9-0.8l0,0l-2.7-2.3l-2.5-2.1l0,0l-7.8-7.2l-4.1-3.9l0,0l0,0l0,0
						l0,0l0,0l-0.1-0.1l0,0l-5.5-5.5l-0.6-0.7l-5.2-5.4l0,0l0,0l0,0l0,0l0,0l-0.2-0.2l-5.3-5.7l0,0l-0.4-0.4l-4.3-4.9l0,0l-1.8-2.1
						l0,0l-4-4.8l-0.9-1.1l-3-3.7l0,0l0,0l-0.4-0.4l-0.1-0.1l-1.2-1.4l0,0l-6.4-8.9l-9.2-13l-0.1-0.1l0,0l-7.7-12.5l0,0l-25-56.8
						l-0.2-0.6c1.1,1.4,2.7,3.7,4.9,6.5c11.3,15.4,35.7,49.5,57.3,79.7c10.8,15.1,20.9,29.3,28.3,39.7c6.7,9.5,11.3,15.8,12,16.8
						l0,0l0,0l0,0l0.1,0.1l0,0l0,0l0.1,0.1l8.9,12L1354.3,730.5z M1394.1,759.2l-4.7-3l0,0l-3.5-2.3l-0.4-0.3l-0.1-0.1l-4.9-3.3
						l-0.1-0.1l0,0l-6.7-4.7l-0.4-0.3l0,0l-6.2-4.6l-1.3-1l-0.1-0.1l-0.4-0.3l-3.4-3.4l-9.9-13.2l7.7-80.2l0.8,0.9l-0.2-0.6l0.1,0.1
						l0,0l68,48.6l0.4,0.3l4.1,2.4l0,0l1.2,0.7l0,0l3.2,1.8l0,0l1.9,1.1l2,1.1l0,0l3,1.7l0.9,0.5l51.4,24.5l-99.9,35.2L1394.1,759.2
						z M1450.3,788.6L1450.3,788.6l-7.1-3.1l0,0l-0.4-0.2l0,0l-6.9-3.2l0,0l0,0h-0.1l-0.1-0.1l0,0l-7.1-3.5l-0.5-0.3l0,0l-6.5-3.3
						l0,0l0,0l0,0h-0.1l0,0l0,0l-5.3-2.8l-2.2-1.2l0,0l-6.4-3.6l0,0h-0.1l-5.5-3.3l0,0l-4.7-2.8l36.7-12.9l62.8-22.1v0.1l0.6-0.3
						l0.3,0.4l0.1-0.3l94.4,54.9l-11.8,28.4l-117.6-15.8l-2.6-1l0,0L1450.3,788.6z M1713.3,800.6l-2.5,0.9l0,0l-1.7,0.6l0,0
						l-2.5,0.9l0,0l-1.7,0.6l0,0l-2.5,0.8l-1.6,0.5l0,0l-2.8,0.9l-1.3,0.4l0,0l-4.2,1.3l0,0l-5.1,1.4l-1.2,0.3l-5,1.3l0,0l-0.6,0.1
						l-4.7,1.1l0,0l-1.1,0.3l0,0l-5,1.1l0,0h-0.1l-1.1,0.3l0,0l-3,0.6l0,0l-1.5,0.3l0,0l-2.8,0.5l0,0l-1.4,0.3l0,0l-3.2,0.5
						l-1.1,0.2l0,0l-4.2,0.6l-0.9,0.1l-3.3,0.4l0,0l-1.4,0.2l0,0l-2.8,0.3l0,0l-0.4,0.1l-1.1,0.1l0,0l-3,0.3l0,0l-1.3,0.1l0,0
						l-4.2,0.4l-8.7,0.5l0,0l-4.9,0.3l0,0h-0.4l0,0l-7.9,0.3l0,0h-0.3l0,0l-2.9,0.1l0,0l-6.4,0.1l0,0l-8.5-0.1l0,0l-8.4-0.3l0,0
						l-1-0.1l-7.4-0.4l0,0l0,0l-5.4-0.4l0,0l-5.9-0.6l0,0l-5-0.5l0,0h-0.2l-8.2-1l0,0l-0.4-0.1l0,0l-7.6-1.1l0,0l0,0h-0.1h-0.1l0,0
						l-8.1-1.3l0,0l-1-0.2l-7-1.3l0,0h-0.1l0,0l-7.9-1.6l0,0l-0.5-0.1l0,0l-5.1-1.1l0,0l-2.3-0.6l0,0l-7.9-2l0,0l-1.1-0.3l0,0
						l-3.5-0.9l0,0l-3.1-0.9l0,0l-7.7-2.3l0,0l-0.9-0.3l0,0l-6.7-2.1l0,0l0,0l-7.6-2.6l0,0l-1-0.4l0,0l-4.9-1.8l114.1,15.3h0.1h0.4
						l0,0l2-0.1l0,0l131.3-10.1L1713.3,800.6L1713.3,800.6z M1851.4,730.6c-0.5,0.3-1,0.7-1.5,1l0,0
						c-30.2,20.3-79.3,44.2-122.8,63.5l-4.1,1.7l-1.1,0.4l-3,1.2l-1.1,0.4l-18.2-47.1l-7.1-18.5l160.4-68.7l-0.3,1.1l0.4-0.6
						l-1.6,60.2l-1.4,3l-155,4.3v0.9l155.5-4.3l0.8-1.6L1851.4,730.6z M1902.5,680.2L1902.5,680.2l-2.4,2.8l-1.4,1.6l-4,4.6l0,0
						l-2.5,2.8l0,0l-0.3,0.3l0,0l-2.8,3.1l-0.1,0.1l0,0l-8.7,9l-7.8,7.6l0,0l-0.1,0.1l-8.3,7.6l0,0l-0.1,0.1l-2.8,2.5l0,0l-3.3,2.8
						l-0.1-0.1l-1,0.9l0,0l-3.2,2.8l0,0l-1.3,1.1l0.1-4.4l81.5-172.6l6.2,69.1l-37.1,57.4L1902.5,680.2z M1980.4,531.2L1980.4,531.2
						l-1.3,4.8l-2.4,8l0,0l-0.3,1.1l0,0l-1.8,5.5l0,0l-0.4,1.4l0,0l0,0l-2.8,7.9l0,0l-0.4,1.1l0,0l-1.8,5l0,0l-0.6,1.7l0,0v0.1l0,0
						l-2.3,5.9l-1.1,2.9l0,0l-2.9,6.9l-3.5,7.9l0,0l-0.7,1.5l0,0l-2.4,5l0,0l-0.6,1.2l0,0l-3.9,7.9l0,0l-0.4,0.8l0,0l-3,5.7l0,0
						l-0.6,1.2l0,0l-1.7,3.1l-3.1,5.5l0,0l-3,5l-1.2,2l-4.9,7.9l0,0l-0.4,0.6l0,0l-4.7,7.1l0,0l-3.3,4.8l0,0l-4.7,6.7l0,0l-0.1,0.1
						l0,0l-2.3,3.1l-0.4,0.5l-0.4,0.6l0,0l-5.8,7.6l0,0l-2.6,3.3L1941,622l-6.3-70.1l0.1,0.1l-0.1-0.7l34.7-21l1.2-0.6l0,0l0.3-0.1
						l0.9-0.4l0,0l0.4-0.2l0,0l0.8-0.4l0,0l0.4-0.2l0,0l0.8-0.4l0,0l0.3-0.1l0,0l0.8-0.3l0,0l0.3-0.1l1.7-0.6l0.2-0.1l0,0l0.7-0.3
						l0,0h0.1l0,0l0.6-0.2l0.4-0.1l0.1-0.1l2.2-0.2l0.1,0.1l0.1,0.3l-0.1,0.6l0,0l-0.1,0.3L1980.4,531.2z M1989.6,371.5l0.6,2.9l0,0
						l1.6,9.6l0,0l0,0l0.4,4.1l0,0l0.4,4.1l0,0l0.6,7.9l0.1,1l0,0l0.4,6.9l0,0l0.3,7.9v0.6l0,0l0.1,7.3l0,0l0,0l0,0v8v0.7l0,0
						l-0.1,7.3l0,0l-0.3,6.4l0,0l-0.2,3.7l0,0l-0.4,5.7l0,0v0.1l0,0l0,0l0,0l-0.4,5.6l-0.3,3.3l0,0l-0.8,7l0,0v0.1l0,0l-1,8.1l0,0
						l-1.1,7.3l0,0l-0.1,0.4l-0.4,2.4l-1,5.9l0,0l-0.3,1.6l0,0l-1.1,6l0,0l-0.1,0.4l-1.7,8.1l0,0l-0.2,0.9l-1.6,7.1l0,0l-1.2,4.9
						l0,0l-0.1,0.3l-2.8,0.3l-0.2,0.1l0,0l-0.4,0.1l-0.7,0.2l0,0l-0.1,0.1l0,0l-0.7,0.3l0,0l-0.2,0.1l0,0l-1.8,0.6l-0.3,0.1l0,0
						l-0.8,0.3l0,0l-0.3,0.1l0,0l-0.8,0.4l0,0l-0.4,0.2l0,0l-0.8,0.4l0,0l-0.4,0.2l0,0l-0.9,0.4l-0.3,0.1l0,0l-1.2,0.6l0,0l0,0l0,0
						l-33.7,20.4l28.2-60.8l19.3-59.7l0.2-0.7l0.3-1.4l5.9-55.8l-0.1-1.6L1989.6,371.5z M1988.4,371.4l-5.9,55.7l-0.3,1.3l-0.1,0.6
						l-19.3,59.7l-28.2,60.8l-24.5-139l-1.5-1.9l72.2,15.9l0.2-0.9l-73.1-16.2h-0.2L1813.9,289l-0.1-0.1l115.8,14.4l56.7,55l1.7,6.1
						L1988.4,371.4z M1984.4,351.3l1.4,5.2l-55.7-54l-116.6-14.6l0.1-0.8l-0.4,0.3l-0.3-0.4l-0.3-11.9l0,0l-0.1-1.8l0,0v-0.1
						l-15.3-111.1l11.8,4.8l116.5,77.8L1984.4,351.3z M1966.9,290l0.1,0.3l0.6,1.5l15.8,55.6l-56.9-103.3l-116.8-78l-12.4-5
						l7.6-38.2l-4.5-26.1l64,46.8l0.4,0.4l0.8,0.8l56.1,62.4L1966.9,290z"/>
					<path id="XMLID_175_" class="st2" d="M1695.2,733.5L1695.2,733.5L1695.2,733.5z"/>
				</g>
				<g id="XMLID_79_">
					<g id="XMLID_172_">
						
							<radialGradient id="XMLID_00000073713790343954562190000005991493326276395965_" cx="-10062.5996" cy="917.8857" r="13.0116" gradientTransform="matrix(-0.8295 0.5584 0.5584 0.8295 -7067.2451 5460.813)" gradientUnits="userSpaceOnUse">
							<stop  offset="0" style="stop-color:#C4F3FF"/>
							<stop  offset="7.412966e-02" style="stop-color:#BCF1FF"/>
							<stop  offset="0.1913" style="stop-color:#A5EBFF"/>
							<stop  offset="0.3367" style="stop-color:#80E2FF"/>
							<stop  offset="0.5034" style="stop-color:#4DD6FF"/>
							<stop  offset="0.5509" style="stop-color:#3DD2FF"/>
							<stop  offset="0.5764" style="stop-color:#39C3ED"/>
							<stop  offset="0.6972" style="stop-color:#257F9A"/>
							<stop  offset="0.8042" style="stop-color:#154858"/>
							<stop  offset="0.8934" style="stop-color:#0A2128"/>
							<stop  offset="0.9613" style="stop-color:#03090B"/>
							<stop  offset="1" style="stop-color:#000000"/>
						</radialGradient>
						<path id="XMLID_173_" style="fill:url(#XMLID_00000073713790343954562190000005991493326276395965_);" d="M1781.4,610.5
							c-4-6-2.5-14.1,3.5-18.1s14.1-2.5,18.1,3.5c4,6,2.5,14.1-3.5,18.1C1793.6,618.1,1785.4,616.5,1781.4,610.5z"/>
					</g>
					<g id="XMLID_170_">
						
							<radialGradient id="XMLID_00000169527968650016215800000002212899994557133757_" cx="-9786.4443" cy="527.2316" r="13.033" gradientTransform="matrix(-0.8295 0.5584 0.5584 0.8295 -7067.2451 5460.813)" gradientUnits="userSpaceOnUse">
							<stop  offset="0" style="stop-color:#C4F3FF"/>
							<stop  offset="7.412966e-02" style="stop-color:#BCF1FF"/>
							<stop  offset="0.1913" style="stop-color:#A5EBFF"/>
							<stop  offset="0.3367" style="stop-color:#80E2FF"/>
							<stop  offset="0.5034" style="stop-color:#4DD6FF"/>
							<stop  offset="0.5509" style="stop-color:#3DD2FF"/>
							<stop  offset="0.5764" style="stop-color:#39C3ED"/>
							<stop  offset="0.6972" style="stop-color:#257F9A"/>
							<stop  offset="0.8042" style="stop-color:#154858"/>
							<stop  offset="0.8934" style="stop-color:#0A2128"/>
							<stop  offset="0.9613" style="stop-color:#03090B"/>
							<stop  offset="1" style="stop-color:#000000"/>
						</radialGradient>
						<path id="XMLID_171_" style="fill:url(#XMLID_00000169527968650016215800000002212899994557133757_);" d="M1334.2,440.7
							c-4-6-2.5-14.1,3.5-18.1c6-4,14.1-2.5,18.1,3.5c4,6,2.5,14.1-3.5,18.1C1346.3,448.2,1338.3,446.6,1334.2,440.7z"/>
					</g>
					<g id="XMLID_168_">
						
							<radialGradient id="XMLID_00000123411911799144243680000005150429349231354252_" cx="-10228.8115" cy="418.5207" r="13.0155" gradientTransform="matrix(-0.8295 0.5584 0.5584 0.8295 -7067.2451 5460.813)" gradientUnits="userSpaceOnUse">
							<stop  offset="0" style="stop-color:#C4F3FF"/>
							<stop  offset="7.412966e-02" style="stop-color:#BCF1FF"/>
							<stop  offset="0.1913" style="stop-color:#A5EBFF"/>
							<stop  offset="0.3367" style="stop-color:#80E2FF"/>
							<stop  offset="0.5034" style="stop-color:#4DD6FF"/>
							<stop  offset="0.5509" style="stop-color:#3DD2FF"/>
							<stop  offset="0.5764" style="stop-color:#39C3ED"/>
							<stop  offset="0.6972" style="stop-color:#257F9A"/>
							<stop  offset="0.8042" style="stop-color:#154858"/>
							<stop  offset="0.8934" style="stop-color:#0A2128"/>
							<stop  offset="0.9613" style="stop-color:#03090B"/>
							<stop  offset="1" style="stop-color:#000000"/>
						</radialGradient>
						<path id="XMLID_169_" style="fill:url(#XMLID_00000123411911799144243680000005150429349231354252_);" d="M1640.4,103.5
							c-4-6-2.5-14.1,3.5-18.1c6-4,14.1-2.5,18.1,3.5c4,6,2.5,14.1-3.5,18.1C1652.5,111,1644.5,109.4,1640.4,103.5z"/>
					</g>
					<g id="XMLID_166_">
						
							<radialGradient id="XMLID_00000004526122130623384570000010243855218862616211_" cx="-10255.8477" cy="668.2447" r="13.0305" gradientTransform="matrix(-0.8295 0.5584 0.5584 0.8295 -7067.2451 5460.813)" gradientUnits="userSpaceOnUse">
							<stop  offset="0" style="stop-color:#C4F3FF"/>
							<stop  offset="7.412966e-02" style="stop-color:#BCF1FF"/>
							<stop  offset="0.1913" style="stop-color:#A5EBFF"/>
							<stop  offset="0.3367" style="stop-color:#80E2FF"/>
							<stop  offset="0.5034" style="stop-color:#4DD6FF"/>
							<stop  offset="0.5509" style="stop-color:#3DD2FF"/>
							<stop  offset="0.5764" style="stop-color:#39C3ED"/>
							<stop  offset="0.6972" style="stop-color:#257F9A"/>
							<stop  offset="0.8042" style="stop-color:#154858"/>
							<stop  offset="0.8934" style="stop-color:#0A2128"/>
							<stop  offset="0.9613" style="stop-color:#03090B"/>
							<stop  offset="1" style="stop-color:#000000"/>
						</radialGradient>
						<path id="XMLID_167_" style="fill:url(#XMLID_00000004526122130623384570000010243855218862616211_);" d="M1802.3,295.5
							c-4-6-2.5-14.1,3.5-18.1c6-4,14.1-2.5,18.1,3.5c4,6,2.5,14.1-3.5,18.1C1814.4,303.1,1806.4,301.5,1802.3,295.5z"/>
					</g>
					<g id="XMLID_164_">
						
							<radialGradient id="XMLID_00000078009228967733041000000009460514199732428942_" cx="-9881.9336" cy="879.946" r="13.0305" gradientTransform="matrix(-0.8295 0.5584 0.5584 0.8295 -7067.2451 5460.813)" gradientUnits="userSpaceOnUse">
							<stop  offset="0" style="stop-color:#C4F3FF"/>
							<stop  offset="7.412966e-02" style="stop-color:#BCF1FF"/>
							<stop  offset="0.1913" style="stop-color:#A5EBFF"/>
							<stop  offset="0.3367" style="stop-color:#80E2FF"/>
							<stop  offset="0.5034" style="stop-color:#4DD6FF"/>
							<stop  offset="0.5509" style="stop-color:#3DD2FF"/>
							<stop  offset="0.5764" style="stop-color:#39C3ED"/>
							<stop  offset="0.6972" style="stop-color:#257F9A"/>
							<stop  offset="0.8042" style="stop-color:#154858"/>
							<stop  offset="0.8934" style="stop-color:#0A2128"/>
							<stop  offset="0.9613" style="stop-color:#03090B"/>
							<stop  offset="1" style="stop-color:#000000"/>
						</radialGradient>
						<path id="XMLID_165_" style="fill:url(#XMLID_00000078009228967733041000000009460514199732428942_);" d="M1610.4,679.9
							c-4-6-2.5-14.1,3.5-18.1c6-4,14.1-2.5,18.1,3.5c4,6,2.5,14.1-3.5,18.1C1622.5,687.5,1614.4,685.9,1610.4,679.9z"/>
					</g>
					<g id="XMLID_162_">
						
							<radialGradient id="XMLID_00000116951586368764973860000004251025764545791157_" cx="-10072.9375" cy="433.5913" r="13.0305" gradientTransform="matrix(-0.8295 0.5584 0.5584 0.8295 -7067.2451 5460.813)" gradientUnits="userSpaceOnUse">
							<stop  offset="0" style="stop-color:#C4F3FF"/>
							<stop  offset="7.412966e-02" style="stop-color:#BCF1FF"/>
							<stop  offset="0.1913" style="stop-color:#A5EBFF"/>
							<stop  offset="0.3367" style="stop-color:#80E2FF"/>
							<stop  offset="0.5034" style="stop-color:#4DD6FF"/>
							<stop  offset="0.5509" style="stop-color:#3DD2FF"/>
							<stop  offset="0.5764" style="stop-color:#39C3ED"/>
							<stop  offset="0.6972" style="stop-color:#257F9A"/>
							<stop  offset="0.8042" style="stop-color:#154858"/>
							<stop  offset="0.8934" style="stop-color:#0A2128"/>
							<stop  offset="0.9613" style="stop-color:#03090B"/>
							<stop  offset="1" style="stop-color:#000000"/>
						</radialGradient>
						<path id="XMLID_163_" style="fill:url(#XMLID_00000116951586368764973860000004251025764545791157_);" d="M1519.6,203
							c-4-6-2.5-14.1,3.5-18.1c6-4,14.1-2.5,18.1,3.5c4,6,2.5,14.1-3.5,18.1C1531.7,210.6,1523.6,209,1519.6,203z"/>
					</g>
					<g id="XMLID_160_">
						
							<radialGradient id="XMLID_00000156572557467640040530000009654732053460454307_" cx="-9963.4531" cy="279.4955" r="13.018" gradientTransform="matrix(-0.8295 0.5584 0.5584 0.8295 -7067.2451 5460.813)" gradientUnits="userSpaceOnUse">
							<stop  offset="0" style="stop-color:#C4F3FF"/>
							<stop  offset="7.412966e-02" style="stop-color:#BCF1FF"/>
							<stop  offset="0.1913" style="stop-color:#A5EBFF"/>
							<stop  offset="0.3367" style="stop-color:#80E2FF"/>
							<stop  offset="0.5034" style="stop-color:#4DD6FF"/>
							<stop  offset="0.5509" style="stop-color:#3DD2FF"/>
							<stop  offset="0.5764" style="stop-color:#39C3ED"/>
							<stop  offset="0.6972" style="stop-color:#257F9A"/>
							<stop  offset="0.8042" style="stop-color:#154858"/>
							<stop  offset="0.8934" style="stop-color:#0A2128"/>
							<stop  offset="0.9613" style="stop-color:#03090B"/>
							<stop  offset="1" style="stop-color:#000000"/>
						</radialGradient>
						<path id="XMLID_161_" style="fill:url(#XMLID_00000156572557467640040530000009654732053460454307_);" d="M1342.7,136.4
							c-4-6-2.5-14.1,3.5-18.1s14.1-2.5,18.1,3.5c4,6,2.5,14.1-3.5,18.1C1354.8,143.9,1346.7,142.3,1342.7,136.4z"/>
					</g>
					<g id="XMLID_158_">
						
							<radialGradient id="XMLID_00000089572152463864450170000012867594766345043852_" cx="-9682.0439" cy="709.1972" r="13.0213" gradientTransform="matrix(-0.8295 0.5584 0.5584 0.8295 -7067.2451 5460.813)" gradientUnits="userSpaceOnUse">
							<stop  offset="0" style="stop-color:#C4F3FF"/>
							<stop  offset="7.412966e-02" style="stop-color:#BCF1FF"/>
							<stop  offset="0.1913" style="stop-color:#A5EBFF"/>
							<stop  offset="0.3367" style="stop-color:#80E2FF"/>
							<stop  offset="0.5034" style="stop-color:#4DD6FF"/>
							<stop  offset="0.5509" style="stop-color:#3DD2FF"/>
							<stop  offset="0.5764" style="stop-color:#39C3ED"/>
							<stop  offset="0.6972" style="stop-color:#257F9A"/>
							<stop  offset="0.8042" style="stop-color:#154858"/>
							<stop  offset="0.8934" style="stop-color:#0A2128"/>
							<stop  offset="0.9613" style="stop-color:#03090B"/>
							<stop  offset="1" style="stop-color:#000000"/>
						</radialGradient>
						<path id="XMLID_159_" style="fill:url(#XMLID_00000089572152463864450170000012867594766345043852_);" d="M1349.2,649.9
							c-4-6-2.5-14.1,3.5-18.1c6-4,14.1-2.5,18.1,3.5c4,6,2.5,14.1-3.5,18.1C1361.3,657.4,1353.3,655.9,1349.2,649.9z"/>
					</g>
					<g id="XMLID_156_">
						
							<radialGradient id="XMLID_00000183241392397261199260000013550657561769392520_" cx="-9949.0898" cy="727.7101" r="17.977" gradientTransform="matrix(-0.8295 0.5584 0.5584 0.8295 -7067.2451 5460.813)" gradientUnits="userSpaceOnUse">
							<stop  offset="0" style="stop-color:#C4F3FF"/>
							<stop  offset="7.412966e-02" style="stop-color:#BCF1FF"/>
							<stop  offset="0.1913" style="stop-color:#A5EBFF"/>
							<stop  offset="0.3367" style="stop-color:#80E2FF"/>
							<stop  offset="0.5034" style="stop-color:#4DD6FF"/>
							<stop  offset="0.5509" style="stop-color:#3DD2FF"/>
							<stop  offset="0.5764" style="stop-color:#39C3ED"/>
							<stop  offset="0.6972" style="stop-color:#257F9A"/>
							<stop  offset="0.8042" style="stop-color:#154858"/>
							<stop  offset="0.8934" style="stop-color:#0A2128"/>
							<stop  offset="0.9613" style="stop-color:#03090B"/>
							<stop  offset="1" style="stop-color:#000000"/>
						</radialGradient>
						<path id="XMLID_157_" style="fill:url(#XMLID_00000183241392397261199260000013550657561769392520_);" d="M1577,518.9
							c-5.5-8.3-3.3-19.4,4.9-25c8.3-5.5,19.4-3.3,25,4.9c5.5,8.3,3.3,19.4-4.9,25C1593.7,529.3,1582.5,527.1,1577,518.9z"/>
					</g>
					<g id="XMLID_154_">
						
							<radialGradient id="XMLID_00000065050100230577727600000015801112496299105972_" cx="-10079.0059" cy="1002.3702" r="7.4491" gradientTransform="matrix(-0.8295 0.5584 0.5584 0.8295 -7067.2451 5460.813)" gradientUnits="userSpaceOnUse">
							<stop  offset="0" style="stop-color:#C4F3FF"/>
							<stop  offset="7.412966e-02" style="stop-color:#BCF1FF"/>
							<stop  offset="0.1913" style="stop-color:#A5EBFF"/>
							<stop  offset="0.3367" style="stop-color:#80E2FF"/>
							<stop  offset="0.5034" style="stop-color:#4DD6FF"/>
							<stop  offset="0.5509" style="stop-color:#3DD2FF"/>
							<stop  offset="0.5764" style="stop-color:#39C3ED"/>
							<stop  offset="0.6972" style="stop-color:#257F9A"/>
							<stop  offset="0.8042" style="stop-color:#154858"/>
							<stop  offset="0.8934" style="stop-color:#0A2128"/>
							<stop  offset="0.9613" style="stop-color:#03090B"/>
							<stop  offset="1" style="stop-color:#000000"/>
						</radialGradient>
						<path id="XMLID_155_" style="fill:url(#XMLID_00000065050100230577727600000015801112496299105972_);" d="M1846.8,668.3
							c-2.3-3.4-1.4-8.1,2-10.3c3.4-2.3,8.1-1.4,10.3,2s1.4,8.1-2,10.3C1853.7,672.6,1849.1,671.7,1846.8,668.3z"/>
					</g>
					<g id="XMLID_152_">
						
							<radialGradient id="XMLID_00000146496277001632189160000018398765706637334417_" cx="-10040.8145" cy="1057.0471" r="7.4542" gradientTransform="matrix(-0.8295 0.5584 0.5584 0.8295 -7067.2451 5460.813)" gradientUnits="userSpaceOnUse">
							<stop  offset="0" style="stop-color:#C4F3FF"/>
							<stop  offset="7.412966e-02" style="stop-color:#BCF1FF"/>
							<stop  offset="0.1913" style="stop-color:#A5EBFF"/>
							<stop  offset="0.3367" style="stop-color:#80E2FF"/>
							<stop  offset="0.5034" style="stop-color:#4DD6FF"/>
							<stop  offset="0.5509" style="stop-color:#3DD2FF"/>
							<stop  offset="0.5764" style="stop-color:#39C3ED"/>
							<stop  offset="0.6972" style="stop-color:#257F9A"/>
							<stop  offset="0.8042" style="stop-color:#154858"/>
							<stop  offset="0.8934" style="stop-color:#0A2128"/>
							<stop  offset="0.9613" style="stop-color:#03090B"/>
							<stop  offset="1" style="stop-color:#000000"/>
						</radialGradient>
						<path id="XMLID_153_" style="fill:url(#XMLID_00000146496277001632189160000018398765706637334417_);" d="M1845.7,735
							c-2.3-3.4-1.4-8.1,2-10.3s8.1-1.4,10.3,2c2.3,3.4,1.4,8.1-2,10.3S1848,738.4,1845.7,735z"/>
					</g>
					<g id="XMLID_150_">
						
							<radialGradient id="XMLID_00000007408775154438931660000001988654634179597203_" cx="-9891.208" cy="1039.0011" r="7.4631" gradientTransform="matrix(-0.8295 0.5584 0.5584 0.8295 -7067.2451 5460.813)" gradientUnits="userSpaceOnUse">
							<stop  offset="0" style="stop-color:#C4F3FF"/>
							<stop  offset="7.412966e-02" style="stop-color:#BCF1FF"/>
							<stop  offset="0.1913" style="stop-color:#A5EBFF"/>
							<stop  offset="0.3367" style="stop-color:#80E2FF"/>
							<stop  offset="0.5034" style="stop-color:#4DD6FF"/>
							<stop  offset="0.5509" style="stop-color:#3DD2FF"/>
							<stop  offset="0.5764" style="stop-color:#39C3ED"/>
							<stop  offset="0.6972" style="stop-color:#257F9A"/>
							<stop  offset="0.8042" style="stop-color:#154858"/>
							<stop  offset="0.8934" style="stop-color:#0A2128"/>
							<stop  offset="0.9613" style="stop-color:#03090B"/>
							<stop  offset="1" style="stop-color:#000000"/>
						</radialGradient>
						<path id="XMLID_151_" style="fill:url(#XMLID_00000007408775154438931660000001988654634179597203_);" d="M1711.5,803.6
							c-2.3-3.4-1.4-8.1,2-10.3c3.4-2.3,8.1-1.4,10.3,2c2.3,3.4,1.4,8.1-2,10.3C1718.4,807.9,1713.8,807,1711.5,803.6z"/>
					</g>
					<g id="XMLID_148_">
						
							<radialGradient id="XMLID_00000119097761450345831300000008838535098722029755_" cx="-9689.9551" cy="471.4649" r="7.4567" gradientTransform="matrix(-0.8295 0.5584 0.5584 0.8295 -7067.2451 5460.813)" gradientUnits="userSpaceOnUse">
							<stop  offset="0" style="stop-color:#C4F3FF"/>
							<stop  offset="7.412966e-02" style="stop-color:#BCF1FF"/>
							<stop  offset="0.1913" style="stop-color:#A5EBFF"/>
							<stop  offset="0.3367" style="stop-color:#80E2FF"/>
							<stop  offset="0.5034" style="stop-color:#4DD6FF"/>
							<stop  offset="0.5509" style="stop-color:#3DD2FF"/>
							<stop  offset="0.5764" style="stop-color:#39C3ED"/>
							<stop  offset="0.6972" style="stop-color:#257F9A"/>
							<stop  offset="0.8042" style="stop-color:#154858"/>
							<stop  offset="0.8934" style="stop-color:#0A2128"/>
							<stop  offset="0.9613" style="stop-color:#03090B"/>
							<stop  offset="1" style="stop-color:#000000"/>
						</radialGradient>
						<path id="XMLID_149_" style="fill:url(#XMLID_00000119097761450345831300000008838535098722029755_);" d="M1227.7,445.2
							c-2.3-3.4-1.4-8.1,2-10.3s8.1-1.4,10.3,2s1.4,8.1-2,10.3C1234.6,449.5,1229.9,448.6,1227.7,445.2z"/>
					</g>
					<g id="XMLID_146_">
						
							<radialGradient id="XMLID_00000169549693407839518960000010124834526953116819_" cx="-9749.9424" cy="852.7413" r="7.4461" gradientTransform="matrix(-0.8295 0.5584 0.5584 0.8295 -7067.2451 5460.813)" gradientUnits="userSpaceOnUse">
							<stop  offset="0" style="stop-color:#C4F3FF"/>
							<stop  offset="7.412966e-02" style="stop-color:#BCF1FF"/>
							<stop  offset="0.1913" style="stop-color:#A5EBFF"/>
							<stop  offset="0.3367" style="stop-color:#80E2FF"/>
							<stop  offset="0.5034" style="stop-color:#4DD6FF"/>
							<stop  offset="0.5509" style="stop-color:#3DD2FF"/>
							<stop  offset="0.5764" style="stop-color:#39C3ED"/>
							<stop  offset="0.6972" style="stop-color:#257F9A"/>
							<stop  offset="0.8042" style="stop-color:#154858"/>
							<stop  offset="0.8934" style="stop-color:#0A2128"/>
							<stop  offset="0.9613" style="stop-color:#03090B"/>
							<stop  offset="1" style="stop-color:#000000"/>
						</radialGradient>
						<path id="XMLID_147_" style="fill:url(#XMLID_00000169549693407839518960000010124834526953116819_);" d="M1490.3,728
							c-2.3-3.4-1.4-8.1,2-10.3s8.1-1.4,10.3,2c2.3,3.4,1.4,8.1-2,10.3S1492.6,731.4,1490.3,728z"/>
					</g>
					<g id="XMLID_144_">
						
							<radialGradient id="XMLID_00000145039973960861881300000001418554157659743144_" cx="-10209.5908" cy="952.9326" r="7.4566" gradientTransform="matrix(-0.8295 0.5584 0.5584 0.8295 -7067.2451 5460.813)" gradientUnits="userSpaceOnUse">
							<stop  offset="0" style="stop-color:#C4F3FF"/>
							<stop  offset="7.412966e-02" style="stop-color:#BCF1FF"/>
							<stop  offset="0.1913" style="stop-color:#A5EBFF"/>
							<stop  offset="0.3367" style="stop-color:#80E2FF"/>
							<stop  offset="0.5034" style="stop-color:#4DD6FF"/>
							<stop  offset="0.5509" style="stop-color:#3DD2FF"/>
							<stop  offset="0.5764" style="stop-color:#39C3ED"/>
							<stop  offset="0.6972" style="stop-color:#257F9A"/>
							<stop  offset="0.8042" style="stop-color:#154858"/>
							<stop  offset="0.8934" style="stop-color:#0A2128"/>
							<stop  offset="0.9613" style="stop-color:#03090B"/>
							<stop  offset="1" style="stop-color:#000000"/>
						</radialGradient>
						<path id="XMLID_145_" style="fill:url(#XMLID_00000145039973960861881300000001418554157659743144_);" d="M1927.5,554.4
							c-2.3-3.4-1.4-8.1,2-10.3c3.4-2.3,8.1-1.4,10.3,2c2.3,3.4,1.4,8.1-2,10.3S1929.9,557.8,1927.5,554.4z"/>
					</g>
					<g id="XMLID_142_">
						
							<radialGradient id="XMLID_00000054952949985448947470000013728502625838815650_" cx="-10224.5283" cy="788.6988" r="7.454" gradientTransform="matrix(-0.8295 0.5584 0.5584 0.8295 -7067.2451 5460.813)" gradientUnits="userSpaceOnUse">
							<stop  offset="0" style="stop-color:#C4F3FF"/>
							<stop  offset="7.412966e-02" style="stop-color:#BCF1FF"/>
							<stop  offset="0.1913" style="stop-color:#A5EBFF"/>
							<stop  offset="0.3367" style="stop-color:#80E2FF"/>
							<stop  offset="0.5034" style="stop-color:#4DD6FF"/>
							<stop  offset="0.5509" style="stop-color:#3DD2FF"/>
							<stop  offset="0.5764" style="stop-color:#39C3ED"/>
							<stop  offset="0.6972" style="stop-color:#257F9A"/>
							<stop  offset="0.8042" style="stop-color:#154858"/>
							<stop  offset="0.8934" style="stop-color:#0A2128"/>
							<stop  offset="0.9613" style="stop-color:#03090B"/>
							<stop  offset="1" style="stop-color:#000000"/>
						</radialGradient>
						<path id="XMLID_143_" style="fill:url(#XMLID_00000054952949985448947470000013728502625838815650_);" d="M1848.2,409.8
							c-2.3-3.4-1.4-8.1,2-10.3c3.4-2.3,8.1-1.4,10.3,2s1.4,8.1-2,10.3C1855.1,414.1,1850.5,413.2,1848.2,409.8z"/>
					</g>
					<g id="XMLID_140_">
						
							<radialGradient id="XMLID_00000044900001847478697890000007002660466992960408_" cx="-10263.79" cy="820.4399" r="7.4556" gradientTransform="matrix(-0.8295 0.5584 0.5584 0.8295 -7067.2451 5460.813)" gradientUnits="userSpaceOnUse">
							<stop  offset="0" style="stop-color:#C4F3FF"/>
							<stop  offset="7.412966e-02" style="stop-color:#BCF1FF"/>
							<stop  offset="0.1913" style="stop-color:#A5EBFF"/>
							<stop  offset="0.3367" style="stop-color:#80E2FF"/>
							<stop  offset="0.5034" style="stop-color:#4DD6FF"/>
							<stop  offset="0.5509" style="stop-color:#3DD2FF"/>
							<stop  offset="0.5764" style="stop-color:#39C3ED"/>
							<stop  offset="0.6972" style="stop-color:#257F9A"/>
							<stop  offset="0.8042" style="stop-color:#154858"/>
							<stop  offset="0.8934" style="stop-color:#0A2128"/>
							<stop  offset="0.9613" style="stop-color:#03090B"/>
							<stop  offset="1" style="stop-color:#000000"/>
						</radialGradient>
						<path id="XMLID_141_" style="fill:url(#XMLID_00000044900001847478697890000007002660466992960408_);" d="M1898.5,414.3
							c-2.3-3.4-1.4-8.1,2-10.3s8.1-1.4,10.3,2c2.3,3.4,1.4,8.1-2,10.3C1905.5,418.5,1900.8,417.7,1898.5,414.3z"/>
					</g>
					<g id="XMLID_138_">
						
							<radialGradient id="XMLID_00000013915144535830822730000004815375231044257420_" cx="-9907.9414" cy="970.3853" r="7.4562" gradientTransform="matrix(-0.8295 0.5584 0.5584 0.8295 -7067.2451 5460.813)" gradientUnits="userSpaceOnUse">
							<stop  offset="0" style="stop-color:#C4F3FF"/>
							<stop  offset="7.412966e-02" style="stop-color:#BCF1FF"/>
							<stop  offset="0.1913" style="stop-color:#A5EBFF"/>
							<stop  offset="0.3367" style="stop-color:#80E2FF"/>
							<stop  offset="0.5034" style="stop-color:#4DD6FF"/>
							<stop  offset="0.5509" style="stop-color:#3DD2FF"/>
							<stop  offset="0.5764" style="stop-color:#39C3ED"/>
							<stop  offset="0.6972" style="stop-color:#257F9A"/>
							<stop  offset="0.8042" style="stop-color:#154858"/>
							<stop  offset="0.8934" style="stop-color:#0A2128"/>
							<stop  offset="0.9613" style="stop-color:#03090B"/>
							<stop  offset="1" style="stop-color:#000000"/>
						</radialGradient>
						<path id="XMLID_139_" style="fill:url(#XMLID_00000013915144535830822730000004815375231044257420_);" d="M1687.1,737.3
							c-2.3-3.4-1.4-8.1,2-10.3c3.4-2.3,8.1-1.4,10.3,2c2.3,3.4,1.4,8.1-2,10.3C1694,741.6,1689.4,740.7,1687.1,737.3z"/>
					</g>
					<g id="XMLID_136_">
						
							<radialGradient id="XMLID_00000158001005793784808940000006961238010602778023_" cx="-9799.127" cy="952.4169" r="7.4585" gradientTransform="matrix(-0.8295 0.5584 0.5584 0.8295 -7067.2451 5460.813)" gradientUnits="userSpaceOnUse">
							<stop  offset="0" style="stop-color:#C4F3FF"/>
							<stop  offset="7.412966e-02" style="stop-color:#BCF1FF"/>
							<stop  offset="0.1913" style="stop-color:#A5EBFF"/>
							<stop  offset="0.3367" style="stop-color:#80E2FF"/>
							<stop  offset="0.5034" style="stop-color:#4DD6FF"/>
							<stop  offset="0.5509" style="stop-color:#3DD2FF"/>
							<stop  offset="0.5764" style="stop-color:#39C3ED"/>
							<stop  offset="0.6972" style="stop-color:#257F9A"/>
							<stop  offset="0.8042" style="stop-color:#154858"/>
							<stop  offset="0.8934" style="stop-color:#0A2128"/>
							<stop  offset="0.9613" style="stop-color:#03090B"/>
							<stop  offset="1" style="stop-color:#000000"/>
						</radialGradient>
						<path id="XMLID_137_" style="fill:url(#XMLID_00000158001005793784808940000006961238010602778023_);" d="M1586.8,783.2
							c-2.3-3.4-1.4-8.1,2-10.3c3.4-2.3,8.1-1.4,10.3,2c2.3,3.4,1.4,8.1-2,10.3C1593.7,787.5,1589.1,786.6,1586.8,783.2z"/>
					</g>
					<g id="XMLID_134_">
						
							<radialGradient id="XMLID_00000048470160550472403410000008435116566718642069_" cx="-9856.4404" cy="768.1504" r="7.4566" gradientTransform="matrix(-0.8295 0.5584 0.5584 0.8295 -7067.2451 5460.813)" gradientUnits="userSpaceOnUse">
							<stop  offset="0" style="stop-color:#C4F3FF"/>
							<stop  offset="7.412966e-02" style="stop-color:#BCF1FF"/>
							<stop  offset="0.1913" style="stop-color:#A5EBFF"/>
							<stop  offset="0.3367" style="stop-color:#80E2FF"/>
							<stop  offset="0.5034" style="stop-color:#4DD6FF"/>
							<stop  offset="0.5509" style="stop-color:#3DD2FF"/>
							<stop  offset="0.5764" style="stop-color:#39C3ED"/>
							<stop  offset="0.6972" style="stop-color:#257F9A"/>
							<stop  offset="0.8042" style="stop-color:#154858"/>
							<stop  offset="0.8934" style="stop-color:#0A2128"/>
							<stop  offset="0.9613" style="stop-color:#03090B"/>
							<stop  offset="1" style="stop-color:#000000"/>
						</radialGradient>
						<path id="XMLID_135_" style="fill:url(#XMLID_00000048470160550472403410000008435116566718642069_);" d="M1531.4,598.3
							c-2.3-3.4-1.4-8.1,2-10.3c3.4-2.3,8.1-1.4,10.3,2s1.4,8.1-2,10.3C1538.3,602.6,1533.7,601.7,1531.4,598.3z"/>
					</g>
					<g id="XMLID_132_">
						
							<radialGradient id="XMLID_00000093884707738159052580000017139306456106804917_" cx="-9979.0098" cy="769.2978" r="7.4537" gradientTransform="matrix(-0.8295 0.5584 0.5584 0.8295 -7067.2451 5460.813)" gradientUnits="userSpaceOnUse">
							<stop  offset="0" style="stop-color:#C4F3FF"/>
							<stop  offset="7.412966e-02" style="stop-color:#BCF1FF"/>
							<stop  offset="0.1913" style="stop-color:#A5EBFF"/>
							<stop  offset="0.3367" style="stop-color:#80E2FF"/>
							<stop  offset="0.5034" style="stop-color:#4DD6FF"/>
							<stop  offset="0.5509" style="stop-color:#3DD2FF"/>
							<stop  offset="0.5764" style="stop-color:#39C3ED"/>
							<stop  offset="0.6972" style="stop-color:#257F9A"/>
							<stop  offset="0.8042" style="stop-color:#154858"/>
							<stop  offset="0.8934" style="stop-color:#0A2128"/>
							<stop  offset="0.9613" style="stop-color:#03090B"/>
							<stop  offset="1" style="stop-color:#000000"/>
						</radialGradient>
						<path id="XMLID_133_" style="fill:url(#XMLID_00000093884707738159052580000017139306456106804917_);" d="M1633.8,530.8
							c-2.3-3.4-1.4-8.1,2-10.3c3.4-2.3,8.1-1.4,10.3,2c2.3,3.4,1.4,8.1-2,10.3C1640.7,535.1,1636,534.2,1633.8,530.8z"/>
					</g>
					<g id="XMLID_130_">
						
							<radialGradient id="XMLID_00000176760827216171058880000006452806273444678284_" cx="-10166.6074" cy="785.5199" r="7.4622" gradientTransform="matrix(-0.8295 0.5584 0.5584 0.8295 -7067.2451 5460.813)" gradientUnits="userSpaceOnUse">
							<stop  offset="0" style="stop-color:#C4F3FF"/>
							<stop  offset="7.412966e-02" style="stop-color:#BCF1FF"/>
							<stop  offset="0.1913" style="stop-color:#A5EBFF"/>
							<stop  offset="0.3367" style="stop-color:#80E2FF"/>
							<stop  offset="0.5034" style="stop-color:#4DD6FF"/>
							<stop  offset="0.5509" style="stop-color:#3DD2FF"/>
							<stop  offset="0.5764" style="stop-color:#39C3ED"/>
							<stop  offset="0.6972" style="stop-color:#257F9A"/>
							<stop  offset="0.8042" style="stop-color:#154858"/>
							<stop  offset="0.8934" style="stop-color:#0A2128"/>
							<stop  offset="0.9613" style="stop-color:#03090B"/>
							<stop  offset="1" style="stop-color:#000000"/>
						</radialGradient>
						<path id="XMLID_131_" style="fill:url(#XMLID_00000176760827216171058880000006452806273444678284_);" d="M1798.4,439.5
							c-2.3-3.4-1.4-8.1,2-10.3c3.4-2.3,8.1-1.4,10.3,2c2.3,3.4,1.4,8.1-2,10.3C1805.3,443.9,1800.7,442.9,1798.4,439.5z"/>
					</g>
					<g id="XMLID_128_">
						
							<radialGradient id="XMLID_00000008857478515720107520000003693365135431940543_" cx="-10358.9102" cy="828.4821" r="7.4562" gradientTransform="matrix(-0.8295 0.5584 0.5584 0.8295 -7067.2451 5460.813)" gradientUnits="userSpaceOnUse">
							<stop  offset="0" style="stop-color:#C4F3FF"/>
							<stop  offset="7.412966e-02" style="stop-color:#BCF1FF"/>
							<stop  offset="0.1913" style="stop-color:#A5EBFF"/>
							<stop  offset="0.3367" style="stop-color:#80E2FF"/>
							<stop  offset="0.5034" style="stop-color:#4DD6FF"/>
							<stop  offset="0.5509" style="stop-color:#3DD2FF"/>
							<stop  offset="0.5764" style="stop-color:#39C3ED"/>
							<stop  offset="0.6972" style="stop-color:#257F9A"/>
							<stop  offset="0.8042" style="stop-color:#154858"/>
							<stop  offset="0.8934" style="stop-color:#0A2128"/>
							<stop  offset="0.9613" style="stop-color:#03090B"/>
							<stop  offset="1" style="stop-color:#000000"/>
						</radialGradient>
						<path id="XMLID_129_" style="fill:url(#XMLID_00000008857478515720107520000003693365135431940543_);" d="M1981.9,367.8
							c-2.3-3.4-1.4-8.1,2-10.3c3.4-2.3,8.1-1.4,10.3,2c2.3,3.4,1.4,8.1-2,10.3S1984.2,371.2,1981.9,367.8z"/>
					</g>
					<g id="XMLID_126_">
						
							<radialGradient id="XMLID_00000042013250086636581410000011925301907494072977_" cx="-10319.041" cy="874.8127" r="7.4596" gradientTransform="matrix(-0.8295 0.5584 0.5584 0.8295 -7067.2451 5460.813)" gradientUnits="userSpaceOnUse">
							<stop  offset="0" style="stop-color:#C4F3FF"/>
							<stop  offset="7.412966e-02" style="stop-color:#BCF1FF"/>
							<stop  offset="0.1913" style="stop-color:#A5EBFF"/>
							<stop  offset="0.3367" style="stop-color:#80E2FF"/>
							<stop  offset="0.5034" style="stop-color:#4DD6FF"/>
							<stop  offset="0.5509" style="stop-color:#3DD2FF"/>
							<stop  offset="0.5764" style="stop-color:#39C3ED"/>
							<stop  offset="0.6972" style="stop-color:#257F9A"/>
							<stop  offset="0.8042" style="stop-color:#154858"/>
							<stop  offset="0.8934" style="stop-color:#0A2128"/>
							<stop  offset="0.9613" style="stop-color:#03090B"/>
							<stop  offset="1" style="stop-color:#000000"/>
						</radialGradient>
						<path id="XMLID_127_" style="fill:url(#XMLID_00000042013250086636581410000011925301907494072977_);" d="M1974.7,428.5
							c-2.3-3.4-1.4-8.1,2-10.3c3.4-2.3,8.1-1.4,10.3,2c2.3,3.4,1.4,8.1-2,10.3C1981.7,432.8,1977,431.9,1974.7,428.5z"/>
					</g>
					<g id="XMLID_124_">
						
							<radialGradient id="XMLID_00000030471160757986528860000000645942911705968773_" cx="-10174.0439" cy="896.5787" r="7.4461" gradientTransform="matrix(-0.8295 0.5584 0.5584 0.8295 -7067.2451 5460.813)" gradientUnits="userSpaceOnUse">
							<stop  offset="0" style="stop-color:#C4F3FF"/>
							<stop  offset="7.412966e-02" style="stop-color:#BCF1FF"/>
							<stop  offset="0.1913" style="stop-color:#A5EBFF"/>
							<stop  offset="0.3367" style="stop-color:#80E2FF"/>
							<stop  offset="0.5034" style="stop-color:#4DD6FF"/>
							<stop  offset="0.5509" style="stop-color:#3DD2FF"/>
							<stop  offset="0.5764" style="stop-color:#39C3ED"/>
							<stop  offset="0.6972" style="stop-color:#257F9A"/>
							<stop  offset="0.8042" style="stop-color:#154858"/>
							<stop  offset="0.8934" style="stop-color:#0A2128"/>
							<stop  offset="0.9613" style="stop-color:#03090B"/>
							<stop  offset="1" style="stop-color:#000000"/>
						</radialGradient>
						<path id="XMLID_125_" style="fill:url(#XMLID_00000030471160757986528860000000645942911705968773_);" d="M1866.6,527.5
							c-2.3-3.4-1.4-8.1,2-10.3c3.4-2.3,8.1-1.4,10.3,2c2.3,3.4,1.4,8.1-2,10.3C1873.5,531.8,1868.9,530.9,1866.6,527.5z"/>
					</g>
					<g id="XMLID_122_">
						
							<radialGradient id="XMLID_00000152956911865668592310000006529480095225385619_" cx="-10312.9062" cy="553.8842" r="7.4562" gradientTransform="matrix(-0.8295 0.5584 0.5584 0.8295 -7067.2451 5460.813)" gradientUnits="userSpaceOnUse">
							<stop  offset="0" style="stop-color:#C4F3FF"/>
							<stop  offset="7.412966e-02" style="stop-color:#BCF1FF"/>
							<stop  offset="0.1913" style="stop-color:#A5EBFF"/>
							<stop  offset="0.3367" style="stop-color:#80E2FF"/>
							<stop  offset="0.5034" style="stop-color:#4DD6FF"/>
							<stop  offset="0.5509" style="stop-color:#3DD2FF"/>
							<stop  offset="0.5764" style="stop-color:#39C3ED"/>
							<stop  offset="0.6972" style="stop-color:#257F9A"/>
							<stop  offset="0.8042" style="stop-color:#154858"/>
							<stop  offset="0.8934" style="stop-color:#0A2128"/>
							<stop  offset="0.9613" style="stop-color:#03090B"/>
							<stop  offset="1" style="stop-color:#000000"/>
						</radialGradient>
						<path id="XMLID_123_" style="fill:url(#XMLID_00000152956911865668592310000006529480095225385619_);" d="M1790.4,165.7
							c-2.3-3.4-1.4-8.1,2-10.3c3.4-2.3,8.1-1.4,10.3,2s1.4,8.1-2,10.3C1797.3,170,1792.7,169.1,1790.4,165.7z"/>
					</g>
					<g id="XMLID_120_">
						
							<radialGradient id="XMLID_00000091706342877807828900000011996362472589239998_" cx="-10002.0469" cy="296.9125" r="7.4562" gradientTransform="matrix(-0.8295 0.5584 0.5584 0.8295 -7067.2451 5460.813)" gradientUnits="userSpaceOnUse">
							<stop  offset="0" style="stop-color:#C4F3FF"/>
							<stop  offset="7.412966e-02" style="stop-color:#BCF1FF"/>
							<stop  offset="0.1913" style="stop-color:#A5EBFF"/>
							<stop  offset="0.3367" style="stop-color:#80E2FF"/>
							<stop  offset="0.5034" style="stop-color:#4DD6FF"/>
							<stop  offset="0.5509" style="stop-color:#3DD2FF"/>
							<stop  offset="0.5764" style="stop-color:#39C3ED"/>
							<stop  offset="0.6972" style="stop-color:#257F9A"/>
							<stop  offset="0.8042" style="stop-color:#154858"/>
							<stop  offset="0.8934" style="stop-color:#0A2128"/>
							<stop  offset="0.9613" style="stop-color:#03090B"/>
							<stop  offset="1" style="stop-color:#000000"/>
						</radialGradient>
						<path id="XMLID_121_" style="fill:url(#XMLID_00000091706342877807828900000011996362472589239998_);" d="M1389.1,126.1
							c-2.3-3.4-1.4-8.1,2-10.3s8.1-1.4,10.3,2c2.3,3.4,1.4,8.1-2,10.3S1391.4,129.5,1389.1,126.1z"/>
					</g>
					<g id="XMLID_118_">
						
							<radialGradient id="XMLID_00000142144625287170639570000007288732018704345992_" cx="-10352.0068" cy="501.0998" r="7.4616" gradientTransform="matrix(-0.8295 0.5584 0.5584 0.8295 -7067.2451 5460.813)" gradientUnits="userSpaceOnUse">
							<stop  offset="0" style="stop-color:#69E0FF"/>
							<stop  offset="0.1017" style="stop-color:#63D8F7"/>
							<stop  offset="0.2622" style="stop-color:#52C2E0"/>
							<stop  offset="0.4606" style="stop-color:#369EBB"/>
							<stop  offset="0.5509" style="stop-color:#288BA8"/>
							<stop  offset="0.5835" style="stop-color:#247E98"/>
							<stop  offset="0.7296" style="stop-color:#154858"/>
							<stop  offset="0.8527" style="stop-color:#0A2128"/>
							<stop  offset="0.9465" style="stop-color:#03090B"/>
							<stop  offset="1" style="stop-color:#000000"/>
						</radialGradient>
						<path id="XMLID_119_" style="fill:url(#XMLID_00000142144625287170639570000007288732018704345992_);" d="M1793.4,100.1
							c-2.3-3.4-1.4-8.1,2-10.3c3.4-2.3,8.1-1.4,10.3,2c2.3,3.4,1.4,8.1-2,10.3C1800.3,104.4,1795.6,103.5,1793.4,100.1z"/>
					</g>
					<g id="XMLID_116_">
						
							<radialGradient id="XMLID_00000117677115798033818960000008561148966164934815_" cx="-9886.1865" cy="293.2275" r="7.4633" gradientTransform="matrix(-0.8295 0.5584 0.5584 0.8295 -7067.2451 5460.813)" gradientUnits="userSpaceOnUse">
							<stop  offset="0" style="stop-color:#69E0FF"/>
							<stop  offset="0.1017" style="stop-color:#63D8F7"/>
							<stop  offset="0.2622" style="stop-color:#52C2E0"/>
							<stop  offset="0.4606" style="stop-color:#369EBB"/>
							<stop  offset="0.5509" style="stop-color:#288BA8"/>
							<stop  offset="0.5835" style="stop-color:#247E98"/>
							<stop  offset="0.7296" style="stop-color:#154858"/>
							<stop  offset="0.8527" style="stop-color:#0A2128"/>
							<stop  offset="0.9465" style="stop-color:#03090B"/>
							<stop  offset="1" style="stop-color:#000000"/>
						</radialGradient>
						<path id="XMLID_117_" style="fill:url(#XMLID_00000117677115798033818960000008561148966164934815_);" d="M1290.9,187.8
							c-2.3-3.4-1.4-8.1,2-10.3c3.4-2.3,8.1-1.4,10.3,2c2.3,3.4,1.4,8.1-2,10.3C1297.8,192.1,1293.2,191.2,1290.9,187.8z"/>
					</g>
					<g id="XMLID_114_">
						
							<radialGradient id="XMLID_00000060027896350322067130000018358487651654975146_" cx="-10109.9326" cy="289.4543" r="7.4548" gradientTransform="matrix(-0.8295 0.5584 0.5584 0.8295 -7067.2451 5460.813)" gradientUnits="userSpaceOnUse">
							<stop  offset="0" style="stop-color:#69E0FF"/>
							<stop  offset="0.1017" style="stop-color:#63D8F7"/>
							<stop  offset="0.2622" style="stop-color:#52C2E0"/>
							<stop  offset="0.4606" style="stop-color:#369EBB"/>
							<stop  offset="0.5509" style="stop-color:#288BA8"/>
							<stop  offset="0.5835" style="stop-color:#247E98"/>
							<stop  offset="0.7296" style="stop-color:#154858"/>
							<stop  offset="0.8527" style="stop-color:#0A2128"/>
							<stop  offset="0.9465" style="stop-color:#03090B"/>
							<stop  offset="1" style="stop-color:#000000"/>
						</radialGradient>
						<path id="XMLID_115_" style="fill:url(#XMLID_00000060027896350322067130000018358487651654975146_);" d="M1474.4,59.7
							c-2.3-3.4-1.4-8.1,2-10.3c3.4-2.3,8.1-1.4,10.3,2s1.4,8.1-2,10.3C1481.3,64,1476.7,63.1,1474.4,59.7z"/>
					</g>
					<g id="XMLID_112_">
						
							<radialGradient id="XMLID_00000021089773500203296780000016932635655842650797_" cx="-10261.0625" cy="371.3817" r="7.4587" gradientTransform="matrix(-0.8295 0.5584 0.5584 0.8295 -7067.2451 5460.813)" gradientUnits="userSpaceOnUse">
							<stop  offset="0" style="stop-color:#69E0FF"/>
							<stop  offset="0.1017" style="stop-color:#63D8F7"/>
							<stop  offset="0.2622" style="stop-color:#52C2E0"/>
							<stop  offset="0.4606" style="stop-color:#369EBB"/>
							<stop  offset="0.5509" style="stop-color:#288BA8"/>
							<stop  offset="0.5835" style="stop-color:#247E98"/>
							<stop  offset="0.7296" style="stop-color:#154858"/>
							<stop  offset="0.8527" style="stop-color:#0A2128"/>
							<stop  offset="0.9465" style="stop-color:#03090B"/>
							<stop  offset="1" style="stop-color:#000000"/>
						</radialGradient>
						<path id="XMLID_113_" style="fill:url(#XMLID_00000021089773500203296780000016932635655842650797_);" d="M1645.5,43.3
							c-2.3-3.4-1.4-8.1,2-10.3c3.4-2.3,8.1-1.4,10.3,2s1.4,8.1-2,10.3C1652.4,47.6,1647.8,46.7,1645.5,43.3z"/>
					</g>
					<g id="XMLID_110_">
						
							<radialGradient id="XMLID_00000047744345002432595850000008916818993082714040_" cx="-10033.5479" cy="276.4579" r="7.4562" gradientTransform="matrix(-0.8295 0.5584 0.5584 0.8295 -7067.2451 5460.813)" gradientUnits="userSpaceOnUse">
							<stop  offset="0" style="stop-color:#69E0FF"/>
							<stop  offset="0.1017" style="stop-color:#63D8F7"/>
							<stop  offset="0.2622" style="stop-color:#52C2E0"/>
							<stop  offset="0.4606" style="stop-color:#369EBB"/>
							<stop  offset="0.5509" style="stop-color:#288BA8"/>
							<stop  offset="0.5835" style="stop-color:#247E98"/>
							<stop  offset="0.7296" style="stop-color:#154858"/>
							<stop  offset="0.8527" style="stop-color:#0A2128"/>
							<stop  offset="0.9465" style="stop-color:#03090B"/>
							<stop  offset="1" style="stop-color:#000000"/>
						</radialGradient>
						<path id="XMLID_111_" style="fill:url(#XMLID_00000047744345002432595850000008916818993082714040_);" d="M1403.7,91.6
							c-2.3-3.4-1.4-8.1,2-10.3c3.4-2.3,8.1-1.4,10.3,2c2.3,3.4,1.4,8.1-2,10.3C1410.7,95.9,1406.1,95,1403.7,91.6z"/>
					</g>
					<g id="XMLID_108_">
						
							<radialGradient id="XMLID_00000149343375893134696870000011538535628481149880_" cx="-9778.9844" cy="380.9439" r="7.4562" gradientTransform="matrix(-0.8295 0.5584 0.5584 0.8295 -7067.2451 5460.813)" gradientUnits="userSpaceOnUse">
							<stop  offset="0" style="stop-color:#69E0FF"/>
							<stop  offset="0.1017" style="stop-color:#63D8F7"/>
							<stop  offset="0.2622" style="stop-color:#52C2E0"/>
							<stop  offset="0.4606" style="stop-color:#369EBB"/>
							<stop  offset="0.5509" style="stop-color:#288BA8"/>
							<stop  offset="0.5835" style="stop-color:#247E98"/>
							<stop  offset="0.7296" style="stop-color:#154858"/>
							<stop  offset="0.8527" style="stop-color:#0A2128"/>
							<stop  offset="0.9465" style="stop-color:#03090B"/>
							<stop  offset="1" style="stop-color:#000000"/>
						</radialGradient>
						<path id="XMLID_109_" style="fill:url(#XMLID_00000149343375893134696870000011538535628481149880_);" d="M1250.9,320.4
							c-2.3-3.4-1.4-8.1,2-10.3c3.4-2.3,8.1-1.4,10.3,2s1.4,8.1-2,10.3C1257.9,324.7,1253.3,323.8,1250.9,320.4z"/>
					</g>
					<g id="XMLID_106_">
						
							<radialGradient id="XMLID_00000029006532316627780660000016524024668312461446_" cx="-9799.1152" cy="333.8416" r="7.4536" gradientTransform="matrix(-0.8295 0.5584 0.5584 0.8295 -7067.2451 5460.813)" gradientUnits="userSpaceOnUse">
							<stop  offset="0" style="stop-color:#69E0FF"/>
							<stop  offset="0.1017" style="stop-color:#63D8F7"/>
							<stop  offset="0.2622" style="stop-color:#52C2E0"/>
							<stop  offset="0.4606" style="stop-color:#369EBB"/>
							<stop  offset="0.5509" style="stop-color:#288BA8"/>
							<stop  offset="0.5835" style="stop-color:#247E98"/>
							<stop  offset="0.7296" style="stop-color:#154858"/>
							<stop  offset="0.8527" style="stop-color:#0A2128"/>
							<stop  offset="0.9465" style="stop-color:#03090B"/>
							<stop  offset="1" style="stop-color:#000000"/>
						</radialGradient>
						<path id="XMLID_107_" style="fill:url(#XMLID_00000029006532316627780660000016524024668312461446_);" d="M1241.3,270.1
							c-2.3-3.4-1.4-8.1,2-10.3c3.4-2.3,8.1-1.4,10.3,2c2.3,3.4,1.4,8.1-2,10.3S1243.7,273.5,1241.3,270.1z"/>
					</g>
					<g id="XMLID_104_">
						
							<radialGradient id="XMLID_00000180334912971443693890000005349652355283337113_" cx="-9675.749" cy="453.5068" r="7.4563" gradientTransform="matrix(-0.8295 0.5584 0.5584 0.8295 -7067.2451 5460.813)" gradientUnits="userSpaceOnUse">
							<stop  offset="0" style="stop-color:#69E0FF"/>
							<stop  offset="0.1017" style="stop-color:#63D8F7"/>
							<stop  offset="0.2622" style="stop-color:#52C2E0"/>
							<stop  offset="0.4606" style="stop-color:#369EBB"/>
							<stop  offset="0.5509" style="stop-color:#288BA8"/>
							<stop  offset="0.5835" style="stop-color:#247E98"/>
							<stop  offset="0.7296" style="stop-color:#154858"/>
							<stop  offset="0.8527" style="stop-color:#0A2128"/>
							<stop  offset="0.9465" style="stop-color:#03090B"/>
							<stop  offset="1" style="stop-color:#000000"/>
						</radialGradient>
						<path id="XMLID_105_" style="fill:url(#XMLID_00000180334912971443693890000005349652355283337113_);" d="M1205.9,438.2
							c-2.3-3.4-1.4-8.1,2-10.3c3.4-2.3,8.1-1.4,10.3,2c2.3,3.4,1.4,8.1-2,10.3C1212.8,442.6,1208.1,441.6,1205.9,438.2z"/>
					</g>
					<g id="XMLID_102_">
						
							<radialGradient id="XMLID_00000019666930753908009060000010681318326203050646_" cx="-9630.0742" cy="785.5383" r="7.4529" gradientTransform="matrix(-0.8295 0.5584 0.5584 0.8295 -7067.2451 5460.813)" gradientUnits="userSpaceOnUse">
							<stop  offset="0" style="stop-color:#69E0FF"/>
							<stop  offset="0.1017" style="stop-color:#63D8F7"/>
							<stop  offset="0.2622" style="stop-color:#52C2E0"/>
							<stop  offset="0.4606" style="stop-color:#369EBB"/>
							<stop  offset="0.5509" style="stop-color:#288BA8"/>
							<stop  offset="0.5835" style="stop-color:#247E98"/>
							<stop  offset="0.7296" style="stop-color:#154858"/>
							<stop  offset="0.8527" style="stop-color:#0A2128"/>
							<stop  offset="0.9465" style="stop-color:#03090B"/>
							<stop  offset="1" style="stop-color:#000000"/>
						</radialGradient>
						<path id="XMLID_103_" style="fill:url(#XMLID_00000019666930753908009060000010681318326203050646_);" d="M1353.3,739.2
							c-2.3-3.4-1.4-8.1,2-10.3c3.4-2.3,8.1-1.4,10.3,2c2.3,3.4,1.4,8.1-2,10.3S1355.7,742.6,1353.3,739.2z"/>
					</g>
					<g id="XMLID_100_">
						
							<radialGradient id="XMLID_00000122679279242103443830000007129894311452507047_" cx="-9737.7031" cy="682.4603" r="7.4643" gradientTransform="matrix(-0.8295 0.5584 0.5584 0.8295 -7067.2451 5460.813)" gradientUnits="userSpaceOnUse">
							<stop  offset="0" style="stop-color:#69E0FF"/>
							<stop  offset="0.1017" style="stop-color:#63D8F7"/>
							<stop  offset="0.2622" style="stop-color:#52C2E0"/>
							<stop  offset="0.4606" style="stop-color:#369EBB"/>
							<stop  offset="0.5509" style="stop-color:#288BA8"/>
							<stop  offset="0.5835" style="stop-color:#247E98"/>
							<stop  offset="0.7296" style="stop-color:#154858"/>
							<stop  offset="0.8527" style="stop-color:#0A2128"/>
							<stop  offset="0.9465" style="stop-color:#03090B"/>
							<stop  offset="1" style="stop-color:#000000"/>
						</radialGradient>
						<path id="XMLID_101_" style="fill:url(#XMLID_00000122679279242103443830000007129894311452507047_);" d="M1385.1,593.5
							c-2.3-3.4-1.4-8.1,2-10.3c3.4-2.3,8.1-1.4,10.3,2c2.3,3.4,1.4,8.1-2,10.3C1392,597.9,1387.4,596.9,1385.1,593.5z"/>
					</g>
					<g id="XMLID_98_">
						
							<radialGradient id="XMLID_00000160887855483349209020000009140418944575183032_" cx="-9714.1602" cy="626.6318" r="7.4606" gradientTransform="matrix(-0.8295 0.5584 0.5584 0.8295 -7067.2451 5460.813)" gradientUnits="userSpaceOnUse">
							<stop  offset="0" style="stop-color:#69E0FF"/>
							<stop  offset="0.1017" style="stop-color:#63D8F7"/>
							<stop  offset="0.2622" style="stop-color:#52C2E0"/>
							<stop  offset="0.4606" style="stop-color:#369EBB"/>
							<stop  offset="0.5509" style="stop-color:#288BA8"/>
							<stop  offset="0.5835" style="stop-color:#247E98"/>
							<stop  offset="0.7296" style="stop-color:#154858"/>
							<stop  offset="0.8527" style="stop-color:#0A2128"/>
							<stop  offset="0.9465" style="stop-color:#03090B"/>
							<stop  offset="1" style="stop-color:#000000"/>
						</radialGradient>
						<path id="XMLID_99_" style="fill:url(#XMLID_00000160887855483349209020000009140418944575183032_);" d="M1334.4,560.4
							c-2.3-3.4-1.4-8.1,2-10.3c3.4-2.3,8.1-1.4,10.3,2s1.4,8.1-2,10.3S1336.7,563.8,1334.4,560.4z"/>
					</g>
					<g id="XMLID_96_">
						
							<radialGradient id="XMLID_00000088851329528661583540000000938602145786391964_" cx="-9612.2207" cy="659.5408" r="7.4568" gradientTransform="matrix(-0.8295 0.5584 0.5584 0.8295 -7067.2451 5460.813)" gradientUnits="userSpaceOnUse">
							<stop  offset="0" style="stop-color:#69E0FF"/>
							<stop  offset="0.1017" style="stop-color:#63D8F7"/>
							<stop  offset="0.2622" style="stop-color:#52C2E0"/>
							<stop  offset="0.4606" style="stop-color:#369EBB"/>
							<stop  offset="0.5509" style="stop-color:#288BA8"/>
							<stop  offset="0.5835" style="stop-color:#247E98"/>
							<stop  offset="0.7296" style="stop-color:#154858"/>
							<stop  offset="0.8527" style="stop-color:#0A2128"/>
							<stop  offset="0.9465" style="stop-color:#03090B"/>
							<stop  offset="1" style="stop-color:#000000"/>
						</radialGradient>
						<path id="XMLID_97_" style="fill:url(#XMLID_00000088851329528661583540000000938602145786391964_);" d="M1268.2,644.6
							c-2.3-3.4-1.4-8.1,2-10.3c3.4-2.3,8.1-1.4,10.3,2c2.3,3.4,1.4,8.1-2,10.3C1275.1,648.9,1270.5,648,1268.2,644.6z"/>
					</g>
					<g id="XMLID_94_">
						
							<radialGradient id="XMLID_00000083070932637672237430000012774682756252046225_" cx="-9624.7285" cy="593.0481" r="7.4562" gradientTransform="matrix(-0.8295 0.5584 0.5584 0.8295 -7067.2451 5460.813)" gradientUnits="userSpaceOnUse">
							<stop  offset="0" style="stop-color:#69E0FF"/>
							<stop  offset="0.1017" style="stop-color:#63D8F7"/>
							<stop  offset="0.2622" style="stop-color:#52C2E0"/>
							<stop  offset="0.4606" style="stop-color:#369EBB"/>
							<stop  offset="0.5509" style="stop-color:#288BA8"/>
							<stop  offset="0.5835" style="stop-color:#247E98"/>
							<stop  offset="0.7296" style="stop-color:#154858"/>
							<stop  offset="0.8527" style="stop-color:#0A2128"/>
							<stop  offset="0.9465" style="stop-color:#03090B"/>
							<stop  offset="1" style="stop-color:#000000"/>
						</radialGradient>
						<path id="XMLID_95_" style="fill:url(#XMLID_00000083070932637672237430000012774682756252046225_);" d="M1241.4,582.4
							c-2.3-3.4-1.4-8.1,2-10.3c3.4-2.3,8.1-1.4,10.3,2s1.4,8.1-2,10.3C1248.3,586.8,1243.7,585.9,1241.4,582.4z"/>
					</g>
					<g id="XMLID_92_">
						
							<radialGradient id="XMLID_00000037657116069133598900000015544257302758779315_" cx="-9669.0234" cy="585.5984" r="7.4525" gradientTransform="matrix(-0.8295 0.5584 0.5584 0.8295 -7067.2451 5460.813)" gradientUnits="userSpaceOnUse">
							<stop  offset="0" style="stop-color:#69E0FF"/>
							<stop  offset="0.1017" style="stop-color:#63D8F7"/>
							<stop  offset="0.2622" style="stop-color:#52C2E0"/>
							<stop  offset="0.4606" style="stop-color:#369EBB"/>
							<stop  offset="0.5509" style="stop-color:#288BA8"/>
							<stop  offset="0.5835" style="stop-color:#247E98"/>
							<stop  offset="0.7296" style="stop-color:#154858"/>
							<stop  offset="0.8527" style="stop-color:#0A2128"/>
							<stop  offset="0.9465" style="stop-color:#03090B"/>
							<stop  offset="1" style="stop-color:#000000"/>
						</radialGradient>
						<path id="XMLID_93_" style="fill:url(#XMLID_00000037657116069133598900000015544257302758779315_);" d="M1274,551.6
							c-2.3-3.4-1.4-8.1,2-10.3c3.4-2.3,8.1-1.4,10.3,2s1.4,8.1-2,10.3C1280.9,555.9,1276.3,555,1274,551.6z"/>
					</g>
					<g id="XMLID_90_">
						
							<radialGradient id="XMLID_00000051375867177358295860000005729117950431130516_" cx="-9646.0205" cy="827.9089" r="7.446" gradientTransform="matrix(-0.8295 0.5584 0.5584 0.8295 -7067.2451 5460.813)" gradientUnits="userSpaceOnUse">
							<stop  offset="0" style="stop-color:#69E0FF"/>
							<stop  offset="0.1017" style="stop-color:#63D8F7"/>
							<stop  offset="0.2622" style="stop-color:#52C2E0"/>
							<stop  offset="0.4606" style="stop-color:#369EBB"/>
							<stop  offset="0.5509" style="stop-color:#288BA8"/>
							<stop  offset="0.5835" style="stop-color:#247E98"/>
							<stop  offset="0.7296" style="stop-color:#154858"/>
							<stop  offset="0.8527" style="stop-color:#0A2128"/>
							<stop  offset="0.9465" style="stop-color:#03090B"/>
							<stop  offset="1" style="stop-color:#000000"/>
						</radialGradient>
						<path id="XMLID_91_" style="fill:url(#XMLID_00000051375867177358295860000005729117950431130516_);" d="M1390.3,765.4
							c-2.3-3.4-1.4-8.1,2-10.3c3.4-2.3,8.1-1.4,10.3,2c2.3,3.4,1.4,8.1-2,10.3C1397.2,769.7,1392.6,768.8,1390.3,765.4z"/>
					</g>
					<g id="XMLID_88_">
						
							<radialGradient id="XMLID_00000091701728319063800070000006133357851011536554_" cx="-9683.2139" cy="893.377" r="7.4549" gradientTransform="matrix(-0.8295 0.5584 0.5584 0.8295 -7067.2451 5460.813)" gradientUnits="userSpaceOnUse">
							<stop  offset="0" style="stop-color:#69E0FF"/>
							<stop  offset="0.1017" style="stop-color:#63D8F7"/>
							<stop  offset="0.2622" style="stop-color:#52C2E0"/>
							<stop  offset="0.4606" style="stop-color:#369EBB"/>
							<stop  offset="0.5509" style="stop-color:#288BA8"/>
							<stop  offset="0.5835" style="stop-color:#247E98"/>
							<stop  offset="0.7296" style="stop-color:#154858"/>
							<stop  offset="0.8527" style="stop-color:#0A2128"/>
							<stop  offset="0.9465" style="stop-color:#03090B"/>
							<stop  offset="1" style="stop-color:#000000"/>
						</radialGradient>
						<path id="XMLID_89_" style="fill:url(#XMLID_00000091701728319063800070000006133357851011536554_);" d="M1457.7,798.9
							c-2.3-3.4-1.4-8.1,2-10.3c3.4-2.3,8.1-1.4,10.3,2c2.3,3.4,1.4,8.1-2,10.3C1464.6,803.2,1460,802.3,1457.7,798.9z"/>
					</g>
					<g id="XMLID_86_">
						
							<radialGradient id="XMLID_00000065045153995235612030000011225067356332329613_" cx="-10196.1689" cy="527.2416" r="7.4562" gradientTransform="matrix(-0.8295 0.5584 0.5584 0.8295 -7067.2451 5460.813)" gradientUnits="userSpaceOnUse">
							<stop  offset="0" style="stop-color:#C4F3FF"/>
							<stop  offset="7.412966e-02" style="stop-color:#BCF1FF"/>
							<stop  offset="0.1913" style="stop-color:#A5EBFF"/>
							<stop  offset="0.3367" style="stop-color:#80E2FF"/>
							<stop  offset="0.5034" style="stop-color:#4DD6FF"/>
							<stop  offset="0.5509" style="stop-color:#3DD2FF"/>
							<stop  offset="0.5764" style="stop-color:#39C3ED"/>
							<stop  offset="0.6972" style="stop-color:#257F9A"/>
							<stop  offset="0.8042" style="stop-color:#154858"/>
							<stop  offset="0.8934" style="stop-color:#0A2128"/>
							<stop  offset="0.9613" style="stop-color:#03090B"/>
							<stop  offset="1" style="stop-color:#000000"/>
						</radialGradient>
						<path id="XMLID_87_" style="fill:url(#XMLID_00000065045153995235612030000011225067356332329613_);" d="M1678.7,208.8
							c-2.3-3.4-1.4-8.1,2-10.3c3.4-2.3,8.1-1.4,10.3,2c2.3,3.4,1.4,8.1-2,10.3C1685.6,213.1,1681,212.2,1678.7,208.8z"/>
					</g>
					<g id="XMLID_84_">
						
							<radialGradient id="XMLID_00000027602129694337259730000000473746891542320260_" cx="-9909.4307" cy="363.8242" r="7.4545" gradientTransform="matrix(-0.8295 0.5584 0.5584 0.8295 -7067.2451 5460.813)" gradientUnits="userSpaceOnUse">
							<stop  offset="0" style="stop-color:#C4F3FF"/>
							<stop  offset="7.412966e-02" style="stop-color:#BCF1FF"/>
							<stop  offset="0.1913" style="stop-color:#A5EBFF"/>
							<stop  offset="0.3367" style="stop-color:#80E2FF"/>
							<stop  offset="0.5034" style="stop-color:#4DD6FF"/>
							<stop  offset="0.5509" style="stop-color:#3DD2FF"/>
							<stop  offset="0.5764" style="stop-color:#39C3ED"/>
							<stop  offset="0.6972" style="stop-color:#257F9A"/>
							<stop  offset="0.8042" style="stop-color:#154858"/>
							<stop  offset="0.8934" style="stop-color:#0A2128"/>
							<stop  offset="0.9613" style="stop-color:#03090B"/>
							<stop  offset="1" style="stop-color:#000000"/>
						</radialGradient>
						<path id="XMLID_85_" style="fill:url(#XMLID_00000027602129694337259730000000473746891542320260_);" d="M1349.6,233.3
							c-2.3-3.4-1.4-8.1,2-10.3c3.4-2.3,8.1-1.4,10.3,2c2.3,3.4,1.4,8.1-2,10.3C1356.5,237.7,1351.9,236.7,1349.6,233.3z"/>
					</g>
					<g id="XMLID_82_">
						
							<radialGradient id="XMLID_00000109722233603526161550000015870874382249396134_" cx="-10263.5811" cy="959.8696" r="7.4627" gradientTransform="matrix(-0.8295 0.5584 0.5584 0.8295 -7067.2451 5460.813)" gradientUnits="userSpaceOnUse">
							<stop  offset="0" style="stop-color:#C4F3FF"/>
							<stop  offset="7.412966e-02" style="stop-color:#BCF1FF"/>
							<stop  offset="0.1913" style="stop-color:#A5EBFF"/>
							<stop  offset="0.3367" style="stop-color:#80E2FF"/>
							<stop  offset="0.5034" style="stop-color:#4DD6FF"/>
							<stop  offset="0.5509" style="stop-color:#3DD2FF"/>
							<stop  offset="0.5764" style="stop-color:#39C3ED"/>
							<stop  offset="0.6972" style="stop-color:#257F9A"/>
							<stop  offset="0.8042" style="stop-color:#154858"/>
							<stop  offset="0.8934" style="stop-color:#0A2128"/>
							<stop  offset="0.9613" style="stop-color:#03090B"/>
							<stop  offset="1" style="stop-color:#000000"/>
						</radialGradient>
						<path id="XMLID_83_" style="fill:url(#XMLID_00000109722233603526161550000015870874382249396134_);" d="M1976.2,530
							c-2.3-3.4-1.4-8.1,2-10.3s8.1-1.4,10.3,2c2.3,3.4,1.4,8.1-2,10.3C1983.1,534.3,1978.5,533.4,1976.2,530z"/>
					</g>
					<g id="XMLID_80_">
						
							<radialGradient id="XMLID_00000149340032514189771090000000835561082080523921_" cx="-10175.3057" cy="1016.3317" r="7.4539" gradientTransform="matrix(-0.8295 0.5584 0.5584 0.8295 -7067.2451 5460.813)" gradientUnits="userSpaceOnUse">
							<stop  offset="0" style="stop-color:#C4F3FF"/>
							<stop  offset="7.412966e-02" style="stop-color:#BCF1FF"/>
							<stop  offset="0.1913" style="stop-color:#A5EBFF"/>
							<stop  offset="0.3367" style="stop-color:#80E2FF"/>
							<stop  offset="0.5034" style="stop-color:#4DD6FF"/>
							<stop  offset="0.5509" style="stop-color:#3DD2FF"/>
							<stop  offset="0.5764" style="stop-color:#39C3ED"/>
							<stop  offset="0.6972" style="stop-color:#257F9A"/>
							<stop  offset="0.8042" style="stop-color:#154858"/>
							<stop  offset="0.8934" style="stop-color:#0A2128"/>
							<stop  offset="0.9613" style="stop-color:#03090B"/>
							<stop  offset="1" style="stop-color:#000000"/>
						</radialGradient>
						<path id="XMLID_81_" style="fill:url(#XMLID_00000149340032514189771090000000835561082080523921_);" d="M1934.5,626.1
							c-2.3-3.4-1.4-8.1,2-10.3c3.4-2.3,8.1-1.4,10.3,2c2.3,3.4,1.4,8.1-2,10.3C1941.5,630.5,1936.8,629.5,1934.5,626.1z"/>
					</g>
				</g>
			</g>
			<g id="XMLID_7_" class="st50">
				<path id="XMLID_77_" class="st51" d="M1794.9,686.7c2.2,3.4,1.2,7.9-2.2,10.1c-3.4,2.2-7.9,1.2-10.1-2.2s-1.2-7.9,2.2-10.1
					C1788.1,682.3,1792.7,683.3,1794.9,686.7z"/>
				<path id="XMLID_76_" class="st51" d="M2098.8,442.7c2.2,3.4,1.2,7.9-2.2,10.1s-7.9,1.2-10.1-2.2c-2.2-3.4-1.2-7.9,2.2-10.1
					C2092,438.3,2096.5,439.3,2098.8,442.7z"/>
				<path id="XMLID_75_" class="st51" d="M1263.8,201.1c2.2,3.4,1.2,7.9-2.2,10.1c-3.4,2.2-7.9,1.2-10.1-2.2s-1.2-7.9,2.2-10.1
					C1257.1,196.7,1261.6,197.7,1263.8,201.1z"/>
				<path id="XMLID_74_" class="st51" d="M1228.1,546.9c2.2,3.4,1.2,7.9-2.2,10.1s-7.9,1.2-10.1-2.2s-1.2-7.9,2.2-10.1
					C1221.3,542.5,1225.8,543.5,1228.1,546.9z"/>
				<path id="XMLID_73_" class="st51" d="M1947.4,179.2c2.2,3.4,1.2,7.9-2.2,10.1c-3.4,2.2-7.9,1.2-10.1-2.2s-1.2-7.9,2.2-10.1
					C1940.6,174.8,1945.2,175.8,1947.4,179.2z"/>
				<path id="XMLID_72_" class="st51" d="M1371.1,833.9c2.2,3.4,1.2,7.9-2.2,10.1s-7.9,1.2-10.1-2.2s-1.2-7.9,2.2-10.1
					C1364.4,829.5,1368.9,830.4,1371.1,833.9z"/>
				<path id="XMLID_71_" class="st51" d="M1540.3-128.7c2.2,3.4,1.2,7.9-2.2,10.1c-3.4,2.2-7.9,1.2-10.1-2.2
					c-2.2-3.4-1.2-7.9,2.2-10.1C1533.6-133.1,1538.1-132.1,1540.3-128.7z"/>
				<path id="XMLID_70_" class="st52" d="M1410,604.9c0.8,1.1,0.4,2.7-0.7,3.5s-2.7,0.4-3.5-0.7c-0.8-1.1-0.4-2.7,0.7-3.5
					C1407.6,603.5,1409.2,603.8,1410,604.9z"/>
				<path id="XMLID_69_" class="st52" d="M1575.2,794.9c0.8,1.1,0.4,2.7-0.7,3.5c-1.1,0.8-2.7,0.4-3.5-0.7c-0.8-1.1-0.4-2.7,0.7-3.5
					C1572.9,793.4,1574.5,793.7,1575.2,794.9z"/>
				<path id="XMLID_68_" class="st52" d="M1619.6,584.7c0.8,1.1,0.4,2.7-0.7,3.5c-1.1,0.8-2.7,0.4-3.5-0.7c-0.8-1.1-0.4-2.7,0.7-3.5
					C1617.2,583.2,1618.8,583.5,1619.6,584.7z"/>
				<path id="XMLID_67_" class="st52" d="M1543.5,141.6c0.8,1.1,0.4,2.7-0.7,3.5c-1.1,0.8-2.7,0.4-3.5-0.7c-0.8-1.1-0.4-2.7,0.7-3.5
					C1541.2,140.1,1542.8,140.4,1543.5,141.6z"/>
				<path id="XMLID_66_" class="st52" d="M1344.4,79c0.8,1.1,0.4,2.7-0.7,3.5c-1.1,0.8-2.7,0.4-3.5-0.7c-0.8-1.1-0.4-2.7,0.7-3.5
					C1342.1,77.6,1343.7,77.9,1344.4,79z"/>
				<path id="XMLID_65_" class="st52" d="M1875.9,152.3c0.8,1.1,0.4,2.7-0.7,3.5c-1.1,0.8-2.7,0.4-3.5-0.7c-0.8-1.1-0.4-2.7,0.7-3.5
					C1873.6,150.8,1875.2,151.1,1875.9,152.3z"/>
				<path id="XMLID_64_" class="st52" d="M1120.4,280.1c0.8,1.1,0.4,2.7-0.7,3.5c-1.1,0.8-2.7,0.4-3.5-0.7c-0.8-1.1-0.4-2.7,0.7-3.5
					S1119.5,279,1120.4,280.1z"/>
				<path id="XMLID_63_" class="st52" d="M1585-3.5c-1.1-0.9-1.3-2.5-0.4-3.5c0.9-1.1,2.5-1.3,3.5-0.4c1.1,0.9,1.3,2.5,0.4,3.5
					C1587.8-2.8,1586.2-2.7,1585-3.5z"/>
				<path id="XMLID_62_" class="st52" d="M1239.8,301c-1.1-0.9-1.3-2.5-0.4-3.5c0.9-1.1,2.5-1.3,3.5-0.4c1.1,0.9,1.3,2.5,0.4,3.5
					C1242.5,301.6,1240.9,301.8,1239.8,301z"/>
				<path id="XMLID_61_" class="st52" d="M1598.6,478.5c-1.1-0.9-1.3-2.5-0.4-3.5c0.9-1.1,2.5-1.3,3.5-0.4c1.1,0.9,1.3,2.5,0.4,3.5
					C1601.2,479.2,1599.7,479.4,1598.6,478.5z"/>
				<path id="XMLID_60_" class="st52" d="M1909.6,551.5c-1.1-0.9-1.3-2.5-0.4-3.5c0.9-1.1,2.5-1.3,3.5-0.4c1.1,0.9,1.3,2.5,0.4,3.5
					C1912.3,552.1,1910.7,552.4,1909.6,551.5z"/>
				<path id="XMLID_59_" class="st52" d="M1278.7,569.3c-1.1-0.9-1.3-2.5-0.4-3.5c0.9-1.1,2.5-1.3,3.5-0.4c1.1,0.9,1.3,2.5,0.4,3.5
					C1281.3,570,1279.7,570.2,1278.7,569.3z"/>
				<path id="XMLID_58_" class="st52" d="M1959.7,218c-1.1-0.9-1.3-2.5-0.4-3.5c0.8-1.1,2.5-1.3,3.5-0.4c1.1,0.9,1.3,2.5,0.4,3.5
					C1962.4,218.7,1960.8,218.8,1959.7,218z"/>
				<path id="XMLID_57_" class="st52" d="M1430.8,504.2c-1.3,1.4-3.5,1.4-4.9,0.1c-1.4-1.3-1.4-3.5-0.1-4.9c1.3-1.4,3.5-1.4,4.9-0.1
					S1432.2,502.8,1430.8,504.2z"/>
				<path id="XMLID_56_" class="st52" d="M1305.9,676.5c-1.3,1.4-3.5,1.4-4.9,0.1c-1.4-1.3-1.4-3.5-0.1-4.9c1.3-1.4,3.5-1.4,4.9-0.1
					S1307.3,675.1,1305.9,676.5z"/>
				<path id="XMLID_55_" class="st52" d="M1592.9,204c-1.3,1.4-3.5,1.4-4.9,0.1c-1.4-1.3-1.4-3.5-0.1-4.9c1.3-1.4,3.5-1.4,4.9-0.1
					S1594.2,202.6,1592.9,204z"/>
				<path id="XMLID_54_" class="st52" d="M1429.8,227.4c-1.3,1.4-3.5,1.4-4.9,0.1c-1.4-1.3-1.4-3.5-0.1-4.9c1.3-1.4,3.5-1.4,4.9-0.1
					C1431,223.8,1431.1,226,1429.8,227.4z"/>
				<path id="XMLID_53_" class="st52" d="M1681.8,515.8c-1.3,1.4-3.5,1.4-4.9,0.1c-1.4-1.3-1.4-3.5-0.1-4.9s3.5-1.4,4.9-0.1
					C1683,512.2,1683.1,514.5,1681.8,515.8z"/>
				<path id="XMLID_52_" class="st52" d="M1314.3,326.3c-1.3,1.4-3.5,1.4-4.9,0.1c-1.4-1.3-1.4-3.5-0.1-4.9c1.3-1.4,3.5-1.4,4.9-0.1
					C1315.6,322.6,1315.6,324.8,1314.3,326.3z"/>
				<path id="XMLID_51_" class="st52" d="M1776.4,293.1c-1.3,1.4-3.5,1.4-4.9,0.1c-1.4-1.3-1.4-3.5-0.1-4.9s3.5-1.4,4.9-0.1
					C1777.7,289.5,1777.7,291.8,1776.4,293.1z"/>
				<path id="XMLID_50_" class="st52" d="M1429.6,81.3c-1.1-2.8,0.3-5.9,3-6.9c2.8-1.1,5.9,0.3,6.9,3c1.1,2.8-0.3,5.9-3,6.9
					C1433.9,85.4,1430.8,84.1,1429.6,81.3z"/>
				<path id="XMLID_49_" class="st52" d="M1178.1,213.2c-1.1-2.8,0.3-5.9,3-6.9c2.8-1.1,5.9,0.3,6.9,3c1.1,2.8-0.3,5.9-3,6.9
					C1182.4,217.3,1179.2,215.9,1178.1,213.2z"/>
				<path id="XMLID_48_" class="st52" d="M1747.1,509.8c-1.1-2.8,0.3-5.9,3-6.9c2.8-1.1,5.9,0.3,6.9,3c1.1,2.8-0.3,5.9-3,6.9
					C1751.2,513.9,1748.1,512.6,1747.1,509.8z"/>
				<path id="XMLID_47_" class="st52" d="M1763.1,361.4c-1.1-2.8,0.3-5.9,3-6.9c2.8-1.1,5.9,0.3,6.9,3c1.1,2.8-0.3,5.9-3,6.9
					C1767.3,365.5,1764.1,364.2,1763.1,361.4z"/>
				<path id="XMLID_46_" class="st52" d="M1815.5,260.6c-1.1-2.8,0.3-5.9,3-6.9s5.9,0.3,6.9,3c1.1,2.8-0.3,5.9-3,6.9
					S1816.6,263.4,1815.5,260.6z"/>
				<path id="XMLID_45_" class="st52" d="M1249.5,422.8c-1.1-2.8,0.3-5.9,3-6.9c2.8-1.1,5.9,0.3,6.9,3c1.1,2.8-0.3,5.9-3,6.9
					C1253.7,427,1250.6,425.6,1249.5,422.8z"/>
				<path id="XMLID_44_" class="st52" d="M1753.4,35.4c-1.1-2.8,0.3-5.9,3-6.9s5.9,0.3,6.9,3s-0.3,5.9-3,6.9
					S1754.5,38.2,1753.4,35.4z"/>
				<path id="XMLID_43_" class="st52" d="M1497.5,700.1c-1.1-2.8,0.3-5.9,3-6.9c2.8-1.1,5.9,0.3,6.9,3c1.1,2.8-0.3,5.9-3,6.9
					C1501.7,704.2,1498.6,702.9,1497.5,700.1z"/>
				<path id="XMLID_42_" class="st53" d="M2005.5,494.5c4.3,1,8.6-1.6,9.6-5.9c1-4.3-1.6-8.6-5.9-9.6c-4.3-1-8.6,1.6-9.6,5.9
					C1998.6,489.2,2001.3,493.5,2005.5,494.5z"/>
				<path id="XMLID_41_" class="st53" d="M1316.5,121.9c4.3,1,8.6-1.6,9.6-5.9c1-4.3-1.6-8.6-5.9-9.6s-8.6,1.6-9.6,5.9
					C1309.5,116.5,1312.2,120.9,1316.5,121.9z"/>
				<path id="XMLID_40_" class="st53" d="M1659.4-38.5c4.3,1,8.6-1.6,9.6-5.9c1-4.3-1.6-8.6-5.9-9.6c-4.3-1-8.6,1.6-9.6,5.9
					C1652.5-43.8,1655.1-39.5,1659.4-38.5z"/>
				<path id="XMLID_39_" class="st53" d="M1538.1,832.6c4.3,1,8.6-1.6,9.6-5.9c1-4.3-1.6-8.6-5.9-9.6c-4.3-1-8.6,1.6-9.6,5.9
					C1531.2,827.3,1533.8,831.6,1538.1,832.6z"/>
				<path id="XMLID_38_" class="st53" d="M1984.6,27.4c4.3,1,8.6-1.6,9.6-5.9c1-4.3-1.6-8.6-5.9-9.6s-8.6,1.6-9.6,5.9
					C1977.6,22,1980.2,26.4,1984.6,27.4z"/>
				<path id="XMLID_37_" class="st53" d="M1076.1,524c4.3,1,8.6-1.6,9.6-5.9c1-4.3-1.6-8.6-5.9-9.6c-4.3-1-8.6,1.6-9.6,5.9
					C1069.1,518.6,1071.8,522.9,1076.1,524z"/>
				<path id="XMLID_36_" class="st54" d="M1784,127.9c1.4,0.4,3-0.5,3.3-2c0.4-1.4-0.5-3-2-3.3c-1.4-0.4-3,0.5-3.3,2
					S1782.5,127.5,1784,127.9z"/>
				<path id="XMLID_35_" class="st54" d="M2038.4,230c1.4,0.4,3-0.5,3.3-2c0.4-1.4-0.5-3-2-3.3c-1.4-0.4-3,0.5-3.3,2
					C2036,228.1,2036.9,229.6,2038.4,230z"/>
				<path id="XMLID_34_" class="st54" d="M1838.1,350.7c1.4,0.4,3-0.5,3.3-2s-0.5-3-2-3.3s-3,0.5-3.3,2
					C1835.7,348.8,1836.6,350.4,1838.1,350.7z"/>
				<path id="XMLID_33_" class="st54" d="M1355.2,430.8c1.4,0.4,3-0.5,3.3-2c0.4-1.4-0.5-3-2-3.3c-1.4-0.4-3,0.5-3.3,2
					C1352.8,428.9,1353.7,430.4,1355.2,430.8z"/>
				<path id="XMLID_32_" class="st54" d="M1219.7,248.3c1.4,0.4,3-0.5,3.3-2c0.4-1.4-0.5-3-2-3.3c-1.4-0.4-3,0.5-3.3,2
					C1217.4,246.4,1218.3,248,1219.7,248.3z"/>
				<path id="XMLID_31_" class="st54" d="M1484.9,768.8c1.4,0.4,3-0.5,3.3-2c0.4-1.4-0.5-3-2-3.3c-1.4-0.4-3,0.5-3.3,2
					C1482.6,766.9,1483.5,768.4,1484.9,768.8z"/>
				<path id="XMLID_30_" class="st54" d="M1346.5-54c1.4,0.4,3-0.5,3.3-2c0.4-1.4-0.5-3-2-3.3c-1.4-0.4-3,0.5-3.3,2
					C1344.2-55.8,1345-54.3,1346.5-54z"/>
				<path id="XMLID_29_" class="st54" d="M1220.8,525.3c-1.3-0.8-3-0.4-3.8,0.8s-0.4,3,0.8,3.8c1.3,0.8,3,0.4,3.8-0.8
					C1222.4,527.8,1222.1,526.1,1220.8,525.3z"/>
				<path id="XMLID_28_" class="st54" d="M1410.7,61.5c-1.3-0.8-3-0.4-3.8,0.8c-0.8,1.3-0.4,3,0.8,3.8c1.3,0.8,3,0.4,3.8-0.8
					C1412.3,63.9,1411.9,62.3,1410.7,61.5z"/>
				<path id="XMLID_26_" class="st54" d="M1721.4,367c-1.3-0.8-3-0.4-3.8,0.8c-0.8,1.3-0.4,3,0.8,3.8c1.3,0.8,3,0.4,3.8-0.8
					C1723,369.5,1722.7,367.8,1721.4,367z"/>
				<path id="XMLID_25_" class="st54" d="M1907.6,660.9c-1.3-0.8-3-0.4-3.8,0.8c-0.8,1.3-0.4,3,0.8,3.8c1.3,0.8,3,0.4,3.8-0.8
					C1909.2,663.4,1908.8,661.7,1907.6,660.9z"/>
				<path id="XMLID_24_" class="st54" d="M1700.5,5.6c-1.3-0.8-3-0.4-3.8,0.8c-0.8,1.3-0.4,3,0.8,3.8c1.3,0.8,3,0.4,3.8-0.8
					C1702.1,8.1,1701.7,6.4,1700.5,5.6z"/>
				<path id="XMLID_23_" class="st54" d="M1582.4,831.5c-1.3-0.8-3-0.4-3.8,0.8c-0.8,1.3-0.4,3,0.8,3.8c1.3,0.8,3,0.4,3.8-0.8
					C1584,833.9,1583.7,832.2,1582.4,831.5z"/>
				<path id="XMLID_22_" class="st54" d="M1687.9,185.4c0.9-1.9,0.3-4.2-1.6-5.1c-1.9-0.9-4.2-0.3-5.1,1.6s-0.3,4.2,1.6,5.1
					C1684.6,188,1686.9,187.2,1687.9,185.4z"/>
				<path id="XMLID_21_" class="st54" d="M1820.4-4.6c0.9-1.9,0.3-4.2-1.6-5.1c-1.9-0.9-4.2-0.3-5.1,1.6c-0.9,1.9-0.3,4.2,1.6,5.1
					C1817.1-2,1819.5-2.8,1820.4-4.6z"/>
				<path id="XMLID_20_" class="st54" d="M1437.1,459.3c0.9-1.9,0.3-4.2-1.6-5.1s-4.2-0.3-5.1,1.6c-0.9,1.9-0.3,4.2,1.6,5.1
					C1433.8,461.8,1436.1,461.1,1437.1,459.3z"/>
				<path id="XMLID_19_" class="st54" d="M1402.9,283.1c0.9-1.9,0.3-4.2-1.6-5.1s-4.2-0.3-5.1,1.6c-0.9,1.9-0.3,4.2,1.6,5.1
					C1399.6,285.7,1401.9,284.9,1402.9,283.1z"/>
				<path id="XMLID_18_" class="st54" d="M1789.5,439.3c0.9-1.9,0.3-4.2-1.6-5.1s-4.2-0.3-5.1,1.6c-0.9,1.9-0.3,4.2,1.6,5.1
					C1786.2,441.9,1788.5,441.2,1789.5,439.3z"/>
				<path id="XMLID_17_" class="st54" d="M1463.2,129c0.9-1.9,0.3-4.2-1.6-5.1s-4.2-0.3-5.1,1.6c-0.9,1.9-0.3,4.2,1.6,5.1
					C1460,131.6,1462.3,130.9,1463.2,129z"/>
				<path id="XMLID_16_" class="st54" d="M1594.2,616.2c0.9-1.9,0.3-4.2-1.6-5.1c-1.9-0.9-4.2-0.3-5.1,1.6c-0.9,1.9-0.3,4.2,1.6,5.1
					C1591,618.7,1593.3,618.1,1594.2,616.2z"/>
				<path id="XMLID_15_" class="st52" d="M1252.5,335.2c-3.2-0.1-5.9,2.4-6,5.6c-0.1,3.2,2.4,5.9,5.6,6c3.2,0.1,5.9-2.4,6-5.6
					C1258.2,338.1,1255.7,335.3,1252.5,335.2z"/>
				<path id="XMLID_14_" class="st52" d="M1298.4,29.4c-3.2-0.1-5.9,2.4-6,5.6c-0.1,3.2,2.4,5.9,5.6,6c3.2,0.1,5.9-2.4,6-5.6
					C1304.1,32.3,1301.6,29.5,1298.4,29.4z"/>
				<path id="XMLID_13_" class="st52" d="M1806.5,508.6c-3.2-0.1-5.9,2.4-6,5.6c-0.1,3.2,2.4,5.9,5.6,6c3.2,0.1,5.9-2.4,6-5.6
					C1812.3,511.4,1809.8,508.7,1806.5,508.6z"/>
				<path id="XMLID_12_" class="st52" d="M1659.7,578c-3.2-0.1-5.9,2.4-6,5.6c-0.1,3.2,2.4,5.9,5.6,6c3.2,0.1,5.9-2.4,6-5.6
					C1665.4,580.9,1662.9,578.2,1659.7,578z"/>
				<path id="XMLID_11_" class="st52" d="M1574.8,667.9c-3.2-0.1-5.9,2.4-6,5.6c-0.1,3.2,2.4,5.9,5.6,6c3.2,0.1,5.9-2.4,6-5.6
					S1578,668,1574.8,667.9z"/>
				<path id="XMLID_10_" class="st52" d="M1539.4,27.9c-3.2-0.1-5.9,2.4-6,5.6s2.4,5.9,5.6,6c3.2,0.1,5.9-2.4,6-5.6
					S1542.7,28,1539.4,27.9z"/>
				<path id="XMLID_9_" class="st52" d="M1320.9,684.5c-3.2-0.1-5.9,2.4-6,5.6c-0.1,3.2,2.4,5.9,5.6,6c3.2,0.1,5.9-2.4,6-5.6
					C1326.7,687.4,1324.2,684.7,1320.9,684.5z"/>
				<path id="XMLID_8_" class="st52" d="M1913.2,183.9c-3.2-0.1-5.9,2.4-6,5.6c-0.1,3.2,2.4,5.9,5.6,6c3.2,0.1,5.9-2.4,6-5.6
					C1918.8,186.8,1916.4,184.1,1913.2,183.9z"/>
			</g>
		</g>
	</g>
</g>
</svg>
