<svg id="Group_4" data-name="Group 4" xmlns="http://www.w3.org/2000/svg" width="36.527" height="31.64" viewBox="0 0 36.527 31.64">
  <path id="Path_45" data-name="Path 45" d="M553.882,579.792a1.008,1.008,0,0,0,1.015,1l17.288-.124a1.007,1.007,0,0,0-.014-2.015l-17.288.124A1.008,1.008,0,0,0,553.882,579.792Z" transform="translate(-538.616 -554.612)" fill="#f2f2f2"/>
  <path id="Path_46" data-name="Path 46" d="M585.789,591.312a.064.064,0,0,1,.064-.064l4.465-.016a.064.064,0,0,1,0,.128h0l-4.465.016A.064.064,0,0,1,585.789,591.312Z" transform="translate(-568.449 -566.373)" fill="#ccc"/>
  <path id="Path_47" data-name="Path 47" d="M585.868,599.578a.064.064,0,0,1,.064-.064l11.5-.068a.064.064,0,0,1,0,.128h0l-11.5.068a.064.064,0,0,1-.064-.064Z" transform="translate(-568.523 -574.053)" fill="#ccc"/>
  <path id="Path_48" data-name="Path 48" d="M553.882,520.792a1.008,1.008,0,0,0,1.015,1l17.288-.124a1.007,1.007,0,0,0-.014-2.015l-17.288.124A1.008,1.008,0,0,0,553.882,520.792Z" transform="translate(-538.616 -499.447)" fill="#f2f2f2"/>
  <path id="Path_49" data-name="Path 49" d="M582.868,540.578a.064.064,0,0,1,.064-.064l11.5-.068a.064.064,0,0,1,0,.128h0l-11.5.068A.064.064,0,0,1,582.868,540.578Z" transform="translate(-565.718 -518.887)" fill="#ccc"/>
  <path id="Path_50" data-name="Path 50" d="M582.868,530.578a.064.064,0,0,1,.064-.064l11.5-.068a.064.064,0,0,1,0,.128h0l-11.5.068A.064.064,0,0,1,582.868,530.578Z" transform="translate(-565.718 -509.537)" fill="#ccc"/>
  <path id="Path_51" data-name="Path 51" d="M368.429,662.778l-17.288-.124a1.007,1.007,0,1,0-.014,2.015l17.288.124a1.007,1.007,0,1,0,.014-2.015Z" transform="translate(-348.103 -633.153)" fill="#f2f2f2"/>
  <path id="Path_52" data-name="Path 52" d="M384.07,675.376l-4.465-.016a.064.064,0,1,1,0-.128l4.465.016a.064.064,0,1,1,0,.128Z" transform="translate(-375.606 -644.913)" fill="#ccc"/>
  <path id="Path_53" data-name="Path 53" d="M391.835,683.641l-11.5-.068a.064.064,0,0,1,0-.128h0l11.5.068a.064.064,0,1,1,0,.128Z" transform="translate(-376.292 -652.593)" fill="#ccc"/>
  <circle id="Ellipse_7" data-name="Ellipse 7" cx="0.455" cy="0.455" r="0.455" transform="translate(35.617 20.809)" fill="#f2f2f2"/>
  <circle id="Ellipse_8" data-name="Ellipse 8" cx="0.455" cy="0.455" r="0.455" transform="translate(35.617 24.644)" fill="#f2f2f2"/>
  <path id="Path_54" data-name="Path 54" d="M366.83,616.787l-12.508,1.874a.785.785,0,0,1-.232-1.552l12.508-1.874a.785.785,0,0,1,.232,1.552Z" transform="translate(-351.184 -588.808)" fill="#6c63ff"/>
  <path id="Path_55" data-name="Path 55" d="M378.6,644.783l-3.229.5a.047.047,0,1,1-.014-.092h0l3.229-.5a.047.047,0,1,1,.014.092Z" transform="translate(-371.661 -616.357)" fill="#fff"/>
  <path id="Path_56" data-name="Path 56" d="M385.154,638.931l-8.316,1.256a.047.047,0,1,1-.014-.092h0l8.316-1.256a.047.047,0,0,1,.014.092Z" transform="translate(-373.028 -610.884)" fill="#fff"/>
  <path id="Path_57" data-name="Path 57" d="M491.032,598.494a.335.335,0,0,1-.308-.408l-1.359-.974.177-.442,1.606,1.168a.335.335,0,0,1-.116.655Z" transform="translate(-478.292 -571.458)" fill="#a0616a"/>
  <path id="Path_58" data-name="Path 58" d="M444.327,540.969l-.817.3a.291.291,0,0,0-.173.373c0,.009.007.017.011.026l1.114,2.324,2.684,1.934.411-.655-2.033-1.851Z" transform="translate(-435.239 -519.377)" fill="#3f3d56"/>
  <path id="Path_59" data-name="Path 59" d="M413.735,595.824c-.931-.087-1.843-.3-2.775-.374l.374-.952,1.912.285Z" transform="translate(-404.982 -569.427)" fill="#a0616a"/>
  <path id="Path_60" data-name="Path 60" d="M399.977,618.347l-.008.071-.067.573-.078,0,0,.717a.334.334,0,0,1-.136.391.268.268,0,0,1-.033.018,3.416,3.416,0,0,1,.042-1.118,1.993,1.993,0,0,1,.133-.4,1.629,1.629,0,0,1,.1-.183C399.942,618.4,399.959,618.372,399.977,618.347Z" transform="translate(-394.384 -591.726)" fill="#2f2e41"/>
  <path id="Path_61" data-name="Path 61" d="M404.271,616.445l-.015.123h0l-.008.071-.043.006H404.2Z" transform="translate(-398.662 -589.947)" fill="#6c63ff"/>
  <path id="Path_62" data-name="Path 62" d="M408.947,532.051l-.161.935s.39.88.122,1.1a.275.275,0,0,0-.089.237l-.113-.01c-.931-.087-1.843-.3-2.775-.374-.066-.005-.132-.01-.2-.013l.287-.817-.194-.726-.2-.753-.043-1.24a.7.7,0,0,1,0-.07c0-.012,0-.024,0-.037a1.051,1.051,0,0,1,.445-.79h0a1.052,1.052,0,0,1,.138-.082,1.021,1.021,0,0,1,.16-.063l.055-.017.3-.483.346-.036.128-.013.836-.087.18.234.033.043.127.164.4.211a.971.971,0,0,1,.234.174.984.984,0,0,1,.284.6.97.97,0,0,1,0,.158Z" transform="translate(-399.953 -507.914)" fill="#3f3d56"/>
  <path id="Path_63" data-name="Path 63" d="M394.735,491.687a1.9,1.9,0,0,0,.328,1.042,1.977,1.977,0,0,1,.275-.51,1.587,1.587,0,0,0,.169,1l.018.012a.623.623,0,0,0,.542.066,1.215,1.215,0,0,1-.1-1.472,1.851,1.851,0,0,0,.25-.375,1.278,1.278,0,0,0-.048-.708.729.729,0,0,1,.091-.639.154.154,0,0,0-.141-.065.291.291,0,0,0-.2.172,1.256,1.256,0,0,1-.128.24,1.118,1.118,0,0,1-.447.231A1.118,1.118,0,0,0,394.735,491.687Z" transform="translate(-389.812 -471.76)" fill="#2f2e41"/>
  <path id="Path_64" data-name="Path 64" d="M417.868,493.232c-.021-.075.127.384.055.393a4.527,4.527,0,0,0-1,.322l-.03,0c-.024,0-.048-.007-.071-.011-.528-.1-.731-.91-.731-.918,0-.036.087-1.037.225-1.052a1.007,1.007,0,0,1,.109-.006h.342a1.585,1.585,0,0,1,.215-.031h0c.688-.052,1.231.367,1.18.877v0c-.015.022-.028.043-.039.063s-.02.036-.029.053c-.063.13.1.294-.008.325-.142.041.374,1.379-.189,1.379C418.172,494.7,417.928,493.439,417.868,493.232Z" transform="translate(-409.782 -473.516)" fill="#2f2e41"/>
  <circle id="Ellipse_9" data-name="Ellipse 9" cx="0.809" cy="0.809" r="0.809" transform="translate(6.663 18.882)" fill="#a0616a"/>
  <path id="Path_65" data-name="Path 65" d="M415.094,492.625l-.04.02-.042.02c-.271.123-.492.137-.625-.04a.748.748,0,0,0-.062-.27.433.433,0,0,1-.071.27h-.27c-.278.184-.42.2-.228.808a4.3,4.3,0,0,1,.183,1.295c-.024,0-.283-1.077-.306-1.081-.528-.1-.863-.969-.82-1.018a.906.906,0,0,1,.094-.4.927.927,0,0,1,.352-.383,1.634,1.634,0,0,1,.282-.106l.007,0c.03-.008.06-.015.09-.022a1.664,1.664,0,0,1,.19-.029h.013a.143.143,0,0,1,.072.02h0a.137.137,0,0,1,.04.036.138.138,0,0,1,.029.086h.333a.8.8,0,0,1,.776.757C415.094,492.6,415.094,492.611,415.094,492.625Z" transform="translate(-406.713 -473.295)" fill="#2f2e41"/>
  <circle id="Ellipse_10" data-name="Ellipse 10" cx="0.533" cy="0.533" r="0.533" transform="translate(6.079 18.005)" fill="#2f2e41"/>
  <path id="Path_66" data-name="Path 66" d="M393.132,611.192l-.033.018a.335.335,0,0,1-.3-.6l.017-.008v-1.672l.462-.114-.005.88,0,.389,0,.717A.334.334,0,0,1,393.132,611.192Z" transform="translate(-387.831 -582.813)" fill="#a0616a"/>
  <path id="Path_67" data-name="Path 67" d="M394.415,541.541l-.048.09-1.207,2.244-.036.067-.171,1.471-.057.493-.015.123h0l-.008.071-.067.573-.078,0-.131.009-.322.02-.241.015v-.386l0-2.922.877-1.6.021-.039.339-.619a.292.292,0,0,1,.4-.116l.023.014Z" transform="translate(-387.288 -519.408)" fill="#3f3d56"/>
  <circle id="Ellipse_11" data-name="Ellipse 11" cx="0.455" cy="0.455" r="0.455" transform="translate(0 29.843)" fill="#f2f2f2"/>
  <path id="Path_68" data-name="Path 68" d="M751.741,402.088s-.165,1.746-.256,3.039h0q-.011.156-.02.3l-.049,0-.1.01c-.532.057-1.058.15-1.586.232l-.153.023a9.891,9.891,0,0,1-1.594.129h-.01c0-.067.011-.154.018-.253.045-.565.135-1.545.135-1.545l.084-.567.275-1.858,0-.014,0-.016.013,0,.578-.15.311-.08.181-.249.241-.332,1,.123.073.273.135.5,0,.016.525.3Z" transform="translate(-720.093 -388.28)" fill="#e6e6e6"/>
  <circle id="Ellipse_12" data-name="Ellipse 12" cx="1.06" cy="1.06" r="1.06" transform="translate(29.16 10.251)" fill="#ffb6b6"/>
  <path id="Path_69" data-name="Path 69" d="M766.865,362.614c.093.075.072.441.175.381s.125-.166.245-.168a.391.391,0,0,1,.258.117l.037.035.033-.01a.337.337,0,0,1,.247.035.331.331,0,0,0-.188.076c.023.026.046.051.07.075.2.2.619-.013.9-.061-.233.255-.187.4-.129.737v.019c.012-.078.263-.075.222.03a1.34,1.34,0,0,1-.194.285,1.5,1.5,0,0,0,.68-.959.58.58,0,0,0,.013-.249.191.191,0,0,0-.182-.145.7.7,0,0,0-.865-.887,2.691,2.691,0,0,0-.325.14.585.585,0,0,1-.344.058.462.462,0,0,0-.22-.032c-.083.025-.119.113-.153.2a.336.336,0,0,1,.157.118.329.329,0,0,0-.2-.008h0C767.018,362.536,767.014,362.57,766.865,362.614Z" transform="translate(-737.756 -351.944)" fill="#2f2e41"/>
  <path id="Path_70" data-name="Path 70" d="M749.874,409.931l-.153.023a9.891,9.891,0,0,1-1.594.129c0-.084.006-.169.009-.253,0-.118.006-.237.008-.356l.033-1.616c0-.026,0-.052,0-.078a4.033,4.033,0,0,1,.252-1.6,1.633,1.633,0,0,1,.192-.318l.011-.015.016-.02a1.584,1.584,0,0,1,.2-.209,1.162,1.162,0,0,1,.845-.306l.023.035.03.047c-.02.149-.04.3-.059.447a8.55,8.55,0,0,0-.075,1.946c.056.544.2,1.077.246,1.622,0,.018,0,.037,0,.055A4.525,4.525,0,0,1,749.874,409.931Z" transform="translate(-720.237 -392.534)" fill="#3f3d56"/>
  <path id="Path_71" data-name="Path 71" d="M774.488,411.081c.023-.1.045-.2.069-.306h0l.272-1.217a4.02,4.02,0,0,0,.136-1.616,1.609,1.609,0,0,0-.04-.163c-.005-.018-.011-.035-.017-.053a1.619,1.619,0,0,0-.166-.351,1.194,1.194,0,0,0-.781-.572l-.019,0-.072.067c-.015.138-.029.278-.045.417a8.628,8.628,0,0,1-.393,1.939c-.19.533-.468,1.031-.641,1.57l0,.009a4.605,4.605,0,0,0-.138.546l.153-.023c.528-.081,1.054-.175,1.586-.231Z" transform="translate(-743.165 -393.926)" fill="#3f3d56"/>
  <path id="Path_72" data-name="Path 72" d="M804.364,334.584l-.03-.292-.007-.068-.011-.108-.235-2.253a.307.307,0,0,0-.135-.35.294.294,0,0,0-.4.1l0,.007a.3.3,0,0,0,.151.437l0,.063-.006.2,0,.15-.009.3,0,.116-.011.375-.01.361-.013.438-.01.337.121.031Z" transform="translate(-772.008 -323.496)" fill="#ffb6b6"/>
  <path id="Path_73" data-name="Path 73" d="M802.314,372.269a.532.532,0,0,0-.028-.115c-.061-.107-.1.042-.065-.243.027-.232-.135-.2-.077-.252.1-.082-.037-.118-.1-.162-.026-.02-.037-.04-.007-.068a.2.2,0,0,1,.047-.03c.064-.033.027-.058-.058-.078a4.015,4.015,0,0,0-.576-.054l-.108,0h-.028a.191.191,0,0,0-.058.119.663.663,0,0,0,.022.289,1.019,1.019,0,0,0,.077.187.135.135,0,0,1,.016.073h0a.105.105,0,0,1-.055.07c-.064.043-.029.133.021.217a.962.962,0,0,1,.107.183c0,.058-.4,1.3-.4,1.3l.146,1.877a.522.522,0,0,0,.379.105.561.561,0,0,0,.3-.152,1.324,1.324,0,0,0,.276-.391A6.2,6.2,0,0,0,802.314,372.269Z" transform="translate(-769.724 -360.701)" fill="#3f3d56"/>
  <path id="Path_74" data-name="Path 74" d="M703.314,338.676a.308.308,0,0,1,.146.4.292.292,0,0,1-.024.042l1.368,1.894-.509.574L703,339.18a.307.307,0,0,1-.085-.365.294.294,0,0,1,.391-.142Z" transform="translate(-677.938 -330.202)" fill="#ffb6b6"/>
  <path id="Path_75" data-name="Path 75" d="M723.417,374.13s-.183.654-1.036.174a6.269,6.269,0,0,1-1.786-2.4c-.009-.123.105-.021-.082-.238-.153-.176,0-.244-.078-.252-.2-.022.148-.276-.1-.247s.56-.545.56-.545.147,0,.26.317c.063.176,0,.3.154.3s.086.356.118.4,1.058.854,1.058.854Z" transform="translate(-694.206 -360.104)" fill="#3f3d56"/>
  <circle id="Ellipse_13" data-name="Ellipse 13" cx="4.945" cy="4.945" r="4.945" transform="translate(23.131 0)" fill="#6c63ff"/>
  <path id="Path_76" data-name="Path 76" d="M696.871,259.935a1.36,1.36,0,0,1,.117.309.643.643,0,0,1-.134.659.3.3,0,0,1-.05.033c-.193.1-.459-.006-.673-.244a1.36,1.36,0,0,1-.187-.272,1.329,1.329,0,0,1-.116-.306c-.075-.312-.011-.593.182-.695C696.267,259.285,696.652,259.516,696.871,259.935Z" transform="translate(-671.307 -256.09)" fill="#fff"/>
  <path id="Path_77" data-name="Path 77" d="M697.23,269.812a.711.711,0,0,1,.065.485.3.3,0,0,1-.05.033c-.193.1-.459-.006-.672-.244a1.357,1.357,0,0,1-.187-.272,1.327,1.327,0,0,1-.116-.306A.714.714,0,0,1,697.23,269.812Z" transform="translate(-671.748 -265.485)" fill="#3f3d56"/>
  <path id="Path_78" data-name="Path 78" d="M726.407,244.489c.21.4.191.831-.037.983l-.03.018c-.256.134-.641-.1-.86-.516a1.322,1.322,0,0,1-.116-.305c-.075-.313-.011-.594.182-.7C725.8,243.839,726.188,244.07,726.407,244.489Z" transform="translate(-698.924 -241.648)" fill="#fff"/>
  <path id="Path_79" data-name="Path 79" d="M726.75,254.522a.712.712,0,0,1,.064.49l-.03.018c-.256.134-.641-.1-.86-.516a1.325,1.325,0,0,1-.116-.305A.714.714,0,0,1,726.75,254.522Z" transform="translate(-699.368 -251.188)" fill="#3f3d56"/>
  <path id="Path_80" data-name="Path 80" d="M708.581,289.513a1.741,1.741,0,1,0,2.937-1.536A3.6,3.6,0,0,1,708.581,289.513Z" transform="translate(-683.26 -282.828)" fill="#fff"/>
  <path id="Path_81" data-name="Path 81" d="M745.985,211.506a4.947,4.947,0,0,0-5.039-2.611,4.945,4.945,0,0,1,.015,9.8,4.944,4.944,0,0,0,5.024-7.194Z" transform="translate(-713.521 -208.846)" opacity="0.2"/>
</svg>
