<?xml version="1.0" encoding="utf-8"?>
<!-- Generator: Adobe Illustrator 27.0.0, SVG Export Plug-In . SVG Version: 6.00 Build 0)  -->
<svg version="1.1" id="BACKGROUND_2" xmlns="http://www.w3.org/2000/svg" xmlns:xlink="http://www.w3.org/1999/xlink" x="0px"
	 y="0px" viewBox="0 0 750 500" style="enable-background:new 0 0 750 500;" xml:space="preserve">
<style type="text/css">
	.st0{fill:none;stroke:#1F1F7A;stroke-width:0.25;stroke-miterlimit:10;}
	.st1{fill:none;stroke:#101011;stroke-width:0.25;stroke-miterlimit:10;}
	.st2{fill:none;stroke:#00CEB5;stroke-width:1.2;stroke-linecap:round;stroke-linejoin:round;}
	.st3{fill:none;stroke:#101011;stroke-width:1.38;stroke-linecap:round;stroke-linejoin:round;}
	.st4{fill:none;stroke:#00CEB5;stroke-linecap:round;stroke-linejoin:round;}
	.st5{fill:none;stroke:#101011;stroke-linecap:round;stroke-linejoin:round;}
	.st6{fill:#101011;}
	.st7{fill:#00CEB5;}
	.st8{fill:none;stroke:#101011;stroke-width:0.25;stroke-linecap:round;stroke-linejoin:round;}
	.st9{fill:none;stroke:#FFFFFF;stroke-width:0.25;stroke-miterlimit:10;}
	.st10{fill:none;stroke:#00CEB5;stroke-width:0.48;stroke-linecap:round;stroke-linejoin:round;}
	.st11{fill:none;stroke:#26267F;stroke-width:0.25;stroke-miterlimit:10;}
	.st12{fill:none;stroke:#3D3D89;stroke-width:1.35;stroke-miterlimit:10;}
	.st13{fill:none;stroke:#2F2F77;stroke-width:1.35;stroke-miterlimit:10;}
	.st14{fill:none;stroke:#00CEB5;stroke-width:0.64;stroke-linecap:round;stroke-linejoin:round;}
	.st15{fill:none;stroke:#22226D;stroke-width:0.25;stroke-miterlimit:10;}
	.st16{fill:none;stroke:#31317A;stroke-linecap:round;stroke-linejoin:round;}
	.st17{clip-path:url(#SVGID_00000031201442231542782160000004978265129789906351_);}
	.st18{clip-path:url(#SVGID_00000145741103312355028870000016887438546812427419_);}
	.st19{fill:none;stroke:#101011;stroke-width:0.76;stroke-miterlimit:10;}
	.st20{fill:none;stroke:#101011;stroke-width:1.03;stroke-linecap:round;stroke-linejoin:round;}
	.st21{fill:none;stroke:#00CEB5;stroke-width:2;stroke-linecap:round;stroke-linejoin:round;}
	.st22{fill:none;stroke:#00CEB5;stroke-width:0.25;stroke-miterlimit:10;}
	.st23{fill:none;stroke:#00CEB5;stroke-miterlimit:10;}
	.st24{fill:none;stroke:#00CEB5;stroke-width:0.55;stroke-linecap:round;stroke-linejoin:round;}
	.st25{fill:none;stroke:#101011;stroke-width:0.55;stroke-linecap:round;stroke-linejoin:round;}
	.st26{fill:none;stroke:#00CEB5;stroke-width:0.8;stroke-linecap:round;stroke-linejoin:round;}
	.st27{fill:none;stroke:#00CEB5;stroke-width:0.71;stroke-miterlimit:10;}
	.st28{fill:none;stroke:#101011;stroke-miterlimit:10;}
</style>
<g>
	<polyline class="st0" points="71.7,94 87.7,102.8 103.7,94 119.7,102.8 135.8,94 151.8,102.8 167.8,94 	"/>
	<polyline class="st0" points="71.7,101.7 87.7,110.5 103.7,101.7 119.7,110.5 135.8,101.7 151.8,110.5 167.8,101.7 	"/>
	<polyline class="st0" points="71.7,109.3 87.7,118.2 103.7,109.3 119.7,118.2 135.8,109.3 151.8,118.2 167.8,109.3 	"/>
	<polyline class="st0" points="71.7,117 87.7,125.8 103.7,117 119.7,125.8 135.8,117 151.8,125.8 167.8,117 	"/>
</g>
<g>
	<polyline class="st1" points="237.2,301.9 253.4,314.4 269.6,301.9 285.8,314.4 302.1,301.9 318.3,314.4 334.5,301.9 	"/>
	<polyline class="st1" points="237.2,312.8 253.4,325.2 269.6,312.8 285.8,325.2 302.1,312.8 318.3,325.2 334.5,312.8 	"/>
	<polyline class="st2" points="237.2,323.6 253.4,336.1 269.6,323.6 285.8,336.1 302.1,323.6 318.3,336.1 334.5,323.6 	"/>
	<polyline class="st2" points="237.2,334.5 253.4,346.9 269.6,334.5 285.8,346.9 302.1,334.5 318.3,346.9 334.5,334.5 	"/>
</g>
<path class="st3" d="M496.4,298.5c4.5,3.8,10.1,3.8,14.6,0l0,0c4.5-3.8,10.1-3.8,14.6,0l0,0c4.5,3.8,10.1,3.8,14.6,0l0,0
	c4.5-3.8,10.1-3.8,14.6,0l0,0c4.5,3.8,10.1,3.8,14.6,0"/>
<path class="st1" d="M279.3,131.1c0.5,5.8,4.3,9.6,10.1,10.1l0,0c5.8,0.5,9.6,4.3,10.1,10.1l0,0c0.5,5.8,4.3,9.6,10.1,10.1l0,0
	c5.8,0.5,9.6,4.3,10.1,10.1l0,0c0.5,5.8,4.3,9.6,10.1,10.1"/>
<path class="st4" d="M442-18.7c0.4,4.3,3.2,7.1,7.5,7.5l0,0c4.3,0.4,7.1,3.2,7.5,7.5l0,0c0.4,4.3,3.2,7.1,7.5,7.5l0,0
	c4.3,0.4,7.1,3.2,7.5,7.5l0,0c0.4,4.3,3.2,7.1,7.5,7.5"/>
<path class="st4" d="M640.5,481.3c0.4,4.3,3.2,7.1,7.5,7.5l0,0c4.3,0.4,7.1,3.2,7.5,7.5l0,0c0.4,4.3,3.2,7.1,7.5,7.5l0,0
	c4.3,0.4,7.1,3.2,7.5,7.5l0,0c0.4,4.3,3.2,7.1,7.5,7.5"/>
<path class="st4" d="M237.2,473.2c3.3,2.8,7.3,2.8,10.6,0l0,0c3.3-2.8,7.3-2.8,10.6,0l0,0c3.3,2.8,7.3,2.8,10.6,0l0,0
	c3.3-2.8,7.3-2.8,10.6,0l0,0c3.3,2.8,7.3,2.8,10.6,0"/>
<path class="st4" d="M-26.5,27c3.3,2.8,7.3,2.8,10.6,0l0,0c3.3-2.8,7.3-2.8,10.6,0l0,0C-2,29.8,2,29.8,5.3,27l0,0
	c3.3-2.8,7.3-2.8,10.6,0l0,0c3.3,2.8,7.3,2.8,10.6,0"/>
<path class="st4" d="M694.7,61.8c5.2,4.3,11.5,4.3,16.7,0l0,0c5.2-4.3,11.5-4.3,16.7,0l0,0c5.2,4.3,11.5,4.3,16.7,0l0,0
	c5.2-4.3,11.5-4.3,16.7,0l0,0c5.2,4.3,11.5,4.3,16.7,0"/>
<g>
	<polyline class="st5" points="722.2,322.5 713.3,338.5 722.2,354.6 713.3,370.6 722.2,386.6 713.3,402.6 722.2,418.7 	"/>
	<polyline class="st5" points="714.5,322.5 705.7,338.5 714.5,354.6 705.7,370.6 714.5,386.6 705.7,402.6 714.5,418.7 	"/>
	<polyline class="st5" points="706.8,322.5 698,338.5 706.8,354.6 698,370.6 706.8,386.6 698,402.6 706.8,418.7 	"/>
	<polyline class="st5" points="699.1,322.5 690.3,338.5 699.1,354.6 690.3,370.6 699.1,386.6 690.3,402.6 699.1,418.7 	"/>
</g>
<g>
	<g>
		<path class="st1" d="M550.8,83.7c0,0.4-0.3,0.7-0.7,0.7s-0.7-0.3-0.7-0.7s0.3-0.7,0.7-0.7S550.8,83.3,550.8,83.7z"/>
		<circle class="st1" cx="554.6" cy="83.7" r="0.7"/>
		<circle class="st1" cx="559" cy="83.7" r="0.7"/>
		<circle class="st1" cx="563.5" cy="83.7" r="0.7"/>
		<circle class="st1" cx="568" cy="83.7" r="0.7"/>
		<circle class="st1" cx="572.5" cy="83.7" r="0.7"/>
		<circle class="st1" cx="576.9" cy="83.7" r="0.7"/>
		<path class="st1" d="M582.1,83.7c0,0.4-0.3,0.7-0.7,0.7s-0.7-0.3-0.7-0.7s0.3-0.7,0.7-0.7S582.1,83.3,582.1,83.7z"/>
	</g>
	<g>
		<path class="st1" d="M550.8,79.5c0,0.4-0.3,0.7-0.7,0.7s-0.7-0.3-0.7-0.7s0.3-0.7,0.7-0.7S550.8,79.1,550.8,79.5z"/>
		<circle class="st1" cx="554.6" cy="79.5" r="0.7"/>
		<circle class="st1" cx="559" cy="79.5" r="0.7"/>
		<circle class="st1" cx="563.5" cy="79.5" r="0.7"/>
		<circle class="st1" cx="568" cy="79.5" r="0.7"/>
		<circle class="st1" cx="572.5" cy="79.5" r="0.7"/>
		<circle class="st1" cx="576.9" cy="79.5" r="0.7"/>
		<path class="st1" d="M582.1,79.5c0,0.4-0.3,0.7-0.7,0.7s-0.7-0.3-0.7-0.7s0.3-0.7,0.7-0.7S582.1,79.1,582.1,79.5z"/>
	</g>
	<g>
		<path class="st1" d="M550.8,75.3c0,0.4-0.3,0.7-0.7,0.7s-0.7-0.3-0.7-0.7c0-0.4,0.3-0.7,0.7-0.7S550.8,74.9,550.8,75.3z"/>
		<circle class="st1" cx="554.6" cy="75.3" r="0.7"/>
		<circle class="st1" cx="559" cy="75.3" r="0.7"/>
		<circle class="st1" cx="563.5" cy="75.3" r="0.7"/>
		<circle class="st1" cx="568" cy="75.3" r="0.7"/>
		<circle class="st1" cx="572.5" cy="75.3" r="0.7"/>
		<circle class="st1" cx="576.9" cy="75.3" r="0.7"/>
		<path class="st1" d="M582.1,75.3c0,0.4-0.3,0.7-0.7,0.7s-0.7-0.3-0.7-0.7c0-0.4,0.3-0.7,0.7-0.7S582.1,74.9,582.1,75.3z"/>
	</g>
	<g>
		<path class="st1" d="M550.8,71.1c0,0.4-0.3,0.7-0.7,0.7s-0.7-0.3-0.7-0.7s0.3-0.7,0.7-0.7S550.8,70.7,550.8,71.1z"/>
		<path class="st1" d="M555.3,71.1c0,0.4-0.3,0.7-0.7,0.7s-0.7-0.3-0.7-0.7s0.3-0.7,0.7-0.7S555.3,70.7,555.3,71.1z"/>
		<path class="st1" d="M559.7,71.1c0,0.4-0.3,0.7-0.7,0.7s-0.7-0.3-0.7-0.7s0.3-0.7,0.7-0.7S559.7,70.7,559.7,71.1z"/>
		<path class="st1" d="M564.2,71.1c0,0.4-0.3,0.7-0.7,0.7c-0.4,0-0.7-0.3-0.7-0.7s0.3-0.7,0.7-0.7C563.9,70.4,564.2,70.7,564.2,71.1
			z"/>
		<path class="st1" d="M568.7,71.1c0,0.4-0.3,0.7-0.7,0.7s-0.7-0.3-0.7-0.7s0.3-0.7,0.7-0.7S568.7,70.7,568.7,71.1z"/>
		<path class="st1" d="M573.2,71.1c0,0.4-0.3,0.7-0.7,0.7s-0.7-0.3-0.7-0.7s0.3-0.7,0.7-0.7S573.2,70.7,573.2,71.1z"/>
		<path class="st1" d="M577.6,71.1c0,0.4-0.3,0.7-0.7,0.7s-0.7-0.3-0.7-0.7s0.3-0.7,0.7-0.7S577.6,70.7,577.6,71.1z"/>
		<path class="st1" d="M582.1,71.1c0,0.4-0.3,0.7-0.7,0.7s-0.7-0.3-0.7-0.7s0.3-0.7,0.7-0.7S582.1,70.7,582.1,71.1z"/>
	</g>
	<g>
		<path class="st1" d="M550.8,66.8c0,0.4-0.3,0.7-0.7,0.7s-0.7-0.3-0.7-0.7c0-0.4,0.3-0.7,0.7-0.7S550.8,66.5,550.8,66.8z"/>
		<path class="st1" d="M555.3,66.8c0,0.4-0.3,0.7-0.7,0.7s-0.7-0.3-0.7-0.7c0-0.4,0.3-0.7,0.7-0.7S555.3,66.5,555.3,66.8z"/>
		<path class="st1" d="M559.7,66.8c0,0.4-0.3,0.7-0.7,0.7s-0.7-0.3-0.7-0.7c0-0.4,0.3-0.7,0.7-0.7S559.7,66.5,559.7,66.8z"/>
		<path class="st1" d="M564.2,66.8c0,0.4-0.3,0.7-0.7,0.7c-0.4,0-0.7-0.3-0.7-0.7c0-0.4,0.3-0.7,0.7-0.7
			C563.9,66.1,564.2,66.5,564.2,66.8z"/>
		<path class="st1" d="M568.7,66.8c0,0.4-0.3,0.7-0.7,0.7s-0.7-0.3-0.7-0.7c0-0.4,0.3-0.7,0.7-0.7S568.7,66.5,568.7,66.8z"/>
		<path class="st1" d="M573.2,66.8c0,0.4-0.3,0.7-0.7,0.7s-0.7-0.3-0.7-0.7c0-0.4,0.3-0.7,0.7-0.7S573.2,66.5,573.2,66.8z"/>
		<path class="st1" d="M577.6,66.8c0,0.4-0.3,0.7-0.7,0.7s-0.7-0.3-0.7-0.7c0-0.4,0.3-0.7,0.7-0.7S577.6,66.5,577.6,66.8z"/>
		<path class="st1" d="M582.1,66.8c0,0.4-0.3,0.7-0.7,0.7s-0.7-0.3-0.7-0.7c0-0.4,0.3-0.7,0.7-0.7S582.1,66.5,582.1,66.8z"/>
	</g>
	<g>
		<path class="st1" d="M550.8,62.6c0,0.4-0.3,0.7-0.7,0.7s-0.7-0.3-0.7-0.7s0.3-0.7,0.7-0.7S550.8,62.2,550.8,62.6z"/>
		<path class="st1" d="M555.3,62.6c0,0.4-0.3,0.7-0.7,0.7s-0.7-0.3-0.7-0.7s0.3-0.7,0.7-0.7S555.3,62.2,555.3,62.6z"/>
		<path class="st1" d="M559.7,62.6c0,0.4-0.3,0.7-0.7,0.7s-0.7-0.3-0.7-0.7s0.3-0.7,0.7-0.7S559.7,62.2,559.7,62.6z"/>
		<path class="st1" d="M564.2,62.6c0,0.4-0.3,0.7-0.7,0.7c-0.4,0-0.7-0.3-0.7-0.7s0.3-0.7,0.7-0.7C563.9,61.9,564.2,62.2,564.2,62.6
			z"/>
		<path class="st1" d="M568.7,62.6c0,0.4-0.3,0.7-0.7,0.7s-0.7-0.3-0.7-0.7s0.3-0.7,0.7-0.7S568.7,62.2,568.7,62.6z"/>
		<path class="st1" d="M573.2,62.6c0,0.4-0.3,0.7-0.7,0.7s-0.7-0.3-0.7-0.7s0.3-0.7,0.7-0.7S573.2,62.2,573.2,62.6z"/>
		<path class="st1" d="M577.6,62.6c0,0.4-0.3,0.7-0.7,0.7s-0.7-0.3-0.7-0.7s0.3-0.7,0.7-0.7S577.6,62.2,577.6,62.6z"/>
		<path class="st1" d="M582.1,62.6c0,0.4-0.3,0.7-0.7,0.7s-0.7-0.3-0.7-0.7s0.3-0.7,0.7-0.7S582.1,62.2,582.1,62.6z"/>
	</g>
	<g>
		<path class="st1" d="M550.8,58.4c0,0.4-0.3,0.7-0.7,0.7s-0.7-0.3-0.7-0.7s0.3-0.7,0.7-0.7S550.8,58,550.8,58.4z"/>
		<circle class="st1" cx="554.6" cy="58.4" r="0.7"/>
		<circle class="st1" cx="559" cy="58.4" r="0.7"/>
		<circle class="st1" cx="563.5" cy="58.4" r="0.7"/>
		<circle class="st1" cx="568" cy="58.4" r="0.7"/>
		<circle class="st1" cx="572.5" cy="58.4" r="0.7"/>
		<circle class="st1" cx="576.9" cy="58.4" r="0.7"/>
		<path class="st1" d="M582.1,58.4c0,0.4-0.3,0.7-0.7,0.7s-0.7-0.3-0.7-0.7s0.3-0.7,0.7-0.7S582.1,58,582.1,58.4z"/>
	</g>
</g>
<g>
	<g>
		<path class="st6" d="M615,288.7c-0.4,0.4-0.9,0.4-1.3,0s-0.4-0.9,0-1.3s0.9-0.4,1.3,0S615.4,288.3,615,288.7z"/>
		<path class="st6" d="M619.2,292.9c-0.4,0.4-0.9,0.4-1.3,0s-0.4-0.9,0-1.3s0.9-0.4,1.3,0S619.5,292.5,619.2,292.9z"/>
		<path class="st6" d="M623.3,297c-0.4,0.4-0.9,0.4-1.3,0s-0.4-0.9,0-1.3s0.9-0.4,1.3,0S623.7,296.7,623.3,297z"/>
		<path class="st6" d="M627.5,301.2c-0.4,0.4-0.9,0.4-1.3,0s-0.4-0.9,0-1.3s0.9-0.4,1.3,0S627.9,300.8,627.5,301.2z"/>
		<path class="st6" d="M631.7,305.4c-0.4,0.4-0.9,0.4-1.3,0s-0.4-0.9,0-1.3s0.9-0.4,1.3,0S632,305,631.7,305.4z"/>
		<path class="st6" d="M635.8,309.5c-0.4,0.4-0.9,0.4-1.3,0s-0.4-0.9,0-1.3s0.9-0.4,1.3,0S636.2,309.2,635.8,309.5z"/>
		<path class="st6" d="M640,313.7c-0.4,0.4-0.9,0.4-1.3,0s-0.4-0.9,0-1.3s0.9-0.4,1.3,0S640.4,313.3,640,313.7z"/>
		<path class="st6" d="M644.2,317.8c-0.4,0.4-0.9,0.4-1.3,0s-0.4-0.9,0-1.3s0.9-0.4,1.3,0S644.5,317.5,644.2,317.8z"/>
	</g>
	<g>
		<path class="st6" d="M618.9,284.8c-0.4,0.4-0.9,0.4-1.3,0s-0.4-0.9,0-1.3s0.9-0.4,1.3,0S619.3,284.4,618.9,284.8z"/>
		<path class="st6" d="M623.1,288.9c-0.4,0.4-0.9,0.4-1.3,0s-0.4-0.9,0-1.3s0.9-0.4,1.3,0S623.5,288.6,623.1,288.9z"/>
		<path class="st6" d="M627.3,293.1c-0.4,0.4-0.9,0.4-1.3,0s-0.4-0.9,0-1.3s0.9-0.4,1.3,0S627.6,292.7,627.3,293.1z"/>
		<path class="st6" d="M631.4,297.2c-0.4,0.4-0.9,0.4-1.3,0s-0.4-0.9,0-1.3s0.9-0.4,1.3,0S631.8,296.9,631.4,297.2z"/>
		<path class="st6" d="M635.6,301.4c-0.4,0.4-0.9,0.4-1.3,0s-0.4-0.9,0-1.3s0.9-0.4,1.3,0S636,301.1,635.6,301.4z"/>
		<path class="st6" d="M639.8,305.6c-0.4,0.4-0.9,0.4-1.3,0s-0.4-0.9,0-1.3s0.9-0.4,1.3,0S640.1,305.2,639.8,305.6z"/>
		<path class="st6" d="M643.9,309.7c-0.4,0.4-0.9,0.4-1.3,0s-0.4-0.9,0-1.3s0.9-0.4,1.3,0S644.3,309.4,643.9,309.7z"/>
		<path class="st6" d="M648.1,313.9c-0.4,0.4-0.9,0.4-1.3,0s-0.4-0.9,0-1.3s0.9-0.4,1.3,0S648.5,313.6,648.1,313.9z"/>
	</g>
	<g>
		<path class="st6" d="M622.9,280.8c-0.4,0.4-0.9,0.4-1.3,0s-0.4-0.9,0-1.3s0.9-0.4,1.3,0S623.2,280.5,622.9,280.8z"/>
		<circle class="st6" cx="626.4" cy="284.3" r="0.9"/>
		<circle class="st6" cx="630.5" cy="288.5" r="0.9"/>
		<circle class="st6" cx="634.7" cy="292.7" r="0.9"/>
		<circle class="st6" cx="638.9" cy="296.8" r="0.9"/>
		<circle class="st6" cx="643" cy="301" r="0.9"/>
		<circle class="st6" cx="647.2" cy="305.2" r="0.9"/>
		<circle class="st6" cx="651.4" cy="309.3" r="0.9"/>
	</g>
	<g>
		<path class="st6" d="M626.8,276.9c-0.4,0.4-0.9,0.4-1.3,0s-0.4-0.9,0-1.3s0.9-0.4,1.3,0S627.2,276.5,626.8,276.9z"/>
		<path class="st6" d="M631,281.1c-0.4,0.4-0.9,0.4-1.3,0s-0.4-0.9,0-1.3s0.9-0.4,1.3,0S631.3,280.7,631,281.1z"/>
		<path class="st6" d="M635.1,285.2c-0.4,0.4-0.9,0.4-1.3,0s-0.4-0.9,0-1.3s0.9-0.4,1.3,0S635.5,284.9,635.1,285.2z"/>
		<path class="st6" d="M639.3,289.4c-0.4,0.4-0.9,0.4-1.3,0s-0.4-0.9,0-1.3s0.9-0.4,1.3,0S639.7,289,639.3,289.4z"/>
		<path class="st6" d="M643.5,293.5c-0.4,0.4-0.9,0.4-1.3,0s-0.4-0.9,0-1.3s0.9-0.4,1.3,0S643.8,293.2,643.5,293.5z"/>
		<path class="st6" d="M647.6,297.7c-0.4,0.4-0.9,0.4-1.3,0s-0.4-0.9,0-1.3s0.9-0.4,1.3,0S648,297.4,647.6,297.7z"/>
		<path class="st6" d="M651.8,301.9c-0.4,0.4-0.9,0.4-1.3,0s-0.4-0.9,0-1.3s0.9-0.4,1.3,0S652.1,301.5,651.8,301.9z"/>
		<path class="st6" d="M656,306c-0.4,0.4-0.9,0.4-1.3,0s-0.4-0.9,0-1.3s0.9-0.4,1.3,0S656.3,305.7,656,306z"/>
	</g>
	<g>
		<path class="st6" d="M630.7,273c-0.4,0.4-0.9,0.4-1.3,0s-0.4-0.9,0-1.3s0.9-0.4,1.3,0S631.1,272.6,630.7,273z"/>
		<path class="st6" d="M634.9,277.1c-0.4,0.4-0.9,0.4-1.3,0s-0.4-0.9,0-1.3s0.9-0.4,1.3,0S635.3,276.8,634.9,277.1z"/>
		<path class="st6" d="M639.1,281.3c-0.4,0.4-0.9,0.4-1.3,0s-0.4-0.9,0-1.3s0.9-0.4,1.3,0S639.4,280.9,639.1,281.3z"/>
		<path class="st6" d="M643.2,285.5c-0.4,0.4-0.9,0.4-1.3,0s-0.4-0.9,0-1.3s0.9-0.4,1.3,0S643.6,285.1,643.2,285.5z"/>
		<path class="st6" d="M647.4,289.6c-0.4,0.4-0.9,0.4-1.3,0s-0.4-0.9,0-1.3s0.9-0.4,1.3,0S647.8,289.3,647.4,289.6z"/>
		<path class="st6" d="M651.6,293.8c-0.4,0.4-0.9,0.4-1.3,0s-0.4-0.9,0-1.3s0.9-0.4,1.3,0S651.9,293.4,651.6,293.8z"/>
		<path class="st6" d="M655.7,298c-0.4,0.4-0.9,0.4-1.3,0s-0.4-0.9,0-1.3s0.9-0.4,1.3,0S656.1,297.6,655.7,298z"/>
		<path class="st6" d="M659.9,302.1c-0.4,0.4-0.9,0.4-1.3,0s-0.4-0.9,0-1.3s0.9-0.4,1.3,0S660.2,301.8,659.9,302.1z"/>
	</g>
	<g>
		<circle class="st6" cx="634" cy="268.4" r="0.9"/>
		<circle class="st6" cx="638.2" cy="272.5" r="0.9"/>
		<circle class="st6" cx="642.3" cy="276.7" r="0.9"/>
		<circle class="st6" cx="646.5" cy="280.9" r="0.9"/>
		<circle class="st6" cx="650.7" cy="285" r="0.9"/>
		<circle class="st6" cx="654.8" cy="289.2" r="0.9"/>
		<circle class="st6" cx="659" cy="293.4" r="0.9"/>
		<circle class="st6" cx="663.2" cy="297.5" r="0.9"/>
	</g>
	<g>
		<path class="st6" d="M638.6,265.1c-0.4,0.4-0.9,0.4-1.3,0s-0.4-0.9,0-1.3s0.9-0.4,1.3,0S639,264.7,638.6,265.1z"/>
		<path class="st6" d="M642.8,269.3c-0.4,0.4-0.9,0.4-1.3,0s-0.4-0.9,0-1.3s0.9-0.4,1.3,0S643.1,268.9,642.8,269.3z"/>
		<path class="st6" d="M646.9,273.4c-0.4,0.4-0.9,0.4-1.3,0s-0.4-0.9,0-1.3s0.9-0.4,1.3,0S647.3,273.1,646.9,273.4z"/>
		<path class="st6" d="M651.1,277.6c-0.4,0.4-0.9,0.4-1.3,0s-0.4-0.9,0-1.3s0.9-0.4,1.3,0S651.5,277.2,651.1,277.6z"/>
		<path class="st6" d="M655.3,281.8c-0.4,0.4-0.9,0.4-1.3,0s-0.4-0.9,0-1.3s0.9-0.4,1.3,0S655.6,281.4,655.3,281.8z"/>
		<path class="st6" d="M659.4,285.9c-0.4,0.4-0.9,0.4-1.3,0s-0.4-0.9,0-1.3s0.9-0.4,1.3,0S659.8,285.6,659.4,285.9z"/>
		<path class="st6" d="M663.6,290.1c-0.4,0.4-0.9,0.4-1.3,0s-0.4-0.9,0-1.3s0.9-0.4,1.3,0S664,289.7,663.6,290.1z"/>
		<path class="st6" d="M667.8,294.2c-0.4,0.4-0.9,0.4-1.3,0s-0.4-0.9,0-1.3s0.9-0.4,1.3,0S668.1,293.9,667.8,294.2z"/>
	</g>
	<g>
		<path class="st6" d="M642.5,261.2c-0.4,0.4-0.9,0.4-1.3,0s-0.4-0.9,0-1.3s0.9-0.4,1.3,0S642.9,260.8,642.5,261.2z"/>
		<path class="st6" d="M646.7,265.3c-0.4,0.4-0.9,0.4-1.3,0s-0.4-0.9,0-1.3s0.9-0.4,1.3,0S647,265,646.7,265.3z"/>
		<path class="st6" d="M650.9,269.5c-0.4,0.4-0.9,0.4-1.3,0s-0.4-0.9,0-1.3s0.9-0.4,1.3,0S651.2,269.1,650.9,269.5z"/>
		<path class="st6" d="M655,273.7c-0.4,0.4-0.9,0.4-1.3,0s-0.4-0.9,0-1.3s0.9-0.4,1.3,0S655.4,273.3,655,273.7z"/>
		<path class="st6" d="M659.2,277.8c-0.4,0.4-0.9,0.4-1.3,0s-0.4-0.9,0-1.3s0.9-0.4,1.3,0S659.5,277.5,659.2,277.8z"/>
		<path class="st6" d="M663.3,282c-0.4,0.4-0.9,0.4-1.3,0s-0.4-0.9,0-1.3s0.9-0.4,1.3,0S663.7,281.6,663.3,282z"/>
		<path class="st6" d="M667.5,286.2c-0.4,0.4-0.9,0.4-1.3,0s-0.4-0.9,0-1.3s0.9-0.4,1.3,0S667.9,285.8,667.5,286.2z"/>
		<path class="st6" d="M671.7,290.3c-0.4,0.4-0.9,0.4-1.3,0s-0.4-0.9,0-1.3s0.9-0.4,1.3,0S672,290,671.7,290.3z"/>
	</g>
</g>
<g>
	<g>
		<path class="st6" d="M496.6,413.6c0,0.5-0.4,1-1,1c-0.5,0-1-0.4-1-1c0-0.5,0.4-1,1-1C496.1,412.6,496.6,413,496.6,413.6z"/>
		<path class="st6" d="M502.9,413.6c0,0.5-0.4,1-1,1c-0.5,0-1-0.4-1-1c0-0.5,0.4-1,1-1C502.5,412.6,502.9,413,502.9,413.6z"/>
		<path class="st6" d="M509.2,413.6c0,0.5-0.4,1-1,1c-0.5,0-1-0.4-1-1c0-0.5,0.4-1,1-1C508.8,412.6,509.2,413,509.2,413.6z"/>
		<path class="st6" d="M515.6,413.6c0,0.5-0.4,1-1,1c-0.5,0-1-0.4-1-1c0-0.5,0.4-1,1-1C515.1,412.6,515.6,413,515.6,413.6z"/>
	</g>
	<g>
		<path class="st6" d="M490.2,407.6c0,0.5-0.4,1-1,1c-0.5,0-1-0.4-1-1c0-0.5,0.4-1,1-1C489.8,406.6,490.2,407,490.2,407.6z"/>
		<path class="st6" d="M496.6,407.6c0,0.5-0.4,1-1,1c-0.5,0-1-0.4-1-1c0-0.5,0.4-1,1-1C496.1,406.6,496.6,407,496.6,407.6z"/>
		<path class="st6" d="M502.9,407.6c0,0.5-0.4,1-1,1c-0.5,0-1-0.4-1-1c0-0.5,0.4-1,1-1C502.5,406.6,502.9,407,502.9,407.6z"/>
		<path class="st6" d="M509.2,407.6c0,0.5-0.4,1-1,1c-0.5,0-1-0.4-1-1c0-0.5,0.4-1,1-1C508.8,406.6,509.2,407,509.2,407.6z"/>
		<path class="st6" d="M515.6,407.6c0,0.5-0.4,1-1,1c-0.5,0-1-0.4-1-1c0-0.5,0.4-1,1-1C515.1,406.6,515.6,407,515.6,407.6z"/>
		<path class="st6" d="M521.9,407.6c0,0.5-0.4,1-1,1c-0.5,0-1-0.4-1-1c0-0.5,0.4-1,1-1C521.5,406.6,521.9,407,521.9,407.6z"/>
	</g>
	<g>
		<path class="st6" d="M490.2,401.6c0,0.5-0.4,1-1,1c-0.5,0-1-0.4-1-1c0-0.5,0.4-1,1-1C489.8,400.6,490.2,401.1,490.2,401.6z"/>
		<path class="st6" d="M496.6,401.6c0,0.5-0.4,1-1,1c-0.5,0-1-0.4-1-1c0-0.5,0.4-1,1-1C496.1,400.6,496.6,401.1,496.6,401.6z"/>
		<path class="st6" d="M502.9,401.6c0,0.5-0.4,1-1,1c-0.5,0-1-0.4-1-1c0-0.5,0.4-1,1-1C502.5,400.6,502.9,401.1,502.9,401.6z"/>
		<path class="st6" d="M509.2,401.6c0,0.5-0.4,1-1,1c-0.5,0-1-0.4-1-1c0-0.5,0.4-1,1-1C508.8,400.6,509.2,401.1,509.2,401.6z"/>
		<path class="st6" d="M515.6,401.6c0,0.5-0.4,1-1,1c-0.5,0-1-0.4-1-1c0-0.5,0.4-1,1-1C515.1,400.6,515.6,401.1,515.6,401.6z"/>
		<path class="st6" d="M521.9,401.6c0,0.5-0.4,1-1,1c-0.5,0-1-0.4-1-1c0-0.5,0.4-1,1-1C521.5,400.6,521.9,401.1,521.9,401.6z"/>
	</g>
	<g>
		<path class="st6" d="M483.9,395.6c0,0.5-0.4,1-1,1c-0.5,0-1-0.4-1-1c0-0.5,0.4-1,1-1C483.4,394.6,483.9,395.1,483.9,395.6z"/>
		<path class="st6" d="M490.2,395.6c0,0.5-0.4,1-1,1c-0.5,0-1-0.4-1-1c0-0.5,0.4-1,1-1C489.8,394.6,490.2,395.1,490.2,395.6z"/>
		<path class="st6" d="M496.6,395.6c0,0.5-0.4,1-1,1c-0.5,0-1-0.4-1-1c0-0.5,0.4-1,1-1C496.1,394.6,496.6,395.1,496.6,395.6z"/>
		<path class="st6" d="M502.9,395.6c0,0.5-0.4,1-1,1c-0.5,0-1-0.4-1-1c0-0.5,0.4-1,1-1C502.5,394.6,502.9,395.1,502.9,395.6z"/>
		<path class="st6" d="M509.2,395.6c0,0.5-0.4,1-1,1c-0.5,0-1-0.4-1-1c0-0.5,0.4-1,1-1C508.8,394.6,509.2,395.1,509.2,395.6z"/>
		<path class="st6" d="M515.6,395.6c0,0.5-0.4,1-1,1c-0.5,0-1-0.4-1-1c0-0.5,0.4-1,1-1C515.1,394.6,515.6,395.1,515.6,395.6z"/>
		<path class="st6" d="M521.9,395.6c0,0.5-0.4,1-1,1c-0.5,0-1-0.4-1-1c0-0.5,0.4-1,1-1C521.5,394.6,521.9,395.1,521.9,395.6z"/>
		<circle class="st6" cx="527.3" cy="395.6" r="1"/>
	</g>
	<g>
		<path class="st6" d="M483.9,389.6c0,0.5-0.4,1-1,1c-0.5,0-1-0.4-1-1c0-0.5,0.4-1,1-1C483.4,388.7,483.9,389.1,483.9,389.6z"/>
		<path class="st6" d="M490.2,389.6c0,0.5-0.4,1-1,1c-0.5,0-1-0.4-1-1c0-0.5,0.4-1,1-1C489.8,388.7,490.2,389.1,490.2,389.6z"/>
		<path class="st6" d="M496.6,389.6c0,0.5-0.4,1-1,1c-0.5,0-1-0.4-1-1c0-0.5,0.4-1,1-1C496.1,388.7,496.6,389.1,496.6,389.6z"/>
		<path class="st6" d="M502.9,389.6c0,0.5-0.4,1-1,1c-0.5,0-1-0.4-1-1c0-0.5,0.4-1,1-1C502.5,388.7,502.9,389.1,502.9,389.6z"/>
		<path class="st6" d="M509.2,389.6c0,0.5-0.4,1-1,1c-0.5,0-1-0.4-1-1c0-0.5,0.4-1,1-1C508.8,388.7,509.2,389.1,509.2,389.6z"/>
		<path class="st6" d="M515.6,389.6c0,0.5-0.4,1-1,1c-0.5,0-1-0.4-1-1c0-0.5,0.4-1,1-1C515.1,388.7,515.6,389.1,515.6,389.6z"/>
		<path class="st6" d="M521.9,389.6c0,0.5-0.4,1-1,1c-0.5,0-1-0.4-1-1c0-0.5,0.4-1,1-1C521.5,388.7,521.9,389.1,521.9,389.6z"/>
		<path class="st6" d="M528.3,389.6c0,0.5-0.4,1-1,1s-1-0.4-1-1c0-0.5,0.4-1,1-1S528.3,389.1,528.3,389.6z"/>
	</g>
	<g>
		<path class="st6" d="M490.2,383.7c0,0.5-0.4,1-1,1c-0.5,0-1-0.4-1-1c0-0.5,0.4-1,1-1C489.8,382.7,490.2,383.1,490.2,383.7z"/>
		<path class="st6" d="M496.6,383.7c0,0.5-0.4,1-1,1c-0.5,0-1-0.4-1-1c0-0.5,0.4-1,1-1C496.1,382.7,496.6,383.1,496.6,383.7z"/>
		<path class="st6" d="M502.9,383.7c0,0.5-0.4,1-1,1c-0.5,0-1-0.4-1-1c0-0.5,0.4-1,1-1C502.5,382.7,502.9,383.1,502.9,383.7z"/>
		<path class="st6" d="M509.2,383.7c0,0.5-0.4,1-1,1c-0.5,0-1-0.4-1-1c0-0.5,0.4-1,1-1C508.8,382.7,509.2,383.1,509.2,383.7z"/>
		<path class="st6" d="M515.6,383.7c0,0.5-0.4,1-1,1c-0.5,0-1-0.4-1-1c0-0.5,0.4-1,1-1C515.1,382.7,515.6,383.1,515.6,383.7z"/>
		<path class="st6" d="M521.9,383.7c0,0.5-0.4,1-1,1c-0.5,0-1-0.4-1-1c0-0.5,0.4-1,1-1C521.5,382.7,521.9,383.1,521.9,383.7z"/>
	</g>
	<g>
		<path class="st6" d="M490.2,377.7c0,0.5-0.4,1-1,1c-0.5,0-1-0.4-1-1c0-0.5,0.4-1,1-1C489.8,376.7,490.2,377.1,490.2,377.7z"/>
		<path class="st6" d="M496.6,377.7c0,0.5-0.4,1-1,1c-0.5,0-1-0.4-1-1c0-0.5,0.4-1,1-1C496.1,376.7,496.6,377.1,496.6,377.7z"/>
		<path class="st6" d="M502.9,377.7c0,0.5-0.4,1-1,1c-0.5,0-1-0.4-1-1c0-0.5,0.4-1,1-1C502.5,376.7,502.9,377.1,502.9,377.7z"/>
		<path class="st6" d="M509.2,377.7c0,0.5-0.4,1-1,1c-0.5,0-1-0.4-1-1c0-0.5,0.4-1,1-1C508.8,376.7,509.2,377.1,509.2,377.7z"/>
		<path class="st6" d="M515.6,377.7c0,0.5-0.4,1-1,1c-0.5,0-1-0.4-1-1c0-0.5,0.4-1,1-1C515.1,376.7,515.6,377.1,515.6,377.7z"/>
		<path class="st6" d="M521.9,377.7c0,0.5-0.4,1-1,1c-0.5,0-1-0.4-1-1c0-0.5,0.4-1,1-1C521.5,376.7,521.9,377.1,521.9,377.7z"/>
	</g>
	<g>
		<path class="st6" d="M496.6,371.7c0,0.5-0.4,1-1,1c-0.5,0-1-0.4-1-1c0-0.5,0.4-1,1-1C496.1,370.7,496.6,371.1,496.6,371.7z"/>
		<path class="st6" d="M502.9,371.7c0,0.5-0.4,1-1,1c-0.5,0-1-0.4-1-1c0-0.5,0.4-1,1-1C502.5,370.7,502.9,371.1,502.9,371.7z"/>
		<path class="st6" d="M509.2,371.7c0,0.5-0.4,1-1,1c-0.5,0-1-0.4-1-1c0-0.5,0.4-1,1-1C508.8,370.7,509.2,371.1,509.2,371.7z"/>
		<path class="st6" d="M515.6,371.7c0,0.5-0.4,1-1,1c-0.5,0-1-0.4-1-1c0-0.5,0.4-1,1-1C515.1,370.7,515.6,371.1,515.6,371.7z"/>
	</g>
</g>
<g>
	<g>
		<path class="st7" d="M9.5,355.9c0,1-0.8,1.8-1.8,1.8s-1.8-0.8-1.8-1.8s0.8-1.8,1.8-1.8S9.5,354.9,9.5,355.9z"/>
		<path class="st7" d="M21,355.9c0,1-0.8,1.8-1.8,1.8s-1.8-0.8-1.8-1.8s0.8-1.8,1.8-1.8S21,354.9,21,355.9z"/>
		<path class="st7" d="M32.6,355.9c0,1-0.8,1.8-1.8,1.8s-1.8-0.8-1.8-1.8s0.8-1.8,1.8-1.8S32.6,354.9,32.6,355.9z"/>
	</g>
	<g>
		<path class="st7" d="M9.5,345c0,1-0.8,1.8-1.8,1.8S5.8,346,5.8,345s0.8-1.8,1.8-1.8S9.5,344,9.5,345z"/>
		<path class="st7" d="M21,345c0,1-0.8,1.8-1.8,1.8s-1.8-0.8-1.8-1.8s0.8-1.8,1.8-1.8S21,344,21,345z"/>
		<path class="st7" d="M32.6,345c0,1-0.8,1.8-1.8,1.8S29,346,29,345s0.8-1.8,1.8-1.8S32.6,344,32.6,345z"/>
		<path class="st7" d="M44.2,345c0,1-0.8,1.8-1.8,1.8s-1.8-0.8-1.8-1.8s0.8-1.8,1.8-1.8S44.2,344,44.2,345z"/>
	</g>
	<g>
		<path class="st7" d="M9.5,334c0,1-0.8,1.8-1.8,1.8S5.8,335,5.8,334s0.8-1.8,1.8-1.8S9.5,333,9.5,334z"/>
		<path class="st7" d="M21,334c0,1-0.8,1.8-1.8,1.8s-1.8-0.8-1.8-1.8s0.8-1.8,1.8-1.8S21,333,21,334z"/>
		<path class="st7" d="M32.6,334c0,1-0.8,1.8-1.8,1.8S29,335,29,334s0.8-1.8,1.8-1.8S32.6,333,32.6,334z"/>
		<path class="st7" d="M44.2,334c0,1-0.8,1.8-1.8,1.8s-1.8-0.8-1.8-1.8s0.8-1.8,1.8-1.8S44.2,333,44.2,334z"/>
	</g>
	<g>
		<path class="st7" d="M9.5,323.1c0,1-0.8,1.8-1.8,1.8s-1.8-0.8-1.8-1.8s0.8-1.8,1.8-1.8S9.5,322.1,9.5,323.1z"/>
		<path class="st7" d="M21,323.1c0,1-0.8,1.8-1.8,1.8s-1.8-0.8-1.8-1.8s0.8-1.8,1.8-1.8S21,322.1,21,323.1z"/>
		<path class="st7" d="M32.6,323.1c0,1-0.8,1.8-1.8,1.8s-1.8-0.8-1.8-1.8s0.8-1.8,1.8-1.8S32.6,322.1,32.6,323.1z"/>
		<path class="st7" d="M44.2,323.1c0,1-0.8,1.8-1.8,1.8s-1.8-0.8-1.8-1.8s0.8-1.8,1.8-1.8S44.2,322.1,44.2,323.1z"/>
		<path class="st7" d="M55.8,323.1c0,1-0.8,1.8-1.8,1.8s-1.8-0.8-1.8-1.8s0.8-1.8,1.8-1.8S55.8,322.1,55.8,323.1z"/>
	</g>
	<g>
		<path class="st7" d="M9.5,312.1c0,1-0.8,1.8-1.8,1.8s-1.8-0.8-1.8-1.8s0.8-1.8,1.8-1.8S9.5,311.1,9.5,312.1z"/>
		<path class="st7" d="M21,312.1c0,1-0.8,1.8-1.8,1.8s-1.8-0.8-1.8-1.8s0.8-1.8,1.8-1.8S21,311.1,21,312.1z"/>
		<path class="st7" d="M32.6,312.1c0,1-0.8,1.8-1.8,1.8s-1.8-0.8-1.8-1.8s0.8-1.8,1.8-1.8S32.6,311.1,32.6,312.1z"/>
		<path class="st7" d="M44.2,312.1c0,1-0.8,1.8-1.8,1.8s-1.8-0.8-1.8-1.8s0.8-1.8,1.8-1.8S44.2,311.1,44.2,312.1z"/>
		<path class="st7" d="M55.8,312.1c0,1-0.8,1.8-1.8,1.8s-1.8-0.8-1.8-1.8s0.8-1.8,1.8-1.8S55.8,311.1,55.8,312.1z"/>
	</g>
	<g>
		<path class="st7" d="M9.5,301.2c0,1-0.8,1.8-1.8,1.8s-1.8-0.8-1.8-1.8s0.8-1.8,1.8-1.8S9.5,300.2,9.5,301.2z"/>
		<path class="st7" d="M21,301.2c0,1-0.8,1.8-1.8,1.8s-1.8-0.8-1.8-1.8s0.8-1.8,1.8-1.8S21,300.2,21,301.2z"/>
		<path class="st7" d="M32.6,301.2c0,1-0.8,1.8-1.8,1.8s-1.8-0.8-1.8-1.8s0.8-1.8,1.8-1.8S32.6,300.2,32.6,301.2z"/>
		<path class="st7" d="M44.2,301.2c0,1-0.8,1.8-1.8,1.8s-1.8-0.8-1.8-1.8s0.8-1.8,1.8-1.8S44.2,300.2,44.2,301.2z"/>
	</g>
	<g>
		<path class="st7" d="M9.5,290.3c0,1-0.8,1.8-1.8,1.8s-1.8-0.8-1.8-1.8s0.8-1.8,1.8-1.8S9.5,289.3,9.5,290.3z"/>
		<path class="st7" d="M21,290.3c0,1-0.8,1.8-1.8,1.8s-1.8-0.8-1.8-1.8s0.8-1.8,1.8-1.8S21,289.3,21,290.3z"/>
		<path class="st7" d="M32.6,290.3c0,1-0.8,1.8-1.8,1.8s-1.8-0.8-1.8-1.8s0.8-1.8,1.8-1.8S32.6,289.3,32.6,290.3z"/>
		<path class="st7" d="M44.2,290.3c0,1-0.8,1.8-1.8,1.8s-1.8-0.8-1.8-1.8s0.8-1.8,1.8-1.8S44.2,289.3,44.2,290.3z"/>
	</g>
	<g>
		<path class="st7" d="M9.5,279.3c0,1-0.8,1.8-1.8,1.8s-1.8-0.8-1.8-1.8s0.8-1.8,1.8-1.8S9.5,278.3,9.5,279.3z"/>
		<path class="st7" d="M21,279.3c0,1-0.8,1.8-1.8,1.8s-1.8-0.8-1.8-1.8s0.8-1.8,1.8-1.8S21,278.3,21,279.3z"/>
		<path class="st7" d="M32.6,279.3c0,1-0.8,1.8-1.8,1.8s-1.8-0.8-1.8-1.8s0.8-1.8,1.8-1.8S32.6,278.3,32.6,279.3z"/>
	</g>
</g>
<g>
	<g>
		<circle class="st8" cx="64" cy="199.9" r="0.8"/>
		<path class="st8" d="M64,205.6c-0.4,0-0.8-0.3-0.8-0.8s0.3-0.8,0.8-0.8s0.8,0.3,0.8,0.8S64.4,205.6,64,205.6z"/>
		<circle class="st8" cx="64" cy="209.7" r="0.8"/>
		<circle class="st8" cx="64" cy="214.6" r="0.8"/>
		<circle class="st8" cx="64" cy="219.4" r="0.8"/>
		<circle class="st8" cx="64" cy="224.3" r="0.8"/>
		<path class="st8" d="M64,230c-0.4,0-0.8-0.3-0.8-0.8s0.3-0.8,0.8-0.8s0.8,0.3,0.8,0.8S64.4,230,64,230z"/>
		<circle class="st8" cx="64" cy="234.1" r="0.8"/>
	</g>
	<g>
		<circle class="st8" cx="68.6" cy="199.9" r="0.8"/>
		<path class="st8" d="M68.6,205.6c-0.4,0-0.8-0.3-0.8-0.8s0.3-0.8,0.8-0.8c0.4,0,0.8,0.3,0.8,0.8S69,205.6,68.6,205.6z"/>
		<circle class="st8" cx="68.6" cy="209.7" r="0.8"/>
		<circle class="st8" cx="68.6" cy="214.6" r="0.8"/>
		<circle class="st8" cx="68.6" cy="219.4" r="0.8"/>
		<circle class="st8" cx="68.6" cy="224.3" r="0.8"/>
		<path class="st8" d="M68.6,230c-0.4,0-0.8-0.3-0.8-0.8s0.3-0.8,0.8-0.8c0.4,0,0.8,0.3,0.8,0.8S69,230,68.6,230z"/>
	</g>
	<g>
		<circle class="st8" cx="73.2" cy="199.9" r="0.8"/>
		<path class="st8" d="M73.2,205.6c-0.4,0-0.8-0.3-0.8-0.8s0.3-0.8,0.8-0.8s0.8,0.3,0.8,0.8S73.6,205.6,73.2,205.6z"/>
		<circle class="st8" cx="73.2" cy="209.7" r="0.8"/>
		<circle class="st8" cx="73.2" cy="214.6" r="0.8"/>
		<circle class="st8" cx="73.2" cy="219.4" r="0.8"/>
		<circle class="st8" cx="73.2" cy="224.3" r="0.8"/>
	</g>
	<g>
		<circle class="st8" cx="77.8" cy="199.9" r="0.8"/>
		<path class="st8" d="M77.8,205.6c-0.4,0-0.8-0.3-0.8-0.8s0.3-0.8,0.8-0.8s0.8,0.3,0.8,0.8S78.2,205.6,77.8,205.6z"/>
		<circle class="st8" cx="77.8" cy="209.7" r="0.8"/>
		<circle class="st8" cx="77.8" cy="214.6" r="0.8"/>
		<circle class="st8" cx="77.8" cy="219.4" r="0.8"/>
	</g>
	<g>
		<circle class="st8" cx="82.4" cy="199.9" r="0.8"/>
		<path class="st8" d="M82.4,205.6c-0.4,0-0.8-0.3-0.8-0.8s0.3-0.8,0.8-0.8c0.4,0,0.8,0.3,0.8,0.8S82.8,205.6,82.4,205.6z"/>
		<circle class="st8" cx="82.4" cy="209.7" r="0.8"/>
		<circle class="st8" cx="82.4" cy="214.6" r="0.8"/>
	</g>
	<g>
		<path class="st8" d="M87,200.7c-0.4,0-0.8-0.3-0.8-0.8c0-0.4,0.3-0.8,0.8-0.8c0.4,0,0.8,0.3,0.8,0.8
			C87.8,200.3,87.4,200.7,87,200.7z"/>
		<path class="st8" d="M87,205.6c-0.4,0-0.8-0.3-0.8-0.8s0.3-0.8,0.8-0.8c0.4,0,0.8,0.3,0.8,0.8S87.4,205.6,87,205.6z"/>
		<path class="st8" d="M87,210.4c-0.4,0-0.8-0.3-0.8-0.8s0.3-0.8,0.8-0.8c0.4,0,0.8,0.3,0.8,0.8S87.4,210.4,87,210.4z"/>
	</g>
	<g>
		<path class="st8" d="M91.6,200.7c-0.4,0-0.8-0.3-0.8-0.8c0-0.4,0.3-0.8,0.8-0.8c0.4,0,0.8,0.3,0.8,0.8
			C92.4,200.3,92,200.7,91.6,200.7z"/>
		<path class="st8" d="M91.6,205.6c-0.4,0-0.8-0.3-0.8-0.8s0.3-0.8,0.8-0.8c0.4,0,0.8,0.3,0.8,0.8S92,205.6,91.6,205.6z"/>
	</g>
	<path class="st8" d="M96.2,200.7c-0.4,0-0.8-0.3-0.8-0.8c0-0.4,0.3-0.8,0.8-0.8c0.4,0,0.8,0.3,0.8,0.8
		C97,200.3,96.6,200.7,96.2,200.7z"/>
</g>
<g>
	<g>
		<circle class="st9" cx="552.2" cy="205.9" r="1"/>
		<path class="st9" d="M552.2,213.1c-0.5,0-1-0.4-1-1c0-0.5,0.4-1,1-1c0.5,0,1,0.4,1,1C553.2,212.6,552.8,213.1,552.2,213.1z"/>
		<circle class="st9" cx="552.2" cy="218.3" r="1"/>
		<path class="st9" d="M552.2,225.4c-0.5,0-1-0.4-1-1c0-0.5,0.4-1,1-1c0.5,0,1,0.4,1,1C553.2,224.9,552.8,225.4,552.2,225.4z"/>
		<circle class="st9" cx="552.2" cy="230.6" r="1"/>
		<path class="st9" d="M552.2,237.7c-0.5,0-1-0.4-1-1c0-0.5,0.4-1,1-1c0.5,0,1,0.4,1,1C553.2,237.3,552.8,237.7,552.2,237.7z"/>
		<circle class="st9" cx="552.2" cy="242.9" r="1"/>
		<path class="st9" d="M552.2,250c-0.5,0-1-0.4-1-1s0.4-1,1-1c0.5,0,1,0.4,1,1S552.8,250,552.2,250z"/>
	</g>
	<g>
		<circle class="st9" cx="558" cy="205.9" r="1"/>
		<path class="st9" d="M558,213.1c-0.5,0-1-0.4-1-1c0-0.5,0.4-1,1-1c0.5,0,1,0.4,1,1C559,212.6,558.6,213.1,558,213.1z"/>
		<circle class="st9" cx="558" cy="218.3" r="1"/>
		<path class="st9" d="M558,225.4c-0.5,0-1-0.4-1-1c0-0.5,0.4-1,1-1c0.5,0,1,0.4,1,1C559,224.9,558.6,225.4,558,225.4z"/>
		<circle class="st9" cx="558" cy="230.6" r="1"/>
		<path class="st9" d="M558,237.7c-0.5,0-1-0.4-1-1c0-0.5,0.4-1,1-1c0.5,0,1,0.4,1,1C559,237.3,558.6,237.7,558,237.7z"/>
		<circle class="st9" cx="558" cy="242.9" r="1"/>
	</g>
	<g>
		<path class="st9" d="M563.8,206.9c-0.5,0-1-0.4-1-1s0.4-1,1-1c0.5,0,1,0.4,1,1S564.4,206.9,563.8,206.9z"/>
		<path class="st9" d="M563.8,213.1c-0.5,0-1-0.4-1-1c0-0.5,0.4-1,1-1c0.5,0,1,0.4,1,1C564.8,212.6,564.4,213.1,563.8,213.1z"/>
		<path class="st9" d="M563.8,219.2c-0.5,0-1-0.4-1-1c0-0.5,0.4-1,1-1c0.5,0,1,0.4,1,1C564.8,218.8,564.4,219.2,563.8,219.2z"/>
		<path class="st9" d="M563.8,225.4c-0.5,0-1-0.4-1-1c0-0.5,0.4-1,1-1c0.5,0,1,0.4,1,1C564.8,224.9,564.4,225.4,563.8,225.4z"/>
		<path class="st9" d="M563.8,231.5c-0.5,0-1-0.4-1-1c0-0.5,0.4-1,1-1c0.5,0,1,0.4,1,1C564.8,231.1,564.4,231.5,563.8,231.5z"/>
		<path class="st9" d="M563.8,237.7c-0.5,0-1-0.4-1-1c0-0.5,0.4-1,1-1c0.5,0,1,0.4,1,1C564.8,237.3,564.4,237.7,563.8,237.7z"/>
	</g>
	<g>
		<circle class="st9" cx="569.7" cy="205.9" r="1"/>
		<path class="st9" d="M569.7,213.1c-0.5,0-1-0.4-1-1c0-0.5,0.4-1,1-1c0.5,0,1,0.4,1,1C570.6,212.6,570.2,213.1,569.7,213.1z"/>
		<circle class="st9" cx="569.7" cy="218.3" r="1"/>
		<path class="st9" d="M569.7,225.4c-0.5,0-1-0.4-1-1c0-0.5,0.4-1,1-1c0.5,0,1,0.4,1,1C570.6,224.9,570.2,225.4,569.7,225.4z"/>
		<circle class="st9" cx="569.7" cy="230.6" r="1"/>
	</g>
	<g>
		<circle class="st9" cx="575.5" cy="205.9" r="1"/>
		<path class="st9" d="M575.5,213.1c-0.5,0-1-0.4-1-1c0-0.5,0.4-1,1-1s1,0.4,1,1C576.4,212.6,576,213.1,575.5,213.1z"/>
		<circle class="st9" cx="575.5" cy="218.3" r="1"/>
		<path class="st9" d="M575.5,225.4c-0.5,0-1-0.4-1-1c0-0.5,0.4-1,1-1s1,0.4,1,1C576.4,224.9,576,225.4,575.5,225.4z"/>
	</g>
	<g>
		<circle class="st9" cx="581.3" cy="205.9" r="1"/>
		<path class="st9" d="M581.3,213.1c-0.5,0-1-0.4-1-1c0-0.5,0.4-1,1-1c0.5,0,1,0.4,1,1C582.2,212.6,581.8,213.1,581.3,213.1z"/>
		<circle class="st9" cx="581.3" cy="218.3" r="1"/>
	</g>
	<g>
		<circle class="st9" cx="587.1" cy="205.9" r="1"/>
		<path class="st9" d="M587.1,213.1c-0.5,0-1-0.4-1-1c0-0.5,0.4-1,1-1c0.5,0,1,0.4,1,1C588,212.6,587.6,213.1,587.1,213.1z"/>
	</g>
	<path class="st9" d="M592.9,206.9c-0.5,0-1-0.4-1-1s0.4-1,1-1c0.5,0,1,0.4,1,1S593.4,206.9,592.9,206.9z"/>
</g>
<g>
	<line class="st1" x1="156.9" y1="385.5" x2="201.9" y2="430.5"/>
	<g>
		<line class="st1" x1="195.6" y1="436.8" x2="150.6" y2="391.8"/>
		<path class="st1" d="M156.9,391.8c-1.8,1.8-4.6,1.8-6.3,0s-1.8-4.6,0-6.3s4.6-1.8,6.3,0S158.7,390.1,156.9,391.8z"/>
		<path class="st1" d="M201.9,430.5c1.8,1.8,1.8,4.6,0,6.3s-4.6,1.8-6.3,0"/>
	</g>
</g>
<g>
	<line class="st10" x1="549.2" y1="443.1" x2="554.9" y2="448.7"/>
	<line class="st10" x1="555" y1="439.7" x2="576.7" y2="461.3"/>
	<line class="st10" x1="560.9" y1="436.3" x2="597.8" y2="473.2"/>
	<line class="st10" x1="566.7" y1="433" x2="597.8" y2="464"/>
	<line class="st10" x1="572.6" y1="429.6" x2="597.8" y2="454.8"/>
	<line class="st10" x1="578.4" y1="426.2" x2="597.8" y2="445.6"/>
	<line class="st10" x1="584.2" y1="422.9" x2="597.8" y2="436.4"/>
	<line class="st10" x1="590.1" y1="419.5" x2="597.8" y2="427.2"/>
	<line class="st10" x1="595.9" y1="416.1" x2="597.8" y2="418"/>
</g>
<g>
	<g>
		<line class="st11" x1="207.6" y1="18.7" x2="268.2" y2="79.4"/>
		<g>
			<line class="st11" x1="259.7" y1="87.9" x2="199" y2="27.3"/>
			<path class="st12" d="M207.6,27.3c-2.4,2.4-6.2,2.4-8.5,0s-2.4-6.2,0-8.5s6.2-2.4,8.5,0S209.9,24.9,207.6,27.3z"/>
			<path class="st13" d="M268.2,79.4c2.4,2.4,2.4,6.2,0,8.5s-6.2,2.4-8.5,0"/>
		</g>
	</g>
	<g>
		<line class="st14" x1="191.4" y1="85.8" x2="199" y2="93.4"/>
		<line class="st14" x1="199.2" y1="81.2" x2="228.3" y2="110.3"/>
		<line class="st14" x1="207.1" y1="76.7" x2="256.8" y2="126.4"/>
		<line class="st14" x1="214.9" y1="72.1" x2="256.8" y2="114"/>
		<line class="st14" x1="222.8" y1="67.6" x2="256.8" y2="101.6"/>
		<line class="st14" x1="230.7" y1="63" x2="256.8" y2="89.2"/>
		<line class="st14" x1="238.6" y1="58.5" x2="256.8" y2="76.8"/>
		<line class="st14" x1="246.4" y1="54" x2="256.8" y2="64.4"/>
		<line class="st14" x1="254.3" y1="49.4" x2="256.8" y2="52"/>
	</g>
</g>
<line class="st5" x1="699.1" y1="251.2" x2="756.2" y2="308.3"/>
<line class="st5" x1="705.6" y1="221.7" x2="720.9" y2="237"/>
<line class="st5" x1="194.2" y1="273.4" x2="209.6" y2="288.8"/>
<line class="st15" x1="26.2" y1="119.9" x2="51.6" y2="145.3"/>
<line class="st5" x1="406.5" y1="82.2" x2="416.9" y2="92.6"/>
<line class="st16" x1="150.4" y1="44.2" x2="160.8" y2="54.5"/>
<line class="st5" x1="665.7" y1="441.5" x2="684.5" y2="460.4"/>
<g>
	<defs>
		<polyline id="SVGID_1_" points="127.2,136.4 227.5,136.4 227.5,236.7 127.2,236.7 		"/>
	</defs>
	<clipPath id="SVGID_00000043453492061122297510000004152787935184279457_">
		<use xlink:href="#SVGID_1_"  style="overflow:visible;"/>
	</clipPath>
	<g style="clip-path:url(#SVGID_00000043453492061122297510000004152787935184279457_);">
		<g>
			<path class="st1" d="M177.3,121.1c36.1,0,65.4,29.3,65.4,65.4s-29.3,65.4-65.4,65.4s-65.4-29.3-65.4-65.4"/>
			<path class="st1" d="M177.3,134.4c28.8,0,52.1,23.3,52.1,52.1s-23.3,52.1-52.1,52.1s-52.1-23.3-52.1-52.1"/>
			<circle class="st1" cx="177.3" cy="186.5" r="38.8"/>
			<circle class="st1" cx="177.3" cy="186.5" r="25.5"/>
			<circle class="st1" cx="177.3" cy="186.5" r="12.2"/>
		</g>
	</g>
</g>
<g>
	<defs>
		
			<rect id="SVGID_00000054964219647084581620000017074894938187942583_" x="307.6" y="370.2" transform="matrix(0.7071 -0.7071 0.7071 0.7071 -181.1881 348.8714)" width="45.9" height="45.9"/>
	</defs>
	<clipPath id="SVGID_00000060002093424397734510000018131012059371735705_">
		<use xlink:href="#SVGID_00000054964219647084581620000017074894938187942583_"  style="overflow:visible;"/>
	</clipPath>
	<g style="clip-path:url(#SVGID_00000060002093424397734510000018131012059371735705_);">
		<g>
			<circle class="st19" cx="330.5" cy="393.1" r="29.9"/>
			<circle class="st19" cx="330.5" cy="393.1" r="23.8"/>
			<circle class="st19" cx="330.5" cy="393.1" r="17.7"/>
			<path class="st19" d="M338.8,401.4c-4.5,4.5-11.9,4.5-16.5,0s-4.5-11.9,0-16.5s11.9-4.5,16.5,0S343.3,396.8,338.8,401.4z"/>
			<path class="st19" d="M334.5,397.1c-2.2,2.2-5.7,2.2-7.9,0s-2.2-5.7,0-7.9c2.2-2.2,5.7-2.2,7.9,0
				C336.6,391.4,336.6,394.9,334.5,397.1z"/>
		</g>
	</g>
</g>
<g>
	<rect x="616.1" y="360.5" class="st6" width="4.3" height="20.3"/>
	<rect x="608.2" y="368.4" class="st6" width="20.3" height="4.3"/>
</g>
<g>
	<rect x="43.5" y="455.7" class="st6" width="5.6" height="26"/>
	<rect x="33.3" y="466" class="st6" width="26" height="5.6"/>
</g>
<circle class="st8" cx="454" cy="125.8" r="6.8"/>
<path class="st20" d="M366.5,454.8c0,1.9-1.6,3.5-3.5,3.5s-3.5-1.6-3.5-3.5s1.6-3.5,3.5-3.5S366.5,452.9,366.5,454.8z"/>
<path class="st20" d="M69.2,24.5c-1.4-1.4-1.3-3.6,0-4.9c1.4-1.4,3.6-1.3,4.9,0s1.3,3.6,0,4.9C72.7,25.9,70.5,25.9,69.2,24.5z"/>
<path class="st20" d="M127.5,455.8c0,1.9-1.6,3.5-3.5,3.5s-3.5-1.6-3.5-3.5s1.6-3.5,3.5-3.5S127.5,453.9,127.5,455.8z"/>
<path class="st21" d="M308,54.2c0,1.9-1.6,3.5-3.5,3.5s-3.5-1.6-3.5-3.5s1.6-3.5,3.5-3.5S308,52.3,308,54.2z"/>
<path class="st21" d="M428.2,401.4c0,1.9-1.6,3.5-3.5,3.5s-3.5-1.6-3.5-3.5s1.6-3.5,3.5-3.5S428.2,399.5,428.2,401.4z"/>
<circle class="st7" cx="250.4" cy="397" r="4.7"/>
<path class="st7" d="M717.8,167.5c0,3-2.4,5.4-5.4,5.4s-5.4-2.4-5.4-5.4s2.4-5.4,5.4-5.4S717.8,164.5,717.8,167.5z"/>
<circle class="st7" cx="406.5" cy="355.9" r="3.1"/>
<g>
	<g>
		<g>
			<path class="st6" d="M349.9,114.8c0.2,0,0.4,0.2,0.4,0.4s-0.2,0.4-0.4,0.4c-0.2,0-0.4-0.2-0.4-0.4S349.7,114.8,349.9,114.8z"/>
			<path class="st6" d="M349.9,112.3c0.2,0,0.4,0.2,0.4,0.4c0,0.2-0.2,0.4-0.4,0.4c-0.2,0-0.4-0.2-0.4-0.4
				C349.5,112.5,349.7,112.3,349.9,112.3z"/>
			<path class="st6" d="M349.9,109.8c0.2,0,0.4,0.2,0.4,0.4s-0.2,0.4-0.4,0.4c-0.2,0-0.4-0.2-0.4-0.4
				C349.5,109.9,349.7,109.8,349.9,109.8z"/>
			<path class="st6" d="M349.9,107.2c0.2,0,0.4,0.2,0.4,0.4c0,0.2-0.2,0.4-0.4,0.4c-0.2,0-0.4-0.2-0.4-0.4
				C349.5,107.4,349.7,107.2,349.9,107.2z"/>
			<path class="st6" d="M349.9,104.7c0.2,0,0.4,0.2,0.4,0.4s-0.2,0.4-0.4,0.4c-0.2,0-0.4-0.2-0.4-0.4S349.7,104.7,349.9,104.7z"/>
			<path class="st6" d="M349.9,102.1c0.2,0,0.4,0.2,0.4,0.4c0,0.2-0.2,0.4-0.4,0.4c-0.2,0-0.4-0.2-0.4-0.4
				C349.5,102.3,349.7,102.1,349.9,102.1z"/>
			<path class="st6" d="M349.9,99.6c0.2,0,0.4,0.2,0.4,0.4s-0.2,0.4-0.4,0.4c-0.2,0-0.4-0.2-0.4-0.4S349.7,99.6,349.9,99.6z"/>
			<path class="st6" d="M349.9,97c0.2,0,0.4,0.2,0.4,0.4c0,0.2-0.2,0.4-0.4,0.4c-0.2,0-0.4-0.2-0.4-0.4
				C349.5,97.2,349.7,97,349.9,97z"/>
		</g>
		<g>
			<path class="st6" d="M347.5,114.8c0.2,0,0.4,0.2,0.4,0.4s-0.2,0.4-0.4,0.4s-0.4-0.2-0.4-0.4S347.3,114.8,347.5,114.8z"/>
			<path class="st6" d="M347.5,112.3c0.2,0,0.4,0.2,0.4,0.4c0,0.2-0.2,0.4-0.4,0.4s-0.4-0.2-0.4-0.4
				C347.1,112.5,347.3,112.3,347.5,112.3z"/>
			<path class="st6" d="M347.5,109.8c0.2,0,0.4,0.2,0.4,0.4s-0.2,0.4-0.4,0.4s-0.4-0.2-0.4-0.4C347.1,109.9,347.3,109.8,347.5,109.8
				z"/>
			<path class="st6" d="M347.5,107.2c0.2,0,0.4,0.2,0.4,0.4c0,0.2-0.2,0.4-0.4,0.4s-0.4-0.2-0.4-0.4
				C347.1,107.4,347.3,107.2,347.5,107.2z"/>
			<path class="st6" d="M347.5,104.7c0.2,0,0.4,0.2,0.4,0.4s-0.2,0.4-0.4,0.4s-0.4-0.2-0.4-0.4S347.3,104.7,347.5,104.7z"/>
			<path class="st6" d="M347.5,102.1c0.2,0,0.4,0.2,0.4,0.4c0,0.2-0.2,0.4-0.4,0.4s-0.4-0.2-0.4-0.4
				C347.1,102.3,347.3,102.1,347.5,102.1z"/>
			<path class="st6" d="M347.5,99.6c0.2,0,0.4,0.2,0.4,0.4s-0.2,0.4-0.4,0.4s-0.4-0.2-0.4-0.4S347.3,99.6,347.5,99.6z"/>
			<path class="st6" d="M347.5,97c0.2,0,0.4,0.2,0.4,0.4c0,0.2-0.2,0.4-0.4,0.4s-0.4-0.2-0.4-0.4C347.1,97.2,347.3,97,347.5,97z"/>
		</g>
		<g>
			<path class="st6" d="M345.1,114.8c0.2,0,0.4,0.2,0.4,0.4s-0.2,0.4-0.4,0.4s-0.4-0.2-0.4-0.4S344.9,114.8,345.1,114.8z"/>
			<path class="st6" d="M345.1,112.3c0.2,0,0.4,0.2,0.4,0.4c0,0.2-0.2,0.4-0.4,0.4s-0.4-0.2-0.4-0.4
				C344.7,112.5,344.9,112.3,345.1,112.3z"/>
			<path class="st6" d="M345.1,109.8c0.2,0,0.4,0.2,0.4,0.4s-0.2,0.4-0.4,0.4s-0.4-0.2-0.4-0.4C344.7,109.9,344.9,109.8,345.1,109.8
				z"/>
			<path class="st6" d="M345.1,107.2c0.2,0,0.4,0.2,0.4,0.4c0,0.2-0.2,0.4-0.4,0.4s-0.4-0.2-0.4-0.4
				C344.7,107.4,344.9,107.2,345.1,107.2z"/>
			<path class="st6" d="M345.1,104.7c0.2,0,0.4,0.2,0.4,0.4s-0.2,0.4-0.4,0.4s-0.4-0.2-0.4-0.4S344.9,104.7,345.1,104.7z"/>
			<path class="st6" d="M345.1,102.1c0.2,0,0.4,0.2,0.4,0.4c0,0.2-0.2,0.4-0.4,0.4s-0.4-0.2-0.4-0.4
				C344.7,102.3,344.9,102.1,345.1,102.1z"/>
			<path class="st6" d="M345.1,99.6c0.2,0,0.4,0.2,0.4,0.4s-0.2,0.4-0.4,0.4s-0.4-0.2-0.4-0.4S344.9,99.6,345.1,99.6z"/>
			<path class="st6" d="M345.1,97c0.2,0,0.4,0.2,0.4,0.4c0,0.2-0.2,0.4-0.4,0.4s-0.4-0.2-0.4-0.4C344.7,97.2,344.9,97,345.1,97z"/>
		</g>
		<g>
			<path class="st6" d="M342.7,114.8c0.2,0,0.4,0.2,0.4,0.4s-0.2,0.4-0.4,0.4s-0.4-0.2-0.4-0.4S342.5,114.8,342.7,114.8z"/>
			<path class="st6" d="M342.7,112.3c0.2,0,0.4,0.2,0.4,0.4c0,0.2-0.2,0.4-0.4,0.4s-0.4-0.2-0.4-0.4
				C342.3,112.5,342.5,112.3,342.7,112.3z"/>
			<path class="st6" d="M342.7,109.8c0.2,0,0.4,0.2,0.4,0.4s-0.2,0.4-0.4,0.4s-0.4-0.2-0.4-0.4C342.3,109.9,342.5,109.8,342.7,109.8
				z"/>
			<path class="st6" d="M342.7,107.2c0.2,0,0.4,0.2,0.4,0.4c0,0.2-0.2,0.4-0.4,0.4s-0.4-0.2-0.4-0.4
				C342.3,107.4,342.5,107.2,342.7,107.2z"/>
			<path class="st6" d="M342.7,104.7c0.2,0,0.4,0.2,0.4,0.4s-0.2,0.4-0.4,0.4s-0.4-0.2-0.4-0.4S342.5,104.7,342.7,104.7z"/>
			<path class="st6" d="M342.7,102.1c0.2,0,0.4,0.2,0.4,0.4c0,0.2-0.2,0.4-0.4,0.4s-0.4-0.2-0.4-0.4
				C342.3,102.3,342.5,102.1,342.7,102.1z"/>
			<path class="st6" d="M342.7,99.6c0.2,0,0.4,0.2,0.4,0.4s-0.2,0.4-0.4,0.4s-0.4-0.2-0.4-0.4S342.5,99.6,342.7,99.6z"/>
			<path class="st6" d="M342.7,97c0.2,0,0.4,0.2,0.4,0.4c0,0.2-0.2,0.4-0.4,0.4s-0.4-0.2-0.4-0.4C342.3,97.2,342.5,97,342.7,97z"/>
		</g>
		<g>
			<path class="st6" d="M340.3,114.8c0.2,0,0.4,0.2,0.4,0.4s-0.2,0.4-0.4,0.4s-0.4-0.2-0.4-0.4S340.1,114.8,340.3,114.8z"/>
			<path class="st6" d="M340.3,112.3c0.2,0,0.4,0.2,0.4,0.4c0,0.2-0.2,0.4-0.4,0.4s-0.4-0.2-0.4-0.4
				C339.9,112.5,340.1,112.3,340.3,112.3z"/>
			<path class="st6" d="M340.3,109.8c0.2,0,0.4,0.2,0.4,0.4s-0.2,0.4-0.4,0.4s-0.4-0.2-0.4-0.4C339.9,109.9,340.1,109.8,340.3,109.8
				z"/>
			<path class="st6" d="M340.3,107.2c0.2,0,0.4,0.2,0.4,0.4c0,0.2-0.2,0.4-0.4,0.4s-0.4-0.2-0.4-0.4
				C339.9,107.4,340.1,107.2,340.3,107.2z"/>
			<path class="st6" d="M340.3,104.7c0.2,0,0.4,0.2,0.4,0.4s-0.2,0.4-0.4,0.4s-0.4-0.2-0.4-0.4S340.1,104.7,340.3,104.7z"/>
			<path class="st6" d="M340.3,102.1c0.2,0,0.4,0.2,0.4,0.4c0,0.2-0.2,0.4-0.4,0.4s-0.4-0.2-0.4-0.4
				C339.9,102.3,340.1,102.1,340.3,102.1z"/>
			<path class="st6" d="M340.3,99.6c0.2,0,0.4,0.2,0.4,0.4s-0.2,0.4-0.4,0.4s-0.4-0.2-0.4-0.4S340.1,99.6,340.3,99.6z"/>
			<path class="st6" d="M340.3,97c0.2,0,0.4,0.2,0.4,0.4c0,0.2-0.2,0.4-0.4,0.4s-0.4-0.2-0.4-0.4C339.9,97.2,340.1,97,340.3,97z"/>
		</g>
		<g>
			<path class="st6" d="M337.9,114.8c0.2,0,0.4,0.2,0.4,0.4s-0.2,0.4-0.4,0.4s-0.4-0.2-0.4-0.4S337.7,114.8,337.9,114.8z"/>
			<path class="st6" d="M337.9,112.3c0.2,0,0.4,0.2,0.4,0.4c0,0.2-0.2,0.4-0.4,0.4s-0.4-0.2-0.4-0.4
				C337.5,112.5,337.7,112.3,337.9,112.3z"/>
			<path class="st6" d="M337.9,109.8c0.2,0,0.4,0.2,0.4,0.4s-0.2,0.4-0.4,0.4s-0.4-0.2-0.4-0.4C337.5,109.9,337.7,109.8,337.9,109.8
				z"/>
			<path class="st6" d="M337.9,107.2c0.2,0,0.4,0.2,0.4,0.4c0,0.2-0.2,0.4-0.4,0.4s-0.4-0.2-0.4-0.4
				C337.5,107.4,337.7,107.2,337.9,107.2z"/>
			<path class="st6" d="M337.9,104.7c0.2,0,0.4,0.2,0.4,0.4s-0.2,0.4-0.4,0.4s-0.4-0.2-0.4-0.4S337.7,104.7,337.9,104.7z"/>
			<path class="st6" d="M337.9,102.1c0.2,0,0.4,0.2,0.4,0.4c0,0.2-0.2,0.4-0.4,0.4s-0.4-0.2-0.4-0.4
				C337.5,102.3,337.7,102.1,337.9,102.1z"/>
			<path class="st6" d="M337.9,99.6c0.2,0,0.4,0.2,0.4,0.4s-0.2,0.4-0.4,0.4s-0.4-0.2-0.4-0.4S337.7,99.6,337.9,99.6z"/>
			<path class="st6" d="M337.9,97c0.2,0,0.4,0.2,0.4,0.4c0,0.2-0.2,0.4-0.4,0.4s-0.4-0.2-0.4-0.4C337.5,97.2,337.7,97,337.9,97z"/>
		</g>
		<g>
			<path class="st6" d="M335.5,114.8c0.2,0,0.4,0.2,0.4,0.4s-0.2,0.4-0.4,0.4s-0.4-0.2-0.4-0.4S335.3,114.8,335.5,114.8z"/>
			<path class="st6" d="M335.5,112.3c0.2,0,0.4,0.2,0.4,0.4c0,0.2-0.2,0.4-0.4,0.4s-0.4-0.2-0.4-0.4
				C335.1,112.5,335.3,112.3,335.5,112.3z"/>
			<path class="st6" d="M335.5,109.8c0.2,0,0.4,0.2,0.4,0.4s-0.2,0.4-0.4,0.4s-0.4-0.2-0.4-0.4C335.1,109.9,335.3,109.8,335.5,109.8
				z"/>
			<path class="st6" d="M335.5,107.2c0.2,0,0.4,0.2,0.4,0.4c0,0.2-0.2,0.4-0.4,0.4s-0.4-0.2-0.4-0.4
				C335.1,107.4,335.3,107.2,335.5,107.2z"/>
			<path class="st6" d="M335.5,104.7c0.2,0,0.4,0.2,0.4,0.4s-0.2,0.4-0.4,0.4s-0.4-0.2-0.4-0.4S335.3,104.7,335.5,104.7z"/>
			<path class="st6" d="M335.5,102.1c0.2,0,0.4,0.2,0.4,0.4c0,0.2-0.2,0.4-0.4,0.4s-0.4-0.2-0.4-0.4
				C335.1,102.3,335.3,102.1,335.5,102.1z"/>
			<path class="st6" d="M335.5,99.6c0.2,0,0.4,0.2,0.4,0.4s-0.2,0.4-0.4,0.4s-0.4-0.2-0.4-0.4S335.3,99.6,335.5,99.6z"/>
			<path class="st6" d="M335.5,97c0.2,0,0.4,0.2,0.4,0.4c0,0.2-0.2,0.4-0.4,0.4s-0.4-0.2-0.4-0.4C335.1,97.2,335.3,97,335.5,97z"/>
		</g>
		<g>
			<path class="st6" d="M333.1,114.8c0.2,0,0.4,0.2,0.4,0.4s-0.2,0.4-0.4,0.4c-0.2,0-0.4-0.2-0.4-0.4S332.9,114.8,333.1,114.8z"/>
			<path class="st6" d="M333.1,112.3c0.2,0,0.4,0.2,0.4,0.4c0,0.2-0.2,0.4-0.4,0.4c-0.2,0-0.4-0.2-0.4-0.4
				C332.7,112.5,332.9,112.3,333.1,112.3z"/>
			<path class="st6" d="M333.1,109.8c0.2,0,0.4,0.2,0.4,0.4s-0.2,0.4-0.4,0.4c-0.2,0-0.4-0.2-0.4-0.4
				C332.7,109.9,332.9,109.8,333.1,109.8z"/>
			<path class="st6" d="M333.1,107.2c0.2,0,0.4,0.2,0.4,0.4c0,0.2-0.2,0.4-0.4,0.4c-0.2,0-0.4-0.2-0.4-0.4
				C332.7,107.4,332.9,107.2,333.1,107.2z"/>
			<path class="st6" d="M333.1,104.7c0.2,0,0.4,0.2,0.4,0.4s-0.2,0.4-0.4,0.4c-0.2,0-0.4-0.2-0.4-0.4S332.9,104.7,333.1,104.7z"/>
			<path class="st6" d="M333.1,102.1c0.2,0,0.4,0.2,0.4,0.4c0,0.2-0.2,0.4-0.4,0.4c-0.2,0-0.4-0.2-0.4-0.4
				C332.7,102.3,332.9,102.1,333.1,102.1z"/>
			<path class="st6" d="M333.1,99.6c0.2,0,0.4,0.2,0.4,0.4s-0.2,0.4-0.4,0.4c-0.2,0-0.4-0.2-0.4-0.4S332.9,99.6,333.1,99.6z"/>
			<path class="st6" d="M333.1,97c0.2,0,0.4,0.2,0.4,0.4c0,0.2-0.2,0.4-0.4,0.4c-0.2,0-0.4-0.2-0.4-0.4
				C332.7,97.2,332.9,97,333.1,97z"/>
		</g>
	</g>
	<path class="st22" d="M329,117.9V80.2c0-0.9,0.7-1.6,1.6-1.6h37.6c0.9,0,1.6,0.7,1.6,1.6v37.6c0,0.9-0.7,1.6-1.6,1.6h-37.6
		C329.7,119.5,328.9,118.8,329,117.9z"/>
</g>
<g>
	<g>
		<g>
			<path class="st6" d="M94.4,380.2c0-0.2,0.2-0.4,0.4-0.4s0.4,0.2,0.4,0.4c0,0.2-0.2,0.4-0.4,0.4S94.4,380.5,94.4,380.2z"/>
			<path class="st6" d="M91.8,380.2c0-0.2,0.2-0.4,0.4-0.4s0.4,0.2,0.4,0.4c0,0.2-0.2,0.4-0.4,0.4S91.8,380.5,91.8,380.2z"/>
			<path class="st6" d="M89.3,380.2c0-0.2,0.2-0.4,0.4-0.4s0.4,0.2,0.4,0.4c0,0.2-0.2,0.4-0.4,0.4C89.5,380.6,89.3,380.5,89.3,380.2
				z"/>
			<path class="st6" d="M86.7,380.2c0-0.2,0.2-0.4,0.4-0.4c0.2,0,0.4,0.2,0.4,0.4c0,0.2-0.2,0.4-0.4,0.4
				C86.9,380.6,86.7,380.5,86.7,380.2z"/>
			<path class="st6" d="M84.2,380.2c0-0.2,0.2-0.4,0.4-0.4s0.4,0.2,0.4,0.4c0,0.2-0.2,0.4-0.4,0.4S84.2,380.5,84.2,380.2z"/>
			<path class="st6" d="M81.6,380.2c0-0.2,0.2-0.4,0.4-0.4c0.2,0,0.4,0.2,0.4,0.4c0,0.2-0.2,0.4-0.4,0.4
				C81.8,380.6,81.6,380.5,81.6,380.2z"/>
			<path class="st6" d="M79.1,380.2c0-0.2,0.2-0.4,0.4-0.4s0.4,0.2,0.4,0.4c0,0.2-0.2,0.4-0.4,0.4S79.1,380.5,79.1,380.2z"/>
			<path class="st6" d="M76.6,380.2c0-0.2,0.2-0.4,0.4-0.4c0.2,0,0.4,0.2,0.4,0.4c0,0.2-0.2,0.4-0.4,0.4
				C76.7,380.6,76.6,380.5,76.6,380.2z"/>
		</g>
		<g>
			<path class="st6" d="M94.4,382.6c0-0.2,0.2-0.4,0.4-0.4s0.4,0.2,0.4,0.4c0,0.2-0.2,0.4-0.4,0.4S94.4,382.9,94.4,382.6z"/>
			<path class="st6" d="M91.8,382.6c0-0.2,0.2-0.4,0.4-0.4s0.4,0.2,0.4,0.4c0,0.2-0.2,0.4-0.4,0.4S91.8,382.9,91.8,382.6z"/>
			<path class="st6" d="M89.3,382.6c0-0.2,0.2-0.4,0.4-0.4s0.4,0.2,0.4,0.4c0,0.2-0.2,0.4-0.4,0.4C89.5,383,89.3,382.9,89.3,382.6z"
				/>
			<path class="st6" d="M86.7,382.6c0-0.2,0.2-0.4,0.4-0.4c0.2,0,0.4,0.2,0.4,0.4c0,0.2-0.2,0.4-0.4,0.4
				C86.9,383,86.7,382.9,86.7,382.6z"/>
			<path class="st6" d="M84.2,382.6c0-0.2,0.2-0.4,0.4-0.4s0.4,0.2,0.4,0.4c0,0.2-0.2,0.4-0.4,0.4S84.2,382.9,84.2,382.6z"/>
			<path class="st6" d="M81.6,382.6c0-0.2,0.2-0.4,0.4-0.4c0.2,0,0.4,0.2,0.4,0.4c0,0.2-0.2,0.4-0.4,0.4
				C81.8,383,81.6,382.9,81.6,382.6z"/>
			<path class="st6" d="M79.1,382.6c0-0.2,0.2-0.4,0.4-0.4s0.4,0.2,0.4,0.4c0,0.2-0.2,0.4-0.4,0.4S79.1,382.9,79.1,382.6z"/>
			<path class="st6" d="M76.6,382.6c0-0.2,0.2-0.4,0.4-0.4c0.2,0,0.4,0.2,0.4,0.4c0,0.2-0.2,0.4-0.4,0.4
				C76.7,383,76.6,382.9,76.6,382.6z"/>
		</g>
		<g>
			<path class="st6" d="M94.4,385c0-0.2,0.2-0.4,0.4-0.4s0.4,0.2,0.4,0.4s-0.2,0.4-0.4,0.4S94.4,385.3,94.4,385z"/>
			<path class="st6" d="M91.8,385c0-0.2,0.2-0.4,0.4-0.4s0.4,0.2,0.4,0.4s-0.2,0.4-0.4,0.4S91.8,385.3,91.8,385z"/>
			<path class="st6" d="M89.3,385c0-0.2,0.2-0.4,0.4-0.4s0.4,0.2,0.4,0.4s-0.2,0.4-0.4,0.4C89.5,385.4,89.3,385.3,89.3,385z"/>
			<path class="st6" d="M86.7,385c0-0.2,0.2-0.4,0.4-0.4c0.2,0,0.4,0.2,0.4,0.4s-0.2,0.4-0.4,0.4C86.9,385.4,86.7,385.3,86.7,385z"
				/>
			<path class="st6" d="M84.2,385c0-0.2,0.2-0.4,0.4-0.4s0.4,0.2,0.4,0.4s-0.2,0.4-0.4,0.4S84.2,385.3,84.2,385z"/>
			<path class="st6" d="M81.6,385c0-0.2,0.2-0.4,0.4-0.4c0.2,0,0.4,0.2,0.4,0.4s-0.2,0.4-0.4,0.4C81.8,385.4,81.6,385.3,81.6,385z"
				/>
			<path class="st6" d="M79.1,385c0-0.2,0.2-0.4,0.4-0.4s0.4,0.2,0.4,0.4s-0.2,0.4-0.4,0.4S79.1,385.3,79.1,385z"/>
			<path class="st6" d="M76.6,385c0-0.2,0.2-0.4,0.4-0.4c0.2,0,0.4,0.2,0.4,0.4s-0.2,0.4-0.4,0.4C76.7,385.4,76.6,385.3,76.6,385z"
				/>
		</g>
		<g>
			<path class="st6" d="M94.4,387.4c0-0.2,0.2-0.4,0.4-0.4s0.4,0.2,0.4,0.4s-0.2,0.4-0.4,0.4S94.4,387.7,94.4,387.4z"/>
			<path class="st6" d="M91.8,387.4c0-0.2,0.2-0.4,0.4-0.4s0.4,0.2,0.4,0.4s-0.2,0.4-0.4,0.4S91.8,387.7,91.8,387.4z"/>
			<path class="st6" d="M89.3,387.4c0-0.2,0.2-0.4,0.4-0.4s0.4,0.2,0.4,0.4s-0.2,0.4-0.4,0.4C89.5,387.8,89.3,387.7,89.3,387.4z"/>
			<path class="st6" d="M86.7,387.4c0-0.2,0.2-0.4,0.4-0.4c0.2,0,0.4,0.2,0.4,0.4s-0.2,0.4-0.4,0.4
				C86.9,387.8,86.7,387.7,86.7,387.4z"/>
			<path class="st6" d="M84.2,387.4c0-0.2,0.2-0.4,0.4-0.4s0.4,0.2,0.4,0.4s-0.2,0.4-0.4,0.4S84.2,387.7,84.2,387.4z"/>
			<path class="st6" d="M81.6,387.4c0-0.2,0.2-0.4,0.4-0.4c0.2,0,0.4,0.2,0.4,0.4s-0.2,0.4-0.4,0.4
				C81.8,387.8,81.6,387.7,81.6,387.4z"/>
			<path class="st6" d="M79.1,387.4c0-0.2,0.2-0.4,0.4-0.4s0.4,0.2,0.4,0.4s-0.2,0.4-0.4,0.4S79.1,387.7,79.1,387.4z"/>
			<path class="st6" d="M76.6,387.4c0-0.2,0.2-0.4,0.4-0.4c0.2,0,0.4,0.2,0.4,0.4s-0.2,0.4-0.4,0.4
				C76.7,387.8,76.6,387.7,76.6,387.4z"/>
		</g>
		<g>
			<path class="st6" d="M94.4,389.8c0-0.2,0.2-0.4,0.4-0.4s0.4,0.2,0.4,0.4s-0.2,0.4-0.4,0.4S94.4,390.1,94.4,389.8z"/>
			<path class="st6" d="M91.8,389.8c0-0.2,0.2-0.4,0.4-0.4s0.4,0.2,0.4,0.4s-0.2,0.4-0.4,0.4S91.8,390.1,91.8,389.8z"/>
			<path class="st6" d="M89.3,389.8c0-0.2,0.2-0.4,0.4-0.4s0.4,0.2,0.4,0.4s-0.2,0.4-0.4,0.4C89.5,390.2,89.3,390.1,89.3,389.8z"/>
			<path class="st6" d="M86.7,389.8c0-0.2,0.2-0.4,0.4-0.4c0.2,0,0.4,0.2,0.4,0.4s-0.2,0.4-0.4,0.4
				C86.9,390.2,86.7,390.1,86.7,389.8z"/>
			<path class="st6" d="M84.2,389.8c0-0.2,0.2-0.4,0.4-0.4s0.4,0.2,0.4,0.4s-0.2,0.4-0.4,0.4S84.2,390.1,84.2,389.8z"/>
			<path class="st6" d="M81.6,389.8c0-0.2,0.2-0.4,0.4-0.4c0.2,0,0.4,0.2,0.4,0.4s-0.2,0.4-0.4,0.4
				C81.8,390.2,81.6,390.1,81.6,389.8z"/>
			<path class="st6" d="M79.1,389.8c0-0.2,0.2-0.4,0.4-0.4s0.4,0.2,0.4,0.4s-0.2,0.4-0.4,0.4S79.1,390.1,79.1,389.8z"/>
			<path class="st6" d="M76.6,389.8c0-0.2,0.2-0.4,0.4-0.4c0.2,0,0.4,0.2,0.4,0.4s-0.2,0.4-0.4,0.4
				C76.7,390.2,76.6,390.1,76.6,389.8z"/>
		</g>
		<g>
			<path class="st6" d="M94.4,392.2c0-0.2,0.2-0.4,0.4-0.4s0.4,0.2,0.4,0.4s-0.2,0.4-0.4,0.4S94.4,392.5,94.4,392.2z"/>
			<path class="st6" d="M91.8,392.2c0-0.2,0.2-0.4,0.4-0.4s0.4,0.2,0.4,0.4s-0.2,0.4-0.4,0.4S91.8,392.5,91.8,392.2z"/>
			<path class="st6" d="M89.3,392.2c0-0.2,0.2-0.4,0.4-0.4s0.4,0.2,0.4,0.4s-0.2,0.4-0.4,0.4C89.5,392.6,89.3,392.5,89.3,392.2z"/>
			<path class="st6" d="M86.7,392.2c0-0.2,0.2-0.4,0.4-0.4c0.2,0,0.4,0.2,0.4,0.4s-0.2,0.4-0.4,0.4
				C86.9,392.6,86.7,392.5,86.7,392.2z"/>
			<path class="st6" d="M84.2,392.2c0-0.2,0.2-0.4,0.4-0.4s0.4,0.2,0.4,0.4s-0.2,0.4-0.4,0.4S84.2,392.5,84.2,392.2z"/>
			<path class="st6" d="M81.6,392.2c0-0.2,0.2-0.4,0.4-0.4c0.2,0,0.4,0.2,0.4,0.4s-0.2,0.4-0.4,0.4
				C81.8,392.6,81.6,392.5,81.6,392.2z"/>
			<path class="st6" d="M79.1,392.2c0-0.2,0.2-0.4,0.4-0.4s0.4,0.2,0.4,0.4s-0.2,0.4-0.4,0.4S79.1,392.5,79.1,392.2z"/>
			<path class="st6" d="M76.6,392.2c0-0.2,0.2-0.4,0.4-0.4c0.2,0,0.4,0.2,0.4,0.4s-0.2,0.4-0.4,0.4
				C76.7,392.6,76.6,392.5,76.6,392.2z"/>
		</g>
		<g>
			<path class="st6" d="M94.4,394.6c0-0.2,0.2-0.4,0.4-0.4s0.4,0.2,0.4,0.4S95,395,94.8,395S94.4,394.9,94.4,394.6z"/>
			<path class="st6" d="M91.8,394.6c0-0.2,0.2-0.4,0.4-0.4s0.4,0.2,0.4,0.4s-0.2,0.4-0.4,0.4S91.8,394.9,91.8,394.6z"/>
			<path class="st6" d="M89.3,394.6c0-0.2,0.2-0.4,0.4-0.4s0.4,0.2,0.4,0.4s-0.2,0.4-0.4,0.4C89.5,395,89.3,394.9,89.3,394.6z"/>
			<path class="st6" d="M86.7,394.6c0-0.2,0.2-0.4,0.4-0.4c0.2,0,0.4,0.2,0.4,0.4s-0.2,0.4-0.4,0.4C86.9,395,86.7,394.9,86.7,394.6z
				"/>
			<path class="st6" d="M84.2,394.6c0-0.2,0.2-0.4,0.4-0.4s0.4,0.2,0.4,0.4s-0.2,0.4-0.4,0.4S84.2,394.9,84.2,394.6z"/>
			<path class="st6" d="M81.6,394.6c0-0.2,0.2-0.4,0.4-0.4c0.2,0,0.4,0.2,0.4,0.4S82.3,395,82,395C81.8,395,81.6,394.9,81.6,394.6z"
				/>
			<path class="st6" d="M79.1,394.6c0-0.2,0.2-0.4,0.4-0.4s0.4,0.2,0.4,0.4s-0.2,0.4-0.4,0.4S79.1,394.9,79.1,394.6z"/>
			<path class="st6" d="M76.6,394.6c0-0.2,0.2-0.4,0.4-0.4c0.2,0,0.4,0.2,0.4,0.4S77.2,395,77,395C76.7,395,76.6,394.9,76.6,394.6z"
				/>
		</g>
		<g>
			<path class="st6" d="M94.4,397c0-0.2,0.2-0.4,0.4-0.4s0.4,0.2,0.4,0.4s-0.2,0.4-0.4,0.4S94.4,397.3,94.4,397z"/>
			<path class="st6" d="M91.8,397c0-0.2,0.2-0.4,0.4-0.4s0.4,0.2,0.4,0.4s-0.2,0.4-0.4,0.4S91.8,397.3,91.8,397z"/>
			<path class="st6" d="M89.3,397c0-0.2,0.2-0.4,0.4-0.4s0.4,0.2,0.4,0.4s-0.2,0.4-0.4,0.4C89.5,397.4,89.3,397.3,89.3,397z"/>
			<path class="st6" d="M86.7,397c0-0.2,0.2-0.4,0.4-0.4c0.2,0,0.4,0.2,0.4,0.4s-0.2,0.4-0.4,0.4C86.9,397.4,86.7,397.3,86.7,397z"
				/>
			<path class="st6" d="M84.2,397c0-0.2,0.2-0.4,0.4-0.4s0.4,0.2,0.4,0.4s-0.2,0.4-0.4,0.4S84.2,397.3,84.2,397z"/>
			<path class="st6" d="M81.6,397c0-0.2,0.2-0.4,0.4-0.4c0.2,0,0.4,0.2,0.4,0.4s-0.2,0.4-0.4,0.4C81.8,397.4,81.6,397.3,81.6,397z"
				/>
			<path class="st6" d="M79.1,397c0-0.2,0.2-0.4,0.4-0.4s0.4,0.2,0.4,0.4s-0.2,0.4-0.4,0.4S79.1,397.3,79.1,397z"/>
			<path class="st6" d="M76.6,397c0-0.2,0.2-0.4,0.4-0.4c0.2,0,0.4,0.2,0.4,0.4s-0.2,0.4-0.4,0.4C76.7,397.4,76.6,397.3,76.6,397z"
				/>
		</g>
	</g>
	<path class="st22" d="M97.4,401.2H59.7c-0.9,0-1.6-0.7-1.6-1.6v-37.6c0-0.9,0.7-1.6,1.6-1.6h37.6c0.9,0,1.6,0.7,1.6,1.6v37.6
		C99,400.4,98.3,401.2,97.4,401.2z"/>
</g>
<path class="st23" d="M122.5-14.9h27.4c0.7,0,1.2,0.5,1.2,1.2v27.4c0,0.7-0.5,1.2-1.2,1.2h-27.4c-0.7,0-1.2-0.5-1.2-1.2v-27.4
	C121.3-14.4,121.8-14.9,122.5-14.9z"/>
<g>
	
		<rect x="94" y="295.8" transform="matrix(0.7071 -0.7071 0.7071 0.7071 -189.743 172.7693)" class="st24" width="39.3" height="39.3"/>
	
		<rect x="100.7" y="302.4" transform="matrix(0.7071 -0.7071 0.7071 0.7071 -189.7359 172.7722)" class="st24" width="26" height="26"/>
	
		<rect x="107.3" y="309.1" transform="matrix(0.7071 -0.7071 0.7071 0.7071 -189.7409 172.7743)" class="st25" width="12.7" height="12.7"/>
</g>
<g>
	
		<rect x="564.6" y="125.7" transform="matrix(0.7071 -0.7071 0.7071 0.7071 68.3461 455.6821)" class="st24" width="39.3" height="39.3"/>
	
		<rect x="571.2" y="132.3" transform="matrix(0.7071 -0.7071 0.7071 0.7071 68.3532 455.685)" class="st24" width="26" height="26"/>
	
		<rect x="577.9" y="139" transform="matrix(0.7071 -0.7071 0.7071 0.7071 68.3482 455.6871)" class="st25" width="12.7" height="12.7"/>
</g>
<g>
	
		<rect x="678.3" y="-1.4" transform="matrix(0.7071 -0.7071 0.7071 0.7071 191.5196 498.9058)" class="st24" width="39.3" height="39.3"/>
	<rect x="685" y="5.2" transform="matrix(0.7071 -0.7071 0.7071 0.7071 191.5266 498.9028)" class="st24" width="26" height="26"/>
	
		<rect x="691.6" y="11.9" transform="matrix(0.7071 -0.7071 0.7071 0.7071 191.5175 498.9008)" class="st24" width="12.7" height="12.7"/>
</g>
<g>
	
		<rect x="126.8" y="471.2" transform="matrix(0.7071 -0.7071 0.7071 0.7071 -307.9869 256.4632)" class="st26" width="57.6" height="57.6"/>
	
		<rect x="136.5" y="480.9" transform="matrix(0.7071 -0.7071 0.7071 0.7071 -307.9848 256.4682)" class="st26" width="38.1" height="38.1"/>
	
		<rect x="146.3" y="490.7" transform="matrix(0.7071 -0.7071 0.7071 0.7071 -307.9798 256.4661)" class="st26" width="18.6" height="18.6"/>
</g>
<g>
	<path class="st23" d="M505.8,179.7l19.4,19.4c0.5,0.5,0.5,1.2,0,1.7l-19.4,19.4c-0.5,0.5-1.2,0.5-1.7,0l-19.4-19.4
		c-0.5-0.5-0.5-1.2,0-1.7l19.4-19.4C504.6,179.2,505.3,179.2,505.8,179.7z"/>
	<path class="st1" d="M505.3,191.3l8.2,8.2c0.2,0.2,0.2,0.5,0,0.7l-8.2,8.2c-0.2,0.2-0.5,0.2-0.7,0l-8.2-8.2c-0.2-0.2-0.2-0.5,0-0.7
		l8.2-8.2C504.8,191.1,505.1,191.1,505.3,191.3z"/>
</g>
<g>
	<path class="st27" d="M199.7,336.6l13.7,13.7c0.3,0.3,0.3,0.9,0,1.2l-13.7,13.7c-0.3,0.3-0.9,0.3-1.2,0l-13.7-13.7
		c-0.3-0.3-0.3-0.9,0-1.2l13.7-13.7C198.9,336.3,199.4,336.3,199.7,336.6z"/>
	<path class="st1" d="M199.4,344.8l5.8,5.8c0.1,0.1,0.1,0.4,0,0.5l-5.8,5.8c-0.1,0.1-0.4,0.1-0.5,0l-5.8-5.8c-0.1-0.1-0.1-0.4,0-0.5
		l5.8-5.8C199,344.7,199.3,344.7,199.4,344.8z"/>
</g>
<path class="st23" d="M33,80.1l5.8,5.8c0.1,0.1,0.1,0.4,0,0.5L33,92.2c-0.1,0.1-0.4,0.1-0.5,0l-5.8-5.8c-0.1-0.1-0.1-0.4,0-0.5
	l5.8-5.8C32.6,80,32.8,80,33,80.1z"/>
<path class="st28" d="M690.6,95.6l5.8,5.8c0.1,0.1,0.1,0.4,0,0.5l-5.8,5.8c-0.1,0.1-0.4,0.1-0.5,0l-5.8-5.8c-0.1-0.1-0.1-0.4,0-0.5
	l5.8-5.8C690.2,95.5,690.4,95.5,690.6,95.6z"/>
<path class="st28" d="M494.1,472.1l5.8,5.8c0.1,0.1,0.1,0.4,0,0.5l-5.8,5.8c-0.1,0.1-0.4,0.1-0.5,0l-5.8-5.8c-0.1-0.1-0.1-0.4,0-0.5
	l5.8-5.8C493.7,472,493.9,472,494.1,472.1z"/>
<path class="st28" d="M270.1,16l5.8,5.8c0.1,0.1,0.1,0.4,0,0.5l-5.8,5.8c-0.1,0.1-0.4,0.1-0.5,0l-5.8-5.8c-0.1-0.1-0.1-0.4,0-0.5
	l5.8-5.8C269.7,15.8,269.9,15.8,270.1,16z"/>
<path class="st4" d="M348.5,217.7c3.3,2.8,7.3,2.8,10.6,0l0,0c3.3-2.8,7.3-2.8,10.6,0l0,0c3.3,2.8,7.3,2.8,10.6,0l0,0
	c3.3-2.8,7.3-2.8,10.6,0l0,0c3.3,2.8,7.3,2.8,10.6,0"/>
<path class="st5" d="M348.5,278.1c3.3,2.8,7.3,2.8,10.6,0l0,0c3.3-2.8,7.3-2.8,10.6,0l0,0c3.3,2.8,7.3,2.8,10.6,0l0,0
	c3.3-2.8,7.3-2.8,10.6,0l0,0c3.3,2.8,7.3,2.8,10.6,0"/>
</svg>
