<svg xmlns="http://www.w3.org/2000/svg" width="1157.921" height="975.961" viewBox="0 0 1157.921 975.961">
  <g id="Group_3" data-name="Group 3" transform="translate(-480.783 -104.039)">
    <g id="Group_1" data-name="Group 1" transform="translate(480.783 104.067)">
      <path id="Path_1" data-name="Path 1" d="M516.326,380.018V649.609L561.42,723.1l3.432,5.59h177.93l3.6-348.672Z" transform="translate(236.109 173.79)" fill="#e6e6e6"/>
      <path id="Path_2" data-name="Path 2" d="M516.326,380.018V649.609L561.42,723.1l2.767-343.082Z" transform="translate(236.109 173.79)" opacity="0.1"/>
      <path id="Path_3" data-name="Path 3" d="M293.755,375.084V644.676L248.66,718.167l-3.432,5.589H67.3L63.7,375.084Z" transform="translate(29.13 171.534)" fill="#e6e6e6"/>
      <path id="Path_4" data-name="Path 4" d="M236.585,375.084V644.676L191.49,718.167l-2.767-343.083Z" transform="translate(86.3 171.534)" opacity="0.1"/>
      <path id="Path_5" data-name="Path 5" d="M1014.606,388.3v16.174H47.67V381.114l89.864-46.729H935.527Z" transform="translate(21.799 152.923)" fill="#e6e6e6"/>
      <path id="Path_6" data-name="Path 6" d="M1014.606,373.641v16.174H47.67V366.451Z" transform="translate(21.799 167.586)" opacity="0.1"/>
      <path id="Path_7" data-name="Path 7" d="M161.81,430.831H118.675L100.7,418.25H181.58Z" transform="translate(46.049 191.273)" fill="#3f3d56"/>
      <path id="Path_8" data-name="Path 8" d="M161.81,466.6H118.675L100.7,454.016H181.58Z" transform="translate(46.049 207.629)" fill="#3f3d56"/>
      <path id="Path_9" data-name="Path 9" d="M161.81,517.163H118.675L100.7,504.581H181.58Z" transform="translate(46.049 230.751)" fill="#3f3d56"/>
      <path id="Path_10" data-name="Path 10" d="M161.81,567.728H118.675L100.7,555.147H181.58Z" transform="translate(46.049 253.875)" fill="#3f3d56"/>
      <path id="Path_11" data-name="Path 11" d="M601.461,435.764H644.6l17.973-12.581H581.691Z" transform="translate(266 193.529)" fill="#3f3d56"/>
      <path id="Path_12" data-name="Path 12" d="M601.461,471.53H644.6l17.973-12.581H581.691Z" transform="translate(266 209.884)" fill="#3f3d56"/>
      <path id="Path_13" data-name="Path 13" d="M601.461,522.1H644.6l17.973-12.581H581.691Z" transform="translate(266 233.008)" fill="#3f3d56"/>
      <path id="Path_14" data-name="Path 14" d="M601.461,572.661H644.6l17.973-12.581H581.691Z" transform="translate(266 256.13)" fill="#3f3d56"/>
      <path id="Path_15" data-name="Path 15" d="M978.079,235.615H614.943A13.732,13.732,0,0,0,601.21,249.35V493.966A13.732,13.732,0,0,0,614.945,507.7H752.792l-5.164,32.973s-29.514,15.679-8.762,16.14,118.518,0,118.518,0,18.907,0-11.068-16.6L841.458,507.7h136.62a13.732,13.732,0,0,0,13.733-13.735V249.348a13.732,13.732,0,0,0-13.734-13.733Z" transform="translate(-81.244 -60.063)" fill="#3f3d56"/>
      <rect id="Rectangle_1" data-name="Rectangle 1" width="364.316" height="203.832" transform="translate(533.109 190.078)" fill="#f2f2f2"/>
      <circle id="Ellipse_1" data-name="Ellipse 1" cx="2.306" cy="2.306" r="2.306" transform="translate(712.961 181.317)" fill="#f2f2f2"/>
      <circle id="Ellipse_2" data-name="Ellipse 2" cx="8.762" cy="8.762" r="8.762" transform="translate(706.505 420.198)" fill="#f2f2f2"/>
      <path id="Path_16" data-name="Path 16" d="M559.305,363.161v4.612H311.2v-3.69l.341-.922,6.115-16.6H554.232Z" transform="translate(142.308 158.49)" fill="#3f3d56"/>
      <path id="Path_17" data-name="Path 17" d="M813.233,475c-.452,1.932-2.158,3.971-6.014,5.9-13.835,6.917-41.965-1.845-41.965-1.845s-21.674-3.689-21.674-13.374a17.287,17.287,0,0,1,1.9-1.13c5.817-3.077,25.1-10.67,59.3.322a14.262,14.262,0,0,1,6.5,4.26A6.8,6.8,0,0,1,813.233,475Z" transform="translate(-16.141 42.142)" fill="#3f3d56"/>
      <path id="Path_18" data-name="Path 18" d="M812.637,475c-16.934,6.489-32.027,6.973-47.518-3.786a34.017,34.017,0,0,0-20.236-6.664c5.817-3.077,25.1-10.671,59.3.322a14.26,14.26,0,0,1,6.5,4.26A6.8,6.8,0,0,1,812.636,475Z" transform="translate(-15.545 42.142)" opacity="0.1"/>
      <ellipse id="Ellipse_3" data-name="Ellipse 3" cx="5.995" cy="1.845" rx="5.995" ry="1.845" transform="translate(769.864 509.662)" fill="#f2f2f2"/>
      <path id="Path_19" data-name="Path 19" d="M559.305,357.952v4.612H311.2v-3.69l.341-.922Z" transform="translate(142.308 163.7)" opacity="0.1"/>
      <path id="Path_20" data-name="Path 20" d="M353.622,115.172a12.466,12.466,0,0,0-7.23,1.615c-2.151,1.473-3.507,4.054-4.89,6.455A77.215,77.215,0,0,1,320.466,147c-6.25,4.579-14.2,10.288-13.127,18.73a25.313,25.313,0,0,0,3.047,7.907c5.766,11.639,21.5,20.634,19.953,33.916,5.729-9.59-1.934-14.332,3.795-23.923,2.728-4.567,7.467-9.723,11.586-6.854,1.379.96,2.285,2.683,3.721,3.525,3.426,2.011,7.072-1.833,10.1-4.556,10.459-9.389,25.332-6.929,38.347-4,6.144,1.381,12.893,3.193,16.525,9.065,4.776,7.721-4.537,16.06-6.89,24.789a4.757,4.757,0,0,0,5.1,5.92c3.905-.385,8.531-.7,8.762-2.415,4.913.175,10.934-.382,13.039-5.5a21.51,21.51,0,0,0,1.009-6.256c.773-8.594,4.42-16.434,6.836-24.613s3.467-17.765-.611-25.017a28.949,28.949,0,0,0-5.342-6.493C413.184,118.831,382.76,115.139,353.622,115.172Z" transform="translate(-215.672 -115.159)" fill="#2f2e41"/>
      <path id="Path_21" data-name="Path 21" d="M332.433,192.572s5.033,41.938-13.42,45.294,16.775,60.391,16.775,60.391l83.877,10.065-20.13-67.1s-13.42-5.033-5.033-38.583S332.433,192.572,332.433,192.572Z" transform="translate(-212.735 -83.4)" fill="#ffb8b8"/>
      <path id="Path_22" data-name="Path 22" d="M47.028,569.318l6.711,92.265H88.966L78.9,569.318Z" transform="translate(21.505 260.355)" fill="#ffb8b8"/>
      <path id="Path_23" data-name="Path 23" d="M224.3,450.653l5.032,77.166,38.585-16.775-15.1-63.746Z" transform="translate(102.571 204.557)" fill="#ffb8b8"/>
      <path id="Path_24" data-name="Path 24" d="M274.167,465.247s1.678,97.3,11.743,129.17S294.3,627.968,292.62,633s-3.355,1.677-3.355,10.065-3.355,140.913,0,152.655-10.065,31.873,0,33.551,57.036,0,58.714-10.065-13.42-13.42-6.71-20.13,16.775-144.268,16.775-144.268l23.486-95.62,43.616-50.326H517.41L545.928,619.58s-11.743,31.873-3.355,31.873,58.714,10.065,58.714-26.841-16.776-145.945-20.131-149.3,1.677-15.1-3.355-20.13-63.746-40.261-85.554-46.971-52.4-14.7-52.4-14.7Z" transform="translate(-230.797 12.143)" fill="#2f2e41"/>
      <path id="Path_25" data-name="Path 25" d="M512.662,597.412s-25.163-8.388-36.906,16.776-6.71,31.873-6.71,31.873,38.583,13.42,45.294,6.71c2.919-2.919,12.19-3.934,21.732-4.148,14.533-.326,18.4-20.888,4.674-25.676q-.614-.214-1.243-.372C526.082,619.219,512.662,597.412,512.662,597.412Z" transform="translate(-142.172 104.769)" fill="#2f2e41"/>
      <circle id="Ellipse_4" data-name="Ellipse 4" cx="50.326" cy="50.326" r="50.326" transform="translate(107.116 36.199)" fill="#ffb8b8"/>
      <path id="Path_26" data-name="Path 26" d="M320.71,240.1s82.2,16.775,102.33-10.065,28.518,75.489,28.518,75.489l10.065,107.362-15.1,58.714s-78.844,63.746-104.007,68.779-63.746,8.388-63.746,8.388,11.743-186.206,11.743-189.561S320.71,240.1,320.71,240.1Z" transform="translate(-228.691 -64.666)" fill="#6c63ff"/>
      <path id="Path_27" data-name="Path 27" d="M356.964,215.445s-18.289-10.477-23.321-.412-52,35.228-57.035,35.228,10.065,139.235,3.355,156.011-38.583,139.235-20.131,149.3,5.033-10.065,23.486,15.1,109.04,25.163,114.073,15.1-40.261-85.554-31.873-156.011S387.325,262,375.582,248.583,356.964,215.445,356.964,215.445Z" transform="translate(-239.947 -71.472)" fill="#2f2e41"/>
      <path id="Path_28" data-name="Path 28" d="M366.258,224.243l2.337-8.041s69.8,23.139,73.152,38.237,1.678,120.783-10.065,129.17-28.518,21.808-16.775,41.938,25.163,41.938,35.228,43.616,28.518,13.42,23.486,25.163S408.2,484.261,408.2,484.261s-40.261-30.2-38.583-77.167S366.258,224.243,366.258,224.243Z" transform="translate(-188.685 -68.94)" fill="#2f2e41"/>
      <path id="Path_29" data-name="Path 29" d="M430.327,357.554l-40.261,75.489s-58.714,60.391-25.163,67.1,52-55.359,52-55.359l43.616-62.069Z" transform="translate(-194.04 -4.301)" fill="#ffb8b8"/>
      <path id="Path_30" data-name="Path 30" d="M352.6,124.2a11.422,11.422,0,0,0-5.885,1.142,13.718,13.718,0,0,0-3.981,4.562A57.96,57.96,0,0,1,325.607,146.7c-5.088,3.236-11.556,7.271-10.686,13.238a16.554,16.554,0,0,0,2.48,5.588,43.957,43.957,0,0,1,5.341,27.4l13.99-20.335c2.221-3.228,6.079-6.872,9.432-4.845,1.123.679,1.86,1.9,3.029,2.492,2.789,1.421,5.757-1.3,8.226-3.22,8.514-6.636,20.621-4.9,31.216-2.83,5,.976,10.5,2.257,13.452,6.407,4.914,6.9-.217,16.864,2.651,24.832a7.32,7.32,0,0,0,3.029-4.834c4,.124,8.9-.27,10.614-3.886a13.391,13.391,0,0,0,.822-4.422c.629-6.074,3.6-11.616,5.565-17.4s2.822-12.556-.5-17.682a21.393,21.393,0,0,0-4.349-4.589C401.084,126.791,376.318,124.18,352.6,124.2Z" transform="translate(-212.197 -111.023)" fill="#2f2e41"/>
      <path id="Path_31" data-name="Path 31" d="M410.759,237.836l15.63,4.149s36.374,93.148,27.986,156.894-13.42,50.326-13.42,50.326-13.42-30.2-43.616-23.486Z" transform="translate(-174.472 -59.047)" fill="#2f2e41"/>
      <path id="Path_32" data-name="Path 32" d="M301.676,740.96c-4.045,5.5-3.234,13.355-6.818,19.165-3.106,5.035-8.96,7.676-12.845,12.137a32.539,32.539,0,0,0-3.3,4.75c-3.6,6.037-6.533,13.774-2.984,19.843,2.855,4.882,8.857,6.79,14.362,8.091,6.957,1.644,14.186,2.959,21.223,1.7s13.915-5.565,16.425-12.259a47.373,47.373,0,0,1,1.756-4.956c3.814-7.509,15.779-7.591,19.683-15.054,2.732-5.223.221-11.536-2.29-16.869l-7.667-16.288c-2.544-5.405-12.859-2.3-18.236-3.592C313.97,735.942,306.721,734.08,301.676,740.96Z" transform="translate(-230.819 168.784)" fill="#2f2e41"/>
      <path id="Path_33" data-name="Path 33" d="M254.6,384.262,325.055,493.3s43.616,55.359,57.036,30.2-46.971-67.1-46.971-67.1l-45.293-83.877Z" transform="translate(-239.746 2.542)" fill="#ffb8b8"/>
      <path id="Path_34" data-name="Path 34" d="M294.487,241.191l-13.42-3.355s-26.841,8.388-33.551,43.616-1.678,176.141,6.71,177.818,41.427-24.536,46.715-18.978-11.487-22.96-6.454-38.058S294.487,241.191,294.487,241.191Z" transform="translate(-244.406 -59.047)" fill="#2f2e41"/>
      <g id="Group_13" data-name="Group 13" transform="translate(604.596 282.025)">
        <rect id="Rectangle_55" data-name="Rectangle 55" width="36.854" height="10.438" transform="translate(46.408)" fill="#6c63ff"/>
        <rect id="Rectangle_56" data-name="Rectangle 56" width="12.967" height="10.438" transform="translate(197.917)" fill="#6c63ff"/>
        <rect id="Rectangle_57" data-name="Rectangle 57" width="12.967" height="10.438" transform="translate(223.852)" fill="#6c63ff"/>
        <rect id="Rectangle_58" data-name="Rectangle 58" width="88.039" height="10.438" transform="translate(96.229)" fill="#6c63ff"/>
        <rect id="Rectangle_59" data-name="Rectangle 59" width="36.854" height="10.438" transform="translate(0 67.445)" fill="#6c63ff"/>
        <rect id="Rectangle_60" data-name="Rectangle 60" width="12.967" height="10.438" transform="translate(151.509 67.445)" fill="#6c63ff"/>
        <rect id="Rectangle_61" data-name="Rectangle 61" width="12.967" height="10.438" transform="translate(177.443 67.445)" fill="#6c63ff"/>
        <rect id="Rectangle_62" data-name="Rectangle 62" width="88.039" height="10.438" transform="translate(49.821 67.445)" fill="#6c63ff"/>
        <rect id="Rectangle_63" data-name="Rectangle 63" width="36.854" height="10.438" transform="translate(152.192 23.285)" fill="#6c63ff"/>
        <rect id="Rectangle_64" data-name="Rectangle 64" width="36.854" height="10.438" transform="translate(202.013 23.285)" fill="#6c63ff"/>
        <rect id="Rectangle_66" data-name="Rectangle 66" width="12.967" height="10.438" transform="translate(0 23.285)" fill="#6c63ff"/>
        <rect id="Rectangle_67" data-name="Rectangle 67" width="12.967" height="10.438" transform="translate(25.934 23.285)" fill="#6c63ff"/>
        <rect id="Rectangle_68" data-name="Rectangle 68" width="88.039" height="10.438" transform="translate(51.868 23.285)" fill="#6c63ff"/>
        <rect id="Rectangle_69" data-name="Rectangle 69" width="36.854" height="10.438" transform="translate(75.755 45.766)" fill="#6c63ff"/>
        <rect id="Rectangle_70" data-name="Rectangle 70" width="36.854" height="10.438" transform="translate(25.934 45.766)" fill="#6c63ff"/>
        <rect id="Rectangle_71" data-name="Rectangle 71" width="12.967" height="10.438" transform="translate(0 45.766)" fill="#6c63ff"/>
        <rect id="Rectangle_73" data-name="Rectangle 73" width="12.967" height="10.438" transform="translate(225.899 45.766)" fill="#6c63ff"/>
        <rect id="Rectangle_74" data-name="Rectangle 74" width="88.039" height="10.438" transform="translate(124.892 45.766)" fill="#6c63ff"/>
      </g>
    </g>
    <text id="No_Job_Available" data-name="No Job Available" transform="translate(1103 353)" fill="#6c63ff" font-size="20" font-family="SegoeUI-Bold, Segoe UI" font-weight="700"><tspan x="-79.277" y="0">No Job Available</tspan></text>
    <g id="Group_2" data-name="Group 2" transform="translate(1338 886.337)">
      <path id="Path_35" data-name="Path 35" d="M453.175,215.249l-67.315-1.911s5.067-30.311-11.19-38.724c-11.081-5.737-20.917-32.539-18.118-50.772q.055-.366.119-.723c1.419-8.166,5.473-14.487,13.219-16.2,25.053-5.545,42.933-1.244,42.933-1.244a66.2,66.2,0,0,1,10.272,1.2c.218.04.436.083.657.129,17.362,3.4,49.452,15.517,50.842,58.526,1.911,59.09-21.419,49.719-21.419,49.719Z" transform="translate(-186.666 -54.563)" fill="#3f3d56"/>
      <path id="Path_36" data-name="Path 36" d="M423.058,109.954a24.785,24.785,0,0,1-2.089,9.061A24.171,24.171,0,0,1,407.389,132c-18.3,7-39.652.056-50.452-7.476-.043.238-.9,4.751-.937,5,4.783,3.271,28.185,6.429,32.625,6.429a53.313,53.313,0,0,0,19-3.33,24.845,24.845,0,0,0,13.946-13.338,25.47,25.47,0,0,0,2.142-9.2c-.221-.046-.439-.089-.657-.129h0Z" transform="translate(-186.629 -57.642)" fill="#6c63ff"/>
      <path id="Path_37" data-name="Path 37" d="M419.124,56.237l-10.73-26.979S421.27,7.184,411.153,4.731s-20.541,10.73-20.541,10.73S371.3,8.717,363.939,14.235c0,0-12.263-17.169-19.621-13.8s2.614,27.68,2.614,27.68-15.184,22.293-3.534,35.17,55.492,23.3,75.726-7.051h0Z" transform="translate(-177.717 0)" fill="#3f3d56"/>
      <path id="Path_39" data-name="Path 39" d="M554.422,289.821c3.653,1.625,7.47,3.284,11.465,3.125s8.2-2.732,8.822-6.681c.321-2.039-.316-4.226.465-6.137,1.05-2.571,4.438-3.562,7.072-2.681S586.814,280.6,588.2,283c2.6,4.5,3.635,10.409.853,14.8-2.412,3.8-6.988,5.522-11.244,7-5.669,1.964-12,3.913-17.492,1.5a12.487,12.487,0,0,1-6.488-15.112" transform="translate(-290.002 -145.283)" fill="#3f3d56"/>
      <path id="Path_40" data-name="Path 40" d="M416.734,91.605s-6.6-2.641-10.892.66l4.951,7.592,5.941-8.252Z" transform="translate(-212.758 -47.499)" fill="#6c63ff"/>
      <path id="Path_41" data-name="Path 41" d="M355.889,165.554,368.1,230.579s-18.484,18.814,5.281,18.484,16.834-12.543,16.834-12.543l-7.592-56.443" transform="translate(-186.571 -86.79)" fill="#3f3d56"/>
      <path id="Path_42" data-name="Path 42" d="M376.631,267.277c-6.436,0-10.329-1.475-11.575-4.389-2.269-5.307,5.118-13.4,6.384-14.733l-8.212-48.615.938-.158,8.292,49.09-.17.173c-.085.087-8.535,8.777-6.358,13.868,1.118,2.615,4.91,3.9,11.293,3.807,8.872-.123,14.592-1.982,16.544-5.376,1.758-3.056-.1-6.423-.118-6.457l-.045-.08-.013-.091-5.281-39.279.943-.127,5.27,39.192c.312.594,1.955,4.024.074,7.306-2.154,3.76-8,5.732-17.361,5.862q-.307,0-.606,0Z" transform="translate(-190.419 -104.524)" fill="#2f2e41"/>
      <path id="Path_43" data-name="Path 43" d="M421.105,165.554l12.213,65.025s-18.484,18.814,5.281,18.484,16.834-12.543,16.834-12.543l-7.592-56.443" transform="translate(-220.76 -86.79)" fill="#3f3d56"/>
      <path id="Path_44" data-name="Path 44" d="M443.386,265.476c-6.436,0-10.329-1.475-11.574-4.389-2.267-5.3,5.1-13.385,6.38-14.729l-4.906-26.165.935-.175,5,26.65-.174.177c-.086.087-8.535,8.777-6.357,13.868,1.119,2.615,4.913,3.9,11.293,3.807,8.879-.123,14.6-1.985,16.549-5.384,1.757-3.066-.1-6.415-.122-6.448l-.046-.08-7.6-56.534.943-.127,7.58,56.356c.312.594,1.955,4.024.074,7.306-2.154,3.76-8,5.732-17.362,5.862q-.307,0-.606,0Z" transform="translate(-226.147 -102.723)" fill="#2f2e41"/>
    </g>
    <ellipse id="Ellipse_5" data-name="Ellipse 5" cx="4" cy="3.5" rx="4" ry="3.5" transform="translate(607 177)" fill="#fff"/>
    <ellipse id="Ellipse_6" data-name="Ellipse 6" cx="4" cy="3.5" rx="4" ry="3.5" transform="translate(655 183)" fill="#fff"/>
  </g>
</svg>
