<?xml version="1.0" encoding="utf-8"?>
<!-- Generator: Adobe Illustrator 27.0.0, SVG Export Plug-In . SVG Version: 6.00 Build 0)  -->
<svg version="1.1" id="Layer_1" xmlns="http://www.w3.org/2000/svg" xmlns:xlink="http://www.w3.org/1999/xlink" x="0px" y="0px"
	 viewBox="0 0 185.5 161" style="enable-background:new 0 0 185.5 161;" xml:space="preserve">
<style type="text/css">
	.st0{fill:url(#SVGID_1_);}
	.st1{fill:url(#SVGID_00000064336302613334464250000010913615657315433347_);}
	.st2{fill:url(#SVGID_00000121275371425971891350000016041494067792807553_);}
	.st3{fill:url(#SVGID_00000173121762997629876000000002834961235447103414_);}
</style>
<radialGradient id="SVGID_1_" cx="106.917" cy="73.6065" r="76.1236" gradientUnits="userSpaceOnUse">
	<stop  offset="0" style="stop-color:#BB00F7"/>
	<stop  offset="0.5" style="stop-color:#9D9B9C"/>
	<stop  offset="1" style="stop-color:#6100FF"/>
</radialGradient>
<path class="st0" d="M143,22.7c-14-1.3-27.1-6.9-38.4-15.3c-8.1-6-19.1-10.1-32.2-5.2C61,6.4,54.2,19.2,51.8,31.7
	c-2.5,13.1-7.9,25.4-15.4,36.4C28.3,80,25.8,95.5,31.3,110c6.4,17.3,22.1,28.3,39.4,29.7c9,0.7,17.9,2.6,26.4,5.6
	c7,2.5,14.9,2.6,22.4-0.1c9.7-3.6,16.7-11.4,19.7-20.6c3.2-9.9,10.7-17.7,20.2-21.8c0.1,0,0.1-0.1,0.2-0.1
	c19.9-8.7,30.4-31.3,24.1-52.2C178.7,33.8,160.7,24.4,143,22.7L143,22.7z"/>
<linearGradient id="SVGID_00000042011983376693064210000003251004959776607164_" gradientUnits="userSpaceOnUse" x1="58.882" y1="43.9792" x2="148.432" y2="133.5392" gradientTransform="matrix(0.9852 -0.1716 -0.1716 -0.9852 6.2534 185.0052)">
	<stop  offset="0" style="stop-color:#FF00F1"/>
	<stop  offset="1" style="stop-color:#6100FF"/>
</linearGradient>
<path style="fill:url(#SVGID_00000042011983376693064210000003251004959776607164_);" d="M111.4,157.2c24.2,3.5,47.2-12.6,52-36.6
	c1.3-6.3,1.2-12.5,0-18.4c-2.3-11.4-1.9-23.2,1.2-34.4c0.8-2.7,1.3-5.5,1.5-8.5c2-23.2-13.9-44.4-36.7-49.1
	c-13.1-2.7-25.9,0.3-36,7.4C82.8,25.1,69.8,28.4,57,26.8c-0.2,0-0.4-0.1-0.7-0.1C32.3,23.9,10,40.4,5.5,64.1
	c-4.8,25.6,12.4,50,37.9,54.2c0.4,0.1,0.7,0.1,1.1,0.2c14.8,2.1,28,10.1,37.3,21.8C88.9,149.2,99.2,155.5,111.4,157.2L111.4,157.2z"
	/>
<linearGradient id="SVGID_00000013172463802666153900000017136239660053785241_" gradientUnits="userSpaceOnUse" x1="-79.2756" y1="140.4643" x2="-118.1656" y2="179.3544" gradientTransform="matrix(-1 -1.744371e-04 -1.744371e-04 1 -84.5187 -50.5028)">
	<stop  offset="0" style="stop-color:#FF00F1"/>
	<stop  offset="1" style="stop-color:#6100FF"/>
</linearGradient>
<path style="fill:url(#SVGID_00000013172463802666153900000017136239660053785241_);" d="M2.8,122.2c-5.6-5.6-1.9-18.5,3.7-24.2
	s14.8-5.6,20.4,0s5.6,14.8,0,20.4S8.4,127.8,2.8,122.2z"/>
<linearGradient id="SVGID_00000078024599075499990630000005776416814082906016_" gradientUnits="userSpaceOnUse" x1="130.4072" y1="-20.8793" x2="151.0019" y2="-20.8793" gradientTransform="matrix(-1.745702e-04 1 1 1.745702e-04 188.6372 -42.5113)">
	<stop  offset="0" style="stop-color:#FF00F1"/>
	<stop  offset="1" style="stop-color:#6100FF"/>
</linearGradient>
<path style="fill:url(#SVGID_00000078024599075499990630000005776416814082906016_);" d="M159.3,89.8c3.7-3.7,12.2-1.3,16,2.5
	c3.7,3.7,3.7,9.8,0,13.5c-3.7,3.7-9.8,3.7-13.5,0C158,102,155.6,93.6,159.3,89.8z"/>
</svg>
