<?xml version="1.0" encoding="UTF-8"?>
<svg xmlns="http://www.w3.org/2000/svg" xmlns:xlink="http://www.w3.org/1999/xlink" viewBox="0 0 185.47 161.03">
  <defs>
    <style>
      .cls-1 {
        fill: url(#linear-gradient-2);
      }

      .cls-2 {
        isolation: isolate;
      }

      .cls-3 {
        fill: url(#radial-gradient);
        mix-blend-mode: multiply;
      }

      .cls-4 {
        fill: #ff00f1;
      }

      .cls-5 {
        fill: url(#linear-gradient-3);
      }

      .cls-6 {
        fill: url(#linear-gradient);
      }
    </style>
    <radialGradient id="radial-gradient" cx="69.55" cy="105.15" fx="69.55" fy="105.15" r="55.76" gradientTransform="translate(172.48 32.66) rotate(88.32)" gradientUnits="userSpaceOnUse">
      <stop offset="0" stop-color="#5800aa"/>
      <stop offset="1" stop-color="#fff"/>
    </radialGradient>
    <linearGradient id="linear-gradient" x1="119.44" y1="23.44" x2="208.99" y2="-66.12" gradientTransform="translate(-64.97 128.98) rotate(-9.88)" gradientUnits="userSpaceOnUse">
      <stop offset="0" stop-color="#ff00f1"/>
      <stop offset="1" stop-color="#6100ff"/>
    </linearGradient>
    <linearGradient id="linear-gradient-2" x1="1098.72" y1="627.49" x2="1059.83" y2="588.6" gradientTransform="translate(1093.4 717.6) rotate(-179.99)" xlink:href="#linear-gradient"/>
    <linearGradient id="linear-gradient-3" x1="417.51" y1="1075.97" x2="438.11" y2="1075.97" gradientTransform="translate(1243.74 -329.43) rotate(90.01)" xlink:href="#linear-gradient"/>
  </defs>
  <g class="cls-2">
    <g id="Layer_2" data-name="Layer 2">
      <g id="OBJECTS">
        <g>
          <path class="cls-4" d="M143.04,22.72c-13.99-1.32-27.13-6.94-38.42-15.32-8.12-6.03-19.08-10.13-32.16-5.25-11.5,4.28-18.24,17.05-20.62,29.57-2.49,13.09-7.89,25.37-15.42,36.36-8.14,11.88-10.57,27.4-5.16,41.92,6.43,17.26,22.15,28.34,39.37,29.7,9,.71,17.9,2.56,26.4,5.61,6.99,2.5,14.88,2.65,22.38-.15,9.73-3.63,16.71-11.4,19.68-20.57,3.2-9.88,10.71-17.68,20.24-21.81,.07-.03,.13-.06,.2-.09,19.91-8.74,30.38-31.32,24.14-52.15-5-16.71-22.95-26.15-40.64-27.82Z"/>
          <circle class="cls-3" cx="69.41" cy="105.26" r="55.76" transform="translate(-37.85 171.55) rotate(-88.31)"/>
          <path class="cls-6" d="M111.37,157.24c24.15,3.51,47.15-12.65,52-36.57,1.27-6.28,1.21-12.5,.03-18.38-2.3-11.4-1.92-23.23,1.16-34.45,.75-2.72,1.26-5.55,1.5-8.48,1.96-23.16-13.91-44.38-36.67-49.11-13.08-2.72-25.91,.34-35.96,7.36-10.65,7.44-23.6,10.83-36.48,9.15-.22-.03-.44-.06-.66-.08-23.99-2.78-46.32,13.69-50.77,37.43-4.8,25.59,12.38,49.99,37.93,54.22,.36,.06,.71,.11,1.07,.16,14.78,2.1,28.01,10.12,37.31,21.8,7.06,8.86,17.38,15.18,29.54,16.95Z"/>
        </g>
        <g>
          <path class="cls-1" d="M2.8,122.21c-5.64-5.64-1.9-18.52,3.74-24.16,5.64-5.64,14.78-5.64,20.42,0,5.64,5.64,5.64,14.78,0,20.42s-18.52,9.38-24.16,3.74Z"/>
          <path class="cls-5" d="M159.28,89.82c3.73-3.72,12.23-1.26,15.96,2.47,3.72,3.73,3.72,9.76,0,13.49-3.73,3.72-9.76,3.72-13.49,0-3.72-3.73-6.19-12.23-2.47-15.96Z"/>
        </g>
      </g>
    </g>
  </g>
</svg>