<?xml version="1.0" encoding="utf-8"?>
<!-- Generator: Adobe Illustrator 27.0.0, SVG Export Plug-In . SVG Version: 6.00 Build 0)  -->
<svg version="1.1" id="Layer_1" xmlns="http://www.w3.org/2000/svg" xmlns:xlink="http://www.w3.org/1999/xlink" x="0px" y="0px"
	 viewBox="0 0 185.5 161" style="enable-background:new 0 0 185.5 161;" xml:space="preserve">
<style type="text/css">
	.st0{fill:url(#SVGID_1_);}
	.st1{fill:url(#SVGID_00000155108700417212900140000007748608952175187386_);}
	.st2{fill:url(#SVGID_00000043452921245571643510000006360820262898650765_);}
	.st3{fill:url(#SVGID_00000029043330514229644490000016171940019283091108_);}
</style>
<radialGradient id="SVGID_1_" cx="45.0008" cy="667.6793" r="76.5503" gradientTransform="matrix(0.8603 0.5098 -0.5098 0.8603 384.563 -516.5894)" gradientUnits="userSpaceOnUse">
	<stop  offset="0.424" style="stop-color:#234638"/>
	<stop  offset="1" style="stop-color:#415B67"/>
</radialGradient>
<path class="st0" d="M51.5,144.5c16,18.2,43.7,20.9,62.8,5.9c5-3.9,16.4-1.2,19.3-6.4c5.6-10.1,6.1-26.2,15.6-32.6
	c2.3-1.5,4.5-3.3,6.6-5.4c21.4-10.9,18.2-42.5,4-60.7c-8.1-10.5-19.7-16.5-31.9-17.6c-12.8-1.2-24.8-7.1-33.4-16.5
	c-0.2-0.1-0.2-0.3-0.5-0.5C74.8-3.5,60,4.4,38.3,14.9c-20.1,16.2-38.7,31.3-13,56.4c0.2,0.3,0.5,0.5,0.7,0.9
	c9.8,11.1,14.6,25.7,14.1,40.5C39.7,124,43.4,135.4,51.5,144.5L51.5,144.5z"/>
<linearGradient id="SVGID_00000135665788240358106530000001054051737534826428_" gradientUnits="userSpaceOnUse" x1="13.6598" y1="705.85" x2="103.2098" y2="616.29" gradientTransform="matrix(0.9852 -0.1716 0.1716 0.9852 -72.5094 -564.4224)">
	<stop  offset="1.294806e-07" style="stop-color:#232E5E"/>
	<stop  offset="1" style="stop-color:#415B67"/>
</linearGradient>
<path style="fill:url(#SVGID_00000135665788240358106530000001054051737534826428_);" d="M116.7,154.3c24.2,3.5,47.2-12.6,52-36.6
	c1.3-6.3,1.2-12.5,0-18.4c-2.3-11.4-1.9-23.2,1.2-34.4c0.8-2.7,1.3-5.5,1.5-8.5c2-23.2-13.9-44.4-36.7-49.1
	c-13.1-2.7-25.9,0.3-36,7.4c-10.6,7.5-23.6,10.8-36.4,9.2c-0.2,0-0.4-0.1-0.7-0.1c-24-2.8-46.3,13.7-50.8,37.4
	c-4.8,25.6,12.4,50,37.9,54.2c0.4,0.1,0.7,0.1,1.1,0.2c14.8,2.1,28,10.1,37.3,21.8C94.2,146.3,104.5,152.6,116.7,154.3L116.7,154.3z
	"/>
<linearGradient id="SVGID_00000067230430778299787150000015890265004710896531_" gradientUnits="userSpaceOnUse" x1="-1336.6553" y1="24.5938" x2="-1375.5453" y2="-14.2964" gradientTransform="matrix(-1 -1.744371e-04 1.744371e-04 -1 -1336.5894 111.388)">
	<stop  offset="0" style="stop-color:#415B67"/>
	<stop  offset="1" style="stop-color:#233238"/>
</linearGradient>
<path style="fill:url(#SVGID_00000067230430778299787150000015890265004710896531_);" d="M8.1,119.3c-5.6-5.6-1.9-18.5,3.7-24.2
	s14.8-5.6,20.4,0s5.6,14.8,0,20.4S13.7,124.9,8.1,119.3z"/>
<linearGradient id="SVGID_00000107547128408047863750000006321730871839946888_" gradientUnits="userSpaceOnUse" x1="-255.6511" y1="-206.5319" x2="-235.0564" y2="-206.5319" gradientTransform="matrix(-1.745702e-04 1 -1 -1.745702e-04 -32.4721 340.5594)">
	<stop  offset="0" style="stop-color:#415B67"/>
	<stop  offset="1" style="stop-color:#233238"/>
</linearGradient>
<path style="fill:url(#SVGID_00000107547128408047863750000006321730871839946888_);" d="M165.6,86.9c3.7-3.7,12.2-1.3,16,2.5
	c3.7,3.7,3.7,9.8,0,13.5s-9.8,3.7-13.5,0C164.3,99.1,161.9,90.7,165.6,86.9z"/>
</svg>
