<?xml version="1.0" encoding="utf-8"?>
<!-- Generator: Adobe Illustrator 27.0.0, SVG Export Plug-In . SVG Version: 6.00 Build 0)  -->
<svg version="1.1" id="Layer_1" xmlns="http://www.w3.org/2000/svg" xmlns:xlink="http://www.w3.org/1999/xlink" x="0px" y="0px"
	 viewBox="0 0 169.9 176" style="enable-background:new 0 0 169.9 176;" xml:space="preserve">
<style type="text/css">
	.st0{fill:url(#SVGID_1_);}
	.st1{fill:url(#SVGID_00000036949145577116967210000000466396401707890825_);}
	.st2{fill:url(#SVGID_00000150787437123269593090000012797013811747810472_);}
	.st3{fill:url(#SVGID_00000014628162932318578250000015553024266552195723_);}
</style>
<radialGradient id="SVGID_1_" cx="89.2117" cy="86.2094" r="82.6131" gradientUnits="userSpaceOnUse">
	<stop  offset="6.306323e-03" style="stop-color:#FF52A1"/>
	<stop  offset="0.5" style="stop-color:#772A77"/>
	<stop  offset="0.9619" style="stop-color:#FFA64F"/>
</radialGradient>
<path class="st0" d="M144.4,125.4c1.4-15.2,7.5-29.4,16.6-41.7c6.5-8.8,11-20.7,5.7-34.9c-4.6-12.5-18.5-19.8-32.1-22.4
	c-14.2-2.7-27.5-8.6-39.5-16.7C82.3,0.9,65.5-1.8,49.7,4.1c-18.7,7-30.8,24-32.2,42.7c-0.8,9.8-2.8,19.4-6.1,28.7
	c-2.7,7.6-2.9,16.1,0.2,24.3c3.9,10.6,12.4,18.1,22.3,21.4c10.7,3.5,19.2,11.6,23.7,22c0,0.1,0.1,0.1,0.1,0.2
	c9.5,21.6,34,33,56.6,26.2C132.4,164.1,142.6,144.6,144.4,125.4L144.4,125.4z"/>
<linearGradient id="SVGID_00000182512980392337086160000013536203738695324292_" gradientUnits="userSpaceOnUse" x1="151.0705" y1="152.1095" x2="43.7405" y2="44.7795" gradientTransform="matrix(1 0 0 -1 -0.19 178.09)">
	<stop  offset="0" style="stop-color:#FF00F1"/>
	<stop  offset="1" style="stop-color:#FFB640"/>
</linearGradient>
<path style="fill:url(#SVGID_00000182512980392337086160000013536203738695324292_);" d="M153,56.8c10.9-37-15.8-47.4-42.2-41.4
	C86.5,20.8,76.5,31.6,51.9,31C22.1,30.2,1.2,51.3,1.1,81.1c0,46.4,56.2,45.2,73.5,64.7c37.4,42.2,89.6,7.7,76.5-38
	C144,82.9,151.6,61.6,153,56.8L153,56.8z"/>
<linearGradient id="SVGID_00000090983009997348832130000007614177224661580204_" gradientUnits="userSpaceOnUse" x1="37.1374" y1="34.9874" x2="-2.2926" y2="74.4274" gradientTransform="matrix(1 0 0 -1 -0.19 178.09)">
	<stop  offset="0" style="stop-color:#FF00F1"/>
	<stop  offset="1" style="stop-color:#FFB640"/>
</linearGradient>
<path style="fill:url(#SVGID_00000090983009997348832130000007614177224661580204_);" d="M28.8,110.4c5.7,5.7,1.9,18.8-3.8,24.5
	c-5.7,5.7-15,5.7-20.7,0c-5.7-5.7-5.7-15,0-20.7C10,108.5,23.1,104.7,28.8,110.4z"/>
<linearGradient id="SVGID_00000116194287367171533150000003862732761680621245_" gradientUnits="userSpaceOnUse" x1="548.6949" y1="648.0006" x2="527.1349" y2="669.5606" gradientTransform="matrix(-1.745702e-04 1 1 1.745702e-04 -504.4342 -528.5926)">
	<stop  offset="0" style="stop-color:#FF00F1"/>
	<stop  offset="1" style="stop-color:#FFB640"/>
</linearGradient>
<path style="fill:url(#SVGID_00000116194287367171533150000003862732761680621245_);" d="M161.3,15.7c-3.1,3.1-10.3,1-13.4-2.1
	c-3.1-3.1-3.1-8.2,0-11.3c3.1-3.1,8.2-3.1,11.3,0C162.4,5.5,164.5,12.6,161.3,15.7z"/>
</svg>
