<?xml version="1.0" encoding="UTF-8"?>
<svg xmlns="http://www.w3.org/2000/svg" xmlns:xlink="http://www.w3.org/1999/xlink" viewBox="0 0 169.91 175.96">
  <defs>
    <style>
      .cls-1 {
        fill: url(#linear-gradient-2);
      }

      .cls-2 {
        isolation: isolate;
      }

      .cls-3 {
        fill: url(#radial-gradient);
        mix-blend-mode: multiply;
      }

      .cls-4 {
        fill: url(#linear-gradient-3);
      }

      .cls-5 {
        fill: url(#linear-gradient);
      }

      .cls-6 {
        fill: #ffb640;
      }
    </style>
    <radialGradient id="radial-gradient" cx="102.42" cy="108.16" fx="102.42" fy="108.16" r="67.69" gradientTransform="translate(106.29 -40.64) rotate(45.01)" gradientUnits="userSpaceOnUse">
      <stop offset="0" stop-color="#a52802"/>
      <stop offset="1" stop-color="#fff"/>
    </radialGradient>
    <linearGradient id="linear-gradient" x1="151.07" y1="25.89" x2="43.74" y2="133.22" gradientTransform="translate(-.19 .09)" gradientUnits="userSpaceOnUse">
      <stop offset="0" stop-color="#ff00f1"/>
      <stop offset="1" stop-color="#ffb640"/>
    </linearGradient>
    <linearGradient id="linear-gradient-2" x1="37.15" y1="143" x2="-2.28" y2="103.56" gradientTransform="translate(-.19 .09)" gradientUnits="userSpaceOnUse">
      <stop offset="0" stop-color="#ff00f1"/>
      <stop offset="1" stop-color="#ffb640"/>
    </linearGradient>
    <linearGradient id="linear-gradient-3" x1="850.75" y1="422.1" x2="829.19" y2="400.54" gradientTransform="translate(565.67 -830.51) rotate(90.01)" xlink:href="#linear-gradient-2"/>
  </defs>
  <g class="cls-2">
    <g id="Layer_2" data-name="Layer 2">
      <g id="OBJECTS">
        <g>
          <path class="cls-6" d="M144.44,125.41c1.44-15.19,7.53-29.45,16.62-41.69,6.54-8.81,10.99-20.71,5.7-34.91-4.65-12.48-18.51-19.79-32.09-22.38-14.21-2.7-27.53-8.56-39.46-16.73C82.32,.86,65.48-1.77,49.72,4.1,30.99,11.08,18.95,28.14,17.48,46.83c-.77,9.76-2.78,19.43-6.08,28.65-2.72,7.59-2.87,16.14,.16,24.29,3.93,10.56,12.37,18.14,22.32,21.36,10.73,3.47,19.18,11.62,23.67,21.97,.03,.07,.06,.14,.09,.21,9.48,21.61,34,32.97,56.6,26.2,18.14-5.43,28.38-24.91,30.2-44.11Z"/>
          <circle class="cls-3" cx="102.22" cy="108.26" r="67.69" transform="translate(-46.61 103.99) rotate(-45)"/>
          <path class="cls-5" d="M153.03,56.76c10.89-36.98-15.76-47.39-42.24-41.4-24.29,5.49-34.25,16.25-58.9,15.61C22.13,30.2,1.16,51.34,1.15,81.11c0,46.36,56.17,45.17,73.5,64.73,37.41,42.22,89.58,7.74,76.48-38.03-7.12-24.88,.48-46.24,1.9-51.04Z"/>
          <path class="cls-1" d="M28.78,110.44c5.72,5.72,1.93,18.78-3.79,24.49-5.72,5.72-14.99,5.72-20.7,0-5.72-5.72-5.72-14.99,0-20.7,5.72-5.72,18.78-9.5,24.49-3.79Z"/>
          <path class="cls-4" d="M161.34,15.74c-3.13,3.13-10.27,1.05-13.39-2.07-3.13-3.13-3.13-8.2,0-11.32,3.13-3.13,8.2-3.13,11.32,0,3.13,3.13,5.2,10.27,2.07,13.39Z"/>
        </g>
      </g>
    </g>
  </g>
</svg>