<?xml version="1.0" encoding="UTF-8"?>
<svg xmlns="http://www.w3.org/2000/svg" xmlns:xlink="http://www.w3.org/1999/xlink" viewBox="0 0 182.84 170.26">
  <defs>
    <style>
      .cls-1 {
        fill: url(#linear-gradient-2);
      }

      .cls-2 {
        isolation: isolate;
      }

      .cls-3 {
        fill: url(#radial-gradient);
        mix-blend-mode: multiply;
      }

      .cls-4 {
        fill: #ff2a8f;
      }

      .cls-5 {
        fill: url(#linear-gradient-3);
      }

      .cls-6 {
        fill: url(#linear-gradient);
      }
    </style>
    <radialGradient id="radial-gradient" cx="62.21" cy="108" fx="62.21" fy="108" r="62.02" gradientTransform="translate(94.41 -12.11) rotate(45.01)" gradientUnits="userSpaceOnUse">
      <stop offset="0" stop-color="#7f0063"/>
      <stop offset="1" stop-color="#fff"/>
    </radialGradient>
    <linearGradient id="linear-gradient" x1="165.37" y1="33.6" x2="42.99" y2="155.99" gradientUnits="userSpaceOnUse">
      <stop offset="0" stop-color="#00e9e6"/>
      <stop offset="1" stop-color="#ff2a8f"/>
    </linearGradient>
    <linearGradient id="linear-gradient-2" x1="41.09" y1="147.45" x2="2.61" y2="108.98" gradientTransform="translate(-.18 .24)" gradientUnits="userSpaceOnUse">
      <stop offset="0" stop-color="#00e9e6"/>
      <stop offset="1" stop-color="#ff2a8f"/>
    </linearGradient>
    <linearGradient id="linear-gradient-3" x1="-797.55" y1="-756.01" x2="-826.92" y2="-785.38" gradientTransform="translate(-691.21 825.78) rotate(90.01)" xlink:href="#linear-gradient-2"/>
  </defs>
  <g class="cls-2">
    <g id="Layer_2" data-name="Layer 2">
      <g id="OBJECTS">
        <g>
          <path class="cls-4" d="M39.7,127.77c14.47,5.3,26.85,14.92,36.48,26.96,6.93,8.66,17.42,16.06,32.65,14.54,13.39-1.34,24.1-13,30.11-25.62,6.29-13.19,15.44-24.71,26.49-34.27,11.94-10.33,18.85-26.11,17.16-43.02-2.01-20.1-15.59-36.24-33.48-42.48-9.34-3.26-18.27-7.71-26.44-13.31-6.72-4.61-15.04-6.96-23.78-6.08-11.33,1.13-20.9,7.43-26.61,16.33-6.15,9.59-16.28,15.76-27.55,17.49-.08,.01-.15,.02-.23,.04C20.95,42.06,3.55,63.1,4.35,86.93c.65,19.12,17.05,34.14,35.35,40.84Z"/>
          <circle class="cls-3" cx="62.02" cy="108.24" r="62.02" transform="translate(-58.37 75.56) rotate(-45)"/>
          <path class="cls-6" d="M140.69,18.68C129.5,1.59,107.09-4.78,88.55,3.8c-11.31,5.23-19.07,14.77-22.38,25.67-3.68,12.09-10.16,20.52-25.26,28.28-54.48,27.99-29.38,103.36,23.68,88.14,15.35-4.41,31.99-1.45,46.44,5.36,14.29,6.74,31.57,6.66,46.45-1.89,22.65-13.01,31.53-41.71,20.18-65.24-2.72-5.63-6.33-10.52-10.59-14.57-10.12-9.65-17.64-21.86-20.2-35.6-.98-5.26-3.01-10.44-6.17-15.26Z"/>
          <path class="cls-1" d="M32.93,115.83c5.58,5.58,1.88,18.32-3.7,23.9-5.58,5.58-14.62,5.58-20.2,0-5.58-5.58-5.58-14.62,0-20.2,5.58-5.58,18.32-9.27,23.9-3.7Z"/>
          <path class="cls-5" d="M89.2,22.23c-4.26,4.26-13.98,1.43-18.24-2.82-4.26-4.26-4.26-11.16,0-15.42,4.26-4.26,11.16-4.26,15.42,0,4.26,4.26,7.08,13.98,2.82,18.24Z"/>
        </g>
      </g>
    </g>
  </g>
</svg>