<?xml version="1.0" encoding="utf-8"?>
<!-- Generator: Adobe Illustrator 27.0.0, SVG Export Plug-In . SVG Version: 6.00 Build 0)  -->
<svg version="1.1" id="Layer_1" xmlns="http://www.w3.org/2000/svg" xmlns:xlink="http://www.w3.org/1999/xlink" x="0px" y="0px"
	 viewBox="0 0 182.8 170.3" style="enable-background:new 0 0 182.8 170.3;" xml:space="preserve">
<style type="text/css">
	.st0{fill:url(#SVGID_1_);}
	.st1{fill:url(#SVGID_00000005963387457277219140000004052289179742249360_);}
	.st2{fill:url(#SVGID_00000064328308572601192430000007428317270337048209_);}
	.st3{fill:url(#SVGID_00000155836226380452577480000009123569633306657184_);}
</style>
<radialGradient id="SVGID_1_" cx="93.583" cy="86.8885" r="85.985" gradientUnits="userSpaceOnUse">
	<stop  offset="0" style="stop-color:#21D0DB"/>
	<stop  offset="0.5" style="stop-color:#7F2644"/>
	<stop  offset="1" style="stop-color:#C754A2"/>
</radialGradient>
<path class="st0" d="M39.7,127.8c14.5,5.3,26.9,14.9,36.5,27c6.9,8.7,17.4,16.1,32.7,14.5c13.4-1.3,24.1-13,30.1-25.6
	c6.3-13.2,15.4-24.7,26.5-34.3c11.9-10.3,18.9-26.1,17.2-43c-2-20.1-15.6-36.2-33.5-42.5c-9.3-3.3-18.3-7.7-26.4-13.3
	c-6.7-4.6-15-7-23.8-6.1C87.6,5.6,78,11.9,72.3,20.8C66.1,30.4,56,36.6,44.7,38.3c-0.1,0-0.2,0-0.2,0C21,42.1,3.5,63.1,4.3,86.9
	C5,106.1,21.4,121.1,39.7,127.8z"/>
<linearGradient id="SVGID_00000054266147345513289130000010549690025310829225_" gradientUnits="userSpaceOnUse" x1="165.375" y1="138.395" x2="42.995" y2="16.005" gradientTransform="matrix(1 0 0 -1 0 172)">
	<stop  offset="0" style="stop-color:#00E9E6"/>
	<stop  offset="1" style="stop-color:#FF2A8F"/>
</linearGradient>
<path style="fill:url(#SVGID_00000054266147345513289130000010549690025310829225_);" d="M140.7,18.7C129.5,1.6,107.1-4.8,88.6,3.8
	C77.2,9,69.5,18.6,66.2,29.5C62.5,41.6,56,50,40.9,57.8c-54.5,28-29.4,103.4,23.7,88.1c15.3-4.4,32-1.4,46.4,5.4
	c14.3,6.7,31.6,6.7,46.4-1.9c22.6-13,31.5-41.7,20.2-65.2c-2.7-5.6-6.3-10.5-10.6-14.6C157,59.9,149.4,47.7,146.9,34
	C145.9,28.7,143.9,23.5,140.7,18.7L140.7,18.7z"/>
<linearGradient id="SVGID_00000001651366889394234940000014589236925845943715_" gradientUnits="userSpaceOnUse" x1="41.0826" y1="24.5426" x2="2.6026" y2="63.0126" gradientTransform="matrix(1 0 0 -1 -0.18 172.24)">
	<stop  offset="0" style="stop-color:#00E9E6"/>
	<stop  offset="1" style="stop-color:#FF2A8F"/>
</linearGradient>
<path style="fill:url(#SVGID_00000001651366889394234940000014589236925845943715_);" d="M32.9,115.8c5.6,5.6,1.9,18.3-3.7,23.9
	s-14.6,5.6-20.2,0s-5.6-14.6,0-20.2C14.6,113.9,27.3,110.3,32.9,115.8z"/>
<linearGradient id="SVGID_00000083775028323272512910000014685097295021039758_" gradientUnits="userSpaceOnUse" x1="-1090.7114" y1="1817.0038" x2="-1120.0814" y2="1846.3738" gradientTransform="matrix(-1.745702e-04 1 1 1.745702e-04 -1752.3132 1118.698)">
	<stop  offset="0" style="stop-color:#00E9E6"/>
	<stop  offset="1" style="stop-color:#FF2A8F"/>
</linearGradient>
<path style="fill:url(#SVGID_00000083775028323272512910000014685097295021039758_);" d="M89.2,22.2c-4.3,4.3-14,1.4-18.2-2.8
	C66.7,15.1,66.7,8.2,71,4s11.2-4.3,15.4,0S93.5,18,89.2,22.2z"/>
</svg>
