<?xml version="1.0" encoding="utf-8"?>
<!-- Generator: Adobe Illustrator 27.0.0, SVG Export Plug-In . SVG Version: 6.00 Build 0)  -->
<svg version="1.1" id="Layer_1" xmlns="http://www.w3.org/2000/svg" xmlns:xlink="http://www.w3.org/1999/xlink" x="0px" y="0px"
	 viewBox="0 0 180.7 177.1" style="enable-background:new 0 0 180.7 177.1;" xml:space="preserve">
<style type="text/css">
	.st0{fill:url(#SVGID_1_);}
	.st1{fill:url(#SVGID_00000039103391476322429420000003132133724404916922_);}
	.st2{fill:url(#SVGID_00000083795126990815750880000018377094721590327221_);}
	.st3{fill:url(#SVGID_00000031895422187906238280000001506550556221571996_);}
</style>
<radialGradient id="SVGID_1_" cx="78.622" cy="103.3883" r="76.1869" gradientUnits="userSpaceOnUse">
	<stop  offset="0" style="stop-color:#00E9E6"/>
	<stop  offset="0.5" style="stop-color:#1C9B94"/>
	<stop  offset="1" style="stop-color:#2D7EF1"/>
</radialGradient>
<path class="st0" d="M42.5,154.3c14,1.3,27.2,6.9,38.4,15.3c8.1,6,19.1,10.1,32.2,5.3c11.5-4.3,18.2-17.1,20.6-29.6
	c2.5-13.1,7.9-25.4,15.4-36.4c8.1-11.9,10.6-27.4,5.2-41.9c-6.4-17.3-22.2-28.4-39.4-29.7c-9-0.7-17.9-2.6-26.4-5.6
	c-7-2.5-14.9-2.6-22.4,0.1c-9.7,3.6-16.7,11.4-19.7,20.6c-3.2,9.9-10.7,17.7-20.3,21.8c-0.1,0-0.1,0.1-0.2,0.1
	C6,83-4.4,105.6,1.8,126.5C6.8,143.2,24.8,152.6,42.5,154.3L42.5,154.3z"/>
<linearGradient id="SVGID_00000049206232900475068010000005745441035174630027_" gradientUnits="userSpaceOnUse" x1="71.9049" y1="54.4252" x2="194.5148" y2="177.0352" gradientTransform="matrix(1 0 0 -1 -0.24 180.17)">
	<stop  offset="0" style="stop-color:#00E9E6"/>
	<stop  offset="1" style="stop-color:#6100FF"/>
</linearGradient>
<path style="fill:url(#SVGID_00000049206232900475068010000005745441035174630027_);" d="M15.6,85.8c-6.3,25.1,8.2,51.1,32.8,59
	c9.7,3.1,19.4,2.4,28.7,0.5c16.8-3.6,26.3-4.8,49.3,1.1c21.7,5.6,44.4-6.1,51.8-27.2c5.3-15.1,1.8-30.8-7.7-42.1
	c-5.8-6.9-9.8-15.2-11.8-24c-2.8-12.4-6-38.5-29.6-44.7C109.6,3.4,95.9,21.1,87,30.4c-9.2,9.7-21.1,16.3-34.1,19.1
	C35.3,53.5,20.4,66.9,15.6,85.8L15.6,85.8z"/>
<linearGradient id="SVGID_00000127762105585429541440000007589204054751345318_" gradientUnits="userSpaceOnUse" x1="-1143.066" y1="1939.0414" x2="-1155.986" y2="1926.1215" gradientTransform="matrix(-1 -1.744371e-04 -1.744371e-04 1 -1001.4073 -1772.4532)">
	<stop  offset="0" style="stop-color:#00E9E6"/>
	<stop  offset="1" style="stop-color:#6100FF"/>
</linearGradient>
<path style="fill:url(#SVGID_00000127762105585429541440000007589204054751345318_);" d="M140,168.1c-2.8-2.8-1-9.3,1.9-12.2
	c2.8-2.8,7.4-2.8,10.3,0s2.8,7.4,0,10.3S142.8,171,140,168.1z"/>
<linearGradient id="SVGID_00000046312304571555595930000004389763231822699195_" gradientUnits="userSpaceOnUse" x1="86.4585" y1="176.1715" x2="56.7085" y2="146.4115" gradientTransform="matrix(1 0 0 -1 0 180)">
	<stop  offset="0" style="stop-color:#00E9E6"/>
	<stop  offset="1" style="stop-color:#6100FF"/>
</linearGradient>
<path style="fill:url(#SVGID_00000046312304571555595930000004389763231822699195_);" d="M88.2,2.1c4.2,4.2,1.4,13.9-2.8,18.1
	s-11.1,4.2-15.3,0s-4.2-11.1,0-15.3S84-2.1,88.2,2.1z"/>
</svg>
