<?xml version="1.0" encoding="UTF-8"?>
<svg xmlns="http://www.w3.org/2000/svg" viewBox="0 0 200 200">
  <defs>
    <style>
      .cls-1 {
        fill: #3ecfcd;
      }

      .cls-2 {
        fill: #d1ebff;
      }

      .cls-3, .cls-4, .cls-5, .cls-6 {
        fill: #fff;
      }

      .cls-4 {
        mix-blend-mode: screen;
      }

      .cls-7 {
        fill: #72b5e8;
      }

      .cls-8 {
        fill: #fafafa;
      }

      .cls-9 {
        opacity: .6;
      }

      .cls-10 {
        isolation: isolate;
      }

      .cls-11 {
        fill: #001a46;
      }

      .cls-12 {
        fill: #d62d69;
      }

      .cls-13 {
        fill: #ffbf9d;
      }

      .cls-14 {
        fill: #ff9a6c;
      }

      .cls-15 {
        fill: #2672ab;
      }

      .cls-16 {
        fill: #ffd70f;
      }

      .cls-17 {
        fill: #e1e1e1;
      }

      .cls-5 {
        opacity: .7;
      }

      .cls-18 {
        fill: #f76195;
      }

      .cls-19 {
        fill: #0fbab8;
      }

      .cls-20 {
        fill: #0ba19f;
      }

      .cls-21 {
        opacity: .3;
      }

      .cls-22 {
        fill: #a8cff0;
      }

      .cls-23 {
        fill: #084c94;
      }

      .cls-24 {
        fill: #4f9fdb;
      }

      .cls-25 {
        fill: #375a64;
      }

      .cls-26 {
        fill: #b08100;
      }

      .cls-27, .cls-6 {
        mix-blend-mode: color-dodge;
      }

      .cls-28 {
        fill: #eb4680;
      }

      .cls-29 {
        fill: #d99f00;
      }

      .cls-30 {
        fill: #3f92d1;
      }

      .cls-31 {
        fill: #92b4d1;
        opacity: .2;
      }

      .cls-32 {
        fill: #ff4f5b;
      }

      .cls-33 {
        fill: #fc0;
      }

      .cls-34 {
        fill: #ececec;
      }

      .cls-35 {
        fill: #1a2e35;
      }

      .cls-36 {
        fill: #ffde17;
      }

      .cls-37 {
        fill: #03336e;
      }
    </style>
  </defs>
  <g class="cls-10">
    <g id="Layer_1" data-name="Layer 1">
      <g id="web">
        <g>
          <g>
            <g>
              <path class="cls-7" d="M182.26,87.47c-2.37-1.37-4.29-4.68-4.29-7.4,0-1.01,.27-1.79,.72-2.31-1.3,.09-2.18,1.18-2.18,3.02,0,2.72,1.92,6.03,4.29,7.4,1.49,.86,2.8,.74,3.56-.14-.62,.05-1.34-.13-2.11-.58Z"/>
              <path class="cls-22" d="M186.43,86.57c0-.34-.03-.69-.07-1.04l1.73-.22c-.18-.87-.44-1.76-.79-2.63l-1.98-.6c-.34-.74-.76-1.45-1.23-2.12l.47-1.99c-.59-.73-1.22-1.4-1.89-1.99l-1.06,1.38c-.28-.21-.57-.42-.87-.59-.3-.17-.59-.3-.87-.42l-1.06-2.6c-.67-.19-1.31-.25-1.89-.19l.47,2.54c-.47,.12-.89,.36-1.23,.7l-1.98-1.68c-.34,.47-.61,1.05-.79,1.72l1.73,2.22c-.04,.3-.07,.62-.07,.96s.03,.69,.07,1.04l-1.73,.22c.18,.87,.44,1.76,.79,2.63l1.98,.6c.34,.74,.76,1.45,1.23,2.12l-.47,1.99c.59,.73,1.22,1.4,1.89,1.99l1.06-1.38c.28,.21,.57,.42,.87,.59,.3,.17,.59,.3,.87,.42l1.06,2.6c.67,.19,1.31,.25,1.89,.19l-.47-2.54c.47-.12,.89-.36,1.23-.7l1.98,1.68c.34-.47,.61-1.05,.79-1.72l-1.73-2.22c.04-.3,.07-.62,.07-.96Zm-5.63,1.61c-2.37-1.37-4.29-4.68-4.29-7.4s1.92-3.81,4.29-2.45c2.37,1.37,4.29,4.68,4.29,7.4s-1.92,3.81-4.29,2.45Z"/>
              <polygon class="cls-7" points="181.54 75.4 180.48 72.79 178.81 73.75 179.88 76.35 181.54 75.4"/>
              <path class="cls-2" d="M179.88,76.35c.28,.11,.57,.25,.87,.42,.3,.17,.59,.37,.87,.59l1.06-1.38h0s-.18-.11-.27-.17c-.3-.17-.59-.3-.87-.42l-1.66,.95Z"/>
              <path class="cls-2" d="M180.48,72.79c-.67-.19-1.31-.25-1.89-.19l-1.66,.95c.59-.05,1.22,0,1.89,.19l1.66-.95Z"/>
              <path class="cls-2" d="M186.24,77.02c-.59-.73-1.22-1.4-1.89-1.99l-1.66,.95c.67,.59,1.31,1.26,1.89,1.99l1.66-.95Z"/>
              <polygon class="cls-7" points="184.57 77.97 184.1 79.97 185.76 79.01 186.24 77.02 184.57 77.97"/>
              <path class="cls-7" d="M184.1,79.97c.47,.67,.89,1.38,1.23,2.12l1.66-.95c-.34-.74-.76-1.45-1.23-2.12l-1.66,.95Z"/>
              <polygon class="cls-2" points="185.33 82.09 187.31 82.69 188.97 81.73 186.99 81.14 185.33 82.09"/>
              <path class="cls-7" d="M187.31,82.69c.34,.87,.61,1.75,.79,2.63l1.66-.95c-.18-.87-.44-1.76-.79-2.63l-1.66,.95Z"/>
              <path class="cls-7" d="M177.4,76.1l-.14-.74-1.41-1.2-1.66,.95,1.98,1.68c.34-.34,.76-.58,1.23-.7Z"/>
              <path class="cls-7" d="M188.09,89.75c-.18,.67-.44,1.24-.79,1.72l1.66-.95c.34-.47,.61-1.05,.79-1.72l-1.66,.95Z"/>
              <path class="cls-7" d="M188.02,86.57c.04-.3,.07-.62,.07-.96,0-.1,0-.2-.01-.3l-1.72,.22c.04,.35,.07,.7,.07,1.04s-.03,.65-.07,.96l1.66-.95Z"/>
              <polygon class="cls-2" points="186.36 87.53 188.09 89.75 189.76 88.8 188.02 86.57 186.36 87.53"/>
              <path class="cls-7" d="M185.33,89.79c-.34,.34-.76,.58-1.23,.7l.47,2.54,1.66-.95-.34-1.8-.57-.49Z"/>
              <path class="cls-2" d="M175.07,80.29l-1.67,.98,1.73-.22c-.03-.26-.05-.51-.06-.76Z"/>
              <path class="cls-7" d="M179.88,89.23l-1.06,1.38,1.67-.95c-.21-.13-.41-.27-.61-.42Z"/>
              <g class="cls-27">
                <path class="cls-3" d="M177.19,76.21v-.03c-.08,.03-.16,.07-.24,.1,.08-.03,.15-.06,.24-.08Z"/>
                <path class="cls-3" d="M174.93,81.08l-1.44,.18s.01,.06,.02,.08l1.43-.18s0-.06,0-.09Z"/>
                <path class="cls-3" d="M184.48,78.08l-.47,1.99c.47,.67,.89,1.38,1.23,2.12l1.98,.6c.33,.84,.59,1.7,.77,2.54l.2-.03c-.18-.87-.44-1.76-.79-2.63l-1.98-.6c-.34-.74-.76-1.45-1.23-2.12l.47-1.99c-.59-.73-1.22-1.4-1.89-1.99l-.07,.22c.63,.57,1.23,1.2,1.78,1.89Z"/>
                <path class="cls-3" d="M180.82,88.15c-2.37-1.37-4.29-4.68-4.29-7.4,0-1.2,.38-2.08,1-2.58-.72,.46-1.16,1.39-1.16,2.69,0,2.72,1.92,6.03,4.29,7.4,1.2,.69,2.28,.75,3.06,.29-.06,.02-.12,.03-.18,.04-.74,.27-1.68,.14-2.72-.45Z"/>
                <path class="cls-3" d="M184.42,90.4c.29-.1,.55-.25,.78-.44l-.07-.06c-.21,.21-.45,.37-.71,.5Z"/>
                <path class="cls-3" d="M176.1,76.84c-.07,0,0-.06,.07-.12l-1.9-1.62c-.05,.07-.1,.16-.01,.17l1.84,1.57Z"/>
                <path class="cls-6" d="M184.05,90.6l.45,2.43c-.05,0,.05,0,.15-.01l-.47-2.52c-.09,.04-.19,.07-.14,.1Z"/>
                <path class="cls-3" d="M186.52,86.57c0-.31-.03-.63-.06-.95h-.17c.04,.36,.07,.71,.07,1.05s-.03,.65-.07,.96l1.73,2.22c-.15,.56-.37,1.06-.63,1.48v.14c.35-.47,.62-1.05,.8-1.72l-1.73-2.22c.04-.3,.07-.62,.07-.96Z"/>
                <path class="cls-3" d="M178.74,73.82l1.06,2.6c.28,.11,.57,.25,.87,.42,.3,.17,.59,.37,.87,.59l.03-.17c-.24-.18-.49-.35-.75-.5-.3-.17-.59-.3-.87-.42l-1.06-2.6c-.67-.19-1.31-.25-1.89-.19l.02,.11c.5-.01,1.16,0,1.72,.16Z"/>
                <path class="cls-3" d="M179.68,89.34l-.89,1.15s.07,.07,.11,.1l.9-1.17s-.08-.06-.12-.09Z"/>
              </g>
            </g>
            <g>
              <path class="cls-7" d="M181.65,67.06c-3.56-2.06-6.45-7.04-6.45-11.13,0-1.52,.4-2.69,1.09-3.47-1.96,.14-3.28,1.78-3.28,4.54,0,4.09,2.89,9.08,6.45,11.13,2.24,1.29,4.21,1.12,5.36-.21-.94,.07-2.01-.2-3.17-.87Z"/>
              <path class="cls-22" d="M187.92,65.71c0-.51-.04-1.04-.11-1.56l2.61-.33c-.27-1.31-.67-2.64-1.18-3.95l-2.97-.9c-.52-1.11-1.14-2.19-1.85-3.19l.71-3c-.88-1.1-1.84-2.11-2.85-3l-1.6,2.07c-.43-.32-.86-.62-1.31-.88-.45-.26-.88-.46-1.31-.63l-1.6-3.92c-1.01-.28-1.97-.37-2.85-.29l.71,3.82c-.71,.19-1.33,.54-1.85,1.06l-2.97-2.53c-.52,.71-.92,1.58-1.18,2.58l2.61,3.34c-.07,.45-.11,.93-.11,1.44s.04,1.04,.11,1.56l-2.61,.33c.27,1.31,.67,2.64,1.18,3.95l2.97,.9c.52,1.11,1.14,2.19,1.85,3.19l-.71,3c.88,1.1,1.84,2.11,2.85,3l1.6-2.07c.43,.32,.86,.62,1.31,.88,.45,.26,.88,.46,1.31,.63l1.6,3.92c1.01,.28,1.97,.37,2.85,.29l-.71-3.82c.71-.19,1.33-.54,1.85-1.05l2.97,2.53c.52-.71,.92-1.58,1.18-2.58l-2.61-3.34c.07-.45,.11-.93,.11-1.44Zm-8.47,2.42c-3.56-2.06-6.45-7.04-6.45-11.13s2.89-5.74,6.45-3.68c3.56,2.06,6.45,7.04,6.45,11.13s-2.89,5.74-6.45,3.68Z"/>
              <polygon class="cls-7" points="180.56 48.9 178.96 44.98 176.46 46.42 178.06 50.34 180.56 48.9"/>
              <path class="cls-2" d="M178.06,50.34c.43,.17,.86,.37,1.31,.63s.88,.56,1.31,.88l1.6-2.07h0s-.27-.17-.41-.25c-.45-.26-.88-.46-1.31-.63l-2.5,1.44Z"/>
              <path class="cls-2" d="M178.96,44.98c-1.01-.28-1.97-.37-2.85-.29l-2.5,1.44c.88-.08,1.84,0,2.85,.29l2.5-1.44Z"/>
              <path class="cls-2" d="M187.62,51.34c-.88-1.1-1.84-2.11-2.85-3l-2.5,1.44c1.01,.89,1.97,1.9,2.85,3l2.5-1.44Z"/>
              <polygon class="cls-7" points="185.12 52.78 184.41 55.78 186.91 54.34 187.62 51.34 185.12 52.78"/>
              <path class="cls-7" d="M184.41,55.78c.71,1,1.33,2.08,1.85,3.19l2.5-1.44c-.52-1.11-1.14-2.19-1.85-3.19l-2.5,1.44Z"/>
              <polygon class="cls-2" points="186.26 58.97 189.23 59.87 191.74 58.43 188.76 57.53 186.26 58.97"/>
              <path class="cls-7" d="M189.23,59.87c.52,1.31,.92,2.64,1.18,3.95l2.5-1.44c-.27-1.31-.67-2.64-1.18-3.95l-2.5,1.44Z"/>
              <path class="cls-7" d="M174.32,49.96l-.21-1.11-2.12-1.8-2.5,1.44,2.97,2.53c.52-.51,1.14-.87,1.85-1.06Z"/>
              <path class="cls-7" d="M190.42,70.49c-.27,1.01-.67,1.87-1.18,2.58l2.5-1.44c.52-.71,.92-1.58,1.18-2.58l-2.5,1.44Z"/>
              <path class="cls-7" d="M190.31,65.72c.07-.45,.11-.93,.11-1.44,0-.15,0-.3-.02-.46l-2.59,.33c.07,.53,.11,1.05,.11,1.56s-.04,.98-.11,1.44l2.5-1.44Z"/>
              <polygon class="cls-2" points="187.81 67.15 190.42 70.49 192.92 69.06 190.31 65.72 187.81 67.15"/>
              <path class="cls-7" d="M186.26,70.54c-.52,.51-1.14,.87-1.85,1.05l.71,3.82,2.5-1.44-.51-2.71-.86-.73Z"/>
              <path class="cls-2" d="M170.83,56.26l-2.52,1.48,2.61-.33c-.05-.39-.08-.77-.09-1.15Z"/>
              <path class="cls-7" d="M178.06,69.71l-1.6,2.07,2.52-1.43c-.31-.2-.62-.41-.92-.64Z"/>
              <g class="cls-27">
                <path class="cls-3" d="M174.02,50.13v-.04c-.13,.05-.24,.1-.35,.16,.12-.04,.23-.09,.35-.12Z"/>
                <path class="cls-3" d="M170.61,57.45l-2.17,.27s.02,.08,.03,.13l2.15-.27s0-.09-.01-.13Z"/>
                <path class="cls-3" d="M184.98,52.94l-.71,3c.71,1,1.33,2.08,1.85,3.19l2.97,.9c.5,1.27,.89,2.55,1.15,3.82l.29-.05c-.27-1.31-.67-2.64-1.18-3.95l-2.97-.9c-.52-1.11-1.14-2.19-1.85-3.19l.71-3c-.88-1.1-1.84-2.11-2.85-3l-.1,.33c.95,.85,1.85,1.81,2.68,2.85Z"/>
                <path class="cls-3" d="M179.47,68.09c-3.56-2.06-6.45-7.04-6.45-11.13,0-1.81,.57-3.13,1.5-3.87-1.08,.7-1.75,2.09-1.75,4.05,0,4.09,2.89,9.08,6.45,11.13,1.8,1.04,3.43,1.13,4.6,.44-.09,.03-.18,.04-.27,.06-1.11,.4-2.53,.21-4.08-.68Z"/>
                <path class="cls-3" d="M184.89,71.47c.43-.15,.82-.37,1.18-.66l-.11-.09c-.32,.31-.68,.56-1.07,.75Z"/>
                <path class="cls-3" d="M172.38,51.08c-.11,0,0-.08,.11-.17l-2.86-2.44c-.08,.11-.15,.24-.02,.25l2.77,2.36Z"/>
                <path class="cls-6" d="M184.34,71.77l.68,3.66c-.08,0,.08,0,.23-.02l-.71-3.78c-.14,.05-.29,.11-.2,.15Z"/>
                <path class="cls-3" d="M188.04,65.7c0-.47-.04-.95-.1-1.44l-.26,.02c.07,.53,.11,1.05,.11,1.56s-.04,.98-.11,1.44l2.61,3.34c-.22,.85-.55,1.59-.95,2.23l.02,.21c.52-.71,.92-1.58,1.18-2.58l-2.61-3.34c.07-.45,.11-.93,.11-1.44Z"/>
                <path class="cls-3" d="M176.35,46.52l1.6,3.92c.43,.17,.86,.37,1.31,.63,.45,.26,.88,.56,1.31,.88l.05-.25c-.37-.27-.74-.53-1.12-.75-.45-.26-.88-.46-1.31-.63l-1.6-3.92c-1.01-.28-1.97-.37-2.85-.29l.03,.16c.75-.02,1.74,0,2.58,.24Z"/>
                <path class="cls-3" d="M177.76,69.88l-1.34,1.73c.06,.05,.11,.1,.17,.15l1.35-1.75c-.06-.05-.12-.09-.18-.13Z"/>
              </g>
            </g>
            <path class="cls-28" d="M182.6,44.7c.02-.41,.3-.59,.63-.4,.33,.19,.58,.68,.56,1.09s-.3,.59-.63,.4c-.33-.19-.58-.68-.56-1.09Z"/>
            <path class="cls-28" d="M180.75,94.15c.01-.27,.2-.39,.42-.27,.22,.13,.39,.45,.37,.73-.01,.27-.2,.39-.42,.27-.22-.13-.39-.45-.37-.73Z"/>
            <path class="cls-28" d="M192.83,74.15s-.09-.02-.12-.06c-.04-.05-.04-.12-.01-.17l.74-1.27c.04-.07,.14-.1,.21-.06,.07,.04,.1,.14,.06,.21l-.54,.93,1.09-.34c.08-.03,.17,.02,.19,.1,.03,.08-.02,.17-.1,.19l-1.47,.45s-.03,0-.05,0Z"/>
            <g>
              <path class="cls-12" d="M180,79.75c.58,.33,1.09,.97,1.38,1.66,0,.01,.33-.1,.46-.15,.29-.12,.66-.07,1.06,.16,.9,.52,1.63,1.78,1.63,2.82,0,1.89-3.24,2.55-3.24,2.55,0,0-3.08-4.12-3.08-6.01,0-.52-.22-.68,.08-.84,.03-.01,.61-.33,.64-.34,.29-.12,.67-.08,1.08,.16Z"/>
              <path class="cls-28" d="M179.46,80.05c.63,.36,1.17,1.09,1.45,1.84,.27-.44,.82-.53,1.45-.17,.9,.52,1.63,1.78,1.63,2.82,0,1.89-3.08,2.45-3.08,2.45,0,0-3.08-4.12-3.08-6.01,0-1.04,.73-1.45,1.63-.93Z"/>
              <g class="cls-27">
                <path class="cls-5" d="M179.37,80.09c.63,.36,1.25,1.09,1.52,1.84,.06-.09-.02-.06,.06-.12-.28-.72-.81-1.4-1.41-1.74-.49-.28-.87-.35-1.16-.17,.28-.08,.62-.03,.99,.19Z"/>
                <path class="cls-5" d="M182.4,81.71c-.49-.28-.88-.29-1.12-.14,.27-.08,.62-.03,.99,.18,.9,.52,1.63,1.78,1.63,2.82,0,.88-.67,1.47-1.38,1.85,.8-.37,1.51-.92,1.51-1.9,0-1.04-.73-2.3-1.63-2.82Z"/>
              </g>
            </g>
            <path class="cls-28" d="M193.3,73.94l-.21-.23c1.66-1.51,2.54-3.97,2.54-7.12,0-7.83-5.55-17.41-12.38-21.35l.15-.27c6.91,3.99,12.53,13.68,12.53,21.61,0,3.24-.91,5.78-2.64,7.35Z"/>
            <g>
              <path class="cls-22" d="M198.21,68.67h0c-.09,0-.15-.07-.15-.16,0-.1,0-.2,0-.31,0-.09,.07-.15,.15-.15s.15,.07,.15,.15c0,.1,0,.21,0,.31,0,.08-.07,.15-.15,.15Z"/>
              <path class="cls-22" d="M189.7,79.38c-.08,0-.15-.07-.15-.15,0-.09,.07-.16,.15-.16,.2,0,.4,0,.6-.02,.08,0,.16,.06,.17,.14,0,.09-.06,.16-.14,.17-.21,.02-.42,.02-.62,.03h0Zm-.92-.04s0,0-.01,0c-.2-.02-.41-.04-.62-.07-.08-.01-.14-.09-.13-.17,.01-.08,.09-.14,.17-.13,.2,.03,.4,.05,.6,.07,.09,0,.15,.08,.14,.17,0,.08-.07,.14-.15,.14Zm2.44-.11c-.07,0-.14-.05-.15-.13-.02-.08,.04-.16,.12-.18,.2-.04,.4-.08,.59-.13,.08-.02,.17,.03,.19,.11,.02,.08-.03,.17-.11,.19-.2,.05-.4,.1-.61,.14,0,0-.02,0-.03,0Zm1.47-.42c-.06,0-.12-.04-.14-.1-.03-.08,0-.17,.09-.2,.19-.07,.37-.16,.55-.24,.08-.04,.17,0,.21,.07,.04,.08,0,.17-.07,.21-.19,.09-.38,.18-.57,.25-.02,0-.04,.01-.06,.01Zm1.36-.7c-.05,0-.1-.02-.13-.07-.05-.07-.03-.17,.04-.21,.17-.11,.33-.23,.49-.35,.07-.05,.16-.04,.22,.03,.05,.07,.04,.16-.03,.22-.16,.13-.33,.25-.51,.37-.03,.02-.06,.03-.09,.03Zm1.19-.97s-.08-.02-.11-.05c-.06-.06-.06-.16,0-.22,.14-.14,.28-.29,.41-.44,.06-.06,.15-.07,.22-.02,.06,.06,.07,.15,.02,.22-.13,.16-.28,.31-.42,.46-.03,.03-.07,.05-.11,.05Zm.97-1.18s-.06,0-.09-.03c-.07-.05-.09-.14-.04-.21,.11-.17,.22-.34,.32-.51,.04-.07,.14-.1,.21-.05,.07,.04,.1,.14,.05,.21-.11,.18-.22,.36-.33,.53-.03,.04-.08,.07-.13,.07Zm.76-1.33s-.04,0-.07-.01c-.08-.04-.11-.13-.07-.21,.08-.18,.17-.36,.24-.55,.03-.08,.12-.12,.2-.09,.08,.03,.12,.12,.09,.2-.08,.19-.16,.39-.25,.57-.03,.06-.08,.09-.14,.09Zm.56-1.43s-.03,0-.05,0c-.08-.03-.13-.11-.1-.19,.06-.19,.12-.38,.17-.58,.02-.08,.11-.13,.19-.11,.08,.02,.13,.11,.11,.19-.05,.2-.11,.4-.17,.6-.02,.07-.08,.11-.15,.11Zm.38-1.49s-.02,0-.03,0c-.08-.02-.14-.1-.12-.18,.04-.2,.07-.4,.1-.6,.01-.08,.09-.14,.18-.13,.08,.01,.14,.09,.13,.18-.03,.21-.07,.41-.11,.61-.01,.07-.08,.12-.15,.12Zm.22-1.52s0,0-.02,0c-.08,0-.15-.08-.14-.17,.02-.2,.04-.4,.05-.61,0-.08,.07-.15,.16-.14,.09,0,.15,.08,.14,.16-.01,.21-.03,.41-.05,.62,0,.08-.08,.14-.15,.14Z"/>
              <path class="cls-22" d="M187.25,79.1s-.02,0-.03,0c-.1-.02-.2-.05-.3-.07-.08-.02-.13-.1-.11-.19,.02-.08,.1-.13,.19-.11,.1,.02,.2,.05,.3,.07,.08,.02,.14,.1,.12,.18-.02,.07-.08,.12-.15,.12Z"/>
            </g>
            <g>
              <path class="cls-22" d="M167.47,54.65c-.07,0-.14-.05-.15-.13-.02-.1-.04-.2-.05-.31-.01-.08,.04-.16,.13-.18,.08-.02,.16,.04,.18,.13,.02,.1,.03,.2,.05,.3,.02,.08-.04,.16-.12,.18,0,0-.02,0-.03,0Z"/>
              <path class="cls-22" d="M195.95,57.79c-.06,0-.12-.04-.14-.1-.08-.19-.16-.38-.24-.58-.03-.08,0-.17,.08-.2,.08-.03,.17,0,.2,.08,.08,.19,.16,.39,.24,.58,.03,.08,0,.17-.09,.2-.02,0-.04,.01-.06,.01Zm-.62-1.44c-.06,0-.11-.03-.14-.09-.09-.19-.17-.38-.26-.57-.04-.08,0-.17,.07-.21,.08-.04,.17,0,.21,.07,.09,.19,.18,.38,.27,.57,.04,.08,0,.17-.08,.2-.02,0-.04,.01-.06,.01Zm-.68-1.41c-.06,0-.11-.03-.14-.08-.09-.19-.19-.37-.29-.55-.04-.08-.01-.17,.06-.21,.08-.04,.17-.01,.21,.06,.1,.19,.19,.37,.29,.56,.04,.08,0,.17-.07,.21-.02,.01-.05,.02-.07,.02Zm-.74-1.38c-.05,0-.11-.03-.13-.08-.1-.18-.21-.36-.31-.54-.04-.07-.02-.17,.06-.21,.07-.04,.17-.02,.21,.06,.11,.18,.21,.36,.31,.55,.04,.07,.02,.17-.06,.21-.02,.01-.05,.02-.08,.02Zm-26.64-.14c-.08,0-.14-.06-.15-.13-.03-.21-.05-.42-.07-.62,0-.08,.05-.16,.14-.17,.08,0,.16,.05,.17,.14,.02,.21,.05,.41,.07,.62,.01,.08-.05,.16-.13,.17,0,0-.01,0-.02,0Zm25.85-1.21c-.05,0-.1-.03-.13-.07-.11-.18-.22-.35-.33-.53-.05-.07-.03-.17,.05-.21,.07-.05,.17-.03,.21,.05,.11,.18,.22,.35,.33,.53,.04,.07,.02,.17-.05,.21-.03,.02-.05,.02-.08,.02Zm-26-.35c-.08,0-.15-.06-.15-.14-.01-.21-.03-.42-.03-.63,0-.09,.06-.16,.15-.16,0,0,0,0,0,0,.08,0,.15,.07,.15,.15,0,.21,.02,.41,.03,.62,0,.09-.06,.16-.14,.16,0,0,0,0-.01,0Zm25.16-.96s-.1-.02-.13-.07c-.12-.17-.23-.34-.35-.51-.05-.07-.03-.17,.04-.22,.07-.05,.17-.03,.22,.04,.12,.17,.24,.34,.36,.52,.05,.07,.03,.17-.04,.21-.03,.02-.06,.03-.09,.03Zm-25.21-.6h0c-.09,0-.15-.07-.15-.16,0-.21,0-.42,.01-.63,0-.08,.07-.15,.15-.15,0,0,0,0,0,0,.09,0,.15,.07,.15,.16,0,.2-.01,.41-.01,.62,0,.09-.07,.15-.15,.15Zm24.3-.68s-.09-.02-.12-.06c-.12-.17-.25-.33-.37-.5-.05-.07-.04-.16,.03-.22,.07-.05,.16-.04,.22,.03,.13,.17,.25,.33,.38,.5,.05,.07,.04,.17-.03,.22-.03,.02-.06,.03-.09,.03Zm-24.24-.88s0,0-.01,0c-.09,0-.15-.08-.14-.17,.02-.21,.04-.42,.07-.63,.01-.08,.09-.14,.17-.13,.08,.01,.15,.09,.13,.17-.02,.2-.05,.41-.06,.62,0,.08-.07,.14-.15,.14Zm23.28-.35s-.09-.02-.12-.06c-.13-.16-.26-.32-.39-.48-.05-.07-.05-.16,.02-.22,.06-.05,.16-.05,.22,.02,.13,.16,.27,.32,.4,.49,.05,.07,.04,.16-.02,.22-.03,.02-.06,.03-.1,.03Zm-1.01-1.19s-.09-.02-.12-.05c-.14-.16-.28-.31-.42-.46-.06-.06-.05-.16,0-.22,.06-.06,.16-.05,.22,0,.14,.15,.28,.31,.42,.47,.06,.06,.05,.16-.01,.22-.03,.03-.07,.04-.1,.04Zm-22.07,0s-.02,0-.03,0c-.08-.02-.14-.1-.12-.18,.04-.21,.08-.42,.13-.62,.02-.08,.1-.14,.18-.12,.08,.02,.14,.1,.12,.19-.05,.2-.09,.4-.12,.61-.01,.07-.08,.13-.15,.13Zm21.01-1.14s-.08-.02-.11-.05c-.15-.15-.29-.3-.44-.44-.06-.06-.06-.16,0-.22,.06-.06,.16-.06,.22,0,.15,.15,.3,.3,.44,.45,.06,.06,.06,.16,0,.22-.03,.03-.07,.04-.11,.04Zm-20.64-.38s-.03,0-.04,0c-.08-.02-.13-.11-.1-.19,.06-.2,.13-.41,.2-.6,.03-.08,.12-.12,.2-.09,.08,.03,.12,.12,.09,.2-.07,.19-.13,.39-.19,.59-.02,.07-.08,.11-.15,.11Zm19.52-.72s-.08-.01-.11-.04c-.15-.14-.31-.28-.46-.42-.06-.06-.07-.15-.01-.22,.06-.06,.15-.07,.22-.01,.16,.14,.31,.28,.46,.42,.06,.06,.07,.16,0,.22-.03,.03-.07,.05-.11,.05Zm-18.97-.74s-.04,0-.06-.01c-.08-.04-.11-.13-.08-.2,.09-.2,.18-.38,.28-.57,.04-.08,.13-.1,.21-.06,.08,.04,.1,.13,.06,.21-.1,.18-.19,.36-.27,.55-.03,.06-.08,.09-.14,.09Zm17.8-.29s-.07-.01-.1-.04c-.16-.13-.32-.26-.48-.39-.07-.05-.08-.15-.02-.22,.05-.07,.15-.08,.22-.02,.16,.13,.33,.26,.49,.4,.07,.05,.07,.15,.02,.22-.03,.04-.07,.06-.12,.06Zm-1.23-.97s-.06,0-.09-.03c-.17-.12-.34-.24-.5-.36-.07-.05-.09-.15-.04-.22,.05-.07,.14-.09,.22-.04,.17,.12,.34,.24,.51,.37,.07,.05,.08,.15,.03,.22-.03,.04-.08,.06-.12,.06Zm-15.81-.1s-.06,0-.09-.03c-.07-.05-.09-.14-.04-.21,.12-.18,.25-.35,.37-.51,.05-.07,.15-.08,.22-.03,.07,.05,.08,.15,.03,.22-.12,.16-.25,.33-.36,.5-.03,.04-.08,.07-.13,.07Zm14.52-.79s-.06,0-.08-.02c-.18-.11-.35-.22-.53-.33-.07-.04-.1-.14-.05-.21,.04-.07,.14-.1,.21-.05,.18,.11,.36,.22,.53,.33,.07,.05,.09,.14,.05,.21-.03,.05-.08,.07-.13,.07Zm-13.54-.42s-.08-.01-.11-.04c-.06-.06-.06-.16,0-.22,.15-.15,.31-.3,.47-.43,.06-.06,.16-.05,.22,.02,.06,.06,.05,.16-.02,.22-.15,.13-.3,.27-.45,.42-.03,.03-.07,.05-.11,.05Zm12.19-.37s-.05,0-.07-.02c-.18-.1-.37-.2-.55-.29-.08-.04-.11-.13-.07-.21s.13-.11,.21-.07c.18,.09,.37,.19,.56,.29,.07,.04,.1,.13,.06,.21-.03,.05-.08,.08-.14,.08Zm-10.99-.62c-.05,0-.1-.02-.13-.07-.05-.07-.03-.17,.04-.21,.18-.12,.36-.23,.55-.33,.07-.04,.17-.01,.21,.06,.04,.07,.01,.17-.06,.21-.18,.1-.35,.2-.52,.32-.03,.02-.06,.03-.09,.03Zm9.59-.07s-.04,0-.06-.01c-.19-.08-.38-.16-.57-.24-.08-.03-.12-.12-.09-.2,.03-.08,.12-.12,.2-.09,.19,.08,.39,.16,.58,.24,.08,.03,.11,.13,.08,.2-.03,.06-.08,.09-.14,.09Zm-1.46-.56s-.03,0-.05,0c-.2-.07-.4-.13-.59-.18-.08-.02-.13-.11-.11-.19,.02-.08,.11-.13,.19-.11,.2,.06,.4,.12,.6,.18,.08,.03,.13,.11,.1,.2-.02,.06-.08,.11-.15,.11Zm-6.74-.08c-.06,0-.12-.04-.14-.1-.03-.08,0-.17,.09-.2,.2-.08,.4-.15,.6-.21,.08-.02,.17,.02,.19,.1,.02,.08-.02,.17-.1,.19-.2,.06-.39,.13-.58,.2-.02,0-.04,.01-.06,.01Zm5.23-.32s-.02,0-.03,0c-.2-.04-.41-.08-.61-.11-.08-.01-.14-.09-.13-.18,.01-.08,.09-.14,.18-.13,.21,.03,.41,.07,.62,.11,.08,.02,.14,.1,.12,.18-.02,.07-.08,.12-.15,.12Zm-3.73-.1c-.07,0-.14-.05-.15-.13-.01-.08,.04-.16,.13-.18,.21-.04,.42-.07,.63-.09,.08,0,.16,.05,.17,.14,0,.08-.05,.16-.14,.17-.2,.02-.41,.05-.61,.08,0,0-.02,0-.03,0Zm2.18-.11s0,0,0,0c-.21-.01-.41-.02-.62-.02-.09,0-.15-.07-.15-.15s.07-.15,.15-.15c.21,0,.42,0,.63,.02,.09,0,.15,.08,.14,.16,0,.08-.07,.14-.15,.14Z"/>
              <path class="cls-22" d="M196.41,58.97c-.06,0-.12-.04-.15-.1l-.11-.29c-.03-.08,.01-.17,.09-.2,.08-.03,.17,.01,.2,.09l.11,.29c.03,.08-.01,.17-.09,.2-.02,0-.04,0-.05,0Z"/>
            </g>
            <g>
              <path class="cls-28" d="M190.8,82.02c-.06,0-.12-.04-.14-.1-.04-.09-.08-.19-.12-.28-.03-.08,0-.17,.08-.2,.08-.03,.17,0,.2,.08,.04,.1,.08,.19,.12,.29,.03,.08,0,.17-.09,.2-.02,0-.04,.01-.06,.01Z"/>
              <path class="cls-28" d="M186.54,96.4h0c-.21,0-.42-.01-.62-.03-.09,0-.15-.08-.14-.17,0-.09,.09-.14,.17-.14,.2,.02,.4,.03,.6,.03,.09,0,.15,.07,.15,.16,0,.09-.07,.15-.15,.15Zm.91-.06c-.08,0-.14-.05-.15-.13-.01-.08,.05-.16,.13-.18,.2-.03,.39-.07,.58-.12,.08-.02,.17,.03,.19,.11,.02,.08-.03,.17-.11,.19-.2,.05-.41,.1-.62,.13,0,0-.02,0-.02,0Zm-2.43-.11s-.02,0-.03,0c-.2-.04-.4-.09-.6-.15-.08-.02-.13-.11-.11-.19,.02-.08,.11-.13,.19-.11,.2,.06,.39,.11,.58,.15,.08,.02,.14,.1,.12,.18-.02,.07-.08,.12-.15,.12Zm3.89-.33c-.06,0-.11-.03-.14-.09-.04-.08,0-.17,.07-.21,.18-.08,.35-.18,.52-.29,.07-.05,.17-.02,.21,.05,.05,.07,.02,.17-.05,.21-.18,.11-.36,.22-.55,.3-.02,0-.04,.01-.07,.01Zm-5.35-.12s-.04,0-.06-.01c-.19-.07-.38-.15-.57-.24-.08-.04-.11-.13-.08-.2,.04-.08,.13-.11,.2-.08,.19,.09,.37,.16,.56,.24,.08,.03,.12,.12,.09,.2-.02,.06-.08,.1-.14,.1Zm6.61-.74s-.08-.02-.11-.05c-.06-.06-.05-.16,0-.22,.14-.13,.28-.28,.41-.43,.06-.07,.15-.07,.22-.02,.07,.06,.07,.15,.02,.22-.14,.16-.28,.31-.44,.45-.03,.03-.07,.04-.11,.04Zm.96-1.18s-.06,0-.08-.02c-.07-.04-.1-.14-.05-.21,.1-.17,.2-.34,.29-.52,.04-.08,.13-.11,.21-.07,.08,.04,.11,.13,.07,.21-.09,.19-.19,.37-.3,.55-.03,.05-.08,.07-.13,.07Zm.64-1.38s-.03,0-.05,0c-.08-.03-.12-.12-.1-.2,.06-.19,.12-.38,.17-.57,.02-.08,.1-.13,.19-.11,.08,.02,.13,.11,.11,.19-.05,.2-.11,.4-.18,.6-.02,.06-.08,.1-.15,.1Zm.37-1.48s-.02,0-.03,0c-.08-.01-.14-.09-.13-.18,.03-.19,.06-.39,.08-.6,0-.09,.09-.15,.17-.14,.08,0,.15,.09,.14,.17-.02,.21-.05,.42-.08,.62-.01,.08-.08,.13-.15,.13Zm.14-1.52h0c-.09,0-.15-.07-.15-.16,0-.14,0-.28,0-.42v-.18c0-.09,.07-.16,.15-.16,.09,.01,.16,.07,.16,.15v.19c0,.15,0,.29,0,.43,0,.08-.07,.15-.15,.15Zm-.04-1.53c-.08,0-.15-.06-.15-.14-.02-.2-.03-.4-.06-.6,0-.08,.05-.16,.14-.17,.08-.01,.16,.05,.17,.14,.02,.21,.04,.41,.06,.61,0,.09-.06,.16-.14,.17,0,0,0,0-.01,0Zm-.19-1.52c-.07,0-.14-.05-.15-.13-.03-.2-.07-.4-.11-.6-.02-.08,.04-.17,.12-.18,.08-.02,.17,.04,.18,.12,.04,.2,.08,.41,.11,.61,.01,.08-.04,.16-.13,.18,0,0-.02,0-.03,0Zm-.31-1.5c-.07,0-.13-.05-.15-.12-.05-.2-.1-.39-.16-.59-.02-.08,.02-.17,.11-.19,.08-.02,.17,.02,.19,.11,.06,.2,.11,.4,.16,.6,.02,.08-.03,.17-.11,.19-.01,0-.03,0-.04,0Zm-.43-1.47c-.06,0-.13-.04-.15-.11-.06-.19-.13-.38-.2-.58-.03-.08,.01-.17,.09-.2,.08-.03,.17,.01,.2,.09,.07,.19,.14,.39,.2,.58,.03,.08-.02,.17-.1,.19-.02,0-.03,0-.05,0Z"/>
              <path class="cls-28" d="M182.17,95.13s-.05,0-.07-.02c-.09-.05-.18-.1-.27-.15-.07-.04-.1-.14-.06-.21,.04-.07,.14-.1,.21-.06,.09,.05,.18,.1,.27,.15,.07,.04,.1,.13,.06,.21-.03,.05-.08,.08-.14,.08Z"/>
            </g>
            <path class="cls-28" d="M190.44,82.17s0,0,0,0c-.09,0-.15-.08-.14-.16l.05-.82c0-.06,.04-.11,.09-.13,.05-.02,.11-.02,.16,.02l.7,.52c.07,.05,.08,.15,.03,.22-.05,.07-.15,.08-.22,.03l-.47-.35-.03,.54c0,.08-.07,.14-.15,.14Z"/>
          </g>
          <path class="cls-3" d="M134.36,54.79c0-1.01-1.43-1.84-3.19-1.84-1.76,0-3.18,.82-3.17,1.83,0,.93,1.2,1.7,2.75,1.82v.51c-.29,.04-.51,.2-.51,.38v1.76c.01,.22,.32,.4,.7,.4h.52c.38,0,.69-.18,.69-.4v-1.76c-.01-.18-.23-.34-.52-.38v-.51c1.55-.12,2.74-.88,2.73-1.81Z"/>
          <g>
            <path class="cls-2" d="M172.88,126.6l-55.24-31.91c-2.14-1.23-3.87-4.55-3.87-7.4V37.04c0-2.85,1.73-4.16,3.87-2.93l55.24,31.91c2.14,1.23,3.87,4.55,3.87,7.4v50.25c0,2.85-1.73,4.16-3.87,2.93Z"/>
            <path class="cls-30" d="M174.41,65.23l-55.24-31.91c-.85-.49-1.63-.58-2.27-.33-.08,.03-1.59,.81-1.67,.86,0,0,0,0,0,0,.66-.32,1.5-.26,2.41,.27l55.24,31.91c2.14,1.23,3.87,4.55,3.87,7.4v50.25c0,1.78-.68,2.96-1.7,3.29,.08,0,.19-.03,.34-.12,.05-.03,1.65-.9,1.7-.93,.74-.52,1.19-1.57,1.19-3.04v-50.25c0-2.85-1.73-6.16-3.87-7.4Z"/>
            <path class="cls-24" d="M173.97,65.44l-55.24-31.91c-.85-.49-1.63-.58-2.27-.33-.08,.03-1.16,.6-1.24,.65,0,0,0,0,0,0,.66-.32,1.5-.26,2.41,.27l55.24,31.91,1.1-.58Z"/>
            <path class="cls-4" d="M173.06,65.93l-55.24-31.91c-.88-.51-1.68-.58-2.33-.3,.55-.09,1.19,.05,1.87,.44l55.24,31.91c2.14,1.23,3.87,4.55,3.87,7.4v50.25c0,1.68-.61,2.82-1.54,3.23,1.19-.19,2-1.42,2-3.36v-50.25c0-2.85-1.73-6.16-3.87-7.4Z"/>
            <path class="cls-37" d="M115.94,41.51v45.78c0,2.24,1.06,4.42,2.79,5.52l54.65,31.57s.05,.03,.09,.05c.49,.28,1.11-.07,1.11-.64v-48.4l-58.63-33.87Z"/>
            <path class="cls-11" d="M174.49,124.01s-.07-.04-.09-.05l-54.65-31.57c-1.72-1.09-2.79-3.28-2.79-5.52V42.1l-1.03-.59v45.78c0,2.24,1.06,4.42,2.79,5.52l54.65,31.57s.05,.03,.09,.05c.42,.24,.92,.02,1.06-.4-.01,0-.02,0-.03-.01Z"/>
            <g>
              <path class="cls-33" d="M171.5,69.88c0,.68,.48,1.5,1.07,1.84,.59,.34,1.07,.07,1.07-.61s-.48-1.5-1.07-1.84c-.59-.34-1.07-.07-1.07,.61Z"/>
              <path class="cls-28" d="M168.75,68.29c0,.68,.48,1.5,1.07,1.84,.59,.34,1.07,.07,1.07-.61s-.48-1.5-1.07-1.84c-.59-.34-1.07-.07-1.07,.61Z"/>
              <path class="cls-19" d="M166,66.69c0,.68,.48,1.5,1.07,1.84,.59,.34,1.07,.07,1.07-.61s-.48-1.5-1.07-1.84c-.59-.34-1.07-.07-1.07,.61Z"/>
            </g>
          </g>
          <path class="cls-7" d="M151.98,65.16l-4.01-2.31c-.4-.23-.73-.05-.73,.42s.33,1.03,.73,1.26l4.01,2.31c.4,.23,.73,.05,.73-.42s-.33-1.03-.73-1.26Zm6.6,3.81l-4.01-2.31c-.4-.23-.73-.05-.73,.42s.33,1.03,.73,1.26l4.01,2.31c.4,.23,.73,.05,.73-.42s-.33-1.03-.73-1.26Zm6.6,3.81l-4.01-2.31c-.4-.23-.73-.05-.73,.42s.33,1.03,.73,1.26l4.01,2.31c.4,.23,.73,.05,.73-.42s-.33-1.03-.73-1.26Zm6.6,3.81l-4.01-2.31c-.4-.23-.73-.05-.73,.42s.33,1.03,.73,1.26l4.01,2.31c.4,.23,.73,.05,.73-.42s-.33-1.03-.73-1.26Z"/>
          <g>
            <g>
              <polygon class="cls-15" points="136.08 68.47 136.08 85.72 137.96 84.62 137.96 67.32 136.08 68.47"/>
              <polygon class="cls-30" points="136.08 68.47 136.08 85.72 98.45 64.14 98.45 46.84 136.08 68.47"/>
              <polygon class="cls-7" points="98.45 46.84 136.08 68.47 137.96 67.32 100.32 45.7 98.45 46.84"/>
              <polygon class="cls-5" points="98.45 46.84 136.08 68.47 137.96 67.32 136.08 68.21 98.45 46.84"/>
            </g>
            <g>
              <polygon class="cls-3" points="130.57 79.47 130.57 78.73 118.69 71.98 118.69 72.71 130.57 79.47"/>
              <polygon class="cls-3" points="113.55 58.36 113.55 59.09 133.52 70.51 133.52 69.78 113.55 58.36"/>
              <polygon class="cls-3" points="120.58 68.5 113.55 64.45 113.55 65.18 120.58 69.24 120.58 68.5"/>
              <polygon class="cls-3" points="125.34 74.29 125.34 75.03 128.24 76.6 128.24 75.87 125.34 74.29"/>
              <polygon class="cls-3" points="124.89 67.95 113.55 61.4 113.55 62.13 124.89 68.68 124.89 67.95"/>
              <polygon class="cls-3" points="117.7 65.32 113.55 62.92 113.55 63.66 117.7 66.05 117.7 65.32"/>
              <polygon class="cls-3" points="116.65 70.01 124.62 74.61 124.62 73.88 116.65 69.28 116.65 70.01"/>
              <polygon class="cls-3" points="118.42 65.74 118.42 66.47 129.61 72.82 129.61 72.09 118.42 65.74"/>
              <polygon class="cls-3" points="121.3 68.92 121.3 69.65 126.9 72.88 126.9 72.15 121.3 68.92"/>
              <polygon class="cls-3" points="115.93 68.86 113.55 67.49 113.55 68.22 115.93 69.59 115.93 68.86"/>
              <polygon class="cls-3" points="125.61 69.1 133.52 73.56 133.52 72.82 125.61 68.36 125.61 69.1"/>
              <polygon class="cls-3" points="130.33 73.24 133.52 75.08 133.52 74.35 130.33 72.51 130.33 73.24"/>
              <polygon class="cls-3" points="113.55 60.61 133.52 72.03 133.52 71.3 113.55 59.88 113.55 60.61"/>
              <polygon class="cls-3" points="127.62 73.3 133.52 76.6 133.52 75.87 127.62 72.57 127.62 73.3"/>
              <polygon class="cls-3" points="117.97 71.56 113.55 69.01 113.55 69.74 117.97 72.3 117.97 71.56"/>
              <polygon class="cls-3" points="131.29 79.88 133.52 81.17 133.52 80.43 131.29 79.15 131.29 79.88"/>
              <polygon class="cls-3" points="128.96 77.01 133.52 79.64 133.52 78.91 128.96 76.28 128.96 77.01"/>
              <polygon class="cls-3" points="113.55 66.7 133.52 78.12 133.52 77.39 113.55 65.97 113.55 66.7"/>
            </g>
            <path class="cls-15" d="M109.38,55.46l-6.56-3.8c-1.15-.66-2.08,.04-2.08,1.57v7.6c0,1.53,.93,3.31,2.08,3.97l6.56,3.8c1.15,.66,2.08-.04,2.08-1.57v-7.6c0-1.53-.93-3.31-2.08-3.97Z"/>
            <path class="cls-23" d="M110.19,67.98l-6.56-3.8c-1.15-.66-2.08-2.44-2.08-3.97v-7.6c0-.48,.09-.88,.26-1.19-.64,.11-1.07,.76-1.07,1.8v7.6c0,1.53,.93,3.31,2.08,3.97l6.56,3.8c.78,.45,1.47,.27,1.82-.38-.3,.05-.64-.02-1.01-.23Z"/>
            <g>
              <path class="cls-19" d="M104.28,57.59l-6.56-3.8c-1.15-.66-2.08,.04-2.08,1.57v7.6c0,1.53,.93,3.31,2.08,3.97l6.56,3.8c1.15,.66,2.08-.04,2.08-1.57v-7.6c0-1.53-.93-3.31-2.08-3.97Z"/>
              <path class="cls-20" d="M105.35,56.96l-6.56-3.8c-.49-.28-.94-.32-1.3-.14h-.01s-1.14,.65-1.14,.65h0c.37-.2,.84-.19,1.37,.11l6.56,3.8c1.15,.66,2.08,2.44,2.08,3.97v7.6c0,.74-.22,1.29-.58,1.58l.63-.42c.53-.31,1.02-.78,1.02-1.79v-7.6c0-1.53-.93-3.31-2.08-3.97Z"/>
              <path class="cls-5" d="M104.4,57.49l-6.56-3.8c-.57-.33-1.09-.32-1.46-.04,.34-.13,.76-.08,1.21,.18l6.56,3.8c1.15,.66,2.08,2.44,2.08,3.97v7.6c0,.77-.24,1.33-.62,1.61,.53-.2,.87-.82,.87-1.75v-7.6c0-1.53-.93-3.31-2.08-3.97Z"/>
              <path class="cls-3" d="M97.38,55.89v8.7l7.12,4.11v-8.7l-7.12-4.11Zm6.66,12.02l-6.21-3.58v-7.64l6.21,3.58v7.64Z"/>
              <path class="cls-3" d="M102.93,61.54c0,.57-.4,.8-.9,.51-.5-.29-.9-.98-.9-1.55s.4-.8,.9-.51c.5,.29,.9,.98,.9,1.55Z"/>
              <polygon class="cls-3" points="97.62 62.27 99.47 59.88 101.35 64.64 102.72 63.53 104.23 67.63 104.21 68.05 97.65 64.54 97.62 62.27"/>
            </g>
          </g>
          <g>
            <g>
              <path class="cls-33" d="M184.46,62.6c0,1.18-.41,2.02-1.07,2.42-.02,.01-1.13,.7-1.15,.71-.69,.39-.25-.49-1.3-1.09-2.11-1.22-3.82-4.17-3.82-6.58,0-1.2-1.11-1.21-.43-1.61,.02-.01,1.26-.72,1.28-.73,.69-.37,1.63-.3,2.67,.29,2.11,1.22,3.82,4.17,3.82,6.58Z"/>
              <path class="cls-3" d="M179.58,56.67c-1.01-.58-1.93-.66-2.61-.32,.64-.18,1.43-.05,2.28,.45,2.11,1.22,3.82,4.17,3.82,6.59,0,1.26-.46,2.13-1.21,2.5,.93-.26,1.54-1.19,1.54-2.63,0-2.42-1.71-5.37-3.82-6.59Z"/>
              <ellipse class="cls-16" cx="179.4" cy="61.14" rx="3.11" ry="5.38" transform="translate(-6.33 98.9) rotate(-30.31)"/>
            </g>
            <path class="cls-29" d="M178.71,59.57c0,.34-.24,.48-.54,.31-.3-.17-.54-.59-.54-.93s.24-.48,.54-.31c.3,.17,.54,.59,.54,.93Z"/>
            <path class="cls-29" d="M180.88,60.82c0,.34-.24,.48-.54,.31-.3-.17-.54-.59-.54-.93s.24-.48,.54-.31c.3,.17,.54,.59,.54,.93Z"/>
            <path class="cls-29" d="M177.24,60.97l.5,.08c.23,.88,.85,1.73,1.54,2.13,.67,.39,1.28,.26,1.52-.32l.5,.51c-.32,.76-1.13,.93-2.02,.42-.91-.53-1.73-1.66-2.04-2.82Z"/>
            <path class="cls-26" d="M178.34,59.77c-.3-.17-.54-.59-.54-.93,0-.11,.03-.2,.07-.26-.14,.03-.23,.16-.23,.37,0,.34,.24,.75,.54,.93,.2,.12,.37,.09,.46-.04-.09,.02-.19,0-.31-.07Z"/>
            <path class="cls-26" d="M180.5,61.02c-.3-.17-.54-.59-.54-.93,0-.11,.03-.2,.07-.26-.14,.03-.23,.16-.23,.37,0,.34,.24,.75,.54,.93,.2,.12,.37,.09,.46-.04-.09,.02-.19,0-.31-.07Z"/>
            <g>
              <path class="cls-26" d="M180.85,62.93l-.06-.06c-.06,.14-.14,.24-.23,.33,.11-.06,.21-.15,.29-.27Z"/>
              <path class="cls-26" d="M179.43,63.68c-.87-.51-1.66-1.57-1.99-2.68l-.2-.03c.31,1.16,1.12,2.3,2.04,2.82,.67,.38,1.29,.38,1.69,.04-.4,.23-.95,.19-1.54-.14Z"/>
            </g>
          </g>
          <g>
            <g>
              <polygon class="cls-15" points="182.59 100.55 182.59 121.61 184.48 120.51 184.48 99.39 182.59 100.55"/>
              <polygon class="cls-30" points="182.6 100.55 182.6 121.61 141.41 97.99 141.41 76.88 182.6 100.55"/>
              <polygon class="cls-7" points="141.41 76.88 182.6 100.55 184.48 99.39 143.27 75.74 141.41 76.88"/>
              <polygon class="cls-5" points="141.41 76.88 182.6 100.55 184.48 99.39 182.59 100.28 141.41 76.88"/>
            </g>
            <ellipse class="cls-15" cx="173.63" cy="106.04" rx="5.26" ry="9.11" transform="translate(-29.78 102.12) rotate(-30.31)"/>
            <path class="cls-23" d="M174.25,112.91c-3.57-2.06-6.46-7.05-6.46-11.15,0-1.53,.4-2.72,1.09-3.5-1.06,.71-1.71,2.1-1.71,4.04,0,4.1,2.89,9.09,6.46,11.15,2.24,1.29,4.21,1.13,5.37-.19-1.18,.79-2.87,.73-4.75-.35Z"/>
            <g>
              <path class="cls-15" d="M155.49,88.45l-1.39-.8v15.66l1.39,.8v-15.66Zm2-.79l-1.39-.8v17.58l1.39,.8v-17.58Zm2.06,3.54l-1.39-.8v15.22l1.39,.8v-15.22Zm-9.57,1.1v8.58l1.39,.8v-8.58l-1.39-.8Zm3.45-2.39l-1.39-.8v12.95l1.39,.8v-12.95Zm8.14,5.63l-1.39-.8v12.05l1.39,.8v-12.05Zm1.98,4.97l-1.39-.8v8.24l1.39,.8v-8.24Zm-14.25-9.7l-1.39-.8v9.63l1.39,.8v-9.63Zm-5.51,.57v5.83l1.39,.8v-5.83l-1.39-.8Zm3.45-2.29l-1.39-.8v10.1l1.39,.8v-10.1Z"/>
              <path class="cls-22" d="M155.49,94.59l-1.39-.8v9.51l1.39,.8v-9.51Zm2-4.33l-1.39-.8v14.98l1.39,.8v-14.98Zm2.06,3.71l-1.39-.8v12.44l1.39,.8v-12.44Zm-9.57,.41v6.5l1.39,.8v-6.5l-1.39-.8Zm3.45-.25l-1.39-.8v8.73l1.39,.8v-8.73Zm-4.12-2.53l-1.39-.8v8.84l1.39,.8v-8.84Zm-5.51,3.92v1.69l1.39,.8v-1.69l-1.39-.8Zm3.45,0l-1.39-.8v3.67l1.39,.8v-3.67Zm14.32,2.26l-1.39-.8v9.81l1.39,.8v-9.81Zm1.98,3.95l-1.39-.8v7.02l1.39,.8v-7.02Z"/>
              <g>
                <polygon class="cls-3" points="159.55 94.15 158.16 93.35 158.16 93.18 159.55 93.98 159.55 94.15"/>
                <polygon class="cls-3" points="157.49 90.44 156.1 89.64 156.1 89.46 157.49 90.27 157.49 90.44"/>
                <polygon class="cls-3" points="163.56 101.91 162.17 101.11 162.17 100.94 163.56 101.74 163.56 101.91"/>
                <polygon class="cls-3" points="155.49 94.77 154.1 93.96 154.1 93.79 155.49 94.59 155.49 94.77"/>
                <polygon class="cls-3" points="161.57 97.96 160.18 97.16 160.18 96.99 161.57 97.79 161.57 97.96"/>
                <polygon class="cls-3" points="147.25 95.7 145.86 94.9 145.86 94.73 147.25 95.53 147.25 95.7"/>
                <polygon class="cls-3" points="149.31 91.77 147.92 90.97 147.92 90.8 149.31 91.6 149.31 91.77"/>
                <polygon class="cls-3" points="145.19 96.33 145.19 96.5 143.8 95.7 143.8 95.53 145.19 96.33"/>
                <polygon class="cls-3" points="153.43 94.3 152.04 93.5 152.04 93.33 153.43 94.13 153.43 94.3"/>
                <polygon class="cls-3" points="151.37 95.36 149.98 94.56 149.98 94.39 151.37 95.19 151.37 95.36"/>
              </g>
            </g>
            <g>
              <g>
                <path class="cls-33" d="M167.27,103.3c.08-3.1,2.34-4.33,5.1-2.73,1.42,.82,2.71,2.23,3.63,3.85l1.02-.26c-1.16-2.1-2.82-3.96-4.65-5.02-3.47-2.01-6.3-.42-6.35,3.53l.81,.74,.44-.11Z"/>
                <path class="cls-33" d="M174.93,112.96c-.75,.07-1.63-.14-2.56-.68-2.62-1.51-4.77-5.03-5.07-8.11l-1.25-.63s-.42,.11-.41,.13c.36,3.84,3.47,8.15,6.73,10.03,1.18,.68,1.98,1.04,2.93,.94,.04,0,.39-.1,.43-.11l-.8-1.58Z"/>
                <path class="cls-33" d="M176.49,105.35c.62,1.33,.99,2.73,.99,4.02,0,1.85-.75,3.07-1.93,3.46l.79,1.56c1.45-.5,2.38-2.01,2.38-4.31,0-1.6-.45-3.35-1.22-4.99l-1.01,.25Z"/>
              </g>
              <path class="cls-33" d="M174.12,107.92c-.34-.29-.65-.66-.9-1.07-.15-.25-.14-.52,0-.6,.19-.11,.35-.28,.46-.51,.16,.04,.35-.01,.35-.23s-.1-.46-.23-.58c-.04-.94-.36-1.9-1.44-2.53-.38-.22-.66-.29-.87-.25-.05,0-.48,.12-.52,.14-.29,.15-.02,.46-.05,.97-.13-.03-.23,.1-.23,.32s.19,.5,.35,.64c.11,.35,.27,.71,.46,1.04,.14,.25,.15,.52,0,.6-.24,.13-.55,.14-.9,.04-.14-.04-.26-.05-.37-.02-.03,0-.42,.11-.44,.12-.2,.1,.03,.25,.03,.59v.97c0,.19,.13,.42,.3,.51l4.15,2.75c.07,.04,.48-.1,.53-.12,.07-.02,.11-.09,.11-.2v-.97c0-.56-.34-1.22-.79-1.61Z"/>
              <g>
                <path class="cls-3" d="M166.99,103.38c.08-3.1,2.34-4.33,5.1-2.73,1.42,.82,2.71,2.23,3.63,3.85l1.02-.26c-1.16-2.1-2.82-3.96-4.65-5.02-3.47-2.01-6.3-.42-6.35,3.53l1.25,.63Z"/>
                <path class="cls-3" d="M174.65,113.04c-.75,.07-1.63-.14-2.56-.68-2.62-1.51-4.77-5.03-5.07-8.11l-1.25-.63c.33,3.85,3.04,8.27,6.31,10.16,1.23,.71,2.38,.97,3.36,.83l-.8-1.58Z"/>
                <path class="cls-3" d="M176.21,105.43c.62,1.33,.99,2.73,.99,4.02,0,1.85-.75,3.07-1.93,3.46l.79,1.56c1.45-.5,2.38-2.01,2.38-4.31,0-1.6-.45-3.35-1.22-4.99l-1.01,.25Z"/>
              </g>
              <path class="cls-3" d="M173.84,108c-.34-.29-.65-.66-.9-1.07-.15-.25-.14-.52,0-.6,.19-.11,.35-.28,.46-.51,.16,.04,.35-.01,.35-.23s-.1-.46-.23-.58c-.04-.94-.36-1.9-1.44-2.53-1.08-.62-1.4-.03-1.44,.87-.13-.03-.23,.1-.23,.32s.19,.5,.35,.64c.11,.35,.27,.71,.46,1.04,.14,.25,.15,.52,0,.6-.24,.13-.55,.14-.9,.04-.45-.14-.79,.14-.79,.7v.97c0,.19,.13,.42,.3,.51l4.49,2.59c.16,.09,.3,.02,.3-.17v-.97c0-.56-.34-1.22-.79-1.61Z"/>
              <g>
                <path class="cls-36" d="M166.83,103.42c.08-3.1,2.34-4.33,5.1-2.73,1.42,.82,2.71,2.23,3.63,3.85l1.02-.26c-1.16-2.1-2.82-3.96-4.65-5.02-3.47-2.01-6.3-.42-6.35,3.53l1.25,.63Z"/>
                <path class="cls-36" d="M174.49,113.08c-.75,.07-1.63-.14-2.56-.68-2.62-1.51-4.77-5.03-5.07-8.11l-1.25-.63c.33,3.85,3.04,8.27,6.31,10.16,1.23,.71,2.38,.97,3.36,.83l-.8-1.58Z"/>
                <path class="cls-36" d="M176.05,105.47c.62,1.33,.99,2.73,.99,4.02,0,1.85-.75,3.07-1.93,3.46l.79,1.56c1.45-.5,2.38-2.01,2.38-4.31,0-1.6-.45-3.35-1.22-4.99l-1.01,.25Z"/>
              </g>
              <path class="cls-36" d="M173.68,108.04c-.34-.29-.65-.66-.9-1.07-.15-.25-.14-.52,0-.6,.19-.11,.35-.28,.46-.51,.16,.04,.35-.01,.35-.23s-.1-.46-.23-.58c-.04-.94-.36-1.9-1.44-2.53-1.08-.62-1.4-.03-1.44,.87-.13-.03-.23,.1-.23,.32s.19,.5,.35,.64c.11,.35,.27,.71,.46,1.04,.14,.25,.15,.52,0,.6-.24,.13-.55,.14-.9,.04-.45-.14-.79,.14-.79,.7v.97c0,.19,.13,.42,.3,.51l4.49,2.59c.16,.09,.3,.02,.3-.17v-.97c0-.56-.34-1.22-.79-1.61Z"/>
            </g>
          </g>
          <g>
            <g>
              <polygon class="cls-20" points="141.64 95.25 141.64 104.07 143.11 103.26 143.11 94.39 141.64 95.25"/>
              <polygon class="cls-19" points="141.64 95.25 141.64 104.07 109 85.23 109 76.36 141.64 95.25"/>
              <polygon class="cls-1" points="109 76.36 141.64 95.25 143.11 94.39 110.46 75.51 109 76.36"/>
              <polygon class="cls-5" points="109 76.36 141.64 95.25 143.11 94.39 141.67 95.02 109 76.36"/>
            </g>
            <polygon class="cls-3" points="139.98 101.4 110.61 84.26 110.61 79.06 139.98 96.2 139.98 101.4"/>
            <g>
              <path class="cls-23" d="M111.84,80.53l.59,.34,.27,2.84h.01s.29-2.5,.29-2.5l.67,.39,.29,2.85h.01s.27-2.51,.27-2.51l.53,.31-.4,3.49-.77-.44-.28-2.42h-.01s-.28,2.09-.28,2.09l-.82-.47-.4-3.95Z"/>
              <path class="cls-23" d="M115.36,82.57l.59,.34,.27,2.84h.01s.29-2.5,.29-2.5l.67,.39,.29,2.85h.01s.27-2.51,.27-2.51l.53,.31-.4,3.49-.77-.44-.28-2.42h-.01s-.28,2.09-.28,2.09l-.82-.47-.4-3.95Z"/>
              <path class="cls-23" d="M118.9,84.59l.59,.34,.27,2.84h.01s.29-2.5,.29-2.5l.67,.39,.29,2.85h.01s.27-2.51,.27-2.51l.53,.31-.4,3.49-.77-.44-.28-2.42h-.01s-.28,2.09-.28,2.09l-.82-.47-.4-3.95Z"/>
            </g>
          </g>
          <g>
            <g>
              <polygon class="cls-33" points="123.82 49.85 123.82 56 124.75 55.49 124.75 49.29 123.82 49.85"/>
              <polygon class="cls-16" points="123.83 49.85 123.83 56 118.35 52.84 118.35 46.64 123.83 49.85"/>
              <polygon class="cls-36" points="118.35 46.64 123.83 49.85 124.75 49.29 119.26 46.1 118.35 46.64"/>
              <polygon class="cls-3" points="118.35 46.64 123.83 49.85 124.75 49.29 123.78 49.56 118.35 46.64"/>
            </g>
            <g>
              <polygon class="cls-12" points="128.63 47.8 128.63 57.76 130.14 56.94 130.14 46.9 128.63 47.8"/>
              <polygon class="cls-18" points="119.78 42.6 128.65 47.8 130.14 46.9 121.25 41.72 119.78 42.6"/>
              <polygon class="cls-5" points="119.78 42.6 128.65 47.8 130.14 46.9 128.69 47.59 119.78 42.6"/>
            </g>
            <polygon class="cls-28" points="119.78 42.6 119.78 46.73 124.47 49.48 124.47 55.35 128.65 57.76 128.65 47.8 119.78 42.6"/>
          </g>
          <g>
            <g>
              <polygon class="cls-20" points="147.59 71.85 147.59 78.73 148.63 78.16 148.63 71.23 147.59 71.85"/>
              <polygon class="cls-19" points="147.6 71.85 147.6 78.73 141.47 75.2 141.47 68.26 147.6 71.85"/>
              <polygon class="cls-1" points="141.47 68.26 147.6 71.85 148.63 71.23 142.49 67.66 141.47 68.26"/>
              <polygon class="cls-5" points="141.47 68.26 147.6 71.85 148.63 71.23 147.54 71.52 141.47 68.26"/>
            </g>
            <g>
              <polygon class="cls-20" points="155.62 76.49 155.62 83.37 156.66 82.8 156.66 75.87 155.62 76.49"/>
              <polygon class="cls-19" points="155.63 76.49 155.63 83.37 149.51 79.83 149.51 72.9 155.63 76.49"/>
              <polygon class="cls-1" points="149.51 72.9 155.63 76.49 156.66 75.87 150.52 72.29 149.51 72.9"/>
              <polygon class="cls-5" points="149.51 72.9 155.63 76.49 156.66 75.87 155.58 76.16 149.51 72.9"/>
            </g>
            <g>
              <polygon class="cls-20" points="163.6 81.07 163.6 87.95 164.64 87.38 164.64 80.45 163.6 81.07"/>
              <polygon class="cls-19" points="163.61 81.07 163.61 87.95 157.49 84.41 157.49 77.48 163.61 81.07"/>
              <polygon class="cls-1" points="157.49 77.48 163.61 81.07 164.64 80.45 158.51 76.88 157.49 77.48"/>
              <polygon class="cls-5" points="157.49 77.48 163.61 81.07 164.64 80.45 163.56 80.74 157.49 77.48"/>
            </g>
            <g>
              <polygon class="cls-20" points="171.48 85.55 171.48 92.43 172.52 91.86 172.52 84.93 171.48 85.55"/>
              <polygon class="cls-19" points="171.49 85.55 171.49 92.43 165.37 88.89 165.37 81.96 171.49 85.55"/>
              <polygon class="cls-1" points="165.37 81.96 171.49 85.55 172.52 84.93 166.39 81.36 165.37 81.96"/>
              <polygon class="cls-5" points="165.37 81.96 171.49 85.55 172.52 84.93 171.44 85.22 165.37 81.96"/>
            </g>
            <path class="cls-3" d="M161.77,83.99c-.22-.18-.41-.42-.57-.68-.09-.16-.09-.33,0-.38,.12-.07,.22-.18,.29-.32,.1,.03,.22,0,.22-.15s-.06-.29-.14-.37c-.02-.59-.23-1.2-.91-1.6-.68-.39-.89-.02-.91,.55-.08-.02-.14,.06-.14,.2s.12,.31,.22,.4c.07,.22,.17,.45,.29,.66,.09,.16,.09,.33,0,.38-.15,.08-.35,.09-.57,.02-.29-.09-.5,.09-.5,.44v.61c0,.12,.08,.26,.19,.32l2.84,1.64c.1,.06,.19,.01,.19-.11v-.61c0-.35-.21-.77-.5-1.02Z"/>
            <path class="cls-3" d="M166.48,88.41l.99,.57v-1.78l-.99-.57v1.78Zm1.57,.91l.99,.57v-3.26l-.99-.57v3.26Zm1.57-3.84v4.74l.99,.57v-4.74l-.99-.57Z"/>
            <path class="cls-3" d="M154.17,79.14c0-.09,0-.19-.02-.28l.47-.06c-.05-.24-.12-.47-.21-.71l-.53-.16c-.09-.2-.21-.39-.33-.57l.13-.54c-.16-.2-.33-.38-.51-.54l-.29,.37c-.08-.06-.15-.11-.23-.16-.08-.05-.16-.08-.24-.11l-.29-.7c-.18-.05-.35-.07-.51-.05l.13,.69c-.13,.03-.24,.1-.33,.19l-.53-.46c-.09,.13-.16,.28-.21,.46l.47,.6c-.01,.08-.02,.17-.02,.26s0,.19,.02,.28l-.47,.06c.05,.24,.12,.47,.21,.71l.53,.16c.09,.2,.21,.39,.33,.57l-.13,.54c.16,.2,.33,.38,.51,.54l.29-.37c.08,.06,.15,.11,.24,.16,.08,.05,.16,.08,.23,.11l.29,.7c.18,.05,.35,.07,.51,.05l-.13-.69c.13-.03,.24-.1,.33-.19l.53,.46c.09-.13,.16-.28,.21-.46l-.47-.6c.01-.08,.02-.17,.02-.26Zm-1.54-.18c-.34-.2-.62-.67-.62-1.06s.28-.55,.62-.35,.62,.67,.62,1.06-.28,.55-.62,.35Z"/>
            <g>
              <path class="cls-3" d="M142.61,71l1.97,3.08,1.97-.8s0,0,0,0c-.07-.09-.15-.18-.23-.23l-3.48-2.01c-.09-.05-.17-.06-.23-.04,0,0,0,0,0,0Z"/>
              <path class="cls-3" d="M146.56,73.28l-1.98,1.13-.56-.97-1.41,.58s0,0,0,0l1.31-.75-1.31-2.26c-.09,.03-.15,.12-.15,.26v2.35c0,.24,.17,.54,.39,.67l3.48,2.01c.21,.12,.39,.02,.39-.22v-2.35c0-.14-.06-.3-.15-.43Zm0,3.01l-1.41-2.2,.11-.06,1.31,2.26s0,0,0,0Z"/>
            </g>
          </g>
          <g>
            <g>
              <polygon class="cls-15" points="116.76 91.96 116.76 100.78 118.15 99.99 118.15 91.12 116.76 91.96"/>
              <polygon class="cls-30" points="116.76 91.96 116.76 100.78 93.07 87.11 93.07 78.24 116.76 91.96"/>
              <polygon class="cls-7" points="93.07 78.24 116.76 91.96 118.15 91.12 94.45 77.42 93.07 78.24"/>
              <polygon class="cls-5" points="93.07 78.24 116.76 91.96 118.15 91.12 116.71 91.7 93.07 78.24"/>
            </g>
            <path class="cls-3" d="M102.23,84.98l-4.33-2.5c-.27-.15-.48-.03-.48,.27v2.93c0,.3,.22,.68,.48,.83l2.71,1.56,1.35,2.33v-1.55l.27,.16c.27,.15,.48,.03,.48-.27v-2.93c0-.3-.22-.68-.48-.83Zm-3.05,.55c-.14,.08-.37-.05-.51-.29-.14-.24-.14-.51,0-.59,.14-.08,.37,.05,.51,.29s.14,.51,0,.59Zm1.17,.68c-.14,.08-.37-.05-.51-.29-.14-.24-.14-.51,0-.59,.14-.08,.37,.05,.51,.29s.14,.51,0,.59Zm1.17,.68c-.14,.08-.37-.05-.51-.29-.14-.24-.14-.51,0-.59,.14-.08,.37,.05,.51,.29s.14,.51,0,.59Zm-4.47-1.4v-2.38l-1.65-.96c-.27-.15-.48-.03-.48,.27v2.93c0,.3,.22,.68,.48,.83l.27,.16v1.55l1.35-.77,2.71,1.56c.27,.15,.48,.03,.48-.27v-.14l-2.32-1.34c-.46-.27-.84-.92-.84-1.45Z"/>
            <polygon class="cls-3" points="103.7 86.46 103.7 87.19 115.01 93.73 115.01 92.99 103.7 86.46"/>
            <polygon class="cls-3" points="111.43 93.97 103.7 89.5 103.7 90.24 111.43 94.71 111.43 93.97"/>
            <polygon class="cls-3" points="103.7 88.71 115.01 95.25 115.01 94.52 103.7 87.98 103.7 88.71"/>
          </g>
          <g>
            <path class="cls-31" d="M132.54,110.4l-7.36-4.13c.64-.47,1.01-1.02,1.01-1.62,0-1.65-2.81-2.98-6.27-2.98s-6.27,1.33-6.27,2.98,2.81,2.98,6.27,2.98c.72,0,1.41-.06,2.06-.17l7.92,4.45c.51,.3,1.41,.26,2-.08,.65-.33,1.43-.97,.65-1.43Z"/>
            <g>
              <g>
                <path class="cls-11" d="M132.52,109.59c.44,.82,.14,1.84-.68,2.28-.82,.44-1.84,.14-2.28-.68s-.14-1.84,.68-2.28c.82-.44,1.84-.14,2.28,.68Z"/>
                <path class="cls-23" d="M127.19,99l-3.65,1.96,5.44,10.03h0s0,0,0,.01c.32,.59,1.39,.62,2.39,.08,1.01-.54,1.57-1.46,1.25-2.04,0,0,0,0,0-.01h0s-5.44-10.03-5.44-10.03Z"/>
                <path class="cls-15" d="M127.19,99.01c.32,.59-.24,1.5-1.25,2.04-1.01,.54-2.08,.51-2.39-.08-.32-.59,.24-1.5,1.25-2.04,1.01-.54,2.08-.51,2.39,.08Z"/>
                <path class="cls-11" d="M124.8,96.34l-2.17,1.17,1.54,2.86h0s0,0,0,0c.19,.35,.83,.37,1.42,.05,.6-.32,.93-.87,.74-1.22,0,0,0,0,0,0h0s-1.54-2.86-1.54-2.86Z"/>
              </g>
              <path class="cls-7" d="M118.68,73.34c-2.7-1.56-5.15-1.74-6.94-.77-.05,.03-2.62,1.46-2.7,1.59,1.82-1.38,4.52-1.35,7.53,.38,5.49,3.17,9.94,10.85,9.94,17.15,0,3.21-1.16,5.45-3.02,6.45,.13-.04,.29-.1,.49-.21,.05-.03,1.81-1.09,1.86-1.12,1.73-1.06,2.79-3.23,2.79-6.31,0-6.3-4.45-13.98-9.94-17.15Z"/>
              <path class="cls-2" d="M116.57,74.54c-5.49-3.17-9.94-.63-9.94,5.67s4.45,13.98,9.94,17.15c5.49,3.17,9.94,.63,9.94-5.67s-4.45-13.98-9.94-17.15Zm-.15,21.31c-4.66-2.69-8.44-9.2-8.44-14.55s3.78-7.5,8.44-4.81c4.66,2.69,8.44,9.2,8.44,14.55s-3.78,7.5-8.44,4.81Z"/>
              <path class="cls-7" d="M118.17,94.88c-4.66-2.69-8.44-9.2-8.44-14.55,0-2.18,.63-3.83,1.69-4.84-2.08,.56-3.44,2.61-3.44,5.81,0,5.35,3.78,11.86,8.44,14.55,2.76,1.59,5.21,1.49,6.75,.03-1.4,.38-3.13,.08-5-1Z"/>
              <path class="cls-4" d="M117.05,74.31c-2.63-1.52-5.02-1.72-6.8-.84,1.66-.46,4.1-.21,6.32,1.07,5.49,3.17,9.94,10.85,9.94,17.15,0,3.28-1.59,5.63-3.52,6.6,2.43-.68,4-3.09,4-6.84,0-6.3-4.45-13.98-9.94-17.15Z"/>
            </g>
          </g>
        </g>
        <path class="cls-35" d="M150.44,161.07s-32.63,.09-72.86,.09-72.87-.04-72.87-.09,32.62-.09,72.87-.09,72.86,.04,72.86,.09Z"/>
        <g>
          <rect class="cls-17" x="125.61" y="116.78" width="45.82" height="37.33"/>
          <rect class="cls-34" x="122.35" y="119.15" width="45.82" height="37.33"/>
          <g>
            <rect class="cls-3" x="117.86" y="121.75" width="47.04" height="38.32"/>
            <path class="cls-35" d="M164.9,160.07s0-.24,0-.71c0-.47,0-1.15,0-2.05,0-1.79-.01-4.42-.02-7.77,0-6.69-.02-16.26-.04-27.8l.07,.07c-13.46,0-29.64,0-47.03,.01h0l.09-.09c0,13.86,0,26.94,0,38.32l-.08-.08c13.98,.02,25.73,.03,33.99,.04,4.13,0,7.39,.02,9.62,.02,1.11,0,1.97,0,2.55,0,.29,0,.51,0,.66,0,.15,0,.23,0,.23,0,0,0-.07,0-.22,0-.15,0-.36,0-.65,0-.58,0-1.43,0-2.53,0-2.22,0-5.48,.01-9.6,.02-8.27,0-20.04,.02-34.04,.04h-.08s0-.08,0-.08c0-11.38,0-24.46,0-38.32v-.09h.09c17.4,0,33.58,.01,47.03,.01h.07s0,.07,0,.07c-.02,11.56-.03,21.15-.04,27.85,0,3.34-.01,5.96-.02,7.75,0,.89,0,1.57,0,2.03,0,.46,0,.69,0,.69Z"/>
          </g>
          <g>
            <path class="cls-32" d="M123.59,127.29l-.5,.19,.5,.18v.19l-.72-.27v-.2l.72-.27v.19Z"/>
            <path class="cls-32" d="M124.79,126.94v1.06h-.25v-.44h-.48v.44h-.25v-1.06h.25v.42h.48v-.42h.25Z"/>
            <path class="cls-32" d="M125.26,127.14h-.34v-.2h.93v.2h-.34v.86h-.25v-.86Z"/>
            <path class="cls-32" d="M126.94,128v-.64s-.31,.52-.31,.52h-.11l-.31-.51v.62h-.23v-1.06h.2l.4,.66,.39-.66h.2v1.06s-.23,0-.23,0Z"/>
            <path class="cls-32" d="M127.42,126.94h.25v.86h.53v.2h-.78v-1.06Z"/>
            <path class="cls-32" d="M129.02,127.37v.2l-.72,.27v-.19l.5-.18-.5-.19v-.19l.72,.27Z"/>
          </g>
          <g>
            <path class="cls-32" d="M123.17,156.35l-.51,.18,.51,.18v.19l-.72-.27v-.2l.72-.27v.19Z"/>
            <path class="cls-32" d="M123.71,155.79h.21l-.5,1.43h-.21l.5-1.43Z"/>
            <path class="cls-32" d="M124.95,156v1.06h-.25v-.44h-.48v.44h-.25v-1.06h.25v.42h.48v-.42h.25Z"/>
            <path class="cls-32" d="M125.42,156.2h-.34v-.2h.92v.2h-.34v.86h-.25v-.86Z"/>
            <path class="cls-32" d="M127.1,157.06v-.64s-.31,.52-.31,.52h-.11l-.31-.51v.62h-.23v-1.06h.2l.4,.66,.39-.66h.2v1.06s-.23,0-.23,0Z"/>
            <path class="cls-32" d="M127.58,156h.25v.86h.53v.2h-.78v-1.06Z"/>
            <path class="cls-32" d="M129.19,156.43v.2l-.72,.27v-.19l.5-.18-.5-.18v-.19l.72,.27Z"/>
          </g>
          <g>
            <path d="M126.93,130.19l-.54,.21,.54,.21v.13l-.68-.27v-.13l.68-.27v.13Z"/>
            <path d="M128.1,129.87v1.06h-.15v-.47h-.61v.47h-.15v-1.06h.15v.46h.61v-.46h.15Z"/>
            <path d="M129.19,130.8v.13h-.77v-1.06h.75v.13h-.6v.33h.53v.13h-.53v.34h.62Z"/>
            <path d="M130.11,130.67h-.56l-.12,.27h-.16l.48-1.06h.15l.48,1.06h-.16l-.12-.27Zm-.05-.12l-.23-.52-.23,.52h.46Z"/>
            <path d="M130.54,129.87h.45c.34,0,.57,.22,.57,.53s-.23,.53-.57,.53h-.45v-1.06Zm.44,.93c.26,0,.43-.16,.43-.4s-.17-.4-.43-.4h-.29v.8h.29Z"/>
            <path d="M132.41,130.34v.13l-.68,.27v-.13l.54-.21-.54-.21v-.13l.68,.27Z"/>
            <path d="M126.93,133.83l-.54,.21,.54,.21v.13l-.68-.27v-.13l.68-.27v.13Z"/>
            <path d="M127.4,133.64h-.36v-.13h.88v.13h-.36v.93h-.15v-.93Z"/>
            <path d="M128.07,133.51h.15v1.06h-.15v-1.06Z"/>
            <path d="M128.76,133.64h-.36v-.13h.88v.13h-.36v.93h-.15v-.93Z"/>
            <path d="M129.43,133.51h.15v.93h.57v.13h-.73v-1.06Z"/>
            <path d="M131.1,134.44v.13h-.77v-1.06h.75v.13h-.6v.33h.53v.13h-.53v.34h.62Z"/>
            <path d="M131.97,133.97v.13l-.68,.27v-.13l.54-.21-.54-.21v-.13l.68,.27Z"/>
            <path d="M132.64,133.51h.15v.93h.57v.13h-.73v-1.06Z"/>
            <path d="M133.43,134.17c0-.24,.18-.41,.42-.41s.42,.17,.42,.41-.18,.41-.42,.41-.42-.17-.42-.41Zm.69,0c0-.17-.12-.28-.27-.28s-.27,.11-.27,.28,.12,.28,.27,.28,.27-.11,.27-.28Z"/>
            <path d="M134.9,133.76v.14s-.02,0-.03,0c-.16,0-.25,.1-.25,.27v.4h-.15v-.8h.14v.14c.05-.09,.15-.14,.29-.14Z"/>
            <path d="M135.79,134.21h-.65c.02,.14,.13,.24,.29,.24,.09,0,.17-.03,.23-.1l.08,.09c-.07,.08-.18,.13-.32,.13-.26,0-.43-.17-.43-.41s.17-.41,.4-.41,.4,.17,.4,.41c0,.01,0,.03,0,.04Zm-.65-.1h.52c-.02-.14-.12-.23-.26-.23s-.24,.09-.26,.23Z"/>
            <path d="M137.33,134.11v.46h-.15v-.45c0-.16-.08-.23-.21-.23-.15,0-.24,.09-.24,.27v.41h-.15v-.45c0-.16-.08-.23-.21-.23-.15,0-.24,.09-.24,.27v.41h-.15v-.8h.14v.12c.06-.08,.16-.13,.28-.13s.23,.05,.28,.15c.06-.09,.17-.15,.31-.15,.2,0,.33,.11,.33,.35Z"/>
            <path d="M137.98,133.52c0-.05,.04-.1,.1-.1s.1,.04,.1,.09c0,.05-.04,.1-.1,.1s-.1-.04-.1-.09Zm.03,.25h.15v.8h-.15v-.8Z"/>
            <path d="M139.26,134.17c0,.25-.17,.41-.41,.41-.11,0-.21-.04-.28-.13v.42h-.15v-1.1h.14v.13c.07-.09,.17-.14,.29-.14,.23,0,.41,.16,.41,.41Zm-.15,0c0-.17-.12-.28-.27-.28s-.27,.11-.27,.28,.12,.28,.27,.28,.27-.11,.27-.28Z"/>
            <path d="M139.36,134.48l.06-.12c.07,.05,.18,.08,.28,.08,.14,0,.19-.04,.19-.11,0-.18-.51-.02-.51-.34,0-.14,.13-.24,.34-.24,.1,0,.22,.03,.29,.07l-.06,.12c-.07-.05-.15-.06-.23-.06-.13,0-.19,.05-.19,.11,0,.19,.51,.03,.51,.35,0,.15-.13,.24-.35,.24-.13,0-.27-.04-.33-.09Z"/>
            <path d="M140.97,133.76v.8h-.14v-.12c-.06,.08-.16,.13-.27,.13-.21,0-.35-.11-.35-.35v-.46h.15v.45c0,.16,.08,.24,.22,.24,.15,0,.25-.09,.25-.27v-.42h.15Z"/>
            <path d="M142.58,134.11v.46h-.15v-.45c0-.16-.08-.23-.21-.23-.15,0-.24,.09-.24,.27v.41h-.15v-.45c0-.16-.08-.23-.21-.23-.15,0-.24,.09-.24,.27v.41h-.15v-.8h.14v.12c.06-.08,.16-.13,.28-.13s.23,.05,.28,.15c.06-.09,.17-.15,.31-.15,.2,0,.33,.11,.33,.35Z"/>
            <path d="M143.9,133.83l-.54,.21,.54,.21v.13l-.68-.27v-.13l.68-.27v.13Z"/>
            <path d="M144.46,133.29h.13l-.5,1.43h-.13l.5-1.43Z"/>
            <path d="M144.95,133.64h-.36v-.13h.88v.13h-.36v.93h-.15v-.93Z"/>
            <path d="M145.63,133.51h.15v1.06h-.15v-1.06Z"/>
            <path d="M146.31,133.64h-.36v-.13h.88v.13h-.36v.93h-.15v-.93Z"/>
            <path d="M146.99,133.51h.15v.93h.57v.13h-.73v-1.06Z"/>
            <path d="M148.66,134.44v.13h-.77v-1.06h.75v.13h-.6v.33h.53v.13h-.53v.34h.62Z"/>
            <path d="M149.52,133.97v.13l-.68,.27v-.13l.54-.21-.54-.21v-.13l.68,.27Z"/>
            <path d="M126.93,137.47l-.54,.21,.54,.21v.13l-.68-.27v-.13l.68-.27v.13Z"/>
            <path d="M127.48,136.93h.13l-.5,1.43h-.13l.5-1.43Z"/>
            <path d="M128.63,137.14v1.06h-.15v-.47h-.61v.47h-.15v-1.06h.15v.46h.61v-.46h.15Z"/>
            <path d="M129.72,138.07v.13h-.77v-1.06h.75v.13h-.6v.33h.53v.13h-.53v.34h.62Z"/>
            <path d="M130.64,137.94h-.56l-.12,.27h-.16l.48-1.06h.15l.48,1.06h-.16l-.12-.27Zm-.05-.12l-.23-.52-.23,.52h.46Z"/>
            <path d="M131.07,137.14h.45c.34,0,.57,.22,.57,.53s-.23,.53-.57,.53h-.45v-1.06Zm.44,.93c.26,0,.43-.16,.43-.4s-.17-.4-.43-.4h-.29v.8h.29Z"/>
            <path d="M132.95,137.61v.13l-.68,.27v-.13l.54-.21-.54-.21v-.13l.68,.27Z"/>
          </g>
          <g>
            <path d="M124.11,140.62l-.54,.21,.54,.21v.13l-.68-.27v-.13l.68-.27v.13Z"/>
            <path d="M125.28,141.07c0,.18-.14,.29-.41,.29h-.51v-1.06h.48c.24,0,.38,.1,.38,.27,0,.12-.06,.2-.14,.24,.12,.03,.2,.12,.2,.26Zm-.76-.65v.34h.31c.15,0,.24-.06,.24-.17s-.09-.17-.24-.17h-.31Zm.61,.64c0-.12-.09-.18-.26-.18h-.35v.35h.35c.17,0,.26-.05,.26-.18Z"/>
            <path d="M125.43,140.83c0-.31,.24-.54,.57-.54s.56,.23,.56,.54-.24,.54-.56,.54-.57-.23-.57-.54Zm.98,0c0-.24-.18-.41-.41-.41s-.41,.17-.41,.41,.18,.41,.41,.41,.41-.17,.41-.41Z"/>
            <path d="M126.79,140.3h.45c.34,0,.57,.22,.57,.53s-.23,.53-.57,.53h-.45v-1.06Zm.44,.93c.26,0,.43-.16,.43-.4s-.17-.4-.43-.4h-.29v.8h.29Z"/>
            <path d="M128.4,140.99v.37h-.15v-.37l-.42-.69h.16l.34,.56,.34-.56h.15l-.42,.69Z"/>
            <path d="M129.6,140.76v.13l-.68,.27v-.13l.54-.21-.54-.21v-.13l.68,.27Z"/>
            <path d="M124.11,144.26l-.54,.21,.54,.21v.13l-.68-.27v-.13l.68-.27v.13Z"/>
            <path d="M125.28,143.93v1.06h-.15v-.47h-.61v.47h-.15v-1.06h.15v.46h.61v-.46h.15Z"/>
            <path d="M125.84,143.93v1.06h-.15v-.93h-.24v-.13h.39Z"/>
            <path d="M126.78,144.4v.13l-.68,.27v-.13l.54-.21-.54-.21v-.13l.68,.27Z"/>
            <path d="M127.46,143.93h.11v.96h.59v.1h-.71v-1.06Z"/>
            <path d="M128.24,144.6c0-.24,.17-.4,.41-.4s.41,.17,.41,.4-.17,.41-.41,.41-.41-.17-.41-.41Zm.7,0c0-.19-.13-.31-.3-.31s-.3,.12-.3,.31,.13,.31,.3,.31,.3-.12,.3-.31Z"/>
            <path d="M129.67,144.19v.1s-.02,0-.03,0c-.17,0-.27,.11-.27,.29v.41h-.11v-.8h.1v.16c.05-.11,.15-.16,.3-.16Z"/>
            <path d="M130.55,144.63h-.67c.01,.17,.14,.28,.31,.28,.1,0,.18-.03,.24-.1l.06,.07c-.07,.08-.18,.13-.31,.13-.25,0-.42-.17-.42-.41s.17-.4,.39-.4,.39,.17,.39,.4c0,0,0,.02,0,.03Zm-.67-.08h.57c-.01-.16-.13-.27-.28-.27s-.27,.11-.28,.27Z"/>
            <path d="M132.09,144.53v.46h-.11v-.45c0-.17-.08-.25-.23-.25-.16,0-.27,.11-.27,.29v.42h-.11v-.45c0-.17-.08-.25-.23-.25-.16,0-.27,.11-.27,.29v.42h-.11v-.8h.1v.15c.06-.1,.16-.15,.29-.15s.24,.06,.28,.17c.06-.1,.17-.17,.32-.17,.19,0,.32,.11,.32,.34Z"/>
            <path d="M132.75,143.95s.03-.08,.08-.08,.08,.03,.08,.07c0,.04-.03,.08-.08,.08s-.08-.03-.08-.08Zm.02,.25h.11v.8h-.11v-.8Z"/>
            <path d="M133.99,144.6c0,.24-.17,.41-.4,.41-.13,0-.24-.05-.3-.16v.44h-.11v-1.09h.1v.16c.07-.11,.18-.16,.31-.16,.23,0,.4,.16,.4,.4Zm-.11,0c0-.18-.13-.31-.3-.31s-.3,.13-.3,.31,.13,.31,.3,.31,.3-.12,.3-.31Z"/>
            <path d="M134.1,144.9l.05-.08c.06,.05,.17,.09,.28,.09,.15,0,.21-.05,.21-.13,0-.21-.52-.04-.52-.36,0-.13,.11-.23,.32-.23,.1,0,.22,.03,.28,.07l-.05,.09c-.07-.05-.15-.07-.24-.07-.14,0-.21,.06-.21,.13,0,.22,.52,.05,.52,.36,0,.14-.12,.23-.33,.23-.13,0-.26-.04-.32-.1Z"/>
            <path d="M135.67,144.2v.8h-.1v-.15c-.06,.1-.16,.15-.29,.15-.2,0-.34-.11-.34-.34v-.46h.11v.45c0,.17,.09,.26,.24,.26,.17,0,.27-.11,.27-.29v-.42h.11Z"/>
            <path d="M137.29,144.53v.46h-.11v-.45c0-.17-.08-.25-.23-.25-.16,0-.27,.11-.27,.29v.42h-.11v-.45c0-.17-.08-.25-.23-.25-.16,0-.27,.11-.27,.29v.42h-.11v-.8h.1v.15c.06-.1,.16-.15,.29-.15s.23,.06,.28,.17c.06-.1,.17-.17,.32-.17,.19,0,.32,.11,.32,.34Z"/>
            <path d="M138.71,143.87v1.13h-.1v-.16c-.07,.11-.18,.17-.31,.17-.23,0-.4-.17-.4-.41s.17-.4,.4-.4c.13,0,.24,.05,.3,.16v-.48h.11Zm-.11,.73c0-.19-.13-.31-.3-.31s-.3,.12-.3,.31,.13,.31,.3,.31,.3-.12,.3-.31Z"/>
            <path d="M138.92,144.6c0-.24,.17-.4,.41-.4s.4,.17,.4,.4-.17,.41-.4,.41-.41-.17-.41-.41Zm.7,0c0-.19-.13-.31-.3-.31s-.3,.12-.3,.31,.13,.31,.3,.31,.3-.12,.3-.31Z"/>
            <path d="M139.95,143.87h.11v1.13h-.11v-1.13Z"/>
            <path d="M140.28,144.6c0-.24,.17-.4,.41-.4s.41,.17,.41,.4-.17,.41-.41,.41-.41-.17-.41-.41Zm.7,0c0-.19-.13-.31-.3-.31s-.3,.12-.3,.31,.13,.31,.3,.31,.3-.12,.3-.31Z"/>
            <path d="M141.71,144.19v.1s-.02,0-.03,0c-.17,0-.27,.11-.27,.29v.41h-.11v-.8h.1v.16c.05-.11,.15-.16,.3-.16Z"/>
            <path d="M142.21,144.9l.05-.08c.06,.05,.17,.09,.28,.09,.15,0,.21-.05,.21-.13,0-.21-.52-.04-.52-.36,0-.13,.11-.23,.32-.23,.1,0,.22,.03,.28,.07l-.05,.09c-.07-.05-.15-.07-.24-.07-.14,0-.21,.06-.21,.13,0,.22,.52,.05,.52,.36,0,.14-.12,.23-.33,.23-.13,0-.26-.04-.32-.1Z"/>
            <path d="M143.03,143.95s.03-.08,.08-.08,.08,.03,.08,.07c0,.04-.03,.08-.08,.08s-.08-.03-.08-.08Zm.02,.25h.11v.8h-.11v-.8Z"/>
            <path d="M143.89,144.95s-.11,.06-.17,.06c-.15,0-.23-.08-.23-.23v-.48h-.14v-.09h.14v-.17h.11v.17h.24v.09h-.24v.48c0,.09,.05,.15,.14,.15,.04,0,.09-.01,.12-.04l.04,.08Z"/>
            <path d="M145.08,144.5v.49h-.1v-.12c-.05,.08-.14,.13-.27,.13-.18,0-.29-.09-.29-.23,0-.12,.08-.23,.31-.23h.25v-.05c0-.14-.08-.21-.23-.21-.1,0-.2,.04-.27,.09l-.05-.08c.08-.07,.2-.11,.32-.11,.21,0,.32,.1,.32,.31Zm-.11,.25v-.13h-.25c-.15,0-.2,.06-.2,.14,0,.09,.07,.15,.2,.15s.21-.06,.25-.16Z"/>
            <path d="M146.69,144.53v.46h-.11v-.45c0-.17-.08-.25-.23-.25-.16,0-.27,.11-.27,.29v.42h-.11v-.45c0-.17-.08-.25-.23-.25-.16,0-.27,.11-.27,.29v.42h-.11v-.8h.1v.15c.06-.1,.16-.15,.29-.15s.24,.06,.28,.17c.06-.1,.17-.17,.32-.17,.19,0,.32,.11,.32,.34Z"/>
            <path d="M147.68,144.63h-.67c.01,.17,.14,.28,.31,.28,.1,0,.18-.03,.24-.1l.06,.07c-.07,.08-.18,.13-.31,.13-.25,0-.42-.17-.42-.41s.17-.4,.39-.4,.39,.17,.39,.4c0,0,0,.02,0,.03Zm-.67-.08h.57c-.01-.16-.13-.27-.28-.27s-.27,.11-.28,.27Z"/>
            <path d="M148.32,144.95s-.11,.06-.17,.06c-.15,0-.23-.08-.23-.23v-.48h-.14v-.09h.14v-.17h.11v.17h.24v.09h-.24v.48c0,.09,.05,.15,.14,.15,.04,0,.09-.01,.12-.04l.04,.08Z"/>
            <path d="M148.62,144.92s0,.05-.02,.09l-.06,.21h-.07l.05-.22s-.05-.04-.05-.08c0-.05,.04-.08,.08-.08s.08,.04,.08,.08Z"/>
            <path d="M149.16,144.6c0-.24,.17-.4,.41-.4,.13,0,.25,.05,.31,.16l-.08,.05c-.05-.08-.14-.12-.23-.12-.17,0-.3,.12-.3,.31s.13,.31,.3,.31c.09,0,.18-.04,.23-.12l.08,.05c-.06,.1-.18,.16-.31,.16-.24,0-.41-.17-.41-.41Z"/>
            <path d="M150,144.6c0-.24,.17-.4,.41-.4s.4,.17,.4,.4-.17,.41-.4,.41-.41-.17-.41-.41Zm.7,0c0-.19-.13-.31-.3-.31s-.3,.12-.3,.31,.13,.31,.3,.31,.3-.12,.3-.31Z"/>
            <path d="M151.77,144.53v.46h-.11v-.45c0-.17-.09-.25-.24-.25-.17,0-.28,.11-.28,.29v.42h-.11v-.8h.1v.15c.06-.1,.17-.15,.3-.15,.19,0,.33,.11,.33,.34Z"/>
            <path d="M151.95,144.9l.05-.08c.06,.05,.17,.09,.28,.09,.15,0,.21-.05,.21-.13,0-.21-.52-.04-.52-.36,0-.13,.11-.23,.32-.23,.1,0,.22,.03,.28,.07l-.05,.09c-.07-.05-.15-.07-.24-.07-.14,0-.21,.06-.21,.13,0,.22,.52,.05,.52,.36,0,.14-.12,.23-.33,.23-.13,0-.26-.04-.32-.1Z"/>
            <path d="M153.5,144.63h-.67c.01,.17,.14,.28,.31,.28,.1,0,.18-.03,.24-.1l.06,.07c-.07,.08-.18,.13-.31,.13-.25,0-.42-.17-.42-.41s.17-.4,.39-.4,.39,.17,.39,.4c0,0,0,.02,0,.03Zm-.67-.08h.57c-.01-.16-.13-.27-.28-.27s-.27,.11-.28,.27Z"/>
            <path d="M153.64,144.6c0-.24,.17-.4,.41-.4,.13,0,.25,.05,.31,.16l-.08,.05c-.05-.08-.14-.12-.23-.12-.17,0-.3,.12-.3,.31s.13,.31,.3,.31c.09,0,.18-.04,.23-.12l.08,.05c-.06,.1-.18,.16-.31,.16-.24,0-.41-.17-.41-.41Z"/>
            <path d="M155,144.95s-.11,.06-.17,.06c-.15,0-.23-.08-.23-.23v-.48h-.14v-.09h.14v-.17h.11v.17h.24v.09h-.24v.48c0,.09,.05,.15,.14,.15,.04,0,.09-.01,.12-.04l.04,.08Z"/>
            <path d="M155.86,144.63h-.67c.01,.17,.14,.28,.31,.28,.1,0,.18-.03,.24-.1l.06,.07c-.07,.08-.18,.13-.31,.13-.25,0-.42-.17-.42-.41s.17-.4,.39-.4,.39,.17,.39,.4c0,0,0,.02,0,.03Zm-.67-.08h.57c-.01-.16-.13-.27-.28-.27s-.27,.11-.28,.27Z"/>
            <path d="M156.5,144.95s-.11,.06-.17,.06c-.15,0-.23-.08-.23-.23v-.48h-.14v-.09h.14v-.17h.11v.17h.24v.09h-.24v.48c0,.09,.05,.15,.14,.15,.04,0,.09-.01,.12-.04l.04,.08Z"/>
            <path d="M157.41,144.2v.8h-.1v-.15c-.06,.1-.16,.15-.29,.15-.2,0-.34-.11-.34-.34v-.46h.11v.45c0,.17,.09,.26,.24,.26,.17,0,.27-.11,.27-.29v-.42h.11Z"/>
            <path d="M158.41,144.63h-.67c.01,.17,.14,.28,.31,.28,.1,0,.18-.03,.24-.1l.06,.07c-.07,.08-.18,.13-.31,.13-.25,0-.42-.17-.42-.41s.17-.4,.39-.4,.39,.17,.39,.4c0,0,0,.02,0,.03Zm-.67-.08h.57c-.01-.16-.13-.27-.28-.27s-.27,.11-.28,.27Z"/>
            <path d="M159.03,144.19v.1s-.02,0-.03,0c-.17,0-.27,.11-.27,.29v.41h-.11v-.8h.1v.16c.05-.11,.15-.16,.3-.16Z"/>
            <path d="M124.08,146.32v.49h-.1v-.12c-.05,.08-.14,.13-.27,.13-.18,0-.29-.09-.29-.23,0-.12,.08-.23,.31-.23h.25v-.05c0-.14-.08-.21-.23-.21-.1,0-.2,.04-.27,.09l-.05-.08c.08-.07,.2-.11,.32-.11,.21,0,.32,.1,.32,.31Zm-.11,.25v-.13h-.25c-.15,0-.2,.06-.2,.14,0,.09,.07,.15,.2,.15s.21-.06,.25-.16Z"/>
            <path d="M125.1,145.69v1.13h-.1v-.16c-.07,.11-.18,.17-.31,.17-.23,0-.4-.17-.4-.41s.17-.4,.4-.4c.13,0,.24,.05,.3,.16v-.48h.11Zm-.11,.73c0-.19-.13-.31-.3-.31s-.3,.12-.3,.31,.13,.31,.3,.31,.3-.12,.3-.31Z"/>
            <path d="M125.38,145.76s.04-.08,.08-.08,.08,.03,.08,.07c0,.04-.03,.08-.08,.08s-.08-.03-.08-.08Zm.02,.25h.11v.8h-.11v-.8Z"/>
            <path d="M126.62,146.41c0,.24-.17,.41-.4,.41-.13,0-.24-.05-.3-.16v.44h-.11v-1.09h.1v.16c.07-.11,.18-.16,.31-.16,.23,0,.4,.16,.4,.4Zm-.11,0c0-.18-.13-.31-.3-.31s-.3,.13-.3,.31,.13,.31,.3,.31,.3-.12,.3-.31Z"/>
            <path d="M126.81,145.76s.04-.08,.08-.08,.08,.03,.08,.07c0,.04-.03,.08-.08,.08s-.08-.03-.08-.08Zm.02,.25h.11v.8h-.11v-.8Z"/>
            <path d="M127.13,146.72l.05-.08c.06,.05,.17,.09,.28,.09,.15,0,.21-.05,.21-.13,0-.21-.52-.04-.52-.36,0-.13,.11-.23,.32-.23,.1,0,.22,.03,.28,.07l-.05,.09c-.07-.05-.15-.07-.23-.07-.14,0-.21,.06-.21,.13,0,.22,.52,.05,.52,.36,0,.14-.12,.23-.33,.23-.13,0-.26-.04-.32-.1Z"/>
            <path d="M127.91,146.41c0-.24,.17-.4,.41-.4,.14,0,.25,.05,.31,.16l-.08,.05c-.05-.08-.14-.12-.23-.12-.17,0-.3,.12-.3,.31s.13,.31,.3,.31c.09,0,.18-.04,.23-.12l.08,.05c-.06,.1-.18,.16-.31,.16-.24,0-.41-.17-.41-.41Z"/>
            <path d="M128.81,145.76s.04-.08,.08-.08,.08,.03,.08,.07c0,.04-.03,.08-.08,.08s-.08-.03-.08-.08Zm.02,.25h.11v.8h-.11v-.8Z"/>
            <path d="M129.98,146.35v.46h-.11v-.45c0-.17-.09-.25-.24-.25-.17,0-.28,.11-.28,.29v.42h-.11v-.8h.1v.15c.06-.1,.17-.15,.3-.15,.19,0,.33,.11,.33,.34Z"/>
            <path d="M131.01,146.02v.7c0,.27-.14,.4-.4,.4-.15,0-.29-.04-.37-.12l.05-.08c.08,.07,.19,.11,.31,.11,.2,0,.29-.09,.29-.29v-.1c-.07,.1-.18,.15-.31,.15-.23,0-.4-.16-.4-.39s.17-.39,.4-.39c.13,0,.25,.05,.32,.16v-.15h.1Zm-.1,.38c0-.17-.13-.29-.3-.29s-.3,.12-.3,.29,.13,.29,.3,.29,.3-.12,.3-.29Z"/>
            <path d="M132.41,146.45h-.67c.01,.17,.14,.28,.31,.28,.1,0,.18-.03,.24-.1l.06,.07c-.07,.08-.18,.13-.31,.13-.25,0-.42-.17-.42-.41s.17-.4,.39-.4,.39,.17,.39,.4c0,0,0,.02,0,.03Zm-.67-.08h.57c-.01-.16-.13-.27-.28-.27s-.27,.11-.28,.27Z"/>
            <path d="M132.63,145.69h.11v1.13h-.11v-1.13Z"/>
            <path d="M133.01,145.76s.03-.08,.08-.08,.08,.03,.08,.07c0,.04-.03,.08-.08,.08s-.08-.03-.08-.08Zm.02,.25h.11v.8h-.11v-.8Z"/>
            <path d="M133.86,146.77s-.11,.06-.17,.06c-.15,0-.23-.08-.23-.23v-.48h-.14v-.09h.14v-.17h.11v.17h.24v.09h-.24v.48c0,.09,.05,.15,.14,.15,.04,0,.09-.01,.12-.04l.04,.08Z"/>
            <path d="M134.16,146.74s0,.05-.02,.09l-.06,.21h-.07l.05-.22s-.05-.04-.05-.08c0-.05,.03-.08,.08-.08s.08,.04,.08,.08Z"/>
            <path d="M134.68,146.72l.05-.08c.06,.05,.17,.09,.28,.09,.15,0,.21-.05,.21-.13,0-.21-.52-.04-.52-.36,0-.13,.11-.23,.32-.23,.1,0,.22,.03,.28,.07l-.05,.09c-.07-.05-.15-.07-.24-.07-.14,0-.21,.06-.21,.13,0,.22,.52,.05,.52,.36,0,.14-.12,.23-.33,.23-.13,0-.26-.04-.32-.1Z"/>
            <path d="M136.23,146.45h-.67c.01,.17,.14,.28,.31,.28,.1,0,.18-.03,.24-.1l.06,.07c-.07,.08-.18,.13-.31,.13-.25,0-.42-.17-.42-.41s.17-.4,.39-.4,.39,.17,.39,.4c0,0,0,.02,0,.03Zm-.67-.08h.57c-.01-.16-.13-.27-.28-.27s-.27,.11-.28,.27Z"/>
            <path d="M137.17,145.69v1.13h-.1v-.16c-.07,.11-.18,.17-.31,.17-.23,0-.4-.17-.4-.41s.17-.4,.4-.4c.13,0,.24,.05,.3,.16v-.48h.11Zm-.11,.73c0-.19-.13-.31-.3-.31s-.3,.12-.3,.31,.13,.31,.3,.31,.3-.12,.3-.31Z"/>
            <path d="M138.6,145.69v1.13h-.1v-.16c-.07,.11-.18,.17-.31,.17-.23,0-.4-.17-.4-.41s.17-.4,.4-.4c.13,0,.24,.05,.3,.16v-.48h.11Zm-.11,.73c0-.19-.13-.31-.3-.31s-.3,.12-.3,.31,.13,.31,.3,.31,.3-.12,.3-.31Z"/>
            <path d="M138.87,145.76s.04-.08,.08-.08,.08,.03,.08,.07c0,.04-.03,.08-.08,.08s-.08-.03-.08-.08Zm.02,.25h.11v.8h-.11v-.8Z"/>
            <path d="M139.91,146.32v.49h-.1v-.12c-.05,.08-.14,.13-.27,.13-.18,0-.29-.09-.29-.23,0-.12,.08-.23,.31-.23h.25v-.05c0-.14-.08-.21-.23-.21-.1,0-.2,.04-.27,.09l-.05-.08c.08-.07,.2-.11,.32-.11,.21,0,.32,.1,.32,.31Zm-.11,.25v-.13h-.25c-.15,0-.2,.06-.2,.14,0,.09,.07,.15,.2,.15s.21-.06,.25-.16Z"/>
            <path d="M141.51,146.35v.46h-.11v-.45c0-.17-.08-.25-.23-.25-.16,0-.27,.11-.27,.29v.42h-.11v-.45c0-.17-.08-.25-.23-.25-.16,0-.27,.11-.27,.29v.42h-.11v-.8h.1v.15c.06-.1,.16-.15,.29-.15s.23,.06,.28,.17c.06-.1,.17-.17,.32-.17,.19,0,.32,.11,.32,.34Z"/>
            <path d="M142.44,146.08l-.54,.21,.54,.21v.13l-.68-.27v-.13l.68-.27v.13Z"/>
            <path d="M143,145.54h.13l-.5,1.43h-.13l.5-1.43Z"/>
            <path d="M144.14,145.75v1.06h-.15v-.47h-.61v.47h-.15v-1.06h.15v.46h.61v-.46h.15Z"/>
            <path d="M144.7,145.75v1.06h-.15v-.93h-.24v-.13h.39Z"/>
            <path d="M145.64,146.22v.13l-.68,.27v-.13l.54-.21-.54-.21v-.13l.68,.27Z"/>
            <path d="M124.11,149.71l-.54,.21,.54,.21v.13l-.68-.27v-.13l.68-.27v.13Z"/>
            <path d="M125.23,149.76c0,.23-.17,.37-.44,.37h-.26v.32h-.15v-1.06h.41c.28,0,.44,.14,.44,.37Zm-.15,0c0-.15-.1-.24-.3-.24h-.26v.48h.26c.19,0,.3-.09,.3-.24Z"/>
            <path d="M126.08,149.85v.13l-.68,.27v-.13l.54-.21-.54-.21v-.13l.68,.27Z"/>
            <path d="M127.37,149.71l-.54,.21,.54,.21v.13l-.68-.27v-.13l.68-.27v.13Z"/>
            <path d="M127.63,149.39h.15v1.06h-.15v-1.06Z"/>
            <path d="M129.09,150.45v-.77s-.39,.64-.39,.64h-.07l-.38-.64v.77h-.15v-1.06h.12l.44,.75,.44-.75h.12v1.06s-.14,0-.14,0Z"/>
            <path d="M130.29,149.91h.15v.41c-.11,.09-.25,.14-.4,.14-.33,0-.57-.23-.57-.54s.24-.54,.57-.54c.17,0,.31,.06,.41,.16l-.09,.09c-.09-.08-.19-.12-.31-.12-.25,0-.42,.17-.42,.41s.18,.41,.42,.41c.09,0,.17-.02,.25-.07v-.35Z"/>
            <path d="M131.03,150.33l.06-.12c.08,.07,.21,.12,.35,.12,.18,0,.26-.07,.26-.16,0-.26-.64-.1-.64-.49,0-.16,.13-.3,.41-.3,.12,0,.25,.03,.34,.09l-.05,.12c-.09-.06-.2-.09-.29-.09-.18,0-.26,.08-.26,.17,0,.26,.64,.1,.64,.49,0,.16-.13,.3-.41,.3-.16,0-.32-.05-.41-.13Z"/>
            <path d="M132.78,150.45l-.23-.33s-.04,0-.07,0h-.26v.32h-.15v-1.06h.41c.28,0,.44,.14,.44,.37,0,.16-.08,.28-.23,.34l.25,.36h-.17Zm0-.69c0-.15-.1-.24-.3-.24h-.26v.48h.26c.19,0,.3-.09,.3-.24Z"/>
            <path d="M133.08,149.92c0-.31,.24-.54,.56-.54,.16,0,.31,.06,.4,.17l-.1,.1c-.08-.09-.18-.13-.3-.13-.24,0-.42,.17-.42,.41s.18,.41,.42,.41c.12,0,.22-.04,.3-.13l.1,.1c-.1,.11-.24,.17-.4,.17-.32,0-.56-.23-.56-.54Z"/>
            <path d="M134.21,149.68h.68v.12h-.68v-.12Zm0,.36h.68v.12h-.68v-.12Z"/>
            <path d="M135.49,149.39h.13v.41h-.12v-.41Zm.27,0h.13v.41h-.12v-.41Z"/>
            <path d="M136.15,149.39h.15v.93h.57v.13h-.73v-1.06Z"/>
            <path d="M136.94,150.05c0-.24,.18-.41,.42-.41s.42,.17,.42,.41-.18,.41-.42,.41-.42-.17-.42-.41Zm.69,0c0-.17-.12-.28-.27-.28s-.27,.11-.27,.28,.12,.28,.27,.28,.27-.11,.27-.28Z"/>
            <path d="M138.41,149.64v.14s-.02,0-.03,0c-.16,0-.25,.1-.25,.27v.4h-.15v-.8h.14v.13c.05-.09,.15-.14,.29-.14Z"/>
            <path d="M139.3,150.1h-.65c.02,.14,.13,.24,.29,.24,.09,0,.17-.03,.23-.1l.08,.09c-.07,.08-.18,.13-.32,.13-.26,0-.43-.17-.43-.41s.17-.41,.4-.41,.4,.17,.4,.41c0,.01,0,.03,0,.04Zm-.65-.1h.52c-.02-.13-.12-.23-.26-.23s-.24,.09-.26,.23Z"/>
            <path d="M140.84,149.99v.46h-.15v-.45c0-.16-.08-.24-.21-.24-.15,0-.24,.09-.24,.27v.41h-.15v-.45c0-.16-.08-.24-.21-.24-.15,0-.24,.09-.24,.27v.41h-.15v-.8h.14v.12c.06-.08,.16-.13,.28-.13s.23,.05,.28,.15c.06-.09,.17-.15,.31-.15,.2,0,.33,.11,.33,.35Z"/>
            <path d="M141.49,149.4c0-.05,.04-.1,.1-.1s.1,.04,.1,.09c0,.05-.04,.1-.1,.1s-.1-.04-.1-.09Zm.03,.25h.15v.8h-.15v-.8Z"/>
            <path d="M142.77,150.05c0,.25-.17,.41-.41,.41-.11,0-.21-.04-.28-.13v.42h-.15v-1.1h.14v.13c.07-.09,.17-.13,.29-.13,.23,0,.41,.16,.41,.41Zm-.15,0c0-.17-.12-.28-.27-.28s-.27,.11-.27,.28,.12,.28,.27,.28,.27-.11,.27-.28Z"/>
            <path d="M142.87,150.37l.06-.12c.07,.05,.18,.08,.28,.08,.14,0,.19-.04,.19-.11,0-.18-.51-.02-.51-.34,0-.14,.13-.24,.34-.24,.1,0,.22,.03,.29,.07l-.06,.12c-.07-.05-.15-.06-.23-.06-.13,0-.19,.05-.19,.11,0,.19,.51,.03,.51,.35,0,.15-.13,.24-.35,.24-.13,0-.27-.04-.33-.09Z"/>
            <path d="M144.48,149.65v.8h-.14v-.12c-.06,.08-.16,.13-.27,.13-.21,0-.35-.11-.35-.35v-.46h.15v.45c0,.16,.08,.24,.22,.24,.15,0,.25-.09,.25-.27v-.42h.15Z"/>
            <path d="M146.09,149.99v.46h-.15v-.45c0-.16-.08-.24-.21-.24-.15,0-.24,.09-.24,.27v.41h-.15v-.45c0-.16-.08-.24-.21-.24-.15,0-.24,.09-.24,.27v.41h-.15v-.8h.14v.12c.06-.08,.16-.13,.28-.13s.23,.05,.28,.15c.06-.09,.17-.15,.31-.15,.2,0,.33,.11,.33,.35Z"/>
            <path d="M146.32,149.39h.13v.41h-.12v-.41Zm.27,0h.13v.41h-.12v-.41Z"/>
            <path d="M147.59,149.85v.13l-.68,.27v-.13l.54-.21-.54-.21v-.13l.68,.27Z"/>
            <path d="M148.48,149.71l-.54,.21,.54,.21v.13l-.68-.27v-.13l.68-.27v.13Z"/>
            <path d="M149.03,149.17h.13l-.5,1.43h-.13l.5-1.43Z"/>
            <path d="M150.13,149.76c0,.23-.17,.37-.44,.37h-.26v.32h-.15v-1.06h.41c.28,0,.44,.14,.44,.37Zm-.15,0c0-.15-.1-.24-.3-.24h-.26v.48h.26c.19,0,.3-.09,.3-.24Z"/>
            <path d="M150.98,149.85v.13l-.68,.27v-.13l.54-.21-.54-.21v-.13l.68,.27Z"/>
            <path d="M124.11,153.35l-.54,.21,.54,.21v.13l-.68-.27v-.13l.68-.27v.13Z"/>
            <path d="M124.67,152.81h.13l-.5,1.43h-.13l.5-1.43Z"/>
            <path d="M125.82,153.8c0,.18-.14,.29-.41,.29h-.51v-1.06h.48c.24,0,.38,.1,.38,.27,0,.12-.06,.2-.14,.24,.12,.03,.2,.12,.2,.26Zm-.76-.65v.34h.31c.15,0,.24-.06,.24-.17s-.09-.17-.24-.17h-.31Zm.61,.64c0-.12-.09-.18-.26-.18h-.35v.35h.35c.17,0,.26-.05,.26-.18Z"/>
            <path d="M125.96,153.56c0-.31,.24-.54,.57-.54s.56,.23,.56,.54-.24,.54-.56,.54-.57-.23-.57-.54Zm.98,0c0-.23-.18-.41-.41-.41s-.41,.17-.41,.41,.18,.41,.41,.41,.41-.17,.41-.41Z"/>
            <path d="M127.32,153.02h.45c.34,0,.57,.22,.57,.53s-.23,.53-.57,.53h-.45v-1.06Zm.44,.93c.26,0,.43-.16,.43-.4s-.17-.4-.43-.4h-.29v.8h.29Z"/>
            <path d="M128.93,153.72v.37h-.15v-.37l-.42-.69h.16l.34,.56,.34-.56h.15l-.42,.69Z"/>
            <path d="M130.13,153.49v.13l-.68,.27v-.13l.54-.21-.54-.21v-.13l.68,.27Z"/>
          </g>
          <path class="cls-35" d="M164.9,124.94s-10.49,.09-23.43,.09-23.44-.04-23.44-.09,10.49-.09,23.44-.09,23.43,.04,23.43,.09Z"/>
          <g>
            <path class="cls-35" d="M119.43,123.26c0,.17-.13,.3-.3,.3s-.3-.14-.3-.3,.13-.3,.3-.3,.3,.13,.3,.3Z"/>
            <circle class="cls-35" cx="120.29" cy="123.26" r=".3"/>
            <path class="cls-35" d="M121.75,123.26c0,.17-.13,.3-.3,.3s-.3-.14-.3-.3,.13-.3,.3-.3,.3,.13,.3,.3Z"/>
          </g>
          <path class="cls-17" d="M121.01,160.39s-.09-7.96-.09-17.77,.04-17.77,.09-17.77,.09,7.95,.09,17.77-.04,17.77-.09,17.77Z"/>
        </g>
        <g>
          <g>
            <rect class="cls-32" x="6.97" y="53.46" width="19.37" height="13.81"/>
            <path class="cls-3" d="M26.5,55.51s-4.37,.09-9.77,.09-9.77-.04-9.77-.09,4.37-.09,9.77-.09,9.77,.04,9.77,.09Z"/>
            <g>
              <path class="cls-3" d="M8.55,54.5c0,.13-.12,.23-.26,.23s-.26-.1-.26-.23,.12-.23,.26-.23,.26,.1,.26,.23Z"/>
              <path class="cls-3" d="M9.5,54.5c0,.13-.12,.23-.26,.23s-.26-.1-.26-.23,.12-.23,.26-.23,.26,.1,.26,.23Z"/>
              <ellipse class="cls-3" cx="10.19" cy="54.5" rx=".26" ry=".23"/>
            </g>
          </g>
          <g>
            <path class="cls-3" d="M14.14,61.02c0,.83-.6,1.33-1.59,1.33h-1.05v1.23h-.41v-3.89h1.46c.99,0,1.59,.5,1.59,1.34Zm-.41,0c0-.62-.41-.98-1.19-.98h-1.03v1.95h1.03c.78,0,1.19-.36,1.19-.97Z"/>
            <path class="cls-3" d="M18.28,59.68v3.89h-.41v-1.8h-2.44v1.8h-.41v-3.89h.41v1.74h2.44v-1.74h.41Z"/>
            <path class="cls-3" d="M22.59,61.02c0,.83-.6,1.33-1.59,1.33h-1.05v1.23h-.41v-3.89h1.46c.99,0,1.59,.5,1.59,1.34Zm-.41,0c0-.62-.41-.98-1.19-.98h-1.03v1.95h1.03c.78,0,1.19-.36,1.19-.97Z"/>
          </g>
        </g>
        <g>
          <g>
            <path class="cls-32" d="M63.3,31.26c0-1.41,1.07-2.45,2.51-2.45,.68,0,1.3,.22,1.72,.67l-.22,.23c-.41-.41-.92-.57-1.49-.57-1.24,0-2.17,.91-2.17,2.13s.93,2.13,2.17,2.13c.57,0,1.07-.17,1.49-.58l.22,.23c-.42,.45-1.04,.68-1.72,.68-1.44,0-2.51-1.04-2.51-2.45Z"/>
            <path class="cls-32" d="M68.19,33.05l.16-.26c.33,.35,.95,.61,1.6,.61,.97,0,1.4-.42,1.4-.95,0-1.45-3.02-.58-3.02-2.36,0-.68,.53-1.29,1.71-1.29,.53,0,1.08,.17,1.46,.44l-.13,.28c-.4-.28-.89-.41-1.33-.41-.94,0-1.36,.44-1.36,.97,0,1.45,3.02,.59,3.02,2.35,0,.68-.55,1.28-1.74,1.28-.72,0-1.41-.27-1.76-.66Z"/>
            <path class="cls-32" d="M72.4,33.05l.16-.26c.33,.35,.95,.61,1.6,.61,.97,0,1.4-.42,1.4-.95,0-1.45-3.02-.58-3.02-2.36,0-.68,.53-1.29,1.71-1.29,.53,0,1.08,.17,1.46,.44l-.13,.28c-.4-.28-.89-.41-1.33-.41-.94,0-1.36,.44-1.36,.97,0,1.45,3.02,.59,3.02,2.35,0,.68-.55,1.28-1.74,1.28-.72,0-1.41-.27-1.76-.66Z"/>
          </g>
          <g>
            <path class="cls-32" d="M80.02,37.54s0-.09,0-.26c0-.17,0-.42,0-.74,0-.65,0-1.59-.02-2.8,0-2.42-.02-5.89-.04-10.12l.07,.07c-5.9,0-13.4,.01-21.54,.02h0l.09-.09c0,4.94,0,9.65,0,13.91l-.08-.08c6.32,.02,11.7,.03,15.5,.04,1.9,0,3.41,.02,4.44,.02,.51,0,.91,0,1.19,0,.13,0,.23,0,.31,0,.07,0,.11,0,.11,0,0,0-.03,0-.1,0-.07,0-.17,0-.3,0-.27,0-.66,0-1.17,0-1.03,0-2.53,.01-4.43,.02-3.81,0-9.21,.02-15.55,.04h-.08s0-.08,0-.08c0-4.27,0-8.97,0-13.91v-.09s.09,0,.09,0h0c8.14,0,15.64,.01,21.54,.02h.07s0,.07,0,.07c-.01,4.25-.03,7.74-.04,10.16,0,1.2-.01,2.14-.02,2.78,0,.31,0,.55,0,.72,0,.16,0,.24,0,.24Z"/>
            <path class="cls-32" d="M80.02,25.69s-4.83,.09-10.78,.09-10.78-.04-10.78-.09,4.82-.09,10.78-.09,10.78,.04,10.78,.09Z"/>
            <g>
              <path class="cls-32" d="M60.07,24.68c0,.13-.12,.23-.26,.23s-.26-.1-.26-.23,.12-.23,.26-.23,.26,.1,.26,.23Z"/>
              <path class="cls-32" d="M61.03,24.68c0,.13-.12,.23-.26,.23s-.26-.1-.26-.23,.12-.23,.26-.23,.26,.1,.26,.23Z"/>
              <path class="cls-32" d="M61.98,24.68c0,.13-.12,.23-.26,.23s-.26-.1-.26-.23,.12-.23,.26-.23,.26,.1,.26,.23Z"/>
            </g>
          </g>
        </g>
        <g>
          <g>
            <g>
              <path class="cls-25" d="M44.19,104.46l8.54,28.83c.38,1.28,1.56,2.16,2.89,2.16l34.66,.1c1.84,0,3.31-1.54,3.21-3.37h0c-.09-1.7-1.5-3.03-3.2-3.03h-13.25l-10.61-29.57h-18.58c-2.55,0-4.38,2.45-3.65,4.89Z"/>
              <path class="cls-35" d="M73.51,131.5c0,.07-3.53,.12-7.89,.12s-7.89-.05-7.89-.12,3.53-.12,7.89-.12,7.89,.05,7.89,.12Z"/>
              <path class="cls-35" d="M46.74,100.48c.06-.02,2.42,6.88,5.27,15.42,2.85,8.54,5.1,15.47,5.04,15.5-.06,.02-2.42-6.88-5.27-15.42-2.85-8.54-5.1-15.47-5.04-15.49Z"/>
            </g>
            <polygon class="cls-25" points="72.07 161.07 69.96 161.02 69.96 135.45 72.07 135.45 72.07 161.07"/>
            <polygon class="cls-25" points="61.18 160.95 80.84 160.95 71.94 157.85 69.83 157.85 61.18 160.95"/>
          </g>
          <g>
            <g>
              <path class="cls-19" d="M56.21,92.95l3.25,16.25-.58,12.18,21.87-3.64-.86-10.67-.02-8.83,5.36,10.39,4.17-8.06-7.64-13.85h0c-1.4-1.45-3.04-2.53-5-3.24-.95-.34-1.96-.55-3.13-.6h0c-2.52,.78-5.05,.78-7.57,0-.31,.04-.73,.08-1.27,.14-.03,0-.07,0-.1,.01-4.64,.57-8.18,4.42-8.44,9.09l-.04,.8Z"/>
              <path class="cls-19" d="M64.79,83.05s-8.98,.07-10.1,9.56l-.15,6.96,7.74-.07,2.51-16.45Z"/>
            </g>
            <path class="cls-35" d="M79.76,108.65c-.07,0-.04-3.85,.07-8.59,.1-4.74,.24-8.59,.31-8.58,.07,0,.04,3.85-.07,8.59-.1,4.74-.24,8.58-.31,8.58Z"/>
            <path class="cls-13" d="M76.69,102.41s4.25,.3,5.02,1.43c.77,1.12,1.93,4.33,1.49,4.35-.44,.02-.76-.24-.76-.24l-1.16-2.06s.19,1.99-.51,2.03c-.7,.04-4.15,.73-4.15,.73l.08-6.24Z"/>
            <path class="cls-19" d="M54.55,97.71l-.02,10.96c.14,2.56,2.54,4.39,5.04,3.84l17.14-3.53-.04-7.03-14.78,2.84-.2-7.44-7.14,.36Z"/>
            <path class="cls-35" d="M64.32,111.63s.08-.03,.23-.06c.17-.04,.39-.09,.66-.15,.6-.13,1.45-.31,2.52-.53,2.19-.45,5.27-1.08,8.92-1.82l-.09,.11c0-2.21,0-4.64-.01-7.22l.14,.12c-.96,.19-1.98,.38-3.01,.58-4.33,.82-8.38,1.59-11.78,2.24l-.13,.02v-.13c.12-3.26,.21-5.98,.28-7.9,.04-.94,.07-1.68,.09-2.21,.01-.24,.02-.43,.03-.58,0-.13,.02-.2,.02-.2,0,0,0,.07,.01,.2,0,.15,0,.34,0,.58,0,.53-.02,1.27-.03,2.21-.04,1.92-.11,4.64-.18,7.9l-.12-.1c3.4-.66,7.44-1.44,11.77-2.28,1.03-.2,2.05-.39,3.01-.58l.14-.03v.15c0,2.57,0,5.01-.01,7.22v.09s-.09,.02-.09,.02c-3.66,.71-6.75,1.31-8.94,1.74-1.07,.2-1.92,.36-2.53,.47-.28,.05-.5,.09-.67,.12-.15,.02-.23,.03-.23,.03Z"/>
            <path class="cls-35" d="M74.15,83.05s.03,.05,.07,.16c.04,.11,.09,.27,.13,.48,.09,.43,.13,1.08-.08,1.84-.21,.76-.7,1.6-1.49,2.29-.77,.71-1.9,1.19-3.12,1.18-1.21,.01-2.36-.48-3.08-1.25-.73-.77-1.05-1.7-1.15-2.48-.08-.79,.05-1.43,.22-1.83,.08-.2,.16-.36,.22-.45,.06-.1,.09-.15,.1-.14,.02,.01-.1,.22-.23,.63-.13,.4-.24,1.03-.13,1.78,.11,.74,.44,1.63,1.14,2.35,.69,.71,1.77,1.18,2.92,1.16,1.15,0,2.23-.44,2.97-1.1,.76-.66,1.25-1.45,1.47-2.18,.23-.73,.21-1.36,.15-1.78-.06-.42-.13-.65-.11-.66Z"/>
            <path class="cls-8" d="M74.98,109.56s-.02-.42,0-1.08c.03-.67,.06-1.58,.06-2.6,0-1.01-.02-1.93-.03-2.6-.02-.67-.03-1.08,0-1.08,.03,0,.1,.41,.16,1.07,.06,.67,.11,1.59,.11,2.61,0,1.02-.07,1.94-.14,2.61-.07,.66-.14,1.07-.18,1.07Z"/>
            <path class="cls-8" d="M74.09,109.74s-.04-.41-.03-1.07c0-.76,.02-1.62,.03-2.58,0-.96,0-1.83,0-2.58,0-.66,0-1.07,.04-1.07,.03,0,.09,.41,.13,1.07,.05,.66,.08,1.58,.07,2.59,0,1.01-.05,1.93-.1,2.59-.05,.66-.11,1.07-.14,1.07Z"/>
          </g>
          <g>
            <path class="cls-32" d="M91.25,153.27l3.24,8.92,4.6,6.32c.33,.46,.21,1.1-.27,1.4h0c-.27,.17-.6,.2-.89,.08-1.85-.77-8.66-3.63-8.86-4.3-.23-.77-4.62-10.36-4.62-10.36l6.8-2.05Z"/>
            <g class="cls-9">
              <path class="cls-3" d="M98.82,169.9l-9.98-4.82,.15,.37c.13,.32,.36,.59,.67,.76,.82,.44,3.1,1.61,8.25,3.77,.3,.13,.64,.09,.91-.09h0Z"/>
            </g>
            <g class="cls-9">
              <path class="cls-3" d="M89.55,161.52c.28,.07,.48,.37,.43,.66-.06,.28-.37,.49-.65,.43s-.54-.42-.45-.7c.09-.28,.46-.5,.72-.37"/>
            </g>
            <path class="cls-35" d="M95.29,166.82c.06,0,.08-.54,.51-.99,.42-.47,.95-.53,.94-.59,0-.02-.14-.05-.36,0-.22,.05-.5,.19-.74,.45-.23,.25-.35,.55-.38,.77-.03,.22,0,.36,.03,.36Z"/>
            <path class="cls-35" d="M96.38,167.76c.06,.02,.23-.38,.64-.69,.4-.32,.83-.39,.82-.45,0-.06-.49-.08-.95,.28-.46,.35-.56,.84-.51,.85Z"/>
            <path class="cls-35" d="M93.53,165.76c.06,.03,.32-.59,.91-1.12,.58-.55,1.21-.76,1.19-.82,0-.05-.71,.08-1.33,.66-.63,.58-.82,1.27-.77,1.28Z"/>
            <path class="cls-35" d="M92.32,163.13s.45-.35,1.08-.62c.62-.28,1.19-.31,1.19-.38,0-.05-.6-.11-1.27,.19-.67,.29-1.04,.78-1,.81Z"/>
            <path class="cls-35" d="M91.3,160.54s.42-.45,1.11-.68c.68-.25,1.28-.1,1.29-.16,0-.02-.13-.1-.38-.14-.25-.04-.61-.03-.97,.1-.37,.13-.65,.34-.82,.53-.17,.19-.23,.33-.21,.34Z"/>
            <path class="cls-35" d="M92.2,159.38s-.01-.13-.12-.34c-.1-.21-.29-.5-.61-.77-.16-.13-.34-.3-.63-.32-.15-.01-.32,.08-.38,.24-.06,.15-.04,.31,.02,.45,.23,.56,.92,.91,1.58,.75,.66-.18,1.09-.76,1.16-1.34,0-.15-.02-.32-.14-.44-.13-.12-.33-.11-.45-.04-.25,.14-.35,.36-.46,.53-.21,.36-.3,.69-.34,.92-.04,.23-.03,.36-.02,.36,.04,.01,.05-.52,.48-1.2,.11-.16,.23-.36,.42-.45,.09-.04,.18-.04,.24,.02,.06,.06,.09,.18,.08,.29-.06,.48-.46,1.01-1.02,1.15-.56,.14-1.17-.17-1.35-.62-.04-.11-.06-.23-.02-.32,.03-.09,.11-.14,.21-.14,.2,0,.39,.14,.54,.26,.63,.5,.78,1.02,.82,1Z"/>
          </g>
          <g>
            <g>
              <path class="cls-32" d="M104.93,150.94l-.28,7.25s7.27,2.72,7.35,4.06l-14.07-.04-.03-11.31,7.03,.04Z"/>
              <g class="cls-9">
                <path class="cls-3" d="M100.3,157.56c-.27,.07-.46,.38-.4,.65,.06,.28,.37,.47,.65,.4,.27-.07,.51-.43,.42-.7-.09-.27-.47-.48-.72-.34"/>
              </g>
              <g class="cls-9">
                <path class="cls-3" d="M97.92,162.21v-1.13s13.52,.45,13.52,.45c0,0,.63,.27,.55,.72l-14.07-.04Z"/>
              </g>
              <path class="cls-35" d="M104.87,158.12c0,.07-.35,.1-.68,.32-.34,.21-.52,.51-.58,.48-.06-.01,.04-.42,.46-.68,.41-.26,.83-.18,.81-.12Z"/>
              <path class="cls-35" d="M106.35,158.73c.02,.07-.28,.18-.52,.47-.24,.28-.3,.6-.37,.59-.06,.01-.11-.39,.19-.75,.29-.36,.7-.39,.7-.32Z"/>
              <path class="cls-35" d="M107.18,160.5c-.06,.01-.16-.33,.02-.7,.17-.38,.5-.52,.53-.47,.04,.06-.17,.26-.31,.57-.15,.31-.17,.6-.24,.6Z"/>
              <path class="cls-35" d="M104.75,156.46c-.03,.06-.34-.03-.73,0-.39,.02-.69,.15-.73,.09-.04-.05,.26-.3,.71-.33,.46-.03,.78,.19,.75,.25Z"/>
            </g>
            <g class="cls-21">
              <polygon points="104.87 152.37 104.82 153.67 97.9 153.58 97.9 152.42 104.87 152.37"/>
            </g>
            <path class="cls-35" d="M104.78,154.99s-.27,.07-.7,0c-.22-.04-.47-.11-.74-.23-.13-.06-.27-.13-.4-.22-.06-.04-.14-.08-.21-.17-.08-.07-.12-.25-.03-.37,.07-.11,.2-.15,.3-.16,.1,0,.19,.02,.26,.04,.16,.04,.3,.09,.44,.15,.27,.12,.49,.28,.65,.43,.33,.3,.44,.56,.41,.57-.03,.02-.19-.19-.52-.44-.17-.12-.38-.25-.63-.36-.13-.05-.26-.09-.4-.13-.15-.04-.28-.04-.31,.03-.01,.03-.02,.04,.02,.08,.03,.04,.09,.08,.16,.12,.12,.08,.25,.15,.37,.21,.25,.12,.48,.21,.68,.26,.4,.11,.67,.13,.67,.17Z"/>
            <path class="cls-35" d="M104.69,155.09s-.16-.24-.18-.68c-.01-.22,.01-.49,.1-.77,.04-.14,.1-.29,.18-.43,.08-.14,.18-.32,.45-.35,.14,0,.25,.1,.29,.2,.05,.1,.06,.18,.07,.26,.03,.16,.02,.33,0,.47-.05,.3-.17,.55-.3,.73-.28,.36-.56,.45-.57,.42-.02-.03,.22-.17,.43-.52,.1-.17,.2-.4,.22-.66,.01-.13,.01-.27-.01-.41-.02-.15-.08-.27-.13-.26-.07,0-.19,.11-.25,.23-.07,.13-.13,.25-.18,.38-.09,.25-.13,.5-.14,.7-.02,.41,.05,.67,.01,.68Z"/>
          </g>
          <g>
            <path class="cls-35" d="M97.91,116.19c-8.31,.86-19.34,1.99-19.34,1.99l1.5,13.53s16.19-4.28,16.08-3.93c-.12,.35,.75,28.79,.75,28.79h9.75l.18-32.21c.07-4.85-4.11-8.67-8.93-8.17Z"/>
            <path class="cls-35" d="M58.68,121.65v4.2c0,2.86,3.25,5.89,6.11,5.89h2.21c1.74,0,4.47-1.27,5.87-2.29l.84-.62,10.15,31.46s11.62-2.08,11.62-2.45-7.87-25.76-11.5-37.55c-1.48-4.81-6.64-7.61-11.4-5.98-.16,.06-.32,.12-.49,.18-5.2,2.08-13.42,7.17-13.42,7.17Z"/>
            <path class="cls-25" d="M95.49,157.83s-.02-.04-.05-.11c-.03-.09-.08-.2-.13-.34-.11-.3-.27-.74-.46-1.31-.39-1.14-.92-2.79-1.57-4.84-1.3-4.1-3.03-9.78-4.92-16.06-.94-3.14-1.84-6.13-2.65-8.86-.4-1.36-.79-2.66-1.15-3.87-.18-.61-.35-1.19-.52-1.75-.17-.56-.32-1.1-.53-1.59-.4-.99-1.02-1.75-1.64-2.32-.62-.57-1.22-1.01-1.72-1.34-.5-.33-.89-.58-1.16-.74-.12-.08-.22-.14-.31-.19-.07-.04-.1-.07-.1-.07,0,0,.04,.01,.11,.05,.08,.04,.19,.1,.32,.17,.28,.15,.68,.38,1.19,.71,.51,.32,1.12,.74,1.76,1.32,.63,.57,1.29,1.35,1.71,2.36,.22,.5,.38,1.04,.55,1.6,.17,.56,.35,1.14,.54,1.75,.37,1.21,.76,2.5,1.17,3.86,.82,2.72,1.72,5.71,2.67,8.85,1.89,6.27,3.61,11.94,4.85,16.08,.63,2.04,1.14,3.7,1.5,4.86,.18,.56,.32,1,.42,1.32,.04,.14,.08,.25,.11,.34,.02,.08,.03,.12,.03,.12Z"/>
            <path class="cls-25" d="M97.94,123.72c.06,.04-.49,.87-.96,2-.47,1.12-.67,2.1-.74,2.09-.06,0,.03-1.03,.51-2.18,.48-1.16,1.13-1.95,1.18-1.91Z"/>
            <path class="cls-25" d="M99.8,125.03c.03,.07-.81,.44-1.68,1.13-.88,.68-1.43,1.41-1.49,1.37-.05-.03,.43-.85,1.34-1.56,.91-.72,1.82-.99,1.83-.94Z"/>
            <path class="cls-25" d="M83.98,160.28c-.06,.02-2.81-8.4-6.13-18.8-3.32-10.41-5.96-18.86-5.89-18.88,.06-.02,2.81,8.4,6.13,18.8,3.32,10.4,5.96,18.85,5.89,18.87Z"/>
          </g>
          <g>
            <polygon class="cls-25" points="69.24 114.45 102.41 116.56 109.54 99.4 85.39 98.26 78.94 113.69 69.3 113.32 69.24 114.45"/>
            <path class="cls-3" d="M94.77,108.89c-.73-.14-1.2-.85-1.06-1.58,.14-.73,.85-1.2,1.58-1.06,.73,.14,1.2,.85,1.06,1.58-.14,.73-.85,1.2-1.58,1.06Z"/>
          </g>
          <g>
            <path class="cls-35" d="M68.81,63.79c.31-1.17,1.19-1.74,2.33-2.13,1.14-.39,2.47-.17,3.43,.56,.64,.49,1.15,1.2,1.91,1.46,1.26,.44,2.73-.5,3.93,.06,.71,.33,1.13,1.2,.94,1.97s-.96,1.34-1.75,1.3c.82,.3,1.07,1.47,.6,2.2-.48,.73-1.46,1-2.32,.84-.86-.16-1.61-.68-2.25-1.26-.65-.58-1.23-1.24-1.92-1.77-.69-.53-1.53-.93-2.41-.88-1.18,.06-2.19,.95-2.72,2.01s-.65,2.27-.71,3.44c-.07,1.18-.09,2.38-.44,3.51-.04,.13-.1,.28-.24,.32-.19,.06-.35-.14-.45-.32-1.07-1.99-1.75-4.19-1.98-6.44-.13-1.31-.1-2.54,.62-3.64s2.53-1.91,3.42-1.22"/>
            <g>
              <g>
                <path class="cls-13" d="M66.53,69.26l-.6,13.23c-.1,2.25,.21,5.58,3.77,5.58h0c3.09-.23,4.01-3.12,4.1-5.22,.04-1,.08-1.83,.09-1.93,0,0,3.38-.16,3.78-3.49,.19-1.61,.32-4.94,.39-7.97,.08-3.25-2.34-6.01-5.57-6.35l-.32-.03c-3.48-.17-5.57,2.7-5.64,6.18Z"/>
                <path class="cls-14" d="M73.9,80.87s-2.12-.05-4.21-1.69c0,0,.77,2.5,4.12,2.56l.08-.86Z"/>
              </g>
              <g>
                <g>
                  <g>
                    <path class="cls-35" d="M76.85,71.59c-.02,.25-.25,.44-.51,.43-.26-.01-.46-.23-.44-.48,.02-.25,.25-.44,.51-.43,.26,.01,.46,.23,.44,.48Z"/>
                    <path class="cls-35" d="M77.17,71.02c-.07,.06-.4-.25-.91-.3-.51-.06-.91,.16-.96,.09-.02-.03,.05-.14,.22-.24,.17-.1,.46-.19,.78-.15,.32,.04,.57,.18,.71,.32,.14,.14,.19,.26,.15,.28Z"/>
                  </g>
                  <g>
                    <path class="cls-35" d="M71.82,71.23c-.02,.25-.25,.44-.51,.43-.26-.01-.46-.23-.44-.48,.02-.25,.25-.44,.51-.43,.26,.01,.46,.23,.44,.48Z"/>
                    <path class="cls-35" d="M72.14,70.58c-.07,.06-.4-.25-.91-.3-.51-.06-.91,.16-.96,.09-.02-.03,.05-.14,.22-.24,.17-.1,.46-.19,.78-.15,.32,.04,.57,.18,.71,.32,.14,.14,.19,.26,.15,.28Z"/>
                  </g>
                  <path class="cls-35" d="M73.59,74.57s.32-.05,.85-.06c.13,0,.26-.01,.29-.1,.04-.09,0-.24-.05-.4-.09-.33-.18-.67-.28-1.04-.39-1.47-.65-2.68-.59-2.69,.06-.01,.42,1.17,.81,2.64,.09,.36,.18,.71,.26,1.04,.03,.15,.1,.33,.01,.52-.05,.09-.15,.15-.23,.17-.09,.02-.16,.01-.23,0-.52-.03-.84-.06-.84-.09Z"/>
                  <path class="cls-35" d="M72.04,74.76c.08,0,.03,.56,.46,1,.43,.45,1.03,.45,1.03,.52,0,.04-.14,.09-.39,.07-.25-.02-.59-.13-.86-.41-.26-.27-.35-.61-.35-.84,0-.23,.08-.37,.12-.36Z"/>
                </g>
                <path class="cls-35" d="M72.48,68.59c-.07,.13-.57,.01-1.18,.02-.61,0-1.11,.12-1.18-.01-.03-.06,.07-.19,.28-.3,.21-.11,.53-.21,.9-.21,.36,0,.69,.09,.9,.2,.21,.11,.31,.23,.28,.3Z"/>
                <path class="cls-35" d="M77.14,69.52c-.1,.11-.44-.05-.86-.1-.42-.07-.79,0-.86-.14-.03-.06,.04-.17,.21-.27,.17-.09,.43-.16,.72-.12,.29,.04,.53,.17,.67,.31,.14,.14,.17,.26,.13,.31Z"/>
              </g>
            </g>
            <g>
              <path class="cls-13" d="M66.54,71.75c-.05-.03-2.21-.92-2.38,1.36-.17,2.28,2.16,1.98,2.17,1.92,0-.07,.22-3.28,.22-3.28Z"/>
              <path class="cls-14" d="M65.69,74.12s-.04,.02-.11,.05c-.07,.03-.18,.04-.3-.02-.23-.11-.41-.5-.39-.92,0-.21,.07-.4,.15-.56,.08-.16,.2-.27,.32-.28,.12-.02,.2,.06,.23,.13,.03,.07,0,.11,.02,.12,0,0,.05-.03,.04-.13,0-.05-.03-.1-.08-.15-.05-.05-.13-.08-.22-.07-.18,0-.35,.15-.44,.32-.1,.17-.17,.39-.19,.63-.02,.46,.18,.91,.51,1.03,.16,.05,.29,.02,.37-.03,.07-.05,.09-.1,.08-.11Z"/>
            </g>
            <path class="cls-35" d="M78.84,68.85c-1.51,.23-3.11-.31-4.17-1.42-.74-.77-1.26-1.83-2.24-2.25-.66-.28-1.43-.22-2.1,.06-.66,.28-1.22,.75-1.72,1.27,.46,1.76-.17,3.6-.79,5.31-.07,.19-.15,.39-.32,.5-.29,.18-.68-.03-.89-.3-.33-.43-.42-1-.46-1.55-.09-1.24,.01-2.51,.41-3.69,.4-1.18,1.11-2.27,2.09-3.03,1.23-.95,2.86-1.34,4.4-1.15s3,.93,4.13,1.99c.53,.49,1,1.07,1.23,1.76"/>
          </g>
        </g>
        <g>
          <g>
            <path class="cls-32" d="M14.91,139.16c1.17-.6,2.54-.68,3.83-.47,.7,.11,1.42,.32,1.89,.85,.47,.52,.56,1.44,.02,1.89-.32,.27-.77,.31-1.19,.3-1.01-.01-2.14-.19-2.95,.42-.46,.35-.77,.93-1.32,1.1-.54,.17-1.15-.15-1.44-.64-.29-.49-.3-1.1-.16-1.65,0,0,.14-1.2,1.31-1.8Z"/>
            <path class="cls-32" d="M12.24,134c.71,1.02,2.1,.68,2.74,.06,.64-.62,.91-1.52,1.16-2.38,.56-1.96,1.13-4.02,.71-6.02-.13-.6-.35-1.19-.77-1.64-.42-.44-1.07-.71-1.66-.55-.7,.18-1.13,.87-1.45,1.52-.92,1.91-1.41,4.03-1.42,6.16,0,.99,.11,2.03,.67,2.85"/>
            <path class="cls-32" d="M10.28,135.46c.77-.92,.92-2.26,.58-3.41-.34-1.15-1.12-2.13-2.02-2.93-1.05-.94-2.29-1.67-3.62-2.13-.52-.18-1.07-.33-1.63-.28-.55,.05-1.11,.33-1.36,.83-.38,.73-.02,1.61,.38,2.32,.7,1.27,1.49,2.48,2.37,3.62,.71,.92,1.53,1.82,2.61,2.24,1.08,.41,2.21,.37,2.79-.39"/>
            <path class="cls-35" d="M12.19,149.36s.03-.16,.06-.46c.03-.34,.07-.76,.12-1.26,.06-.53,.14-1.16,.28-1.85,.15-.69,.38-1.43,.67-2.19,.31-.75,.68-1.43,1.12-1.98,.43-.55,.94-.94,1.41-1.17,.47-.23,.9-.33,1.19-.37,.3-.03,.46-.05,.46-.07,0-.01-.17-.02-.47,0-.3,.02-.74,.1-1.24,.32-.5,.22-1.03,.62-1.49,1.18-.46,.56-.85,1.25-1.16,2.02-.3,.77-.53,1.52-.67,2.22-.14,.7-.2,1.34-.25,1.87-.04,.54-.06,.97-.06,1.27,0,.3,0,.47,0,.47Z"/>
            <path class="cls-35" d="M12.27,148.39s.01-.07,.01-.21c0-.16,0-.36,0-.61,0-.53,0-1.3,.03-2.26,.05-1.9,.21-3.95,.53-6.84,.3-2.72,.7-5.88,1.13-7.93,.09-.47,.18-.89,.27-1.26,.08-.37,.15-.69,.22-.94,.06-.24,.11-.44,.14-.6,.03-.14,.04-.21,.04-.21,0,0-.03,.07-.07,.2-.05,.15-.11,.35-.18,.59-.08,.26-.16,.57-.25,.94-.1,.37-.2,.79-.3,1.25-.42,1.86-.86,4.46-1.18,7.36-.32,2.89-.46,5.53-.47,7.44-.01,.95,0,1.73,.03,2.26,.02,.25,.03,.45,.04,.61,.01,.14,.02,.21,.03,.21Z"/>
            <path class="cls-35" d="M12.29,143.3s.01-.23,0-.64c-.02-.41-.08-1.01-.2-1.74-.12-.73-.29-1.59-.56-2.53-.12-.43-.39-1.46-1.06-2.99-.88-2.08-2.07-3.78-3.11-4.84-.24-.28-.51-.48-.73-.68-.11-.09-.21-.19-.31-.26-.1-.07-.2-.14-.28-.2-.34-.23-.53-.36-.54-.35-.03,.04,.76,.51,1.77,1.58,1,1.07,2.16,2.76,3.03,4.82,.49,1.12,.82,2.12,1.06,2.97,.28,.93,.46,1.79,.6,2.51,.13,.72,.21,1.31,.26,1.72,.04,.41,.07,.64,.08,.64Z"/>
          </g>
          <polygon class="cls-35" points="7.37 152.27 7.88 159.25 16.85 159.25 17.36 152.27 7.37 152.27"/>
          <rect class="cls-35" x="6.51" y="149.52" width="11.92" height="2.75"/>
          <polygon class="cls-25" points="6.51 158.98 6.51 159.74 7.07 159.74 18.23 159.74 18.23 158.98 6.51 158.98"/>
          <polygon class="cls-25" points="7.62 161.08 7.07 159.74 17.8 159.74 17.16 161.08 7.62 161.08"/>
          <path class="cls-17" d="M17.19,154.55s-.01,.02-.04,.06c-.04,.05-.08,.11-.13,.18-.13,.16-.3,.39-.52,.67l-.02,.03-.02-.03c-.33-.45-.77-1.06-1.28-1.77h.07c-.38,.54-.81,1.14-1.26,1.79l-.04,.06-.04-.05c-.47-.55-.97-1.16-1.5-1.78h.09s-.05,.07-.08,.1c-.46,.58-.91,1.15-1.34,1.68l-.04,.06-.04-.06c-.45-.64-.88-1.24-1.26-1.79h.07c-.62,.71-1.15,1.31-1.56,1.78l-.03,.03-.02-.04c-.21-.34-.37-.62-.49-.82-.05-.09-.09-.16-.13-.22-.03-.05-.04-.08-.04-.08,0,0,.02,.02,.05,.07,.04,.06,.08,.12,.14,.21,.12,.2,.3,.47,.51,.8h-.05c.4-.47,.92-1.08,1.53-1.8l.04-.05,.03,.05c.39,.54,.82,1.14,1.28,1.78h-.09c.42-.54,.87-1.1,1.34-1.68,.03-.04,.06-.07,.08-.1l.04-.05,.04,.05c.52,.63,1.03,1.23,1.49,1.79h-.08c.46-.64,.89-1.24,1.28-1.78l.04-.05,.04,.05c.51,.72,.93,1.33,1.26,1.79h-.05c.23-.28,.41-.49,.54-.65,.06-.07,.11-.12,.15-.17,.03-.04,.05-.06,.05-.05Z"/>
          <path class="cls-25" d="M17.48,152.22s-2.25,.06-5.02,.06-5.02-.02-5.02-.06,2.25-.06,5.02-.06,5.02,.03,5.02,.06Z"/>
          <path class="cls-35" d="M17.93,159.82s-2.44,.06-5.45,.06-5.45-.02-5.45-.06,2.44-.06,5.45-.06,5.45,.02,5.45,.06Z"/>
        </g>
        <g>
          <rect class="cls-32" x="163.6" y="135.3" width="20.53" height="14.64"/>
          <g>
            <path class="cls-3" d="M170.52,142.1v2.9h-.67v-1.19h-1.32v1.19h-.67v-2.9h.67v1.15h1.32v-1.15h.67Z"/>
            <path class="cls-3" d="M171.82,142.65h-.93v-.55h2.53v.55h-.93v2.36h-.67v-2.36Z"/>
            <path class="cls-3" d="M173.78,142.1h.67v2.36h1.46v.55h-2.13v-2.9Z"/>
            <path class="cls-3" d="M178.93,145v-1.74s-.86,1.44-.86,1.44h-.3l-.85-1.4v1.71h-.63v-2.9h.56l1.09,1.81,1.07-1.81h.55v2.9s-.62,0-.62,0Z"/>
          </g>
          <g>
            <path class="cls-3" d="M184.29,137.47s-4.63,.06-10.35,.06-10.35-.03-10.35-.06,4.63-.06,10.35-.06,10.35,.03,10.35,.06Z"/>
            <g>
              <path class="cls-3" d="M165.28,136.41c0,.13-.12,.24-.28,.24s-.28-.11-.28-.24,.12-.24,.28-.24,.28,.11,.28,.24Z"/>
              <path class="cls-3" d="M166.28,136.41c0,.13-.12,.24-.28,.24s-.28-.11-.28-.24,.12-.24,.28-.24,.28,.11,.28,.24Z"/>
              <path class="cls-3" d="M167.29,136.41c0,.13-.12,.24-.28,.24s-.28-.11-.28-.24,.12-.24,.28-.24,.28,.11,.28,.24Z"/>
            </g>
          </g>
        </g>
      </g>
    </g>
  </g>
</svg>