<?xml version="1.0" encoding="utf-8"?>
<!-- Generator: Adobe Illustrator 27.0.0, SVG Export Plug-In . SVG Version: 6.00 Build 0)  -->
<svg version="1.1" id="Layer_2_00000049906646986065259090000013474839411461585066_"
	 xmlns="http://www.w3.org/2000/svg" xmlns:xlink="http://www.w3.org/1999/xlink" x="0px" y="0px" viewBox="0 0 1696.3 931.5"
	 style="enable-background:new 0 0 1696.3 931.5;" xml:space="preserve">
<style type="text/css">
	.st0{fill:none;stroke:#386E84;stroke-linecap:round;stroke-linejoin:round;}
	.st1{fill:none;stroke:#263238;stroke-linecap:round;stroke-linejoin:round;}
	.st2{fill:#92E3A9;stroke:#263238;stroke-linecap:round;stroke-linejoin:round;}
	.st3{fill:#D4D4D4;stroke:#263238;stroke-linecap:round;stroke-linejoin:round;}
	.st4{fill:#FFFFFF;stroke:#263238;stroke-width:1;stroke-linecap:round;stroke-linejoin:round;stroke-miterlimit:4;}
	.st5{fill:none;stroke:#2C657C;stroke-linecap:round;stroke-linejoin:round;}
	.st6{fill:#263238;stroke:#263238;stroke-linecap:round;stroke-linejoin:round;}
	.st7{fill:#D4D4D4;stroke:#263238;stroke-width:1;stroke-linecap:round;stroke-linejoin:round;stroke-miterlimit:4;}
	.st8{fill:#FFFFFF;stroke:#263238;stroke-linecap:round;stroke-linejoin:round;}
	.st9{fill:#D4D4D4;stroke:#263238;stroke-width:1;stroke-linecap:round;stroke-linejoin:round;stroke-miterlimit:4.0001;}
	.st10{fill:none;stroke:#345F70;stroke-linecap:round;stroke-linejoin:round;}
	.st11{display:none;fill:none;stroke:#263238;stroke-linecap:round;stroke-linejoin:round;}
	.st12{fill:none;stroke:#305F72;stroke-linecap:round;stroke-linejoin:round;}
	.st13{fill:none;stroke:#2F5F72;stroke-linecap:round;stroke-linejoin:round;}
	.st14{fill:none;stroke:#2E6175;stroke-linecap:round;stroke-linejoin:round;}
</style>
<g>
	<g>
		<path class="st0" d="M1279.3,651.1c0.5,24.9,6.5,49.9,16.5,72.9c-1,13-1,25,0,38c0,3-1,5-1.6,8"/>
		<path class="st0" d="M1350,558.3c-4.2-7.3-11.2-11.3-18.2-14.3c-4-1-8-2-11,1c-2,3-2,7,0,10c11,12,26,29,16.3,45.3
			c-3-1.4,1.2-2.5,0,0c-2.7-3.7-4.3-8.5-8.1-11.3"/>
		<path class="st0" d="M1357.7,764.3c-2.9-18.2-4.9-37.2-4.9-55.2c1-8,2-16,5-24c6-13,10-27,12-41c1-9,2-18,1-27s-5-18-6.5-26.7"/>
		<path class="st1" d="M1330.7,564c0,0,5.7,2.8,12-1.9"/>
	</g>
	<g>
		<g>
			<path class="st2" d="M1383.7,494.5l-6.9-2.9c-0.9-0.4-2,0.1-2.4,1l-46,114.4c-0.3,5.6-0.4,8.9,0.8,14.2c0.7,3.1,1.5,5,1.9,6.8
				l9-24.9c-0.3-5.8,0.5-12.9,2.7-18.5c2.1-5.3,5-11,8.3-15.5c0.9-1.2,2.5-2.9,3.7-3.1l29.9-69.2
				C1385.1,496,1384.7,494.9,1383.7,494.5z"/>
			<path class="st3" d="M1378.5,512l6.3-15.1c0.4-0.9-0.1-2-1-2.4l-6.9-2.9c-0.9-0.4-2,0.1-2.4,1l-6.3,15.1L1378.5,512L1378.5,512z"
				/>
			
				<rect x="1371.2" y="500.9" transform="matrix(0.3824 -0.924 0.924 0.3824 381.0841 1583.1716)" class="st4" width="7.2" height="11.2"/>
		</g>
	</g>
	<g>
		<path class="st0" d="M1305.3,659.8c0,0,0.1,1.4-0.8,3c-0.9,1.7-3.5,4.1-7.2,4.2c-3.7,0.1-9.6-3.3-13.8-8
			c-4.1-4.7-5.4-11.6-7.2-16.4c-1.8-4.8-2-9.4,1.4-15.6c3.4-6.2,11-3.9,11-3.9s5.4,17.6,7.6,22.1
			C1298.6,649.9,1305.3,659.8,1305.3,659.8L1305.3,659.8z"/>
		<path class="st1" d="M1293.7,665.6c0,0-2.5-3.8-1.3-3.6s4.8-0.2,6.4-1.4c1-0.8,2-0.9,2.8-0.3c1.2,0.9,2.9,2.7,2.9,2.7"/>
		<path class="st1" d="M1289.6,652.3l-3.1,3.1c0,0,4.9-2,6.6-3"/>
	</g>
	<g>
		<path class="st0" d="M1303.6,602.4c0,0-6.2-3.7-11.7,2.6c-5.5,6.2-4.8,12-1.8,22.5s6.4,19.7,8.6,22.3c2.2,2.7,7.7,12,12.5,11.8
			c0,0,2.6-4.8,4-9.4c1.4-4.7,3.2-5.2,3.2-5.2l-3.5-6.3l-1.4-5c0,0-4.6-10.9-6-16.6C1306.1,613.2,1303.6,602.4,1303.6,602.4
			L1303.6,602.4z"/>
		<path class="st1" d="M1308.7,642.7c0,0-3.9,2.2-5.4,2.5"/>
		<path class="st1" d="M1305.4,641.6c0,0-4,0.9-4.9,2.5"/>
		<path class="st1" d="M1314.5,653.1c0,0-6.5,0.5-6.6,3.1c-0.1,2.5,2.6,2,2.6,2"/>
	</g>
	<g>
		<path class="st0" d="M1329,634.9c0.2-0.1,0.5-0.4,0.7-0.5c0.4-1,0.4-0.9,1.4-1.4c0.1-0.4,0.9-0.6,0.8-1c-0.1-3-4.9-17.6-4.9-17.6
			s0.6-1.4,1.2-5.6c0.5-4.2,0.2-10.9,0.2-10.9s1.6-5.2,0-11.1c-1.6-6-5-8.8-8.9-8.7c-3.9,0.2-10.2,0-12.9,7.5
			c-2.7,7.5-1.9,15.1-1.3,21.6c0.5,6.1,2.5,13.1,3.3,15.6s7.9,16.3,8.9,17.9c0.7,1.2,2.4,1.2,5,0.6c0.4-0.5,0.8-1.1,1.3-1.5
			c0.2-0.5,0.8-1.1,1.2-1.4c0.7-0.6,1.2-1.3,1.9-1.8C1327.5,635.9,1328.3,635.3,1329,634.9z"/>
		<path class="st1" d="M1315.8,635.1c0,0-1.8-4.1,2.7-6.4c4.5-2.3,11.9,3.4,11.9,3.4"/>
		<path class="st1" d="M1313.4,613.4c-1.9,0.7-3.8,1.9-4.8,3.6"/>
		<path class="st1" d="M1318.1,612.2c0,0-0.9,0.1-2.1,0.4"/>
		<path class="st1" d="M1311.6,617.1c0,0,3.9-1.3,5.7-2.6"/>
	</g>
	<g>
		<path class="st0" d="M1305.3,691.5c0,0,2.2-20,7.8-34.1c5.7-14.1,13.5-20.5,16.2-22.9s5.8-6.3,5.8-6.3l4.5-8.8
			c0,0,0.5-14.6,0.4-19s0.8-13.7,6.8-24.6c6-10.9,10.4-11.8,13.1-12.8s8.6,0.8,10.3,3c1.7,2.2-6,18.1-5.7,23.4
			c0.2,5.3-1.4,16.5-1.9,26.5s0.1,15-1.6,30.5s-1,32.8-1,32.8"/>
		<g>
			<path class="st1" d="M1367.6,564.7c0,0-5.3-0.5-6.7,1.3c-1.4,1.8-5.3,11.5-3.7,13.7c1.6,2.2,5.6,3,6.9,2.5"/>
			<path class="st1" d="M1362.3,597.5c0,0-4.3-0.6-6,0.2"/>
			<path class="st1" d="M1354.1,599.4c0,0,3.6,1.6,7.1,0.7"/>
			<path class="st1" d="M1352.8,604.7c0,0,1.4,2.7,6.3,1.7"/>
		</g>
	</g>
</g>
<g>
	<g>
		<path class="st5" d="M389.7,338c33.7-8.4,66.5-15.9,100.4-24.5c18,1.7,36.1,7.4,55.1,5.1c14-3.2,25.8-10.4,39.4-14.6
			c7.1-2.5,13.2-2.2,20.6-2.3c-6.8,1.1-13.7,2.8-14.8,10.8s8.7,8.9,14.5,8.9c-0.7,2.4-3.4-0.5,0,0c-1.6,4.2-1.5,9.2,3.5,10.1
			c11.1,0.8,19.9-7.3,30.9-8.5c7,4.9,14-3.3,16.9-9.7"/>
		<path class="st5" d="M675.5,299.9c5.4-5.5,6.2-11.5,7.1-17.6c0.7-18.1-0.7-37-10.9-52.8c-21.2-8.6-41.4-20.3-63.4-24.9
			c-10,2.2-17.9,5.3-26.8,10.4c-16.8,12.3-33.6,22.6-52.5,28.9c-20.9,8.3-42.8,8.7-65.1,11.8"/>
		<g>
			<path class="st6" d="M619.6,308.3c0.1,0,0.1,0,0.2-0.1C619.8,308.3,619.6,308.3,619.6,308.3z"/>
			<path class="st6" d="M619.8,308.2C619.7,308.2,619.8,308.2,619.8,308.2S619.7,308.2,619.8,308.2z"/>
			<path class="st6" d="M619.9,308.2L619.9,308.2C619.9,308.2,619.8,308.2,619.9,308.2z"/>
			<path class="st6" d="M619.4,308.4c0.1,0,0.2-0.1,0.3-0.1C619.5,308.4,619.4,308.4,619.4,308.4z"/>
			<path class="st6" d="M619.8,308.2L619.8,308.2L619.8,308.2z"/>
			<path class="st6" d="M618.7,308.9c0.2-0.2,0.4-0.3,0.6-0.3C619.2,308.5,618.9,308.6,618.7,308.9z"/>
			<path class="st6" d="M617.6,309.3C617.4,309.4,617.4,309.4,617.6,309.3L617.6,309.3z"/>
			<path class="st6" d="M617.6,309.3c0,0,0.1,0,0.2-0.1C617.7,309.3,617.5,309.2,617.6,309.3z"/>
			<path class="st6" d="M617.8,309.2c0.1,0.1,0.1,0,0.2-0.1C617.9,309.2,617.8,309.1,617.8,309.2z"/>
			<path class="st6" d="M618.4,308.9c0.2-0.1,0.3,0,0.4-0.1C618.6,308.8,618.5,308.8,618.4,308.9z"/>
			<path class="st6" d="M618,309c0.1,0,0.2-0.1,0.4-0.1C618.2,309,618.1,309,618,309z"/>
		</g>
		<g>
			<path class="st5" d="M639,322.8c-5.3-3.6-2.1-15.8-2.1-15.8"/>
			<path class="st1" d="M651,311.6c0,0-3.1,4.1-2.6,6.8c0.5,2.7,0.2,5.6,0.2,5.6"/>
			<path class="st1" d="M612.5,330.8c2-4.1,1.3-8.6,1.3-8.6s9.9-3,13.7-2.5c3.8,0.4,1.2,6.1,1.2,6.1"/>
			<path class="st5" d="M629.8,299.2c0,0-1.6,1.1-2.3,2.7c-0.6,1.6-0.8,3.7-0.8,3.7s-2,0.7-4.7,1.7"/>
			<path class="st5" d="M621.9,307.2c-3.9,1.6-9.2,3.8-11.4,5.6c-3.5,3.1-5.6,8.7-5.6,8.7"/>
			<line class="st5" x1="629.4" y1="305.3" x2="632.5" y2="304.8"/>
			<path class="st1" d="M604.3,319.5c0,0-9.3,0.2-10.4-1.4c-1.2-1.6-0.1-5.9,0.8-7.7c0.9-1.8,6.3-0.5,11.1-0.4
				c4.8,0.2,4.9,2.8,4.9,2.8"/>
			<path class="st5" d="M619.4,295.4c0,0-1.3,0.4-3.6,2c-2.3,1.6-3.3,3.6-3.3,3.6"/>
			<g>
				<path class="st5" d="M625.7,247.5c1.6-2,2.6-5.6,2.6-5.6s5.7,3.6,10.7,4.9s14.7,3.4,14.7,3.4s3.1,6.3,4.9,9.9
					c1.9,3.5,5.4,7.1,5.4,7.1s-0.6,2.5-1.7,7c-1,4.7,0.2,10.2,0.2,10.2"/>
				<path class="st1" d="M643.1,268.9c1.5-0.5,2.8-1.1,4-1.9"/>
				<path class="st1" d="M649.3,265.1c1.9-1.9,2.9-3.8,2.9-3.8"/>
				<path class="st1" d="M627,224.8c1.2,2.4,1.5,5.7,1.4,8.5"/>
				<path class="st1" d="M628,237.1c-0.2,1.5-0.3,2.5-0.3,2.5"/>
				<path class="st1" d="M653.8,250.1c-0.6-3.8,8.2-11.7,8.2-11.7"/>
				<path class="st1" d="M665.8,265.9c2-4.6,5.4-4.4,5.4-4.4"/>
			</g>
		</g>
	</g>
	<g>
		<path class="st2" d="M617.3,265.8c3.5,1,7.3,2.2,10.7,2.9c6.2,1.3,12.1,2.2,18.3,4l-8-7.2l-43.8-42l-13.2,13.6l27.7,26.1
			c0.4,0.1,1.2,0.1,1.6,0.2c0.4,0.2,1.6,0.6,2,0.7"/>
		<path class="st2" d="M663.4,313.6l3.7,2.7l4.8-4.9l4.7-4.7l-1.5-1.9c0,1.3-1.1,2.6-1.9,3.4C670.7,311,667.5,313.5,663.4,313.6z"/>
		<path class="st2" d="M558.8,216c18.3,18.3,25.8,25.5,25.8,25.5l7.1-7.4l7.1-7.4c0,0-7.3-7.2-26.3-24.9
			c-18.9-17.7-34.8-31.8-34.8-31.8l-5.9,6.1l-6,6.2C525.8,182.1,540.5,197.5,558.8,216L558.8,216z"/>
		<line class="st1" x1="582.8" y1="234.3" x2="578.9" y2="230.4"/>
		<line class="st1" x1="575.7" y1="227.2" x2="530.1" y2="182.1"/>
		<line class="st1" x1="609.8" y1="260.5" x2="589.5" y2="240.2"/>
		<path class="st6" d="M596.8,224.7l-14.2,14.6c1.4,1.5,2.1,2.1,2.1,2.1l14.2-14.6C598.9,226.8,598.2,226.1,596.8,224.7L596.8,224.7
			z"/>
		
			<rect x="668.7" y="310.4" transform="matrix(0.6951 -0.7189 0.7189 0.6951 -19.6821 580.3293)" class="st7" width="11.2" height="5.9"/>
		<polygon class="st3" points="672.5,319.4 683.5,323.9 685.9,321.4 680.4,311.3 		"/>
		<polygon class="st8" points="684.2,323.5 686.9,324.9 685.4,322.1 		"/>
		<path class="st8" d="M530.3,170.6c1.4-1.3,3.7-1.3,5-0.1l0.9,0.9l-9.4,9.8l-0.9-0.9c-1.5-1.4-1.5-3.6-0.1-5L530.3,170.6
			L530.3,170.6z"/>
		<path class="st8" d="M538.6,171c0,0,39.6,33.1,41.5,34.6c1.9,1.5,1.5,3.1,3.7,5.7c2.2,2.7,7,4.7,7.6,4.8c0.6,0.2,1.7-1,1.7-1
			l-51.8-45.4L538.6,171L538.6,171z"/>
	</g>
	<g>
		<path class="st5" d="M526.8,297.1c6.5,4.9,22,13,42.6,7.4c20.5-5.6,25.4-8.9,39.2-10.3c13.8-1.6,21.3,5.2,21.3,5.2
			s4.2,6.5,16.2,10.3c11.9,3.8,16.7,6.8,24.7,0.8c8.1-6,4.9-12.6,0-17.8c-4.8-5.2-14.7-15.4-16.9-17.2c-2.2-1.8-8.5-3-23.9-6.2
			c-15.3-3.2-37.4-12.5-37.4-12.5"/>
		<path class="st5" d="M662,286c0,0,10.8,11,11.2,12c0.4,1,0.9,4.7-0.4,7.6c-1.2,2.9-6.2,5.8-10.5,4.5c-4.4-1.3-7.3-6.7-7.3-6.7
			s2.3-1,4.3-3.9C661.2,296.6,662,286,662,286L662,286z"/>
		<path class="st8" d="M652.9,278.5c0,0-0.5,4.7-2.3,9.7"/>
		<path class="st8" d="M649.2,291.2c-0.7,1.3-1.4,2.7-2.3,3.9"/>
		<path class="st8" d="M645.5,291.6c0.6-3.4,2.6-6.7,2.6-6.7"/>
	</g>
</g>
<g>
	<g>
		<path class="st5" d="M739.9,576.2c-1.7,6.9-1.5,17.5,7.1,18.2c7.8,7.8,9.6,19.7,18.7,26c4.5,2.4,7.7-1.4,9.1-5.7c3,1.8-1,2.3,0,0
			c4.5,3.7,12.7,9.1,16.9,2.2c4.2-6.9-0.2-12.6-4.8-17.7c5.7,4.7,10.6,8.3,14.6,14.7c7.9,11.8,12.7,24.8,21.5,36.1
			c13.3,13.7,31,20.6,46.1,30.6c21,27.9,41.9,54.4,62.8,82"/>
		<path class="st5" d="M925.9,651.9c-15.4-16.3-32.3-30.4-43.3-50c-10.8-16.8-17.4-35.3-22.8-55.4c-3.7-9.6-7.9-17-14.3-25
			c-20.1-10.2-43.2-13.8-65-20.4c-17.9,5.9-30.9,19.8-41.6,34.3c-3.1,5.2-6.1,10.5-5.4,18.2"/>
		<g>
			<path class="st6" d="M771.6,595c0.1,0.1,0.1,0.1,0.1,0.2C771.6,595.1,771.5,595.1,771.6,595z"/>
			<path class="st6" d="M771.5,594.9C771.5,594.9,771.6,595,771.5,594.9C771.6,595,771.5,594.9,771.5,594.9z"/>
			<path class="st6" d="M771.4,594.9L771.4,594.9C771.5,594.9,771.4,594.9,771.4,594.9z"/>
			<path class="st6" d="M771.6,595.1c0.1,0.1,0.1,0.2,0.2,0.3C771.7,595.4,771.7,595.3,771.6,595.1z"/>
			<path class="st6" d="M771.5,594.9L771.5,594.9L771.5,594.9z"/>
			<path class="st6" d="M771.7,595.5c0.1,0.2,0.2,0.4,0.3,0.6C772,595.9,771.8,595.6,771.7,595.5z"/>
			<path class="st6" d="M772.5,597.2C772.7,597.4,772.7,597.4,772.5,597.2L772.5,597.2z"/>
			<path class="st6" d="M772.5,597c0.1,0.1,0.1,0.2,0.1,0.2S772.5,597.1,772.5,597z"/>
			<path class="st6" d="M772.4,596.9c0.1,0.1,0,0.1,0.1,0.2C772.5,597,772.4,596.9,772.4,596.9z"/>
			<path class="st6" d="M772,596c0,0.1,0.1,0.2,0.2,0.4C772.2,596.3,772.1,596.2,772,596z"/>
			<path class="st6" d="M772.2,596.4c0.1,0.2,0.2,0.3,0.2,0.4C772.3,596.7,772.3,596.6,772.2,596.4z"/>
		</g>
		<g>
			<path class="st5" d="M758.9,583.3c0,0-5.1,11.5-11.6,11.1"/>
			<path class="st1" d="M739.2,589.3c0,0,1.5-2.5,3.6-4.3s2.3-7,2.3-7"/>
			<path class="st1" d="M753.7,603c0,0,1.5-6,4.7-4s9.1,10.6,9.1,10.6s-3.4,3-4.4,7.5"/>
			<path class="st5" d="M770.4,592.8c-1.4-2.5-2.6-4.2-2.6-4.2s1.1-1.7,1.6-3.3s0-3.5,0-3.5"/>
			<path class="st5" d="M774.8,614.7c0,0,1.9-5.7,1-10.3c-0.5-2.8-3.3-7.9-5.4-11.5"/>
			<line class="st5" x1="763.8" y1="584.4" x2="765.8" y2="586.7"/>
			<path class="st1" d="M775.8,604.4c0,0,1.7-2.1,5.5,0.8c3.8,2.9,8.9,5.3,8.4,7.3s-2.4,6-4.2,6.5s-9-5.4-9-5.4"/>
			<path class="st5" d="M781.7,594.1c0,0,0.4-2.2-0.3-4.9s-1.5-3.8-1.5-3.8"/>
			<g>
				<path class="st5" d="M753.2,549.6c0,0,4.4-3.6,6.5-7.8c2-4.2,3.1-6.5,3.1-6.5s4.9-0.6,8.6-2.2s10.1-4.6,10.1-4.6
					s8.9,4.4,13.6,6.6c4.7,2.2,11.3,2.9,11.3,2.9s-1.5,3.5-1.5,6"/>
				<path class="st1" d="M776.1,545.8c0.4,1.4,1,2.7,1.9,3.9"/>
				<path class="st1" d="M775.7,538.1c0,0-0.4,2.1-0.1,4.8"/>
				<path class="st1" d="M811.8,531.3c1.7-2.2,3.9-4.5,6.4-5.8"/>
				<path class="st1" d="M808.5,536.6c0,0,0.5-0.9,1.3-2.2"/>
				<path class="st1" d="M782.4,514.2c0,0,2,11.7-0.9,14.2"/>
				<path class="st1" d="M760.8,526.3c0,0,2.7,2,1.4,6.8"/>
			</g>
		</g>
	</g>
	<g>
		<path class="st2" d="M804.6,565.3c0.4,0.1,1.6,0.6,2,0.7c0.4,0.1,1.1,0.6,1.4,0.8l38-3l-1.7-18.9l-60.4,5.2l-10.7,0.6
			c5.9,2.4,11.1,5.5,16.8,8.4c3.1,1.6,6.8,3,10.1,4.4"/>
		<path class="st2" d="M729.9,561.5c-0.1-1.1-0.1-2.8,0.7-3.8l-2.4,0.5l0.7,6.7l0.6,6.8l4.7,0.3
			C731.1,569.2,730.2,565.2,729.9,561.5z"/>
		<path class="st2" d="M876.9,561.3c25.8-2.8,46.9-5.7,46.9-5.7l-0.8-8.5l-0.8-8.5c0,0-21.3,1-47.1,2.9c-25.9,1.9-36.2,2.9-36.2,2.9
			l0.9,10.1l0.9,10.1C840.8,565,851.1,564.2,876.9,561.3L876.9,561.3z"/>
		<line class="st1" x1="852.1" y1="560" x2="846.7" y2="560.6"/>
		<line class="st1" x1="920.5" y1="553" x2="856.7" y2="559.6"/>
		<line class="st1" x1="837.8" y1="561" x2="809.2" y2="564"/>
		<path class="st6" d="M841.9,544.4c-2,0.2-3,0.3-3,0.3l1.8,20.3c0,0,0.9,0,3-0.3L841.9,544.4L841.9,544.4z"/>
		
			<rect x="723" y="559.2" transform="matrix(0.9959 -9.065234e-02 9.065234e-02 0.9959 -48.2118 68.1309)" class="st9" width="5.9" height="11.2"/>
		<polygon class="st3" points="722.4,559.4 711.8,563.8 712.1,567.3 723.5,570.7 		"/>
		<polygon class="st8" points="711.7,564.6 708.8,566 711.8,566.6 		"/>
		<path class="st8" d="M927.5,543.9l0.6,6.5c0.2,2-1.2,3.7-3.2,3.8l-1.3,0.1l-1.2-13.5l1.3-0.1C925.5,540.5,927.3,542,927.5,543.9
			L927.5,543.9z"/>
		<path class="st8" d="M920.8,539.1l-1.3-2.7l-68.8,2.9c0,0,0.1,1.5,0.7,1.9s5.5,1.7,8.9,1s4.1-2.1,6.5-2.2
			C869.2,540.1,920.8,539.1,920.8,539.1L920.8,539.1z"/>
	</g>
	<g>
		<path class="st5" d="M825,571.9c0,0-23-6.6-37-13.7c-13.9-7.2-19.6-10.2-22.5-10.2c-2.9,0.1-17,1.8-24,2.8
			c-7,1.1-13.6,4.1-11.2,13.9c2.4,9.7,8,10.3,19.7,14.9s19.1,2.1,19.1,2.1s10.2-0.5,19.9,9.3c9.8,9.8,11.6,15.4,24.1,32.7
			s29.6,20.7,37.8,21"/>
		<path class="st5" d="M752.7,551.3c0,0-6.1,8.7-6.5,12.3c-0.3,3.5,0.9,5.7,0.9,5.7s-5.7,2.3-9.9,0.6s-6.2-7-5.4-10.1
			s3.5-5.6,4.5-6.2C737.3,552.9,752.7,551.3,752.7,551.3L752.7,551.3z"/>
		<path class="st8" d="M760.1,560.1c1.7-5.1,4.3-9.1,4.3-9.1"/>
		<path class="st8" d="M758.6,567.8c0.1-1.5,0.3-3,0.7-4.5"/>
		<path class="st8" d="M764.2,559c0,0-0.6,3.8-2.2,6.8"/>
	</g>
</g>
<g>
	<g>
		<path class="st5" d="M1143,286.5c3.1,6.4,10.1,14.4,17.1,9.4c11,1,20,9,31,8c5-1,5-6,3.3-10.2c3.5-0.5,0.8,2.4,0,0
			c5.8-0.1,15.6-1.1,14.4-9.1s-8.2-9.6-15-10.6c7.4,0,13.5-0.4,20.6,1.9c13.6,4,25.6,11,39.6,14c19,2,37-4,55-6
			c34,8,67,15,100.7,22.8"/>
		<path class="st5" d="M1334.3,225.6c-22.2-2.7-44.2-2.7-65.2-10.7c-19-6-36-16-53-28c-9-5-17-8-27-10c-22,5-42,17-63,26
			c-10,16-11,35-10,53c1,6,2,12,7.5,17.4"/>
		<g>
			<path class="st6" d="M1179.3,280.7c0.1,0,0.1,0,0.2,0.1C1179.4,280.8,1179.3,280.8,1179.3,280.7z"/>
			<path class="st6" d="M1179.2,280.7C1179.2,280.7,1179.3,280.7,1179.2,280.7C1179.3,280.7,1179.2,280.7,1179.2,280.7z"/>
			<path class="st6" d="M1179.1,280.7L1179.1,280.7C1179.2,280.7,1179.1,280.7,1179.1,280.7z"/>
			<path class="st6" d="M1179.4,280.8c0.1,0,0.2,0.1,0.3,0.1C1179.7,280.9,1179.6,280.9,1179.4,280.8z"/>
			<path class="st6" d="M1179.2,280.7L1179.2,280.7L1179.2,280.7z"/>
			<path class="st6" d="M1179.8,281c0.2,0.1,0.4,0.2,0.6,0.3C1180.2,281.1,1179.9,281,1179.8,281z"/>
			<path class="st6" d="M1181.5,281.8C1181.7,281.8,1181.7,281.8,1181.5,281.8L1181.5,281.8z"/>
			<path class="st6" d="M1181.3,281.7c0.1,0,0.2,0.1,0.2,0.1C1181.5,281.7,1181.4,281.7,1181.3,281.7z"/>
			<path class="st6" d="M1181.2,281.6c0.1,0,0.1,0.1,0.2,0.1C1181.3,281.6,1181.2,281.6,1181.2,281.6z"/>
			<path class="st6" d="M1180.3,281.2c0.1,0.1,0.2,0.1,0.4,0.2C1180.6,281.3,1180.5,281.3,1180.3,281.2z"/>
			<path class="st6" d="M1180.7,281.4c0.2,0.1,0.3,0.1,0.4,0.2C1181,281.5,1180.9,281.5,1180.7,281.4z"/>
		</g>
		<g>
			<path class="st5" d="M1162.1,279.8c0,0,3.4,12.1-1.8,15.9"/>
			<path class="st1" d="M1150.8,297c0,0-0.4-2.9,0-5.6c0.5-2.7-2.7-6.8-2.7-6.8"/>
			<path class="st1" d="M1170.7,298.3c0,0-2.7-5.6,1.1-6.1c3.8-0.5,13.8,2.3,13.8,2.3s-0.7,4.5,1.4,8.6"/>
			<path class="st5" d="M1177,279.8c-2.7-1-4.7-1.6-4.7-1.6s-0.2-2-0.9-3.6c-0.7-1.6-2.3-2.7-2.3-2.7"/>
			<path class="st5" d="M1194.4,293.8c0,0-2.2-5.6-5.8-8.6c-2.2-1.8-7.6-3.9-11.5-5.4"/>
			<line class="st5" x1="1166.6" y1="277.5" x2="1169.6" y2="278"/>
			<path class="st1" d="M1188.6,285.2c0,0,0-2.7,4.8-2.9c4.8-0.2,10.2-1.6,11.1,0.2c0.9,1.8,2,6.1,0.9,7.7
				c-1.1,1.6-10.4,1.6-10.4,1.6"/>
			<path class="st5" d="M1186.5,273.5c0,0-1.1-2-3.4-3.6s-3.6-2-3.6-2"/>
			<g>
				<path class="st5" d="M1136.1,257.6c0,0,1.1-5.6,0-10.2c-1.1-4.5-1.8-7-1.8-7s3.4-3.6,5.2-7.2c1.8-3.6,4.8-10,4.8-10
					s9.7-2.3,14.7-3.6c5-1.3,10.6-5,10.6-5s1.1,3.6,2.7,5.6"/>
				<path class="st1" d="M1151.3,240c1.2,0.8,2.5,1.4,4,1.8"/>
				<path class="st1" d="M1146.1,234.3c0,0,1,1.9,3,3.8"/>
				<path class="st1" d="M1169.5,206c-0.1-2.8,0.1-6,1.2-8.5"/>
				<path class="st1" d="M1170.3,212.2c0,0-0.2-1-0.4-2.5"/>
				<path class="st1" d="M1135.9,211.7c0,0,9,7.7,8.4,11.5"/>
				<path class="st1" d="M1127.1,234.8c0,0,3.4-0.2,5.4,4.3"/>
			</g>
		</g>
	</g>
	<g>
		<path class="st2" d="M1185.7,236.7c0.4-0.2,1.6-0.6,2-0.7c0.4-0.1,1.2-0.2,1.6-0.3l27.2-26.6l-13.4-13.4l-43.1,42.7l-7.9,7.4
			c6.1-1.9,12-2.9,18.2-4.3c3.4-0.8,7.2-2.1,10.6-3.1"/>
		<path class="st2" d="M1125.8,281.6c-0.8-0.8-1.8-2.1-1.9-3.4l-1.5,1.9l4.8,4.7l4.8,4.8l3.7-2.8
			C1131.7,286.8,1128.5,284.3,1125.8,281.6z"/>
		<path class="st2" d="M1238.7,187.4c18-18.7,32.4-34.4,32.4-34.4l-6-6l-6-6c0,0-15.7,14.4-34.3,32.4c-18.7,18-25.9,25.4-25.9,25.4
			l7.2,7.2l7.2,7.2C1213.3,213.3,1220.7,206.1,1238.7,187.4L1238.7,187.4z"/>
		<line class="st1" x1="1218.8" y1="202.3" x2="1215" y2="206.2"/>
		<line class="st1" x1="1266.9" y1="153.1" x2="1222.1" y2="199"/>
		<line class="st1" x1="1208.4" y1="212.2" x2="1188.4" y2="232.8"/>
		<path class="st6" d="M1200.9,196.8c-1.4,1.4-2.1,2.1-2.1,2.1l14.4,14.4c0,0,0.7-0.6,2.1-2.1L1200.9,196.8L1200.9,196.8z"/>
		
			<rect x="1122" y="281.2" transform="matrix(0.7071 -0.7071 0.7071 0.7071 126.7056 879.415)" class="st7" width="5.9" height="11.2"/>
		<polygon class="st3" points="1118.8,284.8 1113.4,295 1115.9,297.5 1126.8,292.8 		"/>
		<polygon class="st8" points="1113.9,295.7 1112.5,298.6 1115.2,297.1 		"/>
		<path class="st8" d="M1266.4,141.6l4.6,4.6c1.4,1.4,1.4,3.6,0,5l-0.9,0.9l-9.6-9.6l0.9-0.9C1262.7,140.3,1265,140.3,1266.4,141.6
			L1266.4,141.6z"/>
		<path class="st8" d="M1258.2,142.2l-2.7-1.2l-51,46.3c0,0,1.1,1.1,1.7,1c0.6-0.1,5.3-2.2,7.5-4.9s1.8-4.2,3.6-5.8
			C1219.2,176,1258.2,142.2,1258.2,142.2L1258.2,142.2z"/>
	</g>
	<g>
		<path class="st5" d="M1205.6,228.8c0,0-21.9,9.7-37.2,13.1c-15.3,3.4-21.6,4.7-23.8,6.6c-2.2,1.9-11.9,12.2-16.6,17.5
			c-4.7,5.3-7.8,11.9,0.3,17.8c8.1,5.9,12.8,2.8,24.7-1.2s16-10.6,16-10.6s7.5-6.9,21.3-5.6c13.8,1.2,18.8,4.4,39.4,9.7
			c20.6,5.3,36-3.1,42.5-8.1"/>
		<path class="st5" d="M1136.8,259.2c0,0,0.9,10.6,2.9,13.6c2,2.9,4.3,3.8,4.3,3.8s-2.9,5.4-7.2,6.8c-4.3,1.4-9.3-1.4-10.6-4.3
			c-1.3-2.9-0.9-6.6-0.5-7.7C1126.1,270.3,1136.8,259.2,1136.8,259.2L1136.8,259.2z"/>
		<path class="st8" d="M1148.2,261.2c-1.9-5-2.5-9.7-2.5-9.7"/>
		<path class="st8" d="M1152,268.1c-0.9-1.2-1.7-2.5-2.4-3.9"/>
		<path class="st8" d="M1150.6,257.8c0,0,2,3.3,2.7,6.6"/>
	</g>
</g>
<g>
	<g>
		<path class="st10" d="M503.4,704.7c2.9-4.3,9.9-5.3,13.9-2.3c3,3,3,8,2,13c-4,32-16,61-31,89c-4,8-14,12-21,19c-5,12-9,25-11,38
			c-1,10,0,21-0.1,31.2"/>
		<path class="st10" d="M396.4,898c3.2-18.8,7.2-36.8,9.2-55.8c1-5,4-8,4-13c0-4,0-8,0-12c-2-17-12-32-9.6-49.7"/>
		<path class="st1" d="M425.5,782.5c-0.5,1.6-0.2,3.4,1.3,4.3"/>
		<path class="st11" d="M464.6,951.4c5.4,1.5,11.4-1.5,15.4,1.5c3,4,8,5,12,6c6,0,10-5,14-9c-1,2-2,4-1,5s3,2,5,1
			c9-7,14-20,7.2-30.3c2.3,2.2,1.1,2.5,0,0c3.8,2.3,7.8,9.3,11.8,4.3c-1-7-1-14-3-21c-10-8-24-22-36-12c-7,7-11,17-14.8,26.2"/>
		<path class="st1" d="M461.7,827.6c1.4-1.7,3.1-3.7,3.1-3.7"/>
		<path class="st1" d="M428.8,837.7c0,0,9.2,4.6,15,2.5c3.9-1.4,9.8-5.7,13.7-8.9"/>
		<path class="st1" d="M462.5,814.8c0.2,1.1,0.3,2.3,0.2,3.4"/>
		<path class="st1" d="M455.1,800.8c0,0,4.6,5.3,6.7,11.3"/>
	</g>
	<g>
		<path class="st2" d="M481.7,689.4c1,0.2,1.7,0.7,2.3,1.3c0.2,0.2,0.4,0.4,0.6,0.6c1,0.3,1.8,0.8,2.3,1.6c0.3,0.1,0.6,0.2,0.9,0.3
			L446.3,629c-1.6-2.6-4.3-2.9-6.9-1.2c-2.6,1.6-4.1,4.5-2.5,7.1l30,49.7c0.5-0.2,1-0.2,1.6-0.2c0.4,0,0.7,0,1.1,0.1
			c0.6-0.3,1.4-0.5,2.2-0.5c1.8,0,3,0.8,3.8,1.8c0.5,0.2,0.9,0.5,1.3,0.8c0.8,0.2,1.5,0.7,2.1,1.2
			C480.2,688.1,481.1,688.7,481.7,689.4z"/>
		<path class="st2" d="M525.6,751.8l-13.3-20.7c-0.6,0.7-1.5,1.2-2.6,1.4c-0.6,0.4-1.4,0.6-2.3,0.7c-0.5,0.2-1.2,0.3-1.8,0.3
			c-1.1,0-2-0.3-2.8-0.8c-0.7-0.2-1.3-0.5-1.8-0.9c-0.3-0.1-0.7-0.3-1-0.5c-0.6-0.2-1.1-0.5-1.6-0.9c-0.9-0.5-1.6-1.2-2-2
			c-0.9-0.4-1.6-1-2.1-1.8c-1.1-0.6-1.8-1.6-2.2-2.7c-0.1-0.1-0.2-0.1-0.2-0.2c0,0,0,0-0.1-0.1c-0.3-0.3-0.5-0.7-0.8-1l0,0
			c0,0,0-0.1-0.1-0.1c0-0.1-0.1-0.2-0.1-0.2c-0.1-0.3-0.3-0.5-0.4-0.8c-0.2-0.3-0.5-0.7-0.6-0.8c-1.1-0.6-1.8-1.6-2.2-2.7
			c-0.3-0.4-0.5-0.8-0.7-1.2c-0.4-0.2-0.7-0.5-1-0.8l26.6,44c1.6,2.6,4.5,3.9,7.3,3.6l0,0c1.1-0.1,2.3-0.5,3.3-1.1
			C526.8,760.1,527.9,755.4,525.6,751.8z"/>
		<g>
			<path class="st8" d="M531.4,775.6l-5.1-22.5h-0.1c-0.1-0.1-0.1-0.3-0.2-0.5c-1.7-2.8-5.9-3.2-9.5-1.1c-3.6,2.2-5.2,6.2-3.5,9
				c0.4,0.7,1,1.3,1.7,1.7L531.4,775.6L531.4,775.6z"/>
			<path class="st2" d="M531.4,775.6l-3.1-13.5c-1.4-0.6-2.8-0.5-4.5,0.5s-2.8,2.7-2.9,4.2L531.4,775.6z"/>
		</g>
	</g>
	<g>
		<path class="st12" d="M446.2,711.5c0,0,4.7-7,5.3-8s11.9-16.9,14.4-18.5c2.5-1.7,8-1,8-1s22,13.3,23.3,14.6c1.3,1.3,6,4.9,7.7,8
			c1.7,3.2,12,15.5,11.2,19.8c-0.8,4.4-7.3,7.6-11.9,6.9s-10.6-6.8-12.6-9.7c-1.9-2.9-4.4-6.2-4.4-6.2l-6.4-2.7l-2.6-3
			c0.4-1.2-8.3-10.7-18.1-5.5c-9.2,3.1-16.3,6.2-16.2,6.2L446.2,711.5z"/>
		<path class="st1" d="M508.5,712.7c0,0-2-1-4.6,1.4c-2.6,2.4-3.9,4.4-3.9,4.4s0,5,5.3,7.8s7.8,2.1,8.7,1.3"/>
		<path class="st1" d="M498.2,703c0,0-4.1,1.6-4.8,4"/>
		<line class="st1" x1="500.8" y1="704.9" x2="497.8" y2="706.1"/>
		<path class="st1" d="M473,685.9c0,0-4.1,1.6-5.7,4.8"/>
		<path class="st1" d="M471.7,689.6c0,0,2.5-1,3.8-2.3"/>
	</g>
	<g>
		<path class="st13" d="M500.3,750.9c0-1.9,0.9-6.8-1.5-12.7c-2.4-5.9-18.2-23.6-18.2-23.6s-8.2-11.3-15.2-9.9
			c-7,1.4-24.8,9.1-24.8,9.1s-18.7,5.8-20.4,10.3c-1.1,2.8-0.9,6.2-0.6,8.3c0.4,0,0.8,0.1,1.1,0.2c0.4-0.1,0.7-0.1,1.1-0.1
			c6.9,0,13.9-0.4,20.7,0.5c0.5,0.1,1,0.3,1.4,0.5c5,0,10,0,15,0c0.9,0,1.6,0.2,2.3,0.5l0,0c1,0,1.8,0.3,2.5,0.7l2.8,0.3l5.1,3.5
			l8.3,9.4c0,0,3.7,10.5,5.6,13.2s4.9,6.2,8.9,5.8c4-0.4,7.6-2.4,7.6-5.3C502,758.8,500.3,752.8,500.3,750.9z"/>
		<path class="st1" d="M468.2,707.1c0,0-3.9,1.1-5.6,8.2"/>
		<path class="st1" d="M471.5,708.7c0,0-1.6,2.5-2.7,3.6"/>
		<path class="st1" d="M466.7,735.1c0,0-3.8-2.2-4.2-6.7"/>
		<path class="st1" d="M499.6,753c0,0-2.1,2.8-3.9,4c-1.8,1.1-3.8,2-3.8,2s-2.1,2.8,0.3,5.4"/>
	</g>
	<g>
		<path class="st14" d="M431.3,757.6l19.1,3.4l3.7-0.4h2.4c0,0,3.4,5.5,5,7.5c1.5,2,6.6,8.1,5.8,10.5c-0.8,2.5,2.3,7.7,5.1,11.1
			c2.7,3.4,7.2,0.4,7.9-2.9c0.7-3.2,2-3.9,3.8-6.7c1.8-2.8,2.6-6.1,1.2-12c-1.4-5.9-13.7-26.2-16.7-30.1s-4.3-5.7-20.3-5.2
			c-16.1,0.5-29.6-0.3-29.6-0.3s-7.6,0.7-9.9,6.5s-3.9,19.2-3.9,19.2s-4.2,4.6-4.7,9.6c-0.4,3.7-0.2,0.7-0.6,6.5"/>
		<path class="st1" d="M479.8,784.7c0,0-1.2,2-3.4,1.8c-2.2-0.3-3.7-0.8-3.7-0.8s-0.6,3.1,0.9,4.7"/>
		<path class="st1" d="M456.9,744.8c0,0,3.4-6.5,6.1-8.2"/>
		<path class="st1" d="M465,739.5c0,0-1.8,3.3-3.6,4.6"/>
		<path class="st1" d="M477.1,778c0,0,3.1-0.3,5.4-3.1"/>
	</g>
	<g>
		<g>
			<path class="st10" d="M411.7,789.4c0,0,8.2,2.6,13.1-1c4.9-3.7,6.8-6,6.8-6s6.5,1.5,8.3,1l1.8-0.4l7.2,3.8c0,0-1.4,4.4,1.1,6.2
				c2.6,1.9,9.1,1.2,13-2.3s5.1-10,4.1-12s-7.4-7.7-11-12.1c-3.6-4.4-5.9-5.8-8.8-6.3s-19.6-3.1-20.4-3.3s-2.2-0.6-2.2-0.6"/>
			<path class="st10" d="M431.6,782.4c0,0-9.4,1.2-12.6-4.1"/>
			<path class="st10" d="M417.5,783.8c0,0,6.7,3.8,11.9,0.4"/>
			<path class="st10" d="M449,786.8c0,0,1.6,2.8,5.7,1.8"/>
		</g>
		<path class="st1" d="M450.1,765.5c0,0-1.4,0.6-1.8,3.7c-0.4,3.1-0.4,5.5-0.4,5.5"/>
		<line class="st1" x1="450.9" y1="768.2" x2="450" y2="771.4"/>
	</g>
</g>
</svg>
