<?xml version="1.0" encoding="UTF-8"?>
<svg xmlns="http://www.w3.org/2000/svg" xmlns:xlink="http://www.w3.org/1999/xlink" viewBox="0 0 200 200">
  <defs>
    <style>
      .cls-1 {
        clip-path: url(#clippath-20);
      }

      .cls-2 {
        clip-path: url(#clippath-11);
      }

      .cls-3 {
        clip-path: url(#clippath-16);
      }

      .cls-4 {
        fill: #fff;
      }

      .cls-5 {
        fill: #d54c41;
      }

      .cls-6 {
        fill: #ff735d;
      }

      .cls-7 {
        fill: #9d9ece;
      }

      .cls-8, .cls-9 {
        fill: #ded2da;
      }

      .cls-10 {
        opacity: .6;
      }

      .cls-11 {
        fill: #f5f5f5;
      }

      .cls-12 {
        clip-path: url(#clippath-2);
      }

      .cls-13 {
        clip-path: url(#clippath-13);
      }

      .cls-14 {
        isolation: isolate;
      }

      .cls-15 {
        fill: #7579b6;
      }

      .cls-16 {
        fill: #beafbe;
      }

      .cls-17 {
        fill: #ffbf9d;
      }

      .cls-18 {
        clip-path: url(#clippath-15);
      }

      .cls-19 {
        clip-path: url(#clippath-6);
      }

      .cls-20 {
        fill: #ff9a6c;
      }

      .cls-21 {
        fill: #2a1a30;
      }

      .cls-22 {
        fill: #00697e;
      }

      .cls-23 {
        fill: #5f639b;
      }

      .cls-24 {
        clip-path: url(#clippath-7);
      }

      .cls-25 {
        clip-path: url(#clippath-21);
      }

      .cls-26 {
        clip-path: url(#clippath-1);
      }

      .cls-27 {
        clip-path: url(#clippath-4);
      }

      .cls-28 {
        fill: #e1e1e1;
      }

      .cls-29 {
        fill: #f05850;
      }

      .cls-30 {
        clip-path: url(#clippath-12);
      }

      .cls-31 {
        fill: #f0eaee;
      }

      .cls-32 {
        fill: #8e90c5;
      }

      .cls-33 {
        clip-path: url(#clippath-9);
      }

      .cls-34 {
        fill: #f0f0f2;
      }

      .cls-35 {
        clip-path: url(#clippath);
      }

      .cls-36 {
        fill: #375a64;
      }

      .cls-37 {
        fill: none;
      }

      .cls-38 {
        clip-path: url(#clippath-19);
      }

      .cls-39 {
        fill: #4b3154;
      }

      .cls-40 {
        clip-path: url(#clippath-3);
      }

      .cls-41 {
        fill: url(#New_Gradient_Swatch_copy);
      }

      .cls-42 {
        clip-path: url(#clippath-8);
      }

      .cls-43 {
        fill: #f2665d;
      }

      .cls-9 {
        mix-blend-mode: multiply;
        opacity: .2;
      }

      .cls-44 {
        fill: #d7cbd4;
      }

      .cls-45 {
        fill: #00a695;
      }

      .cls-46 {
        clip-path: url(#clippath-18);
      }

      .cls-47 {
        clip-path: url(#clippath-14);
      }

      .cls-48 {
        clip-path: url(#clippath-17);
      }

      .cls-49 {
        clip-path: url(#clippath-5);
      }

      .cls-50 {
        clip-path: url(#clippath-10);
      }

      .cls-51 {
        fill: #ebe0e7;
      }

      .cls-52 {
        fill: #ececec;
      }

      .cls-53 {
        fill: #1a2e35;
      }

      .cls-54 {
        fill: #f7736a;
      }
    </style>
    <clipPath id="clippath">
      <path class="cls-8" d="M24.72,114.06l1.92,1.01c-.41-.21-.67-.69-.7-1.39l-1.92-1.01c.03,.7,.3,1.18,.7,1.39Z"/>
    </clipPath>
    <clipPath id="clippath-1">
      <path class="cls-37" d="M44.51,42.73l1.92,1.01c.6-.38,1.15-.44,1.56-.22l-1.92-1.01c-.17-.09-.37-.13-.59-.12-.3,.01-.63,.12-.98,.34Z"/>
    </clipPath>
    <linearGradient id="New_Gradient_Swatch_copy" data-name="New Gradient Swatch copy" x1="24.23" y1="102.15" x2="30.44" y2="60.52" gradientTransform="translate(62.01 -.05) rotate(177.6) scale(1 -1)" gradientUnits="userSpaceOnUse">
      <stop offset="0" stop-color="#9796f0"/>
      <stop offset=".17" stop-color="#9f9aed"/>
      <stop offset=".44" stop-color="#b7a5e6"/>
      <stop offset=".78" stop-color="#deb8dc"/>
      <stop offset="1" stop-color="#fbc7d4"/>
    </linearGradient>
    <clipPath id="clippath-2">
      <path class="cls-34" d="M45.93,116.44l22.02-14.04c-.8,.51-1.93,.49-3.21-.18-2.54-1.33-4.7-4.73-4.81-7.58l-22.02,14.04c.11,2.85,2.27,6.25,4.81,7.58,1.28,.67,2.41,.69,3.21,.18Z"/>
    </clipPath>
    <clipPath id="clippath-3">
      <path class="cls-34" d="M46.22,116.89l22.02-14.04c.85-.55,1.35-1.65,1.29-3.19l-22.02,14.04c.06,1.54-.44,2.64-1.29,3.19Z"/>
    </clipPath>
    <clipPath id="clippath-4">
      <path class="cls-34" d="M70.71,93.85l-22.01,14.04c-.85,.54-1.34,1.64-1.28,3.16l22.02-14.04c-.06-1.52,.44-2.62,1.28-3.16Z"/>
    </clipPath>
    <clipPath id="clippath-5">
      <path class="cls-34" d="M37.17,89.73l22.02-14.04c-.27-7-5.57-15.34-11.8-18.6l-22.02,14.04c6.23,3.26,11.53,11.6,11.8,18.6Z"/>
    </clipPath>
    <clipPath id="clippath-6">
      <path class="cls-34" d="M70.42,93.4l-22.01,14.04c.93-.59,2.24-.57,3.73,.21,2.95,1.54,5.45,5.49,5.58,8.8,.18,4.58,3.64,10.03,7.72,12.17l22.01-14.04c-4.08-2.13-7.54-7.59-7.72-12.17-.13-3.31-2.63-7.25-5.58-8.8-1.48-.78-2.8-.8-3.73-.21Z"/>
    </clipPath>
    <clipPath id="clippath-7">
      <path class="cls-8" d="M21.3,101.81l.55,.29c-.25-.13-.41-.43-.43-.86l-.55-.29c.02,.43,.18,.72,.43,.86Z"/>
    </clipPath>
    <clipPath id="clippath-8">
      <path class="cls-34" d="M30.61,80.29l-.55-.29c-.25-.13-.59-.1-.96,.14l.55,.29c.37-.23,.71-.27,.96-.14Z"/>
    </clipPath>
    <clipPath id="clippath-9">
      <path class="cls-34" d="M22.07,85.23l-.55-.29c-.73,.47-1.3,1.54-1.26,2.4l.55,.29c-.04-.86,.52-1.94,1.26-2.4Z"/>
    </clipPath>
    <clipPath id="clippath-10">
      <path class="cls-44" d="M14.74,82.12l.63,.33c-.29-.15-.47-.49-.5-.98l-.63-.33c.02,.49,.21,.83,.5,.98Z"/>
    </clipPath>
    <clipPath id="clippath-11">
      <path class="cls-34" d="M22.67,68.93l-.63-.33c-.29-.15-.68-.11-1.1,.15l.63,.33c.42-.27,.81-.31,1.1-.15Z"/>
    </clipPath>
    <clipPath id="clippath-12">
      <path class="cls-34" d="M16.03,72.6l-.63-.33c-.84,.53-1.48,1.76-1.44,2.75l.63,.33c-.04-.98,.6-2.22,1.44-2.75Z"/>
    </clipPath>
    <clipPath id="clippath-13">
      <path class="cls-7" d="M54.04,43.69l-.54-.29c-.25-.13-.58-.1-.94,.13l.54,.29c.36-.23,.7-.26,.94-.13Z"/>
    </clipPath>
    <clipPath id="clippath-14">
      <path class="cls-23" d="M44.13,57.3l.54,.29c-.24-.13-.41-.42-.42-.84l-.54-.29c.02,.42,.18,.71,.42,.84Z"/>
    </clipPath>
    <clipPath id="clippath-15">
      <path class="cls-23" d="M45.23,48.82l-.54-.29c-.72,.46-1.27,1.51-1.23,2.36l.54,.29c-.04-.85,.51-1.9,1.23-2.36Z"/>
    </clipPath>
    <clipPath id="clippath-16">
      <path class="cls-29" d="M53.95,75.95l.54,.29c-.24-.13-.41-.42-.42-.84l-.54-.29c.02,.42,.18,.71,.42,.84Z"/>
    </clipPath>
    <clipPath id="clippath-17">
      <path class="cls-54" d="M61.51,64.16l-.54-.29c-.25-.13-.58-.1-.94,.13l.54,.29c.36-.23,.7-.26,.94-.13Z"/>
    </clipPath>
    <clipPath id="clippath-18">
      <path class="cls-54" d="M55.06,67.78l-.54-.29c-.72,.46-1.27,1.51-1.23,2.36l.54,.29c-.04-.84,.51-1.9,1.23-2.36Z"/>
    </clipPath>
    <clipPath id="clippath-19">
      <path class="cls-54" d="M72.24,78.43l.61,.32c-.21-.11-.49-.08-.79,.11l-.61-.32c.3-.19,.58-.22,.79-.11Z"/>
    </clipPath>
    <clipPath id="clippath-20">
      <path class="cls-54" d="M61.44,93.6l-.61-.32c-.2-.11-.34-.35-.35-.7l.61,.32c.02,.35,.15,.59,.35,.7Z"/>
    </clipPath>
    <clipPath id="clippath-21">
      <path class="cls-54" d="M60.84,87.3l-.61-.32c-.03-.71,.43-1.59,1.03-1.97l.61,.32c-.6,.38-1.06,1.26-1.03,1.97Z"/>
    </clipPath>
  </defs>
  <g class="cls-14">
    <g id="Layer_1" data-name="Layer 1">
      <g id="writing">
        <g>
          <g>
            <g class="cls-14">
              <polygon class="cls-44" points="22.85 110.52 22.91 112.03 13.46 118.07 13.39 116.56 22.85 110.52"/>
              <polygon class="cls-51" points="13.39 116.56 13.46 118.07 3.47 112.85 3.41 111.34 13.39 116.56"/>
              <polygon class="cls-34" points="22.85 110.52 13.39 116.56 3.41 111.34 12.86 105.3 22.85 110.52"/>
            </g>
            <g class="cls-14">
              <polygon class="cls-44" points="22.94 108.51 23.01 110.02 13.55 116.06 13.49 114.55 22.94 108.51"/>
              <polygon class="cls-51" points="13.49 114.55 13.55 116.06 3.56 110.83 3.5 109.32 13.49 114.55"/>
              <polygon class="cls-34" points="22.94 108.51 13.49 114.55 3.5 109.32 12.96 103.29 22.94 108.51"/>
            </g>
            <g class="cls-14">
              <polygon class="cls-44" points="24.7 107.28 24.76 108.79 15.31 114.82 15.25 113.31 24.7 107.28"/>
              <polygon class="cls-51" points="15.25 113.31 15.31 114.82 5.32 109.6 5.26 108.09 15.25 113.31"/>
              <polygon class="cls-34" points="24.7 107.28 15.25 113.31 5.26 108.09 14.71 102.05 24.7 107.28"/>
            </g>
            <g class="cls-14">
              <polygon class="cls-44" points="24.62 105.35 24.68 106.86 15.23 112.9 15.17 111.39 24.62 105.35"/>
              <polygon class="cls-51" points="15.17 111.39 15.23 112.9 5.24 107.68 5.18 106.17 15.17 111.39"/>
              <polygon class="cls-34" points="24.62 105.35 15.17 111.39 5.18 106.17 14.63 100.13 24.62 105.35"/>
            </g>
            <g class="cls-14">
              <polygon class="cls-44" points="24.53 103.18 24.59 104.69 15.14 110.72 15.08 109.21 24.53 103.18"/>
              <polygon class="cls-51" points="15.08 109.21 15.14 110.72 5.15 105.5 5.09 103.99 15.08 109.21"/>
              <polygon class="cls-34" points="24.53 103.18 15.08 109.21 5.09 103.99 14.54 97.96 24.53 103.18"/>
            </g>
            <path class="cls-29" d="M15.71,105.21c.14,.19,.23,.29,.25,.31,.05,.05,.11,.09,.17,.13,.11,.06,.23,.08,.37,.06,.19-.03,.42-.13,.7-.3l.14-.09,.2,.11-3.41,2.17-.2-.11c.2-.15,.3-.29,.3-.42,0-.18-.16-.49-.49-.95l-3.53-4.79,.1-.06,8.43,1.49c.8,.14,1.38,.21,1.72,.2,.34,0,.66-.08,.95-.22l.2,.11-2.35,1.49-.2-.11c.34-.25,.53-.42,.56-.51,.06-.15-.01-.28-.22-.39-.16-.08-.4-.15-.74-.22l-1.02-.19-2.49,1.58,.55,.72Zm1.36-2.4l-3.63-.65,1.5,2,2.13-1.35Z"/>
          </g>
          <g>
            <g>
              <polygon class="cls-8" points="23.58 60.85 21.65 59.84 24.01 112.67 25.94 113.68 23.58 60.85"/>
              <path class="cls-31" d="M26.1,58.03c-.79,.5-1.4,1.67-1.36,2.6l2.36,52.83c.04,.93,.72,1.28,1.51,.78l20.82-13.21c.79-.5,1.4-1.67,1.36-2.6l-2.36-52.83c-.04-.93-.72-1.28-1.51-.78l-20.82,13.21Z"/>
              <path class="cls-21" d="M38.27,51.75l-3.83,2.43c-.15,.09-.28,.03-.28-.15s.11-.4,.26-.49l3.83-2.43c.15-.09,.28-.03,.28,.15s-.11,.4-.26,.49Z"/>
              <path class="cls-21" d="M39.84,50.4c.01,.26-.16,.58-.37,.71-.22,.14-.4,.04-.41-.22s.16-.58,.37-.71c.22-.14,.4-.04,.41,.22Z"/>
              <path class="cls-34" d="M44.51,42.73l-20.82,13.21c-.18,.12-.36,.26-.53,.42-.35,.33-.65,.74-.9,1.18l1.92,1.01c.25-.44,.55-.85,.9-1.18,.17-.16,.35-.3,.53-.42l20.82-13.21-1.92-1.01Z"/>
              <path class="cls-31" d="M25.62,56.95l-1.92-1.01c-1.19,.75-2.1,2.5-2.04,3.9l1.92,1.01c-.06-1.4,.85-3.15,2.04-3.9Z"/>
              <path class="cls-8" d="M24.72,114.06l1.92,1.01c-.41-.21-.67-.69-.7-1.39l-1.92-1.01c.03,.7,.3,1.18,.7,1.39Z"/>
              <g>
                <path class="cls-8" d="M24.72,114.06l1.92,1.01c-.41-.21-.67-.69-.7-1.39l-1.92-1.01c.03,.7,.3,1.18,.7,1.39Z"/>
                <g class="cls-35">
                  <path class="cls-9" d="M25.94,113.68l-1.92-1.01c.03,.7,.3,1.17,.7,1.39l1.92,1.01c-.41-.21-.67-.69-.7-1.39Z"/>
                </g>
              </g>
              <path class="cls-34" d="M48,43.52l-1.92-1.01c-.41-.22-.97-.16-1.56,.22l1.92,1.01c.6-.38,1.15-.44,1.56-.22Z"/>
              <g class="cls-26">
                <path class="cls-34" d="M48,43.52l-1.92-1.01c-.25-.13-.55-.16-.88-.08l1.92,1.01c.33-.08,.63-.05,.88,.08Z"/>
                <path class="cls-34" d="M47.12,43.44l-1.92-1.01c-.22,.05-.44,.15-.68,.3l1.92,1.01c.24-.15,.46-.25,.68-.3Z"/>
              </g>
            </g>
            <path class="cls-31" d="M48.7,44.91c0-.22-.04-.42-.1-.6-.13-.41-.36-.69-.67-.82-.28-.12-.63-.13-1,0-.16,.06-.32,.14-.49,.25l-20.82,13.21c-.93,.59-1.69,1.79-1.95,2.96-.07,.32-.1,.64-.09,.94l2.36,52.83c0,.15,.02,.29,.05,.42,.09,.44,.3,.76,.59,.93,.42,.26,1,.22,1.63-.18l20.82-13.21c1.19-.75,2.1-2.5,2.04-3.9l-2.36-52.83Zm.72,56.12l-20.82,13.21c-.42,.27-.81,.29-1.08,.12-.19-.12-.33-.33-.39-.62-.02-.09-.03-.18-.03-.28l-2.36-52.83c0-.2,.01-.41,.06-.63,.17-.78,.68-1.58,1.3-1.97l20.82-13.21c.11-.07,.22-.13,.33-.16,.25-.09,.48-.09,.67,0,.21,.09,.36,.28,.45,.55,.04,.12,.06,.25,.07,.4l2.36,52.83c.04,.93-.57,2.1-1.36,2.6Z"/>
            <path class="cls-41" d="M24.77,62.73l2.27,50.76c.01,.28,.08,.51,.2,.68,.26,.39,.76,.46,1.31,.1l20.82-13.21c.11-.07,.21-.15,.31-.24,.63-.57,1.09-1.56,1.05-2.36l-2.27-50.76c-.04-.93-.72-1.28-1.51-.78l-20.82,13.21c-.61,.39-1.11,1.17-1.29,1.93-.05,.23-.08,.46-.07,.67Z"/>
          </g>
          <g>
            <g class="cls-14">
              <g class="cls-14">
                <path class="cls-34" d="M45.93,116.44l22.02-14.04c-.8,.51-1.93,.49-3.21-.18-2.54-1.33-4.7-4.73-4.81-7.58l-22.02,14.04c.11,2.85,2.27,6.25,4.81,7.58,1.28,.67,2.41,.69,3.21,.18Z"/>
                <g class="cls-12">
                  <g class="cls-14">
                    <path class="cls-8" d="M45.93,116.44l22.02-14.04c-.49,.32-1.12,.43-1.82,.31l-22.02,14.04c.71,.12,1.33,0,1.82-.31Z"/>
                    <path class="cls-8" d="M44.11,116.75l22.02-14.04c-.43-.07-.9-.23-1.39-.49-.81-.42-1.58-1.06-2.26-1.82l-22.01,14.04c.68,.76,1.45,1.39,2.26,1.82,.49,.25,.95,.41,1.39,.49Z"/>
                    <path class="cls-16" d="M48.33,113.26c-.02,.34-.07,.67-.17,.99-.04,.13-.05,.2-.15,.26-.23,.15-.46,.29-.69,.44-.32,.2-.64,.41-.95,.61-.22,.14-.44,.31-.67,.43-.1,.05-.18,.03-.3,.01-.33-.05-.65-.14-.95-.26,1.13-.72,2.26-1.44,3.39-2.17,.16-.1,.33-.21,.49-.31Z"/>
                    <path class="cls-16" d="M48.3,112.08c-.66,.42-1.31,.84-1.97,1.26-.9,.57-1.8,1.15-2.69,1.72-.05,.03-.17,.14-.23,.14-.06,0-.18-.11-.22-.15-.11-.08-.22-.16-.33-.24-.24-.18-.46-.38-.67-.58,.68-.44,1.37-.87,2.05-1.31,1.08-.69,2.17-1.38,3.25-2.08,.25-.16,.5-.32,.75-.48,.02,.57,.04,1.14,.07,1.72Z"/>
                    <path class="cls-31" d="M40.46,114.45l22.01-14.04c-1.45-1.62-2.47-3.82-2.55-5.76l-22.02,14.04c.08,1.94,1.1,4.14,2.55,5.76Z"/>
                    <path class="cls-16" d="M60.28,99.86c-.36,.23-.71,.46-1.07,.68-.86,.55-1.71,1.09-2.57,1.64-1.03,.66-2.05,1.31-3.08,1.97-.89,.57-1.78,1.14-2.67,1.7-.42,.27-.85,.54-1.27,.81,0,0,0,0-.01,0-.4,.22-.76,.69-.98,1.13-.07,.14-.12,.28-.17,.42-.05,.16-.07,.34-.13,.5-.03,.08,0,.04-.05,.09-.1,.09-.24,.15-.35,.22-.21,.14-.43,.27-.64,.41-1.29,.82-2.57,1.64-3.86,2.46-.53,.34-1.06,.68-1.59,1.01-.15,.09-.29,.19-.44,.28-.02,.01-.07,.06-.09,.06,0,0,0,0-.01,0-.04,0-.16-.21-.19-.24-.06-.08-.12-.17-.18-.25-.11-.16-.22-.32-.33-.49-.03-.05-.26-.35-.24-.4,0,0,.02,0,.02-.01,.02-.03,.11-.07,.15-.09,.22-.14,.44-.28,.66-.42,.85-.54,1.71-1.09,2.56-1.63,1.21-.77,2.43-1.55,3.64-2.32,1.36-.87,2.73-1.74,4.09-2.61,1.29-.83,2.59-1.65,3.88-2.48,1.01-.64,2.01-1.28,3.02-1.93,.33-.21,.66-.42,.99-.63,.17-.11,.34-.25,.53-.34,.02-.01,.05-.03,.07-.04,.1,.17,.2,.34,.31,.5Z"/>
                  </g>
                </g>
              </g>
              <g class="cls-14">
                <path class="cls-34" d="M46.22,116.89l22.02-14.04c.85-.55,1.35-1.65,1.29-3.19l-22.02,14.04c.06,1.54-.44,2.64-1.29,3.19Z"/>
                <g class="cls-40">
                  <g class="cls-14">
                    <path class="cls-16" d="M46.22,116.89l22.02-14.04c.85-.55,1.35-1.65,1.29-3.19l-22.02,14.04c.06,1.54-.44,2.64-1.29,3.19Z"/>
                  </g>
                </g>
              </g>
              <polygon class="cls-16" points="47.51 113.71 69.53 99.67 69.42 97.01 47.41 111.04 47.51 113.71"/>
              <g class="cls-14">
                <path class="cls-34" d="M70.71,93.85l-22.01,14.04c-.85,.54-1.34,1.64-1.28,3.16l22.02-14.04c-.06-1.52,.44-2.62,1.28-3.16Z"/>
                <g class="cls-27">
                  <g class="cls-14">
                    <path class="cls-16" d="M47.41,111.04l2.75-1.76,19.26-12.28c-.06-1.52,.44-2.62,1.28-3.16l-22.01,14.04c-.85,.54-1.34,1.64-1.28,3.16Z"/>
                  </g>
                </g>
              </g>
              <polygon class="cls-31" points="37.91 108.69 59.93 94.65 59.19 75.7 37.17 89.73 37.91 108.69"/>
              <g class="cls-14">
                <path class="cls-34" d="M37.17,89.73l22.02-14.04c-.27-7-5.57-15.34-11.8-18.6l-22.02,14.04c6.23,3.26,11.53,11.6,11.8,18.6Z"/>
                <g class="cls-49">
                  <g class="cls-14">
                    <path class="cls-34" d="M37.17,89.73l22.02-14.04c-.19-4.76-2.7-10.15-6.25-14.14l-22.02,14.04c3.55,3.98,6.07,9.37,6.25,14.14Z"/>
                    <path class="cls-34" d="M30.92,75.6l22.02-14.04c-1.67-1.87-3.56-3.43-5.55-4.47l-22.02,14.04c1.99,1.04,3.88,2.6,5.55,4.47Z"/>
                  </g>
                </g>
              </g>
              <polygon class="cls-31" points="68.42 130.16 90.44 116.12 87.45 114.56 65.44 128.6 68.42 130.16"/>
              <polygon class="cls-34" points="68.44 130.6 90.45 116.56 90.44 116.12 68.42 130.16 68.44 130.6"/>
              <path class="cls-44" d="M25.37,71.13l.02,.44c6.02,3.15,11.13,11.21,11.4,17.96l.74,18.95c.12,3.09,2.46,6.78,5.21,8.22,2.75,1.44,4.9,.1,4.78-2.99l-.1-2.66c-.12-3.07,2.01-4.4,4.74-2.97,2.74,1.43,5.06,5.09,5.18,8.16,.19,4.82,3.83,10.56,8.13,12.81l2.99,1.56-.02-.44-2.99-1.56c-4.08-2.13-7.54-7.59-7.72-12.17-.13-3.31-2.63-7.25-5.58-8.8-2.95-1.54-5.24-.1-5.11,3.2l.1,2.66c.11,2.85-1.86,4.09-4.4,2.76-2.54-1.33-4.7-4.73-4.81-7.58l-.74-18.95c-.27-7-5.57-15.34-11.8-18.6Z"/>
              <g class="cls-14">
                <path class="cls-34" d="M70.42,93.4l-22.01,14.04c.93-.59,2.24-.57,3.73,.21,2.95,1.54,5.45,5.49,5.58,8.8,.18,4.58,3.64,10.03,7.72,12.17l22.01-14.04c-4.08-2.13-7.54-7.59-7.72-12.17-.13-3.31-2.63-7.25-5.58-8.8-1.48-.78-2.8-.8-3.73-.21Z"/>
                <g class="cls-19">
                  <g class="cls-14">
                    <path class="cls-31" d="M65.44,128.6l22.01-14.04c-1.3-.68-2.54-1.7-3.63-2.92l-22.02,14.04c1.09,1.22,2.33,2.24,3.63,2.92Z"/>
                    <path class="cls-31" d="M61.81,125.68l22.02-14.04c-2.32-2.61-3.97-6.13-4.09-9.25-.09-2.25-1.28-4.8-2.96-6.68l-22.02,14.04c1.68,1.88,2.87,4.43,2.96,6.68,.12,3.12,1.77,6.64,4.09,9.25Z"/>
                    <path class="cls-34" d="M54.76,109.75l22.02-14.04c-.79-.88-1.68-1.62-2.63-2.11-.57-.3-1.11-.48-1.61-.57l-22.02,14.04c.5,.08,1.05,.27,1.61,.57,.94,.49,1.84,1.23,2.63,2.11Z"/>
                    <path class="cls-34" d="M50.52,107.07l22.02-14.04c-.82-.14-1.54,0-2.12,.36l-22.02,14.04c.57-.37,1.3-.5,2.12-.36Z"/>
                  </g>
                </g>
              </g>
            </g>
            <path class="cls-44" d="M39.78,110.69c-.1-.23-.18-.46-.26-.7-.04-.13-.08-.25-.12-.38-.02-.06-.04-.13-.05-.19-.01-.04-.08-.22-.06-.25,0-.01,.03-.01,.03-.02,.06-.07,.2-.13,.28-.18,.42-.27,.85-.54,1.27-.81,1.54-.98,3.08-1.96,4.61-2.95,1.93-1.23,3.86-2.47,5.79-3.7,1.7-1.08,3.39-2.17,5.09-3.25,.56-.36,1.13-.72,1.69-1.08,.18-.11,.35-.22,.53-.34,.07-.05,.19-.16,.28-.18,.01,0,.03-.02,.03-.02,.09,.4,.21,.8,.35,1.18,.03,.08,.16,.28,.12,.35-.04,.06-.18,.12-.24,.15-.41,.26-.82,.52-1.23,.78-1.53,.97-3.05,1.95-4.58,2.92-1.95,1.24-3.9,2.49-5.85,3.73-1.71,1.09-3.42,2.18-5.13,3.28-.84,.54-1.69,1.08-2.53,1.62-.01,0-.02,.01-.03,.02Z"/>
            <path class="cls-44" d="M49.61,106.67h0s0,0,0,0Z"/>
            <path class="cls-54" d="M38.9,102.31l19.61-12.52-.47-12.15-19.61,12.52,.47,12.15Zm14.49-10.68l-9.57,6.11-.32-8.25,1.06-.68,.44-1.42,6.49-4.14,.53,.8,1.06-.68,.32,8.25Z"/>
            <path class="cls-44" d="M39.14,108.12l19.61-12.52-.07-1.85-19.61,12.44,.08,1.92Z"/>
            <path class="cls-44" d="M39.02,105.17l19.61-12.52-.07-1.85-19.61,12.44,.08,1.92Z"/>
            <path class="cls-54" d="M51.62,84.86l.73-.47c.14-.09,.25-.02,.26,.14,0,.16-.1,.37-.24,.45l-.73,.47c-.14,.09-.25,.02-.26-.14,0-.16,.1-.37,.23-.45Z"/>
            <path class="cls-54" d="M48.33,87.59c1.42-.91,2.63-.26,2.7,1.44,.07,1.7-1.03,3.82-2.46,4.73-1.42,.91-2.63,.26-2.7-1.44-.07-1.7,1.03-3.82,2.46-4.73Z"/>
            <path class="cls-34" d="M43.82,97.74l9.57-6.11-.32-8.25-1.06,.68-.53-.8-6.49,4.14-.44,1.42-1.06,.68,.32,8.25Zm7.57-12.43c0-.16,.1-.37,.23-.45l.73-.47c.14-.09,.25-.02,.26,.14,0,.16-.1,.37-.24,.45l-.73,.47c-.14,.09-.25,.02-.26-.14Zm-5.51,7c-.07-1.7,1.03-3.82,2.46-4.73,1.42-.91,2.63-.26,2.7,1.44,.07,1.7-1.03,3.82-2.46,4.73-1.42,.91-2.63,.26-2.7-1.44Z"/>
            <path class="cls-15" d="M35.28,67.9c1.73,1.3,3.23,2.89,4.52,4.62,.29,.38,.56,.77,.84,1.16-1.32,.84-2.64,1.69-3.96,2.53-.66,.42-1.32,.84-1.98,1.26-.08,.05-.16,.1-.24,.15-.06,.04-.09,.08-.14,.05-.04-.03-.08-.13-.11-.17-.06-.08-.11-.16-.17-.24-.18-.26-.37-.52-.57-.78-.42-.57-3.54-3.89-4.49-4.57,2.1-1.34,4.2-2.68,6.29-4.02Z"/>
            <path class="cls-44" d="M40.5,71.64c4.13-2.64,8.26-5.28,12.39-7.91,.02,.03,.04,.05,.06,.08,.13,.16,.25,.33,.37,.5,.03,.04,.07,.09,.1,.13,.02,.02,.03,.05,.05,.07,.15,.21,.3,.43,.45,.65,0,0,.01,.02,.02,.03-4.13,2.64-8.26,5.28-12.4,7.91-.31-.45-.73-1.03-1.05-1.46Z"/>
            <path class="cls-44" d="M39.33,70.24l12.4-7.92c.07,.07,.13,.15,.2,.22,.04,.05,.08,.09,.12,.14-4.13,2.64-8.26,5.28-12.39,7.91-.1-.11-.21-.23-.32-.36Z"/>
            <path class="cls-44" d="M39.33,70.24c-.29-.32-.61-.66-.88-.94,4.13-2.64,8.26-5.28,12.39-7.91,.04,.04,.08,.08,.12,.12,.12,.13,.25,.25,.37,.38,.07,.07,.13,.14,.2,.21,.07,.07,.13,.15,.2,.22l-12.4,7.92Z"/>
            <path class="cls-44" d="M36.2,67.31c4.13-2.64,8.26-5.28,12.39-7.91,.05,.04,.1,.08,.15,.11,.14,.11,.28,.22,.42,.33,.07,.06,.15,.12,.22,.19,.13,.11,.26,.22,.39,.34,.04,.04,.09,.08,.13,.12-4.13,2.64-8.26,5.28-12.39,7.91-.38-.34-.91-.77-1.31-1.09Z"/>
            <path class="cls-44" d="M35.92,80.37s-.05-.1-.07-.14c-.01-.02-.03-.05-.04-.07-.08-.16-.17-.31-.25-.47-.02-.03-.03-.06-.05-.09-.02-.04-.04-.07-.06-.11-.11-.19-.22-.38-.33-.57,0-.01-.01-.02-.02-.03,0,0,0,0,0,0,0,0,0-.02-.01-.03,6.48-4.26,13.07-8.35,19.61-12.52,0,0,.01,.02,.02,.03,.14,.23,.27,.46,.4,.69,.01,.02,.03,.05,.04,.07,.03,.05,.05,.1,.08,.15,.1,.18,.2,.36,.29,.55,.02,.03,.03,.06,.05,.09-6.48,4.26-13.07,8.35-19.61,12.52,0-.02-.02-.03-.03-.05Z"/>
            <path class="cls-44" d="M38.36,88.55s0-.09-.01-.14c0-.01,0-.02,0-.03,0-.04,0-.07,0-.11,0-.05,0-.1-.01-.15,0-.06-.01-.11-.02-.17,0-.09-.02-.18-.03-.26,0-.02,0-.04,0-.06,0-.04-.01-.08-.02-.12,0-.05-.01-.09-.02-.14,6.28-4.58,13.07-8.35,19.61-12.52,0,.07,.02,.13,.03,.2,0,.04,0,.07,.01,.11h0c.02,.18,.04,.36,.06,.54,0,.05,0,.1,.01,.15,.02,.2,.03,.39,.04,.59l-19.61,12.52c0-.14-.01-.28-.02-.42Z"/>
            <path class="cls-44" d="M38,86.09c-.03-.14-.06-.27-.09-.41-.01-.05-.02-.1-.04-.15-.01-.06-.03-.12-.04-.18,0,0,0-.01,0-.02-.03-.1-.05-.2-.08-.3-.01-.04-.02-.08-.03-.12-.03-.11-.06-.22-.1-.33,0-.02-.01-.05-.02-.07,6.8-3.76,13.07-8.35,19.61-12.52,.02,.06,.03,.11,.05,.17,.05,.17,.09,.33,.14,.5,.02,.09,.05,.19,.07,.28,.04,.17,.08,.35,.12,.52,.01,.06,.03,.12,.04,.18-6.48,4.26-13.07,8.35-19.61,12.52,0-.02-.01-.04-.01-.06Z"/>
            <path class="cls-44" d="M37.16,83.2c-.03-.09-.06-.18-.1-.27-.02-.04-.03-.08-.05-.13-.04-.11-.08-.22-.13-.33-.01-.03-.02-.06-.04-.09-.01-.03-.02-.05-.03-.08-.02-.05-.04-.1-.06-.14-.07-.17-.14-.34-.22-.5,0,0,0-.02-.01-.02,6.8-3.76,13.07-8.35,19.61-12.52,.02,.05,.05,.11,.07,.16,.08,.18,.16,.37,.23,.55,.04,.09,.07,.18,.11,.27,.07,.17,.13,.33,.19,.5,.02,.05,.04,.1,.06,.15-6.48,4.26-13.07,8.35-19.61,12.52,0-.02-.02-.05-.03-.07Z"/>
            <path class="cls-44" d="M60.76,100.55s0,.01,.01,.02c0,0,0-.01-.01-.02Z"/>
            <path class="cls-44" d="M60.51,100.21s0,.01,.01,.02c0,0-.01-.01-.02-.02,0,0,0,0,0,0Z"/>
            <path class="cls-44" d="M70.57,93.75s.06,0,.1,0c.04,0,.08,0,.12,0,0,0,0,0,.01,0,.05,0,.1,0,.15,0,.04,0,.09,0,.13,0,.05,0,.11,.01,.16,.02,.03,0,.06,0,.09,.01,.02,0,.03,0,.05,0,0,0,0,0,.01,0,.03,0,.06,.01,.09,.02,.06,.01,.12,.03,.18,.04,.01,0,.03,0,.04,.01-1.08,.72-2.17,1.43-3.26,2.14-2.48,1.61-4.98,3.2-7.49,4.78-.03-.03-.05-.06-.08-.1-.04-.05-.07-.09-.11-.14,0,0,0-.01-.01-.02,0,0-.01-.01-.02-.02-.02-.03-.04-.05-.06-.08-.02-.03-.04-.06-.07-.09-.01-.02-.03-.04-.04-.05-.02-.03-.04-.05-.05-.08,0,0,0-.01-.01-.02,3.35-2.15,6.69-4.32,10.05-6.46Z"/>
            <path class="cls-44" d="M60.69,100.45s-.04-.06-.07-.09c.02,.03,.04,.06,.07,.09Z"/>
            <path class="cls-44" d="M60.75,100.53s.01,.01,.02,.02c0,0-.01-.01-.02-.02Z"/>
            <path class="cls-44" d="M60.51,100.21s.01,.01,.02,.02c.02,.03,.04,.05,.05,.08,.01,.02,.03,.04,.04,.05,.02,.03,.04,.06,.07,.09,.02,.03,.04,.05,.06,.08,0,0,.01,.01,.02,.02,0,0,0,.01,.01,.02,.04,.05,.07,.09,.11,.14,.03,.03,.05,.06,.08,.1-2.95,1.86-5.92,3.72-8.86,5.59,0,0-.01,0-.02,0,0,0-.01,0-.02,0,0,0,0,0-.01,0-.01,0-.03,0-.04-.01-.01,0-.02,0-.04,0-.04-.01-.09-.02-.13-.03-.02,0-.04,0-.05-.01,0,0-.02,0-.03,0,0,0,0,0-.01,0,0,0,0,0-.01,0-.02,0-.03,0-.05,0-.01,0-.02,0-.03,0-.04,0-.09-.01-.13-.02,0,0,0,0,0,0-.02,0-.03,0-.05,0-.03,0-.06,0-.09,0-.03,0-.07,0-.1,0,0,0-.02,0-.02,0,0,0,0,0,0,0-.02,0-.04,0-.07,0-.03,0-.06,0-.08,0-.02,0-.04,0-.06,0-.02,0-.03,0-.05,0-.01,0-.02,0-.03,0,3.2-1.99,6.38-4.02,9.55-6.06Z"/>
            <path class="cls-44" d="M49.61,106.67s0,0,0,0c0,0,0,0,0,0Z"/>
            <path class="cls-16" d="M61.1,122.31c-.17-.29-.34-.59-.5-.89-.08-.16-.17-.32-.24-.48-.02-.05-.05-.1-.05-.1,0,0,.06-.04,.12-.08,.1-.06,.2-.13,.3-.19,.69-.44,1.38-.88,2.07-1.32,1.38-.88,2.76-1.76,4.14-2.64,2.77-1.77,5.54-3.53,8.31-5.3,1.56-.99,3.12-1.99,4.68-2.98,.15,.32,.32,.63,.49,.94,.08,.14,.22,.3,.26,.45,.03,.1,.07,.06-.04,.13-.1,.06-.19,.13-.29,.19-.68,.46-1.37,.92-2.06,1.37-1.38,.91-2.76,1.8-4.15,2.69-2.76,1.76-5.54,3.49-8.31,5.23-1.57,.99-3.14,1.98-4.71,2.98Z"/>
            <path class="cls-16" d="M64.95,126.74c-.42-.33-.82-.68-1.2-1.05,2.77-1.77,5.53-3.54,8.3-5.31,2.77-1.77,5.54-3.53,8.31-5.3,.78-.5,1.56-.99,2.34-1.49,.19-.12,.38-.24,.57-.36,.11-.07,.11-.03,.2,.05,.08,.08,.16,.16,.25,.23,.27,.24,.55,.48,.83,.71-2.57,1.59-5.13,3.2-7.67,4.83-2.54,1.63-5.08,3.27-7.62,4.91-1.44,.93-2.88,1.85-4.32,2.77Z"/>
            <path class="cls-16" d="M62.86,124.74c-.36-.42-.7-.85-1.02-1.3,2.76-1.77,5.51-3.53,8.27-5.29,2.76-1.76,5.52-3.52,8.28-5.28,.78-.5,1.56-.99,2.34-1.49,.19-.12,.38-.24,.57-.36,.03-.02,.08-.07,.12-.08,.06,0,.06,.02,.1,.08,.06,.08,.12,.17,.18,.25,.24,.33,.5,.65,.77,.96-2.55,1.63-5.09,3.26-7.64,4.89-2.55,1.63-5.1,3.25-7.65,4.88-1.44,.92-2.88,1.84-4.32,2.76Z"/>
            <path class="cls-16" d="M66.21,127.6c-.08-.05-.17-.1-.25-.15,2.66-1.7,5.31-3.4,7.97-5.1,2.64-1.68,5.28-3.37,7.92-5.05,.75-.48,1.5-.96,2.25-1.43,.37-.24,.74-.47,1.11-.71,.09-.06,.18-.11,.27-.17,.11-.07,.12-.04,.22,.02,.18,.11,.36,.22,.55,.31-.66,.42-1.32,.85-1.99,1.27-1.59,1.01-3.17,2.02-4.76,3.04-1.9,1.21-3.8,2.42-5.69,3.64-1.63,1.04-3.26,2.08-4.9,3.13-.52,.33-1.05,.67-1.57,1-.16,.1-.31,.2-.47,.3-.06,.04-.15,.13-.22,.14-.11,.03-.35-.17-.45-.23Z"/>
            <g>
              <path class="cls-15" d="M70.85,96.29c.73-.48,1.46-.96,2.19-1.44,.09-.06,.2-.16,.29-.2,.08-.03,.02-.04,.11,0,.03,.01,.07,.04,.1,.06,.16,.1,.31,.21,.47,.32,.29,.21,.56,.44,.83,.69,1.07,.99,1.94,2.19,2.59,3.49,.64,1.26,1.04,2.63,1.11,4.05,.03,.69,.14,1.38,.3,2.05,.08,.32,.16,.65,.27,.97,.03,.08,.06,.17,.08,.25,.03,.1,.04,.06-.03,.14-.02,.03-.09,.06-.12,.08-.19,.12-.38,.24-.57,.36-2.97,1.89-5.94,3.79-8.91,5.68-2.96,1.89-5.92,3.78-8.87,5.67-.36,.23-.72,.46-1.08,.69-.34-.99-.58-2.02-.66-3.06-.04-.49-.06-.97-.14-1.45-.08-.43-.18-.85-.32-1.27-.52-1.61-1.4-3.11-2.53-4.37-.64-.71-1.36-1.36-2.18-1.86,2.13-1.36,14.15-8.93,17.07-10.84Z"/>
              <g>
                <path class="cls-34" d="M60.98,105.79c.76,.89,1.43,1.85,1.93,2.91,.24,.5,.45,1,.59,1.53,.17,.63,.27,1.28,.36,1.94,.1,.75,.18,1.5,.33,2.25,1.72-1.1,3.43-2.19,5.15-3.29,.86-.55,1.72-1.1,2.57-1.64,.43-.27,.86-.55,1.29-.82,.11-.07,.22-.14,.33-.21,.04-.03,.08-.05,.12-.08,.09-.06,.11-.04,.11-.14,0-.23-.08-.5-.11-.73-.13-.95-.19-1.91-.4-2.85-.21-.91-.57-1.78-1.01-2.6-.41-.74-.89-1.44-1.43-2.1-.06-.07-.16-.25-.24-.29-.07-.03,.04-.03-.07,0-.04,.01-.1,.06-.14,.09-.18,.12-.36,.23-.55,.35-.08,.05-.16,.1-.24,.15-.11,.07-.15,.03-.26-.02-.16-.08-.32-.15-.48-.22-.2-.09-.4-.17-.6-.24-.04-.01-.11-.06-.15-.06-.06,0-.16,.1-.21,.13-.12,.08-1.31,.84-1.79,1.14-.48,.31-3.25,2.08-3.34,2.13-.19,.12-.37,.24-.56,.36-.09,.06-.18,.11-.26,.17-.07,.04-.25,.12-.29,.19-.05,.08,.1,.36,.14,.46,.05,.13,.09,.26,.14,.39,.03,.08,.06,.17,.08,.25,0,.02,.05,.1,.04,.12,0,.02-.09,.06-.11,.07-.32,.2-.63,.4-.95,.6,0,.01,.02,.02,.03,.03Z"/>
                <path class="cls-15" d="M70.73,100.83s0,.02,0,.03c0,.02,.01,.04,.01,.07,0,0,0,0,0,0,0,.02,0,.05,0,.07,0,0,0,.01,0,.02,0,0,0,.02,0,.03-.01,.03-.02,.06-.05,.08,0,0-.02,.02-.02,.02-.03,.02-.11,.07-.39,.25-.29,.18-.37,.24-.4,.25,0,0-.02,0-.03,.01-.03,0-.07,.01-.1,0,0,0-.02,0-.02,0-.01,0-.02,0-.03,0-.02,0-.04-.01-.06-.02-.01,0-.02-.01-.03-.02-.01,0-.02-.01-.04-.02-.01,0-.02-.02-.03-.03,0,0-.01-.01-.02-.02-.02-.02-.03-.03-.05-.05,0,0,0-.01-.01-.02-.05-.08-.08-.16-.08-.23h0s0-.03,0-.04c0,0,0-.01,0-.02,0-.02,.02-.05,.04-.07,.04-.04,.13-.1,.42-.29,.29-.19,.39-.24,.45-.26,.03,0,.06-.01,.08,0,.01,0,.02,0,.03,0,.01,0,.03,0,.04,0,0,0,.02,0,.02,0,.05,.02,.1,.04,.15,.08,0,0,0,0,0,0,.01,.01,.02,.02,.03,.04,.01,.01,.02,.03,.03,.04,0,0,0,0,0,.01,.01,.02,.02,.04,.03,.06Z"/>
                <path class="cls-15" d="M65.69,108.67c-.66-2.16-.33-3.62,.41-4.45,0,0,.15-.17,.43-.38,.25-.19,.65-.32,.71-.34,.48-.13,.87-.17,1.34-.08,0,0,0,0,.01,0,.06,.01,.12,.03,.19,.04,0,0,0,0,0,0,.83,.22,1.6,.83,2.04,1.87,.04,.11,.07,.22,.1,.34,.12,.55,.07,1.13-.09,1.69-.17,.52-.46,1.16-.84,1.73-.54,.77-1.19,1.34-1.71,1.51-.06,.02-.12,.03-.18,.05-.21,.04-.52,.06-.86-.05-.43-.15-.79-.48-1.09-.92-.17-.26-.32-.59-.46-1.01Z"/>
              </g>
            </g>
          </g>
          <g>
            <g class="cls-14">
              <g class="cls-14">
                <path class="cls-8" d="M21.3,101.81l.55,.29c-.25-.13-.41-.43-.43-.86l-.55-.29c.02,.43,.18,.72,.43,.86Z"/>
                <g class="cls-24">
                  <g class="cls-14">
                    <path class="cls-8" d="M21.43,101.25l-.55-.29c.02,.43,.18,.72,.43,.86l.55,.29c-.25-.13-.41-.43-.43-.86Z"/>
                  </g>
                </g>
              </g>
              <g class="cls-14">
                <path class="cls-34" d="M30.61,80.29l-.55-.29c-.25-.13-.59-.1-.96,.14l.55,.29c.37-.23,.71-.27,.96-.14Z"/>
                <g class="cls-42">
                  <g class="cls-14">
                    <path class="cls-34" d="M30.61,80.29l-.55-.29c-.25-.13-.59-.1-.96,.14l.55,.29c.37-.23,.71-.27,.96-.14Z"/>
                  </g>
                </g>
              </g>
              <polygon class="cls-8" points="20.82 87.63 20.26 87.34 20.87 100.96 21.43 101.25 20.82 87.63"/>
              <polygon class="cls-34" points="29.65 80.42 29.1 80.13 21.52 84.94 22.07 85.23 29.65 80.42"/>
              <g class="cls-14">
                <path class="cls-34" d="M22.07,85.23l-.55-.29c-.73,.47-1.3,1.54-1.26,2.4l.55,.29c-.04-.86,.52-1.94,1.26-2.4Z"/>
                <g class="cls-33">
                  <g class="cls-14">
                    <path class="cls-34" d="M22.07,85.23l-.55-.29c-.23,.14-.44,.35-.62,.58l.55,.29c.18-.24,.39-.44,.62-.58Z"/>
                    <path class="cls-34" d="M21.45,85.82l-.55-.29c-.4,.53-.66,1.22-.64,1.82l.55,.29c-.03-.59,.23-1.29,.64-1.82Z"/>
                  </g>
                </g>
              </g>
              <path class="cls-31" d="M22.07,85.23c-.73,.47-1.3,1.54-1.26,2.4l.61,13.61c.04,.86,.66,1.19,1.4,.72l7.58-4.81c.73-.47,1.3-1.54,1.26-2.4l-.61-13.61c-.04-.86-.66-1.19-1.4-.72l-7.58,4.81Z"/>
            </g>
            <g>
              <polygon class="cls-44" points="30.56 87.45 30.59 88.04 21.85 93.58 21.83 92.99 30.56 87.45"/>
              <polygon class="cls-44" points="30.32 81.51 30.37 82.7 21.63 88.24 21.58 87.05 30.32 81.51"/>
              <polygon class="cls-44" points="30.69 90.56 30.72 91.15 21.98 96.7 21.96 96.1 30.69 90.56"/>
              <polygon class="cls-44" points="30.65 89.52 30.68 90.12 21.94 95.66 21.91 95.07 30.65 89.52"/>
              <polygon class="cls-44" points="30.61 88.48 30.63 89.08 21.9 94.62 21.87 94.03 30.61 88.48"/>
              <g>
                <polygon class="cls-44" points="26.8 85.57 26.83 86.16 21.68 89.43 21.65 88.84 26.8 85.57"/>
                <polygon class="cls-44" points="26.93 88.68 26.96 89.28 21.81 92.54 21.78 91.95 26.93 88.68"/>
                <polygon class="cls-44" points="26.89 87.65 26.92 88.24 21.77 91.51 21.74 90.91 26.89 87.65"/>
                <polygon class="cls-44" points="26.85 86.61 26.87 87.2 21.72 90.47 21.7 89.87 26.85 86.61"/>
                <path class="cls-54" d="M29.93,83.73l.07,.8-.08,.05c-.02-.15-.05-.26-.11-.32-.06-.06-.13-.08-.2-.07-.06,.01-.16,.06-.3,.15l-.36,.23,.11,2.68c0,.2,.03,.31,.06,.35,.06,.06,.15,.04,.27-.03l.1-.07v.1s-1.25,.8-1.25,.8v-.1s.1-.07,.1-.07c.12-.07,.2-.16,.25-.27,.04-.08,.05-.23,.04-.44l-.11-2.68-.42,.26c-.12,.08-.22,.16-.29,.26-.07,.09-.13,.21-.17,.34-.03,.08-.04,.2-.05,.35l-.08,.05v-.84s2.42-1.53,2.42-1.53Z"/>
              </g>
              <g>
                <polygon class="cls-44" points="25.59 94.99 25.62 95.58 30.77 92.32 30.74 91.72 25.59 94.99"/>
                <polygon class="cls-44" points="25.72 98.11 25.75 98.7 30.9 95.43 30.87 94.84 25.72 98.11"/>
                <polygon class="cls-44" points="25.68 97.07 25.7 97.66 30.85 94.39 30.83 93.8 25.68 97.07"/>
                <polygon class="cls-44" points="25.64 96.03 25.66 96.62 30.81 93.36 30.79 92.76 25.64 96.03"/>
                <path class="cls-54" d="M25.02,95.5l.07,.8-.08,.05c-.02-.13-.05-.22-.08-.27-.05-.07-.11-.11-.19-.11-.08,0-.18,.04-.3,.12l-.42,.26,.11,2.68c0,.22,.03,.34,.08,.37,.06,.04,.14,.02,.26-.05l.1-.07v.1s-1.25,.8-1.25,.8v-.1s.1-.07,.1-.07c.13-.08,.21-.18,.26-.3,.03-.08,.04-.21,.03-.41l-.11-2.68-.36,.23c-.14,.09-.24,.16-.29,.22-.07,.08-.14,.18-.19,.31-.05,.13-.08,.27-.08,.44l-.08,.05v-.84s2.42-1.53,2.42-1.53Z"/>
              </g>
            </g>
          </g>
          <g>
            <g class="cls-14">
              <g>
                <path class="cls-44" d="M14.74,82.12l.63,.33c-.29-.15-.47-.49-.5-.98l-.63-.33c.02,.49,.21,.83,.5,.98Z"/>
                <g class="cls-50">
                  <g class="cls-14">
                    <path class="cls-44" d="M14.87,81.48l-.63-.33c.02,.49,.21,.83,.5,.98l.63,.33c-.29-.15-.47-.49-.5-.98Z"/>
                  </g>
                </g>
              </g>
              <g>
                <path class="cls-34" d="M22.67,68.93l-.63-.33c-.29-.15-.68-.11-1.1,.15l.63,.33c.42-.27,.81-.31,1.1-.15Z"/>
                <g class="cls-2">
                  <g class="cls-14">
                    <path class="cls-34" d="M22.67,68.93l-.63-.33c-.29-.15-.68-.11-1.1,.15l.63,.33c.42-.27,.81-.31,1.1-.15Z"/>
                  </g>
                </g>
              </g>
              <polygon class="cls-44" points="14.6 75.35 13.96 75.02 14.24 81.15 14.87 81.48 14.6 75.35"/>
              <polygon class="cls-34" points="21.57 69.09 20.94 68.75 15.4 72.27 16.03 72.6 21.57 69.09"/>
              <g>
                <path class="cls-34" d="M16.03,72.6l-.63-.33c-.84,.53-1.48,1.76-1.44,2.75l.63,.33c-.04-.98,.6-2.22,1.44-2.75Z"/>
                <g class="cls-30">
                  <g class="cls-14">
                    <path class="cls-34" d="M16.03,72.6l-.63-.33c-.26,.16-.5,.4-.71,.67l.63,.33c.21-.27,.45-.5,.71-.67Z"/>
                    <path class="cls-8" d="M15.32,73.27l-.63-.33c-.46,.6-.76,1.4-.73,2.08l.63,.33c-.03-.68,.27-1.48,.73-2.08Z"/>
                  </g>
                </g>
              </g>
              <path class="cls-31" d="M16.03,72.6c-.84,.53-1.48,1.76-1.44,2.75l.28,6.13c.04,.98,.76,1.35,1.6,.82l5.54-3.52c.84-.53,1.48-1.76,1.44-2.75l-.28-6.13c-.04-.98-.76-1.35-1.6-.82l-5.54,3.52Z"/>
            </g>
            <g>
              <path class="cls-23" d="M16.69,75.08c1.18-1.91,3.17-3.17,4.45-2.82,1.08,.3,1.3,1.65,.63,3.22,.02,.39,.66,1.2,.66,1.2,0,0-1.3,.63-1.69,.47-1.18,1.45-2.79,2.32-3.88,2.02-1.28-.35-1.35-2.18-.17-4.09Z"/>
              <g>
                <path class="cls-34" d="M20.06,75.34c.01,.32,.24,.44,.51,.27,.27-.17,.47-.56,.46-.88s-.24-.44-.51-.27c-.27,.17-.47,.56-.46,.88Z"/>
                <path class="cls-34" d="M18.6,76.26c.01,.32,.24,.44,.51,.27,.27-.17,.47-.56,.46-.88s-.24-.44-.51-.27c-.27,.17-.47,.56-.46,.88Z"/>
                <path class="cls-34" d="M17.15,77.19c.01,.32,.24,.44,.51,.27,.27-.17,.47-.56,.46-.88-.01-.32-.24-.44-.51-.27-.27,.17-.47,.56-.46,.88Z"/>
              </g>
            </g>
          </g>
          <g>
            <g class="cls-14">
              <g>
                <path class="cls-7" d="M54.04,43.69l-.54-.29c-.25-.13-.58-.1-.94,.13l.54,.29c.36-.23,.7-.26,.94-.13Z"/>
                <g class="cls-13">
                  <g class="cls-14">
                    <path class="cls-7" d="M54.04,43.69l-.54-.29c-.25-.13-.58-.1-.94,.13l.54,.29c.36-.23,.7-.26,.94-.13Z"/>
                  </g>
                </g>
              </g>
              <g>
                <path class="cls-23" d="M44.13,57.3l.54,.29c-.24-.13-.41-.42-.42-.84l-.54-.29c.02,.42,.18,.71,.42,.84Z"/>
                <g class="cls-47">
                  <g class="cls-14">
                    <path class="cls-23" d="M44.25,56.74l-.54-.29c.02,.42,.18,.71,.42,.84l.54,.29c-.24-.13-.41-.42-.42-.84Z"/>
                  </g>
                </g>
              </g>
              <polygon class="cls-23" points="44 51.17 43.46 50.89 43.71 56.46 44.25 56.74 44 51.17"/>
              <polygon class="cls-7" points="53.1 43.82 52.55 43.54 44.69 48.53 45.23 48.82 53.1 43.82"/>
              <g>
                <path class="cls-23" d="M45.23,48.82l-.54-.29c-.72,.46-1.27,1.51-1.23,2.36l.54,.29c-.04-.85,.51-1.9,1.23-2.36Z"/>
                <g class="cls-18">
                  <g class="cls-14">
                    <path class="cls-7" d="M45.23,48.82l-.54-.29c-.22,.14-.43,.34-.61,.57l.54,.29c.18-.23,.39-.43,.61-.57Z"/>
                    <path class="cls-23" d="M44.63,49.39l-.54-.29c-.4,.52-.65,1.2-.62,1.78l.54,.29c-.03-.58,.23-1.27,.62-1.78Z"/>
                  </g>
                </g>
              </g>
              <path class="cls-32" d="M45.23,48.82c-.72,.46-1.27,1.51-1.23,2.36l.25,5.57c.04,.85,.65,1.16,1.37,.71l7.86-4.99c.72-.46,1.27-1.51,1.23-2.36l-.25-5.57c-.04-.85-.65-1.16-1.37-.71l-7.86,4.99Z"/>
            </g>
            <path class="cls-34" d="M51.94,46.33l-.38-.57-4.68,2.97-.32,1.02-.76,.48,.25,5.92,6.92-4.39-.25-5.92-.76,.48Zm-2.47,6.96c-1.03,.65-1.9,.19-1.95-1.03s.74-2.74,1.77-3.39c1.03-.65,1.9-.19,1.95,1.03,.05,1.22-.74,2.74-1.77,3.39Zm2.74-6.29l-.53,.33c-.1,.06-.18,.02-.19-.1s.07-.26,.17-.33l.53-.33c.1-.06,.18-.02,.19,.1s-.07,.26-.17,.33Z"/>
          </g>
          <g>
            <g class="cls-14">
              <g class="cls-14">
                <path class="cls-29" d="M53.95,75.95l.54,.29c-.24-.13-.41-.42-.42-.84l-.54-.29c.02,.42,.18,.71,.42,.84Z"/>
                <g class="cls-3">
                  <g class="cls-14">
                    <path class="cls-5" d="M54.07,75.39l-.54-.29c.02,.42,.18,.71,.42,.84l.54,.29c-.24-.13-.41-.42-.42-.84Z"/>
                  </g>
                </g>
              </g>
              <g class="cls-14">
                <path class="cls-54" d="M61.51,64.16l-.54-.29c-.25-.13-.58-.1-.94,.13l.54,.29c.36-.23,.7-.26,.94-.13Z"/>
                <g class="cls-48">
                  <g class="cls-14">
                    <path class="cls-54" d="M61.51,64.16l-.54-.29c-.25-.13-.58-.1-.94,.13l.54,.29c.36-.23,.7-.26,.94-.13Z"/>
                  </g>
                </g>
              </g>
              <polygon class="cls-5" points="53.83 70.14 53.29 69.85 53.53 75.11 54.07 75.39 53.83 70.14"/>
              <polygon class="cls-54" points="60.57 64.29 60.02 64 54.52 67.5 55.06 67.78 60.57 64.29"/>
              <g class="cls-14">
                <path class="cls-54" d="M55.06,67.78l-.54-.29c-.72,.46-1.27,1.51-1.23,2.36l.54,.29c-.04-.84,.51-1.9,1.23-2.36Z"/>
                <g class="cls-46">
                  <g class="cls-14">
                    <path class="cls-54" d="M55.06,67.78l-.54-.29c-.22,.14-.43,.34-.61,.57l.54,.29c.18-.23,.38-.43,.61-.57Z"/>
                    <path class="cls-29" d="M54.45,68.36l-.54-.29c-.4,.52-.65,1.2-.62,1.78l.54,.29c-.03-.58,.23-1.27,.62-1.78Z"/>
                  </g>
                </g>
              </g>
              <path class="cls-43" d="M55.06,67.78c-.72,.46-1.27,1.51-1.23,2.36l.24,5.26c.04,.84,.65,1.16,1.37,.71l5.51-3.49c.72-.46,1.27-1.51,1.23-2.36l-.24-5.26c-.04-.84-.65-1.16-1.37-.71l-5.51,3.49Z"/>
            </g>
            <g>
              <path class="cls-34" d="M55.55,71.2c-.07-1.59,.97-3.57,2.31-4.42,1.34-.85,2.49-.25,2.55,1.33s-.97,3.57-2.31,4.42c-1.34,.85-2.49,.25-2.55-1.33Z"/>
              <polygon class="cls-54" points="56.24 70.76 58.67 67.47 58.81 70.88 56.24 70.76"/>
              <g>
                <polygon class="cls-34" points="54.73 75.79 61.56 71.46 61.54 70.96 54.71 75.3 54.73 75.79"/>
                <g>
                  <polygon class="cls-39" points="61.37 71.49 61.43 71.45 61.42 71.12 61.36 71.16 61.37 71.49"/>
                  <polygon class="cls-39" points="61.23 71.58 61.3 71.54 61.28 71.21 61.22 71.25 61.23 71.58"/>
                </g>
                <g>
                  <polygon class="cls-39" points="60.8 71.69 61.03 71.37 61.05 71.7 60.8 71.69"/>
                  <polygon class="cls-39" points="60.74 71.89 60.79 71.86 60.77 71.54 60.73 71.57 60.74 71.89"/>
                </g>
                <path class="cls-39" d="M55.31,75.03l.18-.12s.02,0,.02,.01v.15s0,.03-.02,.04l-.12,.08-.06,.1v-.06s-.02,0-.02-.01v-.15s0-.03,.02-.04Z"/>
                <g>
                  <path class="cls-39" d="M54.97,75.53v-.03s.01-.01,.02-.02h.02s.04-.06,.04-.06h-.02s0-.03,0-.04l.03-.02v-.06s-.03,.02-.03,.02c0,0,0-.01-.01-.02l.02-.03-.04-.02-.02,.04s-.01,0-.02,0v-.03s-.06,.04-.06,.04v.03s-.01,.01-.02,.02h-.02s-.04,.06-.04,.06h.02s0,.03,0,.04l-.03,.02v.06s.03-.02,.03-.02c0,0,0,.01,0,.02l-.02,.04,.04,.02,.02-.04s.01,0,.02,0v.03s.06-.04,.06-.04Z"/>
                  <path class="cls-16" d="M54.89,75.44s.02-.07,.05-.09c.03-.02,.05,0,.05,.03s-.02,.07-.05,.09c-.03,.02-.05,0-.05-.03Z"/>
                </g>
              </g>
            </g>
          </g>
          <g>
            <g class="cls-14">
              <g class="cls-14">
                <path class="cls-54" d="M72.24,78.43l.61,.32c-.21-.11-.49-.08-.79,.11l-.61-.32c.3-.19,.58-.22,.79-.11Z"/>
                <g class="cls-38">
                  <g class="cls-14">
                    <path class="cls-54" d="M72.07,78.86l-.61-.32c.3-.19,.58-.22,.79-.11l.61,.32c-.21-.11-.49-.08-.79,.11Z"/>
                  </g>
                </g>
              </g>
              <polygon class="cls-5" points="67.49 93.97 66.88 93.65 64.89 91.09 65.5 91.41 67.49 93.97"/>
              <g class="cls-14">
                <path class="cls-54" d="M61.44,93.6l-.61-.32c-.2-.11-.34-.35-.35-.7l.61,.32c.02,.35,.15,.59,.35,.7Z"/>
                <g class="cls-1">
                  <g class="cls-14">
                    <path class="cls-54" d="M61.44,93.6l-.61-.32c-.2-.11-.34-.35-.35-.7l.61,.32c.02,.35,.15,.59,.35,.7Z"/>
                  </g>
                </g>
              </g>
              <polygon class="cls-54" points="61.08 92.9 60.47 92.58 60.22 86.98 60.84 87.3 61.08 92.9"/>
              <polygon class="cls-54" points="61.87 85.34 61.25 85.01 71.45 78.54 72.07 78.86 61.87 85.34"/>
              <g class="cls-14">
                <path class="cls-54" d="M60.84,87.3l-.61-.32c-.03-.71,.43-1.59,1.03-1.97l.61,.32c-.6,.38-1.06,1.26-1.03,1.97Z"/>
                <g class="cls-25">
                  <g class="cls-14">
                    <path class="cls-54" d="M60.84,87.3l-.61-.32c-.03-.71,.43-1.59,1.03-1.97l.61,.32c-.6,.38-1.06,1.26-1.03,1.97Z"/>
                  </g>
                </g>
              </g>
              <path class="cls-29" d="M72.07,78.86c.6-.38,1.11-.12,1.14,.59l.24,5.6c.03,.71-.43,1.59-1.03,1.97l-3.28,2.08-1.66,4.87-1.99-2.56-3.28,2.08c-.6,.38-1.11,.12-1.14-.59l-.24-5.6c-.03-.71,.43-1.59,1.03-1.97l10.2-6.47Z"/>
            </g>
            <g>
              <path class="cls-34" d="M70.86,81c.28-.18,.64-.22,.69,1.09,.05,1.12-.17,1.41-.48,1.6-.24,.15-.4,.13-.41-.02,0-.06,.01-.15,.03-.21,.06,.02,.18,.01,.3-.07,.19-.12,.31-.36,.28-1.14-.04-1.01-.25-1.04-.46-.91-.1,.06-.17,.18-.2,.23-.02-.03-.05-.09-.05-.16,0-.1,.06-.25,.29-.4Z"/>
              <path class="cls-34" d="M70.49,82.63c.05,1.1-.1,1.49-.52,1.76-.42,.27-.62,.03-.66-1.02s.1-1.45,.51-1.71c.42-.26,.63-.05,.67,.97Zm-.29,.26c-.03-.83-.14-1.06-.36-.92-.23,.15-.28,.46-.25,1.23s.13,1.03,.36,.88c.23-.15,.29-.47,.26-1.19Z"/>
              <path class="cls-34" d="M68.17,83.73c0,.18,.03,.92,.02,1.16h0c.07-.33,.21-1.03,.26-1.27l.32-1.26,.2-.12s.05-.01,.05,.03l.11,2.61c-.25,.16-.26,.16-.26,.1l-.04-.93c0-.16-.02-.91-.02-1.17-.07,.35-.21,1.07-.26,1.28l-.32,1.28-.19,.12s-.06,.01-.06-.03l-.11-2.61c.25-.16,.26-.16,.26-.1l.04,.9Z"/>
              <path class="cls-34" d="M67.67,83.06s.06-.02,.06,.03v.23s-.43,.28-.43,.28l.1,2.38c-.25,.16-.26,.16-.26,.1l-.1-2.32-.39,.25s-.06,.02-.06-.03v-.23s1.08-.69,1.08-.69Z"/>
              <path class="cls-34" d="M66.26,86.42l-.04-1.04-.44,.28s-.05-.02-.06-.25l.48-.31-.03-.8-.52,.33s-.05,0-.06-.25l.77-.49c.05-.03,.05,.03,.05,.03l.11,2.61-.76,.48c-.05,.03-.05,.01-.06-.25l.55-.35Z"/>
              <path class="cls-34" d="M64.55,86.03c0,.18,.03,.92,.02,1.16h0c.07-.33,.21-1.03,.26-1.27l.32-1.26,.2-.12s.05-.01,.05,.03l.11,2.61c-.25,.16-.26,.16-.26,.1l-.04-.93c0-.16-.02-.91-.02-1.17-.07,.35-.21,1.07-.26,1.28l-.32,1.28-.19,.12s-.06,.01-.06-.03l-.11-2.61c.25-.16,.26-.16,.26-.1l.04,.9Z"/>
              <path class="cls-34" d="M64.04,85.36s.06-.02,.06,.03v.23s-.43,.28-.43,.28l.1,2.38c-.25,.16-.26,.16-.26,.1l-.1-2.32-.39,.25s-.06,.02-.06-.03v-.23s1.08-.69,1.08-.69Z"/>
              <path class="cls-34" d="M70.26,85.98c.04,.12,.11,.35,.11,.35,0,0,.05-.31,.08-.49l.26-1.36,.19-.12s.05-.03,.05,.03l.11,2.61c-.24,.15-.25,.16-.26,.1l-.04-.89c0-.41,.01-1.15,.01-1.15-.05,.34-.15,.9-.17,.99l-.14,.72-.11,.07s-.03,.01-.04,0l-.19-.48c-.03-.07-.17-.49-.24-.74,.01,.1,.08,.74,.11,1.1l.05,.93q-.26,.17-.26,.11l-.11-2.61,.21-.13s.04,0,.05,.03l.33,.93Z"/>
              <path class="cls-34" d="M68.73,85.75s.08-.06,.12-.09c.05-.03,.09-.04,.1,0l.68,2.27c-.06,.05-.13,.09-.16,.11-.1,.06-.11,.05-.12,.02l-.15-.55-.56,.35-.11,.77c-.07,.05-.12,.08-.15,.11-.1,.07-.12,.05-.11,0l.46-2.98Zm.4,1.51l-.13-.48c-.06-.22-.12-.49-.15-.66,0,.19-.04,.52-.08,.81l-.09,.62,.44-.28Z"/>
              <path class="cls-34" d="M67.79,87.53l-.05-1.15q.26-.17,.26-.11l.11,2.61q-.26,.17-.26,.11l-.05-1.26c-.04,.05-.09,.11-.12,.18-.17,.34-.25,.78-.31,1.44-.06,.05-.12,.09-.18,.13-.09,.06-.11,.05-.11,0,.06-.79,.21-1.39,.45-1.78l-.56-.74s-.01-.02-.01-.03c0-.04,.04-.08,.11-.13,.04-.03,.1-.06,.16-.08l.56,.81Z"/>
              <path class="cls-34" d="M66.87,89.68c-.26,.16-.26,.17-.26,.11l-.11-2.61c.26-.16,.26-.17,.27-.03l.11,2.53Z"/>
              <path class="cls-34" d="M65.37,88.87c0,.18,.03,.92,.02,1.16h0c.07-.33,.21-1.03,.26-1.27l.32-1.26,.2-.12s.05-.01,.05,.03l.11,2.61c-.25,.16-.26,.16-.26,.1l-.04-.93c0-.16-.02-.91-.02-1.17-.07,.35-.21,1.07-.26,1.28l-.32,1.28-.19,.12s-.06,.01-.06-.03l-.11-2.61c.25-.16,.26-.16,.26-.1l.04,.9Z"/>
              <path class="cls-34" d="M63.85,89.99l.42-.27s.06-.02,.06,.02v.19s-.23,.15-.23,.15l.04,.95s.08,.05,.2-.03c.21-.13,.33-.33,.29-1.25-.04-.86-.18-1.02-.51-.82-.11,.07-.2,.16-.25,.25-.02-.05-.04-.1-.04-.18,0-.1,.12-.28,.33-.41,.42-.27,.7-.2,.75,1,.04,1.07-.12,1.43-.55,1.7-.22,.14-.37,.13-.45,.11l-.06-1.43Z"/>
            </g>
          </g>
        </g>
        <g>
          <path class="cls-28" d="M198.62,80.1c.26,1.87-1.14,3.18-4.04,3.58l-5.85,.81-1.49-10.82,5.54-.76c2.85-.39,4.4,.58,4.63,2.25,.14,1.04-.27,1.94-1.13,2.55,1.28,.26,2.17,1.09,2.35,2.4Zm-8.05-4.64l.29,2.09,2.1-.29c1.02-.14,1.5-.57,1.4-1.26-.09-.68-.67-.96-1.69-.82l-2.1,.29Zm4.91,4.73c-.1-.74-.71-1.02-1.76-.88l-2.57,.35,.3,2.2,2.57-.35c1.05-.14,1.56-.58,1.46-1.32Z"/>
          <rect class="cls-52" x="85.69" y="142.49" width="11.76" height="1.86"/>
          <rect class="cls-52" x="85.69" y="146" width="5.88" height="1.86"/>
          <polygon class="cls-52" points="128.58 158.28 119.56 158.28 119.56 150.87 124.23 150.87 124.23 152.43 121.12 152.43 121.12 156.72 127.02 156.72 127.02 155.16 128.58 155.16 128.58 158.28"/>
          <polygon class="cls-52" points="133.79 158.28 129.94 158.28 129.94 156.72 132.22 156.72 132.22 152.43 126.33 152.43 126.33 154.43 124.76 154.43 124.76 150.87 133.79 150.87 133.79 158.28"/>
          <rect class="cls-52" x="85.69" y="149.27" width="11.76" height="1.86"/>
          <path class="cls-28" d="M80.34,117.72s.13-.24,.39-.6c.26-.36,.62-.84,1.05-1.37,.42-.53,.82-.99,1.12-1.31,.3-.33,.49-.52,.51-.5,.04,.03-.66,.87-1.5,1.92-.84,1.05-1.53,1.89-1.57,1.86Z"/>
          <path class="cls-28" d="M80.4,82.75s.74,.79,1.57,1.84c.83,1.05,1.47,1.92,1.43,1.95-.04,.03-.74-.79-1.57-1.84-.83-1.05-1.47-1.92-1.43-1.95Z"/>
          <g>
            <path class="cls-4" d="M104.53,82.78c-1.05,1.3-2.11,2.6-3.16,3.9"/>
            <path class="cls-28" d="M101.37,86.68s.64-.93,1.51-2c.87-1.08,1.61-1.93,1.65-1.9,.04,.03-.64,.93-1.51,2-.87,1.08-1.61,1.93-1.65,1.9Z"/>
          </g>
          <path class="cls-28" d="M104.53,117.72s-.73-.79-1.55-1.82c-.82-1.04-1.45-1.9-1.41-1.93,.04-.03,.73,.79,1.55,1.82,.82,1.04,1.45,1.9,1.41,1.93Z"/>
          <path class="cls-11" d="M132.68,185.89c-.43-.37-1.39-1.54-.65-2.9,.27-.5,.85-.74,1.37-.96,.52-.22,1.07-.41,1.5-.78,.81-.69,1.04-1.84,1.58-2.77,.62-1.06,1.78-1.85,3-1.8,1.4,.06,2.57,1.21,3.1,2.51,.53,1.3,.55,2.75,.56,4.16,0,.78-.03,1.66-.6,2.18-.53,.48-1.32,.49-2.03,.47-2.55-.08-5.1-.16-7.65-.24"/>
          <path class="cls-28" d="M147.31,164.85h-20.12l3.62,21.61c.16,.94,.84,1.67,1.72,1.92,.02,0,.05,.01,.07,.02,.06,.02,.12,.04,.18,.05,.13,.03,.27,.04,.41,.05,0,0,0,.01,0,.02l.1-.02h8.97c.17,0,.33-.02,.49-.05,1.06-.16,1.91-1.01,2.04-2.11l1.75-14.89,.08-.59h0l.69-5.9v-.11Zm-3.78,13.79h-2.06l.21-6.27h2.39l-.54,6.27Zm.74-6.27h1.98l-.74,6.27h-1.78l.54-6.27Zm-5.9,13.23l-.13-5.45h2.97l-.18,5.45h-2.67Zm-3.21-5.45h2.89l.13,5.45h-2.59l-.42-5.45Zm.22,5.45h-2.42c-.23-1.47-.53-3.38-.85-5.45h2.85l.42,5.45Zm-.34-6.95l-.49-6.27h3.31l.14,6.27h-2.97Zm3.17,0l-.14-6.27h3.41l-.21,6.27h-3.06Zm-.18-7.78l-.13-5.81h3.82l-.19,5.81h-3.5Zm-.2,0h-3.4l-.45-5.81h3.71l.13,5.81Zm-3.6,0h-3.59c-.13-.8-.25-1.56-.36-2.25-.37-2.35-.52-3.23-.59-3.56h4.09l.45,5.81Zm.12,1.5l.49,6.27h-2.97c-.1-.64-.2-1.28-.3-1.92-.23-1.48-.47-2.96-.69-4.35h3.47Zm-2.69,6.27h-1.94l-1.05-6.27h2.01c.31,1.94,.65,4.1,.99,6.27Zm.24,1.5c.3,1.89,.59,3.75,.85,5.45h-1.87l-.91-5.45h1.93Zm9.34,5.45l.18-5.45h1.99l-.47,5.45h-1.7Zm.49-14.73l.19-5.81h2.77l-.5,5.81h-2.47Zm-12.23-5.81c.08,.42,.45,2.71,.94,5.81h-2.02l-.97-5.81h2.06Zm15.2,20.54h-1.56l.47-5.45h1.73l-.64,5.45Zm1.73-14.73h-2.02l.5-5.81h2.21l-.68,5.81Z"/>
          <path class="cls-53" d="M201.9,189.15s-27.13,.07-60.58,.07-60.59-.03-60.59-.07,27.12-.07,60.59-.07,60.58,.03,60.58,.07Z"/>
          <rect class="cls-52" x="99.77" y="114.12" width="74.79" height="2.25"/>
          <rect class="cls-52" x="99.73" y="111.14" width="74.79" height="2.25"/>
          <rect class="cls-52" x="99.73" y="108.11" width="74.79" height="2.25"/>
          <rect class="cls-52" x="99.73" y="105.08" width="74.79" height="2.25"/>
          <rect class="cls-52" x="99.77" y="117.22" width="74.79" height="2.25"/>
          <rect class="cls-52" x="99.77" y="120.13" width="74.79" height="2.25"/>
          <rect class="cls-52" x="99.77" y="123.17" width="74.79" height="2.25"/>
          <rect class="cls-52" x="99.77" y="126.05" width="74.79" height="2.25"/>
          <rect class="cls-52" x="99.77" y="128.83" width="74.79" height="2.25"/>
          <rect class="cls-52" x="99.77" y="131.98" width="74.79" height="2.25"/>
          <rect class="cls-6" x="94.65" y="71.58" width="87.15" height="5"/>
          <path class="cls-53" d="M100.74,81.74h-.54v-.2h1.3v.2h-.54v1.38h-.22v-1.38Z"/>
          <path class="cls-53" d="M101.48,82.53c0-.35,.26-.61,.62-.61s.62,.25,.62,.61-.26,.61-.62,.61-.62-.25-.62-.61Zm1.02,0c0-.25-.17-.42-.4-.42s-.4,.16-.4,.42,.17,.42,.4,.42,.4-.17,.4-.42Z"/>
          <path class="cls-53" d="M103.52,82.07c0-.09,.07-.15,.15-.15s.15,.06,.15,.15-.07,.16-.15,.16-.15-.07-.15-.16Zm0,.91c0-.09,.07-.15,.15-.15s.15,.06,.15,.15-.07,.15-.15,.15-.15-.07-.15-.15Z"/>
          <g>
            <path class="cls-53" d="M99.77,90.97l.08-.17c.12,.1,.31,.18,.51,.18,.27,0,.38-.1,.38-.24,0-.38-.94-.14-.94-.72,0-.24,.19-.44,.6-.44,.18,0,.37,.05,.5,.14l-.07,.18c-.14-.09-.29-.13-.43-.13-.26,0-.38,.11-.38,.25,0,.38,.94,.14,.94,.71,0,.24-.19,.44-.6,.44-.24,0-.47-.08-.6-.2Z"/>
            <path class="cls-53" d="M102.36,89.97v1.18h-.2v-.18c-.09,.12-.23,.19-.4,.19-.3,0-.51-.17-.51-.51v-.68h.21v.65c0,.23,.12,.35,.32,.35,.22,0,.36-.14,.36-.39v-.61h.21Z"/>
            <path class="cls-53" d="M103.98,90.56c0,.36-.25,.6-.6,.6-.17,0-.32-.07-.42-.2v.19h-.2v-1.65h.21v.65c.1-.13,.24-.19,.41-.19,.34,0,.6,.24,.6,.6Zm-.22,0c0-.25-.17-.41-.4-.41s-.4,.16-.4,.41,.17,.42,.4,.42,.4-.16,.4-.42Z"/>
            <path class="cls-53" d="M103.87,91.52l.07-.16s.1,.06,.17,.06c.11,0,.18-.07,.18-.21v-1.24h.21v1.23c0,.24-.13,.39-.38,.39-.1,0-.2-.02-.26-.07Zm.38-1.92c0-.08,.06-.14,.14-.14s.14,.06,.14,.14c0,.08-.06,.14-.14,.14s-.14-.06-.14-.14Z"/>
            <path class="cls-53" d="M105.97,90.63h-.96c.03,.21,.19,.34,.43,.34,.14,0,.25-.05,.34-.14l.12,.14c-.11,.12-.27,.19-.46,.19-.38,0-.63-.25-.63-.6s.25-.6,.59-.6,.58,.24,.58,.61c0,.02,0,.04,0,.06Zm-.96-.15h.76c-.02-.2-.17-.34-.38-.34s-.36,.14-.38,.34Z"/>
            <path class="cls-53" d="M106.16,90.56c0-.35,.26-.6,.62-.6,.21,0,.39,.09,.48,.25l-.16,.1c-.08-.12-.19-.17-.32-.17-.23,0-.4,.16-.4,.41s.17,.42,.4,.42c.13,0,.24-.05,.32-.17l.16,.1c-.09,.16-.27,.25-.48,.25-.36,0-.62-.25-.62-.6Z"/>
            <path class="cls-53" d="M108.21,91.08c-.06,.06-.16,.08-.26,.08-.24,0-.37-.13-.37-.37v-.65h-.2v-.18h.2v-.26h.21v.26h.34v.18h-.34v.64c0,.13,.07,.2,.18,.2,.06,0,.12-.02,.17-.06l.07,.15Z"/>
          </g>
          <path class="cls-53" d="M108.94,90.11c0-.09,.07-.15,.15-.15s.15,.06,.15,.15-.07,.15-.15,.15-.15-.06-.15-.15Zm0,.9c0-.09,.07-.15,.15-.15s.15,.06,.15,.15-.07,.15-.15,.15-.15-.06-.15-.15Z"/>
          <path class="cls-4" d="M97.72,74.07c0,.3-.24,.54-.54,.54s-.54-.24-.54-.54,.24-.54,.54-.54,.54,.24,.54,.54Z"/>
          <path class="cls-4" d="M99.64,74.07c0,.3-.24,.54-.54,.54s-.54-.24-.54-.54,.24-.54,.54-.54,.54,.24,.54,.54Z"/>
          <path class="cls-4" d="M101.57,74.07c0,.3-.24,.54-.54,.54s-.54-.24-.54-.54,.24-.54,.54-.54,.54,.24,.54,.54Z"/>
          <path class="cls-53" d="M114.99,100.54s0-.02,0-.06c0-.05,0-.1,0-.18,0-.16,0-.39,0-.68,0-.6-.01-1.46-.02-2.55l.04,.04c-3.45,0-9.16,.02-15.62,.03h0c.14-.14,.04-.04,.07-.07h0v.44c0,.15,0,.3,0,.44,0,.29,0,.59,0,.88,0,.58,0,1.15,0,1.71l-.07-.07c4.43,.01,8.33,.02,11.12,.03,1.39,0,2.51,.01,3.29,.02,.38,0,.68,0,.89,0,.1,0,.17,0,.23,0,.05,0,.08,0,.08,0,0,0-.02,0-.07,0-.06,0-.13,0-.22,0-.21,0-.5,0-.88,0-.78,0-1.89,.01-3.28,.02-2.81,0-6.72,.02-11.17,.03h-.07s0-.07,0-.07c0-.56,0-1.13,0-1.71,0-.29,0-.58,0-.88,0-.15,0-.29,0-.44v-.33s0-.06,0-.06v-.03h0v-.02h0s-.07,.06,.07-.08h0c6.46,.01,12.18,.02,15.62,.03h.04s0,.04,0,.04c0,1.1-.02,1.97-.02,2.57,0,.29,0,.51,0,.67,0,.07,0,.13,0,.17,0,.04,0,.06,0,.06Z"/>
          <path class="cls-53" d="M124.64,100.54s0-.02,0-.07c0-.05,0-.11,0-.18,0-.17,0-.4-.01-.7,0-.61-.02-1.47-.03-2.53l.05,.05c-2.19,0-5.21,.01-8.55,.02-.06,.06,.08-.08,.07-.07h0v.23s0,.23,0,.23c0,.15,0,.3,0,.45,0,.3,0,.59,0,.88,0,.58,0,1.14,0,1.69l-.07-.07c2.46,.01,4.59,.02,6.11,.03,.75,0,1.36,.01,1.78,.02,.2,0,.36,0,.48,0,.11,0,.17,0,.17,0,0,0-.05,0-.16,0-.12,0-.27,0-.47,0-.42,0-1.02,.01-1.77,.02-1.54,0-3.68,.02-6.16,.03h-.07s0-.07,0-.07c0-.54,0-1.11,0-1.69,0-.29,0-.58,0-.88,0-.15,0-.3,0-.45v-.23s0-.11,0-.11v-.09h0v-.02h0s.13-.14,.07-.08c3.34,0,6.36,.02,8.55,.02h.05s0,.05,0,.05c-.01,1.07-.02,1.94-.03,2.56,0,.29,0,.52-.01,.68,0,.15,0,.23-.01,.23Z"/>
          <path class="cls-53" d="M100.97,98.36h-.56v-.2h1.36v.2h-.56v1.44h-.23v-1.44Z"/>
          <path class="cls-53" d="M101.92,98.17c0-.08,.07-.15,.15-.15s.15,.06,.15,.14c0,.08-.06,.15-.15,.15s-.15-.06-.15-.15Zm.04,.38h.22v1.24h-.22v-1.24Z"/>
          <path class="cls-53" d="M103.31,99.72c-.07,.06-.17,.09-.27,.09-.25,0-.39-.14-.39-.39v-.68h-.21v-.19h.21v-.27h.22v.27h.36v.19h-.36v.67c0,.13,.07,.21,.19,.21,.07,0,.13-.02,.18-.06l.07,.16Z"/>
          <path class="cls-53" d="M103.58,98.06h.22v1.74h-.22v-1.74Z"/>
          <path class="cls-53" d="M105.35,99.25h-1.01c.03,.22,.2,.36,.45,.36,.15,0,.27-.05,.36-.15l.12,.15c-.11,.13-.28,.2-.49,.2-.4,0-.67-.26-.67-.63s.26-.63,.62-.63,.61,.26,.61,.64c0,.02,0,.05,0,.07Zm-1.01-.16h.8c-.02-.21-.18-.36-.4-.36s-.37,.15-.4,.36Z"/>
          <polygon class="cls-53" points="112.5 98.66 113.99 98.66 113.25 99.4 112.5 98.66"/>
          <polygon class="cls-53" points="121.95 98.66 123.43 98.66 122.69 99.4 121.95 98.66"/>
          <path class="cls-28" d="M178.89,135.76c0-.41-.02-15.47-.05-40.34l.05,.05c-21.24,0-49.76,.01-81.04,.02h0l.07-.07c0,14.22,0,27.87,0,40.34l-.07-.07c47.3,.04,80.45,.06,81.05,.07-.6,0-33.75,.03-81.05,.07h-.07s0-.07,0-.07c0-12.47,0-26.12,0-40.34v-.07h.07c31.28,0,59.81,.01,81.04,.02h.05s0,.05,0,.05c-.03,24.86-.05,39.93-.05,40.34Z"/>
          <path class="cls-28" d="M178.89,93.89s0-.16,0-.46c0-.3,0-.75,0-1.33,0-1.17,0-2.89-.02-5.11l.03,.03c-13.35,0-44.67,.02-81.17,.04h0l.07-.07c0,2.36,0,4.7,0,6.9l-.07-.07c22.73,.01,43.02,.02,57.62,.03,7.31,0,13.19,.02,17.25,.02,2.03,0,3.6,0,4.67,0,.53,0,.94,0,1.21,0,.27,0,.42,0,.42,0,0,0-.14,0-.41,0-.27,0-.68,0-1.21,0-1.06,0-2.63,0-4.66,0-4.06,0-9.94,.01-17.23,.02-14.62,0-34.92,.02-57.67,.03h-.07s0-.07,0-.07c0-2.19,0-4.54,0-6.9v-.07h.07c36.5,.02,67.81,.04,81.17,.04h.03v.03c0,2.22-.01,3.95-.02,5.12,0,.58,0,1.03,0,1.33,0,.3,0,.45,0,.45Z"/>
          <path class="cls-28" d="M178.89,85.53s0-.16,0-.46c0-.3,0-.75,0-1.33,0-1.17,0-2.89-.02-5.11l.03,.03c-13.35,0-44.67,.02-81.17,.04h0l.07-.07c0,2.36,0,4.7,0,6.9l-.07-.07c22.73,.01,43.02,.02,57.62,.03,7.31,0,13.19,.02,17.25,.02,2.03,0,3.6,0,4.67,0,.53,0,.94,0,1.21,0,.27,0,.42,0,.42,0,0,0-.14,0-.41,0-.27,0-.68,0-1.21,0-1.06,0-2.63,0-4.66,0-4.06,0-9.94,.01-17.23,.02-14.62,0-34.92,.02-57.67,.03h-.07s0-.07,0-.07c0-2.19,0-4.54,0-6.9v-.07h.07c36.5,.02,67.81,.04,81.17,.04h.03v.03c0,2.22-.01,3.95-.02,5.12,0,.58,0,1.03,0,1.33,0,.3,0,.45,0,.45Z"/>
          <path class="cls-53" d="M157.79,97.38c-.28,0-.5,.2-.51,.46h0v1.8h0c.03,.34,.34,.6,.71,.6s.68-.26,.71-.6h0v-1.45h-.14v1.39c0,.29-.26,.53-.58,.53s-.58-.24-.58-.53v-1.72c0-.19,.17-.34,.37-.34s.37,.15,.37,.34v1.46h0c-.02,.09-.11,.15-.21,.15s-.18-.07-.21-.16v-1.12h-.14v1.07h0v.05h0c.03,.16,.17,.27,.34,.27s.31-.12,.34-.27h0v-.03s0-.02,0-.02h0v-1.42h0c0-.25-.24-.46-.51-.46Z"/>
          <g>
            <rect class="cls-53" x="136.83" y="98.17" width="2.04" height=".32"/>
            <rect class="cls-53" x="136.83" y="99.35" width="2.04" height=".32"/>
            <rect class="cls-53" x="136.83" y="98.78" width="1.02" height=".32"/>
          </g>
          <g>
            <rect class="cls-53" x="144.51" y="98.17" width="2.04" height=".32"/>
            <rect class="cls-53" x="144.51" y="99.35" width="2.04" height=".32"/>
            <rect class="cls-53" x="145.53" y="98.78" width="1.02" height=".32"/>
          </g>
          <g>
            <rect class="cls-53" x="140.72" y="98.17" width="2.04" height=".32"/>
            <rect class="cls-53" x="140.72" y="99.35" width="2.04" height=".32"/>
            <rect class="cls-53" x="140.72" y="98.78" width="2.04" height=".32"/>
          </g>
          <g>
            <polygon class="cls-53" points="151.67 99.57 149.99 99.57 149.99 98.2 150.86 98.2 150.86 98.49 150.28 98.49 150.28 99.28 151.38 99.28 151.38 98.99 151.67 98.99 151.67 99.57"/>
            <polygon class="cls-53" points="152.63 99.57 151.92 99.57 151.92 99.28 152.34 99.28 152.34 98.49 151.25 98.49 151.25 98.85 150.96 98.85 150.96 98.2 152.63 98.2 152.63 99.57"/>
            <polygon class="cls-53" points="153.3 98.77 154.2 98.77 153.75 99.19 153.3 98.77"/>
          </g>
          <path class="cls-53" d="M133.19,98.91v-.77h.25v.76c0,.28,.13,.4,.35,.4s.34-.12,.34-.4v-.76h.25v.77c0,.4-.22,.61-.6,.61s-.6-.22-.6-.61Z"/>
          <path class="cls-53" d="M130.89,97.99h.23l-.32,1.59h-.23l.32-1.59Z"/>
          <path class="cls-53" d="M128.75,99.15c0,.28-.23,.44-.66,.44h-.86v-1.59h.81c.42,0,.62,.17,.62,.42,0,.15-.08,.28-.21,.35,.18,.06,.29,.2,.29,.39Zm-1.07-.83v.31h.31c.15,0,.23-.05,.23-.15s-.08-.15-.23-.15h-.31Zm.61,.78c0-.11-.08-.16-.24-.16h-.38v.32h.38c.15,0,.24-.05,.24-.16Z"/>
          <path class="cls-28" d="M135.6,100.64s-.07-.82-.07-1.83,.03-1.83,.07-1.83,.07,.82,.07,1.83-.03,1.83-.07,1.83Z"/>
          <path class="cls-28" d="M147.74,100.64s-.07-.82-.07-1.83,.03-1.83,.07-1.83,.07,.82,.07,1.83-.03,1.83-.07,1.83Z"/>
          <path class="cls-28" d="M155.09,100.71s-.07-.82-.07-1.83,.03-1.83,.07-1.83,.07,.82,.07,1.83-.03,1.83-.07,1.83Z"/>
          <path class="cls-28" d="M160.66,100.6s-.07-.82-.07-1.83,.03-1.83,.07-1.83,.07,.82,.07,1.83-.03,1.83-.07,1.83Z"/>
          <path class="cls-53" d="M134.66,99.71s-.37,.07-.82,.07-.82-.03-.82-.07,.37-.07,.82-.07,.82,.03,.82,.07Z"/>
          <path class="cls-53" d="M118.6,97.99v1.59h-.23v-1.4h-.36v-.2h.58Z"/>
          <path class="cls-53" d="M120.06,99.39v.2h-1.14v-.15l.65-.63c.17-.16,.2-.26,.2-.36,0-.16-.12-.26-.34-.26-.17,0-.31,.05-.41,.17l-.15-.13c.12-.15,.33-.24,.58-.24,.33,0,.55,.17,.55,.44,0,.15-.05,.29-.26,.5l-.49,.47h.82Z"/>
          <path class="cls-28" d="M178.89,102.36s-18.18,.07-40.59,.07-40.59-.03-40.59-.07,18.17-.07,40.59-.07,40.59,.03,40.59,.07Z"/>
          <path class="cls-53" d="M173.88,106.38s-16.51,.07-36.86,.07-36.86-.03-36.86-.07,16.5-.07,36.86-.07,36.86,.03,36.86,.07Z"/>
          <path class="cls-53" d="M173.88,109.37s-16.51,.07-36.86,.07-36.86-.03-36.86-.07,16.5-.07,36.86-.07,36.86,.03,36.86,.07Z"/>
          <path class="cls-53" d="M173.88,112.36s-16.51,.07-36.86,.07-36.86-.03-36.86-.07,16.5-.07,36.86-.07,36.86,.03,36.86,.07Z"/>
          <path class="cls-53" d="M173.88,115.34s-16.51,.07-36.86,.07-36.86-.03-36.86-.07,16.5-.07,36.86-.07,36.86,.03,36.86,.07Z"/>
          <path class="cls-53" d="M173.88,118.33s-16.51,.07-36.86,.07-36.86-.03-36.86-.07,16.5-.07,36.86-.07,36.86,.03,36.86,.07Z"/>
          <path class="cls-53" d="M173.88,121.32s-16.51,.07-36.86,.07-36.86-.03-36.86-.07,16.5-.07,36.86-.07,36.86,.03,36.86,.07Z"/>
          <path class="cls-53" d="M173.88,124.3s-16.51,.07-36.86,.07-36.86-.03-36.86-.07,16.5-.07,36.86-.07,36.86,.03,36.86,.07Z"/>
          <path class="cls-53" d="M173.94,127.19s-16.51,.07-36.86,.07-36.86-.03-36.86-.07,16.5-.07,36.86-.07,36.86,.03,36.86,.07Z"/>
          <path class="cls-53" d="M173.99,130.07s-16.51,.07-36.86,.07-36.86-.03-36.86-.07,16.5-.07,36.86-.07,36.86,.03,36.86,.07Z"/>
          <path class="cls-53" d="M100.32,132.95s16.51-.07,36.86-.07,36.86,.03,36.86,.07-16.5,.07-36.86,.07-36.86-.03-36.86-.07Z"/>
          <path class="cls-22" d="M181.72,138.8c0-.47-.02-26.59-.06-67.15l.06,.06c-24.73,0-54.73,0-87.06,.01h0l.07-.07c0,24.19,0,47.08,0,67.15l-.06-.06c51.66,.04,86.52,.06,87.07,.06-.55,0-35.41,.03-87.07,.06h-.06s0-.06,0-.06c0-20.08,0-42.96,0-67.15v-.07s.07,0,.07,0h0c32.33,0,62.34,0,87.06,.01h.06v.06c-.03,40.56-.06,66.68-.06,67.15Z"/>
          <g>
            <path class="cls-6" d="M147.68,92.49v5.78c0,1.07,.86,1.93,1.93,1.93h7.06c.21,0,.4,.09,.53,.26l1.73,3.78,2.09-3.72c.13-.14,.31-.22,.5-.22h7.41c1.07,0,1.93-.86,1.93-1.93v-5.91c0-1.07-.87-1.93-1.93-1.93l-19.32,.04c-1.06,0-1.93,.86-1.93,1.93Z"/>
            <path class="cls-4" d="M152.53,97.48h-1.21v-1.14l2.78-3.04,.06-.02c.39-.11,.69-.06,.9,.13,.35,.32,.26,.91,.24,.98v.06s-2.78,3.03-2.78,3.03Zm-.81-.4h.63l2.57-2.81c.02-.15,.01-.43-.13-.56-.09-.08-.25-.1-.47-.05l-2.6,2.84v.58Z"/>
            <g>
              <path class="cls-4" d="M160.4,96.72v.39h-2.3v-3.16h2.23v.39h-1.78v.97h1.59v.38h-1.59v1.02h1.84Z"/>
              <path class="cls-4" d="M163.3,93.76v3.35h-.42v-.38c-.19,.27-.5,.41-.85,.41-.7,0-1.21-.49-1.21-1.22s.51-1.22,1.21-1.22c.34,0,.64,.13,.84,.38v-1.32h.43Zm-.43,2.16c0-.51-.35-.84-.8-.84s-.81,.33-.81,.84,.35,.85,.81,.85,.8-.33,.8-.85Z"/>
              <path class="cls-4" d="M164.05,93.97c0-.16,.13-.28,.29-.28s.29,.12,.29,.28c0,.16-.12,.29-.29,.29s-.29-.12-.29-.28Zm.08,.74h.43v2.4h-.43v-2.4Z"/>
              <path class="cls-4" d="M166.73,96.97c-.13,.11-.33,.17-.52,.17-.48,0-.76-.27-.76-.75v-1.32h-.41v-.36h.41v-.52h.43v.52h.69v.36h-.69v1.3c0,.26,.14,.4,.38,.4,.13,0,.25-.04,.34-.11l.14,.31Z"/>
            </g>
          </g>
          <path class="cls-6" d="M105.89,181.74c-.69-.03-.9-1.01-.64-1.66,.26-.64,.77-1.22,.78-1.91,0-.6-.38-1.15-.41-1.75-.07-1.08,.98-1.97,1.03-3.05,.03-.85-.55-1.65-.41-2.49,.15-.9,1.09-1.48,1.3-2.37,.23-.94-.42-1.93-.17-2.87,.25-.93,1.35-1.61,1.19-2.56-.05-.31-.24-.59-.33-.9-.2-.71,.19-1.45,.66-2.02,.47-.57,1.04-1.07,1.33-1.75,.45-1.04,.14-2.3,.66-3.31,.44-.83,1.41-1.39,1.54-2.33,.49,.84,.01,1.91,.12,2.88,.07,.63,.4,1.2,.6,1.8,.41,1.23,.27,2.63-.37,3.76-.42,.74-1.08,1.45-1.04,2.3,.04,1.04,1.08,1.79,1.26,2.81,.26,1.46-1.29,2.77-1.08,4.24,.06,.38,.23,.74,.26,1.12,.11,1.3-1.36,2.22-1.59,3.5-.16,.94,.38,1.92,.16,2.85-.17,.72-.79,1.36-.64,2.09,.07,.31,.27,.58,.4,.87,.24,.56,.15,1.26-.26,1.72-.41,.46-1.13,.62-1.67,.34"/>
          <path class="cls-4" d="M110.49,181.02c-.12-.3-.33-.56-.4-.87-.15-.72,.47-1.37,.64-2.09,.23-.93-.32-1.91-.16-2.85,.22-1.28,1.7-2.2,1.59-3.5-.03-.38-.21-.74-.26-1.12-.22-1.47,1.34-2.78,1.08-4.24-.18-1.02-1.22-1.77-1.26-2.81-.03-.86,.62-1.56,1.04-2.3,.64-1.13,.78-2.53,.37-3.76-.2-.6-.53-1.17-.6-1.8-.11-.97,.37-2.04-.12-2.88-.12,.93-1.1,1.49-1.54,2.33-.53,1-.22,2.27-.66,3.31-.29,.68-.86,1.18-1.33,1.75-.47,.57-.86,1.31-.66,2.02,.09,.31,.27,.58,.33,.9,.16,.95-.94,1.63-1.19,2.56-.25,.93,.4,1.93,.17,2.87-.21,.88-1.15,1.47-1.3,2.37-.14,.83,.44,1.64,.41,2.49-.04,1.09-1.09,1.97-1.03,3.05,.04,.6,.42,1.15,.41,1.75,0,.69-.52,1.27-.78,1.91-.26,.64-.05,1.62,.64,1.66l2.67,1.34c.55,.28,1.27,.11,1.67-.34,.41-.46,.5-1.16,.26-1.72Z"/>
          <path class="cls-6" d="M109.59,180.38c-.15-.24-.32-.74-.27-1.03,.07-.4,.74-.75,.91-1.42,.22-.87-.17-2.42,0-3.3,.23-1.2,1.46-1.98,1.41-3.17-.01-.35,.03-1.28,0-1.63-.13-1.34,1.04-2.24,.87-3.57-.12-.93-1.08-2.02-1.08-2.97,0-.79,.56-1.48,.94-2.19,.57-1.08,.72-2.38,.42-3.48-.15-.54-.4-1.05-.44-1.62-.06-.88,.37-1.9-.01-2.64-.13,.87-.96,1.45-1.35,2.24-.47,.96-.25,2.1-.65,3.09-.26,.64-.75,1.14-1.16,1.69-.41,.55-.75,1.26-.61,1.9,.06,.28,.21,.52,.24,.8,.1,.87-.83,1.57-1.07,2.44-.24,.88,.27,1.75,.05,2.63-.21,.83-1.01,1.95-1.17,2.78-.14,.78,.56,1.28,.51,2.06-.07,1-1.08,2.21-1.05,3.21,.01,.55,.47,.73,.45,1.28-.03,.64-.56,1.91-.8,2.52-.23,.61-.22,1.08,.17,1.72l2.98,1.48c1.33-.63,1.27-1.93,.72-2.84Z"/>
          <path class="cls-53" d="M111.59,157.9s0,.02,0,.07c0,.05,0,.11,0,.19,0,.17,0,.42-.03,.74-.03,.32-.08,.72-.27,1.15-.18,.44-.55,.83-.9,1.28-.17,.23-.34,.48-.42,.78-.09,.29-.13,.62-.11,.95,.03,.67,.24,1.37,.34,2.14,.05,.38,.06,.79-.04,1.18-.05,.2-.13,.39-.23,.57-.11,.18-.23,.34-.31,.52-.17,.37-.1,.8-.02,1.21,.04,.21,.09,.42,.12,.64,.03,.22,.01,.45-.02,.67-.07,.45-.24,.86-.41,1.25-.17,.39-.35,.78-.46,1.17-.12,.39-.15,.79-.1,1.19,.03,.39,.1,.79,.04,1.18-.05,.39-.22,.74-.38,1.06-.16,.32-.31,.64-.38,.97-.13,.66,.06,1.29,.05,1.87,0,.59-.2,1.09-.34,1.53-.15,.43-.26,.81-.29,1.13-.03,.32,.01,.57,.08,.73,.06,.16,.11,.23,.1,.24,0,0-.05-.07-.12-.23-.07-.16-.12-.41-.1-.74,.02-.33,.13-.71,.27-1.15,.13-.44,.32-.93,.32-1.51,0-.29-.04-.58-.07-.9-.03-.31-.06-.65,.01-.99,.13-.69,.63-1.28,.74-2.02,.05-.37-.01-.76-.05-1.16-.05-.4-.02-.83,.1-1.23,.23-.81,.72-1.55,.87-2.41,.03-.21,.04-.43,.02-.64-.02-.21-.07-.42-.11-.63-.08-.41-.16-.87,.03-1.28,.09-.2,.22-.36,.32-.53,.09-.17,.18-.35,.22-.54,.1-.38,.08-.77,.04-1.14-.09-.75-.3-1.46-.33-2.14-.02-.34,.02-.68,.12-.99,.09-.31,.27-.57,.45-.8,.36-.45,.73-.83,.9-1.25,.19-.41,.25-.81,.28-1.13,.04-.32,.04-.57,.05-.74,0-.08,0-.14,0-.19,0-.04,0-.07,0-.07Z"/>
          <path class="cls-6" d="M101.64,182.08c-.97,.14-1.52-1.16-1.34-2.12,.18-.96,.73-1.9,.55-2.86-.16-.84-.84-1.49-1.05-2.31-.39-1.48,.82-2.99,.59-4.51-.18-1.18-1.22-2.14-1.25-3.33-.03-1.28,1.1-2.35,1.15-3.63,.06-1.36-1.12-2.56-1.03-3.93,.09-1.36,1.42-2.6,.95-3.88-.16-.42-.5-.75-.7-1.15-.47-.93-.13-2.06,.36-2.97,.49-.91,1.15-1.77,1.37-2.79,.33-1.56-.44-3.23,.01-4.76,.38-1.27,1.58-2.32,1.49-3.65,.92,1.03,.54,2.64,.96,3.95,.27,.85,.88,1.55,1.33,2.33,.91,1.59,1.1,3.57,.52,5.31-.38,1.15-1.1,2.3-.82,3.48,.34,1.43,1.98,2.18,2.52,3.55,.76,1.95-1.03,4.2-.33,6.17,.18,.51,.52,.96,.67,1.48,.51,1.77-1.28,3.44-1.24,5.28,.03,1.35,1.05,2.56,1,3.91-.04,1.04-.73,2.1-.32,3.06,.18,.42,.53,.73,.79,1.1,.48,.72,.55,1.71,.11,2.46-.44,.74-1.39,1.17-2.22,.93"/>
          <path class="cls-4" d="M107.81,179.82c-.25-.37-.61-.68-.79-1.1-.41-.96,.27-2.02,.32-3.06,.06-1.35-.97-2.56-1-3.91-.04-1.84,1.75-3.51,1.24-5.28-.15-.52-.49-.97-.67-1.48-.7-1.98,1.1-4.22,.33-6.17-.53-1.36-2.18-2.12-2.52-3.55-.28-1.18,.43-2.33,.82-3.48,.58-1.74,.39-3.72-.52-5.31-.44-.78-1.05-1.48-1.33-2.33-.42-1.31-.04-2.93-.96-3.95,.09,1.33-1.11,2.37-1.49,3.65-.45,1.53,.32,3.2-.01,4.76-.22,1.02-.87,1.87-1.37,2.79-.49,.91-.83,2.05-.36,2.97,.2,.4,.54,.73,.7,1.15,.48,1.27-.86,2.52-.95,3.88-.09,1.36,1.09,2.56,1.03,3.93-.05,1.28-1.19,2.35-1.15,3.63,.03,1.19,1.07,2.15,1.25,3.33,.24,1.52-.97,3.03-.59,4.51,.22,.82,.89,1.48,1.05,2.31,.18,.96-.37,1.9-.55,2.86-.18,.96,.37,2.26,1.34,2.12l4.06,1.12c.83,.23,1.78-.19,2.22-.93,.44-.74,.37-1.74-.11-2.46Z"/>
          <path class="cls-6" d="M106.39,179.18c-.27-.29-.64-.94-.65-1.35,0-.57,.82-1.24,.87-2.21,.06-1.27-.9-3.3-.91-4.57-.01-1.72,1.48-3.15,1.09-4.78-.12-.48-.3-1.79-.45-2.26-.55-1.82,.83-3.38,.23-5.18-.42-1.25-2.05-2.5-2.31-3.82-.22-1.09,.38-2.2,.7-3.29,.49-1.65,.35-3.49-.37-4.94-.35-.71-.84-1.34-1.06-2.13-.33-1.21,0-2.74-.74-3.66,.06,1.24-.93,2.27-1.25,3.48-.39,1.45,.23,2.98-.06,4.46-.19,.96-.73,1.79-1.14,2.67-.41,.88-.7,1.95-.33,2.8,.16,.37,.43,.66,.56,1.05,.37,1.17-.72,2.4-.81,3.67-.09,1.28,.86,2.35,.8,3.63-.06,1.2-.87,2.98-.86,4.18,.01,1.12,1.13,1.62,1.27,2.72,.18,1.41-.88,3.36-.58,4.73,.17,.76,.85,.88,.97,1.65,.14,.89-.26,2.8-.41,3.71-.16,.91,0,1.56,.7,2.33l4.53,1.23c1.67-1.24,1.23-3.02,.22-4.13Z"/>
          <path class="cls-53" d="M103,147.49s.13,.49,.23,1.4c.04,.45,.08,1.02-.06,1.66-.07,.32-.19,.65-.36,.98-.16,.33-.36,.67-.54,1.03-.18,.36-.34,.76-.38,1.2-.05,.43-.01,.9,.11,1.36,.23,.93,.71,1.84,1.05,2.87,.17,.51,.3,1.07,.27,1.64,0,.29-.08,.57-.16,.85-.1,.27-.23,.54-.29,.81-.14,.56,.08,1.15,.31,1.69,.12,.28,.24,.56,.33,.86,.1,.3,.14,.61,.16,.93,.02,.63-.1,1.25-.23,1.84-.13,.59-.27,1.17-.32,1.75-.02,.29-.03,.58,0,.86,.03,.28,.1,.56,.18,.83,.16,.54,.35,1.07,.38,1.62,.03,.55-.1,1.08-.23,1.57-.13,.49-.25,.97-.25,1.45,0,.47,.12,.92,.24,1.35,.13,.42,.26,.83,.34,1.24,.08,.41,.08,.8,.06,1.17-.02,.37-.07,.71-.11,1.03-.08,.64-.14,1.2-.09,1.65,.05,.45,.18,.79,.31,.99,.13,.2,.22,.29,.21,.3,0,0-.09-.09-.23-.29-.14-.2-.28-.54-.33-.99-.06-.46,0-1.02,.07-1.66,.04-.32,.08-.67,.1-1.03,.02-.36,.02-.75-.06-1.15-.08-.4-.21-.8-.35-1.23-.13-.43-.25-.88-.25-1.37,0-.49,.13-.98,.25-1.47,.13-.49,.25-1.01,.22-1.54-.03-.53-.22-1.05-.38-1.6-.08-.27-.15-.55-.18-.84-.04-.29-.03-.59,0-.88,.05-.59,.19-1.18,.32-1.77,.13-.59,.24-1.2,.22-1.81-.02-.31-.06-.61-.15-.9-.09-.29-.21-.57-.33-.85-.12-.28-.23-.56-.3-.86-.07-.3-.08-.61-.01-.91,.07-.3,.2-.56,.3-.83,.08-.27,.15-.54,.16-.82,.03-.55-.1-1.1-.26-1.6-.34-1.02-.81-1.94-1.04-2.88-.12-.47-.16-.94-.11-1.39,.04-.45,.21-.86,.39-1.23,.18-.37,.38-.7,.55-1.03,.17-.33,.29-.65,.36-.96,.14-.63,.12-1.19,.08-1.64-.04-.45-.1-.8-.13-1.04-.02-.11-.03-.2-.04-.27,0-.06-.01-.09-.01-.09Z"/>
          <path class="cls-6" d="M101.03,182.72c-.55,.27-1.13-.4-1.21-1.01-.08-.61,.07-1.28-.22-1.82-.26-.47-.79-.73-1.08-1.18-.52-.81-.09-1.95-.52-2.81-.34-.67-1.14-1.04-1.39-1.75-.27-.76,.2-1.62-.01-2.4-.23-.83-1.16-1.32-1.37-2.15-.21-.83,.35-1.83-.18-2.5-.18-.22-.44-.35-.64-.56-.46-.47-.48-1.21-.36-1.85,.12-.64,.35-1.28,.28-1.93-.1-1-.89-1.85-.91-2.85-.02-.84,.49-1.69,.19-2.47,.75,.44,.83,1.48,1.34,2.18,.33,.46,.83,.76,1.25,1.14,.85,.78,1.35,1.93,1.34,3.08,0,.76-.21,1.59,.18,2.24,.48,.79,1.61,.92,2.19,1.64,.83,1.02,.19,2.71,.99,3.76,.21,.27,.5,.47,.68,.75,.65,.96-.1,2.31,.28,3.4,.28,.8,1.13,1.33,1.35,2.15,.18,.63-.03,1.4,.4,1.9,.19,.21,.46,.33,.68,.51,.43,.34,.66,.92,.54,1.45-.12,.53-.61,.97-1.15,.99"/>
          <path class="cls-4" d="M104.29,180.17c-.22-.18-.5-.29-.68-.51-.43-.5-.23-1.26-.4-1.9-.23-.82-1.07-1.34-1.35-2.15-.38-1.09,.37-2.44-.28-3.4-.19-.28-.48-.48-.68-.75-.8-1.05-.16-2.74-.99-3.76-.58-.71-1.71-.85-2.19-1.64-.4-.65-.19-1.48-.18-2.24,.01-1.15-.49-2.3-1.34-3.08-.42-.38-.92-.68-1.25-1.14-.51-.7-.59-1.74-1.34-2.18,.31,.78-.21,1.63-.19,2.47,.02,1,.81,1.85,.91,2.85,.07,.65-.16,1.29-.28,1.93-.12,.64-.1,1.38,.36,1.85,.2,.2,.46,.33,.64,.56,.53,.67-.02,1.67,.18,2.5,.21,.83,1.14,1.32,1.37,2.15,.21,.78-.26,1.64,.01,2.4,.25,.71,1.05,1.08,1.39,1.75,.43,.86,0,2,.52,2.81,.29,.45,.82,.71,1.08,1.18,.29,.54,.15,1.21,.22,1.82,.08,.61,.66,1.28,1.21,1.01l2.65-.11c.54-.02,1.03-.46,1.15-.99,.12-.53-.11-1.11-.54-1.45Z"/>
          <path class="cls-6" d="M103.31,180.07c-.22-.12-.57-.44-.65-.68-.12-.34,.25-.9,.09-1.49-.21-.77-1.18-1.8-1.43-2.56-.34-1.03,.28-2.17-.27-3.07-.16-.26-.53-1.01-.7-1.26-.68-.98-.16-2.19-.86-3.14-.49-.67-1.71-1.1-2.12-1.84-.34-.61-.2-1.39-.22-2.1-.03-1.08-.46-2.16-1.18-2.89-.35-.36-.76-.64-1.04-1.07-.43-.66-.53-1.64-1.15-2.05,.27,.73-.12,1.54-.08,2.32,.05,.94,.71,1.74,.83,2.68,.07,.61-.09,1.21-.17,1.82-.08,.6-.04,1.3,.35,1.74,.17,.19,.39,.31,.54,.52,.45,.63,.03,1.57,.23,2.35,.19,.78,.97,1.24,1.18,2.02,.2,.73,.05,1.95,.29,2.67,.22,.67,.99,.75,1.28,1.38,.38,.81,.12,2.18,.57,2.95,.25,.42,.68,.36,.9,.8,.25,.51,.39,1.73,.47,2.3,.08,.57,.3,.93,.87,1.26l2.95-.14c.76-1.07,.15-2.04-.67-2.51Z"/>
          <path class="cls-53" d="M95.16,161.75s.01,.02,.03,.05c.02,.04,.05,.09,.09,.15,.07,.13,.18,.33,.3,.59,.11,.26,.25,.6,.29,1.01,.05,.42-.07,.88-.14,1.38-.04,.25-.06,.52,0,.79,.06,.27,.17,.53,.33,.78,.31,.51,.78,.96,1.18,1.51,.2,.28,.39,.58,.48,.94,.05,.18,.07,.36,.07,.55,0,.19-.03,.37-.02,.54,.03,.35,.26,.66,.51,.94,.12,.14,.25,.29,.37,.45,.12,.16,.21,.34,.28,.53,.14,.38,.18,.77,.22,1.15,.04,.38,.07,.75,.15,1.11,.08,.36,.23,.68,.43,.97,.2,.29,.42,.57,.54,.9,.13,.33,.15,.67,.17,.99,.02,.32,.04,.63,.13,.91,.19,.56,.6,.97,.84,1.43,.25,.46,.31,.94,.39,1.33,.07,.4,.15,.74,.26,1,.11,.26,.26,.43,.37,.53,.11,.1,.18,.14,.18,.14,0,0-.07-.03-.2-.12-.12-.09-.27-.27-.4-.53-.12-.26-.2-.61-.28-1.01-.09-.4-.16-.86-.4-1.31-.24-.44-.66-.85-.86-1.44-.2-.59-.06-1.27-.3-1.89-.12-.31-.33-.58-.53-.88-.21-.29-.37-.64-.45-1-.17-.73-.11-1.52-.37-2.24-.07-.18-.15-.35-.26-.5-.11-.15-.24-.3-.36-.44-.24-.28-.5-.61-.53-1.01-.02-.19,.01-.38,.02-.55,0-.18-.01-.35-.06-.52-.09-.33-.27-.63-.46-.9-.4-.54-.86-1-1.18-1.52-.16-.26-.28-.54-.33-.82-.06-.28-.04-.56,0-.82,.09-.51,.21-.96,.16-1.36-.03-.4-.16-.73-.27-1-.11-.26-.21-.46-.28-.6-.03-.06-.06-.11-.08-.15-.02-.04-.02-.05-.02-.05Z"/>
          <rect class="cls-36" x="95.41" y="177.27" width="17.68" height="3.13"/>
          <polygon class="cls-36" points="96.73 179.78 98.88 189.15 109.41 189.15 111.76 179.78 96.73 179.78"/>
          <path class="cls-53" d="M113.07,180.41s-3.99,.06-8.91,.06-8.91-.03-8.91-.06,3.99-.06,8.91-.06,8.91,.03,8.91,.06Z"/>
          <g>
            <path class="cls-28" d="M193.21,161.81s-5.98,2.73-11.8,2.73c-5.39,0-11.42-2.71-11.42-2.71l23.21-.02Z"/>
            <rect class="cls-28" x="180.8" y="162.07" width="2.31" height="24.17" transform="translate(363.91 348.3) rotate(180)"/>
            <rect class="cls-28" x="171.61" y="185.24" width="20.48" height="1.42" transform="translate(363.7 371.89) rotate(180)"/>
            <path class="cls-53" d="M189.69,187.26c0,.86,.7,1.56,1.56,1.56s1.56-.7,1.56-1.56-.7-1.56-1.56-1.56-1.56,.7-1.56,1.56Z"/>
            <path class="cls-53" d="M180.59,187.26c0,.86,.7,1.56,1.56,1.56s1.56-.7,1.56-1.56-.7-1.56-1.56-1.56-1.56,.7-1.56,1.56Z"/>
            <path class="cls-53" d="M170.05,187.26c0,.86,.7,1.56,1.56,1.56s1.56-.7,1.56-1.56-.7-1.56-1.56-1.56-1.56,.7-1.56,1.56Z"/>
            <rect class="cls-28" x="181.41" y="170.77" width="3.14" height="1.3" transform="translate(365.96 342.83) rotate(180)"/>
            <rect class="cls-28" x="183.98" y="169.86" width="1.14" height="3.12" transform="translate(369.1 342.83) rotate(180)"/>
            <path class="cls-36" d="M168.97,161.81h26.14c.96,0,1.73-.78,1.73-1.73h0c0-.96-.78-1.73-1.73-1.73h-26.14c-.96,0-1.73,.78-1.73,1.73h0c0,.96,.78,1.73,1.73,1.73Z"/>
          </g>
          <g>
            <g>
              <g>
                <path class="cls-53" d="M193.04,116.13s2.1-.82,2.02-2.61c-.09-1.79-2.5-3.57-2.36-6.26,.13-2.53-3.49-10.03-8.65-7.41,0,0-1.39-.2-2.6,.14-1.67,.48-2.19,2.07-3.17,3.65-1.52,2.44-2.55,4.36-1.82,6.05,.73,1.7,1.04,2.2,.47,3.65-.74,1.89-1.5,1.34-1.25,3l4.51,.07,.43-1.1,.05,1.19,2.65-.04,9.73-.33Z"/>
                <path class="cls-53" d="M180.19,102.49c.05,.7-.4,1.32-.86,1.84-.46,.52-.97,1.07-1.07,1.76-.17,1.23,1.03,2.36,.79,3.57-.13,.65-.66,1.17-.75,1.83-.09,.64,.25,1.25,.68,1.74,.42,.48,.94,.88,1.32,1.4,0,0,.78,1.27,3.17,.44"/>
              </g>
              <g>
                <path class="cls-17" d="M182.24,101.6l5.94,1.26c.58,.04,1.03,.51,1.04,1.09l-.07,12.86c0,.88-.3,1.73-.84,2.43l-.57,.73c-1.29,1.67-3.91,1.5-4.9-.36-.07-.13-.12-.24-.14-.34-.02-.12-.05-.19-.06-.29l-.11-1.25c-.06-1.15-.07-2.31-.07-2.3,0,0-2.43-.31-3.06-3.44-.31-1.56-.33-4.13-.28-6.24,.05-1.9,1.21-4.27,3.1-4.14Z"/>
                <g>
                  <g>
                    <path class="cls-53" d="M180.04,108.15c0,.21,.18,.39,.41,.39,.22,0,.4-.17,.4-.38,0-.21-.18-.39-.41-.39-.22,0-.4,.17-.4,.38Z"/>
                    <path class="cls-53" d="M179.74,107.06c.05,.05,.35-.19,.79-.2,.43-.02,.76,.19,.81,.13,.02-.02-.03-.12-.18-.21-.14-.1-.38-.18-.65-.17-.27,.01-.5,.12-.62,.23-.13,.11-.17,.21-.15,.23Z"/>
                  </g>
                  <g>
                    <path class="cls-53" d="M183.94,108.06c0,.21,.18,.39,.41,.39,.22,0,.4-.17,.4-.38,0-.21-.18-.39-.41-.39-.22,0-.4,.17-.4,.38Z"/>
                    <path class="cls-53" d="M183.88,106.95c.05,.05,.35-.19,.79-.2,.43-.02,.76,.19,.81,.13,.02-.02-.03-.12-.18-.21-.14-.1-.38-.18-.65-.17-.27,.01-.5,.12-.62,.23-.13,.11-.17,.21-.15,.23Z"/>
                  </g>
                  <path class="cls-53" d="M182.57,110.26s-.27-.06-.71-.1c-.11,0-.22-.03-.24-.1-.03-.08,.01-.2,.06-.33,.09-.27,.19-.56,.3-.86,.41-1.22,.7-2.23,.65-2.24-.05-.02-.42,.96-.83,2.18-.1,.3-.19,.59-.28,.86-.04,.13-.1,.27-.04,.44,.03,.08,.12,.14,.19,.16,.07,.02,.13,.02,.19,.02,.44,0,.72,0,.72-.03Z"/>
                  <path class="cls-20" d="M182.47,115.42s2.13,.05,4.18-1.29c0,0-.98,2.22-4.15,2.05l-.03-.76Z"/>
                  <path class="cls-20" d="M182.79,111.3c.15-.21,.42-.34,.69-.32,.19,.01,.38,.1,.5,.25,.12,.15,.15,.37,.05,.52-.11,.17-.35,.22-.56,.17-.21-.05-.39-.18-.57-.31-.05-.04-.1-.07-.13-.12-.03-.05-.04-.12,0-.16"/>
                  <path class="cls-53" d="M183.86,110.51c-.07,0-.05,.47-.44,.82-.39,.35-.9,.32-.9,.38,0,.03,.12,.09,.33,.08,.21,0,.51-.08,.75-.29,.24-.22,.33-.49,.34-.69,.01-.2-.05-.31-.08-.31Z"/>
                </g>
                <path class="cls-53" d="M183.9,105.66c.05,.12,.48,.04,.99,.09,.51,.03,.93,.16,1,.06,.03-.05-.05-.16-.22-.27-.17-.11-.44-.21-.74-.23-.31-.02-.59,.04-.77,.12-.18,.08-.28,.18-.25,.23Z"/>
                <path class="cls-53" d="M179.8,105.15c.08,.1,.38-.02,.74-.04,.36-.03,.67,.04,.73-.07,.03-.05-.02-.15-.16-.24-.14-.09-.36-.16-.61-.14-.25,.02-.46,.12-.58,.22-.12,.11-.16,.21-.13,.26Z"/>
                <path class="cls-53" d="M190.81,102.85c-.44-1.3-2.21-2.72-3.89-3.36-.95-.36-2.02-.22-2.88,.34l-2.12,1.4c.2,1.03,1.02,1.92,2.04,2.21,.54,.15,1.19,.19,1.52,.64,.34,.47,.16,1.16,.47,1.64,.44,.67,1.59,.61,1.92,1.34,.14,.32,.08,.7,.23,1.01,.2,.42,1.28,.93,1.72,.78,.44-.15,.43-.9,.56-1.3,.23-.68,.12-1.03,.04-1.4-.21-.89,.68-2.45,.39-3.31Z"/>
                <path class="cls-17" d="M188.53,109.26c0-.23,.24-.8,.47-.84,.62-.12,1.73-.11,1.81,1.46,.1,2.15-2.08,1.8-2.09,1.74,0-.05-.16-1.55-.19-2.36Z"/>
                <path class="cls-20" d="M189.34,110.78s.04,.02,.1,.05c.06,.03,.17,.04,.28,0,.22-.09,.4-.46,.39-.85,0-.2-.05-.38-.13-.53-.07-.15-.18-.26-.29-.27-.11-.02-.19,.05-.22,.11-.03,.06-.01,.1-.02,.11,0,0-.05-.03-.03-.12,0-.04,.03-.1,.08-.14,.05-.04,.12-.07,.2-.06,.17,0,.32,.15,.41,.32,.09,.17,.15,.37,.16,.59,0,.43-.2,.85-.5,.95-.15,.05-.28,0-.35-.04-.07-.05-.08-.1-.08-.1Z"/>
              </g>
            </g>
            <g>
              <path class="cls-17" d="M174.61,125.49l-3.8,9.92-7.15,.45-1.11,3.11,9.44,1.83s2.84,.83,4.46-2.78l2.77-9.86-4.61-2.67Z"/>
              <g>
                <path class="cls-17" d="M156.86,137.41c.09,.17,.26,.28,.46,.27,.04,0,.08-.01,.12-.02,.27-.09,.25-.64,.25-.64l1.3-.21s1.69,1.09,2.29,1.81,2.13,.14,2.13,.14l.53-2.76-2.39-2.16s.15,.13-.02-.28c-.16-.4-.91-.25-.91-.25-.12-.2-.61-.27-.61-.27l-2.09,.24c-.43,.05-.82,.29-1.05,.66l-.89,1.4s-.47,1.01-.39,1.24c.11,.35,.49,.28,.49,.28,0,0,.1,.66,.28,.69,.17,.02,.52-.12,.52-.12h0Z"/>
                <path class="cls-20" d="M160.81,138.16s-.05-.03-.12-.09c-.09-.07-.21-.17-.35-.28-.31-.24-.77-.58-1.38-.95h.03c-.39,.07-.82,.15-1.29,.23l.04-.05c0,.11,0,.21-.02,.32-.02,.11-.06,.22-.15,.31-.05,.04-.12,.07-.17,.08-.06,.01-.12,.02-.18,.01-.12-.02-.24-.08-.32-.18-.02-.02-.04-.05-.06-.08v-.02s-.02-.01-.02-.01h0s0,0,0,0c-.02,0,.14,.05,.08,.03h0s0,0,0,0l-.04,.02c-.05,.02-.11,.04-.17,.06-.06,.02-.12,.03-.18,.04-.03,0-.06,0-.1,.01-.03,0-.07,0-.12-.02-.07-.05-.1-.11-.13-.17-.03-.06-.05-.12-.06-.18-.04-.12-.06-.24-.08-.37l.08,.05c-.17,.03-.37-.01-.48-.16-.05-.07-.1-.16-.09-.26,0-.09,.02-.17,.05-.25,.09-.32,.22-.62,.36-.93h0s0,0,0,0c.15-.24,.31-.49,.47-.75,.1-.16,.2-.32,.3-.47,.1-.15,.19-.32,.33-.46,.13-.14,.3-.24,.47-.31,.17-.07,.36-.09,.53-.11,.69-.08,1.35-.15,1.97-.22h0s0,0,0,0c.12,.02,.23,.05,.35,.09,.11,.04,.22,.09,.3,.21l-.07-.02c.22-.09,.48-.09,.67,.04,.19,.13,.28,.34,.33,.53l-.02-.03c.69,.62,1.24,1.12,1.64,1.48,.18,.17,.33,.31,.44,.41,.1,.09,.15,.15,.15,.15,0,0-.06-.04-.17-.13-.12-.1-.27-.23-.46-.39-.41-.35-.98-.84-1.67-1.45h-.01s0-.03,0-.03c-.04-.17-.13-.36-.29-.46-.16-.11-.38-.1-.57-.02l-.05,.02-.03-.04c-.04-.07-.14-.12-.24-.16-.1-.04-.21-.06-.32-.08h.02c-.62,.07-1.28,.15-1.97,.23-.18,.02-.34,.04-.5,.1-.16,.06-.3,.16-.42,.28-.12,.12-.21,.28-.31,.44-.1,.16-.2,.31-.3,.47-.16,.26-.32,.51-.47,.75h0c-.14,.29-.26,.6-.35,.9-.02,.08-.04,.15-.04,.22,0,.06,.02,.12,.06,.18,.08,.11,.23,.14,.35,.12h.07s.01,.05,.01,.05c.02,.12,.04,.24,.08,.35,.03,.11,.08,.24,.14,.28,0,0,.03,0,.05,0,.03,0,.05,0,.08,0,.05,0,.11-.02,.16-.04,.05-.02,.11-.03,.16-.06l.04-.02h0s0,0,0,0c-.07-.03,.09,.03,.08,.03h0s0,0,0,0h0s0,.02,0,.02c.01,.02,.03,.04,.04,.06,.06,.08,.16,.13,.25,.14,.05,0,.09,0,.14,0,.05,0,.09-.02,.12-.05,.12-.13,.14-.36,.14-.54v-.05s.04,0,.04,0c.47-.07,.91-.14,1.3-.2h.02s.01,0,.01,0c.61,.38,1.06,.73,1.36,.99,.15,.13,.26,.23,.34,.3,.07,.07,.11,.11,.11,.11Z"/>
              </g>
              <path class="cls-20" d="M160.25,134.04s-.24,.11-.67,.2c-.43,.09-1.04,.16-1.73,.13l.07-.05c-.04,.1-.07,.21-.12,.32-.29,.72-.71,1.29-1.06,1.65-.18,.18-.33,.31-.44,.4-.11,.08-.18,.13-.18,.12-.01-.02,.23-.21,.55-.58,.33-.37,.73-.93,1.01-1.63,.04-.11,.08-.21,.11-.31l.02-.05h.05c.68,.05,1.28-.01,1.7-.08,.43-.06,.68-.13,.69-.11Z"/>
              <path class="cls-20" d="M158.26,135.26s-.1,.58-.52,1.17c-.41,.59-.9,.92-.92,.89-.03-.03,.41-.4,.81-.97,.4-.57,.59-1.11,.63-1.09Z"/>
              <path class="cls-20" d="M163.81,137.9s-.02,.02-.07,.04c-.05,.02-.11,.05-.21,.08-.18,.06-.47,.12-.82,.09-.35-.02-.79-.14-1.19-.43-.39-.29-.75-.74-.9-1.32l.08,.05c-.47,.09-.99,.12-1.51,.07-.19-.02-.38-.05-.56-.08-.18-.04-.37-.08-.53-.18-.08-.05-.17-.12-.2-.23-.03-.1-.02-.21,.03-.3,.05-.09,.14-.16,.23-.18,.08-.02,.16-.04,.24-.06,.64-.15,1.21-.26,1.7-.34,.49-.08,.89-.12,1.16-.15,.28-.02,.43-.03,.43-.02,0,.01-.15,.03-.42,.07-.27,.04-.67,.1-1.15,.19-.48,.09-1.06,.21-1.69,.37-.08,.02-.16,.04-.24,.06-.06,.02-.12,.06-.15,.12-.03,.06-.04,.13-.02,.2,.02,.06,.07,.11,.14,.15,.14,.08,.31,.12,.49,.16,.18,.04,.36,.06,.54,.08,.52,.05,1.02,.02,1.48-.06h.06s.02,.05,.02,.05c.14,.54,.46,.98,.84,1.26,.37,.28,.78,.4,1.13,.44,.34,.03,.62-.01,.8-.05,.18-.04,.28-.08,.29-.07Z"/>
            </g>
            <g>
              <path class="cls-53" d="M161.35,173.37s-.02-.09,0-.24c.02-.15,.09-.37,.24-.6,.04-.06,.08-.12,.14-.17,.06-.06,.17-.1,.27-.06,.05,.02,.1,.06,.12,.12,.02,.06,0,.11,0,.16-.03,.1-.08,.16-.12,.24-.09,.16-.17,.31-.29,.49-.06,.09-.19,.16-.32,.14-.12-.02-.22-.07-.31-.14-.17-.12-.32-.27-.45-.42-.06-.08-.12-.15-.18-.23-.05-.08-.11-.16-.13-.27-.02-.1,.02-.24,.14-.29,.12-.04,.22,.02,.29,.06,.14,.11,.22,.23,.3,.34,.16,.22,.25,.43,.3,.57,.05,.14,.06,.23,.05,.23-.02,.01-.11-.32-.43-.74-.08-.1-.18-.22-.29-.31-.06-.04-.13-.07-.17-.04-.05,.02-.07,.08-.06,.15,.01,.07,.06,.14,.12,.21,.05,.07,.11,.15,.17,.22,.12,.14,.27,.28,.43,.39,.08,.06,.16,.1,.24,.11,.08,0,.14-.02,.19-.09,.1-.14,.19-.32,.28-.47,.04-.08,.1-.15,.12-.22,.02-.07,.01-.11-.04-.13-.11-.04-.21,.08-.29,.18-.3,.43-.3,.79-.33,.78Z"/>
              <g>
                <polygon class="cls-17" points="167.49 173.58 170.54 180.19 175.46 177.92 172.31 169.74 167.49 173.58"/>
                <g>
                  <path class="cls-36" d="M169.96,179.75l1.78,3.4s-4.56,4.72-4.13,5.77l10.72-5.14-2.95-6.81-5.42,2.79Z"/>
                  <path class="cls-28" d="M174.84,181.09c.23-.04,.49,.12,.54,.35,.05,.23-.11,.49-.35,.54-.23,.05-.55-.14-.57-.38-.03-.24,.18-.53,.42-.52"/>
                  <g class="cls-10">
                    <path class="cls-4" d="M178.33,183.78l-.45-.85-10.11,5.25s-.38,.44-.16,.75l10.72-5.14Z"/>
                  </g>
                  <path class="cls-53" d="M171.55,183.18c.03,.05,.3-.05,.64,0,.34,.04,.58,.2,.62,.16,.04-.03-.18-.31-.6-.36-.41-.05-.7,.16-.66,.21Z"/>
                  <path class="cls-53" d="M170.64,184.18c.01,.06,.28,.04,.57,.17,.29,.13,.45,.35,.5,.32,.05-.02-.06-.34-.41-.5-.35-.17-.67-.04-.65,.01Z"/>
                  <path class="cls-53" d="M170.65,185.83c.05-.01,0-.31-.27-.53-.27-.22-.57-.22-.57-.16,0,.06,.22,.13,.44,.32,.22,.18,.35,.39,.4,.37Z"/>
                  <path class="cls-53" d="M171.03,181.87s.25-.15,.56-.27c.3-.13,.58-.14,.59-.2,.01-.05-.31-.14-.66,.01-.36,.15-.52,.43-.48,.46Z"/>
                </g>
                <path class="cls-53" d="M168.96,178.87l-8.04-20.11s.18-3.43,.81-4.52c.63-1.08,19.78-7.41,19.78-7.41,0,0,4.88-1.17,8.13,0,3.25,1.17,6.66,2.36,6.29,4.63-.53,3.32-3.41,6.78-3.41,6.78l-14.08,.42-7.67,2.8,5.17,14.81-6.98,2.59Z"/>
                <polygon class="cls-17" points="161.81 165.12 161.63 172.4 167.05 172.53 167.83 163.8 161.81 165.12"/>
                <g>
                  <path class="cls-36" d="M161.31,171.75l.1,3.83s-6.17,2.22-6.25,3.35l11.89,.12,.37-7.41-6.1,.11Z"/>
                  <path class="cls-28" d="M165.09,175.11c.23,.07,.39,.33,.33,.56-.06,.23-.32,.39-.55,.33-.23-.06-.43-.37-.35-.59,.08-.22,.4-.4,.61-.28"/>
                  <g class="cls-10">
                    <path class="cls-4" d="M167.04,179.06l-.02-.96-11.39,.24s-.53,.22-.48,.6l11.89,.12Z"/>
                  </g>
                  <path class="cls-53" d="M161.21,175.52c0,.06,.29,.09,.57,.28,.29,.18,.43,.44,.49,.41,.05-.01-.03-.36-.38-.58-.35-.23-.7-.16-.69-.11Z"/>
                  <path class="cls-53" d="M159.96,176.02c-.01,.06,.24,.16,.43,.4,.2,.24,.25,.51,.31,.51,.05,0,.1-.33-.15-.63-.25-.31-.59-.33-.59-.28Z"/>
                  <path class="cls-53" d="M159.24,177.51c.05,.01,.14-.28,0-.6-.14-.32-.42-.45-.44-.4-.03,.05,.14,.22,.26,.48,.12,.26,.14,.51,.19,.51Z"/>
                  <path class="cls-53" d="M161.33,174.12c.02,.05,.29-.02,.62,0,.33,.02,.58,.13,.61,.08,.03-.04-.21-.26-.6-.28-.39-.03-.66,.15-.63,.2Z"/>
                </g>
                <path class="cls-53" d="M164.97,144.92s-3.25-.26-3.61,3.26c-.36,3.52-.72,19.96-.72,19.96l7.59,.63,1.17-16.8,12.1-5.15s-14.37-2.36-16.54-1.91Z"/>
                <path class="cls-53" d="M178.36,140.17s-1.97,5.52-1.6,6.14c.38,.62,5.44,3.15,5.44,3.15l12.68,4.87s1.3-2.07,1.3-5.25-4.41-8.9-4.41-8.9h-13.42Z"/>
                <path class="cls-36" d="M182.11,146.55s-.02,.01-.06,.03c-.05,.02-.11,.05-.18,.08-.17,.07-.4,.18-.7,.31-.62,.27-1.52,.66-2.64,1.15-2.26,.97-5.43,2.34-9.1,3.92l.04-.06c-.12,1.66-.24,3.45-.37,5.31-.31,4.33-.59,8.33-.82,11.49v.06s-.06,0-.06,0c-2.31-.2-4.2-.37-5.53-.49-.65-.06-1.16-.11-1.52-.14-.17-.02-.3-.03-.4-.04-.09-.01-.14-.02-.14-.02,0,0,.05,0,.14,0,.1,0,.23,.01,.4,.03,.36,.03,.87,.06,1.52,.11,1.33,.1,3.22,.25,5.53,.44l-.06,.05c.22-3.16,.49-7.16,.79-11.49,.13-1.85,.26-3.65,.37-5.31v-.04s.04-.02,.04-.02c3.68-1.56,6.85-2.91,9.12-3.87,1.13-.47,2.02-.85,2.65-1.11,.3-.12,.54-.22,.71-.29,.08-.03,.14-.05,.18-.07,.04-.02,.06-.02,.06-.02Z"/>
                <path class="cls-36" d="M192.2,147.1s-.13-.03-.36-.1c-.25-.08-.57-.18-.95-.31-.81-.26-1.92-.61-3.19-.81-1.27-.2-2.45-.14-3.27,.04-.83,.17-1.3,.41-1.31,.38,0,0,.11-.07,.33-.17,.22-.1,.54-.21,.96-.31,.83-.21,2.03-.28,3.31-.08,1.29,.2,2.41,.57,3.21,.85,.4,.14,.72,.26,.94,.35,.22,.09,.34,.14,.34,.15Z"/>
                <path class="cls-36" d="M190.4,144.19s-.42-.06-1.11,0c-.34,.02-.75,.08-1.2,.13-.45,.05-.95,.11-1.46,.21-1.03,.18-1.92,.54-2.48,.92-.57,.37-.84,.71-.86,.69,0,0,.05-.1,.18-.24,.13-.14,.34-.34,.62-.54,.56-.41,1.47-.79,2.51-.98,.52-.1,1.02-.16,1.47-.2,.45-.05,.86-.09,1.21-.1,.35-.01,.63,0,.82,.04,.19,.03,.29,.06,.29,.07Z"/>
              </g>
            </g>
            <g>
              <g>
                <path class="cls-45" d="M173.66,124.47s2.27-3.78,2.9-4.55c.59-.72,1.35-1.14,1.86-1.36,.28-.12,.58-.21,.88-.26l3.26-.72s0,2.23,2.34,2.36c2.33,.14,4.3-3.11,4.3-3.11,0,0,3.77,.58,4.67,1.05,.9,.46,2.32,1.05,3.1,4.96l.55,3.82-6.5,.6-.62,9.65-3.22,2.24s-8.93,2.32-9.5,2.48c-.57,.15-.76-14.37-.76-14.37,0,0-2.29-1.48-3.24-2.78Z"/>
                <path class="cls-53" d="M177.94,122.84s-.05,.1-.13,.28c-.07,.18-.17,.45-.27,.79-.21,.67-.44,1.62-.58,2.68-.13,1.07-.13,2.04-.09,2.74,.02,.35,.05,.63,.08,.83,.03,.19,.05,.3,.05,.3,0,0,0-.11,0-.31-.01-.2-.03-.48-.04-.83-.02-.7,0-1.67,.13-2.72,.13-1.06,.35-2,.53-2.67,.09-.34,.17-.61,.23-.79,.06-.19,.09-.29,.08-.3Z"/>
              </g>
              <path class="cls-53" d="M191.25,122.61s.01,.11,0,.3c0,.22-.02,.49-.03,.8-.03,.71-.08,1.63-.12,2.64-.05,1.03-.1,1.97-.15,2.64-.03,.34-.05,.61-.07,.8-.02,.19-.04,.29-.05,.29s-.01-.11,0-.29c0-.22,.02-.49,.03-.8,.03-.71,.07-1.63,.11-2.64,.05-1.03,.11-1.96,.16-2.64,.03-.34,.05-.61,.08-.8,.02-.19,.04-.29,.05-.29Z"/>
            </g>
            <g>
              <path class="cls-17" d="M178.21,138.66l12.23-2.66,.57-8.74,5.44-.5s-.38,5.97-.41,7.75c-.08,5.16-1.81,6.04-2.7,6.74-.88,.7-15.68,.38-15.68,.38l.55-2.97Z"/>
              <path class="cls-17" d="M171.27,140.24c.09,.17,.26,.28,.46,.27,.04,0,.08-.01,.12-.02,.27-.09,.25-.64,.25-.64l1.3-.21s1.69,1.09,2.29,1.81c.6,.72,2.13,.14,2.13,.14l.53-2.76-2.39-2.16s.15,.13-.02-.28c-.16-.4-.91-.25-.91-.25-.12-.2-.61-.27-.61-.27l-2.09,.24c-.43,.05-.82,.29-1.05,.66l-.89,1.4s-.47,1.01-.39,1.24c.11,.35,.49,.28,.49,.28,0,0,.1,.66,.28,.69,.17,.02,.52-.12,.52-.12h0Z"/>
              <path class="cls-20" d="M175.73,138.26s-.28,0-.73,.02c-.45,.02-1.06,.1-1.71,.32-.32,.11-.62,.24-.88,.38-.25,.14-.52,.26-.6,.44-.04,.09-.02,.18,.02,.25,.04,.07,.1,.11,.16,.13,.11,.05,.18,.01,.18,.03,0,0-.06,.06-.2,.02-.07-.02-.14-.06-.2-.14-.06-.07-.1-.21-.05-.33,.05-.12,.15-.22,.26-.29,.11-.07,.23-.15,.37-.22,.26-.15,.57-.28,.9-.39,.66-.22,1.3-.29,1.75-.29,.46,0,.73,.06,.73,.08Z"/>
              <path class="cls-20" d="M175.87,139.59s-.85,0-1.9,.07c-1.05,.06-1.89,.19-1.9,.15,0-.02,.2-.07,.54-.13,.34-.06,.82-.12,1.34-.15,.53-.03,1.01-.02,1.35,0,.35,.02,.56,.05,.56,.07Z"/>
              <path class="cls-20" d="M171.28,140.19s-.02-.08-.03-.22c0-.14-.02-.35,0-.61,0-.13,.02-.27,.06-.42,.03-.15,.11-.31,.21-.46,.19-.29,.45-.58,.78-.8,.33-.22,.66-.4,1-.51,.33-.1,.65-.13,.9-.14,.26,0,.47,0,.61,0,.14,0,.22,.01,.22,.02,0,.02-.32,.03-.83,.07-.25,.02-.56,.06-.87,.16-.31,.1-.64,.29-.96,.5-.32,.22-.57,.49-.76,.76-.2,.26-.24,.57-.27,.82-.05,.51-.04,.83-.07,.83Z"/>
              <path class="cls-20" d="M174.31,136.39s-.31,.03-.81,.09c-.48,.07-1.25,.11-1.69,.77-.48,.6-.88,1.17-1.06,1.64-.19,.46-.17,.79-.2,.78,0,0-.02-.08-.01-.22,0-.14,.04-.35,.12-.59,.16-.49,.56-1.09,1.04-1.69,.12-.15,.25-.3,.41-.41,.15-.12,.33-.18,.49-.23,.33-.09,.63-.12,.89-.14,.51-.03,.82,0,.82,0Z"/>
              <path class="cls-20" d="M175.21,140.99s-.05-.03-.12-.09c-.09-.07-.21-.17-.35-.28-.31-.24-.77-.58-1.38-.95h.03c-.39,.07-.82,.15-1.29,.23l.04-.05c0,.11,0,.21-.02,.32-.02,.11-.06,.22-.15,.31-.05,.04-.12,.07-.17,.08-.06,.01-.12,.02-.18,.01-.12-.02-.24-.08-.32-.18-.02-.02-.04-.05-.06-.08v-.02s-.02-.01-.02-.01h0s0,0,0,0c-.02,0,.14,.05,.08,.03h0s0,0,0,0l-.04,.02c-.05,.02-.11,.04-.17,.06-.06,.02-.12,.03-.18,.04-.03,0-.06,0-.1,.01-.03,0-.07,0-.12-.02-.07-.05-.1-.11-.13-.17-.03-.06-.05-.12-.06-.18-.04-.12-.06-.24-.08-.37l.08,.05c-.17,.03-.37-.01-.48-.16-.05-.07-.1-.16-.09-.26,0-.09,.02-.17,.05-.25,.09-.32,.22-.62,.36-.93h0s0,0,0,0c.15-.24,.31-.49,.47-.75,.1-.16,.2-.32,.3-.47,.1-.15,.19-.32,.33-.46,.13-.14,.3-.24,.47-.31,.17-.07,.36-.09,.53-.11,.69-.08,1.35-.15,1.97-.22h0s0,0,0,0c.12,.02,.23,.05,.35,.09,.11,.04,.22,.09,.3,.21l-.07-.02c.22-.09,.48-.09,.67,.04,.19,.13,.28,.34,.33,.53l-.02-.03c.69,.62,1.24,1.12,1.64,1.48,.18,.17,.33,.31,.44,.41,.1,.09,.15,.15,.15,.15,0,0-.06-.04-.17-.13-.12-.1-.27-.23-.46-.39-.41-.35-.98-.84-1.67-1.45h-.01s0-.03,0-.03c-.04-.17-.13-.36-.29-.46-.16-.11-.38-.1-.57-.02l-.05,.02-.03-.04c-.04-.07-.14-.12-.24-.16-.1-.04-.21-.06-.32-.08h.02c-.62,.07-1.28,.15-1.97,.23-.18,.02-.34,.04-.5,.1-.16,.06-.3,.16-.42,.28-.12,.12-.21,.28-.31,.44-.1,.16-.2,.31-.3,.47-.16,.26-.32,.51-.47,.75h0c-.14,.29-.26,.6-.35,.9-.02,.08-.04,.15-.04,.22,0,.06,.02,.12,.06,.18,.08,.11,.23,.14,.35,.12h.07s.01,.05,.01,.05c.02,.12,.04,.24,.08,.35,.03,.11,.08,.24,.14,.28,0,0,.03,0,.05,0,.03,0,.05,0,.08,0,.05,0,.11-.02,.16-.04,.05-.02,.11-.03,.16-.06l.04-.02h0s0,0,0,0c-.07-.03,.09,.03,.08,.03h0s0,0,0,0h0s0,.02,0,.02c.01,.02,.03,.04,.04,.06,.06,.08,.16,.13,.25,.14,.05,0,.09,0,.14,0,.05,0,.09-.02,.12-.05,.12-.13,.14-.36,.14-.54v-.05s.04,0,.04,0c.47-.07,.91-.14,1.3-.2h.02s.01,0,.01,0c.61,.38,1.06,.73,1.36,.99,.15,.13,.26,.23,.34,.3,.07,.07,.11,.11,.11,.11Z"/>
            </g>
          </g>
          <g>
            <g>
              <polygon class="cls-36" points="186.8 144.76 184.74 144.76 184.74 145.22 189.25 189.16 191.65 189.16 186.8 144.76"/>
              <path class="cls-53" d="M186.8,144.76s0,.08,.02,.23c.02,.15,.04,.38,.07,.67,.06,.59,.15,1.46,.27,2.57,.24,2.24,.59,5.47,1.01,9.47,.87,8,2.07,19.09,3.41,31.45l.07-.08c-.7,0-1.45,0-2.21,0h-.19l.07,.06c-2.12-20.68-3.93-38.18-4.55-43.93h0c0-.21,0-.33,0-.45l-.02,.02c.7,0,1.21,0,1.55-.01,.17,0,.29,0,.38,0,.08,0,.13,0,.13,0,0,0-.04,0-.12,0-.09,0-.21,0-.37,0-.34,0-.86,0-1.56-.01h-.02s0,.02,0,.02c0,.12,0,.24,0,.45h0s0,0,0,0c.56,5.76,2.34,23.26,4.46,43.94v.06h.26c.76,0,1.51,0,2.21,0h.08v-.08c-1.37-12.37-2.59-23.48-3.48-31.49-.45-4-.8-7.22-1.05-9.45-.13-1.11-.22-1.97-.29-2.56-.03-.29-.06-.51-.08-.66-.02-.15-.03-.22-.03-.22Z"/>
            </g>
            <g>
              <polygon class="cls-53" points="150.44 144.76 148.38 144.76 148.38 145.23 152.67 189.15 154.78 189.15 150.44 144.76"/>
              <polygon class="cls-36" points="195.4 145.22 122.05 145.3 122.02 143.36 195.4 143.36 195.4 145.22"/>
              <g>
                <polygon class="cls-36" points="132.36 144.76 134.42 144.76 134.42 145.23 130.13 189.15 128.02 189.15 132.36 144.76"/>
                <path class="cls-53" d="M132.27,145.34s0,.08-.02,.23c-.01,.15-.03,.37-.06,.66-.05,.58-.14,1.44-.24,2.54-.21,2.2-.52,5.39-.9,9.34-.77,7.89-1.83,18.82-3.01,30.99l-.06-.06c.66,0,1.37,0,2.08,0h.03l-.06,.05c2-20.33,3.7-37.56,4.26-43.28h0c0-.21,0-.34,0-.46l.02,.02c-.7,0-1.21,0-1.55,0-.17,0-.29,0-.38,0-.08,0-.13,0-.13,0,0,0,.04,0,.12,0,.08,0,.21,0,.38,0,.34,0,.86,0,1.56,0h.02s0,.02,0,.02c0,.12,0,.25,0,.47h0s0,0,0,0c-.55,5.72-2.22,22.95-4.19,43.29v.05h-.09c-.71,0-1.42,0-2.08,0h-.06v-.06c1.21-12.19,2.29-23.13,3.07-31.03,.39-3.94,.71-7.12,.93-9.32,.11-1.09,.2-1.94,.26-2.52,.03-.29,.05-.5,.07-.65,.02-.15,.03-.22,.03-.22Z"/>
              </g>
              <g>
                <polygon class="cls-36" points="162.09 144.93 160.03 144.93 160.03 145.4 164.32 189.15 166.43 189.15 162.09 144.93"/>
                <path class="cls-53" d="M162.18,145.51s0,.08,.02,.23c.01,.15,.03,.37,.06,.66,.05,.58,.14,1.43,.24,2.53,.21,2.19,.52,5.37,.9,9.3,.77,7.86,1.83,18.75,3.01,30.88l.06-.06c-.66,0-1.37,0-2.08,0h-.03l.06,.05c-2-20.26-3.7-37.42-4.26-43.12h0c0-.21,0-.34,0-.46l-.02,.02c.7,0,1.21,0,1.55,0,.17,0,.29,0,.38,0,.08,0,.13,0,.13,0,0,0-.04,0-.12,0-.08,0-.21,0-.38,0-.34,0-.86,0-1.56,0h-.02s0,.02,0,.02c0,.12,0,.25,0,.46h0s0,0,0,0c.55,5.7,2.22,22.86,4.19,43.12v.05h.09c.71,0,1.42,0,2.08,0h.06v-.06c-1.21-12.14-2.29-23.04-3.07-30.91-.39-3.93-.71-7.09-.93-9.28-.11-1.09-.2-1.94-.26-2.51-.03-.28-.05-.5-.07-.65-.02-.15-.03-.22-.03-.22Z"/>
              </g>
            </g>
            <path class="cls-53" d="M195.13,145.23s-14.79-.07-33.03-.07-33.03,.03-33.03,.07,14.79,.07,33.03,.07,33.03-.03,33.03-.07Z"/>
          </g>
          <g>
            <g>
              <path class="cls-28" d="M149.18,129.76l16.11,.13c.52,0,1.02,.25,1.1,.77l1.76,11.74h8.3c.27,0,.48,.22,.48,.48s-.22,.48-.48,.48h-26.51l-1.81-12.39c-.1-.64,.4-1.22,1.05-1.22Z"/>
              <path class="cls-53" d="M149.18,129.76s-.09-.01-.25,.02c-.16,.04-.42,.14-.62,.41-.1,.13-.18,.31-.2,.51-.03,.21,.03,.43,.06,.66,.07,.47,.15,1.02,.23,1.64,.35,2.46,.87,6.01,1.49,10.37v.04s.05,0,.05,0c6.86,0,15.87,0,25.72,.02h.69c.11,0,.26,0,.37-.07,.11-.06,.2-.17,.25-.29,.1-.25-.02-.55-.25-.67-.11-.07-.26-.07-.36-.07h-.34c-.91,0-1.81,0-2.69,0-1.77,0-3.5,0-5.17,0l.06,.05c-.63-4.21-1.23-8.13-1.76-11.65-.02-.22-.12-.46-.3-.61-.17-.16-.4-.24-.62-.27-.22-.03-.44-.02-.65-.02-.21,0-.42,0-.63,0-.84,0-1.65-.01-2.43-.02-1.56,0-3-.02-4.31-.03-2.62-.01-4.7-.02-6.14-.03-.71,0-1.26,0-1.64,0-.18,0-.33,0-.42,0-.1,0-.14,0-.14,0,0,0,.05,0,.14,0,.1,0,.24,0,.42,0,.38,0,.93,.01,1.64,.02,1.44,.02,3.52,.04,6.14,.07,1.31,.01,2.75,.03,4.31,.04,.78,0,1.59,.02,2.43,.02,.21,0,.42,0,.63,0,.21,0,.43,0,.63,.02,.2,.03,.41,.11,.56,.25,.16,.14,.24,.33,.26,.55,.53,3.52,1.11,7.44,1.74,11.65v.05h.06c1.67,0,3.39,0,5.17,0,.89,0,1.79,0,2.69,0h.34c.12,0,.21,0,.3,.05,.18,.09,.26,.32,.19,.51-.03,.09-.1,.17-.19,.22-.09,.05-.18,.06-.3,.05-.23,0-.46,0-.69,0-9.84,0-18.86,.01-25.72,.02l.05,.04c-.65-4.36-1.17-7.91-1.54-10.37-.09-.61-.17-1.16-.25-1.63-.03-.24-.09-.46-.07-.65,.02-.2,.09-.37,.19-.5,.19-.27,.44-.37,.6-.41,.16-.04,.25-.03,.25-.04Z"/>
            </g>
            <path class="cls-4" d="M158.92,136.41c0,.56-.45,1.01-1.01,1.01s-1.01-.45-1.01-1.01,.45-1.01,1.01-1.01,1.01,.45,1.01,1.01Z"/>
            <path class="cls-53" d="M167.5,143.26s-.54-2.99-1.15-6.68c-.61-3.69-1.09-6.69-1.06-6.69,.02,0,.54,2.99,1.15,6.68,.61,3.69,1.09,6.69,1.06,6.69Z"/>
          </g>
        </g>
      </g>
    </g>
  </g>
</svg>